M48
; DRILL file {KiCad 9.0.7-9.0.7~ubuntu24.04.1} date 2026-02-13T16:24:45-0500
; FORMAT={-:-/ absolute / metric / decimal}
; #@! TF.CreationDate,2026-02-13T16:24:45-05:00
; #@! TF.GenerationSoftware,Kicad,Pcbnew,9.0.7-9.0.7~ubuntu24.04.1
; #@! TF.FileFunction,Plated,1,4,PTH
FMAT,2
METRIC
; #@! TA.AperFunction,Plated,PTH,ViaDrill
T1C0.255
; #@! TA.AperFunction,Plated,PTH,ComponentDrill
T2C0.500
; #@! TA.AperFunction,Plated,PTH,ComponentDrill
T3C0.600
; #@! TA.AperFunction,Plated,PTH,ComponentDrill
T4C2.500
; #@! TA.AperFunction,Plated,PTH,ComponentDrill
T5C2.700
%
G90
G05
T1
X88.8Y-88.4
X88.8Y-93.6
X88.8Y-98.8
X88.8Y-103.8
X88.8Y-108.8
X88.8Y-113.8
X88.8Y-118.8
X88.8Y-123.8
X89.0Y-145.1
X89.0Y-150.3
X90.75Y-97.0
X90.8Y-157.2
X92.5Y-129.0
X92.5Y-134.7
X92.75Y-138.975
X93.35Y-92.05
X95.5Y-107.2
X95.5Y-109.4
X95.7Y-110.9
X95.8Y-105.7
X95.955Y-101.1
X96.1Y-112.2
X96.95Y-120.325
X97.2Y-110.9
X97.4Y-105.7
X97.55Y-95.9
X97.6Y-94.7
X97.9Y-92.75
X98.0Y-135.0
X98.025Y-127.075
X98.5Y-102.225
X98.5Y-103.325
X98.8Y-105.7
X98.8Y-110.9
X99.0Y-147.1
X99.225Y-116.85
X99.375Y-113.9
X99.5Y-88.0
X99.5Y-155.5
X99.525Y-151.375
X99.9Y-106.9
X99.9Y-109.8
X100.0Y-83.321
X100.125Y-95.475
X100.2Y-105.7
X100.275Y-93.375
X100.325Y-123.2
X100.8Y-91.5
X101.025Y-110.8
X101.2Y-112.8
X101.3Y-95.675
X101.4Y-105.7
X101.475Y-123.0
X101.525Y-93.325
X102.225Y-111.0
X102.3Y-89.4
X102.6Y-106.85
X102.8Y-144.8
X103.0Y-158.0
X103.2Y-113.875
X104.1Y-93.4
X104.25Y-118.2
X104.25Y-119.3
X104.7Y-101.0
X104.875Y-121.875
X104.875Y-126.725
X105.0Y-135.0
X105.1Y-93.4
X105.1Y-115.075
X105.2Y-83.321
X105.7Y-102.1
X105.9Y-90.0
X106.0Y-92.8
X106.0Y-104.3
X106.0Y-120.825
X106.075Y-122.875
X106.7Y-95.4
X106.95Y-110.125
X107.0Y-151.25
X107.6Y-103.1
X107.675Y-98.2
X107.675Y-101.068
X107.8Y-93.45
X107.8Y-107.8
X107.8Y-109.1
X108.0Y-95.0
X108.3Y-110.3
X108.45Y-122.275
X108.7Y-89.35
X108.85Y-92.8
X109.0Y-144.85
X109.05Y-109.1
X109.05Y-107.797
X109.1Y-90.0
X109.35Y-117.025
X109.45Y-111.2
X109.9Y-114.8
X109.95Y-93.35
X109.975Y-95.475
X110.1Y-109.1
X110.2Y-107.0
X110.3Y-110.3
X110.35Y-107.9
X110.4Y-102.8
X110.4Y-113.8
X110.6Y-158.3
X110.975Y-95.95
X111.1Y-98.35
X111.1Y-101.8
X111.15Y-109.45
X111.5Y-87.9
X111.5Y-92.75
X111.6Y-116.1
X111.6Y-116.75
X112.0Y-126.925
X112.0Y-135.0
X112.25Y-83.321
X112.3Y-89.85
X112.3Y-92.75
X112.5Y-118.725
X112.6Y-122.3
X113.1Y-113.25
X113.5Y-98.35
X113.5Y-101.0
X113.5Y-145.1
X113.5Y-150.3
X113.5Y-155.5
X113.62Y-118.75
X113.7Y-123.0
X114.125Y-111.75
X114.25Y-106.8
X114.4Y-121.025
X114.73Y-92.8
X114.75Y-89.9
X114.875Y-109.45
X115.0Y-104.1
X115.2Y-105.55
X115.2Y-116.5
X115.2Y-117.6
X115.35Y-109.05
X115.39Y-118.98
X115.56Y-96.25
X115.575Y-121.7
X115.7Y-116.1
X116.0Y-117.1
X116.25Y-119.8
X116.475Y-108.725
X116.5Y-117.9
X116.55Y-96.75
X117.1Y-113.5
X117.2Y-93.35
X117.2Y-94.5
X117.5Y-114.1
X117.525Y-101.3
X117.6Y-103.6
X117.9Y-113.5
X118.1Y-112.0
X118.4Y-106.0
X119.0Y-116.15
X119.15Y-92.65
X119.4Y-115.4
X119.5Y-124.5
X119.6Y-94.4
X119.75Y-116.0
X119.9Y-114.5
X119.95Y-97.3
X120.0Y-135.0
X121.15Y-93.95
X121.525Y-98.025
X121.55Y-110.6
X121.8Y-89.325
X121.8Y-157.5
X121.875Y-99.325
X122.0Y-115.6
X122.3Y-105.9
X122.3Y-111.4
X122.4Y-109.3
X122.8Y-114.4
X123.0Y-145.1
X123.0Y-150.3
X123.2Y-109.3
X123.45Y-94.2
X123.5Y-110.6
X123.9Y-92.85
X124.0Y-109.3
X124.3Y-110.2
X124.4Y-117.2
X124.65Y-86.7
X125.1Y-84.35
X125.1Y-85.75
X125.1Y-110.2
X125.15Y-94.65
X125.15Y-99.05
X125.25Y-105.05
X125.3Y-114.1
X125.3Y-114.9
X125.3Y-115.7
X125.3Y-116.5
X125.5Y-86.7
X125.9Y-102.6
X126.1Y-107.3
X126.2Y-113.2
X126.45Y-92.2
X126.75Y-109.9
X126.8Y-92.85
X126.9Y-113.2
X127.5Y-121.0
X127.5Y-126.5
X128.2Y-89.3
X128.475Y-96.25
X128.5Y-92.0
X129.6Y-107.65
X130.35Y-107.65
X131.3Y-107.8
X131.3Y-108.8
X131.8Y-100.575
X131.8Y-103.025
X132.5Y-87.0
X132.5Y-91.425
X132.5Y-97.4
X132.5Y-113.0
X132.5Y-118.2
X132.5Y-123.4
T2
X92.375Y-85.6
X92.375Y-153.6
X92.968Y-84.168
X92.968Y-87.032
X92.968Y-152.168
X92.968Y-155.032
X94.4Y-83.575
X94.4Y-87.625
X94.4Y-151.575
X94.4Y-155.625
X95.832Y-84.168
X95.832Y-87.032
X95.832Y-152.168
X95.832Y-155.032
X96.425Y-85.6
X96.425Y-153.6
X114.675Y-85.6
X115.268Y-84.168
X115.268Y-87.032
X116.575Y-153.6
X116.7Y-83.575
X116.7Y-87.625
X117.168Y-152.168
X117.168Y-155.032
X118.132Y-84.168
X118.132Y-87.032
X118.6Y-151.575
X118.6Y-155.625
X118.725Y-85.6
X120.032Y-152.168
X120.032Y-155.032
X120.625Y-153.6
T4
X94.4Y-143.3
X118.6Y-143.4
T5
X94.4Y-85.6
X94.4Y-153.6
X116.7Y-85.6
X118.6Y-153.6
T3
G00X101.18Y-84.05
M15
G01X101.18Y-83.25
M16
G05
G00X101.18Y-88.38
M15
G01X101.18Y-87.28
M16
G05
G00X109.82Y-84.05
M15
G01X109.82Y-83.25
M16
G05
G00X109.82Y-88.38
M15
G01X109.82Y-87.28
M16
G05
G00X120.68Y-84.05
M15
G01X120.68Y-83.25
M16
G05
G00X120.68Y-88.38
M15
G01X120.68Y-87.28
M16
G05
G00X129.32Y-84.05
M15
G01X129.32Y-83.25
M16
G05
G00X129.32Y-88.38
M15
G01X129.32Y-87.28
M16
G05
M30
