G04 #@! TF.GenerationSoftware,KiCad,Pcbnew,9.0.7-9.0.7~ubuntu24.04.1*
G04 #@! TF.CreationDate,2026-02-13T16:24:25-05:00*
G04 #@! TF.ProjectId,receiver7RP2350V4,72656365-6976-4657-9237-525032333530,rev?*
G04 #@! TF.SameCoordinates,Original*
G04 #@! TF.FileFunction,Copper,L4,Bot*
G04 #@! TF.FilePolarity,Positive*
%FSLAX46Y46*%
G04 Gerber Fmt 4.6, Leading zero omitted, Abs format (unit mm)*
G04 Created by KiCad (PCBNEW 9.0.7-9.0.7~ubuntu24.04.1) date 2026-02-13 16:24:25*
%MOMM*%
%LPD*%
G01*
G04 APERTURE LIST*
G04 Aperture macros list*
%AMRoundRect*
0 Rectangle with rounded corners*
0 $1 Rounding radius*
0 $2 $3 $4 $5 $6 $7 $8 $9 X,Y pos of 4 corners*
0 Add a 4 corners polygon primitive as box body*
4,1,4,$2,$3,$4,$5,$6,$7,$8,$9,$2,$3,0*
0 Add four circle primitives for the rounded corners*
1,1,$1+$1,$2,$3*
1,1,$1+$1,$4,$5*
1,1,$1+$1,$6,$7*
1,1,$1+$1,$8,$9*
0 Add four rect primitives between the rounded corners*
20,1,$1+$1,$2,$3,$4,$5,0*
20,1,$1+$1,$4,$5,$6,$7,0*
20,1,$1+$1,$6,$7,$8,$9,0*
20,1,$1+$1,$8,$9,$2,$3,0*%
G04 Aperture macros list end*
G04 #@! TA.AperFunction,ComponentPad*
%ADD10O,1.000000X2.100000*%
G04 #@! TD*
G04 #@! TA.AperFunction,ComponentPad*
%ADD11O,1.000000X1.800000*%
G04 #@! TD*
G04 #@! TA.AperFunction,ComponentPad*
%ADD12C,0.800000*%
G04 #@! TD*
G04 #@! TA.AperFunction,ComponentPad*
%ADD13C,5.400000*%
G04 #@! TD*
G04 #@! TA.AperFunction,ComponentPad*
%ADD14C,4.080000*%
G04 #@! TD*
G04 #@! TA.AperFunction,SMDPad,CuDef*
%ADD15RoundRect,0.140000X-0.140000X-0.170000X0.140000X-0.170000X0.140000X0.170000X-0.140000X0.170000X0*%
G04 #@! TD*
G04 #@! TA.AperFunction,SMDPad,CuDef*
%ADD16RoundRect,0.140000X0.170000X-0.140000X0.170000X0.140000X-0.170000X0.140000X-0.170000X-0.140000X0*%
G04 #@! TD*
G04 #@! TA.AperFunction,SMDPad,CuDef*
%ADD17RoundRect,0.140000X0.140000X0.170000X-0.140000X0.170000X-0.140000X-0.170000X0.140000X-0.170000X0*%
G04 #@! TD*
G04 #@! TA.AperFunction,SMDPad,CuDef*
%ADD18R,0.600000X2.000000*%
G04 #@! TD*
G04 #@! TA.AperFunction,SMDPad,CuDef*
%ADD19R,2.300000X3.200000*%
G04 #@! TD*
G04 #@! TA.AperFunction,ViaPad*
%ADD20C,0.600000*%
G04 #@! TD*
G04 #@! TA.AperFunction,Conductor*
%ADD21C,0.400000*%
G04 #@! TD*
G04 #@! TA.AperFunction,Conductor*
%ADD22C,0.200000*%
G04 #@! TD*
G04 #@! TA.AperFunction,Conductor*
%ADD23C,0.150000*%
G04 #@! TD*
G04 #@! TA.AperFunction,Conductor*
%ADD24C,0.600000*%
G04 #@! TD*
G04 #@! TA.AperFunction,Conductor*
%ADD25C,0.300000*%
G04 #@! TD*
G04 APERTURE END LIST*
D10*
X129320000Y-87830000D03*
X120680000Y-87830000D03*
D11*
X129320000Y-83650000D03*
X120680000Y-83650000D03*
D12*
X92375000Y-153600000D03*
X92968109Y-152168109D03*
X92968109Y-155031891D03*
X94400000Y-151575000D03*
D13*
X94400000Y-153600000D03*
D12*
X94400000Y-155625000D03*
X95831891Y-152168109D03*
X95831891Y-155031891D03*
X96425000Y-153600000D03*
D10*
X109820000Y-87830000D03*
X101180000Y-87830000D03*
D11*
X109820000Y-83650000D03*
X101180000Y-83650000D03*
D12*
X92375000Y-85600000D03*
X92968109Y-84168109D03*
X92968109Y-87031891D03*
X94400000Y-83575000D03*
D13*
X94400000Y-85600000D03*
D12*
X94400000Y-87625000D03*
X95831891Y-84168109D03*
X95831891Y-87031891D03*
X96425000Y-85600000D03*
X114675000Y-85600000D03*
X115268109Y-84168109D03*
X115268109Y-87031891D03*
X116700000Y-83575000D03*
D13*
X116700000Y-85600000D03*
D12*
X116700000Y-87625000D03*
X118131891Y-84168109D03*
X118131891Y-87031891D03*
X118725000Y-85600000D03*
X116575000Y-153600000D03*
X117168109Y-152168109D03*
X117168109Y-155031891D03*
X118600000Y-151575000D03*
D13*
X118600000Y-153600000D03*
D12*
X118600000Y-155625000D03*
X120031891Y-152168109D03*
X120031891Y-155031891D03*
X120625000Y-153600000D03*
D14*
X94400000Y-143300000D03*
X118600000Y-143400000D03*
D15*
X95020000Y-102000000D03*
X95980000Y-102000000D03*
D16*
X126800000Y-94280000D03*
X126800000Y-93320000D03*
D15*
X114030000Y-88880000D03*
X114990000Y-88880000D03*
X106945000Y-101850000D03*
X107905000Y-101850000D03*
D17*
X118505000Y-101850000D03*
X117545000Y-101850000D03*
D18*
X94700000Y-91450000D03*
X95100000Y-99650000D03*
X95500000Y-91450000D03*
X95900000Y-99650000D03*
X96300000Y-91450000D03*
X96700000Y-99650000D03*
X97100000Y-91450000D03*
X97500000Y-99650000D03*
X97900000Y-91450000D03*
X98300000Y-99650000D03*
X98700000Y-91450000D03*
X99100000Y-99650000D03*
X99500000Y-91450000D03*
X99900000Y-99650000D03*
X100300000Y-91450000D03*
X100700000Y-99650000D03*
X104300000Y-91450000D03*
X104700000Y-99650000D03*
X105100000Y-91450000D03*
X105500000Y-99650000D03*
X105900000Y-91450000D03*
X106300000Y-99650000D03*
X106700000Y-91450000D03*
X107100000Y-99650000D03*
X107500000Y-91450000D03*
X107900000Y-99650000D03*
X108300000Y-91450000D03*
X108700000Y-99650000D03*
X109100000Y-91450000D03*
X109500000Y-99650000D03*
X109900000Y-91450000D03*
X110300000Y-99650000D03*
X110700000Y-91450000D03*
X111100000Y-99650000D03*
X111500000Y-91450000D03*
X111900000Y-99650000D03*
X112300000Y-91450000D03*
X112700000Y-99650000D03*
X113100000Y-91450000D03*
X113500000Y-99650000D03*
X113900000Y-91450000D03*
X114300000Y-99650000D03*
X114700000Y-91450000D03*
X115100000Y-99650000D03*
X115500000Y-91450000D03*
X115900000Y-99650000D03*
X116300000Y-91450000D03*
X116700000Y-99650000D03*
X117100000Y-91450000D03*
X117500000Y-99650000D03*
X117900000Y-91450000D03*
X118300000Y-99650000D03*
D19*
X91850000Y-92050000D03*
X121150000Y-92050000D03*
D17*
X113150000Y-88890000D03*
X112190000Y-88890000D03*
D20*
X115390000Y-118980000D03*
X107675000Y-98200000D03*
X112300000Y-89850000D03*
X119000000Y-116150000D03*
X95800000Y-105700000D03*
X112000000Y-135000000D03*
X123000000Y-145100000D03*
X109050000Y-109100000D03*
X92500000Y-134700000D03*
X126450000Y-92200000D03*
X116500000Y-117900000D03*
X107600000Y-103100000D03*
X105000000Y-135000000D03*
X110975000Y-95950000D03*
X125100000Y-110200000D03*
X117200000Y-94500000D03*
X122800000Y-114400000D03*
X95500000Y-109400000D03*
X132500000Y-87000000D03*
X88800000Y-98800000D03*
X108000000Y-95000000D03*
X114750000Y-89900000D03*
X102300000Y-89400000D03*
X117600000Y-103600000D03*
X121800000Y-157500000D03*
X103000000Y-158000000D03*
X113500000Y-98350000D03*
X97550000Y-95900000D03*
X95500000Y-107200000D03*
X101300000Y-95675000D03*
X99900000Y-106900000D03*
X121150000Y-93950000D03*
X119600000Y-94400000D03*
X123000000Y-150300000D03*
X95955000Y-101100000D03*
X105900000Y-90000000D03*
X116550000Y-96750000D03*
X100200000Y-105700000D03*
X114125000Y-111750000D03*
X125300000Y-114100000D03*
X125900000Y-102600000D03*
X131300000Y-108800000D03*
X112600000Y-122300000D03*
X98800000Y-105700000D03*
X98500000Y-103325000D03*
X90800000Y-157200000D03*
X114250000Y-106800000D03*
X99225000Y-116850000D03*
X88800000Y-108800000D03*
X100325000Y-123200000D03*
X102600000Y-106850000D03*
X99500000Y-88000000D03*
X111600000Y-116100000D03*
X88800000Y-113800000D03*
X110350000Y-107900000D03*
X124650000Y-86700000D03*
X98000000Y-135000000D03*
X89000000Y-145100000D03*
X128475000Y-96250000D03*
X128500000Y-92000000D03*
X114730000Y-92800000D03*
X101200000Y-112800000D03*
X101025000Y-110800000D03*
X88800000Y-118800000D03*
X125100000Y-84350000D03*
X116000000Y-117100000D03*
X88800000Y-93600000D03*
X126750000Y-109900000D03*
X111500000Y-87900000D03*
X125300000Y-114900000D03*
X101525000Y-93325000D03*
X109100000Y-90000000D03*
X97200000Y-110900000D03*
X131800000Y-100575000D03*
X110300000Y-110300000D03*
X103200000Y-113875000D03*
X112300000Y-92750000D03*
X110100000Y-109100000D03*
X118400000Y-106000000D03*
X108450000Y-122275000D03*
X125300000Y-115700000D03*
X125150000Y-99050000D03*
X90750000Y-97000000D03*
X109350000Y-117025000D03*
X111100000Y-101800000D03*
X121550000Y-110600000D03*
X112000000Y-126925000D03*
X132500000Y-123400000D03*
X129600000Y-107650000D03*
X99900000Y-109800000D03*
X107000000Y-151250000D03*
X124000000Y-109300000D03*
X121800000Y-89325000D03*
X130350000Y-107650000D03*
X113500000Y-150300000D03*
X104250000Y-119300000D03*
X104700000Y-101000000D03*
X123500000Y-110600000D03*
X125300000Y-116500000D03*
X106000000Y-92800000D03*
X99500000Y-155500000D03*
X104100000Y-93400000D03*
X104875000Y-126725000D03*
X126800000Y-92850000D03*
X88800000Y-123800000D03*
X102800000Y-144800000D03*
X97400000Y-105700000D03*
X114400000Y-121025000D03*
X132500000Y-113000000D03*
X99525000Y-151375000D03*
X125500000Y-86700000D03*
X123450000Y-94200000D03*
X128200000Y-89300000D03*
X119500000Y-124500000D03*
X122300000Y-105900000D03*
X120000000Y-135000000D03*
X115200000Y-117600000D03*
X131800000Y-103025000D03*
X92500000Y-129000000D03*
X113500000Y-101000000D03*
X132500000Y-91425000D03*
X111100000Y-98350000D03*
X117525000Y-101300000D03*
X116475000Y-108725000D03*
X111500000Y-92750000D03*
X100000000Y-83321140D03*
X119900000Y-114500000D03*
X100800000Y-91500000D03*
X107800000Y-107800000D03*
X99000000Y-147100000D03*
X113500000Y-155500000D03*
X105100000Y-115075000D03*
X115200000Y-105550000D03*
X127500000Y-121000000D03*
X96950000Y-120325000D03*
X110600000Y-158300000D03*
X121525000Y-98025000D03*
X109900000Y-114800000D03*
X112250000Y-83321140D03*
X132500000Y-97400000D03*
X105200000Y-83321140D03*
X113620000Y-118750000D03*
X113100000Y-113250000D03*
X108850000Y-92800000D03*
X122400000Y-109300000D03*
X99375000Y-113900000D03*
X124300000Y-110200000D03*
X123200000Y-109300000D03*
X88800000Y-88400000D03*
X111600000Y-116750000D03*
X96100000Y-112200000D03*
X115700000Y-116100000D03*
X98025000Y-127075000D03*
X115200000Y-116500000D03*
X101400000Y-105700000D03*
X123900000Y-92850000D03*
X89000000Y-150300000D03*
X95700000Y-110900000D03*
X107675000Y-101067582D03*
X125250000Y-105050000D03*
X121875000Y-99325000D03*
X119750000Y-116000000D03*
X108300000Y-110300000D03*
X115000000Y-104100000D03*
X127500000Y-126500000D03*
X131300000Y-107800000D03*
X109050320Y-107797432D03*
X109000000Y-144850000D03*
X118100000Y-112000000D03*
X113500000Y-145100000D03*
X104250000Y-118200000D03*
X132500000Y-118200000D03*
X98800000Y-110900000D03*
X93350000Y-92050000D03*
X88800000Y-103800000D03*
X108700000Y-89350000D03*
X92750000Y-138975000D03*
X126200000Y-113200000D03*
X126900000Y-113200000D03*
X104875000Y-121875000D03*
X119400000Y-115400000D03*
X107800000Y-109100000D03*
X97900000Y-92750000D03*
X101475000Y-123000000D03*
X97600000Y-94700000D03*
X106000000Y-120825000D03*
X106075000Y-122875000D03*
X117200000Y-93350000D03*
X106700000Y-95400000D03*
X98500000Y-102225000D03*
X106000000Y-104300000D03*
X115560000Y-96250000D03*
X119950000Y-97300000D03*
X107800000Y-93450000D03*
X109950000Y-93350000D03*
X109975000Y-95475000D03*
X119150000Y-92650000D03*
X100125000Y-95475000D03*
X105100000Y-93400000D03*
X105700000Y-102100000D03*
X117500000Y-114100000D03*
X117900000Y-113500000D03*
X117100000Y-113500000D03*
X102225000Y-111000000D03*
X115350000Y-109050000D03*
X110200000Y-107000000D03*
X109450000Y-111200000D03*
X114875000Y-109450000D03*
X111150000Y-109450000D03*
X110400000Y-113800000D03*
X110400000Y-102800000D03*
X106950000Y-110125000D03*
X100275000Y-93375000D03*
X124400000Y-117200000D03*
X112500000Y-118725000D03*
X122300000Y-111400000D03*
X116250000Y-119800000D03*
X122000000Y-115600000D03*
X115575000Y-121700000D03*
X113700000Y-123000000D03*
X126100000Y-107300000D03*
X125150000Y-94650000D03*
X125100000Y-85750000D03*
D21*
X95955000Y-101100000D02*
X95955000Y-99705000D01*
X113500000Y-99650000D02*
X113500000Y-98350000D01*
X114990000Y-89660000D02*
X114990000Y-88880000D01*
X114750000Y-89900000D02*
X114990000Y-89660000D01*
X121150000Y-92050000D02*
X121150000Y-93950000D01*
X117525000Y-99650000D02*
X117550000Y-99675000D01*
X104700000Y-101000000D02*
X104700000Y-99650000D01*
X112300000Y-89850000D02*
X112300000Y-91450000D01*
X100800000Y-91500000D02*
X100350000Y-91500000D01*
X108300000Y-92250000D02*
X108300000Y-91450000D01*
X107905000Y-101675000D02*
X107900000Y-101670000D01*
X112190000Y-89740000D02*
X112300000Y-89850000D01*
X108300000Y-91450000D02*
X109100000Y-91450000D01*
X107925000Y-101670000D02*
X107930000Y-101675000D01*
X114700000Y-91425000D02*
X114700000Y-89950000D01*
X108850000Y-92800000D02*
X108300000Y-92250000D01*
X111500000Y-91450000D02*
X111500000Y-92750000D01*
X112300000Y-92750000D02*
X112300000Y-91450000D01*
X107900000Y-101670000D02*
X107900000Y-99650000D01*
X95980000Y-102000000D02*
X95955000Y-101975000D01*
X117525000Y-99650000D02*
X117525000Y-101680000D01*
X91850000Y-92050000D02*
X93350000Y-92050000D01*
X100350000Y-91500000D02*
X100300000Y-91450000D01*
X126800000Y-93320000D02*
X126800000Y-92850000D01*
X97900000Y-91450000D02*
X97900000Y-92750000D01*
X114700000Y-89950000D02*
X114750000Y-89900000D01*
X107900000Y-99650000D02*
X107900000Y-98425000D01*
X114725000Y-92765000D02*
X114725000Y-91885000D01*
X107900000Y-98425000D02*
X107675000Y-98200000D01*
X111100000Y-98350000D02*
X111100000Y-99650000D01*
X105900000Y-92700000D02*
X106000000Y-92800000D01*
X114730000Y-92770000D02*
X114725000Y-92765000D01*
X95955000Y-101975000D02*
X95955000Y-101100000D01*
X112190000Y-88890000D02*
X112190000Y-89740000D01*
X108300000Y-91725000D02*
X108300000Y-92200000D01*
X113500000Y-99650000D02*
X113500000Y-101000000D01*
X105900000Y-91450000D02*
X105900000Y-92700000D01*
X105900000Y-90000000D02*
X105900000Y-91450000D01*
X109100000Y-91450000D02*
X109100000Y-90000000D01*
X114990000Y-88880000D02*
X115010000Y-88900000D01*
D22*
X101475000Y-123000000D02*
X101475000Y-122975000D01*
X101475000Y-122975000D02*
X91925000Y-113425000D01*
X94725000Y-92850000D02*
X94725000Y-91450000D01*
X91925000Y-113425000D02*
X91925000Y-95650000D01*
X91925000Y-95650000D02*
X94725000Y-92850000D01*
D23*
X97100000Y-94075000D02*
X97600000Y-94575000D01*
X97100000Y-91450000D02*
X97100000Y-94075000D01*
D22*
X94100000Y-112675000D02*
X94100000Y-98625000D01*
X106000000Y-120825000D02*
X102250000Y-120825000D01*
X94100000Y-98625000D02*
X96325000Y-96400000D01*
X96325000Y-96400000D02*
X96325000Y-91450000D01*
X102250000Y-120825000D02*
X94100000Y-112675000D01*
X93000000Y-98625000D02*
X95525000Y-96100000D01*
X95525000Y-96100000D02*
X95525000Y-91450000D01*
X93000000Y-112850000D02*
X93000000Y-98625000D01*
X106075000Y-122875000D02*
X103025000Y-122875000D01*
X103025000Y-122875000D02*
X93000000Y-112850000D01*
D23*
X117200000Y-93360000D02*
X117200000Y-91525000D01*
X106700000Y-95400000D02*
X106700000Y-91450000D01*
X98025000Y-102225000D02*
X96725000Y-100925000D01*
X96725000Y-100925000D02*
X96725000Y-99650000D01*
X98500000Y-102225000D02*
X98025000Y-102225000D01*
X106000000Y-104300000D02*
X106000000Y-103600000D01*
X107100000Y-102500000D02*
X108250000Y-102500000D01*
X106000000Y-103600000D02*
X107100000Y-102500000D01*
X108700000Y-102050000D02*
X108700000Y-99650000D01*
X108250000Y-102500000D02*
X108700000Y-102050000D01*
X115560000Y-96250000D02*
X115560000Y-90560000D01*
X119100000Y-97250000D02*
X116150000Y-94300000D01*
X116150000Y-94300000D02*
X116150000Y-91450000D01*
X119950000Y-97300000D02*
X119900000Y-97250000D01*
X119900000Y-97250000D02*
X119100000Y-97250000D01*
X107500000Y-93150000D02*
X107500000Y-91450000D01*
X107800000Y-93450000D02*
X107500000Y-93150000D01*
X109960000Y-93140000D02*
X109960000Y-90560000D01*
X109950000Y-93150000D02*
X109960000Y-93140000D01*
X109950000Y-93350000D02*
X109950000Y-93150000D01*
X110100000Y-95125000D02*
X110900000Y-94325000D01*
X110760000Y-90560000D02*
X110760000Y-91890000D01*
X110900000Y-94325000D02*
X110900000Y-91625000D01*
X110100000Y-95350000D02*
X110100000Y-95125000D01*
X110900000Y-91625000D02*
X110725000Y-91450000D01*
X109975000Y-95475000D02*
X110100000Y-95350000D01*
X119150000Y-92650000D02*
X117950000Y-91450000D01*
X117950000Y-91450000D02*
X117925000Y-91450000D01*
X98700000Y-94050000D02*
X98700000Y-91450000D01*
X100125000Y-95475000D02*
X98700000Y-94050000D01*
X105100000Y-91450000D02*
X105100000Y-93400000D01*
X106360000Y-98760000D02*
X106325000Y-98795000D01*
X106300000Y-101500000D02*
X106300000Y-99650000D01*
X105700000Y-102100000D02*
X106300000Y-101500000D01*
D24*
X113525000Y-96675000D02*
X113525000Y-92375000D01*
D21*
X117100000Y-113500000D02*
X117900000Y-113500000D01*
D22*
X113125000Y-91450000D02*
X113125000Y-88915000D01*
D24*
X117900000Y-113500000D02*
X118300000Y-113500000D01*
D22*
X106950000Y-101655000D02*
X106970000Y-101675000D01*
D25*
X107300000Y-97200000D02*
X107024000Y-97476000D01*
D24*
X120150000Y-101350000D02*
X120150000Y-99350000D01*
D25*
X107024000Y-99574000D02*
X107100000Y-99650000D01*
X107024000Y-97476000D02*
X107024000Y-99574000D01*
D24*
X120150000Y-111650000D02*
X120150000Y-100250000D01*
D21*
X117500000Y-114100000D02*
X117500000Y-113900000D01*
X116900000Y-113500000D02*
X117100000Y-113500000D01*
D24*
X120150000Y-99350000D02*
X118600000Y-97800000D01*
D25*
X95100000Y-98600000D02*
X95100000Y-101750000D01*
D22*
X113125000Y-88915000D02*
X113150000Y-88890000D01*
D24*
X118300000Y-113500000D02*
X120150000Y-111650000D01*
D22*
X118500000Y-99825000D02*
X118325000Y-99650000D01*
X118505000Y-101700000D02*
X118505000Y-99830000D01*
X114000000Y-90520000D02*
X113960000Y-90560000D01*
D25*
X118500000Y-98825000D02*
X118975000Y-98350000D01*
D24*
X114375000Y-97800000D02*
X113525000Y-96950000D01*
D25*
X118500000Y-99825000D02*
X118500000Y-98825000D01*
X107300000Y-97200000D02*
X96500000Y-97200000D01*
D22*
X118325000Y-99650000D02*
X118325000Y-99025000D01*
X113150000Y-90550000D02*
X113160000Y-90560000D01*
D25*
X96500000Y-97200000D02*
X95100000Y-98600000D01*
D22*
X114000000Y-88910000D02*
X114000000Y-90520000D01*
D21*
X107300000Y-97200000D02*
X113525000Y-97200000D01*
D22*
X118505000Y-99830000D02*
X118325000Y-99650000D01*
D24*
X113525000Y-96950000D02*
X113525000Y-96675000D01*
D22*
X114030000Y-88880000D02*
X114000000Y-88910000D01*
D21*
X117500000Y-113900000D02*
X117900000Y-113500000D01*
D22*
X106950000Y-99723000D02*
X106950000Y-101655000D01*
D24*
X118600000Y-97800000D02*
X114375000Y-97800000D01*
X113525000Y-92375000D02*
X113525000Y-90975000D01*
X115350000Y-109050000D02*
X115325000Y-109050000D01*
X110200000Y-103000000D02*
X110400000Y-102800000D01*
X110200000Y-107000000D02*
X110200000Y-103000000D01*
X105175000Y-110125000D02*
X104300000Y-111000000D01*
X104300000Y-111000000D02*
X102225000Y-111000000D01*
X106950000Y-110125000D02*
X105175000Y-110125000D01*
X111150000Y-109450000D02*
X114875000Y-109450000D01*
X114925000Y-109450000D02*
X114875000Y-109450000D01*
X109450000Y-112850000D02*
X109450000Y-111174750D01*
X115325000Y-109050000D02*
X114925000Y-109450000D01*
X110400000Y-113800000D02*
X109450000Y-112850000D01*
D23*
X100275000Y-93375000D02*
X99500000Y-92600000D01*
X99500000Y-92600000D02*
X99500000Y-91450000D01*
D22*
X112500000Y-118725000D02*
X111800000Y-119425000D01*
X118031744Y-124300000D02*
X124400000Y-117931744D01*
X111800000Y-123600000D02*
X112500000Y-124300000D01*
X112500000Y-124300000D02*
X118031744Y-124300000D01*
X111800000Y-119425000D02*
X111800000Y-123600000D01*
X124400000Y-117931744D02*
X124400000Y-117200000D01*
X121000000Y-112700000D02*
X122300000Y-111400000D01*
X116250000Y-119800000D02*
X119100000Y-119800000D01*
X119100000Y-119800000D02*
X121000000Y-117900000D01*
X121000000Y-117900000D02*
X121000000Y-112700000D01*
X115575000Y-121700000D02*
X118300000Y-121700000D01*
X122000000Y-118000000D02*
X122000000Y-115600000D01*
X118300000Y-121700000D02*
X122000000Y-118000000D01*
D23*
X123400000Y-113114588D02*
X126100000Y-110414588D01*
X123400000Y-117900000D02*
X123400000Y-113114588D01*
X118300000Y-123000000D02*
X123400000Y-117900000D01*
X113700000Y-123000000D02*
X118300000Y-123000000D01*
X126100000Y-110414588D02*
X126100000Y-107300000D01*
D22*
X127411000Y-93669000D02*
X126800000Y-94280000D01*
X126430000Y-94650000D02*
X126800000Y-94280000D01*
X125500000Y-85750000D02*
X127411000Y-87661000D01*
X127411000Y-87661000D02*
X127411000Y-93669000D01*
X125150000Y-94650000D02*
X126430000Y-94650000D01*
X125100000Y-85750000D02*
X125500000Y-85750000D01*
G04 #@! TA.AperFunction,Conductor*
G36*
X126380370Y-107355721D02*
G01*
X126387798Y-107360721D01*
X126389517Y-107369509D01*
X126388877Y-107371620D01*
X126177975Y-107886967D01*
X126171670Y-107893326D01*
X126167147Y-107894236D01*
X126032853Y-107894236D01*
X126024580Y-107890809D01*
X126022025Y-107886967D01*
X125811122Y-107371620D01*
X125811160Y-107362666D01*
X125817519Y-107356361D01*
X125819622Y-107355723D01*
X126097682Y-107299469D01*
X126102318Y-107299469D01*
X126380370Y-107355721D01*
G37*
G04 #@! TD.AperFunction*
G04 #@! TA.AperFunction,Conductor*
G36*
X106012655Y-122585792D02*
G01*
X106018696Y-122592402D01*
X106019165Y-122594070D01*
X106075530Y-122872680D01*
X106075530Y-122877320D01*
X106019165Y-123155929D01*
X106014165Y-123163358D01*
X106005377Y-123165077D01*
X106003709Y-123164608D01*
X105488476Y-122977796D01*
X105481866Y-122971755D01*
X105480764Y-122966797D01*
X105480764Y-122783202D01*
X105484191Y-122774929D01*
X105488473Y-122772204D01*
X106003711Y-122585391D01*
X106012655Y-122585792D01*
G37*
G04 #@! TD.AperFunction*
G04 #@! TA.AperFunction,Conductor*
G36*
X113698452Y-100409191D02*
G01*
X113701702Y-100415437D01*
X113792259Y-100930239D01*
X113790317Y-100938981D01*
X113783056Y-100943734D01*
X113502320Y-101000530D01*
X113497680Y-101000530D01*
X113216943Y-100943734D01*
X113209514Y-100938734D01*
X113207740Y-100930239D01*
X113298298Y-100415437D01*
X113303106Y-100407883D01*
X113309821Y-100405764D01*
X113690179Y-100405764D01*
X113698452Y-100409191D01*
G37*
G04 #@! TD.AperFunction*
G04 #@! TA.AperFunction,Conductor*
G36*
X117900000Y-113499000D02*
G01*
X118066671Y-113749441D01*
X117700000Y-113928550D01*
X117300000Y-113928550D01*
X117650559Y-113333329D01*
X117900000Y-113499000D01*
G37*
G04 #@! TD.AperFunction*
G04 #@! TA.AperFunction,Conductor*
G36*
X125276184Y-85507378D02*
G01*
X125276464Y-85507572D01*
X125608431Y-85745293D01*
X125696840Y-85808602D01*
X125701571Y-85816205D01*
X125699541Y-85824927D01*
X125698301Y-85826388D01*
X125569091Y-85955598D01*
X125563235Y-85958773D01*
X125170088Y-86041794D01*
X125161286Y-86040150D01*
X125156223Y-86032763D01*
X125156200Y-86032650D01*
X125141219Y-85958056D01*
X125100254Y-85754078D01*
X125101985Y-85745293D01*
X125102018Y-85745243D01*
X125259946Y-85510551D01*
X125267407Y-85505602D01*
X125276184Y-85507378D01*
G37*
G04 #@! TD.AperFunction*
G04 #@! TA.AperFunction,Conductor*
G36*
X106099840Y-90153427D02*
G01*
X106102667Y-90158000D01*
X106198829Y-90446488D01*
X106198936Y-90453547D01*
X105911207Y-91413605D01*
X105905550Y-91420546D01*
X105896641Y-91421453D01*
X105889700Y-91415796D01*
X105888793Y-91413605D01*
X105601063Y-90453547D01*
X105601169Y-90446490D01*
X105697333Y-90157999D01*
X105703201Y-90151235D01*
X105708433Y-90150000D01*
X106091567Y-90150000D01*
X106099840Y-90153427D01*
G37*
G04 #@! TD.AperFunction*
G04 #@! TA.AperFunction,Conductor*
G36*
X118808663Y-112619685D02*
G01*
X118837194Y-112644991D01*
X119213353Y-113100000D01*
X119248627Y-113142667D01*
X119276171Y-113206879D01*
X119277057Y-113221676D01*
X119277057Y-113848638D01*
X119257372Y-113915677D01*
X119240738Y-113936319D01*
X118413376Y-114763681D01*
X118352053Y-114797166D01*
X118325695Y-114800000D01*
X117051362Y-114800000D01*
X116984323Y-114780315D01*
X116963681Y-114763681D01*
X116236319Y-114036319D01*
X116202834Y-113974996D01*
X116200000Y-113948638D01*
X116200000Y-113151362D01*
X116219685Y-113084323D01*
X116236319Y-113063681D01*
X116663681Y-112636319D01*
X116725004Y-112602834D01*
X116751362Y-112600000D01*
X118741624Y-112600000D01*
X118808663Y-112619685D01*
G37*
G04 #@! TD.AperFunction*
G04 #@! TA.AperFunction,Conductor*
G36*
X109910988Y-91486883D02*
G01*
X109912140Y-91489507D01*
X110198591Y-92445299D01*
X110197684Y-92454208D01*
X110197636Y-92454296D01*
X110038334Y-92743938D01*
X110031344Y-92749536D01*
X110028082Y-92750000D01*
X109890636Y-92750000D01*
X109882363Y-92746573D01*
X109881487Y-92745593D01*
X109649466Y-92454541D01*
X109646989Y-92445936D01*
X109647273Y-92444378D01*
X109889593Y-91489986D01*
X109894950Y-91482811D01*
X109903812Y-91481526D01*
X109910988Y-91486883D01*
G37*
G04 #@! TD.AperFunction*
G04 #@! TA.AperFunction,Conductor*
G36*
X124680930Y-117255835D02*
G01*
X124688358Y-117260834D01*
X124690077Y-117269622D01*
X124689608Y-117271290D01*
X124502796Y-117786524D01*
X124496755Y-117793134D01*
X124491797Y-117794236D01*
X124308203Y-117794236D01*
X124299930Y-117790809D01*
X124297204Y-117786524D01*
X124249544Y-117655078D01*
X124110391Y-117271288D01*
X124110792Y-117262344D01*
X124117402Y-117256303D01*
X124119056Y-117255837D01*
X124397682Y-117199469D01*
X124402318Y-117199469D01*
X124680930Y-117255835D01*
G37*
G04 #@! TD.AperFunction*
G04 #@! TA.AperFunction,Conductor*
G36*
X99915087Y-92904815D02*
G01*
X100097668Y-92981353D01*
X100428623Y-93120089D01*
X100434928Y-93126448D01*
X100434890Y-93135402D01*
X100433849Y-93137347D01*
X100277015Y-93373734D01*
X100273734Y-93377015D01*
X100037347Y-93533849D01*
X100028559Y-93535568D01*
X100021130Y-93530568D01*
X100020089Y-93528623D01*
X99804815Y-93015087D01*
X99804777Y-93006133D01*
X99807330Y-93002293D01*
X99902292Y-92907331D01*
X99910564Y-92903905D01*
X99915087Y-92904815D01*
G37*
G04 #@! TD.AperFunction*
G04 #@! TA.AperFunction,Conductor*
G36*
X105910009Y-91486007D02*
G01*
X105911060Y-91488453D01*
X106198160Y-92443878D01*
X106197259Y-92452787D01*
X106195843Y-92454854D01*
X106077067Y-92593593D01*
X106076452Y-92594257D01*
X105806592Y-92864117D01*
X105798319Y-92867544D01*
X105790046Y-92864117D01*
X105787421Y-92860101D01*
X105727263Y-92706087D01*
X105628640Y-92453596D01*
X105628249Y-92446273D01*
X105888566Y-91488749D01*
X105894042Y-91481666D01*
X105902924Y-91480530D01*
X105910009Y-91486007D01*
G37*
G04 #@! TD.AperFunction*
G04 #@! TA.AperFunction,Conductor*
G36*
X106310299Y-99684203D02*
G01*
X106311206Y-99686394D01*
X106595362Y-100634528D01*
X106595787Y-100638402D01*
X106595837Y-100638545D01*
X106595829Y-100638683D01*
X106595000Y-100650045D01*
X106595000Y-100652031D01*
X106595032Y-100652829D01*
X106595001Y-100653397D01*
X106592679Y-100659759D01*
X106378510Y-100945320D01*
X106370805Y-100949882D01*
X106369150Y-100950000D01*
X106230850Y-100950000D01*
X106222577Y-100946573D01*
X106221490Y-100945320D01*
X106003542Y-100654722D01*
X106001320Y-100646047D01*
X106001695Y-100644343D01*
X106004637Y-100634528D01*
X106288793Y-99686392D01*
X106294449Y-99679453D01*
X106303358Y-99678546D01*
X106310299Y-99684203D01*
G37*
G04 #@! TD.AperFunction*
G04 #@! TA.AperFunction,Conductor*
G36*
X118204940Y-91326678D02*
G01*
X118270110Y-91460015D01*
X118461497Y-91851594D01*
X118462051Y-91860532D01*
X118459258Y-91865005D01*
X118359105Y-91965157D01*
X118359106Y-91965158D01*
X118212039Y-92112713D01*
X118203771Y-92116154D01*
X118195493Y-92112741D01*
X118193065Y-92109215D01*
X117904065Y-91460014D01*
X117903832Y-91451063D01*
X117909996Y-91444568D01*
X118189707Y-91321112D01*
X118198657Y-91320908D01*
X118204940Y-91326678D01*
G37*
G04 #@! TD.AperFunction*
G04 #@! TA.AperFunction,Conductor*
G36*
X127082472Y-92906147D02*
G01*
X127089900Y-92911146D01*
X127091619Y-92919934D01*
X127091556Y-92920226D01*
X127002081Y-93310912D01*
X126996893Y-93318211D01*
X126990676Y-93320000D01*
X126609324Y-93320000D01*
X126601051Y-93316573D01*
X126597919Y-93310912D01*
X126508443Y-92920226D01*
X126509937Y-92911397D01*
X126517236Y-92906209D01*
X126517452Y-92906162D01*
X126797682Y-92849469D01*
X126802318Y-92849469D01*
X127082472Y-92906147D01*
G37*
G04 #@! TD.AperFunction*
G04 #@! TA.AperFunction,Conductor*
G36*
X114899840Y-90153427D02*
G01*
X114902667Y-90158000D01*
X114998829Y-90446488D01*
X114998936Y-90453547D01*
X114711206Y-91413606D01*
X114705549Y-91420547D01*
X114696640Y-91421454D01*
X114689699Y-91415797D01*
X114688795Y-91413614D01*
X114403786Y-90462632D01*
X114403300Y-90458898D01*
X114403319Y-90458297D01*
X114404412Y-90450432D01*
X114404305Y-90443373D01*
X114403888Y-90440923D01*
X114403927Y-90439749D01*
X114404336Y-90438846D01*
X114404520Y-90436438D01*
X114497333Y-90157999D01*
X114503201Y-90151235D01*
X114508433Y-90150000D01*
X114891567Y-90150000D01*
X114899840Y-90153427D01*
G37*
G04 #@! TD.AperFunction*
G04 #@! TA.AperFunction,Conductor*
G36*
X108579275Y-92244026D02*
G01*
X109007331Y-92544013D01*
X109012139Y-92551567D01*
X109010365Y-92560062D01*
X108852015Y-92798734D01*
X108848734Y-92802015D01*
X108610062Y-92960365D01*
X108601274Y-92962084D01*
X108594013Y-92957331D01*
X108294026Y-92529275D01*
X108292085Y-92520535D01*
X108295333Y-92514291D01*
X108564290Y-92245334D01*
X108572562Y-92241908D01*
X108579275Y-92244026D01*
G37*
G04 #@! TD.AperFunction*
G04 #@! TA.AperFunction,Conductor*
G36*
X127184177Y-93766176D02*
G01*
X127313991Y-93895990D01*
X127317418Y-93904263D01*
X127316381Y-93909079D01*
X127114116Y-94356866D01*
X127107587Y-94362995D01*
X127100356Y-94363333D01*
X126804835Y-94282228D01*
X126797764Y-94276734D01*
X126797109Y-94275389D01*
X126688198Y-94010172D01*
X126688225Y-94001218D01*
X126693913Y-93995202D01*
X127170799Y-93763921D01*
X127179738Y-93763395D01*
X127184177Y-93766176D01*
G37*
G04 #@! TD.AperFunction*
G04 #@! TA.AperFunction,Conductor*
G36*
X107910300Y-99684202D02*
G01*
X107911207Y-99686393D01*
X108198936Y-100646451D01*
X108198829Y-100653510D01*
X108102667Y-100942000D01*
X108096799Y-100948765D01*
X108091567Y-100950000D01*
X107708433Y-100950000D01*
X107700160Y-100946573D01*
X107697333Y-100942000D01*
X107601170Y-100653510D01*
X107601063Y-100646453D01*
X107888793Y-99686392D01*
X107894450Y-99679452D01*
X107903359Y-99678545D01*
X107910300Y-99684202D01*
G37*
G04 #@! TD.AperFunction*
G04 #@! TA.AperFunction,Conductor*
G36*
X96153452Y-100509191D02*
G01*
X96156702Y-100515437D01*
X96247259Y-101030239D01*
X96245317Y-101038981D01*
X96238056Y-101043734D01*
X95957320Y-101100530D01*
X95952680Y-101100530D01*
X95671943Y-101043734D01*
X95664514Y-101038734D01*
X95662740Y-101030239D01*
X95753298Y-100515437D01*
X95758106Y-100507883D01*
X95764821Y-100505764D01*
X96145179Y-100505764D01*
X96153452Y-100509191D01*
G37*
G04 #@! TD.AperFunction*
G04 #@! TA.AperFunction,Conductor*
G36*
X112196097Y-88892723D02*
G01*
X112463089Y-89055779D01*
X112468364Y-89063015D01*
X112468484Y-89067953D01*
X112391812Y-89470489D01*
X112386898Y-89477975D01*
X112380319Y-89480000D01*
X111999681Y-89480000D01*
X111991408Y-89476573D01*
X111988188Y-89470489D01*
X111911515Y-89067953D01*
X111913333Y-89059185D01*
X111916907Y-89055781D01*
X112183902Y-88892723D01*
X112192749Y-88891336D01*
X112196097Y-88892723D01*
G37*
G04 #@! TD.AperFunction*
G04 #@! TA.AperFunction,Conductor*
G36*
X96238056Y-101156265D02*
G01*
X96245485Y-101161265D01*
X96247259Y-101169760D01*
X96156702Y-101684563D01*
X96151894Y-101692117D01*
X96145179Y-101694236D01*
X95764821Y-101694236D01*
X95756548Y-101690809D01*
X95753298Y-101684563D01*
X95662740Y-101169760D01*
X95664682Y-101161018D01*
X95671942Y-101156265D01*
X95952682Y-101099469D01*
X95957318Y-101099469D01*
X96238056Y-101156265D01*
G37*
G04 #@! TD.AperFunction*
G04 #@! TA.AperFunction,Conductor*
G36*
X117510571Y-99685260D02*
G01*
X117511578Y-99687632D01*
X117799007Y-100646686D01*
X117799500Y-100650045D01*
X117799500Y-100650558D01*
X117799151Y-100653396D01*
X117727216Y-100941138D01*
X117721885Y-100948333D01*
X117715865Y-100950000D01*
X117333280Y-100950000D01*
X117325007Y-100946573D01*
X117322246Y-100942192D01*
X117220409Y-100653488D01*
X117220178Y-100646438D01*
X117489106Y-99687830D01*
X117494640Y-99680791D01*
X117503531Y-99679726D01*
X117510571Y-99685260D01*
G37*
G04 #@! TD.AperFunction*
G04 #@! TA.AperFunction,Conductor*
G36*
X114099840Y-90153427D02*
G01*
X114102667Y-90158000D01*
X114198829Y-90446488D01*
X114198936Y-90453547D01*
X113912851Y-91408118D01*
X113907194Y-91415059D01*
X113898285Y-91415966D01*
X113891344Y-91410309D01*
X113890226Y-91407313D01*
X113677229Y-90455245D01*
X113678767Y-90446424D01*
X113679261Y-90445706D01*
X113896491Y-90154701D01*
X113904186Y-90150121D01*
X113905867Y-90150000D01*
X114091567Y-90150000D01*
X114099840Y-90153427D01*
G37*
G04 #@! TD.AperFunction*
G04 #@! TA.AperFunction,Conductor*
G36*
X107930726Y-100910781D02*
G01*
X107930848Y-100910967D01*
X108088540Y-101158483D01*
X108090095Y-101167302D01*
X108084959Y-101174638D01*
X108078672Y-101176470D01*
X107754399Y-101176470D01*
X107746126Y-101173043D01*
X107744659Y-101171252D01*
X107742030Y-101167302D01*
X107720702Y-101135254D01*
X107681488Y-101076330D01*
X107679757Y-101067544D01*
X107684744Y-101060109D01*
X107914508Y-100907507D01*
X107923294Y-100905785D01*
X107930726Y-100910781D01*
G37*
G04 #@! TD.AperFunction*
G04 #@! TA.AperFunction,Conductor*
G36*
X118790087Y-92179815D02*
G01*
X118972668Y-92256353D01*
X119303623Y-92395089D01*
X119309928Y-92401448D01*
X119309890Y-92410402D01*
X119308849Y-92412347D01*
X119152015Y-92648734D01*
X119148734Y-92652015D01*
X118912347Y-92808849D01*
X118903559Y-92810568D01*
X118896130Y-92805568D01*
X118895089Y-92803623D01*
X118679815Y-92290087D01*
X118679777Y-92281133D01*
X118682330Y-92277293D01*
X118777292Y-92182331D01*
X118785564Y-92178905D01*
X118790087Y-92179815D01*
G37*
G04 #@! TD.AperFunction*
G04 #@! TA.AperFunction,Conductor*
G36*
X112583056Y-89906265D02*
G01*
X112590485Y-89911265D01*
X112592259Y-89919760D01*
X112501702Y-90434563D01*
X112496894Y-90442117D01*
X112490179Y-90444236D01*
X112109821Y-90444236D01*
X112101548Y-90440809D01*
X112098298Y-90434563D01*
X112007740Y-89919760D01*
X112009682Y-89911018D01*
X112016942Y-89906265D01*
X112297682Y-89849469D01*
X112302318Y-89849469D01*
X112583056Y-89906265D01*
G37*
G04 #@! TD.AperFunction*
G04 #@! TA.AperFunction,Conductor*
G36*
X117901000Y-113500000D02*
G01*
X117841473Y-113794236D01*
X117305764Y-113700000D01*
X117305764Y-113300000D01*
X117841473Y-113205764D01*
X117901000Y-113500000D01*
G37*
G04 #@! TD.AperFunction*
G04 #@! TA.AperFunction,Conductor*
G36*
X112390330Y-89280512D02*
G01*
X112392931Y-89284467D01*
X112589070Y-89778462D01*
X112588938Y-89787416D01*
X112582514Y-89793654D01*
X112580516Y-89794248D01*
X112300049Y-89850989D01*
X112299974Y-89851004D01*
X112019359Y-89905868D01*
X112010582Y-89904092D01*
X112005631Y-89896630D01*
X112005418Y-89894677D01*
X112004328Y-89851000D01*
X111990299Y-89289076D01*
X111993518Y-89280721D01*
X112001703Y-89277089D01*
X112001995Y-89277085D01*
X112382057Y-89277085D01*
X112390330Y-89280512D01*
G37*
G04 #@! TD.AperFunction*
G04 #@! TA.AperFunction,Conductor*
G36*
X95247883Y-101413427D02*
G01*
X95251228Y-101420317D01*
X95299112Y-101822545D01*
X95296687Y-101831165D01*
X95293592Y-101833913D01*
X95028005Y-101996111D01*
X95019158Y-101997499D01*
X95013487Y-101994249D01*
X94778113Y-101750277D01*
X94774835Y-101741944D01*
X94776203Y-101736662D01*
X94946699Y-101416205D01*
X94953610Y-101410510D01*
X94957028Y-101410000D01*
X95239610Y-101410000D01*
X95247883Y-101413427D01*
G37*
G04 #@! TD.AperFunction*
G04 #@! TA.AperFunction,Conductor*
G36*
X113510300Y-99684202D02*
G01*
X113511207Y-99686393D01*
X113798936Y-100646451D01*
X113798829Y-100653510D01*
X113702667Y-100942000D01*
X113696799Y-100948765D01*
X113691567Y-100950000D01*
X113308433Y-100950000D01*
X113300160Y-100946573D01*
X113297333Y-100942000D01*
X113201170Y-100653510D01*
X113201063Y-100646453D01*
X113488793Y-99686392D01*
X113494450Y-99679452D01*
X113503359Y-99678545D01*
X113510300Y-99684202D01*
G37*
G04 #@! TD.AperFunction*
G04 #@! TA.AperFunction,Conductor*
G36*
X97311923Y-94177724D02*
G01*
X97756172Y-94444260D01*
X97761504Y-94451455D01*
X97760186Y-94460312D01*
X97759902Y-94460761D01*
X97603409Y-94696634D01*
X97595980Y-94701633D01*
X97595936Y-94701642D01*
X97595911Y-94701647D01*
X97316934Y-94756337D01*
X97308156Y-94754566D01*
X97303268Y-94747421D01*
X97292770Y-94700707D01*
X97199437Y-94285374D01*
X97200966Y-94276551D01*
X97202574Y-94274541D01*
X97297632Y-94179483D01*
X97305904Y-94176057D01*
X97311923Y-94177724D01*
G37*
G04 #@! TD.AperFunction*
G04 #@! TA.AperFunction,Conductor*
G36*
X114710571Y-91485260D02*
G01*
X114711578Y-91487632D01*
X114999007Y-92446686D01*
X114999500Y-92450045D01*
X114999500Y-92450558D01*
X114999151Y-92453396D01*
X114927216Y-92741138D01*
X114921885Y-92748333D01*
X114915865Y-92750000D01*
X114533280Y-92750000D01*
X114525007Y-92746573D01*
X114522246Y-92742192D01*
X114420409Y-92453488D01*
X114420178Y-92446438D01*
X114689106Y-91487830D01*
X114694640Y-91480791D01*
X114703531Y-91479726D01*
X114710571Y-91485260D01*
G37*
G04 #@! TD.AperFunction*
G04 #@! TA.AperFunction,Conductor*
G36*
X119887983Y-97010460D02*
G01*
X119893743Y-97017317D01*
X119894054Y-97018521D01*
X119950030Y-97295210D01*
X119948311Y-97303998D01*
X119948272Y-97304057D01*
X119789183Y-97540730D01*
X119781724Y-97545684D01*
X119774035Y-97544562D01*
X119362026Y-97328287D01*
X119356294Y-97321408D01*
X119355764Y-97317928D01*
X119355764Y-97183574D01*
X119359191Y-97175301D01*
X119363940Y-97172417D01*
X119879063Y-97009684D01*
X119887983Y-97010460D01*
G37*
G04 #@! TD.AperFunction*
G04 #@! TA.AperFunction,Conductor*
G36*
X100607441Y-91183067D02*
G01*
X100794374Y-91296583D01*
X100799666Y-91303806D01*
X100800000Y-91306583D01*
X100800000Y-91692134D01*
X100796573Y-91700407D01*
X100792717Y-91702968D01*
X100607578Y-91778440D01*
X100598623Y-91778390D01*
X100594499Y-91775471D01*
X100518836Y-91692134D01*
X100306890Y-91458690D01*
X100303867Y-91450263D01*
X100307688Y-91442165D01*
X100307691Y-91442161D01*
X100593535Y-91184379D01*
X100601972Y-91181385D01*
X100607441Y-91183067D01*
G37*
G04 #@! TD.AperFunction*
G04 #@! TA.AperFunction,Conductor*
G36*
X115646282Y-121410389D02*
G01*
X116161525Y-121597204D01*
X116168134Y-121603244D01*
X116169236Y-121608202D01*
X116169236Y-121791797D01*
X116165809Y-121800070D01*
X116161524Y-121802796D01*
X115646290Y-121989608D01*
X115637344Y-121989207D01*
X115631303Y-121982597D01*
X115630837Y-121980939D01*
X115574469Y-121702318D01*
X115574469Y-121697680D01*
X115630835Y-121419067D01*
X115635834Y-121411641D01*
X115644622Y-121409922D01*
X115646282Y-121410389D01*
G37*
G04 #@! TD.AperFunction*
G04 #@! TA.AperFunction,Conductor*
G36*
X112310300Y-91484203D02*
G01*
X112311207Y-91486394D01*
X112598936Y-92446451D01*
X112598829Y-92453510D01*
X112502667Y-92742000D01*
X112496799Y-92748765D01*
X112491567Y-92750000D01*
X112108433Y-92750000D01*
X112100160Y-92746573D01*
X112097333Y-92742000D01*
X112001170Y-92453511D01*
X112001063Y-92446452D01*
X112001064Y-92446451D01*
X112288793Y-91486393D01*
X112294450Y-91479453D01*
X112303359Y-91478546D01*
X112310300Y-91484203D01*
G37*
G04 #@! TD.AperFunction*
G04 #@! TA.AperFunction,Conductor*
G36*
X126999759Y-92853427D02*
G01*
X127002619Y-92858101D01*
X127077512Y-93089778D01*
X127076796Y-93098704D01*
X127073678Y-93102521D01*
X126807299Y-93315173D01*
X126798696Y-93317656D01*
X126792701Y-93315173D01*
X126526321Y-93102521D01*
X126521993Y-93094681D01*
X126522486Y-93089783D01*
X126597381Y-92858100D01*
X126603187Y-92851283D01*
X126608514Y-92850000D01*
X126991486Y-92850000D01*
X126999759Y-92853427D01*
G37*
G04 #@! TD.AperFunction*
G04 #@! TA.AperFunction,Conductor*
G36*
X99765087Y-95004815D02*
G01*
X99947668Y-95081353D01*
X100278623Y-95220089D01*
X100284928Y-95226448D01*
X100284890Y-95235402D01*
X100283849Y-95237347D01*
X100127015Y-95473734D01*
X100123734Y-95477015D01*
X99887347Y-95633849D01*
X99878559Y-95635568D01*
X99871130Y-95630568D01*
X99870089Y-95628623D01*
X99654815Y-95115087D01*
X99654777Y-95106133D01*
X99657330Y-95102293D01*
X99752292Y-95007331D01*
X99760564Y-95003905D01*
X99765087Y-95004815D01*
G37*
G04 #@! TD.AperFunction*
G04 #@! TA.AperFunction,Conductor*
G36*
X96154204Y-101413427D02*
G01*
X96157261Y-101418783D01*
X96247498Y-101769258D01*
X96246243Y-101778124D01*
X96243661Y-101781161D01*
X95986437Y-101995632D01*
X95977888Y-101998298D01*
X95972846Y-101996631D01*
X95706490Y-101833963D01*
X95701215Y-101826727D01*
X95700987Y-101822461D01*
X95753667Y-101420181D01*
X95758139Y-101412423D01*
X95765268Y-101410000D01*
X96145931Y-101410000D01*
X96154204Y-101413427D01*
G37*
G04 #@! TD.AperFunction*
G04 #@! TA.AperFunction,Conductor*
G36*
X118605791Y-101263427D02*
G01*
X118608139Y-101266792D01*
X118770578Y-101618277D01*
X118770938Y-101627224D01*
X118767450Y-101632171D01*
X118512493Y-101844752D01*
X118503944Y-101847418D01*
X118497507Y-101844752D01*
X118385383Y-101751264D01*
X118242548Y-101632170D01*
X118238390Y-101624241D01*
X118239420Y-101618280D01*
X118401861Y-101266791D01*
X118408443Y-101260719D01*
X118412482Y-101260000D01*
X118597518Y-101260000D01*
X118605791Y-101263427D01*
G37*
G04 #@! TD.AperFunction*
G04 #@! TA.AperFunction,Conductor*
G36*
X108597887Y-91405513D02*
G01*
X108602420Y-91412392D01*
X108852126Y-92514415D01*
X108850612Y-92523241D01*
X108848988Y-92525274D01*
X108580566Y-92793696D01*
X108572293Y-92797123D01*
X108564020Y-92793696D01*
X108562714Y-92792140D01*
X108325052Y-92452899D01*
X108322937Y-92446463D01*
X108299535Y-91459524D01*
X108302765Y-91451174D01*
X108309402Y-91447693D01*
X108589180Y-91403422D01*
X108597887Y-91405513D01*
G37*
G04 #@! TD.AperFunction*
G04 #@! TA.AperFunction,Conductor*
G36*
X113226553Y-90153427D02*
G01*
X113228386Y-90155805D01*
X113397440Y-90445612D01*
X113398649Y-90454485D01*
X113398541Y-90454866D01*
X113111578Y-91412367D01*
X113105921Y-91419308D01*
X113097012Y-91420215D01*
X113090071Y-91414558D01*
X113089106Y-91412168D01*
X112820656Y-90455265D01*
X112821721Y-90446376D01*
X112822258Y-90445512D01*
X113021514Y-90155080D01*
X113029020Y-90150198D01*
X113031162Y-90150000D01*
X113218280Y-90150000D01*
X113226553Y-90153427D01*
G37*
G04 #@! TD.AperFunction*
G04 #@! TA.AperFunction,Conductor*
G36*
X118595949Y-99629260D02*
G01*
X118600011Y-99637241D01*
X118600047Y-99638110D01*
X118603155Y-100461473D01*
X118603867Y-100650000D01*
X118604956Y-100938256D01*
X118601560Y-100946542D01*
X118593300Y-100950000D01*
X118410466Y-100950000D01*
X118402193Y-100946573D01*
X118401492Y-100945807D01*
X118157386Y-100654015D01*
X118154706Y-100645471D01*
X118154782Y-100644820D01*
X118298651Y-99658244D01*
X118303236Y-99650554D01*
X118309314Y-99648270D01*
X118587436Y-99626490D01*
X118595949Y-99629260D01*
G37*
G04 #@! TD.AperFunction*
G04 #@! TA.AperFunction,Conductor*
G36*
X113783056Y-98406265D02*
G01*
X113790485Y-98411265D01*
X113792259Y-98419760D01*
X113701702Y-98934563D01*
X113696894Y-98942117D01*
X113690179Y-98944236D01*
X113309821Y-98944236D01*
X113301548Y-98940809D01*
X113298298Y-98934563D01*
X113207740Y-98419760D01*
X113209682Y-98411018D01*
X113216942Y-98406265D01*
X113497682Y-98349469D01*
X113502318Y-98349469D01*
X113783056Y-98406265D01*
G37*
G04 #@! TD.AperFunction*
G04 #@! TA.AperFunction,Conductor*
G36*
X100737776Y-91210653D02*
G01*
X100743699Y-91217368D01*
X100744102Y-91218857D01*
X100800243Y-91498397D01*
X100800241Y-91503015D01*
X100744124Y-91781094D01*
X100739128Y-91788526D01*
X100730341Y-91790249D01*
X100728810Y-91789830D01*
X100176200Y-91597551D01*
X100169513Y-91591596D01*
X100168995Y-91582656D01*
X100171770Y-91578230D01*
X100439506Y-91310494D01*
X100443981Y-91307702D01*
X100728839Y-91210093D01*
X100737776Y-91210653D01*
G37*
G04 #@! TD.AperFunction*
G04 #@! TA.AperFunction,Conductor*
G36*
X111299840Y-98353427D02*
G01*
X111302667Y-98358000D01*
X111398829Y-98646488D01*
X111398936Y-98653547D01*
X111111207Y-99613605D01*
X111105550Y-99620546D01*
X111096641Y-99621453D01*
X111089700Y-99615796D01*
X111088793Y-99613605D01*
X110801063Y-98653547D01*
X110801169Y-98646490D01*
X110897333Y-98357999D01*
X110903201Y-98351235D01*
X110908433Y-98350000D01*
X111291567Y-98350000D01*
X111299840Y-98353427D01*
G37*
G04 #@! TD.AperFunction*
G04 #@! TA.AperFunction,Conductor*
G36*
X106100161Y-92226370D02*
G01*
X106102845Y-92230539D01*
X106207148Y-92508987D01*
X106207666Y-92510808D01*
X106211133Y-92528230D01*
X106211133Y-92528231D01*
X106217717Y-92538085D01*
X106218946Y-92540481D01*
X106289422Y-92728622D01*
X106289115Y-92737571D01*
X106282569Y-92743683D01*
X106280785Y-92744194D01*
X106000049Y-92800989D01*
X105999974Y-92801004D01*
X105719581Y-92855825D01*
X105710804Y-92854049D01*
X105705853Y-92846587D01*
X105705636Y-92844448D01*
X105702768Y-92528231D01*
X105700107Y-92234748D01*
X105703459Y-92226445D01*
X105711701Y-92222943D01*
X106091888Y-92222943D01*
X106100161Y-92226370D01*
G37*
G04 #@! TD.AperFunction*
G04 #@! TA.AperFunction,Conductor*
G36*
X110207525Y-94926063D02*
G01*
X110302479Y-95021017D01*
X110305906Y-95029290D01*
X110305875Y-95030139D01*
X110270194Y-95520354D01*
X110266176Y-95528357D01*
X110257676Y-95531174D01*
X110256274Y-95530986D01*
X110242863Y-95528357D01*
X109979088Y-95476647D01*
X109971630Y-95471694D01*
X109814307Y-95234570D01*
X109812589Y-95225783D01*
X109816842Y-95218892D01*
X110192039Y-94925123D01*
X110200666Y-94922722D01*
X110207525Y-94926063D01*
G37*
G04 #@! TD.AperFunction*
G04 #@! TA.AperFunction,Conductor*
G36*
X111698452Y-92159191D02*
G01*
X111701702Y-92165437D01*
X111792259Y-92680239D01*
X111790317Y-92688981D01*
X111783056Y-92693734D01*
X111502320Y-92750530D01*
X111497680Y-92750530D01*
X111216943Y-92693734D01*
X111209514Y-92688734D01*
X111207740Y-92680239D01*
X111298298Y-92165437D01*
X111303106Y-92157883D01*
X111309821Y-92155764D01*
X111690179Y-92155764D01*
X111698452Y-92159191D01*
G37*
G04 #@! TD.AperFunction*
G04 #@! TA.AperFunction,Conductor*
G36*
X111383056Y-98406265D02*
G01*
X111390485Y-98411265D01*
X111392259Y-98419760D01*
X111301702Y-98934563D01*
X111296894Y-98942117D01*
X111290179Y-98944236D01*
X110909821Y-98944236D01*
X110901548Y-98940809D01*
X110898298Y-98934563D01*
X110807740Y-98419760D01*
X110809682Y-98411018D01*
X110816942Y-98406265D01*
X111097682Y-98349469D01*
X111102318Y-98349469D01*
X111383056Y-98406265D01*
G37*
G04 #@! TD.AperFunction*
G04 #@! TA.AperFunction,Conductor*
G36*
X107992463Y-98243016D02*
G01*
X107995029Y-98246883D01*
X108157459Y-98646417D01*
X108157949Y-98653746D01*
X107911178Y-99610122D01*
X107905793Y-99617277D01*
X107896926Y-99618528D01*
X107889771Y-99613143D01*
X107888646Y-99610572D01*
X107601731Y-98655759D01*
X107602632Y-98646850D01*
X107603670Y-98645249D01*
X107705097Y-98513968D01*
X107706068Y-98512865D01*
X107975918Y-98243015D01*
X107984190Y-98239589D01*
X107992463Y-98243016D01*
G37*
G04 #@! TD.AperFunction*
G04 #@! TA.AperFunction,Conductor*
G36*
X106710299Y-91484202D02*
G01*
X106711206Y-91486393D01*
X106998304Y-92444343D01*
X106997397Y-92453252D01*
X106996457Y-92454722D01*
X106778510Y-92745320D01*
X106770805Y-92749882D01*
X106769150Y-92750000D01*
X106630850Y-92750000D01*
X106622577Y-92746573D01*
X106621490Y-92745320D01*
X106408733Y-92461644D01*
X106407392Y-92459354D01*
X106405730Y-92455594D01*
X106405181Y-92454077D01*
X106404807Y-92452761D01*
X106403005Y-92447285D01*
X106402913Y-92440280D01*
X106688794Y-91486390D01*
X106694449Y-91479452D01*
X106703358Y-91478545D01*
X106710299Y-91484202D01*
G37*
G04 #@! TD.AperFunction*
G04 #@! TA.AperFunction,Conductor*
G36*
X95910925Y-99686641D02*
G01*
X95912056Y-99689229D01*
X96199007Y-100646686D01*
X96199500Y-100650045D01*
X96199500Y-100652457D01*
X96199371Y-100654193D01*
X96156495Y-100940036D01*
X96151878Y-100947709D01*
X96144924Y-100950000D01*
X95763097Y-100950000D01*
X95754824Y-100946573D01*
X95752147Y-100942423D01*
X95751248Y-100940036D01*
X95643353Y-100653460D01*
X95642973Y-100646417D01*
X95889520Y-99689665D01*
X95894902Y-99682512D01*
X95903769Y-99681258D01*
X95910925Y-99686641D01*
G37*
G04 #@! TD.AperFunction*
G04 #@! TA.AperFunction,Conductor*
G36*
X104710300Y-99684203D02*
G01*
X104711207Y-99686394D01*
X104998936Y-100646451D01*
X104998829Y-100653510D01*
X104902667Y-100942000D01*
X104896799Y-100948765D01*
X104891567Y-100950000D01*
X104508433Y-100950000D01*
X104500160Y-100946573D01*
X104497333Y-100942000D01*
X104401170Y-100653511D01*
X104401063Y-100646452D01*
X104401064Y-100646451D01*
X104688793Y-99686393D01*
X104694450Y-99679453D01*
X104703359Y-99678546D01*
X104710300Y-99684203D01*
G37*
G04 #@! TD.AperFunction*
G04 #@! TA.AperFunction,Conductor*
G36*
X121348452Y-93359191D02*
G01*
X121351702Y-93365437D01*
X121442259Y-93880239D01*
X121440317Y-93888981D01*
X121433056Y-93893734D01*
X121152320Y-93950530D01*
X121147680Y-93950530D01*
X120866943Y-93893734D01*
X120859514Y-93888734D01*
X120857740Y-93880239D01*
X120948298Y-93365437D01*
X120953106Y-93357883D01*
X120959821Y-93355764D01*
X121340179Y-93355764D01*
X121348452Y-93359191D01*
G37*
G04 #@! TD.AperFunction*
G04 #@! TA.AperFunction,Conductor*
G36*
X118713712Y-98414448D02*
G01*
X118913304Y-98614040D01*
X118916731Y-98622313D01*
X118916266Y-98625579D01*
X118603024Y-99703215D01*
X118597424Y-99710203D01*
X118589393Y-99711401D01*
X118309811Y-99652907D01*
X118302415Y-99647859D01*
X118300593Y-99640039D01*
X118420710Y-98654519D01*
X118424723Y-98647042D01*
X118697843Y-98413823D01*
X118706358Y-98411057D01*
X118713712Y-98414448D01*
G37*
G04 #@! TD.AperFunction*
G04 #@! TA.AperFunction,Conductor*
G36*
X112499840Y-90153427D02*
G01*
X112502667Y-90158000D01*
X112598829Y-90446488D01*
X112598936Y-90453547D01*
X112311206Y-91413605D01*
X112305549Y-91420546D01*
X112296640Y-91421453D01*
X112289699Y-91415796D01*
X112288794Y-91413611D01*
X112001063Y-90453546D01*
X112001169Y-90446490D01*
X112097333Y-90157999D01*
X112103201Y-90151235D01*
X112108433Y-90150000D01*
X112491567Y-90150000D01*
X112499840Y-90153427D01*
G37*
G04 #@! TD.AperFunction*
G04 #@! TA.AperFunction,Conductor*
G36*
X107966942Y-98145413D02*
G01*
X107971803Y-98152458D01*
X108096644Y-98686676D01*
X108095190Y-98695511D01*
X108087913Y-98700731D01*
X108085251Y-98701038D01*
X107705534Y-98701038D01*
X107697261Y-98697611D01*
X107696490Y-98696761D01*
X107567193Y-98539232D01*
X107566509Y-98538309D01*
X107544552Y-98505448D01*
X107534727Y-98498883D01*
X107532184Y-98496578D01*
X107504174Y-98462453D01*
X107433725Y-98376620D01*
X107431126Y-98368053D01*
X107435347Y-98360155D01*
X107436238Y-98359492D01*
X107673040Y-98200317D01*
X107677314Y-98198547D01*
X107958166Y-98143637D01*
X107966942Y-98145413D01*
G37*
G04 #@! TD.AperFunction*
G04 #@! TA.AperFunction,Conductor*
G36*
X97110300Y-91484202D02*
G01*
X97111207Y-91486393D01*
X97398304Y-92444343D01*
X97397397Y-92453252D01*
X97396457Y-92454722D01*
X97178510Y-92745320D01*
X97170805Y-92749882D01*
X97169150Y-92750000D01*
X97030850Y-92750000D01*
X97022577Y-92746573D01*
X97021490Y-92745320D01*
X96803542Y-92454722D01*
X96801320Y-92446047D01*
X96801695Y-92444343D01*
X97088793Y-91486393D01*
X97094450Y-91479452D01*
X97103359Y-91478545D01*
X97110300Y-91484202D01*
G37*
G04 #@! TD.AperFunction*
G04 #@! TA.AperFunction,Conductor*
G36*
X98437722Y-101935709D02*
G01*
X98443692Y-101942384D01*
X98444121Y-101943949D01*
X98499745Y-102220920D01*
X98498014Y-102229706D01*
X98497981Y-102229756D01*
X98339666Y-102465022D01*
X98332204Y-102469973D01*
X98323723Y-102468390D01*
X98015934Y-102274521D01*
X97900053Y-102201530D01*
X97894880Y-102194222D01*
X97896390Y-102185395D01*
X97898013Y-102183362D01*
X97991835Y-102089540D01*
X97996235Y-102086773D01*
X98428781Y-101935211D01*
X98437722Y-101935709D01*
G37*
G04 #@! TD.AperFunction*
G04 #@! TA.AperFunction,Conductor*
G36*
X115032017Y-89956055D02*
G01*
X115039445Y-89961054D01*
X115041164Y-89969842D01*
X115040994Y-89970564D01*
X114902331Y-90485578D01*
X114896871Y-90492676D01*
X114891033Y-90494236D01*
X114510773Y-90494236D01*
X114502500Y-90490809D01*
X114499113Y-90483499D01*
X114456620Y-89968895D01*
X114459354Y-89960368D01*
X114465959Y-89956464D01*
X114747682Y-89899469D01*
X114752318Y-89899469D01*
X115032017Y-89956055D01*
G37*
G04 #@! TD.AperFunction*
G04 #@! TA.AperFunction,Conductor*
G36*
X117694236Y-113300000D02*
G01*
X117694236Y-113700000D01*
X117158527Y-113794236D01*
X117099000Y-113500000D01*
X117158527Y-113205764D01*
X117694236Y-113300000D01*
G37*
G04 #@! TD.AperFunction*
G04 #@! TA.AperFunction,Conductor*
G36*
X122060362Y-111239986D02*
G01*
X122061872Y-111240835D01*
X122298734Y-111397984D01*
X122302015Y-111401265D01*
X122459164Y-111638127D01*
X122460883Y-111646915D01*
X122455883Y-111654344D01*
X122454373Y-111655193D01*
X121957953Y-111887422D01*
X121949007Y-111887823D01*
X121944722Y-111885097D01*
X121814902Y-111755277D01*
X121811475Y-111747004D01*
X121812575Y-111742051D01*
X122044806Y-111245625D01*
X122051416Y-111239585D01*
X122060362Y-111239986D01*
G37*
G04 #@! TD.AperFunction*
G04 #@! TA.AperFunction,Conductor*
G36*
X107175416Y-98353427D02*
G01*
X107177351Y-98355982D01*
X107339792Y-98645995D01*
X107340956Y-98654463D01*
X107110163Y-99608965D01*
X107104888Y-99616201D01*
X107096041Y-99617587D01*
X107088805Y-99612312D01*
X107087585Y-99609578D01*
X106800993Y-98653312D01*
X106800500Y-98649953D01*
X106800500Y-98649395D01*
X106800840Y-98646593D01*
X106871805Y-98358898D01*
X106877114Y-98351686D01*
X106883165Y-98350000D01*
X107167143Y-98350000D01*
X107175416Y-98353427D01*
G37*
G04 #@! TD.AperFunction*
G04 #@! TA.AperFunction,Conductor*
G36*
X109383056Y-90056265D02*
G01*
X109390485Y-90061265D01*
X109392259Y-90069760D01*
X109301702Y-90584563D01*
X109296894Y-90592117D01*
X109290179Y-90594236D01*
X108909821Y-90594236D01*
X108901548Y-90590809D01*
X108898298Y-90584563D01*
X108807740Y-90069760D01*
X108809682Y-90061018D01*
X108816942Y-90056265D01*
X109097682Y-89999469D01*
X109102318Y-89999469D01*
X109383056Y-90056265D01*
G37*
G04 #@! TD.AperFunction*
G04 #@! TA.AperFunction,Conductor*
G36*
X115635420Y-95659191D02*
G01*
X115637975Y-95663033D01*
X115848877Y-96178379D01*
X115848839Y-96187333D01*
X115842480Y-96193638D01*
X115840369Y-96194278D01*
X115562320Y-96250530D01*
X115557680Y-96250530D01*
X115279630Y-96194278D01*
X115272201Y-96189278D01*
X115270482Y-96180490D01*
X115271120Y-96178385D01*
X115482025Y-95663032D01*
X115488330Y-95656674D01*
X115492853Y-95655764D01*
X115627147Y-95655764D01*
X115635420Y-95659191D01*
G37*
G04 #@! TD.AperFunction*
G04 #@! TA.AperFunction,Conductor*
G36*
X99510982Y-91489787D02*
G01*
X99512354Y-91492761D01*
X99798376Y-92444596D01*
X99797475Y-92453505D01*
X99796783Y-92454634D01*
X99659695Y-92652173D01*
X99658356Y-92653775D01*
X99561886Y-92750245D01*
X99553613Y-92753672D01*
X99545340Y-92750245D01*
X99544799Y-92749666D01*
X99287092Y-92454423D01*
X99284233Y-92445937D01*
X99284470Y-92444260D01*
X99489714Y-91493656D01*
X99494808Y-91486295D01*
X99503618Y-91484692D01*
X99510982Y-91489787D01*
G37*
G04 #@! TD.AperFunction*
G04 #@! TA.AperFunction,Conductor*
G36*
X95510571Y-91485260D02*
G01*
X95511578Y-91487632D01*
X95798541Y-92445133D01*
X95797634Y-92454042D01*
X95797440Y-92454387D01*
X95628386Y-92744195D01*
X95621258Y-92749615D01*
X95618280Y-92750000D01*
X95431162Y-92750000D01*
X95422889Y-92746573D01*
X95421514Y-92744919D01*
X95421017Y-92744195D01*
X95222272Y-92454509D01*
X95220419Y-92445750D01*
X95220651Y-92444750D01*
X95489106Y-91487830D01*
X95494640Y-91480791D01*
X95503531Y-91479726D01*
X95510571Y-91485260D01*
G37*
G04 #@! TD.AperFunction*
G04 #@! TA.AperFunction,Conductor*
G36*
X114037494Y-88885275D02*
G01*
X114291588Y-89098048D01*
X114295730Y-89105985D01*
X114294354Y-89112607D01*
X114103323Y-89463890D01*
X114096361Y-89469520D01*
X114093045Y-89470000D01*
X113908068Y-89470000D01*
X113899795Y-89466573D01*
X113897132Y-89462459D01*
X113763623Y-89111376D01*
X113763885Y-89102425D01*
X113767063Y-89098234D01*
X114022493Y-88885258D01*
X114031039Y-88882594D01*
X114037494Y-88885275D01*
G37*
G04 #@! TD.AperFunction*
G04 #@! TA.AperFunction,Conductor*
G36*
X117275420Y-92759191D02*
G01*
X117277975Y-92763033D01*
X117488877Y-93278379D01*
X117488839Y-93287333D01*
X117482480Y-93293638D01*
X117480369Y-93294278D01*
X117202320Y-93350530D01*
X117197680Y-93350530D01*
X116919630Y-93294278D01*
X116912201Y-93289278D01*
X116910482Y-93280490D01*
X116911120Y-93278385D01*
X117122025Y-92763032D01*
X117128330Y-92756674D01*
X117132853Y-92755764D01*
X117267147Y-92755764D01*
X117275420Y-92759191D01*
G37*
G04 #@! TD.AperFunction*
G04 #@! TA.AperFunction,Conductor*
G36*
X106183056Y-90056265D02*
G01*
X106190485Y-90061265D01*
X106192259Y-90069760D01*
X106101702Y-90584563D01*
X106096894Y-90592117D01*
X106090179Y-90594236D01*
X105709821Y-90594236D01*
X105701548Y-90590809D01*
X105698298Y-90584563D01*
X105607740Y-90069760D01*
X105609682Y-90061018D01*
X105616942Y-90056265D01*
X105897682Y-89999469D01*
X105902318Y-89999469D01*
X106183056Y-90056265D01*
G37*
G04 #@! TD.AperFunction*
G04 #@! TA.AperFunction,Conductor*
G36*
X98098452Y-92159191D02*
G01*
X98101702Y-92165437D01*
X98192259Y-92680239D01*
X98190317Y-92688981D01*
X98183056Y-92693734D01*
X97902320Y-92750530D01*
X97897680Y-92750530D01*
X97616943Y-92693734D01*
X97609514Y-92688734D01*
X97607740Y-92680239D01*
X97698298Y-92165437D01*
X97703106Y-92157883D01*
X97709821Y-92155764D01*
X98090179Y-92155764D01*
X98098452Y-92159191D01*
G37*
G04 #@! TD.AperFunction*
G04 #@! TA.AperFunction,Conductor*
G36*
X107510300Y-91484202D02*
G01*
X107511207Y-91486393D01*
X107798304Y-92444343D01*
X107797397Y-92453252D01*
X107796457Y-92454722D01*
X107578510Y-92745320D01*
X107570805Y-92749882D01*
X107569150Y-92750000D01*
X107430850Y-92750000D01*
X107422577Y-92746573D01*
X107421490Y-92745320D01*
X107203542Y-92454722D01*
X107201320Y-92446047D01*
X107201695Y-92444343D01*
X107488793Y-91486393D01*
X107494450Y-91479452D01*
X107503359Y-91478545D01*
X107510300Y-91484202D01*
G37*
G04 #@! TD.AperFunction*
G04 #@! TA.AperFunction,Conductor*
G36*
X108098709Y-101263427D02*
G01*
X108101901Y-101269373D01*
X108111334Y-101315864D01*
X108172954Y-101619582D01*
X108171241Y-101628371D01*
X108168981Y-101630894D01*
X107911437Y-101845632D01*
X107902888Y-101848298D01*
X107897846Y-101846631D01*
X107631825Y-101684168D01*
X107626550Y-101676932D01*
X107626405Y-101672131D01*
X107698278Y-101269642D01*
X107703106Y-101262101D01*
X107709796Y-101260000D01*
X108090436Y-101260000D01*
X108098709Y-101263427D01*
G37*
G04 #@! TD.AperFunction*
G04 #@! TA.AperFunction,Conductor*
G36*
X106075420Y-103709191D02*
G01*
X106077975Y-103713033D01*
X106288877Y-104228379D01*
X106288839Y-104237333D01*
X106282480Y-104243638D01*
X106280369Y-104244278D01*
X106002320Y-104300530D01*
X105997680Y-104300530D01*
X105719630Y-104244278D01*
X105712201Y-104239278D01*
X105710482Y-104230490D01*
X105711120Y-104228385D01*
X105922025Y-103713032D01*
X105928330Y-103706674D01*
X105932853Y-103705764D01*
X106067147Y-103705764D01*
X106075420Y-103709191D01*
G37*
G04 #@! TD.AperFunction*
G04 #@! TA.AperFunction,Conductor*
G36*
X115510988Y-91486883D02*
G01*
X115512140Y-91489507D01*
X115795362Y-92434528D01*
X115795740Y-92437977D01*
X115795849Y-92438265D01*
X115795840Y-92438529D01*
X115795000Y-92450045D01*
X115795000Y-92450558D01*
X115795295Y-92455390D01*
X115795278Y-92455945D01*
X115793836Y-92461205D01*
X115638334Y-92743938D01*
X115631344Y-92749536D01*
X115628082Y-92750000D01*
X115490636Y-92750000D01*
X115482363Y-92746573D01*
X115481487Y-92745593D01*
X115249466Y-92454541D01*
X115246989Y-92445936D01*
X115247273Y-92444378D01*
X115489593Y-91489986D01*
X115494950Y-91482811D01*
X115503812Y-91481526D01*
X115510988Y-91486883D01*
G37*
G04 #@! TD.AperFunction*
G04 #@! TA.AperFunction,Conductor*
G36*
X106775420Y-94809191D02*
G01*
X106777975Y-94813033D01*
X106988877Y-95328379D01*
X106988839Y-95337333D01*
X106982480Y-95343638D01*
X106980369Y-95344278D01*
X106702320Y-95400530D01*
X106697680Y-95400530D01*
X106419630Y-95344278D01*
X106412201Y-95339278D01*
X106410482Y-95330490D01*
X106411120Y-95328385D01*
X106622025Y-94813032D01*
X106628330Y-94806674D01*
X106632853Y-94805764D01*
X106767147Y-94805764D01*
X106775420Y-94809191D01*
G37*
G04 #@! TD.AperFunction*
G04 #@! TA.AperFunction,Conductor*
G36*
X117552631Y-101297663D02*
G01*
X117556058Y-101305936D01*
X117552631Y-101314209D01*
X117545867Y-101317537D01*
X117494275Y-101324249D01*
X117279292Y-101352214D01*
X117270646Y-101349883D01*
X117266181Y-101342121D01*
X117268512Y-101333475D01*
X117271186Y-101330949D01*
X117322017Y-101296270D01*
X117328611Y-101294236D01*
X117544358Y-101294236D01*
X117552631Y-101297663D01*
G37*
G04 #@! TD.AperFunction*
G04 #@! TA.AperFunction,Conductor*
G36*
X122280930Y-115655835D02*
G01*
X122288358Y-115660834D01*
X122290077Y-115669622D01*
X122289608Y-115671290D01*
X122102796Y-116186524D01*
X122096755Y-116193134D01*
X122091797Y-116194236D01*
X121908203Y-116194236D01*
X121899930Y-116190809D01*
X121897204Y-116186524D01*
X121849544Y-116055078D01*
X121710391Y-115671288D01*
X121710792Y-115662344D01*
X121717402Y-115656303D01*
X121719056Y-115655837D01*
X121997682Y-115599469D01*
X122002318Y-115599469D01*
X122280930Y-115655835D01*
G37*
G04 #@! TD.AperFunction*
G04 #@! TA.AperFunction,Conductor*
G36*
X107050698Y-101263427D02*
G01*
X107053100Y-101266912D01*
X107210712Y-101618329D01*
X107210971Y-101627280D01*
X107207530Y-101632103D01*
X106952493Y-101844752D01*
X106943944Y-101847418D01*
X106937507Y-101844752D01*
X106682630Y-101632238D01*
X106678471Y-101624308D01*
X106679558Y-101618225D01*
X106846825Y-101266673D01*
X106853474Y-101260675D01*
X106857390Y-101260000D01*
X107042425Y-101260000D01*
X107050698Y-101263427D01*
G37*
G04 #@! TD.AperFunction*
G04 #@! TA.AperFunction,Conductor*
G36*
X121156198Y-92061161D02*
G01*
X121159923Y-92064886D01*
X122142422Y-93637869D01*
X122143899Y-93646701D01*
X122138697Y-93653990D01*
X122136607Y-93655022D01*
X121351987Y-93949255D01*
X121347879Y-93950000D01*
X120952121Y-93950000D01*
X120948013Y-93949255D01*
X120163392Y-93655022D01*
X120156849Y-93648908D01*
X120156545Y-93639959D01*
X120157577Y-93637869D01*
X121140077Y-92064886D01*
X121147366Y-92059684D01*
X121156198Y-92061161D01*
G37*
G04 #@! TD.AperFunction*
G04 #@! TA.AperFunction,Conductor*
G36*
X98710300Y-91484202D02*
G01*
X98711207Y-91486393D01*
X98998304Y-92444343D01*
X98997397Y-92453252D01*
X98996457Y-92454722D01*
X98778510Y-92745320D01*
X98770805Y-92749882D01*
X98769150Y-92750000D01*
X98630850Y-92750000D01*
X98622577Y-92746573D01*
X98621490Y-92745320D01*
X98403542Y-92454722D01*
X98401320Y-92446047D01*
X98401695Y-92444343D01*
X98688793Y-91486393D01*
X98694450Y-91479452D01*
X98703359Y-91478545D01*
X98710300Y-91484202D01*
G37*
G04 #@! TD.AperFunction*
G04 #@! TA.AperFunction,Conductor*
G36*
X93288981Y-91759682D02*
G01*
X93293734Y-91766943D01*
X93350530Y-92047680D01*
X93350530Y-92052320D01*
X93293734Y-92333056D01*
X93288734Y-92340485D01*
X93280239Y-92342259D01*
X92765437Y-92251701D01*
X92757883Y-92246893D01*
X92755764Y-92240178D01*
X92755764Y-91859821D01*
X92759191Y-91851548D01*
X92765435Y-91848298D01*
X93280239Y-91757740D01*
X93288981Y-91759682D01*
G37*
G04 #@! TD.AperFunction*
G04 #@! TA.AperFunction,Conductor*
G36*
X113699840Y-98353427D02*
G01*
X113702667Y-98358000D01*
X113798829Y-98646488D01*
X113798936Y-98653547D01*
X113511207Y-99613605D01*
X113505550Y-99620546D01*
X113496641Y-99621453D01*
X113489700Y-99615796D01*
X113488793Y-99613605D01*
X113201063Y-98653547D01*
X113201169Y-98646490D01*
X113297333Y-98357999D01*
X113303201Y-98351235D01*
X113308433Y-98350000D01*
X113691567Y-98350000D01*
X113699840Y-98353427D01*
G37*
G04 #@! TD.AperFunction*
G04 #@! TA.AperFunction,Conductor*
G36*
X114923542Y-92209191D02*
G01*
X114926772Y-92215331D01*
X114965348Y-92423579D01*
X115022139Y-92730156D01*
X115020277Y-92738915D01*
X115012955Y-92743755D01*
X114732320Y-92800530D01*
X114727680Y-92800530D01*
X114446842Y-92743714D01*
X114439413Y-92738714D01*
X114437621Y-92730324D01*
X114523371Y-92215542D01*
X114528111Y-92207944D01*
X114534912Y-92205764D01*
X114915269Y-92205764D01*
X114923542Y-92209191D01*
G37*
G04 #@! TD.AperFunction*
G04 #@! TA.AperFunction,Conductor*
G36*
X105110300Y-91484202D02*
G01*
X105111207Y-91486393D01*
X105398304Y-92444343D01*
X105397397Y-92453252D01*
X105396457Y-92454722D01*
X105178510Y-92745320D01*
X105170805Y-92749882D01*
X105169150Y-92750000D01*
X105030850Y-92750000D01*
X105022577Y-92746573D01*
X105021490Y-92745320D01*
X104803542Y-92454722D01*
X104801320Y-92446047D01*
X104801695Y-92444343D01*
X105088793Y-91486393D01*
X105094450Y-91479452D01*
X105103359Y-91478545D01*
X105110300Y-91484202D01*
G37*
G04 #@! TD.AperFunction*
G04 #@! TA.AperFunction,Conductor*
G36*
X101145578Y-122500411D02*
G01*
X101629905Y-122744626D01*
X101635748Y-122751410D01*
X101635083Y-122760340D01*
X101634385Y-122761540D01*
X101477015Y-122998734D01*
X101473734Y-123002015D01*
X101237207Y-123158942D01*
X101228419Y-123160661D01*
X101220990Y-123155661D01*
X101220003Y-123153843D01*
X100999763Y-122645321D01*
X100999619Y-122636367D01*
X101002224Y-122632400D01*
X101132039Y-122502585D01*
X101140311Y-122499159D01*
X101145578Y-122500411D01*
G37*
G04 #@! TD.AperFunction*
G04 #@! TA.AperFunction,Conductor*
G36*
X108710300Y-99684202D02*
G01*
X108711207Y-99686393D01*
X108998304Y-100644343D01*
X108997397Y-100653252D01*
X108996457Y-100654722D01*
X108778510Y-100945320D01*
X108770805Y-100949882D01*
X108769150Y-100950000D01*
X108630850Y-100950000D01*
X108622577Y-100946573D01*
X108621490Y-100945320D01*
X108403542Y-100654722D01*
X108401320Y-100646047D01*
X108401695Y-100644343D01*
X108688793Y-99686393D01*
X108694450Y-99679452D01*
X108703359Y-99678545D01*
X108710300Y-99684202D01*
G37*
G04 #@! TD.AperFunction*
G04 #@! TA.AperFunction,Conductor*
G36*
X113157491Y-88895246D02*
G01*
X113407805Y-89103955D01*
X113412051Y-89107496D01*
X113416210Y-89115426D01*
X113414894Y-89121964D01*
X113228298Y-89473782D01*
X113221394Y-89479485D01*
X113217962Y-89480000D01*
X113032966Y-89480000D01*
X113024693Y-89476573D01*
X113022080Y-89472588D01*
X112883754Y-89121438D01*
X112883910Y-89112485D01*
X112887145Y-89108165D01*
X113142508Y-88895246D01*
X113151056Y-88892581D01*
X113157491Y-88895246D01*
G37*
G04 #@! TD.AperFunction*
G04 #@! TA.AperFunction,Conductor*
G36*
X105175420Y-92809191D02*
G01*
X105177975Y-92813033D01*
X105388877Y-93328379D01*
X105388839Y-93337333D01*
X105382480Y-93343638D01*
X105380369Y-93344278D01*
X105102320Y-93400530D01*
X105097680Y-93400530D01*
X104819630Y-93344278D01*
X104812201Y-93339278D01*
X104810482Y-93330490D01*
X104811120Y-93328385D01*
X105022025Y-92813032D01*
X105028330Y-92806674D01*
X105032853Y-92805764D01*
X105167147Y-92805764D01*
X105175420Y-92809191D01*
G37*
G04 #@! TD.AperFunction*
G04 #@! TA.AperFunction,Conductor*
G36*
X115183092Y-89408603D02*
G01*
X115186519Y-89416876D01*
X115186133Y-89419856D01*
X115047030Y-89947919D01*
X115041609Y-89955047D01*
X115033471Y-89956422D01*
X114752318Y-89901453D01*
X114748036Y-89899680D01*
X114511632Y-89740772D01*
X114506678Y-89733313D01*
X114508449Y-89724535D01*
X114509379Y-89723328D01*
X114786506Y-89409136D01*
X114794549Y-89405199D01*
X114795281Y-89405176D01*
X115174819Y-89405176D01*
X115183092Y-89408603D01*
G37*
G04 #@! TD.AperFunction*
G04 #@! TA.AperFunction,Conductor*
G36*
X110713232Y-91495566D02*
G01*
X110715034Y-91499166D01*
X110938593Y-92245106D01*
X110998710Y-92445697D01*
X110999007Y-92446686D01*
X110999500Y-92450045D01*
X110999500Y-92455508D01*
X110999460Y-92456480D01*
X110975894Y-92739272D01*
X110971792Y-92747232D01*
X110964234Y-92750000D01*
X110830151Y-92750000D01*
X110821878Y-92746573D01*
X110821521Y-92746200D01*
X110554122Y-92454113D01*
X110551063Y-92445697D01*
X110551179Y-92444497D01*
X110692257Y-91500792D01*
X110696868Y-91493120D01*
X110705557Y-91490954D01*
X110713232Y-91495566D01*
G37*
G04 #@! TD.AperFunction*
G04 #@! TA.AperFunction,Conductor*
G36*
X108606846Y-91152282D02*
G01*
X108892000Y-91247333D01*
X108898765Y-91253201D01*
X108900000Y-91258433D01*
X108900000Y-91641566D01*
X108896573Y-91649839D01*
X108892000Y-91652666D01*
X108606846Y-91747717D01*
X108597914Y-91747082D01*
X108594887Y-91744904D01*
X108307313Y-91458285D01*
X108303873Y-91450019D01*
X108307285Y-91441741D01*
X108594888Y-91155094D01*
X108603165Y-91151682D01*
X108606846Y-91152282D01*
G37*
G04 #@! TD.AperFunction*
G04 #@! TA.AperFunction,Conductor*
G36*
X109299840Y-90153427D02*
G01*
X109302667Y-90158000D01*
X109398829Y-90446488D01*
X109398936Y-90453547D01*
X109111206Y-91413605D01*
X109105549Y-91420546D01*
X109096640Y-91421453D01*
X109089699Y-91415796D01*
X109088794Y-91413611D01*
X108801063Y-90453546D01*
X108801169Y-90446490D01*
X108897333Y-90157999D01*
X108903201Y-90151235D01*
X108908433Y-90150000D01*
X109291567Y-90150000D01*
X109299840Y-90153427D01*
G37*
G04 #@! TD.AperFunction*
G04 #@! TA.AperFunction,Conductor*
G36*
X114996097Y-88882723D02*
G01*
X115263089Y-89045779D01*
X115268364Y-89053015D01*
X115268484Y-89057953D01*
X115191812Y-89460489D01*
X115186898Y-89467975D01*
X115180319Y-89470000D01*
X114799681Y-89470000D01*
X114791408Y-89466573D01*
X114788188Y-89460489D01*
X114711515Y-89057953D01*
X114713333Y-89049185D01*
X114716907Y-89045781D01*
X114983902Y-88882723D01*
X114992749Y-88881336D01*
X114996097Y-88882723D01*
G37*
G04 #@! TD.AperFunction*
G04 #@! TA.AperFunction,Conductor*
G36*
X96710094Y-99686336D02*
G01*
X96711175Y-99688834D01*
X96998165Y-100643894D01*
X96997264Y-100652803D01*
X96995864Y-100654851D01*
X96796010Y-100889292D01*
X96795379Y-100889975D01*
X96699225Y-100986129D01*
X96690952Y-100989556D01*
X96682679Y-100986129D01*
X96681562Y-100984835D01*
X96610811Y-100889645D01*
X96436060Y-100654532D01*
X96433876Y-100645849D01*
X96434141Y-100644559D01*
X96688664Y-99689188D01*
X96694105Y-99682077D01*
X96702982Y-99680895D01*
X96710094Y-99686336D01*
G37*
G04 #@! TD.AperFunction*
G04 #@! TA.AperFunction,Conductor*
G36*
X117111524Y-91488973D02*
G01*
X117112851Y-91491881D01*
X117398800Y-92445996D01*
X117398393Y-92453855D01*
X117278000Y-92742800D01*
X117271655Y-92749119D01*
X117267200Y-92750000D01*
X117130495Y-92750000D01*
X117122222Y-92746573D01*
X117121491Y-92745771D01*
X117057222Y-92668321D01*
X116879722Y-92454418D01*
X116877077Y-92445866D01*
X116877306Y-92444409D01*
X117090226Y-91492684D01*
X117095377Y-91485360D01*
X117104198Y-91483822D01*
X117111524Y-91488973D01*
G37*
G04 #@! TD.AperFunction*
G04 #@! TA.AperFunction,Conductor*
G36*
X110035282Y-92759191D02*
G01*
X110037907Y-92763207D01*
X110201997Y-93183329D01*
X110239172Y-93278507D01*
X110238990Y-93287460D01*
X110232531Y-93293662D01*
X110230594Y-93294232D01*
X109954789Y-93350030D01*
X109946001Y-93348311D01*
X109945942Y-93348272D01*
X109708624Y-93188750D01*
X109703670Y-93181291D01*
X109704408Y-93174406D01*
X109881952Y-92762830D01*
X109888375Y-92756591D01*
X109892695Y-92755764D01*
X110027009Y-92755764D01*
X110035282Y-92759191D01*
G37*
G04 #@! TD.AperFunction*
G04 #@! TA.AperFunction,Conductor*
G36*
X107577672Y-92981532D02*
G01*
X107955687Y-93194374D01*
X107961215Y-93201419D01*
X107960142Y-93210309D01*
X107959687Y-93211051D01*
X107802704Y-93446935D01*
X107795268Y-93451924D01*
X107795209Y-93451936D01*
X107517732Y-93506186D01*
X107508955Y-93504410D01*
X107504004Y-93496948D01*
X107503921Y-93496470D01*
X107497115Y-93451936D01*
X107427058Y-92993495D01*
X107429196Y-92984800D01*
X107436857Y-92980162D01*
X107438624Y-92980028D01*
X107571933Y-92980028D01*
X107577672Y-92981532D01*
G37*
G04 #@! TD.AperFunction*
G04 #@! TA.AperFunction,Conductor*
G36*
X93004491Y-91061596D02*
G01*
X93006378Y-91064579D01*
X93349019Y-91847757D01*
X93350000Y-91852447D01*
X93350000Y-92247552D01*
X93349019Y-92252242D01*
X93006378Y-93035420D01*
X92999922Y-93041626D01*
X92990969Y-93041449D01*
X92987986Y-93039562D01*
X92785677Y-92863794D01*
X91859164Y-92058831D01*
X91855167Y-92050819D01*
X91858006Y-92042327D01*
X91859160Y-92041172D01*
X92987987Y-91060436D01*
X92996478Y-91057598D01*
X93004491Y-91061596D01*
G37*
G04 #@! TD.AperFunction*
G04 #@! TA.AperFunction,Conductor*
G36*
X107107645Y-99693060D02*
G01*
X107108847Y-99696466D01*
X107285603Y-100644780D01*
X107283750Y-100653541D01*
X107283288Y-100654169D01*
X107053513Y-100945545D01*
X107045699Y-100949919D01*
X107044326Y-100950000D01*
X106859911Y-100950000D01*
X106851638Y-100946573D01*
X106848370Y-100940223D01*
X106800659Y-100653954D01*
X106800500Y-100652031D01*
X106800500Y-100650045D01*
X106800993Y-100646686D01*
X107085774Y-99696466D01*
X107086138Y-99695249D01*
X107091795Y-99688310D01*
X107100704Y-99687403D01*
X107107645Y-99693060D01*
G37*
G04 #@! TD.AperFunction*
G04 #@! TA.AperFunction,Conductor*
G36*
X94710571Y-91485260D02*
G01*
X94711578Y-91487632D01*
X94998541Y-92445133D01*
X94997634Y-92454042D01*
X94997440Y-92454387D01*
X94828386Y-92744195D01*
X94821258Y-92749615D01*
X94818280Y-92750000D01*
X94631162Y-92750000D01*
X94622889Y-92746573D01*
X94621514Y-92744919D01*
X94621017Y-92744195D01*
X94422272Y-92454509D01*
X94420419Y-92445750D01*
X94420651Y-92444750D01*
X94689106Y-91487830D01*
X94694640Y-91480791D01*
X94703531Y-91479726D01*
X94710571Y-91485260D01*
G37*
G04 #@! TD.AperFunction*
G04 #@! TA.AperFunction,Conductor*
G36*
X113771617Y-122711121D02*
G01*
X114286967Y-122922025D01*
X114293326Y-122928330D01*
X114294236Y-122932853D01*
X114294236Y-123067146D01*
X114290809Y-123075419D01*
X114286967Y-123077974D01*
X113771620Y-123288877D01*
X113762666Y-123288839D01*
X113756361Y-123282480D01*
X113755722Y-123280374D01*
X113699469Y-123002318D01*
X113699469Y-122997680D01*
X113755722Y-122719628D01*
X113760721Y-122712201D01*
X113769509Y-122710482D01*
X113771617Y-122711121D01*
G37*
G04 #@! TD.AperFunction*
G04 #@! TA.AperFunction,Conductor*
G36*
X117937330Y-113745513D02*
G01*
X117794236Y-114158527D01*
X117499293Y-114100707D01*
X117250559Y-113933329D01*
X117654487Y-113462670D01*
X117937330Y-113745513D01*
G37*
G04 #@! TD.AperFunction*
G04 #@! TA.AperFunction,Conductor*
G36*
X126795755Y-94278070D02*
G01*
X126802336Y-94284143D01*
X126802795Y-94285293D01*
X126892171Y-94548817D01*
X126891583Y-94557753D01*
X126884849Y-94563655D01*
X126884746Y-94563689D01*
X126333631Y-94744949D01*
X126324702Y-94744279D01*
X126318862Y-94737490D01*
X126318276Y-94733835D01*
X126318276Y-94552495D01*
X126319293Y-94547723D01*
X126436525Y-94285293D01*
X126485540Y-94175569D01*
X126492043Y-94169415D01*
X126500261Y-94169362D01*
X126795755Y-94278070D01*
G37*
G04 #@! TD.AperFunction*
G04 #@! TA.AperFunction,Conductor*
G36*
X116321282Y-119510389D02*
G01*
X116836525Y-119697204D01*
X116843134Y-119703244D01*
X116844236Y-119708202D01*
X116844236Y-119891797D01*
X116840809Y-119900070D01*
X116836524Y-119902796D01*
X116321290Y-120089608D01*
X116312344Y-120089207D01*
X116306303Y-120082597D01*
X116305837Y-120080939D01*
X116249469Y-119802318D01*
X116249469Y-119797680D01*
X116305835Y-119519067D01*
X116310834Y-119511641D01*
X116319622Y-119509922D01*
X116321282Y-119510389D01*
G37*
G04 #@! TD.AperFunction*
G04 #@! TA.AperFunction,Conductor*
G36*
X117724083Y-101263427D02*
G01*
X117727177Y-101268928D01*
X117812614Y-101619336D01*
X117811244Y-101628186D01*
X117808740Y-101631094D01*
X117551437Y-101845632D01*
X117542888Y-101848298D01*
X117537846Y-101846631D01*
X117271573Y-101684014D01*
X117266298Y-101676778D01*
X117266089Y-101672374D01*
X117271987Y-101631094D01*
X117323565Y-101270045D01*
X117328127Y-101262340D01*
X117335147Y-101260000D01*
X117715810Y-101260000D01*
X117724083Y-101263427D01*
G37*
G04 #@! TD.AperFunction*
G04 #@! TA.AperFunction,Conductor*
G36*
X97910299Y-91484202D02*
G01*
X97911206Y-91486393D01*
X98198936Y-92446451D01*
X98198829Y-92453510D01*
X98102667Y-92742000D01*
X98096799Y-92748765D01*
X98091567Y-92750000D01*
X97708433Y-92750000D01*
X97700160Y-92746573D01*
X97697333Y-92742000D01*
X97602246Y-92456739D01*
X97601700Y-92454153D01*
X97601206Y-92448964D01*
X97601645Y-92444510D01*
X97888794Y-91486390D01*
X97894449Y-91479452D01*
X97903358Y-91478545D01*
X97910299Y-91484202D01*
G37*
G04 #@! TD.AperFunction*
G04 #@! TA.AperFunction,Conductor*
G36*
X112260362Y-118564986D02*
G01*
X112261872Y-118565835D01*
X112498734Y-118722984D01*
X112502015Y-118726265D01*
X112659164Y-118963127D01*
X112660883Y-118971915D01*
X112655883Y-118979344D01*
X112654373Y-118980193D01*
X112157953Y-119212422D01*
X112149007Y-119212823D01*
X112144722Y-119210097D01*
X112014902Y-119080277D01*
X112011475Y-119072004D01*
X112012575Y-119067051D01*
X112244806Y-118570625D01*
X112251416Y-118564585D01*
X112260362Y-118564986D01*
G37*
G04 #@! TD.AperFunction*
G04 #@! TA.AperFunction,Conductor*
G36*
X104898452Y-100409191D02*
G01*
X104901702Y-100415437D01*
X104992259Y-100930239D01*
X104990317Y-100938981D01*
X104983056Y-100943734D01*
X104702320Y-101000530D01*
X104697680Y-101000530D01*
X104416943Y-100943734D01*
X104409514Y-100938734D01*
X104407740Y-100930239D01*
X104498298Y-100415437D01*
X104503106Y-100407883D01*
X104509821Y-100405764D01*
X104890179Y-100405764D01*
X104898452Y-100409191D01*
G37*
G04 #@! TD.AperFunction*
G04 #@! TA.AperFunction,Conductor*
G36*
X112498452Y-92159191D02*
G01*
X112501702Y-92165437D01*
X112592259Y-92680239D01*
X112590317Y-92688981D01*
X112583056Y-92693734D01*
X112302320Y-92750530D01*
X112297680Y-92750530D01*
X112016943Y-92693734D01*
X112009514Y-92688734D01*
X112007740Y-92680239D01*
X112098298Y-92165437D01*
X112103106Y-92157883D01*
X112109821Y-92155764D01*
X112490179Y-92155764D01*
X112498452Y-92159191D01*
G37*
G04 #@! TD.AperFunction*
G04 #@! TA.AperFunction,Conductor*
G36*
X106072708Y-101632332D02*
G01*
X106167667Y-101727291D01*
X106171094Y-101735564D01*
X106170184Y-101740087D01*
X105954910Y-102253623D01*
X105948551Y-102259928D01*
X105939597Y-102259890D01*
X105937652Y-102258849D01*
X105701265Y-102102015D01*
X105697984Y-102098734D01*
X105541150Y-101862347D01*
X105539431Y-101853559D01*
X105544431Y-101846130D01*
X105546370Y-101845092D01*
X106059912Y-101629814D01*
X106068866Y-101629777D01*
X106072708Y-101632332D01*
G37*
G04 #@! TD.AperFunction*
G04 #@! TA.AperFunction,Conductor*
G36*
X108802085Y-91152917D02*
G01*
X108805112Y-91155095D01*
X109092685Y-91441713D01*
X109096126Y-91449981D01*
X109092713Y-91458259D01*
X109092685Y-91458287D01*
X108805112Y-91744904D01*
X108796834Y-91748317D01*
X108793153Y-91747717D01*
X108508000Y-91652666D01*
X108501235Y-91646798D01*
X108500000Y-91641566D01*
X108500000Y-91258433D01*
X108503427Y-91250160D01*
X108507998Y-91247333D01*
X108793153Y-91152282D01*
X108802085Y-91152917D01*
G37*
G04 #@! TD.AperFunction*
G04 #@! TA.AperFunction,Conductor*
G36*
X105937655Y-120535792D02*
G01*
X105943696Y-120542402D01*
X105944165Y-120544070D01*
X106000530Y-120822680D01*
X106000530Y-120827320D01*
X105944165Y-121105929D01*
X105939165Y-121113358D01*
X105930377Y-121115077D01*
X105928709Y-121114608D01*
X105413476Y-120927796D01*
X105406866Y-120921755D01*
X105405764Y-120916797D01*
X105405764Y-120733202D01*
X105409191Y-120724929D01*
X105413473Y-120722204D01*
X105928711Y-120535391D01*
X105937655Y-120535792D01*
G37*
G04 #@! TD.AperFunction*
G04 #@! TA.AperFunction,Conductor*
G36*
X125221282Y-94360389D02*
G01*
X125736525Y-94547204D01*
X125743134Y-94553244D01*
X125744236Y-94558202D01*
X125744236Y-94741797D01*
X125740809Y-94750070D01*
X125736524Y-94752796D01*
X125221290Y-94939608D01*
X125212344Y-94939207D01*
X125206303Y-94932597D01*
X125205837Y-94930939D01*
X125149469Y-94652318D01*
X125149469Y-94647680D01*
X125205835Y-94369067D01*
X125210834Y-94361641D01*
X125219622Y-94359922D01*
X125221282Y-94360389D01*
G37*
G04 #@! TD.AperFunction*
G04 #@! TA.AperFunction,Conductor*
G36*
X111510299Y-91484202D02*
G01*
X111511206Y-91486393D01*
X111798936Y-92446452D01*
X111798829Y-92453511D01*
X111702667Y-92742000D01*
X111696799Y-92748765D01*
X111691567Y-92750000D01*
X111308433Y-92750000D01*
X111300160Y-92746573D01*
X111297333Y-92742000D01*
X111205454Y-92466362D01*
X111204860Y-92463003D01*
X111204851Y-92462712D01*
X111205000Y-92455508D01*
X111205000Y-92450045D01*
X111204155Y-92438468D01*
X111204148Y-92438222D01*
X111204264Y-92437917D01*
X111204635Y-92434533D01*
X111488794Y-91486390D01*
X111494449Y-91479452D01*
X111503358Y-91478545D01*
X111510299Y-91484202D01*
G37*
G04 #@! TD.AperFunction*
G04 #@! TA.AperFunction,Conductor*
G36*
X116307645Y-91493060D02*
G01*
X116308847Y-91496466D01*
X116485538Y-92444433D01*
X116483685Y-92453194D01*
X116482855Y-92454266D01*
X116228497Y-92745989D01*
X116220477Y-92749973D01*
X116219678Y-92750000D01*
X116084135Y-92750000D01*
X116075862Y-92746573D01*
X116072784Y-92741138D01*
X116000849Y-92453396D01*
X116000500Y-92450558D01*
X116000500Y-92450045D01*
X116000993Y-92446686D01*
X116285774Y-91496466D01*
X116286138Y-91495249D01*
X116291795Y-91488310D01*
X116300704Y-91487403D01*
X116307645Y-91493060D01*
G37*
G04 #@! TD.AperFunction*
G04 #@! TA.AperFunction,Conductor*
G36*
X96310571Y-91485260D02*
G01*
X96311578Y-91487632D01*
X96598541Y-92445133D01*
X96597634Y-92454042D01*
X96597440Y-92454387D01*
X96428386Y-92744195D01*
X96421258Y-92749615D01*
X96418280Y-92750000D01*
X96231162Y-92750000D01*
X96222889Y-92746573D01*
X96221514Y-92744919D01*
X96221017Y-92744195D01*
X96022272Y-92454509D01*
X96020419Y-92445750D01*
X96020651Y-92444750D01*
X96289106Y-91487830D01*
X96294640Y-91480791D01*
X96303531Y-91479726D01*
X96310571Y-91485260D01*
G37*
G04 #@! TD.AperFunction*
M02*
