G04 #@! TF.GenerationSoftware,KiCad,Pcbnew,9.0.7-9.0.7~ubuntu24.04.1*
G04 #@! TF.CreationDate,2026-02-13T16:24:26-05:00*
G04 #@! TF.ProjectId,receiver7RP2350V4,72656365-6976-4657-9237-525032333530,rev?*
G04 #@! TF.SameCoordinates,Original*
G04 #@! TF.FileFunction,Legend,Bot*
G04 #@! TF.FilePolarity,Positive*
%FSLAX46Y46*%
G04 Gerber Fmt 4.6, Leading zero omitted, Abs format (unit mm)*
G04 Created by KiCad (PCBNEW 9.0.7-9.0.7~ubuntu24.04.1) date 2026-02-13 16:24:26*
%MOMM*%
%LPD*%
G01*
G04 APERTURE LIST*
G04 Aperture macros list*
%AMRoundRect*
0 Rectangle with rounded corners*
0 $1 Rounding radius*
0 $2 $3 $4 $5 $6 $7 $8 $9 X,Y pos of 4 corners*
0 Add a 4 corners polygon primitive as box body*
4,1,4,$2,$3,$4,$5,$6,$7,$8,$9,$2,$3,0*
0 Add four circle primitives for the rounded corners*
1,1,$1+$1,$2,$3*
1,1,$1+$1,$4,$5*
1,1,$1+$1,$6,$7*
1,1,$1+$1,$8,$9*
0 Add four rect primitives between the rounded corners*
20,1,$1+$1,$2,$3,$4,$5,0*
20,1,$1+$1,$4,$5,$6,$7,0*
20,1,$1+$1,$6,$7,$8,$9,0*
20,1,$1+$1,$8,$9,$2,$3,0*%
G04 Aperture macros list end*
%ADD10C,0.150000*%
%ADD11C,0.120000*%
%ADD12C,0.200000*%
%ADD13C,0.100000*%
%ADD14C,2.500000*%
%ADD15C,0.650000*%
%ADD16O,1.204000X2.304000*%
%ADD17O,1.204000X2.004000*%
%ADD18C,0.800000*%
%ADD19C,5.400000*%
%ADD20C,4.380000*%
%ADD21RoundRect,0.140000X-0.140000X-0.170000X0.140000X-0.170000X0.140000X0.170000X-0.140000X0.170000X0*%
%ADD22RoundRect,0.140000X0.170000X-0.140000X0.170000X0.140000X-0.170000X0.140000X-0.170000X-0.140000X0*%
%ADD23RoundRect,0.140000X0.140000X0.170000X-0.140000X0.170000X-0.140000X-0.170000X0.140000X-0.170000X0*%
%ADD24C,1.600000*%
%ADD25C,1.100000*%
%ADD26R,0.600000X2.000000*%
%ADD27R,2.300000X3.200000*%
G04 APERTURE END LIST*
D10*
X96800000Y-143300000D02*
G75*
G02*
X92000000Y-143300000I-2400000J0D01*
G01*
X92000000Y-143300000D02*
G75*
G02*
X96800000Y-143300000I2400000J0D01*
G01*
X121000000Y-143400000D02*
G75*
G02*
X116200000Y-143400000I-2400000J0D01*
G01*
X116200000Y-143400000D02*
G75*
G02*
X121000000Y-143400000I2400000J0D01*
G01*
D11*
X95392164Y-101640000D02*
X95607836Y-101640000D01*
X95392164Y-102360000D02*
X95607836Y-102360000D01*
X126440000Y-93907836D02*
X126440000Y-93692164D01*
X127160000Y-93907836D02*
X127160000Y-93692164D01*
X114402164Y-88520000D02*
X114617836Y-88520000D01*
X114402164Y-89240000D02*
X114617836Y-89240000D01*
X107317164Y-101490000D02*
X107532836Y-101490000D01*
X107317164Y-102210000D02*
X107532836Y-102210000D01*
X118132836Y-101490000D02*
X117917164Y-101490000D01*
X118132836Y-102210000D02*
X117917164Y-102210000D01*
D12*
X92300000Y-93950000D02*
X92300000Y-100550000D01*
X92300000Y-100550000D02*
X94300000Y-100550000D01*
X93300000Y-90550000D02*
X94100000Y-90550000D01*
D13*
X94700000Y-89850000D02*
X94700000Y-89850000D01*
X94700000Y-89950000D02*
X94700000Y-89950000D01*
D12*
X100900000Y-90550000D02*
X103700000Y-90550000D01*
X101300000Y-100550000D02*
X104100000Y-100550000D01*
X118500000Y-90550000D02*
X119700000Y-90550000D01*
X120700000Y-93950000D02*
X120700000Y-100550000D01*
X120700000Y-100550000D02*
X118900000Y-100550000D01*
D13*
X94700000Y-89850000D02*
G75*
G02*
X94700000Y-89950000I0J-50000D01*
G01*
X94700000Y-89950000D02*
G75*
G02*
X94700000Y-89850000I0J50000D01*
G01*
D11*
X112777836Y-88530000D02*
X112562164Y-88530000D01*
X112777836Y-89250000D02*
X112562164Y-89250000D01*
%LPC*%
D14*
X130775000Y-94075000D03*
D15*
X127890000Y-87330000D03*
X122110000Y-87330000D03*
D16*
X129320000Y-87830000D03*
X120680000Y-87830000D03*
D17*
X129320000Y-83650000D03*
X120680000Y-83650000D03*
D18*
X92375000Y-153600000D03*
X92968109Y-152168109D03*
X92968109Y-155031891D03*
X94400000Y-151575000D03*
D19*
X94400000Y-153600000D03*
D18*
X94400000Y-155625000D03*
X95831891Y-152168109D03*
X95831891Y-155031891D03*
X96425000Y-153600000D03*
D15*
X108390000Y-87330000D03*
X102610000Y-87330000D03*
D16*
X109820000Y-87830000D03*
X101180000Y-87830000D03*
D17*
X109820000Y-83650000D03*
X101180000Y-83650000D03*
D18*
X92375000Y-85600000D03*
X92968109Y-84168109D03*
X92968109Y-87031891D03*
X94400000Y-83575000D03*
D19*
X94400000Y-85600000D03*
D18*
X94400000Y-87625000D03*
X95831891Y-84168109D03*
X95831891Y-87031891D03*
X96425000Y-85600000D03*
X114675000Y-85600000D03*
X115268109Y-84168109D03*
X115268109Y-87031891D03*
X116700000Y-83575000D03*
D19*
X116700000Y-85600000D03*
D18*
X116700000Y-87625000D03*
X118131891Y-84168109D03*
X118131891Y-87031891D03*
X118725000Y-85600000D03*
X116575000Y-153600000D03*
X117168109Y-152168109D03*
X117168109Y-155031891D03*
X118600000Y-151575000D03*
D19*
X118600000Y-153600000D03*
D18*
X118600000Y-155625000D03*
X120031891Y-152168109D03*
X120031891Y-155031891D03*
X120625000Y-153600000D03*
D20*
X94400000Y-143300000D03*
X118600000Y-143400000D03*
D21*
X95020000Y-102000000D03*
X95980000Y-102000000D03*
D22*
X126800000Y-94280000D03*
X126800000Y-93320000D03*
D21*
X114030000Y-88880000D03*
X114990000Y-88880000D03*
X106945000Y-101850000D03*
X107905000Y-101850000D03*
D23*
X118505000Y-101850000D03*
X117545000Y-101850000D03*
D24*
X94000000Y-95550000D03*
D25*
X119000000Y-95550000D03*
D26*
X94700000Y-91450000D03*
X95100000Y-99650000D03*
X95500000Y-91450000D03*
X95900000Y-99650000D03*
X96300000Y-91450000D03*
X96700000Y-99650000D03*
X97100000Y-91450000D03*
X97500000Y-99650000D03*
X97900000Y-91450000D03*
X98300000Y-99650000D03*
X98700000Y-91450000D03*
X99100000Y-99650000D03*
X99500000Y-91450000D03*
X99900000Y-99650000D03*
X100300000Y-91450000D03*
X100700000Y-99650000D03*
X104300000Y-91450000D03*
X104700000Y-99650000D03*
X105100000Y-91450000D03*
X105500000Y-99650000D03*
X105900000Y-91450000D03*
X106300000Y-99650000D03*
X106700000Y-91450000D03*
X107100000Y-99650000D03*
X107500000Y-91450000D03*
X107900000Y-99650000D03*
X108300000Y-91450000D03*
X108700000Y-99650000D03*
X109100000Y-91450000D03*
X109500000Y-99650000D03*
X109900000Y-91450000D03*
X110300000Y-99650000D03*
X110700000Y-91450000D03*
X111100000Y-99650000D03*
X111500000Y-91450000D03*
X111900000Y-99650000D03*
X112300000Y-91450000D03*
X112700000Y-99650000D03*
X113100000Y-91450000D03*
X113500000Y-99650000D03*
X113900000Y-91450000D03*
X114300000Y-99650000D03*
X114700000Y-91450000D03*
X115100000Y-99650000D03*
X115500000Y-91450000D03*
X115900000Y-99650000D03*
X116300000Y-91450000D03*
X116700000Y-99650000D03*
X117100000Y-91450000D03*
X117500000Y-99650000D03*
X117900000Y-91450000D03*
X118300000Y-99650000D03*
D27*
X91850000Y-92050000D03*
X121150000Y-92050000D03*
D23*
X113150000Y-88890000D03*
X112190000Y-88890000D03*
%LPD*%
M02*
