M48
; DRILL file {KiCad 9.0.4-9.0.4-0~ubuntu22.04.1} date 2025-09-17T13:23:31-0400
; FORMAT={-:-/ absolute / metric / decimal}
; #@! TF.CreationDate,2025-09-17T13:23:31-04:00
; #@! TF.GenerationSoftware,Kicad,Pcbnew,9.0.4-9.0.4-0~ubuntu22.04.1
; #@! TF.FileFunction,Plated,1,4,PTH
FMAT,2
METRIC
; #@! TA.AperFunction,Plated,PTH,ViaDrill
T1C0.255
; #@! TA.AperFunction,Plated,PTH,ComponentDrill
T2C0.500
; #@! TA.AperFunction,Plated,PTH,ComponentDrill
T3C0.600
; #@! TA.AperFunction,Plated,PTH,ComponentDrill
T4C2.500
; #@! TA.AperFunction,Plated,PTH,ComponentDrill
T5C2.700
%
G90
G05
T1
X88.8Y-88.4
X88.8Y-93.6
X88.8Y-98.8
X88.8Y-103.8
X88.8Y-108.8
X88.8Y-113.8
X88.8Y-118.8
X88.8Y-123.8
X89.0Y-139.9
X89.0Y-145.1
X89.0Y-150.3
X90.75Y-97.0
X92.5Y-129.0
X92.5Y-134.7
X93.35Y-92.05
X95.25Y-119.0
X95.5Y-107.2
X95.5Y-109.4
X95.7Y-110.9
X95.8Y-105.7
X95.955Y-101.1
X96.1Y-112.2
X97.2Y-110.9
X97.4Y-105.7
X97.6Y-94.7
X97.8Y-96.4
X97.9Y-92.75
X98.125Y-116.725
X98.5Y-102.225
X98.8Y-105.7
X98.8Y-110.9
X99.0Y-139.25
X99.0Y-147.1
X99.5Y-88.0
X99.5Y-134.7
X99.5Y-155.5
X99.525Y-151.375
X99.6Y-122.6
X100.0Y-83.321
X100.125Y-95.475
X100.2Y-105.8
X100.25Y-129.5
X100.275Y-93.375
X100.3Y-110.7
X100.8Y-91.5
X101.1Y-120.4
X101.6Y-114.7
X101.7Y-105.8
X101.8Y-109.925
X102.0Y-94.0
X102.2Y-117.1
X102.225Y-111.0
X102.3Y-89.4
X102.6Y-106.85
X103.0Y-119.275
X103.0Y-158.0
X104.075Y-119.9
X104.1Y-93.4
X104.7Y-101.0
X105.0Y-113.1
X105.1Y-93.4
X105.2Y-83.321
X105.25Y-119.5
X105.7Y-102.1
X105.9Y-90.0
X106.0Y-92.8
X106.0Y-104.3
X106.225Y-120.275
X106.5Y-122.0
X106.5Y-134.75
X106.5Y-139.9
X106.7Y-95.4
X106.95Y-110.125
X107.0Y-151.25
X107.4Y-119.9
X107.5Y-129.0
X107.6Y-103.1
X107.675Y-98.2
X107.675Y-101.068
X107.8Y-93.45
X107.8Y-107.8
X107.8Y-109.1
X108.0Y-95.0
X108.3Y-110.3
X108.7Y-89.35
X108.925Y-92.875
X108.95Y-122.35
X109.0Y-144.876
X109.05Y-109.1
X109.05Y-107.797
X109.1Y-90.0
X109.35Y-117.025
X109.45Y-111.2
X109.55Y-121.15
X109.9Y-114.8
X109.95Y-93.35
X109.975Y-95.475
X110.1Y-109.1
X110.2Y-107.0
X110.3Y-110.3
X110.35Y-107.9
X110.4Y-102.8
X110.5Y-113.8
X110.6Y-158.3
X110.8Y-116.5
X110.975Y-95.95
X111.0Y-119.65
X111.1Y-98.35
X111.1Y-101.8
X111.15Y-109.45
X111.225Y-121.8
X111.5Y-87.9
X111.5Y-92.75
X111.5Y-116.0
X112.15Y-120.55
X112.25Y-83.321
X112.3Y-89.85
X112.3Y-92.75
X113.1Y-113.25
X113.5Y-98.35
X113.5Y-101.0
X113.5Y-129.5
X113.5Y-133.5
X113.5Y-145.1
X113.5Y-150.3
X113.5Y-155.5
X114.125Y-111.75
X114.25Y-106.8
X114.25Y-138.25
X114.73Y-92.8
X114.75Y-89.9
X114.875Y-109.45
X115.0Y-104.125
X115.2Y-105.55
X115.2Y-116.85
X115.2Y-117.8
X115.35Y-109.05
X115.56Y-96.25
X115.7Y-115.95
X116.35Y-116.85
X116.35Y-117.55
X116.475Y-108.725
X116.55Y-96.75
X117.1Y-113.5
X117.2Y-93.35
X117.2Y-94.5
X117.5Y-114.1
X117.525Y-101.3
X117.9Y-113.5
X118.75Y-110.5
X118.75Y-111.25
X118.825Y-105.225
X119.0Y-116.2
X119.15Y-92.65
X119.3Y-115.6
X119.5Y-124.5
X119.6Y-94.4
X119.6Y-116.2
X119.9Y-114.5
X119.95Y-97.3
X121.15Y-93.95
X121.525Y-98.025
X121.55Y-110.6
X121.8Y-89.325
X122.0Y-115.6
X122.175Y-98.025
X122.3Y-111.4
X122.4Y-109.3
X123.0Y-129.5
X123.0Y-134.7
X123.0Y-139.9
X123.0Y-145.1
X123.0Y-150.3
X123.2Y-109.3
X123.4Y-115.5
X123.45Y-94.2
X123.5Y-110.6
X123.9Y-92.85
X124.0Y-109.3
X124.3Y-110.2
X124.65Y-86.7
X125.1Y-84.35
X125.1Y-85.75
X125.1Y-110.2
X125.15Y-94.65
X125.15Y-99.05
X125.25Y-105.05
X125.3Y-114.1
X125.3Y-114.9
X125.3Y-115.7
X125.3Y-116.5
X125.5Y-86.7
X125.9Y-102.6
X126.1Y-107.3
X126.2Y-113.2
X126.45Y-92.2
X126.75Y-109.9
X126.8Y-92.85
X126.9Y-113.2
X127.5Y-121.0
X127.5Y-126.5
X128.2Y-89.3
X128.475Y-96.25
X128.5Y-92.0
X129.6Y-107.65
X130.35Y-107.65
X131.1Y-100.6
X131.1Y-103.25
X131.3Y-107.7
X131.3Y-108.8
X132.5Y-87.0
X132.5Y-91.425
X132.5Y-97.4
X132.5Y-100.6
X132.5Y-103.3
X132.5Y-113.0
X132.5Y-118.2
X132.5Y-123.4
T2
X92.375Y-85.6
X92.375Y-153.6
X92.968Y-84.168
X92.968Y-87.032
X92.968Y-152.168
X92.968Y-155.032
X94.4Y-83.575
X94.4Y-87.625
X94.4Y-151.575
X94.4Y-155.625
X95.832Y-84.168
X95.832Y-87.032
X95.832Y-152.168
X95.832Y-155.032
X96.425Y-85.6
X96.425Y-153.6
X114.675Y-85.6
X115.268Y-84.168
X115.268Y-87.032
X116.575Y-153.6
X116.7Y-83.575
X116.7Y-87.625
X117.168Y-152.168
X117.168Y-155.032
X118.132Y-84.168
X118.132Y-87.032
X118.6Y-151.575
X118.6Y-155.625
X118.725Y-85.6
X120.032Y-152.168
X120.032Y-155.032
X120.625Y-153.6
T4
X94.4Y-144.2
X118.6Y-144.2
T5
X94.4Y-85.6
X94.4Y-153.6
X116.7Y-85.6
X118.6Y-153.6
T3
G00X101.18Y-84.05
M15
G01X101.18Y-83.25
M16
G05
G00X101.18Y-88.38
M15
G01X101.18Y-87.28
M16
G05
G00X109.82Y-84.05
M15
G01X109.82Y-83.25
M16
G05
G00X109.82Y-88.38
M15
G01X109.82Y-87.28
M16
G05
G00X120.68Y-84.05
M15
G01X120.68Y-83.25
M16
G05
G00X120.68Y-88.38
M15
G01X120.68Y-87.28
M16
G05
G00X129.32Y-84.05
M15
G01X129.32Y-83.25
M16
G05
G00X129.32Y-88.38
M15
G01X129.32Y-87.28
M16
G05
M30
