G04 #@! TF.GenerationSoftware,KiCad,Pcbnew,9.0.7-9.0.7~ubuntu24.04.1*
G04 #@! TF.CreationDate,2026-02-13T16:56:54-05:00*
G04 #@! TF.ProjectId,receiver7RP2350V4,72656365-6976-4657-9237-525032333530,rev?*
G04 #@! TF.SameCoordinates,Original*
G04 #@! TF.FileFunction,Legend,Top*
G04 #@! TF.FilePolarity,Positive*
%FSLAX46Y46*%
G04 Gerber Fmt 4.6, Leading zero omitted, Abs format (unit mm)*
G04 Created by KiCad (PCBNEW 9.0.7-9.0.7~ubuntu24.04.1) date 2026-02-13 16:56:54*
%MOMM*%
%LPD*%
G01*
G04 APERTURE LIST*
G04 Aperture macros list*
%AMRoundRect*
0 Rectangle with rounded corners*
0 $1 Rounding radius*
0 $2 $3 $4 $5 $6 $7 $8 $9 X,Y pos of 4 corners*
0 Add a 4 corners polygon primitive as box body*
4,1,4,$2,$3,$4,$5,$6,$7,$8,$9,$2,$3,0*
0 Add four circle primitives for the rounded corners*
1,1,$1+$1,$2,$3*
1,1,$1+$1,$4,$5*
1,1,$1+$1,$6,$7*
1,1,$1+$1,$8,$9*
0 Add four rect primitives between the rounded corners*
20,1,$1+$1,$2,$3,$4,$5,0*
20,1,$1+$1,$4,$5,$6,$7,0*
20,1,$1+$1,$6,$7,$8,$9,0*
20,1,$1+$1,$8,$9,$2,$3,0*%
%AMFreePoly0*
4,1,18,-0.437500,0.050000,-0.433694,0.069134,-0.422855,0.085355,-0.406634,0.096194,-0.387500,0.100000,0.387500,0.100000,0.437500,0.050000,0.437500,-0.050000,0.433694,-0.069134,0.422855,-0.085355,0.406634,-0.096194,0.387500,-0.100000,-0.387500,-0.100000,-0.406634,-0.096194,-0.422855,-0.085355,-0.433694,-0.069134,-0.437500,-0.050000,-0.437500,0.050000,-0.437500,0.050000,$1*%
%AMFreePoly1*
4,1,18,-0.437500,0.050000,-0.433694,0.069134,-0.422855,0.085355,-0.406634,0.096194,-0.387500,0.100000,0.387500,0.100000,0.406634,0.096194,0.422855,0.085355,0.433694,0.069134,0.437500,0.050000,0.437500,-0.050000,0.387500,-0.100000,-0.387500,-0.100000,-0.406634,-0.096194,-0.422855,-0.085355,-0.433694,-0.069134,-0.437500,-0.050000,-0.437500,0.050000,-0.437500,0.050000,$1*%
%AMFreePoly2*
4,1,18,-0.100000,0.387500,-0.050000,0.437500,0.050000,0.437500,0.069134,0.433694,0.085355,0.422855,0.096194,0.406634,0.100000,0.387500,0.100000,-0.387500,0.096194,-0.406634,0.085355,-0.422855,0.069134,-0.433694,0.050000,-0.437500,-0.050000,-0.437500,-0.069134,-0.433694,-0.085355,-0.422855,-0.096194,-0.406634,-0.100000,-0.387500,-0.100000,0.387500,-0.100000,0.387500,$1*%
%AMFreePoly3*
4,1,18,-0.100000,0.387500,-0.096194,0.406634,-0.085355,0.422855,-0.069134,0.433694,-0.050000,0.437500,0.050000,0.437500,0.100000,0.387500,0.100000,-0.387500,0.096194,-0.406634,0.085355,-0.422855,0.069134,-0.433694,0.050000,-0.437500,-0.050000,-0.437500,-0.069134,-0.433694,-0.085355,-0.422855,-0.096194,-0.406634,-0.100000,-0.387500,-0.100000,0.387500,-0.100000,0.387500,$1*%
%AMFreePoly4*
4,1,18,-0.437500,0.050000,-0.433694,0.069134,-0.422855,0.085355,-0.406634,0.096194,-0.387500,0.100000,0.387500,0.100000,0.406634,0.096194,0.422855,0.085355,0.433694,0.069134,0.437500,0.050000,0.437500,-0.050000,0.433694,-0.069134,0.422855,-0.085355,0.406634,-0.096194,0.387500,-0.100000,-0.387500,-0.100000,-0.437500,-0.050000,-0.437500,0.050000,-0.437500,0.050000,$1*%
%AMFreePoly5*
4,1,18,-0.437500,0.050000,-0.387500,0.100000,0.387500,0.100000,0.406634,0.096194,0.422855,0.085355,0.433694,0.069134,0.437500,0.050000,0.437500,-0.050000,0.433694,-0.069134,0.422855,-0.085355,0.406634,-0.096194,0.387500,-0.100000,-0.387500,-0.100000,-0.406634,-0.096194,-0.422855,-0.085355,-0.433694,-0.069134,-0.437500,-0.050000,-0.437500,0.050000,-0.437500,0.050000,$1*%
%AMFreePoly6*
4,1,18,-0.100000,0.387500,-0.096194,0.406634,-0.085355,0.422855,-0.069134,0.433694,-0.050000,0.437500,0.050000,0.437500,0.069134,0.433694,0.085355,0.422855,0.096194,0.406634,0.100000,0.387500,0.100000,-0.387500,0.050000,-0.437500,-0.050000,-0.437500,-0.069134,-0.433694,-0.085355,-0.422855,-0.096194,-0.406634,-0.100000,-0.387500,-0.100000,0.387500,-0.100000,0.387500,$1*%
%AMFreePoly7*
4,1,18,-0.100000,0.387500,-0.096194,0.406634,-0.085355,0.422855,-0.069134,0.433694,-0.050000,0.437500,0.050000,0.437500,0.069134,0.433694,0.085355,0.422855,0.096194,0.406634,0.100000,0.387500,0.100000,-0.387500,0.096194,-0.406634,0.085355,-0.422855,0.069134,-0.433694,0.050000,-0.437500,-0.050000,-0.437500,-0.100000,-0.387500,-0.100000,0.387500,-0.100000,0.387500,$1*%
G04 Aperture macros list end*
%ADD10C,0.200000*%
%ADD11C,0.120000*%
%ADD12C,0.100000*%
%ADD13C,0.152400*%
%ADD14C,0.250000*%
%ADD15C,0.127000*%
%ADD16C,0.191421*%
%ADD17C,0.010000*%
%ADD18C,2.500000*%
%ADD19C,0.650000*%
%ADD20O,1.204000X2.304000*%
%ADD21O,1.204000X2.004000*%
%ADD22R,0.990600X3.505200*%
%ADD23R,1.498600X3.200000*%
%ADD24RoundRect,0.140000X0.170000X-0.140000X0.170000X0.140000X-0.170000X0.140000X-0.170000X-0.140000X0*%
%ADD25C,0.800000*%
%ADD26C,5.400000*%
%ADD27RoundRect,0.135000X0.135000X0.185000X-0.135000X0.185000X-0.135000X-0.185000X0.135000X-0.185000X0*%
%ADD28RoundRect,0.140000X-0.170000X0.140000X-0.170000X-0.140000X0.170000X-0.140000X0.170000X0.140000X0*%
%ADD29RoundRect,0.140000X-0.140000X-0.170000X0.140000X-0.170000X0.140000X0.170000X-0.140000X0.170000X0*%
%ADD30RoundRect,0.135000X-0.185000X0.135000X-0.185000X-0.135000X0.185000X-0.135000X0.185000X0.135000X0*%
%ADD31RoundRect,0.250000X0.475000X-0.250000X0.475000X0.250000X-0.475000X0.250000X-0.475000X-0.250000X0*%
%ADD32R,0.530000X0.470000*%
%ADD33RoundRect,0.140000X0.140000X0.170000X-0.140000X0.170000X-0.140000X-0.170000X0.140000X-0.170000X0*%
%ADD34RoundRect,0.147500X-0.147500X-0.172500X0.147500X-0.172500X0.147500X0.172500X-0.147500X0.172500X0*%
%ADD35RoundRect,0.135000X-0.135000X-0.185000X0.135000X-0.185000X0.135000X0.185000X-0.135000X0.185000X0*%
%ADD36RoundRect,0.135000X0.185000X-0.135000X0.185000X0.135000X-0.185000X0.135000X-0.185000X-0.135000X0*%
%ADD37R,1.549400X0.660400*%
%ADD38R,1.905000X1.295400*%
%ADD39FreePoly0,270.000000*%
%ADD40RoundRect,0.050000X-0.050000X0.387500X-0.050000X-0.387500X0.050000X-0.387500X0.050000X0.387500X0*%
%ADD41FreePoly1,270.000000*%
%ADD42FreePoly2,270.000000*%
%ADD43RoundRect,0.050000X-0.387500X0.050000X-0.387500X-0.050000X0.387500X-0.050000X0.387500X0.050000X0*%
%ADD44FreePoly3,270.000000*%
%ADD45FreePoly4,270.000000*%
%ADD46FreePoly5,270.000000*%
%ADD47FreePoly6,270.000000*%
%ADD48FreePoly7,270.000000*%
%ADD49RoundRect,0.153000X-1.547000X-1.547000X1.547000X-1.547000X1.547000X1.547000X-1.547000X1.547000X0*%
%ADD50RoundRect,0.102000X-0.525000X-0.325000X0.525000X-0.325000X0.525000X0.325000X-0.525000X0.325000X0*%
%ADD51RoundRect,0.059250X-0.177750X0.437750X-0.177750X-0.437750X0.177750X-0.437750X0.177750X0.437750X0*%
%ADD52RoundRect,0.059250X-0.437750X0.177750X-0.437750X-0.177750X0.437750X-0.177750X0.437750X0.177750X0*%
%ADD53RoundRect,0.250000X-0.250000X-0.475000X0.250000X-0.475000X0.250000X0.475000X-0.250000X0.475000X0*%
%ADD54R,1.092200X1.193800*%
%ADD55RoundRect,0.099250X0.297750X-0.607750X0.297750X0.607750X-0.297750X0.607750X-0.297750X-0.607750X0*%
%ADD56R,1.700000X0.700000*%
%ADD57R,1.200000X1.400000*%
%ADD58RoundRect,0.100000X-0.600000X0.700000X-0.600000X-0.700000X0.600000X-0.700000X0.600000X0.700000X0*%
%ADD59RoundRect,0.102000X-0.141421X-0.601041X0.601041X0.141421X0.141421X0.601041X-0.601041X-0.141421X0*%
%ADD60RoundRect,0.077500X-0.077500X0.107500X-0.077500X-0.107500X0.077500X-0.107500X0.077500X0.107500X0*%
%ADD61RoundRect,0.062500X-0.062500X0.092500X-0.062500X-0.092500X0.062500X-0.092500X0.062500X0.092500X0*%
%ADD62RoundRect,0.087500X-0.087500X0.117500X-0.087500X-0.117500X0.087500X-0.117500X0.087500X0.117500X0*%
%ADD63R,1.300000X0.300000*%
%ADD64C,4.380000*%
%ADD65C,1.600000*%
%ADD66C,1.100000*%
G04 APERTURE END LIST*
D10*
X120530000Y-86300000D02*
X120530000Y-85050000D01*
X129470000Y-86300000D02*
X129470000Y-85050000D01*
X128350000Y-89650000D02*
G75*
G02*
X128150000Y-89650000I-100000J0D01*
G01*
X128150000Y-89650000D02*
G75*
G02*
X128350000Y-89650000I100000J0D01*
G01*
D11*
X107240000Y-104107836D02*
X107240000Y-103892164D01*
X107960000Y-104107836D02*
X107960000Y-103892164D01*
X124553641Y-105870000D02*
X124246359Y-105870000D01*
X124553641Y-106630000D02*
X124246359Y-106630000D01*
X118890000Y-117457836D02*
X118890000Y-117242164D01*
X119610000Y-117457836D02*
X119610000Y-117242164D01*
X108940000Y-114092164D02*
X108940000Y-114307836D01*
X109660000Y-114092164D02*
X109660000Y-114307836D01*
X113892164Y-116090000D02*
X114107836Y-116090000D01*
X113892164Y-116810000D02*
X114107836Y-116810000D01*
X103795000Y-113011359D02*
X103795000Y-113318641D01*
X104555000Y-113011359D02*
X104555000Y-113318641D01*
X128965000Y-109705952D02*
X128965000Y-109183448D01*
X130435000Y-109705952D02*
X130435000Y-109183448D01*
X121663641Y-113020000D02*
X121356359Y-113020000D01*
X121663641Y-113780000D02*
X121356359Y-113780000D01*
D10*
X101030000Y-86300000D02*
X101030000Y-85050000D01*
X109970000Y-86300000D02*
X109970000Y-85050000D01*
D11*
X123520000Y-91446359D02*
X123520000Y-91753641D01*
X124280000Y-91446359D02*
X124280000Y-91753641D01*
X103207836Y-107140000D02*
X102992164Y-107140000D01*
X103207836Y-107860000D02*
X102992164Y-107860000D01*
D12*
X102600000Y-114725000D02*
G75*
G02*
X102500000Y-114725000I-50000J0D01*
G01*
X102500000Y-114725000D02*
G75*
G02*
X102600000Y-114725000I50000J0D01*
G01*
D11*
X104320000Y-103356359D02*
X104320000Y-103663641D01*
X105080000Y-103356359D02*
X105080000Y-103663641D01*
X118092164Y-115040000D02*
X118307836Y-115040000D01*
X118092164Y-115760000D02*
X118307836Y-115760000D01*
X102921359Y-108520000D02*
X103228641Y-108520000D01*
X102921359Y-109280000D02*
X103228641Y-109280000D01*
X116287836Y-115040000D02*
X116072164Y-115040000D01*
X116287836Y-115760000D02*
X116072164Y-115760000D01*
X100535000Y-109272164D02*
X100535000Y-109487836D01*
X101255000Y-109272164D02*
X101255000Y-109487836D01*
X116696359Y-107445000D02*
X117003641Y-107445000D01*
X116696359Y-108205000D02*
X117003641Y-108205000D01*
X114245000Y-113203641D02*
X114245000Y-112896359D01*
X115005000Y-113203641D02*
X115005000Y-112896359D01*
D13*
X96921899Y-113555441D02*
X96921899Y-117194559D01*
X99084140Y-118499200D02*
X100071499Y-118499200D01*
X100071499Y-112250800D02*
X99084140Y-112250800D01*
X100071499Y-113212060D02*
X100071499Y-112250800D01*
X100071499Y-118499200D02*
X100071499Y-117537940D01*
D11*
X124390000Y-108722164D02*
X124390000Y-108937836D01*
X125110000Y-108722164D02*
X125110000Y-108937836D01*
X113290000Y-112917164D02*
X113290000Y-113132836D01*
X114010000Y-112917164D02*
X114010000Y-113132836D01*
X105440000Y-105490000D02*
X105890000Y-105490000D01*
X105440000Y-105940000D02*
X105440000Y-105490000D01*
X105440000Y-112260000D02*
X105440000Y-112710000D01*
X105440000Y-112710000D02*
X105890000Y-112710000D01*
X112660000Y-112260000D02*
X112660000Y-112710000D01*
X112660000Y-112710000D02*
X112210000Y-112710000D01*
D12*
X112900000Y-105310000D02*
G75*
G02*
X112800000Y-105310000I-50000J0D01*
G01*
X112800000Y-105310000D02*
G75*
G02*
X112900000Y-105310000I50000J0D01*
G01*
D11*
X116853641Y-105020000D02*
X116546359Y-105020000D01*
X116853641Y-105780000D02*
X116546359Y-105780000D01*
X124553641Y-106920000D02*
X124246359Y-106920000D01*
X124553641Y-107680000D02*
X124246359Y-107680000D01*
X112120000Y-117153641D02*
X112120000Y-116846359D01*
X112880000Y-117153641D02*
X112880000Y-116846359D01*
D14*
X105425000Y-116625000D02*
X105425000Y-117425000D01*
X106425000Y-115325000D02*
X108925000Y-115325000D01*
X106425000Y-118725000D02*
X108825000Y-118725000D01*
X109825000Y-116625000D02*
X109825000Y-117425000D01*
X106625000Y-115825000D02*
G75*
G02*
X106425000Y-115825000I-100000J0D01*
G01*
X106425000Y-115825000D02*
G75*
G02*
X106625000Y-115825000I100000J0D01*
G01*
D15*
X125695000Y-108854700D02*
X125695000Y-109449700D01*
X125695000Y-110954700D02*
X125695000Y-110359700D01*
X128105000Y-108854700D02*
X128105000Y-109449700D01*
X128105000Y-110954700D02*
X128105000Y-110359700D01*
D10*
X127750000Y-107944700D02*
G75*
G02*
X127550000Y-107944700I-100000J0D01*
G01*
X127550000Y-107944700D02*
G75*
G02*
X127750000Y-107944700I100000J0D01*
G01*
D11*
X114042164Y-105190000D02*
X114257836Y-105190000D01*
X114042164Y-105910000D02*
X114257836Y-105910000D01*
X111120000Y-86903641D02*
X111120000Y-86596359D01*
X111880000Y-86903641D02*
X111880000Y-86596359D01*
X110420000Y-117346359D02*
X110420000Y-117653641D01*
X111180000Y-117346359D02*
X111180000Y-117653641D01*
X99120000Y-86596359D02*
X99120000Y-86903641D01*
X99880000Y-86596359D02*
X99880000Y-86903641D01*
X111240000Y-102387836D02*
X111240000Y-102172164D01*
X111960000Y-102387836D02*
X111960000Y-102172164D01*
X126070000Y-91203641D02*
X126070000Y-90896359D01*
X126830000Y-91203641D02*
X126830000Y-90896359D01*
X128638748Y-105815000D02*
X129161252Y-105815000D01*
X128638748Y-107285000D02*
X129161252Y-107285000D01*
X104720000Y-95253641D02*
X104720000Y-94946359D01*
X105480000Y-95253641D02*
X105480000Y-94946359D01*
D13*
X127898600Y-100719700D02*
X131251400Y-100719700D01*
X131251400Y-102980300D02*
X127898600Y-102980300D01*
D15*
X123585000Y-96162500D02*
X123585000Y-97787500D01*
X126715000Y-96162500D02*
X126715000Y-97787500D01*
D10*
X124300000Y-99945000D02*
G75*
G02*
X124100000Y-99945000I-100000J0D01*
G01*
X124100000Y-99945000D02*
G75*
G02*
X124300000Y-99945000I100000J0D01*
G01*
D11*
X114153641Y-117120000D02*
X113846359Y-117120000D01*
X114153641Y-117880000D02*
X113846359Y-117880000D01*
X100540000Y-107627836D02*
X100540000Y-107412164D01*
X101260000Y-107627836D02*
X101260000Y-107412164D01*
X125570000Y-105396359D02*
X125570000Y-105703641D01*
X126330000Y-105396359D02*
X126330000Y-105703641D01*
D16*
X117595710Y-110200000D02*
G75*
G02*
X117404290Y-110200000I-95710J0D01*
G01*
X117404290Y-110200000D02*
G75*
G02*
X117595710Y-110200000I95710J0D01*
G01*
D11*
X102457836Y-109515000D02*
X102242164Y-109515000D01*
X102457836Y-110235000D02*
X102242164Y-110235000D01*
X110440000Y-115442164D02*
X110440000Y-115657836D01*
X111160000Y-115442164D02*
X111160000Y-115657836D01*
X120620000Y-111746359D02*
X120620000Y-112053641D01*
X121380000Y-111746359D02*
X121380000Y-112053641D01*
X95995000Y-106330000D02*
X95995000Y-110330000D01*
X99295000Y-106330000D02*
X95995000Y-106330000D01*
X116711359Y-106420000D02*
X117018641Y-106420000D01*
X116711359Y-107180000D02*
X117018641Y-107180000D01*
X127607836Y-112040000D02*
X127392164Y-112040000D01*
X127607836Y-112760000D02*
X127392164Y-112760000D01*
X113340000Y-107407836D02*
X113340000Y-107192164D01*
X114060000Y-107407836D02*
X114060000Y-107192164D01*
D10*
X118520101Y-101775736D02*
X120287868Y-100007969D01*
X118732233Y-103402082D02*
X119297918Y-103967767D01*
X120924264Y-104179899D02*
X122621320Y-102482843D01*
X121843503Y-100290812D02*
X122409188Y-100856497D01*
X119044365Y-102058579D02*
G75*
G02*
X118844365Y-102058579I-100000J0D01*
G01*
X118844365Y-102058579D02*
G75*
G02*
X119044365Y-102058579I100000J0D01*
G01*
D11*
X105215000Y-114092164D02*
X105215000Y-114307836D01*
X105935000Y-114092164D02*
X105935000Y-114307836D01*
X118780000Y-120843641D02*
X118780000Y-120536359D01*
X119540000Y-120843641D02*
X119540000Y-120536359D01*
D15*
X118569000Y-116185000D02*
X118570000Y-116555000D01*
D11*
X113892164Y-115040000D02*
X114107836Y-115040000D01*
X113892164Y-115760000D02*
X114107836Y-115760000D01*
%LPC*%
D17*
X122150000Y-89030000D02*
X121450000Y-89030000D01*
X121450000Y-87780000D01*
X122150000Y-87780000D01*
X122150000Y-89030000D01*
G36*
X122150000Y-89030000D02*
G01*
X121450000Y-89030000D01*
X121450000Y-87780000D01*
X122150000Y-87780000D01*
X122150000Y-89030000D01*
G37*
X122950000Y-89030000D02*
X122250000Y-89030000D01*
X122250000Y-87780000D01*
X122950000Y-87780000D01*
X122950000Y-89030000D01*
G36*
X122950000Y-89030000D02*
G01*
X122250000Y-89030000D01*
X122250000Y-87780000D01*
X122950000Y-87780000D01*
X122950000Y-89030000D01*
G37*
X123450000Y-89030000D02*
X123050000Y-89030000D01*
X123050000Y-87780000D01*
X123450000Y-87780000D01*
X123450000Y-89030000D01*
G36*
X123450000Y-89030000D02*
G01*
X123050000Y-89030000D01*
X123050000Y-87780000D01*
X123450000Y-87780000D01*
X123450000Y-89030000D01*
G37*
X123950000Y-89030000D02*
X123550000Y-89030000D01*
X123550000Y-87780000D01*
X123950000Y-87780000D01*
X123950000Y-89030000D01*
G36*
X123950000Y-89030000D02*
G01*
X123550000Y-89030000D01*
X123550000Y-87780000D01*
X123950000Y-87780000D01*
X123950000Y-89030000D01*
G37*
X124450000Y-89030000D02*
X124050000Y-89030000D01*
X124050000Y-87780000D01*
X124450000Y-87780000D01*
X124450000Y-89030000D01*
G36*
X124450000Y-89030000D02*
G01*
X124050000Y-89030000D01*
X124050000Y-87780000D01*
X124450000Y-87780000D01*
X124450000Y-89030000D01*
G37*
X124950000Y-89030000D02*
X124550000Y-89030000D01*
X124550000Y-87780000D01*
X124950000Y-87780000D01*
X124950000Y-89030000D01*
G36*
X124950000Y-89030000D02*
G01*
X124550000Y-89030000D01*
X124550000Y-87780000D01*
X124950000Y-87780000D01*
X124950000Y-89030000D01*
G37*
X125450000Y-89030000D02*
X125050000Y-89030000D01*
X125050000Y-87780000D01*
X125450000Y-87780000D01*
X125450000Y-89030000D01*
G36*
X125450000Y-89030000D02*
G01*
X125050000Y-89030000D01*
X125050000Y-87780000D01*
X125450000Y-87780000D01*
X125450000Y-89030000D01*
G37*
X125950000Y-89030000D02*
X125550000Y-89030000D01*
X125550000Y-87780000D01*
X125950000Y-87780000D01*
X125950000Y-89030000D01*
G36*
X125950000Y-89030000D02*
G01*
X125550000Y-89030000D01*
X125550000Y-87780000D01*
X125950000Y-87780000D01*
X125950000Y-89030000D01*
G37*
X126450000Y-89030000D02*
X126050000Y-89030000D01*
X126050000Y-87780000D01*
X126450000Y-87780000D01*
X126450000Y-89030000D01*
G36*
X126450000Y-89030000D02*
G01*
X126050000Y-89030000D01*
X126050000Y-87780000D01*
X126450000Y-87780000D01*
X126450000Y-89030000D01*
G37*
X126950000Y-89030000D02*
X126550000Y-89030000D01*
X126550000Y-87780000D01*
X126950000Y-87780000D01*
X126950000Y-89030000D01*
G36*
X126950000Y-89030000D02*
G01*
X126550000Y-89030000D01*
X126550000Y-87780000D01*
X126950000Y-87780000D01*
X126950000Y-89030000D01*
G37*
X127750000Y-89030000D02*
X127050000Y-89030000D01*
X127050000Y-87780000D01*
X127750000Y-87780000D01*
X127750000Y-89030000D01*
G36*
X127750000Y-89030000D02*
G01*
X127050000Y-89030000D01*
X127050000Y-87780000D01*
X127750000Y-87780000D01*
X127750000Y-89030000D01*
G37*
X128550000Y-89030000D02*
X127850000Y-89030000D01*
X127850000Y-87780000D01*
X128550000Y-87780000D01*
X128550000Y-89030000D01*
G36*
X128550000Y-89030000D02*
G01*
X127850000Y-89030000D01*
X127850000Y-87780000D01*
X128550000Y-87780000D01*
X128550000Y-89030000D01*
G37*
X102650000Y-89030000D02*
X101950000Y-89030000D01*
X101950000Y-87780000D01*
X102650000Y-87780000D01*
X102650000Y-89030000D01*
G36*
X102650000Y-89030000D02*
G01*
X101950000Y-89030000D01*
X101950000Y-87780000D01*
X102650000Y-87780000D01*
X102650000Y-89030000D01*
G37*
X103450000Y-89030000D02*
X102750000Y-89030000D01*
X102750000Y-87780000D01*
X103450000Y-87780000D01*
X103450000Y-89030000D01*
G36*
X103450000Y-89030000D02*
G01*
X102750000Y-89030000D01*
X102750000Y-87780000D01*
X103450000Y-87780000D01*
X103450000Y-89030000D01*
G37*
X103950000Y-89030000D02*
X103550000Y-89030000D01*
X103550000Y-87780000D01*
X103950000Y-87780000D01*
X103950000Y-89030000D01*
G36*
X103950000Y-89030000D02*
G01*
X103550000Y-89030000D01*
X103550000Y-87780000D01*
X103950000Y-87780000D01*
X103950000Y-89030000D01*
G37*
X104450000Y-89030000D02*
X104050000Y-89030000D01*
X104050000Y-87780000D01*
X104450000Y-87780000D01*
X104450000Y-89030000D01*
G36*
X104450000Y-89030000D02*
G01*
X104050000Y-89030000D01*
X104050000Y-87780000D01*
X104450000Y-87780000D01*
X104450000Y-89030000D01*
G37*
X104950000Y-89030000D02*
X104550000Y-89030000D01*
X104550000Y-87780000D01*
X104950000Y-87780000D01*
X104950000Y-89030000D01*
G36*
X104950000Y-89030000D02*
G01*
X104550000Y-89030000D01*
X104550000Y-87780000D01*
X104950000Y-87780000D01*
X104950000Y-89030000D01*
G37*
X105450000Y-89030000D02*
X105050000Y-89030000D01*
X105050000Y-87780000D01*
X105450000Y-87780000D01*
X105450000Y-89030000D01*
G36*
X105450000Y-89030000D02*
G01*
X105050000Y-89030000D01*
X105050000Y-87780000D01*
X105450000Y-87780000D01*
X105450000Y-89030000D01*
G37*
X105950000Y-89030000D02*
X105550000Y-89030000D01*
X105550000Y-87780000D01*
X105950000Y-87780000D01*
X105950000Y-89030000D01*
G36*
X105950000Y-89030000D02*
G01*
X105550000Y-89030000D01*
X105550000Y-87780000D01*
X105950000Y-87780000D01*
X105950000Y-89030000D01*
G37*
X106450000Y-89030000D02*
X106050000Y-89030000D01*
X106050000Y-87780000D01*
X106450000Y-87780000D01*
X106450000Y-89030000D01*
G36*
X106450000Y-89030000D02*
G01*
X106050000Y-89030000D01*
X106050000Y-87780000D01*
X106450000Y-87780000D01*
X106450000Y-89030000D01*
G37*
X106950000Y-89030000D02*
X106550000Y-89030000D01*
X106550000Y-87780000D01*
X106950000Y-87780000D01*
X106950000Y-89030000D01*
G36*
X106950000Y-89030000D02*
G01*
X106550000Y-89030000D01*
X106550000Y-87780000D01*
X106950000Y-87780000D01*
X106950000Y-89030000D01*
G37*
X107450000Y-89030000D02*
X107050000Y-89030000D01*
X107050000Y-87780000D01*
X107450000Y-87780000D01*
X107450000Y-89030000D01*
G36*
X107450000Y-89030000D02*
G01*
X107050000Y-89030000D01*
X107050000Y-87780000D01*
X107450000Y-87780000D01*
X107450000Y-89030000D01*
G37*
X108250000Y-89030000D02*
X107550000Y-89030000D01*
X107550000Y-87780000D01*
X108250000Y-87780000D01*
X108250000Y-89030000D01*
G36*
X108250000Y-89030000D02*
G01*
X107550000Y-89030000D01*
X107550000Y-87780000D01*
X108250000Y-87780000D01*
X108250000Y-89030000D01*
G37*
X109050000Y-89030000D02*
X108350000Y-89030000D01*
X108350000Y-87780000D01*
X109050000Y-87780000D01*
X109050000Y-89030000D01*
G36*
X109050000Y-89030000D02*
G01*
X108350000Y-89030000D01*
X108350000Y-87780000D01*
X109050000Y-87780000D01*
X109050000Y-89030000D01*
G37*
D18*
X130775000Y-94075000D03*
D19*
X127890000Y-87330000D03*
X122110000Y-87330000D03*
D20*
X129320000Y-87830000D03*
X120680000Y-87830000D03*
D21*
X129320000Y-83650000D03*
X120680000Y-83650000D03*
D22*
X90999999Y-115294700D03*
X93000001Y-115294700D03*
D23*
X88649999Y-121194700D03*
X95350001Y-121194700D03*
D24*
X107600000Y-104480000D03*
X107600000Y-103520000D03*
D25*
X92375000Y-153600000D03*
X92968109Y-152168109D03*
X92968109Y-155031891D03*
X94400000Y-151575000D03*
D26*
X94400000Y-153600000D03*
D25*
X94400000Y-155625000D03*
X95831891Y-152168109D03*
X95831891Y-155031891D03*
X96425000Y-153600000D03*
D27*
X124910000Y-106250000D03*
X123890000Y-106250000D03*
D24*
X119250000Y-117830000D03*
X119250000Y-116870000D03*
D28*
X109300000Y-113720000D03*
X109300000Y-114680000D03*
D29*
X113520000Y-116450000D03*
X114480000Y-116450000D03*
D30*
X104175000Y-112655000D03*
X104175000Y-113675000D03*
D31*
X129700000Y-110394700D03*
X129700000Y-108494700D03*
D32*
X113650000Y-110635000D03*
X113650000Y-111665000D03*
D27*
X122020000Y-113400000D03*
X121000000Y-113400000D03*
D19*
X108390000Y-87330000D03*
X102610000Y-87330000D03*
D20*
X109820000Y-87830000D03*
X101180000Y-87830000D03*
D21*
X109820000Y-83650000D03*
X101180000Y-83650000D03*
D30*
X123900000Y-91090000D03*
X123900000Y-92110000D03*
D33*
X103580000Y-107500000D03*
X102620000Y-107500000D03*
D25*
X92375000Y-85600000D03*
X92968109Y-84168109D03*
X92968109Y-87031891D03*
X94400000Y-83575000D03*
D26*
X94400000Y-85600000D03*
D25*
X94400000Y-87625000D03*
X95831891Y-84168109D03*
X95831891Y-87031891D03*
X96425000Y-85600000D03*
D34*
X103155000Y-114725000D03*
X104125000Y-114725000D03*
D30*
X104700000Y-103000000D03*
X104700000Y-104020000D03*
D29*
X117720000Y-115400000D03*
X118680000Y-115400000D03*
D35*
X102565000Y-108900000D03*
X103585000Y-108900000D03*
D33*
X116660000Y-115400000D03*
X115700000Y-115400000D03*
D28*
X100895000Y-108900000D03*
X100895000Y-109860000D03*
D35*
X116340000Y-107825000D03*
X117360000Y-107825000D03*
D36*
X114625000Y-113560000D03*
X114625000Y-112540000D03*
D37*
X100378900Y-116875000D03*
X100378900Y-115874999D03*
X100378900Y-114875001D03*
X100378900Y-113875000D03*
D38*
X97798900Y-118174999D03*
X97798900Y-112575001D03*
D28*
X124750000Y-108350000D03*
X124750000Y-109310000D03*
X113650000Y-112545000D03*
X113650000Y-113505000D03*
D39*
X111850000Y-105662500D03*
D40*
X111450000Y-105662500D03*
X111050000Y-105662500D03*
X110650000Y-105662500D03*
X110250000Y-105662500D03*
X109850000Y-105662500D03*
X109450000Y-105662500D03*
X109050000Y-105662500D03*
X108650000Y-105662500D03*
X108250000Y-105662500D03*
X107850000Y-105662500D03*
X107450000Y-105662500D03*
X107050000Y-105662500D03*
X106650000Y-105662500D03*
D41*
X106250000Y-105662500D03*
D42*
X105612500Y-106300000D03*
D43*
X105612500Y-106700000D03*
X105612500Y-107100000D03*
X105612500Y-107500000D03*
X105612500Y-107900000D03*
X105612500Y-108300000D03*
X105612500Y-108700000D03*
X105612500Y-109100000D03*
X105612500Y-109500000D03*
X105612500Y-109900000D03*
X105612500Y-110300000D03*
X105612500Y-110700000D03*
X105612500Y-111100000D03*
X105612500Y-111500000D03*
D44*
X105612500Y-111900000D03*
D45*
X106250000Y-112537500D03*
D40*
X106650000Y-112537500D03*
X107050000Y-112537500D03*
X107450000Y-112537500D03*
X107850000Y-112537500D03*
X108250000Y-112537500D03*
X108650000Y-112537500D03*
X109050000Y-112537500D03*
X109450000Y-112537500D03*
X109850000Y-112537500D03*
X110250000Y-112537500D03*
X110650000Y-112537500D03*
X111050000Y-112537500D03*
X111450000Y-112537500D03*
D46*
X111850000Y-112537500D03*
D47*
X112487500Y-111900000D03*
D43*
X112487500Y-111500000D03*
X112487500Y-111100000D03*
X112487500Y-110700000D03*
X112487500Y-110300000D03*
X112487500Y-109900000D03*
X112487500Y-109500000D03*
X112487500Y-109100000D03*
X112487500Y-108700000D03*
X112487500Y-108300000D03*
X112487500Y-107900000D03*
X112487500Y-107500000D03*
X112487500Y-107100000D03*
X112487500Y-106700000D03*
D48*
X112487500Y-106300000D03*
D49*
X109050000Y-109100000D03*
D27*
X117210000Y-105400000D03*
X116190000Y-105400000D03*
X124910000Y-107300000D03*
X123890000Y-107300000D03*
D36*
X112500000Y-117510000D03*
X112500000Y-116490000D03*
D50*
X105450000Y-115950000D03*
X109600000Y-115950000D03*
X105450000Y-118100000D03*
X109600000Y-118100000D03*
D51*
X127650000Y-108934700D03*
X127150000Y-108934700D03*
X126650000Y-108934700D03*
X126150000Y-108934700D03*
D52*
X125930000Y-109904700D03*
D51*
X126150000Y-110874700D03*
X126650000Y-110874700D03*
X127150000Y-110874700D03*
X127650000Y-110874700D03*
D52*
X127870000Y-109904700D03*
D29*
X113670000Y-105550000D03*
X114630000Y-105550000D03*
D36*
X111500000Y-87260000D03*
X111500000Y-86240000D03*
D30*
X110800000Y-116990000D03*
X110800000Y-118010000D03*
X99500000Y-86240000D03*
X99500000Y-87260000D03*
D32*
X114600000Y-110635000D03*
X114600000Y-111665000D03*
D24*
X111600000Y-102760000D03*
X111600000Y-101800000D03*
D36*
X126450000Y-91560000D03*
X126450000Y-90540000D03*
D53*
X127950000Y-106550000D03*
X129850000Y-106550000D03*
D36*
X105100000Y-95610000D03*
X105100000Y-94590000D03*
D54*
X131187900Y-101850000D03*
X127962100Y-101850000D03*
D55*
X124200000Y-98230000D03*
X125150000Y-98230000D03*
X126100000Y-98230000D03*
X126100000Y-95720000D03*
X125150000Y-95720000D03*
X124200000Y-95720000D03*
D27*
X114510000Y-117500000D03*
X113490000Y-117500000D03*
D24*
X100900000Y-108000000D03*
X100900000Y-107040000D03*
D30*
X125950000Y-105040000D03*
X125950000Y-106060000D03*
D56*
X116200000Y-110400000D03*
X116200000Y-111800000D03*
D33*
X102830000Y-109875000D03*
X101870000Y-109875000D03*
D28*
X110800000Y-115070000D03*
X110800000Y-116030000D03*
D30*
X121000000Y-111390000D03*
X121000000Y-112410000D03*
D57*
X96795000Y-107230000D03*
X96795000Y-109430000D03*
X98495000Y-109430000D03*
D58*
X98495000Y-107230000D03*
D35*
X116355000Y-106800000D03*
X117375000Y-106800000D03*
D33*
X127980000Y-112400000D03*
X127020000Y-112400000D03*
D25*
X114675000Y-85600000D03*
X115268109Y-84168109D03*
X115268109Y-87031891D03*
X116700000Y-83575000D03*
D26*
X116700000Y-85600000D03*
D25*
X116700000Y-87625000D03*
X118131891Y-84168109D03*
X118131891Y-87031891D03*
X118725000Y-85600000D03*
D24*
X113700000Y-107780000D03*
X113700000Y-106820000D03*
D22*
X126199999Y-115344700D03*
X128200001Y-115344700D03*
D23*
X123849999Y-121244700D03*
X130550001Y-121244700D03*
D59*
X118272614Y-102907107D03*
X121207107Y-99972614D03*
X119792893Y-104427386D03*
X122727386Y-101492893D03*
D28*
X105575000Y-113720000D03*
X105575000Y-114680000D03*
D36*
X119160000Y-121200000D03*
X119160000Y-120180000D03*
D25*
X116575000Y-153600000D03*
X117168109Y-152168109D03*
X117168109Y-155031891D03*
X118600000Y-151575000D03*
D26*
X118600000Y-153600000D03*
D25*
X118600000Y-155625000D03*
X120031891Y-152168109D03*
X120031891Y-155031891D03*
X120625000Y-153600000D03*
D60*
X118130000Y-116380000D03*
X117730000Y-116380000D03*
X117330000Y-116380000D03*
X116930000Y-116380000D03*
D61*
X116930000Y-117290000D03*
X117330000Y-117290000D03*
D62*
X117730000Y-117290000D03*
X118130000Y-117290000D03*
D63*
X117530000Y-116835000D03*
D29*
X113520000Y-115400000D03*
X114480000Y-115400000D03*
D64*
X94400000Y-143300000D03*
X118600000Y-143400000D03*
D65*
X94000000Y-95550000D03*
D66*
X119000000Y-95550000D03*
%LPD*%
M02*
