M48
; DRILL file {KiCad 9.0.4-9.0.4-0~ubuntu22.04.1} date 2025-09-03T15:31:25-0400
; FORMAT={-:-/ absolute / metric / decimal}
; #@! TF.CreationDate,2025-09-03T15:31:25-04:00
; #@! TF.GenerationSoftware,Kicad,Pcbnew,9.0.4-9.0.4-0~ubuntu22.04.1
; #@! TF.FileFunction,Plated,1,4,PTH
FMAT,2
METRIC
; #@! TA.AperFunction,Plated,PTH,ViaDrill
T1C0.255
; #@! TA.AperFunction,Plated,PTH,ComponentDrill
T2C0.500
; #@! TA.AperFunction,Plated,PTH,ComponentDrill
T3C0.600
; #@! TA.AperFunction,Plated,PTH,ComponentDrill
T4C2.500
; #@! TA.AperFunction,Plated,PTH,ComponentDrill
T5C2.700
%
G90
G05
T1
X126.55Y-37.75
X126.55Y-42.95
X126.55Y-48.151
X126.55Y-53.151
X126.55Y-58.15
X126.55Y-63.15
X126.55Y-68.15
X126.55Y-73.15
X126.75Y-89.251
X126.75Y-94.45
X126.75Y-99.65
X128.5Y-46.35
X130.25Y-78.35
X130.25Y-84.05
X131.1Y-41.401
X133.0Y-68.35
X133.25Y-56.55
X133.25Y-58.75
X133.45Y-60.25
X133.55Y-55.05
X133.705Y-50.45
X133.85Y-61.55
X134.95Y-60.25
X135.15Y-55.05
X135.35Y-44.05
X135.55Y-45.75
X135.65Y-42.1
X135.875Y-66.075
X136.25Y-51.575
X136.55Y-55.05
X136.55Y-60.25
X136.75Y-88.6
X136.75Y-96.45
X137.25Y-37.35
X137.25Y-84.05
X137.25Y-104.85
X137.275Y-100.725
X137.35Y-71.95
X137.75Y-32.672
X137.875Y-44.825
X137.95Y-55.151
X138.0Y-78.85
X138.025Y-42.725
X138.05Y-60.05
X138.55Y-40.85
X138.85Y-69.751
X139.35Y-64.05
X139.45Y-55.151
X139.55Y-59.275
X139.75Y-43.35
X139.95Y-66.45
X139.975Y-60.35
X140.05Y-38.75
X140.35Y-56.2
X140.75Y-68.626
X140.75Y-107.35
X141.825Y-69.251
X141.85Y-42.75
X142.45Y-50.35
X142.75Y-62.45
X142.85Y-42.75
X142.95Y-32.672
X143.0Y-68.85
X143.45Y-51.45
X143.65Y-39.35
X143.75Y-42.151
X143.75Y-53.651
X143.975Y-69.626
X144.25Y-71.35
X144.25Y-84.1
X144.25Y-89.251
X144.45Y-44.75
X144.7Y-59.475
X144.75Y-100.6
X145.15Y-69.251
X145.25Y-78.35
X145.35Y-52.45
X145.425Y-47.55
X145.425Y-50.418
X145.55Y-42.8
X145.55Y-57.151
X145.55Y-58.45
X145.75Y-44.35
X146.05Y-59.65
X146.45Y-38.7
X146.675Y-42.225
X146.7Y-71.7
X146.75Y-94.226
X146.8Y-58.45
X146.8Y-57.148
X146.85Y-39.35
X147.1Y-66.376
X147.2Y-60.55
X147.3Y-70.501
X147.65Y-64.15
X147.7Y-42.7
X147.725Y-44.825
X147.85Y-58.45
X147.95Y-56.35
X148.05Y-59.65
X148.1Y-57.25
X148.15Y-52.151
X148.25Y-63.15
X148.35Y-107.65
X148.55Y-65.85
X148.725Y-45.3
X148.75Y-69.001
X148.85Y-47.7
X148.85Y-51.151
X148.9Y-58.8
X148.975Y-71.15
X149.25Y-37.25
X149.25Y-42.1
X149.25Y-65.35
X149.9Y-69.9
X150.0Y-32.672
X150.05Y-39.2
X150.05Y-42.1
X150.85Y-62.6
X151.25Y-47.7
X151.25Y-50.35
X151.25Y-78.85
X151.25Y-82.85
X151.25Y-94.45
X151.25Y-99.65
X151.25Y-104.85
X151.875Y-61.1
X152.0Y-56.151
X152.0Y-87.6
X152.48Y-42.151
X152.5Y-39.25
X152.625Y-58.8
X152.75Y-53.475
X152.95Y-54.901
X152.95Y-66.2
X152.95Y-67.15
X153.1Y-58.4
X153.31Y-45.6
X153.45Y-65.3
X154.1Y-66.2
X154.1Y-66.9
X154.225Y-58.075
X154.3Y-46.1
X154.85Y-62.85
X154.95Y-42.7
X154.95Y-43.85
X155.25Y-63.45
X155.275Y-50.651
X155.65Y-62.85
X156.5Y-59.85
X156.5Y-60.6
X156.575Y-54.575
X156.75Y-65.55
X156.9Y-42.0
X157.05Y-64.95
X157.25Y-73.85
X157.35Y-43.75
X157.35Y-65.55
X157.65Y-63.85
X157.7Y-46.651
X158.9Y-43.3
X159.275Y-47.375
X159.3Y-59.95
X159.55Y-38.675
X159.75Y-64.95
X159.925Y-47.375
X160.05Y-60.75
X160.15Y-58.65
X160.75Y-78.85
X160.75Y-84.05
X160.75Y-89.251
X160.75Y-94.45
X160.75Y-99.65
X160.95Y-58.65
X161.15Y-64.85
X161.2Y-43.55
X161.25Y-59.95
X161.65Y-42.2
X161.75Y-58.65
X162.05Y-59.55
X162.4Y-36.05
X162.85Y-33.7
X162.85Y-35.1
X162.85Y-59.55
X162.9Y-44.0
X162.9Y-48.401
X163.0Y-54.401
X163.05Y-63.45
X163.05Y-64.251
X163.05Y-65.05
X163.05Y-65.85
X163.25Y-36.05
X163.65Y-51.95
X163.85Y-56.651
X163.95Y-62.55
X164.2Y-41.55
X164.5Y-59.25
X164.55Y-42.2
X164.65Y-62.55
X165.25Y-70.35
X165.25Y-75.85
X165.95Y-38.651
X166.225Y-45.6
X166.25Y-41.35
X167.35Y-57.0
X168.1Y-57.0
X168.85Y-49.95
X168.85Y-52.6
X169.05Y-57.05
X169.05Y-58.15
X170.25Y-36.35
X170.25Y-40.776
X170.25Y-46.75
X170.25Y-49.95
X170.25Y-52.651
X170.25Y-62.35
X170.25Y-67.55
X170.25Y-72.751
T2
X130.125Y-34.95
X130.125Y-102.95
X130.718Y-33.519
X130.718Y-36.382
X130.718Y-101.519
X130.718Y-104.382
X132.15Y-32.925
X132.15Y-36.975
X132.15Y-100.925
X132.15Y-104.975
X133.582Y-33.519
X133.582Y-36.382
X133.582Y-101.519
X133.582Y-104.382
X134.175Y-34.95
X134.175Y-102.95
X152.425Y-34.95
X153.018Y-33.519
X153.018Y-36.382
X154.325Y-102.95
X154.45Y-32.925
X154.45Y-36.975
X154.918Y-101.519
X154.918Y-104.382
X155.882Y-33.519
X155.882Y-36.382
X156.35Y-100.925
X156.35Y-104.975
X156.475Y-34.95
X157.782Y-101.519
X157.782Y-104.382
X158.375Y-102.95
T4
X132.15Y-93.55
X156.35Y-93.55
T5
X132.15Y-34.95
X132.15Y-102.95
X154.45Y-34.95
X156.35Y-102.95
T3
G00X138.93Y-33.401
M15
G01X138.93Y-32.6
M16
G05
G00X138.93Y-37.73
M15
G01X138.93Y-36.63
M16
G05
G00X147.57Y-33.401
M15
G01X147.57Y-32.6
M16
G05
G00X147.57Y-37.73
M15
G01X147.57Y-36.63
M16
G05
G00X158.43Y-33.401
M15
G01X158.43Y-32.6
M16
G05
G00X158.43Y-37.73
M15
G01X158.43Y-36.63
M16
G05
G00X167.07Y-33.401
M15
G01X167.07Y-32.6
M16
G05
G00X167.07Y-37.73
M15
G01X167.07Y-36.63
M16
G05
M30
