%TF.GenerationSoftware,KiCad,Pcbnew,9.0.4-9.0.4-0~ubuntu22.04.1*%
%TF.CreationDate,2025-09-03T15:31:36-04:00*%
%TF.ProjectId,receiver_panel_dualUSB,72656365-6976-4657-925f-70616e656c5f,rev?*%
%TF.SameCoordinates,Original*%
%TF.FileFunction,Copper,L3,Inr*%
%TF.FilePolarity,Positive*%
%FSLAX46Y46*%
G04 Gerber Fmt 4.6, Leading zero omitted, Abs format (unit mm)*
G04 Created by KiCad (PCBNEW 9.0.4-9.0.4-0~ubuntu22.04.1) date 2025-09-03 15:31:36*
%MOMM*%
%LPD*%
G01*
G04 APERTURE LIST*
%TA.AperFunction,ComponentPad*%
%ADD10C,0.800000*%
%TD*%
%TA.AperFunction,ComponentPad*%
%ADD11C,5.400000*%
%TD*%
%TA.AperFunction,ComponentPad*%
%ADD12O,1.000000X2.100000*%
%TD*%
%TA.AperFunction,ComponentPad*%
%ADD13O,1.000000X1.800000*%
%TD*%
%TA.AperFunction,ComponentPad*%
%ADD14C,4.080000*%
%TD*%
%TA.AperFunction,ViaPad*%
%ADD15C,0.600000*%
%TD*%
G04 APERTURE END LIST*
D10*
%TO.N,N/C*%
%TO.C,H2*%
X130125000Y-102950500D03*
X130718109Y-101518609D03*
X130718109Y-104382391D03*
X132150000Y-100925500D03*
D11*
X132150000Y-102950500D03*
D10*
X132150000Y-104975500D03*
X133581891Y-101518609D03*
X133581891Y-104382391D03*
X134175000Y-102950500D03*
%TD*%
%TO.N,N/C*%
%TO.C,H5*%
X152425000Y-34950500D03*
X153018109Y-33518609D03*
X153018109Y-36382391D03*
X154450000Y-32925500D03*
D11*
X154450000Y-34950500D03*
D10*
X154450000Y-36975500D03*
X155881891Y-33518609D03*
X155881891Y-36382391D03*
X156475000Y-34950500D03*
%TD*%
D12*
%TO.N,Board_0-GND*%
%TO.C,J5*%
X147570000Y-37180500D03*
X138930000Y-37180500D03*
D13*
X147570000Y-33000500D03*
X138930000Y-33000500D03*
%TD*%
D12*
%TO.N,Board_0-GND*%
%TO.C,J7*%
X167070000Y-37180500D03*
X158430000Y-37180500D03*
D13*
X167070000Y-33000500D03*
X158430000Y-33000500D03*
%TD*%
D10*
%TO.N,N/C*%
%TO.C,H3*%
X154325000Y-102950500D03*
X154918109Y-101518609D03*
X154918109Y-104382391D03*
X156350000Y-100925500D03*
D11*
X156350000Y-102950500D03*
D10*
X156350000Y-104975500D03*
X157781891Y-101518609D03*
X157781891Y-104382391D03*
X158375000Y-102950500D03*
%TD*%
%TO.N,N/C*%
%TO.C,H4*%
X130125000Y-34950500D03*
X130718109Y-33518609D03*
X130718109Y-36382391D03*
X132150000Y-32925500D03*
D11*
X132150000Y-34950500D03*
D10*
X132150000Y-36975500D03*
X133581891Y-33518609D03*
X133581891Y-36382391D03*
X134175000Y-34950500D03*
%TD*%
D14*
%TO.N,Board_0-GND*%
%TO.C,J3*%
X156350000Y-93550500D03*
%TD*%
%TO.N,Board_0-GND*%
%TO.C,J2*%
X132150000Y-93550500D03*
%TD*%
D15*
%TO.N,Board_0-+1V1*%
X147950000Y-56350500D03*
X148250000Y-63150500D03*
X139975000Y-60350500D03*
X148900000Y-58800500D03*
X152625000Y-58800500D03*
X147200000Y-60550500D03*
X144700000Y-59475500D03*
X148150000Y-52150500D03*
X153100000Y-58400500D03*
%TO.N,Board_0-+3V3*%
X155650000Y-62850500D03*
X155250000Y-63450500D03*
X154850000Y-62850500D03*
%TO.N,Board_0-/GPS_RX*%
X147700000Y-42700500D03*
%TO.N,Board_0-/GPS_TX*%
X147725000Y-44825500D03*
%TO.N,Board_0-/HOST_CSN*%
X156900000Y-42000500D03*
%TO.N,Board_0-/HOST_MISO*%
X157700000Y-46650500D03*
%TO.N,Board_0-/HOST_MOSI*%
X154950000Y-42700500D03*
%TO.N,Board_0-/HOST_SCK*%
X153310000Y-45600500D03*
%TO.N,Board_0-/INT_BAT*%
X146700000Y-71700500D03*
X163850000Y-56650500D03*
%TO.N,Board_0-/MCU_RESET*%
X138025000Y-42725500D03*
%TO.N,Board_0-/RESET_GPS*%
X144450000Y-44750500D03*
%TO.N,Board_0-/SCL0*%
X148750000Y-69000500D03*
X160050000Y-60750500D03*
%TO.N,Board_0-/SDA0*%
X159750000Y-64950500D03*
X148975000Y-71150500D03*
%TO.N,Board_0-/STANDBY_GPS*%
X145550000Y-42800500D03*
%TO.N,Board_0-/SX1261_BUSY*%
X140750000Y-68625500D03*
%TO.N,Board_0-/SX1261_DIO1*%
X143000000Y-68850500D03*
%TO.N,Board_0-/SX1261_DIO2*%
X145150000Y-69250500D03*
%TO.N,Board_0-/SX1261_NRESET*%
X137875000Y-44825500D03*
%TO.N,Board_0-/SX1261_NSS*%
X135350000Y-44050500D03*
%TO.N,Board_0-/SX1303_GPIO6*%
X136250000Y-51575500D03*
%TO.N,Board_0-/SX1303_GPIO8*%
X143750000Y-53650500D03*
%TO.N,Board_0-/VPHONE*%
X162900000Y-44000500D03*
X162850000Y-35100500D03*
%TO.N,Board_0-GND*%
X138550000Y-40850500D03*
X133250000Y-58750500D03*
X162900000Y-48400500D03*
X149250000Y-37250500D03*
X151250000Y-78850500D03*
X133550000Y-55050500D03*
X146800000Y-58450500D03*
X135875000Y-66075500D03*
X160750000Y-84050500D03*
X170250000Y-49950500D03*
X163050000Y-64250500D03*
X137950000Y-55150500D03*
X126750000Y-89250500D03*
X169050000Y-57050500D03*
X163050000Y-63450500D03*
X160750000Y-99650500D03*
X166225000Y-45600500D03*
X149250000Y-42100500D03*
X163050000Y-65850500D03*
X154100000Y-66900500D03*
X150850000Y-62600500D03*
X148550000Y-65850500D03*
X162850000Y-59550500D03*
X143975000Y-69625500D03*
X139750000Y-43350500D03*
X149900000Y-69900500D03*
X144250000Y-71350500D03*
X146450000Y-38700500D03*
X160950000Y-58650500D03*
X152750000Y-53475500D03*
X161650000Y-42200500D03*
X140350000Y-56200500D03*
X133000000Y-68350500D03*
X160150000Y-58650500D03*
X156500000Y-59850500D03*
X166250000Y-41350500D03*
X146750000Y-94226412D03*
X163000000Y-54400500D03*
X163050000Y-65050500D03*
X154950000Y-43850500D03*
X152000000Y-87600500D03*
X133705000Y-50450500D03*
X160750000Y-78850500D03*
X150050000Y-39200500D03*
X130250000Y-84050500D03*
X141825000Y-69250500D03*
X146800320Y-57147932D03*
X139450000Y-55150500D03*
X136550000Y-55050500D03*
X163650000Y-51950500D03*
X133450000Y-60250500D03*
X140750000Y-107350500D03*
X157050000Y-64950500D03*
X170250000Y-72750500D03*
X164200000Y-41550500D03*
X148050000Y-59650500D03*
X148850000Y-51150500D03*
X133250000Y-56550500D03*
X151250000Y-94450500D03*
X151250000Y-50350500D03*
X160750000Y-94450500D03*
X162050000Y-59550500D03*
X148100000Y-57250500D03*
X141850000Y-42750500D03*
X145550000Y-58450500D03*
X139550000Y-59275500D03*
X126550000Y-73150500D03*
X143650000Y-39350500D03*
X147650000Y-64150500D03*
X151250000Y-82850500D03*
X152950000Y-67150500D03*
X135150000Y-55050500D03*
X142450000Y-50350500D03*
X143750000Y-42150500D03*
X168100000Y-57000500D03*
X137250000Y-104850500D03*
X147850000Y-58450500D03*
X146050000Y-59650500D03*
X126550000Y-58150500D03*
X144250000Y-84100500D03*
X164550000Y-42200500D03*
X150000000Y-32671640D03*
X159275000Y-47375500D03*
X138850000Y-69750500D03*
X161250000Y-59950500D03*
X170250000Y-62350500D03*
X137275000Y-100725500D03*
X134950000Y-60250500D03*
X145750000Y-44350500D03*
X144250000Y-89250500D03*
X152480000Y-42150500D03*
X126550000Y-53150500D03*
X170250000Y-36350500D03*
X170250000Y-52650500D03*
X126550000Y-68150500D03*
X168850000Y-49950500D03*
X138050000Y-60050500D03*
X159550000Y-38675500D03*
X145425000Y-50418082D03*
X161200000Y-43550500D03*
X155275000Y-50650500D03*
X169050000Y-58150500D03*
X159925000Y-47375500D03*
X167350000Y-57000500D03*
X170250000Y-46750500D03*
X165950000Y-38650500D03*
X170250000Y-67550500D03*
X151250000Y-99650500D03*
X157250000Y-73850500D03*
X137750000Y-32671640D03*
X146850000Y-39350500D03*
X164500000Y-59250500D03*
X156575000Y-54575500D03*
X131100000Y-41400500D03*
X147100000Y-66375500D03*
X142750000Y-62450500D03*
X126750000Y-94450500D03*
X151875000Y-61100500D03*
X158900000Y-43300500D03*
X126550000Y-42950500D03*
X145425000Y-47550500D03*
X145350000Y-52450500D03*
X130250000Y-78350500D03*
X150050000Y-42100500D03*
X152950000Y-66200500D03*
X154100000Y-66200500D03*
X157350000Y-65550500D03*
X162850000Y-33700500D03*
X148850000Y-47700500D03*
X135650000Y-42100500D03*
X170250000Y-40775500D03*
X161150000Y-64850500D03*
X161750000Y-58650500D03*
X136550000Y-60250500D03*
X126550000Y-48150500D03*
X151250000Y-47700500D03*
X139950000Y-66450500D03*
X145250000Y-78350500D03*
X145550000Y-57150500D03*
X144750000Y-100600500D03*
X136750000Y-96450500D03*
X168850000Y-52600500D03*
X136750000Y-88600500D03*
X159300000Y-59950500D03*
X156500000Y-60600500D03*
X165250000Y-70350500D03*
X148350000Y-107650500D03*
X146675000Y-42225500D03*
X157350000Y-43750500D03*
X160750000Y-89250500D03*
X140050000Y-38750500D03*
X149250000Y-65350500D03*
X165250000Y-75850500D03*
X137250000Y-37350500D03*
X135550000Y-45750500D03*
X126550000Y-37750500D03*
X162400000Y-36050500D03*
X152000000Y-56150500D03*
X154225000Y-58075500D03*
X126750000Y-99650500D03*
X139350000Y-64050500D03*
X133850000Y-61550500D03*
X126550000Y-63150500D03*
X163950000Y-62550500D03*
X163250000Y-36050500D03*
X128500000Y-46350500D03*
X151250000Y-104850500D03*
X142950000Y-32671640D03*
X152500000Y-39250500D03*
X137250000Y-84050500D03*
X156750000Y-65550500D03*
X153450000Y-65300500D03*
X154300000Y-46100500D03*
X148725000Y-45300500D03*
X152950000Y-54900500D03*
X138000000Y-78850500D03*
X147300000Y-70500500D03*
X137350000Y-71950500D03*
X164650000Y-62550500D03*
X157650000Y-63850500D03*
%TO.N,Board_0-Net-(J6-Pad19)*%
X142850000Y-42750500D03*
%TO.N,Board_0-Net-(J6-Pad22)*%
X143450000Y-51450500D03*
%TD*%
%TA.AperFunction,Conductor*%
%TO.N,Board_0-GND*%
G36*
X167753032Y-31251148D02*
G01*
X168111433Y-31268756D01*
X168123541Y-31269948D01*
X168475475Y-31322153D01*
X168487389Y-31324523D01*
X168832520Y-31410973D01*
X168844147Y-31414500D01*
X169179151Y-31534367D01*
X169190363Y-31539011D01*
X169512012Y-31691139D01*
X169522720Y-31696863D01*
X169827881Y-31879770D01*
X169837996Y-31886528D01*
X169976117Y-31988965D01*
X170123769Y-32098471D01*
X170133175Y-32106191D01*
X170396790Y-32345118D01*
X170405381Y-32353709D01*
X170592635Y-32560312D01*
X170644308Y-32617324D01*
X170652028Y-32626730D01*
X170863969Y-32912500D01*
X170870729Y-32922618D01*
X171053629Y-33227767D01*
X171059366Y-33238499D01*
X171211485Y-33560129D01*
X171216136Y-33571358D01*
X171335994Y-33906337D01*
X171339526Y-33917981D01*
X171425973Y-34263097D01*
X171428347Y-34275032D01*
X171480550Y-34626957D01*
X171481743Y-34639067D01*
X171499351Y-34997466D01*
X171499500Y-35003551D01*
X171499500Y-73547633D01*
X171479815Y-73614672D01*
X171443237Y-73651497D01*
X162442287Y-79521681D01*
X162432641Y-79527971D01*
X162408103Y-79538136D01*
X162391314Y-79554923D01*
X162380499Y-79561977D01*
X162380497Y-79561977D01*
X162371427Y-79567893D01*
X162371422Y-79567898D01*
X162362920Y-79580320D01*
X162348284Y-79597952D01*
X162337638Y-79608598D01*
X162337635Y-79608603D01*
X162333486Y-79618620D01*
X162333485Y-79618619D01*
X162328545Y-79630543D01*
X162315138Y-79650135D01*
X162309666Y-79676123D01*
X162305261Y-79686759D01*
X162305260Y-79686764D01*
X162299500Y-79700672D01*
X162299500Y-79711506D01*
X162296840Y-79737050D01*
X162294608Y-79747652D01*
X162297379Y-79762443D01*
X162299500Y-79785278D01*
X162299500Y-105347448D01*
X162299351Y-105353533D01*
X162281743Y-105711932D01*
X162280550Y-105724042D01*
X162228347Y-106075967D01*
X162225973Y-106087902D01*
X162139526Y-106433018D01*
X162135994Y-106444662D01*
X162016142Y-106779627D01*
X162011485Y-106790870D01*
X161859366Y-107112500D01*
X161853629Y-107123232D01*
X161670729Y-107428381D01*
X161663969Y-107438499D01*
X161452028Y-107724269D01*
X161444308Y-107733675D01*
X161205388Y-107997283D01*
X161196783Y-108005888D01*
X160933175Y-108244808D01*
X160923769Y-108252528D01*
X160637999Y-108464469D01*
X160627881Y-108471229D01*
X160322732Y-108654129D01*
X160312000Y-108659866D01*
X159990370Y-108811985D01*
X159979134Y-108816639D01*
X159855442Y-108860897D01*
X159644162Y-108936494D01*
X159632518Y-108940026D01*
X159287402Y-109026473D01*
X159275467Y-109028847D01*
X158923542Y-109081050D01*
X158911432Y-109082243D01*
X158573927Y-109098824D01*
X158553031Y-109099851D01*
X158546949Y-109100000D01*
X129253051Y-109100000D01*
X129246968Y-109099851D01*
X129224856Y-109098764D01*
X128888567Y-109082243D01*
X128876457Y-109081050D01*
X128524532Y-109028847D01*
X128512597Y-109026473D01*
X128167481Y-108940026D01*
X128155837Y-108936494D01*
X127820858Y-108816636D01*
X127809629Y-108811985D01*
X127487999Y-108659866D01*
X127477272Y-108654131D01*
X127172118Y-108471229D01*
X127162000Y-108464469D01*
X126876230Y-108252528D01*
X126866824Y-108244808D01*
X126672650Y-108068819D01*
X126603209Y-108005881D01*
X126594618Y-107997290D01*
X126355691Y-107733675D01*
X126347971Y-107724269D01*
X126136030Y-107438499D01*
X126129270Y-107428381D01*
X126124859Y-107421022D01*
X125946363Y-107123220D01*
X125940639Y-107112512D01*
X125788511Y-106790863D01*
X125783867Y-106779651D01*
X125664000Y-106444647D01*
X125660473Y-106433018D01*
X125574023Y-106087889D01*
X125571652Y-106075967D01*
X125564946Y-106030762D01*
X125519448Y-105724041D01*
X125518256Y-105711931D01*
X125500649Y-105353532D01*
X125500500Y-105347448D01*
X125500500Y-102770759D01*
X128949500Y-102770759D01*
X128949500Y-103130240D01*
X128989746Y-103487435D01*
X128989748Y-103487451D01*
X129069737Y-103837907D01*
X129069741Y-103837919D01*
X129188465Y-104177211D01*
X129344432Y-104501079D01*
X129344434Y-104501082D01*
X129535685Y-104805456D01*
X129759812Y-105086503D01*
X130013997Y-105340688D01*
X130295044Y-105564815D01*
X130599418Y-105756066D01*
X130923292Y-105912036D01*
X131178119Y-106001203D01*
X131262580Y-106030758D01*
X131262592Y-106030762D01*
X131613052Y-106110752D01*
X131970260Y-106150999D01*
X131970261Y-106151000D01*
X131970264Y-106151000D01*
X132329739Y-106151000D01*
X132329739Y-106150999D01*
X132686948Y-106110752D01*
X133037408Y-106030762D01*
X133376708Y-105912036D01*
X133700582Y-105756066D01*
X134004956Y-105564815D01*
X134286003Y-105340688D01*
X134540188Y-105086503D01*
X134764315Y-104805456D01*
X134955566Y-104501082D01*
X135111536Y-104177208D01*
X135230262Y-103837908D01*
X135310252Y-103487448D01*
X135350500Y-103130236D01*
X135350500Y-102770764D01*
X135350499Y-102770759D01*
X153149500Y-102770759D01*
X153149500Y-103130240D01*
X153189746Y-103487435D01*
X153189748Y-103487451D01*
X153269737Y-103837907D01*
X153269741Y-103837919D01*
X153388465Y-104177211D01*
X153544432Y-104501079D01*
X153544434Y-104501082D01*
X153735685Y-104805456D01*
X153959812Y-105086503D01*
X154213997Y-105340688D01*
X154495044Y-105564815D01*
X154799418Y-105756066D01*
X155123292Y-105912036D01*
X155378119Y-106001203D01*
X155462580Y-106030758D01*
X155462592Y-106030762D01*
X155813052Y-106110752D01*
X156170260Y-106150999D01*
X156170261Y-106151000D01*
X156170264Y-106151000D01*
X156529739Y-106151000D01*
X156529739Y-106150999D01*
X156886948Y-106110752D01*
X157237408Y-106030762D01*
X157576708Y-105912036D01*
X157900582Y-105756066D01*
X158204956Y-105564815D01*
X158486003Y-105340688D01*
X158740188Y-105086503D01*
X158964315Y-104805456D01*
X159155566Y-104501082D01*
X159311536Y-104177208D01*
X159430262Y-103837908D01*
X159510252Y-103487448D01*
X159550500Y-103130236D01*
X159550500Y-102770764D01*
X159510252Y-102413552D01*
X159430262Y-102063092D01*
X159311536Y-101723792D01*
X159155566Y-101399918D01*
X158964315Y-101095544D01*
X158740188Y-100814497D01*
X158486003Y-100560312D01*
X158204956Y-100336185D01*
X157900582Y-100144934D01*
X157900579Y-100144932D01*
X157576711Y-99988965D01*
X157237419Y-99870241D01*
X157237407Y-99870237D01*
X156886951Y-99790248D01*
X156886935Y-99790246D01*
X156529740Y-99750000D01*
X156529736Y-99750000D01*
X156170264Y-99750000D01*
X156170259Y-99750000D01*
X155813064Y-99790246D01*
X155813048Y-99790248D01*
X155462592Y-99870237D01*
X155462580Y-99870241D01*
X155123288Y-99988965D01*
X154799420Y-100144932D01*
X154495045Y-100336184D01*
X154213997Y-100560311D01*
X153959811Y-100814497D01*
X153735684Y-101095545D01*
X153544432Y-101399920D01*
X153388465Y-101723788D01*
X153269741Y-102063080D01*
X153269737Y-102063092D01*
X153189748Y-102413548D01*
X153189746Y-102413564D01*
X153149500Y-102770759D01*
X135350499Y-102770759D01*
X135310252Y-102413552D01*
X135230262Y-102063092D01*
X135111536Y-101723792D01*
X134955566Y-101399918D01*
X134764315Y-101095544D01*
X134540188Y-100814497D01*
X134286003Y-100560312D01*
X134004956Y-100336185D01*
X133700582Y-100144934D01*
X133700579Y-100144932D01*
X133376711Y-99988965D01*
X133037419Y-99870241D01*
X133037407Y-99870237D01*
X132686951Y-99790248D01*
X132686935Y-99790246D01*
X132329740Y-99750000D01*
X132329736Y-99750000D01*
X131970264Y-99750000D01*
X131970259Y-99750000D01*
X131613064Y-99790246D01*
X131613048Y-99790248D01*
X131262592Y-99870237D01*
X131262580Y-99870241D01*
X130923288Y-99988965D01*
X130599420Y-100144932D01*
X130295045Y-100336184D01*
X130013997Y-100560311D01*
X129759811Y-100814497D01*
X129535684Y-101095545D01*
X129344432Y-101399920D01*
X129188465Y-101723788D01*
X129069741Y-102063080D01*
X129069737Y-102063092D01*
X128989748Y-102413548D01*
X128989746Y-102413564D01*
X128949500Y-102770759D01*
X125500500Y-102770759D01*
X125500500Y-87868900D01*
X125520185Y-87801861D01*
X125522304Y-87798672D01*
X125588187Y-87702800D01*
X128743410Y-83111350D01*
X128762364Y-83092397D01*
X128771360Y-83070678D01*
X128784672Y-83051307D01*
X128787873Y-83036237D01*
X128794602Y-83014565D01*
X128800500Y-83000328D01*
X128800500Y-82976821D01*
X128805386Y-82953828D01*
X128800500Y-82927473D01*
X128800500Y-78163681D01*
X128800806Y-78154970D01*
X128803382Y-78118393D01*
X128800500Y-78109765D01*
X128800500Y-78100672D01*
X128784802Y-78062775D01*
X128771807Y-78023872D01*
X128771802Y-78023866D01*
X128767345Y-78016059D01*
X128762365Y-78008604D01*
X128762364Y-78008603D01*
X128736426Y-77982665D01*
X128730496Y-77976302D01*
X125530876Y-74291890D01*
X125501782Y-74228366D01*
X125500500Y-74210585D01*
X125500500Y-71621653D01*
X145899500Y-71621653D01*
X145899500Y-71779346D01*
X145930261Y-71933989D01*
X145930264Y-71934001D01*
X145990602Y-72079672D01*
X145990609Y-72079685D01*
X146078210Y-72210788D01*
X146078213Y-72210792D01*
X146189707Y-72322286D01*
X146189711Y-72322289D01*
X146320814Y-72409890D01*
X146320827Y-72409897D01*
X146466498Y-72470235D01*
X146466503Y-72470237D01*
X146621153Y-72500999D01*
X146621156Y-72501000D01*
X146621158Y-72501000D01*
X146778844Y-72501000D01*
X146778845Y-72500999D01*
X146933497Y-72470237D01*
X147079179Y-72409894D01*
X147210289Y-72322289D01*
X147321789Y-72210789D01*
X147409394Y-72079679D01*
X147469737Y-71933997D01*
X147500500Y-71779342D01*
X147500500Y-71621658D01*
X147500500Y-71621655D01*
X147500499Y-71621653D01*
X147482204Y-71529679D01*
X147469737Y-71467003D01*
X147435352Y-71383989D01*
X147409397Y-71321327D01*
X147409390Y-71321314D01*
X147321789Y-71190211D01*
X147321786Y-71190207D01*
X147210292Y-71078713D01*
X147210288Y-71078710D01*
X147199727Y-71071653D01*
X148174500Y-71071653D01*
X148174500Y-71229346D01*
X148205261Y-71383989D01*
X148205264Y-71384001D01*
X148265602Y-71529672D01*
X148265609Y-71529685D01*
X148353210Y-71660788D01*
X148353213Y-71660792D01*
X148464707Y-71772286D01*
X148464711Y-71772289D01*
X148595814Y-71859890D01*
X148595827Y-71859897D01*
X148741498Y-71920235D01*
X148741503Y-71920237D01*
X148896153Y-71950999D01*
X148896156Y-71951000D01*
X148896158Y-71951000D01*
X149053844Y-71951000D01*
X149053845Y-71950999D01*
X149208497Y-71920237D01*
X149354179Y-71859894D01*
X149485289Y-71772289D01*
X149596789Y-71660789D01*
X149684394Y-71529679D01*
X149744737Y-71383997D01*
X149775500Y-71229342D01*
X149775500Y-71071658D01*
X149775500Y-71071655D01*
X149775499Y-71071653D01*
X149744737Y-70917003D01*
X149737694Y-70900000D01*
X149684397Y-70771327D01*
X149684390Y-70771314D01*
X149596789Y-70640211D01*
X149596786Y-70640207D01*
X149485292Y-70528713D01*
X149485288Y-70528710D01*
X149354185Y-70441109D01*
X149354172Y-70441102D01*
X149208501Y-70380764D01*
X149208489Y-70380761D01*
X149053845Y-70350000D01*
X149053842Y-70350000D01*
X148896158Y-70350000D01*
X148896155Y-70350000D01*
X148741510Y-70380761D01*
X148741498Y-70380764D01*
X148595827Y-70441102D01*
X148595814Y-70441109D01*
X148464711Y-70528710D01*
X148464707Y-70528713D01*
X148353213Y-70640207D01*
X148353210Y-70640211D01*
X148265609Y-70771314D01*
X148265602Y-70771327D01*
X148205264Y-70916998D01*
X148205261Y-70917010D01*
X148174500Y-71071653D01*
X147199727Y-71071653D01*
X147079185Y-70991109D01*
X147079172Y-70991102D01*
X146933501Y-70930764D01*
X146933489Y-70930761D01*
X146778845Y-70900000D01*
X146778842Y-70900000D01*
X146621158Y-70900000D01*
X146621155Y-70900000D01*
X146466510Y-70930761D01*
X146466498Y-70930764D01*
X146320827Y-70991102D01*
X146320814Y-70991109D01*
X146189711Y-71078710D01*
X146189707Y-71078713D01*
X146078213Y-71190207D01*
X146078210Y-71190211D01*
X145990609Y-71321314D01*
X145990602Y-71321327D01*
X145930264Y-71466998D01*
X145930261Y-71467010D01*
X145899500Y-71621653D01*
X125500500Y-71621653D01*
X125500500Y-68546653D01*
X139949500Y-68546653D01*
X139949500Y-68704346D01*
X139980261Y-68858989D01*
X139980264Y-68859001D01*
X140040602Y-69004672D01*
X140040609Y-69004685D01*
X140128210Y-69135788D01*
X140128213Y-69135792D01*
X140239707Y-69247286D01*
X140239711Y-69247289D01*
X140370814Y-69334890D01*
X140370827Y-69334897D01*
X140516498Y-69395235D01*
X140516503Y-69395237D01*
X140671153Y-69425999D01*
X140671156Y-69426000D01*
X140671158Y-69426000D01*
X140828844Y-69426000D01*
X140828845Y-69425999D01*
X140983497Y-69395237D01*
X141129179Y-69334894D01*
X141260289Y-69247289D01*
X141371789Y-69135789D01*
X141459394Y-69004679D01*
X141519737Y-68858997D01*
X141537111Y-68771653D01*
X142199500Y-68771653D01*
X142199500Y-68929346D01*
X142230261Y-69083989D01*
X142230264Y-69084001D01*
X142290602Y-69229672D01*
X142290609Y-69229685D01*
X142378210Y-69360788D01*
X142378213Y-69360792D01*
X142489707Y-69472286D01*
X142489711Y-69472289D01*
X142620814Y-69559890D01*
X142620827Y-69559897D01*
X142766498Y-69620235D01*
X142766503Y-69620237D01*
X142921153Y-69650999D01*
X142921156Y-69651000D01*
X142921158Y-69651000D01*
X143078844Y-69651000D01*
X143078845Y-69650999D01*
X143233497Y-69620237D01*
X143379179Y-69559894D01*
X143510289Y-69472289D01*
X143621789Y-69360789D01*
X143709394Y-69229679D01*
X143733429Y-69171653D01*
X144349500Y-69171653D01*
X144349500Y-69329346D01*
X144380261Y-69483989D01*
X144380264Y-69484001D01*
X144440602Y-69629672D01*
X144440609Y-69629685D01*
X144528210Y-69760788D01*
X144528213Y-69760792D01*
X144639707Y-69872286D01*
X144639711Y-69872289D01*
X144770814Y-69959890D01*
X144770827Y-69959897D01*
X144916498Y-70020235D01*
X144916503Y-70020237D01*
X145071153Y-70050999D01*
X145071156Y-70051000D01*
X145071158Y-70051000D01*
X145228844Y-70051000D01*
X145228845Y-70050999D01*
X145383497Y-70020237D01*
X145529179Y-69959894D01*
X145660289Y-69872289D01*
X145771789Y-69760789D01*
X145859394Y-69629679D01*
X145919737Y-69483997D01*
X145950500Y-69329342D01*
X145950500Y-69171658D01*
X145950500Y-69171655D01*
X145950499Y-69171653D01*
X145919738Y-69017010D01*
X145919737Y-69017003D01*
X145880242Y-68921653D01*
X147949500Y-68921653D01*
X147949500Y-69079346D01*
X147980261Y-69233989D01*
X147980264Y-69234001D01*
X148040602Y-69379672D01*
X148040609Y-69379685D01*
X148128210Y-69510788D01*
X148128213Y-69510792D01*
X148239707Y-69622286D01*
X148239711Y-69622289D01*
X148370814Y-69709890D01*
X148370827Y-69709897D01*
X148516498Y-69770235D01*
X148516503Y-69770237D01*
X148671153Y-69800999D01*
X148671156Y-69801000D01*
X148671158Y-69801000D01*
X148828844Y-69801000D01*
X148828845Y-69800999D01*
X148983497Y-69770237D01*
X149129179Y-69709894D01*
X149260289Y-69622289D01*
X149371789Y-69510789D01*
X149459394Y-69379679D01*
X149519737Y-69233997D01*
X149550500Y-69079342D01*
X149550500Y-68921658D01*
X149550500Y-68921655D01*
X149550499Y-68921653D01*
X149519738Y-68767010D01*
X149519737Y-68767003D01*
X149509121Y-68741374D01*
X149459397Y-68621327D01*
X149459390Y-68621314D01*
X149371789Y-68490211D01*
X149371786Y-68490207D01*
X149260292Y-68378713D01*
X149260288Y-68378710D01*
X149129185Y-68291109D01*
X149129172Y-68291102D01*
X148983501Y-68230764D01*
X148983489Y-68230761D01*
X148828845Y-68200000D01*
X148828842Y-68200000D01*
X148671158Y-68200000D01*
X148671155Y-68200000D01*
X148516510Y-68230761D01*
X148516498Y-68230764D01*
X148370827Y-68291102D01*
X148370814Y-68291109D01*
X148239711Y-68378710D01*
X148239707Y-68378713D01*
X148128213Y-68490207D01*
X148128210Y-68490211D01*
X148040609Y-68621314D01*
X148040602Y-68621327D01*
X147980264Y-68766998D01*
X147980261Y-68767010D01*
X147949500Y-68921653D01*
X145880242Y-68921653D01*
X145879933Y-68920908D01*
X145859397Y-68871327D01*
X145859390Y-68871314D01*
X145771789Y-68740211D01*
X145771786Y-68740207D01*
X145660292Y-68628713D01*
X145660288Y-68628710D01*
X145529185Y-68541109D01*
X145529172Y-68541102D01*
X145383501Y-68480764D01*
X145383489Y-68480761D01*
X145228845Y-68450000D01*
X145228842Y-68450000D01*
X145071158Y-68450000D01*
X145071155Y-68450000D01*
X144916510Y-68480761D01*
X144916498Y-68480764D01*
X144770827Y-68541102D01*
X144770814Y-68541109D01*
X144639711Y-68628710D01*
X144639707Y-68628713D01*
X144528213Y-68740207D01*
X144528210Y-68740211D01*
X144440609Y-68871314D01*
X144440602Y-68871327D01*
X144380264Y-69016998D01*
X144380261Y-69017010D01*
X144349500Y-69171653D01*
X143733429Y-69171653D01*
X143748283Y-69135792D01*
X143755603Y-69118121D01*
X143755605Y-69118114D01*
X143769737Y-69083997D01*
X143800500Y-68929342D01*
X143800500Y-68771658D01*
X143800500Y-68771655D01*
X143800499Y-68771653D01*
X143772066Y-68628711D01*
X143769737Y-68617003D01*
X143769735Y-68616998D01*
X143709397Y-68471327D01*
X143709390Y-68471314D01*
X143621789Y-68340211D01*
X143621786Y-68340207D01*
X143510292Y-68228713D01*
X143510288Y-68228710D01*
X143379185Y-68141109D01*
X143379172Y-68141102D01*
X143233501Y-68080764D01*
X143233489Y-68080761D01*
X143078845Y-68050000D01*
X143078842Y-68050000D01*
X142921158Y-68050000D01*
X142921155Y-68050000D01*
X142766510Y-68080761D01*
X142766498Y-68080764D01*
X142620827Y-68141102D01*
X142620814Y-68141109D01*
X142489711Y-68228710D01*
X142489707Y-68228713D01*
X142378213Y-68340207D01*
X142378210Y-68340211D01*
X142290609Y-68471314D01*
X142290602Y-68471327D01*
X142230264Y-68616998D01*
X142230261Y-68617010D01*
X142199500Y-68771653D01*
X141537111Y-68771653D01*
X141543134Y-68741375D01*
X141543134Y-68741374D01*
X141550500Y-68704344D01*
X141550500Y-68546655D01*
X141550499Y-68546653D01*
X141537393Y-68480764D01*
X141519737Y-68392003D01*
X141477946Y-68291109D01*
X141459397Y-68246327D01*
X141459390Y-68246314D01*
X141371789Y-68115211D01*
X141371786Y-68115207D01*
X141260292Y-68003713D01*
X141260288Y-68003710D01*
X141129185Y-67916109D01*
X141129172Y-67916102D01*
X140983501Y-67855764D01*
X140983489Y-67855761D01*
X140828845Y-67825000D01*
X140828842Y-67825000D01*
X140671158Y-67825000D01*
X140671155Y-67825000D01*
X140516510Y-67855761D01*
X140516498Y-67855764D01*
X140370827Y-67916102D01*
X140370814Y-67916109D01*
X140239711Y-68003710D01*
X140239707Y-68003713D01*
X140128213Y-68115207D01*
X140128210Y-68115211D01*
X140040609Y-68246314D01*
X140040602Y-68246327D01*
X139980264Y-68391998D01*
X139980261Y-68392010D01*
X139949500Y-68546653D01*
X125500500Y-68546653D01*
X125500500Y-64871653D01*
X158949500Y-64871653D01*
X158949500Y-65029346D01*
X158980261Y-65183989D01*
X158980264Y-65184001D01*
X159040602Y-65329672D01*
X159040609Y-65329685D01*
X159128210Y-65460788D01*
X159128213Y-65460792D01*
X159239707Y-65572286D01*
X159239711Y-65572289D01*
X159370814Y-65659890D01*
X159370827Y-65659897D01*
X159516498Y-65720235D01*
X159516503Y-65720237D01*
X159671153Y-65750999D01*
X159671156Y-65751000D01*
X159671158Y-65751000D01*
X159828844Y-65751000D01*
X159828845Y-65750999D01*
X159983497Y-65720237D01*
X160129179Y-65659894D01*
X160260289Y-65572289D01*
X160371789Y-65460789D01*
X160459394Y-65329679D01*
X160519737Y-65183997D01*
X160550500Y-65029342D01*
X160550500Y-64871658D01*
X160550500Y-64871655D01*
X160550499Y-64871653D01*
X160519738Y-64717010D01*
X160519737Y-64717003D01*
X160519735Y-64716998D01*
X160459397Y-64571327D01*
X160459390Y-64571314D01*
X160371789Y-64440211D01*
X160371786Y-64440207D01*
X160260292Y-64328713D01*
X160260288Y-64328710D01*
X160129185Y-64241109D01*
X160129172Y-64241102D01*
X159983501Y-64180764D01*
X159983489Y-64180761D01*
X159828845Y-64150000D01*
X159828842Y-64150000D01*
X159671158Y-64150000D01*
X159671155Y-64150000D01*
X159516510Y-64180761D01*
X159516498Y-64180764D01*
X159370827Y-64241102D01*
X159370814Y-64241109D01*
X159239711Y-64328710D01*
X159239707Y-64328713D01*
X159128213Y-64440207D01*
X159128210Y-64440211D01*
X159040609Y-64571314D01*
X159040602Y-64571327D01*
X158980264Y-64716998D01*
X158980261Y-64717010D01*
X158949500Y-64871653D01*
X125500500Y-64871653D01*
X125500500Y-63071653D01*
X147449500Y-63071653D01*
X147449500Y-63229346D01*
X147480261Y-63383989D01*
X147480264Y-63384001D01*
X147540602Y-63529672D01*
X147540609Y-63529685D01*
X147628210Y-63660788D01*
X147628213Y-63660792D01*
X147739707Y-63772286D01*
X147739711Y-63772289D01*
X147870814Y-63859890D01*
X147870827Y-63859897D01*
X148016498Y-63920235D01*
X148016503Y-63920237D01*
X148171153Y-63950999D01*
X148171156Y-63951000D01*
X148171158Y-63951000D01*
X148328844Y-63951000D01*
X148328845Y-63950999D01*
X148483497Y-63920237D01*
X148629179Y-63859894D01*
X148760289Y-63772289D01*
X148871789Y-63660789D01*
X148959394Y-63529679D01*
X149019737Y-63383997D01*
X149050500Y-63229342D01*
X149050500Y-63071658D01*
X149050500Y-63071655D01*
X149050499Y-63071653D01*
X149022192Y-62929346D01*
X149019737Y-62917003D01*
X149019735Y-62916998D01*
X148976666Y-62813018D01*
X148959532Y-62771653D01*
X154049500Y-62771653D01*
X154049500Y-62929346D01*
X154080261Y-63083989D01*
X154080264Y-63084001D01*
X154140602Y-63229672D01*
X154140609Y-63229685D01*
X154228210Y-63360788D01*
X154228213Y-63360792D01*
X154339707Y-63472286D01*
X154339711Y-63472289D01*
X154410534Y-63519612D01*
X154455339Y-63573224D01*
X154463260Y-63598522D01*
X154480261Y-63683991D01*
X154480264Y-63684001D01*
X154540602Y-63829672D01*
X154540609Y-63829685D01*
X154628210Y-63960788D01*
X154628213Y-63960792D01*
X154739707Y-64072286D01*
X154739711Y-64072289D01*
X154870814Y-64159890D01*
X154870827Y-64159897D01*
X155016498Y-64220235D01*
X155016503Y-64220237D01*
X155171153Y-64250999D01*
X155171156Y-64251000D01*
X155171158Y-64251000D01*
X155328844Y-64251000D01*
X155328845Y-64250999D01*
X155483497Y-64220237D01*
X155629179Y-64159894D01*
X155760289Y-64072289D01*
X155871789Y-63960789D01*
X155959394Y-63829679D01*
X156019737Y-63683997D01*
X156036739Y-63598521D01*
X156069121Y-63536613D01*
X156089459Y-63519615D01*
X156160289Y-63472289D01*
X156271789Y-63360789D01*
X156359394Y-63229679D01*
X156419737Y-63083997D01*
X156450500Y-62929342D01*
X156450500Y-62771658D01*
X156450500Y-62771655D01*
X156450499Y-62771653D01*
X156424353Y-62640211D01*
X156419737Y-62617003D01*
X156419735Y-62616998D01*
X156359397Y-62471327D01*
X156359390Y-62471314D01*
X156271789Y-62340211D01*
X156271786Y-62340207D01*
X156160292Y-62228713D01*
X156160288Y-62228710D01*
X156029185Y-62141109D01*
X156029172Y-62141102D01*
X155883501Y-62080764D01*
X155883489Y-62080761D01*
X155728845Y-62050000D01*
X155728842Y-62050000D01*
X155571158Y-62050000D01*
X155571155Y-62050000D01*
X155416510Y-62080761D01*
X155416498Y-62080764D01*
X155297452Y-62130074D01*
X155227982Y-62137543D01*
X155202548Y-62130074D01*
X155083501Y-62080764D01*
X155083489Y-62080761D01*
X154928845Y-62050000D01*
X154928842Y-62050000D01*
X154771158Y-62050000D01*
X154771155Y-62050000D01*
X154616510Y-62080761D01*
X154616498Y-62080764D01*
X154470827Y-62141102D01*
X154470814Y-62141109D01*
X154339711Y-62228710D01*
X154339707Y-62228713D01*
X154228213Y-62340207D01*
X154228210Y-62340211D01*
X154140609Y-62471314D01*
X154140602Y-62471327D01*
X154080264Y-62616998D01*
X154080261Y-62617010D01*
X154049500Y-62771653D01*
X148959532Y-62771653D01*
X148959395Y-62771323D01*
X148959390Y-62771314D01*
X148871789Y-62640211D01*
X148871786Y-62640207D01*
X148760292Y-62528713D01*
X148760288Y-62528710D01*
X148629185Y-62441109D01*
X148629172Y-62441102D01*
X148483501Y-62380764D01*
X148483489Y-62380761D01*
X148328845Y-62350000D01*
X148328842Y-62350000D01*
X148171158Y-62350000D01*
X148171155Y-62350000D01*
X148016510Y-62380761D01*
X148016498Y-62380764D01*
X147870827Y-62441102D01*
X147870814Y-62441109D01*
X147739711Y-62528710D01*
X147739707Y-62528713D01*
X147628213Y-62640207D01*
X147628210Y-62640211D01*
X147540609Y-62771314D01*
X147540602Y-62771327D01*
X147480264Y-62916998D01*
X147480261Y-62917010D01*
X147449500Y-63071653D01*
X125500500Y-63071653D01*
X125500500Y-60271653D01*
X139174500Y-60271653D01*
X139174500Y-60429346D01*
X139205261Y-60583989D01*
X139205264Y-60584001D01*
X139265602Y-60729672D01*
X139265609Y-60729685D01*
X139353210Y-60860788D01*
X139353213Y-60860792D01*
X139464707Y-60972286D01*
X139464711Y-60972289D01*
X139595814Y-61059890D01*
X139595827Y-61059897D01*
X139741498Y-61120235D01*
X139741503Y-61120237D01*
X139896153Y-61150999D01*
X139896156Y-61151000D01*
X139896158Y-61151000D01*
X140053844Y-61151000D01*
X140053845Y-61150999D01*
X140208497Y-61120237D01*
X140354179Y-61059894D01*
X140485289Y-60972289D01*
X140596789Y-60860789D01*
X140684394Y-60729679D01*
X140744737Y-60583997D01*
X140767083Y-60471658D01*
X140767084Y-60471653D01*
X146399500Y-60471653D01*
X146399500Y-60629346D01*
X146430261Y-60783989D01*
X146430264Y-60784001D01*
X146490602Y-60929672D01*
X146490609Y-60929685D01*
X146578210Y-61060788D01*
X146578213Y-61060792D01*
X146689707Y-61172286D01*
X146689711Y-61172289D01*
X146820814Y-61259890D01*
X146820827Y-61259897D01*
X146966498Y-61320235D01*
X146966503Y-61320237D01*
X147121153Y-61350999D01*
X147121156Y-61351000D01*
X147121158Y-61351000D01*
X147278844Y-61351000D01*
X147278845Y-61350999D01*
X147433497Y-61320237D01*
X147579179Y-61259894D01*
X147710289Y-61172289D01*
X147821789Y-61060789D01*
X147909394Y-60929679D01*
X147969737Y-60783997D01*
X147992083Y-60671658D01*
X147992084Y-60671653D01*
X159249500Y-60671653D01*
X159249500Y-60829346D01*
X159280261Y-60983989D01*
X159280264Y-60984001D01*
X159340602Y-61129672D01*
X159340609Y-61129685D01*
X159428210Y-61260788D01*
X159428213Y-61260792D01*
X159539707Y-61372286D01*
X159539711Y-61372289D01*
X159670814Y-61459890D01*
X159670827Y-61459897D01*
X159816498Y-61520235D01*
X159816503Y-61520237D01*
X159971153Y-61550999D01*
X159971156Y-61551000D01*
X159971158Y-61551000D01*
X160128844Y-61551000D01*
X160128845Y-61550999D01*
X160283497Y-61520237D01*
X160429179Y-61459894D01*
X160560289Y-61372289D01*
X160671789Y-61260789D01*
X160759394Y-61129679D01*
X160819737Y-60983997D01*
X160850500Y-60829342D01*
X160850500Y-60671658D01*
X160850500Y-60671655D01*
X160850499Y-60671653D01*
X160844476Y-60641374D01*
X160819737Y-60517003D01*
X160800955Y-60471658D01*
X160759397Y-60371327D01*
X160759390Y-60371314D01*
X160671789Y-60240211D01*
X160671786Y-60240207D01*
X160560292Y-60128713D01*
X160560288Y-60128710D01*
X160429185Y-60041109D01*
X160429172Y-60041102D01*
X160283501Y-59980764D01*
X160283489Y-59980761D01*
X160128845Y-59950000D01*
X160128842Y-59950000D01*
X159971158Y-59950000D01*
X159971155Y-59950000D01*
X159816510Y-59980761D01*
X159816498Y-59980764D01*
X159670827Y-60041102D01*
X159670814Y-60041109D01*
X159539711Y-60128710D01*
X159539707Y-60128713D01*
X159428213Y-60240207D01*
X159428210Y-60240211D01*
X159340609Y-60371314D01*
X159340602Y-60371327D01*
X159280264Y-60516998D01*
X159280261Y-60517010D01*
X159249500Y-60671653D01*
X147992084Y-60671653D01*
X147998107Y-60641375D01*
X147998107Y-60641374D01*
X148000500Y-60629344D01*
X148000500Y-60471655D01*
X148000499Y-60471653D01*
X147994476Y-60441374D01*
X147969737Y-60317003D01*
X147950955Y-60271658D01*
X147909397Y-60171327D01*
X147909390Y-60171314D01*
X147821789Y-60040211D01*
X147821786Y-60040207D01*
X147710292Y-59928713D01*
X147710288Y-59928710D01*
X147579185Y-59841109D01*
X147579172Y-59841102D01*
X147433501Y-59780764D01*
X147433489Y-59780761D01*
X147278845Y-59750000D01*
X147278842Y-59750000D01*
X147121158Y-59750000D01*
X147121155Y-59750000D01*
X146966510Y-59780761D01*
X146966498Y-59780764D01*
X146820827Y-59841102D01*
X146820814Y-59841109D01*
X146689711Y-59928710D01*
X146689707Y-59928713D01*
X146578213Y-60040207D01*
X146578210Y-60040211D01*
X146490609Y-60171314D01*
X146490602Y-60171327D01*
X146430264Y-60316998D01*
X146430261Y-60317010D01*
X146399500Y-60471653D01*
X140767084Y-60471653D01*
X140773107Y-60441375D01*
X140773107Y-60441374D01*
X140775500Y-60429344D01*
X140775500Y-60271655D01*
X140775499Y-60271653D01*
X140770245Y-60245238D01*
X140744737Y-60117003D01*
X140712929Y-60040211D01*
X140684397Y-59971327D01*
X140684390Y-59971314D01*
X140596789Y-59840211D01*
X140596786Y-59840207D01*
X140485292Y-59728713D01*
X140485288Y-59728710D01*
X140354185Y-59641109D01*
X140354172Y-59641102D01*
X140208501Y-59580764D01*
X140208489Y-59580761D01*
X140053845Y-59550000D01*
X140053842Y-59550000D01*
X139896158Y-59550000D01*
X139896155Y-59550000D01*
X139741510Y-59580761D01*
X139741498Y-59580764D01*
X139595827Y-59641102D01*
X139595814Y-59641109D01*
X139464711Y-59728710D01*
X139464707Y-59728713D01*
X139353213Y-59840207D01*
X139353210Y-59840211D01*
X139265609Y-59971314D01*
X139265602Y-59971327D01*
X139205264Y-60116998D01*
X139205261Y-60117010D01*
X139174500Y-60271653D01*
X125500500Y-60271653D01*
X125500500Y-59396653D01*
X143899500Y-59396653D01*
X143899500Y-59554346D01*
X143930261Y-59708989D01*
X143930264Y-59709001D01*
X143990602Y-59854672D01*
X143990609Y-59854685D01*
X144078210Y-59985788D01*
X144078213Y-59985792D01*
X144189707Y-60097286D01*
X144189711Y-60097289D01*
X144320814Y-60184890D01*
X144320827Y-60184897D01*
X144454359Y-60240207D01*
X144466503Y-60245237D01*
X144621153Y-60275999D01*
X144621156Y-60276000D01*
X144621158Y-60276000D01*
X144778844Y-60276000D01*
X144778845Y-60275999D01*
X144933497Y-60245237D01*
X145079179Y-60184894D01*
X145210289Y-60097289D01*
X145321789Y-59985789D01*
X145409394Y-59854679D01*
X145415389Y-59840207D01*
X145440011Y-59780763D01*
X145469737Y-59708997D01*
X145500500Y-59554342D01*
X145500500Y-59396658D01*
X145500500Y-59396655D01*
X145500499Y-59396653D01*
X145469738Y-59242010D01*
X145469737Y-59242003D01*
X145432338Y-59151713D01*
X145409397Y-59096327D01*
X145409390Y-59096314D01*
X145321789Y-58965211D01*
X145321786Y-58965207D01*
X145210292Y-58853713D01*
X145210288Y-58853710D01*
X145157844Y-58818668D01*
X145079185Y-58766109D01*
X145079172Y-58766102D01*
X144971861Y-58721653D01*
X148099500Y-58721653D01*
X148099500Y-58879346D01*
X148130261Y-59033989D01*
X148130264Y-59034001D01*
X148190602Y-59179672D01*
X148190609Y-59179685D01*
X148278210Y-59310788D01*
X148278213Y-59310792D01*
X148389707Y-59422286D01*
X148389711Y-59422289D01*
X148520814Y-59509890D01*
X148520827Y-59509897D01*
X148628138Y-59554346D01*
X148666503Y-59570237D01*
X148821153Y-59600999D01*
X148821156Y-59601000D01*
X148821158Y-59601000D01*
X148978844Y-59601000D01*
X148978845Y-59600999D01*
X149133497Y-59570237D01*
X149279179Y-59509894D01*
X149410289Y-59422289D01*
X149521789Y-59310789D01*
X149609394Y-59179679D01*
X149669737Y-59033997D01*
X149700500Y-58879342D01*
X149700500Y-58721658D01*
X149700500Y-58721655D01*
X149700499Y-58721653D01*
X151824500Y-58721653D01*
X151824500Y-58879346D01*
X151855261Y-59033989D01*
X151855264Y-59034001D01*
X151915602Y-59179672D01*
X151915609Y-59179685D01*
X152003210Y-59310788D01*
X152003213Y-59310792D01*
X152114707Y-59422286D01*
X152114711Y-59422289D01*
X152245814Y-59509890D01*
X152245827Y-59509897D01*
X152353138Y-59554346D01*
X152391503Y-59570237D01*
X152546153Y-59600999D01*
X152546156Y-59601000D01*
X152546158Y-59601000D01*
X152703844Y-59601000D01*
X152703845Y-59600999D01*
X152858497Y-59570237D01*
X153004179Y-59509894D01*
X153135289Y-59422289D01*
X153246789Y-59310789D01*
X153322564Y-59197382D01*
X153376174Y-59152579D01*
X153378067Y-59151775D01*
X153479179Y-59109894D01*
X153610289Y-59022289D01*
X153721789Y-58910789D01*
X153809394Y-58779679D01*
X153869737Y-58633997D01*
X153900500Y-58479342D01*
X153900500Y-58321658D01*
X153900500Y-58321655D01*
X153900499Y-58321653D01*
X153872066Y-58178711D01*
X153869737Y-58167003D01*
X153838298Y-58091102D01*
X153809397Y-58021327D01*
X153809390Y-58021314D01*
X153721789Y-57890211D01*
X153721786Y-57890207D01*
X153610292Y-57778713D01*
X153610288Y-57778710D01*
X153479185Y-57691109D01*
X153479172Y-57691102D01*
X153333501Y-57630764D01*
X153333489Y-57630761D01*
X153178845Y-57600000D01*
X153178842Y-57600000D01*
X153021158Y-57600000D01*
X153021155Y-57600000D01*
X152866510Y-57630761D01*
X152866498Y-57630764D01*
X152720827Y-57691102D01*
X152720814Y-57691109D01*
X152589711Y-57778710D01*
X152589707Y-57778713D01*
X152478213Y-57890207D01*
X152478210Y-57890211D01*
X152402437Y-58003613D01*
X152348824Y-58048418D01*
X152346789Y-58049283D01*
X152245820Y-58091106D01*
X152245814Y-58091109D01*
X152114711Y-58178710D01*
X152114707Y-58178713D01*
X152003213Y-58290207D01*
X152003210Y-58290211D01*
X151915609Y-58421314D01*
X151915602Y-58421327D01*
X151855264Y-58566998D01*
X151855261Y-58567010D01*
X151824500Y-58721653D01*
X149700499Y-58721653D01*
X149669738Y-58567010D01*
X149669737Y-58567003D01*
X149633427Y-58479342D01*
X149609397Y-58421327D01*
X149609390Y-58421314D01*
X149521789Y-58290211D01*
X149521786Y-58290207D01*
X149410292Y-58178713D01*
X149410288Y-58178710D01*
X149279185Y-58091109D01*
X149279172Y-58091102D01*
X149133501Y-58030764D01*
X149133489Y-58030761D01*
X148978845Y-58000000D01*
X148978842Y-58000000D01*
X148821158Y-58000000D01*
X148821155Y-58000000D01*
X148666510Y-58030761D01*
X148666498Y-58030764D01*
X148520827Y-58091102D01*
X148520814Y-58091109D01*
X148389711Y-58178710D01*
X148389707Y-58178713D01*
X148278213Y-58290207D01*
X148278210Y-58290211D01*
X148190609Y-58421314D01*
X148190602Y-58421327D01*
X148130264Y-58566998D01*
X148130261Y-58567010D01*
X148099500Y-58721653D01*
X144971861Y-58721653D01*
X144933501Y-58705764D01*
X144933489Y-58705761D01*
X144778845Y-58675000D01*
X144778842Y-58675000D01*
X144621158Y-58675000D01*
X144621155Y-58675000D01*
X144466510Y-58705761D01*
X144466498Y-58705764D01*
X144320827Y-58766102D01*
X144320814Y-58766109D01*
X144189711Y-58853710D01*
X144189707Y-58853713D01*
X144078213Y-58965207D01*
X144078210Y-58965211D01*
X143990609Y-59096314D01*
X143990602Y-59096327D01*
X143930264Y-59241998D01*
X143930261Y-59242010D01*
X143899500Y-59396653D01*
X125500500Y-59396653D01*
X125500500Y-56271653D01*
X147149500Y-56271653D01*
X147149500Y-56429346D01*
X147180261Y-56583989D01*
X147180264Y-56584001D01*
X147240602Y-56729672D01*
X147240609Y-56729685D01*
X147328210Y-56860788D01*
X147328213Y-56860792D01*
X147439707Y-56972286D01*
X147439711Y-56972289D01*
X147570814Y-57059890D01*
X147570827Y-57059897D01*
X147716498Y-57120235D01*
X147716503Y-57120237D01*
X147871153Y-57150999D01*
X147871156Y-57151000D01*
X147871158Y-57151000D01*
X148028844Y-57151000D01*
X148028845Y-57150999D01*
X148183497Y-57120237D01*
X148329179Y-57059894D01*
X148460289Y-56972289D01*
X148571789Y-56860789D01*
X148659394Y-56729679D01*
X148719737Y-56583997D01*
X148722192Y-56571653D01*
X163049500Y-56571653D01*
X163049500Y-56729346D01*
X163080261Y-56883989D01*
X163080264Y-56884001D01*
X163140602Y-57029672D01*
X163140609Y-57029685D01*
X163228210Y-57160788D01*
X163228213Y-57160792D01*
X163339707Y-57272286D01*
X163339711Y-57272289D01*
X163470814Y-57359890D01*
X163470827Y-57359897D01*
X163616498Y-57420235D01*
X163616503Y-57420237D01*
X163771153Y-57450999D01*
X163771156Y-57451000D01*
X163771158Y-57451000D01*
X163928844Y-57451000D01*
X163928845Y-57450999D01*
X164083497Y-57420237D01*
X164229179Y-57359894D01*
X164360289Y-57272289D01*
X164471789Y-57160789D01*
X164559394Y-57029679D01*
X164619737Y-56883997D01*
X164650500Y-56729342D01*
X164650500Y-56571658D01*
X164650500Y-56571655D01*
X164650499Y-56571653D01*
X164622192Y-56429346D01*
X164619737Y-56417003D01*
X164559534Y-56271658D01*
X164559397Y-56271327D01*
X164559390Y-56271314D01*
X164471789Y-56140211D01*
X164471786Y-56140207D01*
X164360292Y-56028713D01*
X164360288Y-56028710D01*
X164229185Y-55941109D01*
X164229172Y-55941102D01*
X164083501Y-55880764D01*
X164083489Y-55880761D01*
X163928845Y-55850000D01*
X163928842Y-55850000D01*
X163771158Y-55850000D01*
X163771155Y-55850000D01*
X163616510Y-55880761D01*
X163616498Y-55880764D01*
X163470827Y-55941102D01*
X163470814Y-55941109D01*
X163339711Y-56028710D01*
X163339707Y-56028713D01*
X163228213Y-56140207D01*
X163228210Y-56140211D01*
X163140609Y-56271314D01*
X163140602Y-56271327D01*
X163080264Y-56416998D01*
X163080261Y-56417010D01*
X163049500Y-56571653D01*
X148722192Y-56571653D01*
X148728216Y-56541374D01*
X148728216Y-56541373D01*
X148750499Y-56429346D01*
X148750500Y-56429344D01*
X148750500Y-56271655D01*
X148750499Y-56271653D01*
X148724353Y-56140211D01*
X148719737Y-56117003D01*
X148719735Y-56116998D01*
X148659397Y-55971327D01*
X148659390Y-55971314D01*
X148571789Y-55840211D01*
X148571786Y-55840207D01*
X148460292Y-55728713D01*
X148460288Y-55728710D01*
X148329185Y-55641109D01*
X148329172Y-55641102D01*
X148183501Y-55580764D01*
X148183489Y-55580761D01*
X148028845Y-55550000D01*
X148028842Y-55550000D01*
X147871158Y-55550000D01*
X147871155Y-55550000D01*
X147716510Y-55580761D01*
X147716498Y-55580764D01*
X147570827Y-55641102D01*
X147570814Y-55641109D01*
X147439711Y-55728710D01*
X147439707Y-55728713D01*
X147328213Y-55840207D01*
X147328210Y-55840211D01*
X147240609Y-55971314D01*
X147240602Y-55971327D01*
X147180264Y-56116998D01*
X147180261Y-56117010D01*
X147149500Y-56271653D01*
X125500500Y-56271653D01*
X125500500Y-53571653D01*
X142949500Y-53571653D01*
X142949500Y-53729346D01*
X142980261Y-53883989D01*
X142980264Y-53884001D01*
X143040602Y-54029672D01*
X143040609Y-54029685D01*
X143128210Y-54160788D01*
X143128213Y-54160792D01*
X143239707Y-54272286D01*
X143239711Y-54272289D01*
X143370814Y-54359890D01*
X143370827Y-54359897D01*
X143516498Y-54420235D01*
X143516503Y-54420237D01*
X143671153Y-54450999D01*
X143671156Y-54451000D01*
X143671158Y-54451000D01*
X143828844Y-54451000D01*
X143828845Y-54450999D01*
X143983497Y-54420237D01*
X144129179Y-54359894D01*
X144260289Y-54272289D01*
X144371789Y-54160789D01*
X144459394Y-54029679D01*
X144519737Y-53883997D01*
X144550500Y-53729342D01*
X144550500Y-53571658D01*
X144550500Y-53571655D01*
X144550499Y-53571653D01*
X144519738Y-53417010D01*
X144519737Y-53417003D01*
X144519735Y-53416998D01*
X144459397Y-53271327D01*
X144459390Y-53271314D01*
X144371789Y-53140211D01*
X144371786Y-53140207D01*
X144260292Y-53028713D01*
X144260288Y-53028710D01*
X144129185Y-52941109D01*
X144129172Y-52941102D01*
X143983501Y-52880764D01*
X143983489Y-52880761D01*
X143828845Y-52850000D01*
X143828842Y-52850000D01*
X143671158Y-52850000D01*
X143671155Y-52850000D01*
X143516510Y-52880761D01*
X143516498Y-52880764D01*
X143370827Y-52941102D01*
X143370814Y-52941109D01*
X143239711Y-53028710D01*
X143239707Y-53028713D01*
X143128213Y-53140207D01*
X143128210Y-53140211D01*
X143040609Y-53271314D01*
X143040602Y-53271327D01*
X142980264Y-53416998D01*
X142980261Y-53417010D01*
X142949500Y-53571653D01*
X125500500Y-53571653D01*
X125500500Y-51496653D01*
X135449500Y-51496653D01*
X135449500Y-51654346D01*
X135480261Y-51808989D01*
X135480264Y-51809001D01*
X135540602Y-51954672D01*
X135540609Y-51954685D01*
X135628210Y-52085788D01*
X135628213Y-52085792D01*
X135739707Y-52197286D01*
X135739711Y-52197289D01*
X135870814Y-52284890D01*
X135870827Y-52284897D01*
X136016498Y-52345235D01*
X136016503Y-52345237D01*
X136171153Y-52375999D01*
X136171156Y-52376000D01*
X136171158Y-52376000D01*
X136328844Y-52376000D01*
X136328845Y-52375999D01*
X136483497Y-52345237D01*
X136629179Y-52284894D01*
X136760289Y-52197289D01*
X136871789Y-52085789D01*
X136959394Y-51954679D01*
X137019737Y-51808997D01*
X137050500Y-51654342D01*
X137050500Y-51496658D01*
X137050500Y-51496655D01*
X137029236Y-51389758D01*
X137025635Y-51371653D01*
X142649500Y-51371653D01*
X142649500Y-51529346D01*
X142680261Y-51683989D01*
X142680264Y-51684001D01*
X142740602Y-51829672D01*
X142740609Y-51829685D01*
X142828210Y-51960788D01*
X142828213Y-51960792D01*
X142939707Y-52072286D01*
X142939711Y-52072289D01*
X143070814Y-52159890D01*
X143070827Y-52159897D01*
X143161101Y-52197289D01*
X143216503Y-52220237D01*
X143371153Y-52250999D01*
X143371156Y-52251000D01*
X143371158Y-52251000D01*
X143528844Y-52251000D01*
X143528845Y-52250999D01*
X143683497Y-52220237D01*
X143829179Y-52159894D01*
X143960289Y-52072289D01*
X143960925Y-52071653D01*
X147349500Y-52071653D01*
X147349500Y-52229346D01*
X147380261Y-52383989D01*
X147380264Y-52384001D01*
X147440602Y-52529672D01*
X147440609Y-52529685D01*
X147528210Y-52660788D01*
X147528213Y-52660792D01*
X147639707Y-52772286D01*
X147639711Y-52772289D01*
X147770814Y-52859890D01*
X147770827Y-52859897D01*
X147916498Y-52920235D01*
X147916503Y-52920237D01*
X148071153Y-52950999D01*
X148071156Y-52951000D01*
X148071158Y-52951000D01*
X148228844Y-52951000D01*
X148228845Y-52950999D01*
X148383497Y-52920237D01*
X148529179Y-52859894D01*
X148660289Y-52772289D01*
X148771789Y-52660789D01*
X148859394Y-52529679D01*
X148919737Y-52383997D01*
X148950500Y-52229342D01*
X148950500Y-52071658D01*
X148950500Y-52071655D01*
X148950499Y-52071653D01*
X148928447Y-51960792D01*
X148919737Y-51917003D01*
X148883569Y-51829685D01*
X148859397Y-51771327D01*
X148859390Y-51771314D01*
X148771789Y-51640211D01*
X148771786Y-51640207D01*
X148660292Y-51528713D01*
X148660288Y-51528710D01*
X148529185Y-51441109D01*
X148529172Y-51441102D01*
X148383501Y-51380764D01*
X148383489Y-51380761D01*
X148228845Y-51350000D01*
X148228842Y-51350000D01*
X148071158Y-51350000D01*
X148071155Y-51350000D01*
X147916510Y-51380761D01*
X147916498Y-51380764D01*
X147770827Y-51441102D01*
X147770814Y-51441109D01*
X147639711Y-51528710D01*
X147639707Y-51528713D01*
X147528213Y-51640207D01*
X147528210Y-51640211D01*
X147440609Y-51771314D01*
X147440602Y-51771327D01*
X147380264Y-51916998D01*
X147380261Y-51917010D01*
X147349500Y-52071653D01*
X143960925Y-52071653D01*
X144054694Y-51977885D01*
X144071786Y-51960792D01*
X144071789Y-51960789D01*
X144159394Y-51829679D01*
X144219737Y-51683997D01*
X144250500Y-51529342D01*
X144250500Y-51371658D01*
X144250500Y-51371655D01*
X144250499Y-51371653D01*
X144219738Y-51217010D01*
X144219737Y-51217003D01*
X144211170Y-51196321D01*
X144159397Y-51071327D01*
X144159390Y-51071314D01*
X144071789Y-50940211D01*
X144071786Y-50940207D01*
X143960292Y-50828713D01*
X143960288Y-50828710D01*
X143829185Y-50741109D01*
X143829172Y-50741102D01*
X143683501Y-50680764D01*
X143683489Y-50680761D01*
X143528845Y-50650000D01*
X143528842Y-50650000D01*
X143371158Y-50650000D01*
X143371155Y-50650000D01*
X143216510Y-50680761D01*
X143216498Y-50680764D01*
X143070827Y-50741102D01*
X143070814Y-50741109D01*
X142939711Y-50828710D01*
X142939707Y-50828713D01*
X142828213Y-50940207D01*
X142828210Y-50940211D01*
X142740609Y-51071314D01*
X142740602Y-51071327D01*
X142680264Y-51216998D01*
X142680261Y-51217010D01*
X142649500Y-51371653D01*
X137025635Y-51371653D01*
X137019737Y-51342003D01*
X136967959Y-51216998D01*
X136959397Y-51196327D01*
X136959390Y-51196314D01*
X136871789Y-51065211D01*
X136871786Y-51065207D01*
X136760292Y-50953713D01*
X136760288Y-50953710D01*
X136629185Y-50866109D01*
X136629172Y-50866102D01*
X136483501Y-50805764D01*
X136483489Y-50805761D01*
X136328845Y-50775000D01*
X136328842Y-50775000D01*
X136171158Y-50775000D01*
X136171155Y-50775000D01*
X136016510Y-50805761D01*
X136016498Y-50805764D01*
X135870827Y-50866102D01*
X135870814Y-50866109D01*
X135739711Y-50953710D01*
X135739707Y-50953713D01*
X135628213Y-51065207D01*
X135628210Y-51065211D01*
X135540609Y-51196314D01*
X135540602Y-51196327D01*
X135480264Y-51341998D01*
X135480261Y-51342010D01*
X135449500Y-51496653D01*
X125500500Y-51496653D01*
X125500500Y-46571653D01*
X156899500Y-46571653D01*
X156899500Y-46729346D01*
X156930261Y-46883989D01*
X156930264Y-46884001D01*
X156990602Y-47029672D01*
X156990609Y-47029685D01*
X157078210Y-47160788D01*
X157078213Y-47160792D01*
X157189707Y-47272286D01*
X157189711Y-47272289D01*
X157320814Y-47359890D01*
X157320827Y-47359897D01*
X157466498Y-47420235D01*
X157466503Y-47420237D01*
X157621153Y-47450999D01*
X157621156Y-47451000D01*
X157621158Y-47451000D01*
X157778844Y-47451000D01*
X157778845Y-47450999D01*
X157933497Y-47420237D01*
X158079179Y-47359894D01*
X158210289Y-47272289D01*
X158321789Y-47160789D01*
X158409394Y-47029679D01*
X158469737Y-46883997D01*
X158500500Y-46729342D01*
X158500500Y-46571658D01*
X158500500Y-46571655D01*
X158500499Y-46571653D01*
X158469738Y-46417010D01*
X158469737Y-46417003D01*
X158469735Y-46416998D01*
X158409397Y-46271327D01*
X158409390Y-46271314D01*
X158321789Y-46140211D01*
X158321786Y-46140207D01*
X158210292Y-46028713D01*
X158210288Y-46028710D01*
X158079185Y-45941109D01*
X158079172Y-45941102D01*
X157933501Y-45880764D01*
X157933489Y-45880761D01*
X157778845Y-45850000D01*
X157778842Y-45850000D01*
X157621158Y-45850000D01*
X157621155Y-45850000D01*
X157466510Y-45880761D01*
X157466498Y-45880764D01*
X157320827Y-45941102D01*
X157320814Y-45941109D01*
X157189711Y-46028710D01*
X157189707Y-46028713D01*
X157078213Y-46140207D01*
X157078210Y-46140211D01*
X156990609Y-46271314D01*
X156990602Y-46271327D01*
X156930264Y-46416998D01*
X156930261Y-46417010D01*
X156899500Y-46571653D01*
X125500500Y-46571653D01*
X125500500Y-44809144D01*
X130822500Y-44809144D01*
X130822500Y-44991855D01*
X130858141Y-45171034D01*
X130858143Y-45171042D01*
X130928058Y-45339833D01*
X130928063Y-45339842D01*
X131029563Y-45491746D01*
X131029566Y-45491750D01*
X131158749Y-45620933D01*
X131158753Y-45620936D01*
X131310657Y-45722436D01*
X131310663Y-45722439D01*
X131310664Y-45722440D01*
X131479458Y-45792357D01*
X131658644Y-45827999D01*
X131658648Y-45828000D01*
X131658649Y-45828000D01*
X131841352Y-45828000D01*
X131841353Y-45827999D01*
X132020542Y-45792357D01*
X132189336Y-45722440D01*
X132341247Y-45620936D01*
X132470436Y-45491747D01*
X132571940Y-45339836D01*
X132641857Y-45171042D01*
X132677500Y-44991851D01*
X132677500Y-44809149D01*
X132641857Y-44629958D01*
X132578168Y-44476199D01*
X132571941Y-44461166D01*
X132571936Y-44461157D01*
X132470436Y-44309253D01*
X132470433Y-44309249D01*
X132341250Y-44180066D01*
X132341246Y-44180063D01*
X132189342Y-44078563D01*
X132189331Y-44078557D01*
X132020542Y-44008643D01*
X132020534Y-44008641D01*
X131841355Y-43973000D01*
X131841351Y-43973000D01*
X131658649Y-43973000D01*
X131658644Y-43973000D01*
X131479465Y-44008641D01*
X131479457Y-44008643D01*
X131310666Y-44078558D01*
X131310657Y-44078563D01*
X131158753Y-44180063D01*
X131158749Y-44180066D01*
X131029566Y-44309249D01*
X131029563Y-44309253D01*
X130928063Y-44461157D01*
X130928058Y-44461166D01*
X130858143Y-44629957D01*
X130858141Y-44629965D01*
X130822500Y-44809144D01*
X125500500Y-44809144D01*
X125500500Y-43971653D01*
X134549500Y-43971653D01*
X134549500Y-44129346D01*
X134580261Y-44283989D01*
X134580264Y-44284001D01*
X134640602Y-44429672D01*
X134640609Y-44429685D01*
X134728210Y-44560788D01*
X134728213Y-44560792D01*
X134839707Y-44672286D01*
X134839711Y-44672289D01*
X134970814Y-44759890D01*
X134970827Y-44759897D01*
X135089734Y-44809149D01*
X135116503Y-44820237D01*
X135271153Y-44850999D01*
X135271156Y-44851000D01*
X135271158Y-44851000D01*
X135428844Y-44851000D01*
X135428845Y-44850999D01*
X135583497Y-44820237D01*
X135706997Y-44769082D01*
X135729172Y-44759897D01*
X135729172Y-44759896D01*
X135729179Y-44759894D01*
X135748996Y-44746653D01*
X137074500Y-44746653D01*
X137074500Y-44904346D01*
X137105261Y-45058989D01*
X137105264Y-45059001D01*
X137165602Y-45204672D01*
X137165609Y-45204685D01*
X137253210Y-45335788D01*
X137253213Y-45335792D01*
X137364707Y-45447286D01*
X137364711Y-45447289D01*
X137495814Y-45534890D01*
X137495827Y-45534897D01*
X137641498Y-45595235D01*
X137641503Y-45595237D01*
X137770685Y-45620933D01*
X137796153Y-45625999D01*
X137796156Y-45626000D01*
X137796158Y-45626000D01*
X137953844Y-45626000D01*
X137953845Y-45625999D01*
X138108497Y-45595237D01*
X138254179Y-45534894D01*
X138385289Y-45447289D01*
X138496789Y-45335789D01*
X138584394Y-45204679D01*
X138644737Y-45058997D01*
X138675500Y-44904342D01*
X138675500Y-44746658D01*
X138675500Y-44746655D01*
X138664182Y-44689758D01*
X138664182Y-44689757D01*
X138660581Y-44671653D01*
X143649500Y-44671653D01*
X143649500Y-44829346D01*
X143680261Y-44983989D01*
X143680264Y-44984001D01*
X143740602Y-45129672D01*
X143740609Y-45129685D01*
X143828210Y-45260788D01*
X143828213Y-45260792D01*
X143939707Y-45372286D01*
X143939711Y-45372289D01*
X144070814Y-45459890D01*
X144070827Y-45459897D01*
X144169802Y-45500893D01*
X144216503Y-45520237D01*
X144371153Y-45550999D01*
X144371156Y-45551000D01*
X144371158Y-45551000D01*
X144528844Y-45551000D01*
X144528845Y-45550999D01*
X144683497Y-45520237D01*
X144829179Y-45459894D01*
X144960289Y-45372289D01*
X145071789Y-45260789D01*
X145159394Y-45129679D01*
X145219737Y-44983997D01*
X145250500Y-44829342D01*
X145250500Y-44746653D01*
X146924500Y-44746653D01*
X146924500Y-44904346D01*
X146955261Y-45058989D01*
X146955264Y-45059001D01*
X147015602Y-45204672D01*
X147015609Y-45204685D01*
X147103210Y-45335788D01*
X147103213Y-45335792D01*
X147214707Y-45447286D01*
X147214711Y-45447289D01*
X147345814Y-45534890D01*
X147345827Y-45534897D01*
X147491498Y-45595235D01*
X147491503Y-45595237D01*
X147620685Y-45620933D01*
X147646153Y-45625999D01*
X147646156Y-45626000D01*
X147646158Y-45626000D01*
X147803844Y-45626000D01*
X147803845Y-45625999D01*
X147958497Y-45595237D01*
X148104179Y-45534894D01*
X148123996Y-45521653D01*
X152509500Y-45521653D01*
X152509500Y-45679346D01*
X152540261Y-45833989D01*
X152540264Y-45834001D01*
X152600602Y-45979672D01*
X152600609Y-45979685D01*
X152688210Y-46110788D01*
X152688213Y-46110792D01*
X152799707Y-46222286D01*
X152799711Y-46222289D01*
X152930814Y-46309890D01*
X152930827Y-46309897D01*
X153076498Y-46370235D01*
X153076503Y-46370237D01*
X153231153Y-46400999D01*
X153231156Y-46401000D01*
X153231158Y-46401000D01*
X153388844Y-46401000D01*
X153388845Y-46400999D01*
X153543497Y-46370237D01*
X153689179Y-46309894D01*
X153820289Y-46222289D01*
X153931789Y-46110789D01*
X154019394Y-45979679D01*
X154079737Y-45833997D01*
X154110500Y-45679342D01*
X154110500Y-45521658D01*
X154110500Y-45521655D01*
X154110499Y-45521653D01*
X154110217Y-45520235D01*
X154079737Y-45367003D01*
X154066808Y-45335789D01*
X154019397Y-45221327D01*
X154019390Y-45221314D01*
X153931789Y-45090211D01*
X153931786Y-45090207D01*
X153820292Y-44978713D01*
X153820288Y-44978710D01*
X153748559Y-44930782D01*
X153689185Y-44891109D01*
X153689172Y-44891102D01*
X153550751Y-44833767D01*
X156072500Y-44833767D01*
X156072500Y-44967232D01*
X156098533Y-45098110D01*
X156098536Y-45098120D01*
X156149607Y-45221417D01*
X156149608Y-45221420D01*
X156223750Y-45332380D01*
X156223753Y-45332384D01*
X156318115Y-45426746D01*
X156318119Y-45426749D01*
X156429079Y-45500891D01*
X156429081Y-45500891D01*
X156429083Y-45500893D01*
X156552381Y-45551964D01*
X156552384Y-45551964D01*
X156552389Y-45551966D01*
X156683267Y-45577999D01*
X156683270Y-45578000D01*
X156683272Y-45578000D01*
X156816730Y-45578000D01*
X156816731Y-45577999D01*
X156881312Y-45565153D01*
X156947610Y-45551966D01*
X156947612Y-45551965D01*
X156947619Y-45551964D01*
X157070917Y-45500893D01*
X157181881Y-45426749D01*
X157276249Y-45332381D01*
X157350393Y-45221417D01*
X157401464Y-45098119D01*
X157409248Y-45058989D01*
X157422602Y-44991851D01*
X157427500Y-44967228D01*
X157427500Y-44833772D01*
X157427500Y-44833769D01*
X157427499Y-44833767D01*
X157401466Y-44702889D01*
X157401463Y-44702879D01*
X157350393Y-44579583D01*
X157350391Y-44579581D01*
X157350391Y-44579579D01*
X157276249Y-44468619D01*
X157276246Y-44468615D01*
X157181884Y-44374253D01*
X157181880Y-44374250D01*
X157070920Y-44300108D01*
X157070917Y-44300107D01*
X156947620Y-44249036D01*
X156947610Y-44249033D01*
X156816731Y-44223000D01*
X156816728Y-44223000D01*
X156683272Y-44223000D01*
X156683269Y-44223000D01*
X156552389Y-44249033D01*
X156552379Y-44249036D01*
X156429082Y-44300107D01*
X156429079Y-44300108D01*
X156318119Y-44374250D01*
X156318115Y-44374253D01*
X156223753Y-44468615D01*
X156223750Y-44468619D01*
X156149608Y-44579579D01*
X156149607Y-44579582D01*
X156098536Y-44702879D01*
X156098533Y-44702889D01*
X156072500Y-44833767D01*
X153550751Y-44833767D01*
X153543501Y-44830764D01*
X153543489Y-44830761D01*
X153388845Y-44800000D01*
X153388842Y-44800000D01*
X153231158Y-44800000D01*
X153231155Y-44800000D01*
X153076510Y-44830761D01*
X153076498Y-44830764D01*
X152930827Y-44891102D01*
X152930814Y-44891109D01*
X152799711Y-44978710D01*
X152799707Y-44978713D01*
X152688213Y-45090207D01*
X152688210Y-45090211D01*
X152600609Y-45221314D01*
X152600602Y-45221327D01*
X152540264Y-45366998D01*
X152540261Y-45367010D01*
X152509500Y-45521653D01*
X148123996Y-45521653D01*
X148235289Y-45447289D01*
X148235292Y-45447286D01*
X148254694Y-45427885D01*
X148346786Y-45335792D01*
X148346789Y-45335789D01*
X148434394Y-45204679D01*
X148494737Y-45058997D01*
X148525500Y-44904342D01*
X148525500Y-44746658D01*
X148525500Y-44746655D01*
X148525499Y-44746653D01*
X148514182Y-44689758D01*
X148494737Y-44592003D01*
X148481808Y-44560789D01*
X148434397Y-44446327D01*
X148434390Y-44446314D01*
X148346789Y-44315211D01*
X148346786Y-44315207D01*
X148235292Y-44203713D01*
X148235288Y-44203710D01*
X148104185Y-44116109D01*
X148104172Y-44116102D01*
X147958501Y-44055764D01*
X147958491Y-44055761D01*
X147865092Y-44037183D01*
X147865091Y-44037182D01*
X147803845Y-44025000D01*
X147803842Y-44025000D01*
X147646158Y-44025000D01*
X147646155Y-44025000D01*
X147491510Y-44055761D01*
X147491498Y-44055764D01*
X147345827Y-44116102D01*
X147345814Y-44116109D01*
X147214711Y-44203710D01*
X147214707Y-44203713D01*
X147103213Y-44315207D01*
X147103210Y-44315211D01*
X147015609Y-44446314D01*
X147015602Y-44446327D01*
X146955264Y-44591998D01*
X146955261Y-44592010D01*
X146924500Y-44746653D01*
X145250500Y-44746653D01*
X145250500Y-44671658D01*
X145250500Y-44671655D01*
X145250499Y-44671653D01*
X145234657Y-44592010D01*
X145219737Y-44517003D01*
X145202836Y-44476199D01*
X145159397Y-44371327D01*
X145159390Y-44371314D01*
X145071789Y-44240211D01*
X145071786Y-44240207D01*
X144960292Y-44128713D01*
X144960288Y-44128710D01*
X144829185Y-44041109D01*
X144829172Y-44041102D01*
X144683501Y-43980764D01*
X144683489Y-43980761D01*
X144528845Y-43950000D01*
X144528842Y-43950000D01*
X144371158Y-43950000D01*
X144371155Y-43950000D01*
X144216510Y-43980761D01*
X144216498Y-43980764D01*
X144070827Y-44041102D01*
X144070814Y-44041109D01*
X143939711Y-44128710D01*
X143939707Y-44128713D01*
X143828213Y-44240207D01*
X143828210Y-44240211D01*
X143740609Y-44371314D01*
X143740602Y-44371327D01*
X143680264Y-44516998D01*
X143680261Y-44517010D01*
X143649500Y-44671653D01*
X138660581Y-44671653D01*
X138652287Y-44629958D01*
X138644737Y-44592003D01*
X138631808Y-44560789D01*
X138584397Y-44446327D01*
X138584390Y-44446314D01*
X138496789Y-44315211D01*
X138496786Y-44315207D01*
X138385292Y-44203713D01*
X138385288Y-44203710D01*
X138254185Y-44116109D01*
X138254172Y-44116102D01*
X138108501Y-44055764D01*
X138108489Y-44055761D01*
X137953845Y-44025000D01*
X137953842Y-44025000D01*
X137796158Y-44025000D01*
X137796155Y-44025000D01*
X137641510Y-44055761D01*
X137641498Y-44055764D01*
X137495827Y-44116102D01*
X137495814Y-44116109D01*
X137364711Y-44203710D01*
X137364707Y-44203713D01*
X137253213Y-44315207D01*
X137253210Y-44315211D01*
X137165609Y-44446314D01*
X137165602Y-44446327D01*
X137105264Y-44591998D01*
X137105261Y-44592010D01*
X137074500Y-44746653D01*
X135748996Y-44746653D01*
X135860289Y-44672289D01*
X135860925Y-44671653D01*
X135879694Y-44652885D01*
X135971786Y-44560792D01*
X135971789Y-44560789D01*
X136059394Y-44429679D01*
X136119737Y-44283997D01*
X136150500Y-44129342D01*
X136150500Y-43971658D01*
X136150500Y-43971655D01*
X136150499Y-43971653D01*
X136140553Y-43921653D01*
X162099500Y-43921653D01*
X162099500Y-44079346D01*
X162130261Y-44233989D01*
X162130264Y-44234001D01*
X162190602Y-44379672D01*
X162190609Y-44379685D01*
X162278210Y-44510788D01*
X162278213Y-44510792D01*
X162389707Y-44622286D01*
X162389711Y-44622289D01*
X162520814Y-44709890D01*
X162520827Y-44709897D01*
X162666498Y-44770235D01*
X162666503Y-44770237D01*
X162816131Y-44800000D01*
X162821153Y-44800999D01*
X162821156Y-44801000D01*
X162821158Y-44801000D01*
X162978844Y-44801000D01*
X162978845Y-44800999D01*
X163133497Y-44770237D01*
X163279179Y-44709894D01*
X163410289Y-44622289D01*
X163521789Y-44510789D01*
X163609394Y-44379679D01*
X163612854Y-44371327D01*
X163642353Y-44300108D01*
X163669737Y-44233997D01*
X163700500Y-44079342D01*
X163700500Y-43921658D01*
X163700500Y-43921655D01*
X163700499Y-43921653D01*
X163679684Y-43817010D01*
X163669737Y-43767003D01*
X163630102Y-43671314D01*
X163609397Y-43621327D01*
X163609390Y-43621314D01*
X163521789Y-43490211D01*
X163521786Y-43490207D01*
X163410292Y-43378713D01*
X163410288Y-43378710D01*
X163318056Y-43317082D01*
X167147500Y-43317082D01*
X167147500Y-43533917D01*
X167181418Y-43748066D01*
X167248418Y-43954274D01*
X167311747Y-44078563D01*
X167346856Y-44147468D01*
X167474301Y-44322881D01*
X167627619Y-44476199D01*
X167803032Y-44603644D01*
X167854690Y-44629965D01*
X167996225Y-44702081D01*
X168020281Y-44709897D01*
X168202435Y-44769082D01*
X168301619Y-44784791D01*
X168416583Y-44803000D01*
X168416588Y-44803000D01*
X168633417Y-44803000D01*
X168737233Y-44786556D01*
X168847565Y-44769082D01*
X169053777Y-44702080D01*
X169246968Y-44603644D01*
X169422381Y-44476199D01*
X169575699Y-44322881D01*
X169703144Y-44147468D01*
X169801580Y-43954277D01*
X169868582Y-43748065D01*
X169888657Y-43621314D01*
X169902500Y-43533917D01*
X169902500Y-43317082D01*
X169880736Y-43179672D01*
X169868582Y-43102935D01*
X169821811Y-42958989D01*
X169801581Y-42896725D01*
X169792724Y-42879342D01*
X169703144Y-42703532D01*
X169575699Y-42528119D01*
X169422381Y-42374801D01*
X169246968Y-42247356D01*
X169232937Y-42240207D01*
X169053774Y-42148918D01*
X168847566Y-42081918D01*
X168633417Y-42048000D01*
X168633412Y-42048000D01*
X168416588Y-42048000D01*
X168416583Y-42048000D01*
X168202433Y-42081918D01*
X167996225Y-42148918D01*
X167803031Y-42247356D01*
X167744047Y-42290211D01*
X167627619Y-42374801D01*
X167627617Y-42374803D01*
X167627616Y-42374803D01*
X167474303Y-42528116D01*
X167474303Y-42528117D01*
X167474301Y-42528119D01*
X167446054Y-42566998D01*
X167346856Y-42703531D01*
X167248418Y-42896725D01*
X167181418Y-43102933D01*
X167147500Y-43317082D01*
X163318056Y-43317082D01*
X163279185Y-43291109D01*
X163279172Y-43291102D01*
X163133501Y-43230764D01*
X163133489Y-43230761D01*
X162978845Y-43200000D01*
X162978842Y-43200000D01*
X162821158Y-43200000D01*
X162821155Y-43200000D01*
X162666510Y-43230761D01*
X162666498Y-43230764D01*
X162520827Y-43291102D01*
X162520814Y-43291109D01*
X162389711Y-43378710D01*
X162389707Y-43378713D01*
X162278213Y-43490207D01*
X162278210Y-43490211D01*
X162190609Y-43621314D01*
X162190602Y-43621327D01*
X162130264Y-43766998D01*
X162130261Y-43767010D01*
X162099500Y-43921653D01*
X136140553Y-43921653D01*
X136119738Y-43817010D01*
X136119737Y-43817003D01*
X136119735Y-43816998D01*
X136059397Y-43671327D01*
X136059390Y-43671314D01*
X135971789Y-43540211D01*
X135971786Y-43540207D01*
X135860292Y-43428713D01*
X135860288Y-43428710D01*
X135729185Y-43341109D01*
X135729172Y-43341102D01*
X135583501Y-43280764D01*
X135583489Y-43280761D01*
X135428845Y-43250000D01*
X135428842Y-43250000D01*
X135271158Y-43250000D01*
X135271155Y-43250000D01*
X135116510Y-43280761D01*
X135116498Y-43280764D01*
X134970827Y-43341102D01*
X134970814Y-43341109D01*
X134839711Y-43428710D01*
X134839707Y-43428713D01*
X134728213Y-43540207D01*
X134728210Y-43540211D01*
X134640609Y-43671314D01*
X134640602Y-43671327D01*
X134580264Y-43816998D01*
X134580261Y-43817010D01*
X134549500Y-43971653D01*
X125500500Y-43971653D01*
X125500500Y-42646653D01*
X137224500Y-42646653D01*
X137224500Y-42804346D01*
X137255261Y-42958989D01*
X137255264Y-42959001D01*
X137315602Y-43104672D01*
X137315609Y-43104685D01*
X137403210Y-43235788D01*
X137403213Y-43235792D01*
X137514707Y-43347286D01*
X137514711Y-43347289D01*
X137645814Y-43434890D01*
X137645827Y-43434897D01*
X137779359Y-43490207D01*
X137791503Y-43495237D01*
X137917176Y-43520235D01*
X137946153Y-43525999D01*
X137946156Y-43526000D01*
X137946158Y-43526000D01*
X138103844Y-43526000D01*
X138103845Y-43525999D01*
X138258497Y-43495237D01*
X138404179Y-43434894D01*
X138535289Y-43347289D01*
X138646789Y-43235789D01*
X138734394Y-43104679D01*
X138794737Y-42958997D01*
X138825500Y-42804342D01*
X138825500Y-42671653D01*
X142049500Y-42671653D01*
X142049500Y-42829346D01*
X142080261Y-42983989D01*
X142080264Y-42984001D01*
X142140602Y-43129672D01*
X142140609Y-43129685D01*
X142228210Y-43260788D01*
X142228213Y-43260792D01*
X142339707Y-43372286D01*
X142339711Y-43372289D01*
X142470814Y-43459890D01*
X142470827Y-43459897D01*
X142616498Y-43520235D01*
X142616503Y-43520237D01*
X142771153Y-43550999D01*
X142771156Y-43551000D01*
X142771158Y-43551000D01*
X142928844Y-43551000D01*
X142928845Y-43550999D01*
X143083497Y-43520237D01*
X143229179Y-43459894D01*
X143360289Y-43372289D01*
X143471789Y-43260789D01*
X143559394Y-43129679D01*
X143619737Y-42983997D01*
X143650500Y-42829342D01*
X143650500Y-42721653D01*
X144749500Y-42721653D01*
X144749500Y-42879346D01*
X144780261Y-43033989D01*
X144780264Y-43034001D01*
X144840602Y-43179672D01*
X144840609Y-43179685D01*
X144928210Y-43310788D01*
X144928213Y-43310792D01*
X145039707Y-43422286D01*
X145039711Y-43422289D01*
X145170814Y-43509890D01*
X145170827Y-43509897D01*
X145270060Y-43551000D01*
X145316503Y-43570237D01*
X145471153Y-43600999D01*
X145471156Y-43601000D01*
X145471158Y-43601000D01*
X145628844Y-43601000D01*
X145628845Y-43600999D01*
X145783497Y-43570237D01*
X145929179Y-43509894D01*
X146060289Y-43422289D01*
X146171789Y-43310789D01*
X146259394Y-43179679D01*
X146319737Y-43033997D01*
X146350500Y-42879342D01*
X146350500Y-42721658D01*
X146350500Y-42721655D01*
X146334209Y-42639758D01*
X146334209Y-42639757D01*
X146330608Y-42621653D01*
X146899500Y-42621653D01*
X146899500Y-42779346D01*
X146930261Y-42933989D01*
X146930264Y-42934001D01*
X146990602Y-43079672D01*
X146990609Y-43079685D01*
X147078210Y-43210788D01*
X147078213Y-43210792D01*
X147189707Y-43322286D01*
X147189711Y-43322289D01*
X147320814Y-43409890D01*
X147320827Y-43409897D01*
X147466498Y-43470235D01*
X147466503Y-43470237D01*
X147592176Y-43495235D01*
X147621153Y-43500999D01*
X147621156Y-43501000D01*
X147621158Y-43501000D01*
X147778844Y-43501000D01*
X147778845Y-43500999D01*
X147933497Y-43470237D01*
X148079179Y-43409894D01*
X148210289Y-43322289D01*
X148321789Y-43210789D01*
X148409394Y-43079679D01*
X148469737Y-42933997D01*
X148500500Y-42779342D01*
X148500500Y-42621658D01*
X148500500Y-42621655D01*
X148500499Y-42621653D01*
X154149500Y-42621653D01*
X154149500Y-42779346D01*
X154180261Y-42933989D01*
X154180264Y-42934001D01*
X154240602Y-43079672D01*
X154240609Y-43079685D01*
X154328210Y-43210788D01*
X154328213Y-43210792D01*
X154439707Y-43322286D01*
X154439711Y-43322289D01*
X154570814Y-43409890D01*
X154570827Y-43409897D01*
X154716498Y-43470235D01*
X154716503Y-43470237D01*
X154842176Y-43495235D01*
X154871153Y-43500999D01*
X154871156Y-43501000D01*
X154871158Y-43501000D01*
X155028844Y-43501000D01*
X155028845Y-43500999D01*
X155183497Y-43470237D01*
X155329179Y-43409894D01*
X155460289Y-43322289D01*
X155571789Y-43210789D01*
X155659394Y-43079679D01*
X155719737Y-42933997D01*
X155750500Y-42779342D01*
X155750500Y-42621658D01*
X155750500Y-42621655D01*
X155750499Y-42621653D01*
X155729684Y-42517010D01*
X155719737Y-42467003D01*
X155683569Y-42379685D01*
X155659397Y-42321327D01*
X155659390Y-42321314D01*
X155571789Y-42190211D01*
X155571786Y-42190207D01*
X155460292Y-42078713D01*
X155460288Y-42078710D01*
X155370429Y-42018668D01*
X155329185Y-41991109D01*
X155329172Y-41991102D01*
X155183501Y-41930764D01*
X155183489Y-41930761D01*
X155137701Y-41921653D01*
X156099500Y-41921653D01*
X156099500Y-42079346D01*
X156130261Y-42233989D01*
X156130264Y-42234001D01*
X156190602Y-42379672D01*
X156190609Y-42379685D01*
X156278210Y-42510788D01*
X156278213Y-42510792D01*
X156389707Y-42622286D01*
X156389711Y-42622289D01*
X156520814Y-42709890D01*
X156520827Y-42709897D01*
X156666498Y-42770235D01*
X156666503Y-42770237D01*
X156821153Y-42800999D01*
X156821156Y-42801000D01*
X156821158Y-42801000D01*
X156978844Y-42801000D01*
X156978845Y-42800999D01*
X157133497Y-42770237D01*
X157279179Y-42709894D01*
X157410289Y-42622289D01*
X157521789Y-42510789D01*
X157609394Y-42379679D01*
X157612854Y-42371327D01*
X157633569Y-42321314D01*
X157669737Y-42233997D01*
X157700500Y-42079342D01*
X157700500Y-41921658D01*
X157700500Y-41921655D01*
X157700499Y-41921653D01*
X157669738Y-41767010D01*
X157669737Y-41767003D01*
X157669735Y-41766998D01*
X157609397Y-41621327D01*
X157609390Y-41621314D01*
X157521789Y-41490211D01*
X157521786Y-41490207D01*
X157410292Y-41378713D01*
X157410288Y-41378710D01*
X157279185Y-41291109D01*
X157279172Y-41291102D01*
X157133501Y-41230764D01*
X157133489Y-41230761D01*
X156978845Y-41200000D01*
X156978842Y-41200000D01*
X156821158Y-41200000D01*
X156821155Y-41200000D01*
X156666510Y-41230761D01*
X156666498Y-41230764D01*
X156520827Y-41291102D01*
X156520814Y-41291109D01*
X156389711Y-41378710D01*
X156389707Y-41378713D01*
X156278213Y-41490207D01*
X156278210Y-41490211D01*
X156190609Y-41621314D01*
X156190602Y-41621327D01*
X156130264Y-41766998D01*
X156130261Y-41767010D01*
X156099500Y-41921653D01*
X155137701Y-41921653D01*
X155028845Y-41900000D01*
X155028842Y-41900000D01*
X154871158Y-41900000D01*
X154871155Y-41900000D01*
X154716510Y-41930761D01*
X154716498Y-41930764D01*
X154570827Y-41991102D01*
X154570814Y-41991109D01*
X154439711Y-42078710D01*
X154439707Y-42078713D01*
X154328213Y-42190207D01*
X154328210Y-42190211D01*
X154240609Y-42321314D01*
X154240602Y-42321327D01*
X154180264Y-42466998D01*
X154180261Y-42467010D01*
X154149500Y-42621653D01*
X148500499Y-42621653D01*
X148479684Y-42517010D01*
X148469737Y-42467003D01*
X148433569Y-42379685D01*
X148409397Y-42321327D01*
X148409390Y-42321314D01*
X148321789Y-42190211D01*
X148321786Y-42190207D01*
X148210292Y-42078713D01*
X148210288Y-42078710D01*
X148079185Y-41991109D01*
X148079172Y-41991102D01*
X147933501Y-41930764D01*
X147933489Y-41930761D01*
X147778845Y-41900000D01*
X147778842Y-41900000D01*
X147621158Y-41900000D01*
X147621155Y-41900000D01*
X147466510Y-41930761D01*
X147466498Y-41930764D01*
X147320827Y-41991102D01*
X147320814Y-41991109D01*
X147189711Y-42078710D01*
X147189707Y-42078713D01*
X147078213Y-42190207D01*
X147078210Y-42190211D01*
X146990609Y-42321314D01*
X146990602Y-42321327D01*
X146930264Y-42466998D01*
X146930261Y-42467010D01*
X146899500Y-42621653D01*
X146330608Y-42621653D01*
X146319738Y-42567010D01*
X146319737Y-42567003D01*
X146303630Y-42528116D01*
X146259397Y-42421327D01*
X146259390Y-42421314D01*
X146171789Y-42290211D01*
X146171786Y-42290207D01*
X146060292Y-42178713D01*
X146060288Y-42178710D01*
X145929185Y-42091109D01*
X145929172Y-42091102D01*
X145783501Y-42030764D01*
X145783489Y-42030761D01*
X145628845Y-42000000D01*
X145628842Y-42000000D01*
X145471158Y-42000000D01*
X145471155Y-42000000D01*
X145316510Y-42030761D01*
X145316498Y-42030764D01*
X145170827Y-42091102D01*
X145170814Y-42091109D01*
X145039711Y-42178710D01*
X145039707Y-42178713D01*
X144928213Y-42290207D01*
X144928210Y-42290211D01*
X144840609Y-42421314D01*
X144840602Y-42421327D01*
X144780264Y-42566998D01*
X144780261Y-42567010D01*
X144749500Y-42721653D01*
X143650500Y-42721653D01*
X143650500Y-42671658D01*
X143650500Y-42671655D01*
X143650499Y-42671653D01*
X143645527Y-42646658D01*
X143619737Y-42517003D01*
X143609380Y-42491998D01*
X143559397Y-42371327D01*
X143559390Y-42371314D01*
X143471789Y-42240211D01*
X143471786Y-42240207D01*
X143360292Y-42128713D01*
X143360288Y-42128710D01*
X143229185Y-42041109D01*
X143229172Y-42041102D01*
X143083501Y-41980764D01*
X143083489Y-41980761D01*
X142928845Y-41950000D01*
X142928842Y-41950000D01*
X142771158Y-41950000D01*
X142771155Y-41950000D01*
X142616510Y-41980761D01*
X142616498Y-41980764D01*
X142470827Y-42041102D01*
X142470814Y-42041109D01*
X142339711Y-42128710D01*
X142339707Y-42128713D01*
X142228213Y-42240207D01*
X142228210Y-42240211D01*
X142140609Y-42371314D01*
X142140602Y-42371327D01*
X142080264Y-42516998D01*
X142080261Y-42517010D01*
X142049500Y-42671653D01*
X138825500Y-42671653D01*
X138825500Y-42646658D01*
X138825500Y-42646655D01*
X138825499Y-42646653D01*
X138820527Y-42621658D01*
X138794737Y-42492003D01*
X138784380Y-42466998D01*
X138734397Y-42346327D01*
X138734390Y-42346314D01*
X138646789Y-42215211D01*
X138646786Y-42215207D01*
X138535292Y-42103713D01*
X138535288Y-42103710D01*
X138404185Y-42016109D01*
X138404172Y-42016102D01*
X138258501Y-41955764D01*
X138258489Y-41955761D01*
X138103845Y-41925000D01*
X138103842Y-41925000D01*
X137946158Y-41925000D01*
X137946155Y-41925000D01*
X137791510Y-41955761D01*
X137791498Y-41955764D01*
X137645827Y-42016102D01*
X137645814Y-42016109D01*
X137514711Y-42103710D01*
X137514707Y-42103713D01*
X137403213Y-42215207D01*
X137403210Y-42215211D01*
X137315609Y-42346314D01*
X137315602Y-42346327D01*
X137255264Y-42491998D01*
X137255261Y-42492010D01*
X137224500Y-42646653D01*
X125500500Y-42646653D01*
X125500500Y-35003551D01*
X125500649Y-34997467D01*
X125511786Y-34770761D01*
X125511786Y-34770759D01*
X128949500Y-34770759D01*
X128949500Y-35130240D01*
X128989746Y-35487435D01*
X128989748Y-35487451D01*
X129069737Y-35837907D01*
X129069741Y-35837919D01*
X129188465Y-36177211D01*
X129344432Y-36501079D01*
X129344434Y-36501082D01*
X129535685Y-36805456D01*
X129759812Y-37086503D01*
X130013997Y-37340688D01*
X130295044Y-37564815D01*
X130599418Y-37756066D01*
X130923292Y-37912036D01*
X131178119Y-38001203D01*
X131262580Y-38030758D01*
X131262592Y-38030762D01*
X131613052Y-38110752D01*
X131970260Y-38150999D01*
X131970261Y-38151000D01*
X131970264Y-38151000D01*
X132329739Y-38151000D01*
X132329739Y-38150999D01*
X132686948Y-38110752D01*
X133037408Y-38030762D01*
X133376708Y-37912036D01*
X133700582Y-37756066D01*
X134004956Y-37564815D01*
X134286003Y-37340688D01*
X134540188Y-37086503D01*
X134764315Y-36805456D01*
X134880262Y-36620927D01*
X139907500Y-36620927D01*
X139907500Y-36740072D01*
X139938337Y-36855160D01*
X139968123Y-36906750D01*
X139997910Y-36958342D01*
X140082158Y-37042590D01*
X140185341Y-37102163D01*
X140300427Y-37133000D01*
X140300429Y-37133000D01*
X140419571Y-37133000D01*
X140419573Y-37133000D01*
X140534659Y-37102163D01*
X140637842Y-37042590D01*
X140722090Y-36958342D01*
X140781663Y-36855159D01*
X140812500Y-36740073D01*
X140812500Y-36620927D01*
X145687500Y-36620927D01*
X145687500Y-36740072D01*
X145718337Y-36855160D01*
X145748123Y-36906750D01*
X145777910Y-36958342D01*
X145862158Y-37042590D01*
X145965341Y-37102163D01*
X146080427Y-37133000D01*
X146080429Y-37133000D01*
X146199571Y-37133000D01*
X146199573Y-37133000D01*
X146314659Y-37102163D01*
X146417842Y-37042590D01*
X146502090Y-36958342D01*
X146561663Y-36855159D01*
X146592500Y-36740073D01*
X146592500Y-36620927D01*
X146561663Y-36505841D01*
X146502090Y-36402658D01*
X146417842Y-36318410D01*
X146366250Y-36288623D01*
X146314660Y-36258837D01*
X146257116Y-36243418D01*
X146199573Y-36228000D01*
X146080427Y-36228000D01*
X145965339Y-36258837D01*
X145862158Y-36318410D01*
X145862155Y-36318412D01*
X145777912Y-36402655D01*
X145777910Y-36402658D01*
X145718337Y-36505839D01*
X145687500Y-36620927D01*
X140812500Y-36620927D01*
X140781663Y-36505841D01*
X140722090Y-36402658D01*
X140637842Y-36318410D01*
X140586250Y-36288623D01*
X140534660Y-36258837D01*
X140477116Y-36243418D01*
X140419573Y-36228000D01*
X140300427Y-36228000D01*
X140185339Y-36258837D01*
X140082158Y-36318410D01*
X140082155Y-36318412D01*
X139997912Y-36402655D01*
X139997910Y-36402658D01*
X139938337Y-36505839D01*
X139907500Y-36620927D01*
X134880262Y-36620927D01*
X134955566Y-36501082D01*
X135111536Y-36177208D01*
X135230262Y-35837908D01*
X135310252Y-35487448D01*
X135350500Y-35130236D01*
X135350500Y-34770764D01*
X135350499Y-34770759D01*
X151249500Y-34770759D01*
X151249500Y-35130240D01*
X151289746Y-35487435D01*
X151289748Y-35487451D01*
X151369737Y-35837907D01*
X151369741Y-35837919D01*
X151488465Y-36177211D01*
X151644432Y-36501079D01*
X151644434Y-36501082D01*
X151835685Y-36805456D01*
X152059812Y-37086503D01*
X152313997Y-37340688D01*
X152595044Y-37564815D01*
X152899418Y-37756066D01*
X153223292Y-37912036D01*
X153478119Y-38001203D01*
X153562580Y-38030758D01*
X153562592Y-38030762D01*
X153913052Y-38110752D01*
X154270260Y-38150999D01*
X154270261Y-38151000D01*
X154270264Y-38151000D01*
X154629739Y-38151000D01*
X154629739Y-38150999D01*
X154986948Y-38110752D01*
X155337408Y-38030762D01*
X155676708Y-37912036D01*
X156000582Y-37756066D01*
X156304956Y-37564815D01*
X156586003Y-37340688D01*
X156840188Y-37086503D01*
X157064315Y-36805456D01*
X157180262Y-36620927D01*
X159407500Y-36620927D01*
X159407500Y-36740072D01*
X159438337Y-36855160D01*
X159468123Y-36906750D01*
X159497910Y-36958342D01*
X159582158Y-37042590D01*
X159685341Y-37102163D01*
X159800427Y-37133000D01*
X159800429Y-37133000D01*
X159919571Y-37133000D01*
X159919573Y-37133000D01*
X160034659Y-37102163D01*
X160137842Y-37042590D01*
X160222090Y-36958342D01*
X160281663Y-36855159D01*
X160312500Y-36740073D01*
X160312500Y-36620927D01*
X165187500Y-36620927D01*
X165187500Y-36740072D01*
X165218337Y-36855160D01*
X165248123Y-36906750D01*
X165277910Y-36958342D01*
X165362158Y-37042590D01*
X165465341Y-37102163D01*
X165580427Y-37133000D01*
X165580429Y-37133000D01*
X165699571Y-37133000D01*
X165699573Y-37133000D01*
X165814659Y-37102163D01*
X165917842Y-37042590D01*
X166002090Y-36958342D01*
X166061663Y-36855159D01*
X166092500Y-36740073D01*
X166092500Y-36620927D01*
X166061663Y-36505841D01*
X166002090Y-36402658D01*
X165917842Y-36318410D01*
X165866250Y-36288623D01*
X165814660Y-36258837D01*
X165757116Y-36243418D01*
X165699573Y-36228000D01*
X165580427Y-36228000D01*
X165465339Y-36258837D01*
X165362158Y-36318410D01*
X165362155Y-36318412D01*
X165277912Y-36402655D01*
X165277910Y-36402658D01*
X165218337Y-36505839D01*
X165187500Y-36620927D01*
X160312500Y-36620927D01*
X160281663Y-36505841D01*
X160222090Y-36402658D01*
X160137842Y-36318410D01*
X160086250Y-36288623D01*
X160034660Y-36258837D01*
X159977116Y-36243418D01*
X159919573Y-36228000D01*
X159800427Y-36228000D01*
X159685339Y-36258837D01*
X159582158Y-36318410D01*
X159582155Y-36318412D01*
X159497912Y-36402655D01*
X159497910Y-36402658D01*
X159438337Y-36505839D01*
X159407500Y-36620927D01*
X157180262Y-36620927D01*
X157255566Y-36501082D01*
X157411536Y-36177208D01*
X157530262Y-35837908D01*
X157610252Y-35487448D01*
X157650500Y-35130236D01*
X157650500Y-35021653D01*
X162049500Y-35021653D01*
X162049500Y-35179346D01*
X162080261Y-35333989D01*
X162080264Y-35334001D01*
X162140602Y-35479672D01*
X162140609Y-35479685D01*
X162228210Y-35610788D01*
X162228213Y-35610792D01*
X162339707Y-35722286D01*
X162339711Y-35722289D01*
X162470814Y-35809890D01*
X162470827Y-35809897D01*
X162616498Y-35870235D01*
X162616503Y-35870237D01*
X162771153Y-35900999D01*
X162771156Y-35901000D01*
X162771158Y-35901000D01*
X162928844Y-35901000D01*
X162928845Y-35900999D01*
X163083497Y-35870237D01*
X163229179Y-35809894D01*
X163360289Y-35722289D01*
X163471789Y-35610789D01*
X163559394Y-35479679D01*
X163619737Y-35333997D01*
X163650500Y-35179342D01*
X163650500Y-35021658D01*
X163650500Y-35021655D01*
X163650499Y-35021653D01*
X163619738Y-34867010D01*
X163619737Y-34867003D01*
X163575913Y-34761201D01*
X163559397Y-34721327D01*
X163559390Y-34721314D01*
X163471789Y-34590211D01*
X163471786Y-34590207D01*
X163360292Y-34478713D01*
X163360288Y-34478710D01*
X163229185Y-34391109D01*
X163229172Y-34391102D01*
X163083501Y-34330764D01*
X163083489Y-34330761D01*
X162928845Y-34300000D01*
X162928842Y-34300000D01*
X162771158Y-34300000D01*
X162771155Y-34300000D01*
X162616510Y-34330761D01*
X162616498Y-34330764D01*
X162470827Y-34391102D01*
X162470814Y-34391109D01*
X162339711Y-34478710D01*
X162339707Y-34478713D01*
X162228213Y-34590207D01*
X162228210Y-34590211D01*
X162140609Y-34721314D01*
X162140602Y-34721327D01*
X162080264Y-34866998D01*
X162080261Y-34867010D01*
X162049500Y-35021653D01*
X157650500Y-35021653D01*
X157650500Y-34770764D01*
X157610252Y-34413552D01*
X157530262Y-34063092D01*
X157411536Y-33723792D01*
X157255566Y-33399918D01*
X157064315Y-33095544D01*
X156840188Y-32814497D01*
X156586003Y-32560312D01*
X156304956Y-32336185D01*
X156000582Y-32144934D01*
X156000579Y-32144932D01*
X155676711Y-31988965D01*
X155337419Y-31870241D01*
X155337407Y-31870237D01*
X154986951Y-31790248D01*
X154986935Y-31790246D01*
X154629740Y-31750000D01*
X154629736Y-31750000D01*
X154270264Y-31750000D01*
X154270259Y-31750000D01*
X153913064Y-31790246D01*
X153913048Y-31790248D01*
X153562592Y-31870237D01*
X153562580Y-31870241D01*
X153223288Y-31988965D01*
X152899420Y-32144932D01*
X152595045Y-32336184D01*
X152313997Y-32560311D01*
X152059811Y-32814497D01*
X151835684Y-33095545D01*
X151644432Y-33399920D01*
X151488465Y-33723788D01*
X151369741Y-34063080D01*
X151369737Y-34063092D01*
X151289748Y-34413548D01*
X151289746Y-34413564D01*
X151249500Y-34770759D01*
X135350499Y-34770759D01*
X135310252Y-34413552D01*
X135230262Y-34063092D01*
X135111536Y-33723792D01*
X134955566Y-33399918D01*
X134764315Y-33095544D01*
X134540188Y-32814497D01*
X134286003Y-32560312D01*
X134004956Y-32336185D01*
X133700582Y-32144934D01*
X133700579Y-32144932D01*
X133376711Y-31988965D01*
X133037419Y-31870241D01*
X133037407Y-31870237D01*
X132686951Y-31790248D01*
X132686935Y-31790246D01*
X132329740Y-31750000D01*
X132329736Y-31750000D01*
X131970264Y-31750000D01*
X131970259Y-31750000D01*
X131613064Y-31790246D01*
X131613048Y-31790248D01*
X131262592Y-31870237D01*
X131262580Y-31870241D01*
X130923288Y-31988965D01*
X130599420Y-32144932D01*
X130295045Y-32336184D01*
X130013997Y-32560311D01*
X129759811Y-32814497D01*
X129535684Y-33095545D01*
X129344432Y-33399920D01*
X129188465Y-33723788D01*
X129069741Y-34063080D01*
X129069737Y-34063092D01*
X128989748Y-34413548D01*
X128989746Y-34413564D01*
X128949500Y-34770759D01*
X125511786Y-34770759D01*
X125518256Y-34639064D01*
X125519449Y-34626957D01*
X125524900Y-34590211D01*
X125571654Y-34275020D01*
X125574022Y-34263113D01*
X125660475Y-33917973D01*
X125663998Y-33906358D01*
X125783869Y-33571340D01*
X125788508Y-33560143D01*
X125940643Y-33238479D01*
X125946358Y-33227787D01*
X126129278Y-32922605D01*
X126136021Y-32912512D01*
X126347979Y-32626719D01*
X126355682Y-32617334D01*
X126594628Y-32353698D01*
X126603198Y-32345128D01*
X126866834Y-32106182D01*
X126876219Y-32098479D01*
X127162012Y-31886521D01*
X127172105Y-31879778D01*
X127477287Y-31696858D01*
X127487979Y-31691143D01*
X127809643Y-31539008D01*
X127820840Y-31534369D01*
X128155858Y-31414498D01*
X128167473Y-31410975D01*
X128512613Y-31324522D01*
X128524520Y-31322154D01*
X128876460Y-31269948D01*
X128888564Y-31268756D01*
X129246967Y-31251148D01*
X129253051Y-31251000D01*
X129294170Y-31251000D01*
X167705830Y-31251000D01*
X167746949Y-31251000D01*
X167753032Y-31251148D01*
G37*
%TD.AperFunction*%
%TD*%
M02*
