%TF.GenerationSoftware,KiCad,Pcbnew,9.0.4-9.0.4-0~ubuntu22.04.1*%
%TF.CreationDate,2025-09-03T15:31:35-04:00*%
%TF.ProjectId,receiver_panel_dualUSB,72656365-6976-4657-925f-70616e656c5f,rev?*%
%TF.SameCoordinates,Original*%
%TF.FileFunction,Copper,L1,Top*%
%TF.FilePolarity,Positive*%
%FSLAX46Y46*%
G04 Gerber Fmt 4.6, Leading zero omitted, Abs format (unit mm)*
G04 Created by KiCad (PCBNEW 9.0.4-9.0.4-0~ubuntu22.04.1) date 2025-09-03 15:31:35*
%MOMM*%
%LPD*%
G01*
G04 APERTURE LIST*
G04 Aperture macros list*
%AMRoundRect*
0 Rectangle with rounded corners*
0 $1 Rounding radius*
0 $2 $3 $4 $5 $6 $7 $8 $9 X,Y pos of 4 corners*
0 Add a 4 corners polygon primitive as box body*
4,1,4,$2,$3,$4,$5,$6,$7,$8,$9,$2,$3,0*
0 Add four circle primitives for the rounded corners*
1,1,$1+$1,$2,$3*
1,1,$1+$1,$4,$5*
1,1,$1+$1,$6,$7*
1,1,$1+$1,$8,$9*
0 Add four rect primitives between the rounded corners*
20,1,$1+$1,$2,$3,$4,$5,0*
20,1,$1+$1,$4,$5,$6,$7,0*
20,1,$1+$1,$6,$7,$8,$9,0*
20,1,$1+$1,$8,$9,$2,$3,0*%
%AMFreePoly0*
4,1,18,-0.437500,0.050000,-0.433694,0.069134,-0.422855,0.085355,-0.406634,0.096194,-0.387500,0.100000,0.387500,0.100000,0.437500,0.050000,0.437500,-0.050000,0.433694,-0.069134,0.422855,-0.085355,0.406634,-0.096194,0.387500,-0.100000,-0.387500,-0.100000,-0.406634,-0.096194,-0.422855,-0.085355,-0.433694,-0.069134,-0.437500,-0.050000,-0.437500,0.050000,-0.437500,0.050000,$1*%
%AMFreePoly1*
4,1,18,-0.437500,0.050000,-0.433694,0.069134,-0.422855,0.085355,-0.406634,0.096194,-0.387500,0.100000,0.387500,0.100000,0.406634,0.096194,0.422855,0.085355,0.433694,0.069134,0.437500,0.050000,0.437500,-0.050000,0.387500,-0.100000,-0.387500,-0.100000,-0.406634,-0.096194,-0.422855,-0.085355,-0.433694,-0.069134,-0.437500,-0.050000,-0.437500,0.050000,-0.437500,0.050000,$1*%
%AMFreePoly2*
4,1,18,-0.100000,0.387500,-0.050000,0.437500,0.050000,0.437500,0.069134,0.433694,0.085355,0.422855,0.096194,0.406634,0.100000,0.387500,0.100000,-0.387500,0.096194,-0.406634,0.085355,-0.422855,0.069134,-0.433694,0.050000,-0.437500,-0.050000,-0.437500,-0.069134,-0.433694,-0.085355,-0.422855,-0.096194,-0.406634,-0.100000,-0.387500,-0.100000,0.387500,-0.100000,0.387500,$1*%
%AMFreePoly3*
4,1,18,-0.100000,0.387500,-0.096194,0.406634,-0.085355,0.422855,-0.069134,0.433694,-0.050000,0.437500,0.050000,0.437500,0.100000,0.387500,0.100000,-0.387500,0.096194,-0.406634,0.085355,-0.422855,0.069134,-0.433694,0.050000,-0.437500,-0.050000,-0.437500,-0.069134,-0.433694,-0.085355,-0.422855,-0.096194,-0.406634,-0.100000,-0.387500,-0.100000,0.387500,-0.100000,0.387500,$1*%
%AMFreePoly4*
4,1,18,-0.437500,0.050000,-0.433694,0.069134,-0.422855,0.085355,-0.406634,0.096194,-0.387500,0.100000,0.387500,0.100000,0.406634,0.096194,0.422855,0.085355,0.433694,0.069134,0.437500,0.050000,0.437500,-0.050000,0.433694,-0.069134,0.422855,-0.085355,0.406634,-0.096194,0.387500,-0.100000,-0.387500,-0.100000,-0.437500,-0.050000,-0.437500,0.050000,-0.437500,0.050000,$1*%
%AMFreePoly5*
4,1,18,-0.437500,0.050000,-0.387500,0.100000,0.387500,0.100000,0.406634,0.096194,0.422855,0.085355,0.433694,0.069134,0.437500,0.050000,0.437500,-0.050000,0.433694,-0.069134,0.422855,-0.085355,0.406634,-0.096194,0.387500,-0.100000,-0.387500,-0.100000,-0.406634,-0.096194,-0.422855,-0.085355,-0.433694,-0.069134,-0.437500,-0.050000,-0.437500,0.050000,-0.437500,0.050000,$1*%
%AMFreePoly6*
4,1,18,-0.100000,0.387500,-0.096194,0.406634,-0.085355,0.422855,-0.069134,0.433694,-0.050000,0.437500,0.050000,0.437500,0.069134,0.433694,0.085355,0.422855,0.096194,0.406634,0.100000,0.387500,0.100000,-0.387500,0.050000,-0.437500,-0.050000,-0.437500,-0.069134,-0.433694,-0.085355,-0.422855,-0.096194,-0.406634,-0.100000,-0.387500,-0.100000,0.387500,-0.100000,0.387500,$1*%
%AMFreePoly7*
4,1,18,-0.100000,0.387500,-0.096194,0.406634,-0.085355,0.422855,-0.069134,0.433694,-0.050000,0.437500,0.050000,0.437500,0.069134,0.433694,0.085355,0.422855,0.096194,0.406634,0.100000,0.387500,0.100000,-0.387500,0.096194,-0.406634,0.085355,-0.422855,0.069134,-0.433694,0.050000,-0.437500,-0.050000,-0.437500,-0.100000,-0.387500,-0.100000,0.387500,-0.100000,0.387500,$1*%
G04 Aperture macros list end*
%TA.AperFunction,SMDPad,CuDef*%
%ADD10C,1.000000*%
%TD*%
%TA.AperFunction,SMDPad,CuDef*%
%ADD11RoundRect,0.140000X0.170000X-0.140000X0.170000X0.140000X-0.170000X0.140000X-0.170000X-0.140000X0*%
%TD*%
%TA.AperFunction,SMDPad,CuDef*%
%ADD12RoundRect,0.073750X0.221250X-0.531250X0.221250X0.531250X-0.221250X0.531250X-0.221250X-0.531250X0*%
%TD*%
%TA.AperFunction,SMDPad,CuDef*%
%ADD13RoundRect,0.135000X-0.135000X-0.185000X0.135000X-0.185000X0.135000X0.185000X-0.135000X0.185000X0*%
%TD*%
%TA.AperFunction,SMDPad,CuDef*%
%ADD14RoundRect,0.135000X-0.185000X0.135000X-0.185000X-0.135000X0.185000X-0.135000X0.185000X0.135000X0*%
%TD*%
%TA.AperFunction,SMDPad,CuDef*%
%ADD15RoundRect,0.140000X0.140000X0.170000X-0.140000X0.170000X-0.140000X-0.170000X0.140000X-0.170000X0*%
%TD*%
%TA.AperFunction,SMDPad,CuDef*%
%ADD16RoundRect,0.140000X-0.170000X0.140000X-0.170000X-0.140000X0.170000X-0.140000X0.170000X0.140000X0*%
%TD*%
%TA.AperFunction,SMDPad,CuDef*%
%ADD17RoundRect,0.140000X-0.140000X-0.170000X0.140000X-0.170000X0.140000X0.170000X-0.140000X0.170000X0*%
%TD*%
%TA.AperFunction,SMDPad,CuDef*%
%ADD18RoundRect,0.135000X0.135000X0.185000X-0.135000X0.185000X-0.135000X-0.185000X0.135000X-0.185000X0*%
%TD*%
%TA.AperFunction,ComponentPad*%
%ADD19C,0.800000*%
%TD*%
%TA.AperFunction,ComponentPad*%
%ADD20C,5.400000*%
%TD*%
%TA.AperFunction,SMDPad,CuDef*%
%ADD21RoundRect,0.250000X-0.250000X-0.475000X0.250000X-0.475000X0.250000X0.475000X-0.250000X0.475000X0*%
%TD*%
%TA.AperFunction,SMDPad,CuDef*%
%ADD22RoundRect,0.312500X0.437500X0.312500X-0.437500X0.312500X-0.437500X-0.312500X0.437500X-0.312500X0*%
%TD*%
%TA.AperFunction,SMDPad,CuDef*%
%ADD23R,0.660400X1.549400*%
%TD*%
%TA.AperFunction,SMDPad,CuDef*%
%ADD24R,1.295400X1.905000*%
%TD*%
%TA.AperFunction,SMDPad,CuDef*%
%ADD25R,0.600000X1.150000*%
%TD*%
%TA.AperFunction,SMDPad,CuDef*%
%ADD26R,0.300000X1.150000*%
%TD*%
%TA.AperFunction,ComponentPad*%
%ADD27O,1.000000X2.100000*%
%TD*%
%TA.AperFunction,ComponentPad*%
%ADD28O,1.000000X1.800000*%
%TD*%
%TA.AperFunction,SMDPad,CuDef*%
%ADD29R,0.990600X3.505200*%
%TD*%
%TA.AperFunction,SMDPad,CuDef*%
%ADD30R,1.498600X3.200000*%
%TD*%
%TA.AperFunction,SMDPad,CuDef*%
%ADD31RoundRect,0.135000X0.185000X-0.135000X0.185000X0.135000X-0.185000X0.135000X-0.185000X-0.135000X0*%
%TD*%
%TA.AperFunction,SMDPad,CuDef*%
%ADD32R,1.200000X1.400000*%
%TD*%
%TA.AperFunction,SMDPad,CuDef*%
%ADD33RoundRect,0.147500X0.147500X0.172500X-0.147500X0.172500X-0.147500X-0.172500X0.147500X-0.172500X0*%
%TD*%
%TA.AperFunction,SMDPad,CuDef*%
%ADD34R,0.530000X0.470000*%
%TD*%
%TA.AperFunction,SMDPad,CuDef*%
%ADD35RoundRect,0.250000X0.475000X-0.250000X0.475000X0.250000X-0.475000X0.250000X-0.475000X-0.250000X0*%
%TD*%
%TA.AperFunction,SMDPad,CuDef*%
%ADD36RoundRect,0.033750X-0.101250X0.361250X-0.101250X-0.361250X0.101250X-0.361250X0.101250X0.361250X0*%
%TD*%
%TA.AperFunction,SMDPad,CuDef*%
%ADD37RoundRect,0.033750X-0.361250X0.101250X-0.361250X-0.101250X0.361250X-0.101250X0.361250X0.101250X0*%
%TD*%
%TA.AperFunction,SMDPad,CuDef*%
%ADD38RoundRect,0.250000X1.000000X0.650000X-1.000000X0.650000X-1.000000X-0.650000X1.000000X-0.650000X0*%
%TD*%
%TA.AperFunction,SMDPad,CuDef*%
%ADD39R,1.050000X0.650000*%
%TD*%
%TA.AperFunction,SMDPad,CuDef*%
%ADD40RoundRect,0.062500X-0.062500X0.092500X-0.062500X-0.092500X0.062500X-0.092500X0.062500X0.092500X0*%
%TD*%
%TA.AperFunction,SMDPad,CuDef*%
%ADD41R,1.300000X0.300000*%
%TD*%
%TA.AperFunction,SMDPad,CuDef*%
%ADD42FreePoly0,270.000000*%
%TD*%
%TA.AperFunction,SMDPad,CuDef*%
%ADD43RoundRect,0.050000X-0.050000X0.387500X-0.050000X-0.387500X0.050000X-0.387500X0.050000X0.387500X0*%
%TD*%
%TA.AperFunction,SMDPad,CuDef*%
%ADD44FreePoly1,270.000000*%
%TD*%
%TA.AperFunction,SMDPad,CuDef*%
%ADD45FreePoly2,270.000000*%
%TD*%
%TA.AperFunction,SMDPad,CuDef*%
%ADD46RoundRect,0.050000X-0.387500X0.050000X-0.387500X-0.050000X0.387500X-0.050000X0.387500X0.050000X0*%
%TD*%
%TA.AperFunction,SMDPad,CuDef*%
%ADD47FreePoly3,270.000000*%
%TD*%
%TA.AperFunction,SMDPad,CuDef*%
%ADD48FreePoly4,270.000000*%
%TD*%
%TA.AperFunction,SMDPad,CuDef*%
%ADD49FreePoly5,270.000000*%
%TD*%
%TA.AperFunction,SMDPad,CuDef*%
%ADD50FreePoly6,270.000000*%
%TD*%
%TA.AperFunction,SMDPad,CuDef*%
%ADD51FreePoly7,270.000000*%
%TD*%
%TA.AperFunction,SMDPad,CuDef*%
%ADD52RoundRect,0.153000X-1.547000X-1.547000X1.547000X-1.547000X1.547000X1.547000X-1.547000X1.547000X0*%
%TD*%
%TA.AperFunction,SMDPad,CuDef*%
%ADD53R,1.700000X0.700000*%
%TD*%
%TA.AperFunction,ComponentPad*%
%ADD54C,4.080000*%
%TD*%
%TA.AperFunction,ViaPad*%
%ADD55C,0.600000*%
%TD*%
%TA.AperFunction,Conductor*%
%ADD56C,0.150000*%
%TD*%
%TA.AperFunction,Conductor*%
%ADD57C,0.200000*%
%TD*%
%TA.AperFunction,Conductor*%
%ADD58C,0.325000*%
%TD*%
%TA.AperFunction,Conductor*%
%ADD59C,0.500000*%
%TD*%
%TA.AperFunction,Conductor*%
%ADD60C,0.400000*%
%TD*%
%TA.AperFunction,Conductor*%
%ADD61C,0.300000*%
%TD*%
G04 APERTURE END LIST*
D10*
%TO.P,KiKit_FID_T_2,*%
%TO.N,*%
X165750000Y-22500000D03*
%TD*%
D11*
%TO.P,C20,1*%
%TO.N,Board_0-/XIN*%
X138650000Y-57350500D03*
%TO.P,C20,2*%
%TO.N,Board_0-GND*%
X138650000Y-56390500D03*
%TD*%
D12*
%TO.P,U2,1*%
%TO.N,Board_0-/USB_D+*%
X161950000Y-47580500D03*
%TO.P,U2,2*%
%TO.N,Board_0-GND*%
X162900000Y-47580500D03*
%TO.P,U2,3*%
%TO.N,Board_0-/USB_D-*%
X163850000Y-47580500D03*
%TO.P,U2,4*%
%TO.N,Board_0-/USB_C-*%
X163850000Y-45070500D03*
%TO.P,U2,5*%
%TO.N,Board_0-/VPHONE*%
X162900000Y-45070500D03*
%TO.P,U2,6*%
%TO.N,Board_0-/USB_C+*%
X161950000Y-45070500D03*
%TD*%
D13*
%TO.P,R6,1*%
%TO.N,Board_0-Net-(C21-Pad1)*%
X140315000Y-58325500D03*
%TO.P,R6,2*%
%TO.N,Board_0-/XOUT*%
X141335000Y-58325500D03*
%TD*%
D14*
%TO.P,R1,1*%
%TO.N,Board_0-GND*%
X148550000Y-66340500D03*
%TO.P,R1,2*%
%TO.N,Board_0-Net-(R1-Pad2)*%
X148550000Y-67360500D03*
%TD*%
D15*
%TO.P,C27,1*%
%TO.N,Board_0-/BAT_PWR*%
X165730000Y-61750500D03*
%TO.P,C27,2*%
%TO.N,Board_0-GND*%
X164770000Y-61750500D03*
%TD*%
D14*
%TO.P,R13,1*%
%TO.N,Board_0-GND*%
X163700000Y-54390500D03*
%TO.P,R13,2*%
%TO.N,Board_0-Net-(U4-NTC)*%
X163700000Y-55410500D03*
%TD*%
D16*
%TO.P,C14,1*%
%TO.N,Board_0-+3V3*%
X147050000Y-63070500D03*
%TO.P,C14,2*%
%TO.N,Board_0-GND*%
X147050000Y-64030500D03*
%TD*%
D11*
%TO.P,C15,1*%
%TO.N,Board_0-+3V3*%
X145350000Y-53830500D03*
%TO.P,C15,2*%
%TO.N,Board_0-GND*%
X145350000Y-52870500D03*
%TD*%
D17*
%TO.P,C22,1*%
%TO.N,Board_0-+3V3*%
X155470000Y-64750500D03*
%TO.P,C22,2*%
%TO.N,Board_0-GND*%
X156430000Y-64750500D03*
%TD*%
D18*
%TO.P,R11,1*%
%TO.N,Board_0-Net-(U1-GPIO18)*%
X138250000Y-68650500D03*
%TO.P,R11,2*%
%TO.N,Board_0-Net-(D1-A)*%
X137230000Y-68650500D03*
%TD*%
D19*
%TO.P,H2,1*%
%TO.N,N/C*%
X130125000Y-102950500D03*
X130718109Y-101518609D03*
X130718109Y-104382391D03*
X132150000Y-100925500D03*
D20*
X132150000Y-102950500D03*
D19*
X132150000Y-104975500D03*
X133581891Y-101518609D03*
X133581891Y-104382391D03*
X134175000Y-102950500D03*
%TD*%
D21*
%TO.P,C26,1*%
%TO.N,Board_0-/VBUS*%
X165700000Y-55900500D03*
%TO.P,C26,2*%
%TO.N,Board_0-GND*%
X167600000Y-55900500D03*
%TD*%
D18*
%TO.P,R2,1*%
%TO.N,Board_0-/~{USB_BOOT}*%
X154960000Y-54750500D03*
%TO.P,R2,2*%
%TO.N,Board_0-/QSPI_SS*%
X153940000Y-54750500D03*
%TD*%
D22*
%TO.P,J4,1,1*%
%TO.N,Board_0-GND*%
X159750000Y-48500500D03*
%TO.P,J4,2,2*%
%TO.N,Board_0-/~{USB_BOOT}*%
X159750000Y-50500500D03*
%TD*%
D19*
%TO.P,H5,1*%
%TO.N,N/C*%
X152425000Y-34950500D03*
X153018109Y-33518609D03*
X153018109Y-36382391D03*
X154450000Y-32925500D03*
D20*
X154450000Y-34950500D03*
D19*
X154450000Y-36975500D03*
X155881891Y-33518609D03*
X155881891Y-36382391D03*
X156475000Y-34950500D03*
%TD*%
D16*
%TO.P,C21,1*%
%TO.N,Board_0-Net-(C21-Pad1)*%
X138645000Y-58250500D03*
%TO.P,C21,2*%
%TO.N,Board_0-GND*%
X138645000Y-59210500D03*
%TD*%
D23*
%TO.P,J1,1,1*%
%TO.N,Board_0-GND*%
X136375000Y-66450500D03*
%TO.P,J1,2,2*%
%TO.N,Board_0-/SWCLK*%
X137375001Y-66450500D03*
%TO.P,J1,3,3*%
%TO.N,Board_0-/SWD*%
X138374999Y-66450500D03*
%TO.P,J1,4,4*%
%TO.N,Board_0-GND*%
X139375000Y-66450500D03*
D24*
%TO.P,J1,5*%
%TO.N,N/C*%
X135075001Y-63870500D03*
%TO.P,J1,6*%
X140674999Y-63870500D03*
%TD*%
D15*
%TO.P,C13,1*%
%TO.N,Board_0-+3V3*%
X143700000Y-63075500D03*
%TO.P,C13,2*%
%TO.N,Board_0-GND*%
X142740000Y-63075500D03*
%TD*%
D16*
%TO.P,C16,1*%
%TO.N,Board_0-+3V3*%
X149525000Y-63725500D03*
%TO.P,C16,2*%
%TO.N,Board_0-GND*%
X149525000Y-64685500D03*
%TD*%
D25*
%TO.P,J5,A1_B12,GND*%
%TO.N,Board_0-GND*%
X146450000Y-37755500D03*
%TO.P,J5,A4_B9,VBUS*%
%TO.N,Board_0-/VBUS*%
X145650000Y-37755500D03*
D26*
%TO.P,J5,A5,CC1*%
%TO.N,Board_0-Net-(J5-CC1)*%
X144500000Y-37755500D03*
%TO.P,J5,A6,DP1*%
%TO.N,Board_0-unconnected-(J5-DP1-PadA6)*%
X143500000Y-37755500D03*
%TO.P,J5,A7,DN1*%
%TO.N,Board_0-unconnected-(J5-DN1-PadA7)*%
X143000000Y-37755500D03*
%TO.P,J5,A8,SBU1*%
%TO.N,Board_0-unconnected-(J5-SBU1-PadA8)*%
X142000000Y-37755500D03*
D25*
%TO.P,J5,B1_A12,GND__1*%
%TO.N,Board_0-GND*%
X140050000Y-37755500D03*
%TO.P,J5,B4_A9,VBUS__1*%
%TO.N,Board_0-/VBUS*%
X140850000Y-37755500D03*
D26*
%TO.P,J5,B5,CC2*%
%TO.N,Board_0-Net-(J5-CC2)*%
X141500000Y-37755500D03*
%TO.P,J5,B6,DP2*%
%TO.N,Board_0-unconnected-(J5-DP2-PadB6)*%
X142500000Y-37755500D03*
%TO.P,J5,B7,DN2*%
%TO.N,Board_0-unconnected-(J5-DN2-PadB7)*%
X144000000Y-37755500D03*
%TO.P,J5,B8,SBU2*%
%TO.N,Board_0-unconnected-(J5-SBU2-PadB8)*%
X145000000Y-37755500D03*
D27*
%TO.P,J5,SH1,SHELL_GND*%
%TO.N,Board_0-GND*%
X147570000Y-37180500D03*
%TO.P,J5,SH2,SHELL_GND__1*%
X138930000Y-37180500D03*
D28*
%TO.P,J5,SH3,SHELL_GND__2*%
X147570000Y-33000500D03*
%TO.P,J5,SH4,SHELL_GND__3*%
X138930000Y-33000500D03*
%TD*%
D29*
%TO.P,J8,1,1*%
%TO.N,Board_0-GND*%
X163949999Y-64695200D03*
%TO.P,J8,2,2*%
%TO.N,Board_0-/BAT_PWR*%
X165950001Y-64695200D03*
D30*
%TO.P,J8,3,SHIELD*%
%TO.N,Board_0-unconnected-(J8-SHIELD-Pad3)*%
X161599999Y-70595200D03*
%TO.P,J8,4,SHIELD*%
%TO.N,Board_0-unconnected-(J8-SHIELD-Pad4)*%
X168300001Y-70595200D03*
%TD*%
D31*
%TO.P,R15,1*%
%TO.N,Board_0-GND*%
X149250000Y-36610500D03*
%TO.P,R15,2*%
%TO.N,Board_0-Net-(J5-CC1)*%
X149250000Y-35590500D03*
%TD*%
D11*
%TO.P,C23,1*%
%TO.N,Board_0-/V_LOAD*%
X157000000Y-67180500D03*
%TO.P,C23,2*%
%TO.N,Board_0-GND*%
X157000000Y-66220500D03*
%TD*%
D32*
%TO.P,Y1,1,1*%
%TO.N,Board_0-/XIN*%
X134545000Y-56580500D03*
%TO.P,Y1,2,2*%
%TO.N,Board_0-GND*%
X134545000Y-58780500D03*
%TO.P,Y1,3,3*%
%TO.N,Board_0-Net-(C21-Pad1)*%
X136245000Y-58780500D03*
%TO.P,Y1,4,4*%
%TO.N,Board_0-GND*%
X136245000Y-56580500D03*
%TD*%
D33*
%TO.P,D1,1,K*%
%TO.N,Board_0-GND*%
X138250000Y-69750500D03*
%TO.P,D1,2,A*%
%TO.N,Board_0-Net-(D1-A)*%
X137280000Y-69750500D03*
%TD*%
D31*
%TO.P,R8,1*%
%TO.N,Board_0-GND*%
X164200000Y-41060500D03*
%TO.P,R8,2*%
%TO.N,Board_0-Net-(J7-CC1)*%
X164200000Y-40040500D03*
%TD*%
D34*
%TO.P,C7,1*%
%TO.N,Board_0-+1V1*%
X152350000Y-59985500D03*
%TO.P,C7,2*%
%TO.N,Board_0-GND*%
X152350000Y-61015500D03*
%TD*%
D13*
%TO.P,R3,1*%
%TO.N,Board_0-Net-(U1-USB_DP)*%
X154105000Y-56150500D03*
%TO.P,R3,2*%
%TO.N,Board_0-/USB_D+*%
X155125000Y-56150500D03*
%TD*%
%TO.P,R4,1*%
%TO.N,Board_0-Net-(U1-USB_DM)*%
X154090000Y-57175500D03*
%TO.P,R4,2*%
%TO.N,Board_0-/USB_D-*%
X155110000Y-57175500D03*
%TD*%
D14*
%TO.P,R16,1*%
%TO.N,Board_0-Net-(J5-CC2)*%
X137250000Y-35590500D03*
%TO.P,R16,2*%
%TO.N,Board_0-GND*%
X137250000Y-36610500D03*
%TD*%
D18*
%TO.P,R12,1*%
%TO.N,Board_0-Net-(U4-NTC)*%
X162660000Y-55600500D03*
%TO.P,R12,2*%
%TO.N,Board_0-/VDD*%
X161640000Y-55600500D03*
%TD*%
D16*
%TO.P,C9,1*%
%TO.N,Board_0-/VREG_AVDD*%
X151400000Y-61895500D03*
%TO.P,C9,2*%
%TO.N,Board_0-GND*%
X151400000Y-62855500D03*
%TD*%
D15*
%TO.P,C28,1*%
%TO.N,Board_0-+3V3*%
X154410000Y-64750500D03*
%TO.P,C28,2*%
%TO.N,Board_0-GND*%
X153450000Y-64750500D03*
%TD*%
D18*
%TO.P,R20,1*%
%TO.N,Board_0-/INT_BAT*%
X162660000Y-56650500D03*
%TO.P,R20,2*%
%TO.N,Board_0-/VDD*%
X161640000Y-56650500D03*
%TD*%
D17*
%TO.P,C17,1*%
%TO.N,Board_0-+3V3*%
X151420000Y-54900500D03*
%TO.P,C17,2*%
%TO.N,Board_0-GND*%
X152380000Y-54900500D03*
%TD*%
D25*
%TO.P,J7,A1_B12,GND*%
%TO.N,Board_0-GND*%
X165950000Y-37755500D03*
%TO.P,J7,A4_B9,VBUS*%
%TO.N,Board_0-/VPHONE*%
X165150000Y-37755500D03*
D26*
%TO.P,J7,A5,CC1*%
%TO.N,Board_0-Net-(J7-CC1)*%
X164000000Y-37755500D03*
%TO.P,J7,A6,DP1*%
%TO.N,Board_0-/USB_C+*%
X163000000Y-37755500D03*
%TO.P,J7,A7,DN1*%
%TO.N,Board_0-/USB_C-*%
X162500000Y-37755500D03*
%TO.P,J7,A8,SBU1*%
%TO.N,Board_0-unconnected-(J7-SBU1-PadA8)*%
X161500000Y-37755500D03*
D25*
%TO.P,J7,B1_A12,GND__1*%
%TO.N,Board_0-GND*%
X159550000Y-37755500D03*
%TO.P,J7,B4_A9,VBUS__1*%
%TO.N,Board_0-/VPHONE*%
X160350000Y-37755500D03*
D26*
%TO.P,J7,B5,CC2*%
%TO.N,Board_0-Net-(J7-CC2)*%
X161000000Y-37755500D03*
%TO.P,J7,B6,DP2*%
%TO.N,Board_0-/USB_C+*%
X162000000Y-37755500D03*
%TO.P,J7,B7,DN2*%
%TO.N,Board_0-/USB_C-*%
X163500000Y-37755500D03*
%TO.P,J7,B8,SBU2*%
%TO.N,Board_0-unconnected-(J7-SBU2-PadB8)*%
X164500000Y-37755500D03*
D27*
%TO.P,J7,SH1,SHELL_GND*%
%TO.N,Board_0-GND*%
X167070000Y-37180500D03*
%TO.P,J7,SH2,SHELL_GND__1*%
X158430000Y-37180500D03*
D28*
%TO.P,J7,SH3,SHELL_GND__2*%
X167070000Y-33000500D03*
%TO.P,J7,SH4,SHELL_GND__3*%
X158430000Y-33000500D03*
%TD*%
D35*
%TO.P,C30,1*%
%TO.N,Board_0-/V_LOAD*%
X167450000Y-59745200D03*
%TO.P,C30,2*%
%TO.N,Board_0-GND*%
X167450000Y-57845200D03*
%TD*%
D19*
%TO.P,H3,1*%
%TO.N,N/C*%
X154325000Y-102950500D03*
X154918109Y-101518609D03*
X154918109Y-104382391D03*
X156350000Y-100925500D03*
D20*
X156350000Y-102950500D03*
D19*
X156350000Y-104975500D03*
X157781891Y-101518609D03*
X157781891Y-104382391D03*
X158375000Y-102950500D03*
%TD*%
D10*
%TO.P,KiKit_FID_T_1,*%
%TO.N,*%
X131250000Y-22500000D03*
%TD*%
D11*
%TO.P,C12,1*%
%TO.N,Board_0-+3V3*%
X151450000Y-57130500D03*
%TO.P,C12,2*%
%TO.N,Board_0-GND*%
X151450000Y-56170500D03*
%TD*%
D31*
%TO.P,R9,1*%
%TO.N,Board_0-/PPS*%
X142850000Y-44960500D03*
%TO.P,R9,2*%
%TO.N,Board_0-Net-(J6-Pad19)*%
X142850000Y-43940500D03*
%TD*%
D18*
%TO.P,R19,1*%
%TO.N,Board_0-/SDA0*%
X159770000Y-62750500D03*
%TO.P,R19,2*%
%TO.N,Board_0-+3V3*%
X158750000Y-62750500D03*
%TD*%
D36*
%TO.P,U4,1,IN*%
%TO.N,Board_0-/VBUS*%
X165400000Y-58285200D03*
%TO.P,U4,2,NTC*%
%TO.N,Board_0-Net-(U4-NTC)*%
X164900000Y-58285200D03*
%TO.P,U4,3,INT*%
%TO.N,Board_0-/INT_BAT*%
X164400000Y-58285200D03*
%TO.P,U4,4,VDD*%
%TO.N,Board_0-/VDD*%
X163900000Y-58285200D03*
D37*
%TO.P,U4,5,GND*%
%TO.N,Board_0-GND*%
X163680000Y-59255200D03*
D36*
%TO.P,U4,6,SCL*%
%TO.N,Board_0-/SCL0*%
X163900000Y-60225200D03*
%TO.P,U4,7,SDA*%
%TO.N,Board_0-/SDA0*%
X164400000Y-60225200D03*
%TO.P,U4,8,BATT*%
%TO.N,Board_0-/BAT_PWR*%
X164900000Y-60225200D03*
%TO.P,U4,9,BATT*%
X165400000Y-60225200D03*
D37*
%TO.P,U4,10,SYS*%
%TO.N,Board_0-/V_LOAD*%
X165620000Y-59255200D03*
%TD*%
D19*
%TO.P,H4,1*%
%TO.N,N/C*%
X130125000Y-34950500D03*
X130718109Y-33518609D03*
X130718109Y-36382391D03*
X132150000Y-32925500D03*
D20*
X132150000Y-34950500D03*
D19*
X132150000Y-36975500D03*
X133581891Y-33518609D03*
X133581891Y-36382391D03*
X134175000Y-34950500D03*
%TD*%
D14*
%TO.P,R5,1*%
%TO.N,Board_0-Net-(J6-Pad22)*%
X142450000Y-52350500D03*
%TO.P,R5,2*%
%TO.N,Board_0-/SX1303_RESET*%
X142450000Y-53370500D03*
%TD*%
D15*
%TO.P,C18,1*%
%TO.N,Board_0-+3V3*%
X141330000Y-56850500D03*
%TO.P,C18,2*%
%TO.N,Board_0-GND*%
X140370000Y-56850500D03*
%TD*%
D38*
%TO.P,D2,1,A1*%
%TO.N,Board_0-GND*%
X169600000Y-51300500D03*
%TO.P,D2,2,A2*%
%TO.N,Board_0-/VBUS*%
X165600000Y-51300500D03*
%TD*%
D14*
%TO.P,R14,1*%
%TO.N,Board_0-/SCL0*%
X158750000Y-60740500D03*
%TO.P,R14,2*%
%TO.N,Board_0-+3V3*%
X158750000Y-61760500D03*
%TD*%
D39*
%TO.P,S1,1*%
%TO.N,Board_0-/RUN*%
X143200000Y-65300500D03*
%TO.P,S1,2*%
%TO.N,Board_0-unconnected-(S1-Pad2)*%
X147350000Y-65300500D03*
%TO.P,S1,3*%
%TO.N,Board_0-unconnected-(S1-Pad3)*%
X143200000Y-67450500D03*
%TO.P,S1,4*%
%TO.N,Board_0-Net-(R1-Pad2)*%
X147350000Y-67450500D03*
%TD*%
D10*
%TO.P,KiKit_FID_T_3,*%
%TO.N,*%
X131250000Y-117851500D03*
%TD*%
D16*
%TO.P,C8,1*%
%TO.N,Board_0-+1V1*%
X148550000Y-64420500D03*
%TO.P,C8,2*%
%TO.N,Board_0-GND*%
X148550000Y-65380500D03*
%TD*%
D40*
%TO.P,U5,1,OUT*%
%TO.N,Board_0-+3V3*%
X155880000Y-65730500D03*
%TO.P,U5,2,OUT__1*%
X155480000Y-65730500D03*
%TO.P,U5,3,N/C*%
%TO.N,Board_0-GND*%
X155080000Y-65730500D03*
%TO.P,U5,4,FB/ADJ*%
%TO.N,Board_0-+3V3*%
X154680000Y-65730500D03*
%TO.P,U5,5,GND*%
%TO.N,Board_0-GND*%
X154680000Y-66640500D03*
%TO.P,U5,6,EN*%
%TO.N,Board_0-/V_EN*%
X155080000Y-66640500D03*
%TO.P,U5,7,IN*%
%TO.N,Board_0-/V_LOAD*%
X155480000Y-66640500D03*
%TO.P,U5,8,IN__1*%
X155880000Y-66640500D03*
D41*
%TO.P,U5,9,EPAD*%
%TO.N,Board_0-GND*%
X155280000Y-66185500D03*
%TD*%
D14*
%TO.P,R10,1*%
%TO.N,Board_0-Net-(J7-CC2)*%
X161650000Y-40440500D03*
%TO.P,R10,2*%
%TO.N,Board_0-GND*%
X161650000Y-41460500D03*
%TD*%
D11*
%TO.P,C11,1*%
%TO.N,Board_0-+1V1*%
X149350000Y-52110500D03*
%TO.P,C11,2*%
%TO.N,Board_0-GND*%
X149350000Y-51150500D03*
%TD*%
D31*
%TO.P,R7,1*%
%TO.N,Board_0-+3V3*%
X152375000Y-62910500D03*
%TO.P,R7,2*%
%TO.N,Board_0-/VREG_AVDD*%
X152375000Y-61890500D03*
%TD*%
D10*
%TO.P,KiKit_FID_T_4,*%
%TO.N,*%
X165750000Y-117851500D03*
%TD*%
D42*
%TO.P,U1,1,IOVDD*%
%TO.N,Board_0-+3V3*%
X149600000Y-55013000D03*
D43*
%TO.P,U1,2,GPIO0*%
%TO.N,Board_0-/HOST_MISO*%
X149200000Y-55013000D03*
%TO.P,U1,3,GPIO1*%
%TO.N,Board_0-/HOST_CSN*%
X148800000Y-55013000D03*
%TO.P,U1,4,GPIO2*%
%TO.N,Board_0-/HOST_SCK*%
X148400000Y-55013000D03*
%TO.P,U1,5,GPIO3*%
%TO.N,Board_0-/HOST_MOSI*%
X148000000Y-55013000D03*
%TO.P,U1,6,DVDD*%
%TO.N,Board_0-+1V1*%
X147600000Y-55013000D03*
%TO.P,U1,7,GPIO4*%
%TO.N,Board_0-/GPS_RX*%
X147200000Y-55013000D03*
%TO.P,U1,8,GPIO5*%
%TO.N,Board_0-/GPS_TX*%
X146800000Y-55013000D03*
%TO.P,U1,9,GPIO6*%
%TO.N,Board_0-/STANDBY_GPS*%
X146400000Y-55013000D03*
%TO.P,U1,10,GPIO7*%
%TO.N,Board_0-/RESET_GPS*%
X146000000Y-55013000D03*
%TO.P,U1,11,IOVDD*%
%TO.N,Board_0-+3V3*%
X145600000Y-55013000D03*
%TO.P,U1,12,GPIO8*%
%TO.N,Board_0-/GPIO8*%
X145200000Y-55013000D03*
%TO.P,U1,13,GPIO9*%
%TO.N,Board_0-/PPS*%
X144800000Y-55013000D03*
%TO.P,U1,14,GPIO10*%
%TO.N,Board_0-/SX1303_GPIO8*%
X144400000Y-55013000D03*
D44*
%TO.P,U1,15,GPIO11*%
%TO.N,Board_0-/SX1303_RESET*%
X144000000Y-55013000D03*
D45*
%TO.P,U1,16,GPIO12*%
%TO.N,Board_0-/MCU_RESET*%
X143362500Y-55650500D03*
D46*
%TO.P,U1,17,GPIO13*%
%TO.N,Board_0-/SX1261_NRESET*%
X143362500Y-56050500D03*
%TO.P,U1,18,GPIO14*%
%TO.N,Board_0-/SX1261_NSS*%
X143362500Y-56450500D03*
%TO.P,U1,19,GPIO15*%
%TO.N,Board_0-/SX1303_GPIO6*%
X143362500Y-56850500D03*
%TO.P,U1,20,IOVDD*%
%TO.N,Board_0-+3V3*%
X143362500Y-57250500D03*
%TO.P,U1,21,XIN*%
%TO.N,Board_0-/XIN*%
X143362500Y-57650500D03*
%TO.P,U1,22,XOUT*%
%TO.N,Board_0-/XOUT*%
X143362500Y-58050500D03*
%TO.P,U1,23,DVDD*%
%TO.N,Board_0-+1V1*%
X143362500Y-58450500D03*
%TO.P,U1,24,SWCLK*%
%TO.N,Board_0-/SWCLK*%
X143362500Y-58850500D03*
%TO.P,U1,25,SWD*%
%TO.N,Board_0-/SWD*%
X143362500Y-59250500D03*
%TO.P,U1,26,RUN*%
%TO.N,Board_0-/RUN*%
X143362500Y-59650500D03*
%TO.P,U1,27,GPIO16*%
%TO.N,Board_0-/GPIO16*%
X143362500Y-60050500D03*
%TO.P,U1,28,GPIO17*%
%TO.N,Board_0-unconnected-(U1-GPIO17-Pad28)*%
X143362500Y-60450500D03*
%TO.P,U1,29,GPIO18*%
%TO.N,Board_0-Net-(U1-GPIO18)*%
X143362500Y-60850500D03*
D47*
%TO.P,U1,30,IOVDD*%
%TO.N,Board_0-+3V3*%
X143362500Y-61250500D03*
D48*
%TO.P,U1,31,GPIO19*%
%TO.N,Board_0-unconnected-(U1-GPIO19-Pad31)*%
X144000000Y-61888000D03*
D43*
%TO.P,U1,32,GPIO20*%
%TO.N,Board_0-/SX1261_BUSY*%
X144400000Y-61888000D03*
%TO.P,U1,33,GPIO21*%
%TO.N,Board_0-/SX1261_DIO1*%
X144800000Y-61888000D03*
%TO.P,U1,34,GPIO22*%
%TO.N,Board_0-/SX1261_DIO2*%
X145200000Y-61888000D03*
%TO.P,U1,35,GPIO23*%
%TO.N,Board_0-/INT_BAT*%
X145600000Y-61888000D03*
%TO.P,U1,36,GPIO24*%
%TO.N,Board_0-/SDA0*%
X146000000Y-61888000D03*
%TO.P,U1,37,GPIO25*%
%TO.N,Board_0-/SCL0*%
X146400000Y-61888000D03*
%TO.P,U1,38,IOVDD*%
%TO.N,Board_0-+3V3*%
X146800000Y-61888000D03*
%TO.P,U1,39,DVDD*%
%TO.N,Board_0-+1V1*%
X147200000Y-61888000D03*
%TO.P,U1,40,GPIO26_ADC0*%
%TO.N,Board_0-/GPIO26_ADC0*%
X147600000Y-61888000D03*
%TO.P,U1,41,GPIO27_ADC1*%
%TO.N,Board_0-unconnected-(U1-GPIO27_ADC1-Pad41)*%
X148000000Y-61888000D03*
%TO.P,U1,42,GPIO28_ADC2*%
%TO.N,Board_0-unconnected-(U1-GPIO28_ADC2-Pad42)*%
X148400000Y-61888000D03*
%TO.P,U1,43,GPIO29_ADC3*%
%TO.N,Board_0-unconnected-(U1-GPIO29_ADC3-Pad43)*%
X148800000Y-61888000D03*
%TO.P,U1,44,ADC_AVDD*%
%TO.N,Board_0-+3V3*%
X149200000Y-61888000D03*
D49*
%TO.P,U1,45,IOVDD*%
X149600000Y-61888000D03*
D50*
%TO.P,U1,46,VREG_AVDD*%
%TO.N,Board_0-/VREG_AVDD*%
X150237500Y-61250500D03*
D46*
%TO.P,U1,47,VREG_PGND*%
%TO.N,Board_0-GND*%
X150237500Y-60850500D03*
%TO.P,U1,48,VREG_LX*%
%TO.N,Board_0-/VREG_LX*%
X150237500Y-60450500D03*
%TO.P,U1,49,VREG_VIN*%
%TO.N,Board_0-+3V3*%
X150237500Y-60050500D03*
%TO.P,U1,50,VREG_FB*%
%TO.N,Board_0-+1V1*%
X150237500Y-59650500D03*
%TO.P,U1,51,USB_DM*%
%TO.N,Board_0-Net-(U1-USB_DM)*%
X150237500Y-59250500D03*
%TO.P,U1,52,USB_DP*%
%TO.N,Board_0-Net-(U1-USB_DP)*%
X150237500Y-58850500D03*
%TO.P,U1,53,USB_OTP_VDD*%
%TO.N,Board_0-+3V3*%
X150237500Y-58450500D03*
%TO.P,U1,54,QSPI_IOVDD*%
X150237500Y-58050500D03*
%TO.P,U1,55,QSPI_SD3*%
%TO.N,Board_0-/QSPI_SD3*%
X150237500Y-57650500D03*
%TO.P,U1,56,QSPI_SCLK*%
%TO.N,Board_0-/QSPI_SCLK*%
X150237500Y-57250500D03*
%TO.P,U1,57,QSPI_SD0*%
%TO.N,Board_0-/QSPI_SD0*%
X150237500Y-56850500D03*
%TO.P,U1,58,QSPI_SD2*%
%TO.N,Board_0-/QSPI_SD2*%
X150237500Y-56450500D03*
%TO.P,U1,59,QSPI_SD1*%
%TO.N,Board_0-/QSPI_SD1*%
X150237500Y-56050500D03*
D51*
%TO.P,U1,60,QSPI_SS*%
%TO.N,Board_0-/QSPI_SS*%
X150237500Y-55650500D03*
D52*
%TO.P,U1,61,GND*%
%TO.N,Board_0-GND*%
X146800000Y-58450500D03*
%TD*%
D53*
%TO.P,L1,1,1*%
%TO.N,Board_0-+1V1*%
X153950000Y-59750500D03*
%TO.P,L1,2,2*%
%TO.N,Board_0-/VREG_LX*%
X153950000Y-61150500D03*
%TD*%
D16*
%TO.P,C25,1*%
%TO.N,Board_0-/VDD*%
X162500000Y-57700500D03*
%TO.P,C25,2*%
%TO.N,Board_0-GND*%
X162500000Y-58660500D03*
%TD*%
D34*
%TO.P,C6,1*%
%TO.N,Board_0-+3V3*%
X151400000Y-59985500D03*
%TO.P,C6,2*%
%TO.N,Board_0-GND*%
X151400000Y-61015500D03*
%TD*%
D15*
%TO.P,C10,1*%
%TO.N,Board_0-+1V1*%
X141330000Y-59250500D03*
%TO.P,C10,2*%
%TO.N,Board_0-GND*%
X140370000Y-59250500D03*
%TD*%
D29*
%TO.P,J10,1,1*%
%TO.N,Board_0-/V_LOAD*%
X128749999Y-64645200D03*
%TO.P,J10,2,2*%
%TO.N,Board_0-/V_EN*%
X130750001Y-64645200D03*
D30*
%TO.P,J10,3,SHIELD*%
%TO.N,Board_0-unconnected-(J10-SHIELD-Pad3)*%
X126399999Y-70545200D03*
%TO.P,J10,4,SHIELD*%
%TO.N,Board_0-unconnected-(J10-SHIELD-Pad4)*%
X133100001Y-70545200D03*
%TD*%
D54*
%TO.P,J3,1,1*%
%TO.N,Board_0-GND*%
X156350000Y-93550500D03*
%TD*%
%TO.P,J2,1,1*%
%TO.N,Board_0-GND*%
X132150000Y-93550500D03*
%TD*%
D55*
%TO.N,Board_0-+1V1*%
X147950000Y-56350500D03*
X148250000Y-63150500D03*
X139975000Y-60350500D03*
X148900000Y-58800500D03*
X152625000Y-58800500D03*
X147200000Y-60550500D03*
X144700000Y-59475500D03*
X148150000Y-52150500D03*
X153100000Y-58400500D03*
%TO.N,Board_0-+3V3*%
X155650000Y-62850500D03*
X155250000Y-63450500D03*
X154850000Y-62850500D03*
%TO.N,Board_0-/GPS_RX*%
X147700000Y-42700500D03*
%TO.N,Board_0-/GPS_TX*%
X147725000Y-44825500D03*
%TO.N,Board_0-/HOST_CSN*%
X156900000Y-42000500D03*
%TO.N,Board_0-/HOST_MISO*%
X157700000Y-46650500D03*
%TO.N,Board_0-/HOST_MOSI*%
X154950000Y-42700500D03*
%TO.N,Board_0-/HOST_SCK*%
X153310000Y-45600500D03*
%TO.N,Board_0-/INT_BAT*%
X146700000Y-71700500D03*
X163850000Y-56650500D03*
%TO.N,Board_0-/MCU_RESET*%
X138025000Y-42725500D03*
%TO.N,Board_0-/RESET_GPS*%
X144450000Y-44750500D03*
%TO.N,Board_0-/SCL0*%
X148750000Y-69000500D03*
X160050000Y-60750500D03*
%TO.N,Board_0-/SDA0*%
X159750000Y-64950500D03*
X148975000Y-71150500D03*
%TO.N,Board_0-/STANDBY_GPS*%
X145550000Y-42800500D03*
%TO.N,Board_0-/SX1261_BUSY*%
X140750000Y-68625500D03*
%TO.N,Board_0-/SX1261_DIO1*%
X143000000Y-68850500D03*
%TO.N,Board_0-/SX1261_DIO2*%
X145150000Y-69250500D03*
%TO.N,Board_0-/SX1261_NRESET*%
X137875000Y-44825500D03*
%TO.N,Board_0-/SX1261_NSS*%
X135350000Y-44050500D03*
%TO.N,Board_0-/SX1303_GPIO6*%
X136250000Y-51575500D03*
%TO.N,Board_0-/SX1303_GPIO8*%
X143750000Y-53650500D03*
%TO.N,Board_0-/VPHONE*%
X162900000Y-44000500D03*
X162850000Y-35100500D03*
%TO.N,Board_0-GND*%
X138550000Y-40850500D03*
X133250000Y-58750500D03*
X162900000Y-48400500D03*
X149250000Y-37250500D03*
X151250000Y-78850500D03*
X133550000Y-55050500D03*
X146800000Y-58450500D03*
X135875000Y-66075500D03*
X160750000Y-84050500D03*
X170250000Y-49950500D03*
X163050000Y-64250500D03*
X137950000Y-55150500D03*
X126750000Y-89250500D03*
X169050000Y-57050500D03*
X163050000Y-63450500D03*
X160750000Y-99650500D03*
X166225000Y-45600500D03*
X149250000Y-42100500D03*
X163050000Y-65850500D03*
X154100000Y-66900500D03*
X150850000Y-62600500D03*
X148550000Y-65850500D03*
X162850000Y-59550500D03*
X143975000Y-69625500D03*
X139750000Y-43350500D03*
X149900000Y-69900500D03*
X144250000Y-71350500D03*
X146450000Y-38700500D03*
X160950000Y-58650500D03*
X152750000Y-53475500D03*
X161650000Y-42200500D03*
X140350000Y-56200500D03*
X133000000Y-68350500D03*
X160150000Y-58650500D03*
X156500000Y-59850500D03*
X166250000Y-41350500D03*
X146750000Y-94226412D03*
X163000000Y-54400500D03*
X163050000Y-65050500D03*
X154950000Y-43850500D03*
X152000000Y-87600500D03*
X133705000Y-50450500D03*
X160750000Y-78850500D03*
X150050000Y-39200500D03*
X130250000Y-84050500D03*
X141825000Y-69250500D03*
X146800320Y-57147932D03*
X139450000Y-55150500D03*
X136550000Y-55050500D03*
X163650000Y-51950500D03*
X133450000Y-60250500D03*
X140750000Y-107350500D03*
X157050000Y-64950500D03*
X170250000Y-72750500D03*
X164200000Y-41550500D03*
X148050000Y-59650500D03*
X148850000Y-51150500D03*
X133250000Y-56550500D03*
X151250000Y-94450500D03*
X151250000Y-50350500D03*
X160750000Y-94450500D03*
X162050000Y-59550500D03*
X148100000Y-57250500D03*
X141850000Y-42750500D03*
X145550000Y-58450500D03*
X139550000Y-59275500D03*
X126550000Y-73150500D03*
X143650000Y-39350500D03*
X147650000Y-64150500D03*
X151250000Y-82850500D03*
X152950000Y-67150500D03*
X135150000Y-55050500D03*
X142450000Y-50350500D03*
X143750000Y-42150500D03*
X168100000Y-57000500D03*
X137250000Y-104850500D03*
X147850000Y-58450500D03*
X146050000Y-59650500D03*
X126550000Y-58150500D03*
X144250000Y-84100500D03*
X164550000Y-42200500D03*
X150000000Y-32671640D03*
X159275000Y-47375500D03*
X138850000Y-69750500D03*
X161250000Y-59950500D03*
X170250000Y-62350500D03*
X137275000Y-100725500D03*
X134950000Y-60250500D03*
X145750000Y-44350500D03*
X144250000Y-89250500D03*
X152480000Y-42150500D03*
X126550000Y-53150500D03*
X170250000Y-36350500D03*
X170250000Y-52650500D03*
X126550000Y-68150500D03*
X168850000Y-49950500D03*
X138050000Y-60050500D03*
X159550000Y-38675500D03*
X145425000Y-50418082D03*
X161200000Y-43550500D03*
X155275000Y-50650500D03*
X169050000Y-58150500D03*
X159925000Y-47375500D03*
X167350000Y-57000500D03*
X170250000Y-46750500D03*
X165950000Y-38650500D03*
X170250000Y-67550500D03*
X151250000Y-99650500D03*
X157250000Y-73850500D03*
X137750000Y-32671640D03*
X146850000Y-39350500D03*
X164500000Y-59250500D03*
X156575000Y-54575500D03*
X131100000Y-41400500D03*
X147100000Y-66375500D03*
X142750000Y-62450500D03*
X126750000Y-94450500D03*
X151875000Y-61100500D03*
X158900000Y-43300500D03*
X126550000Y-42950500D03*
X145425000Y-47550500D03*
X145350000Y-52450500D03*
X130250000Y-78350500D03*
X150050000Y-42100500D03*
X152950000Y-66200500D03*
X154100000Y-66200500D03*
X157350000Y-65550500D03*
X162850000Y-33700500D03*
X148850000Y-47700500D03*
X135650000Y-42100500D03*
X170250000Y-40775500D03*
X161150000Y-64850500D03*
X161750000Y-58650500D03*
X136550000Y-60250500D03*
X126550000Y-48150500D03*
X151250000Y-47700500D03*
X139950000Y-66450500D03*
X145250000Y-78350500D03*
X145550000Y-57150500D03*
X144750000Y-100600500D03*
X136750000Y-96450500D03*
X168850000Y-52600500D03*
X136750000Y-88600500D03*
X159300000Y-59950500D03*
X156500000Y-60600500D03*
X165250000Y-70350500D03*
X148350000Y-107650500D03*
X146675000Y-42225500D03*
X157350000Y-43750500D03*
X160750000Y-89250500D03*
X140050000Y-38750500D03*
X149250000Y-65350500D03*
X165250000Y-75850500D03*
X137250000Y-37350500D03*
X135550000Y-45750500D03*
X126550000Y-37750500D03*
X162400000Y-36050500D03*
X152000000Y-56150500D03*
X154225000Y-58075500D03*
X126750000Y-99650500D03*
X139350000Y-64050500D03*
X133850000Y-61550500D03*
X126550000Y-63150500D03*
X163950000Y-62550500D03*
X163250000Y-36050500D03*
X128500000Y-46350500D03*
X151250000Y-104850500D03*
X142950000Y-32671640D03*
X152500000Y-39250500D03*
X137250000Y-84050500D03*
X156750000Y-65550500D03*
X153450000Y-65300500D03*
X154300000Y-46100500D03*
X148725000Y-45300500D03*
X152950000Y-54900500D03*
X138000000Y-78850500D03*
X147300000Y-70500500D03*
X137350000Y-71950500D03*
X164650000Y-62550500D03*
X157650000Y-63850500D03*
%TO.N,Board_0-Net-(J6-Pad19)*%
X142850000Y-42750500D03*
%TO.N,Board_0-Net-(J6-Pad22)*%
X143450000Y-51450500D03*
%TD*%
D56*
%TO.N,Board_0-+1V1*%
X151150000Y-59475500D02*
X151175000Y-59450500D01*
D57*
X143362500Y-58450500D02*
X142493256Y-58450500D01*
D56*
X150237500Y-59650500D02*
X150975000Y-59650500D01*
X147200000Y-62300500D02*
X148050000Y-63150500D01*
D57*
X148150000Y-52150500D02*
X147600000Y-52700500D01*
X141285000Y-59295500D02*
X140230000Y-60350500D01*
D56*
X147200000Y-61888000D02*
X147200000Y-62300500D01*
D57*
X140230000Y-60350500D02*
X139975000Y-60350500D01*
D56*
X150975000Y-59650500D02*
X151150000Y-59475500D01*
X151175000Y-59450500D02*
X152050000Y-59450500D01*
D57*
X142493256Y-58450500D02*
X141693256Y-59250500D01*
X149350000Y-52110500D02*
X148190000Y-52110500D01*
X141693256Y-59250500D02*
X141330000Y-59250500D01*
D56*
X148050000Y-63150500D02*
X148250000Y-63150500D01*
D57*
X148400000Y-63300500D02*
X148250000Y-63150500D01*
X148400000Y-64420500D02*
X148400000Y-63300500D01*
X147600000Y-52700500D02*
X147600000Y-55013000D01*
X148190000Y-52110500D02*
X148150000Y-52150500D01*
%TO.N,Board_0-+3V3*%
X143550000Y-61250500D02*
X143362500Y-61250500D01*
X143362500Y-57250500D02*
X141730000Y-57250500D01*
X150800000Y-58050500D02*
X151450000Y-57400500D01*
X158750000Y-62750500D02*
X155750000Y-62750500D01*
D56*
X150237500Y-60050500D02*
X149450000Y-60050500D01*
D57*
X149400000Y-63475500D02*
X149545000Y-63620500D01*
X149700000Y-58450500D02*
X149425000Y-58175500D01*
X151450000Y-57400500D02*
X151450000Y-57025500D01*
X146800000Y-61888000D02*
X146800000Y-61425500D01*
X149400000Y-63025500D02*
X149400000Y-63475500D01*
X143362500Y-61250500D02*
X144100000Y-61250500D01*
X150400000Y-58450500D02*
X150237500Y-58450500D01*
X146800000Y-62820500D02*
X147050000Y-63070500D01*
X143550000Y-62925500D02*
X143550000Y-61250500D01*
X149600000Y-55500500D02*
X149250000Y-55850500D01*
X149200000Y-62825500D02*
X149400000Y-63025500D01*
D56*
X155750000Y-62750500D02*
X155650000Y-62850500D01*
D57*
X149600000Y-55013000D02*
X149712500Y-54900500D01*
X145600000Y-55013000D02*
X145600000Y-55850500D01*
D56*
X150237500Y-60050500D02*
X150262500Y-60025500D01*
D57*
X145600000Y-55013000D02*
X145600000Y-54325500D01*
X149600000Y-55013000D02*
X149600000Y-55500500D01*
X143700000Y-63075500D02*
X143550000Y-62925500D01*
X150237500Y-58050500D02*
X149425000Y-58050500D01*
X149200000Y-61888000D02*
X149200000Y-62825500D01*
X150800000Y-58050500D02*
X150400000Y-58450500D01*
X145600000Y-54325500D02*
X145350000Y-54075500D01*
X144100000Y-61250500D02*
X144350000Y-61000500D01*
X150237500Y-58450500D02*
X149700000Y-58450500D01*
X146800000Y-61425500D02*
X146475000Y-61100500D01*
X149545000Y-63620500D02*
X149550000Y-63620500D01*
X146800000Y-61888000D02*
X146800000Y-62820500D01*
X149712500Y-54900500D02*
X151420000Y-54900500D01*
X141730000Y-57250500D02*
X141530000Y-57050500D01*
D56*
X158750000Y-62750500D02*
X158750000Y-61760500D01*
D57*
X143362500Y-57250500D02*
X144150000Y-57250500D01*
X149525000Y-63725500D02*
X150500000Y-63725500D01*
X145350000Y-54075500D02*
X145350000Y-53735500D01*
D56*
X150262500Y-60025500D02*
X151360000Y-60025500D01*
D57*
X149425000Y-58175500D02*
X149425000Y-58050500D01*
X150237500Y-58050500D02*
X150800000Y-58050500D01*
D56*
%TO.N,Board_0-/GPS_RX*%
X147200000Y-55013000D02*
X147200000Y-51500500D01*
X149510000Y-44510500D02*
X147700000Y-42700500D01*
X149510000Y-49190500D02*
X149510000Y-44510500D01*
X147200000Y-51500500D02*
X149510000Y-49190500D01*
%TO.N,Board_0-/GPS_TX*%
X147725000Y-49775500D02*
X147725000Y-44825500D01*
X147725000Y-49775500D02*
X146800000Y-50700500D01*
X146800000Y-50700500D02*
X146800000Y-55013000D01*
%TO.N,Board_0-/HOST_CSN*%
X148800000Y-54150500D02*
X149050000Y-53900500D01*
X155100000Y-50000500D02*
X155100000Y-44700500D01*
X155100000Y-44700500D02*
X156900000Y-42900500D01*
X156900000Y-42900500D02*
X156900000Y-42000500D01*
X148800000Y-55013000D02*
X148800000Y-54150500D01*
X149050000Y-53900500D02*
X151200000Y-53900500D01*
X151200000Y-53900500D02*
X155100000Y-50000500D01*
%TO.N,Board_0-/HOST_MISO*%
X149200000Y-54400500D02*
X149200000Y-55013000D01*
X157700000Y-49800500D02*
X153200000Y-54300500D01*
X149300000Y-54300500D02*
X149200000Y-54400500D01*
X157700000Y-49800500D02*
X157700000Y-46650500D01*
X153200000Y-54300500D02*
X149300000Y-54300500D01*
%TO.N,Board_0-/HOST_MOSI*%
X148000000Y-55013000D02*
X148000000Y-53578708D01*
X148528208Y-53050500D02*
X149650000Y-53050500D01*
X152050000Y-50650500D02*
X152050000Y-44550500D01*
X148000000Y-53578708D02*
X148528208Y-53050500D01*
X152050000Y-44550500D02*
X153900000Y-42700500D01*
X153900000Y-42700500D02*
X154950000Y-42700500D01*
X149650000Y-53050500D02*
X152050000Y-50650500D01*
%TO.N,Board_0-/HOST_SCK*%
X148400000Y-53850500D02*
X148750000Y-53500500D01*
X152907932Y-50892568D02*
X153310000Y-50490500D01*
X150300000Y-53500500D02*
X152907932Y-50892568D01*
X153310000Y-50490500D02*
X153310000Y-45600500D01*
X148400000Y-55013000D02*
X148400000Y-53850500D01*
X148750000Y-53500500D02*
X150300000Y-53500500D01*
%TO.N,Board_0-/INT_BAT*%
X145600000Y-68425500D02*
X145600000Y-61888000D01*
D57*
X163850000Y-56650500D02*
X162660000Y-56650500D01*
X164400000Y-58285200D02*
X164400000Y-57200500D01*
D56*
X146350000Y-71350500D02*
X146350000Y-69175500D01*
X146700000Y-71700500D02*
X146350000Y-71350500D01*
D57*
X164400000Y-57200500D02*
X163850000Y-56650500D01*
D56*
X146350000Y-69175500D02*
X145600000Y-68425500D01*
%TO.N,Board_0-/MCU_RESET*%
X141724000Y-46424500D02*
X141724000Y-54174500D01*
X141724000Y-54174500D02*
X143200000Y-55650500D01*
X138025000Y-42725500D02*
X141724000Y-46424500D01*
X143200000Y-55650500D02*
X143362500Y-55650500D01*
%TO.N,Board_0-/PPS*%
X144700000Y-54250500D02*
X144700000Y-47900500D01*
X142850000Y-46050500D02*
X142850000Y-44960500D01*
X144700000Y-47900500D02*
X142850000Y-46050500D01*
X144800000Y-55013000D02*
X144800000Y-54350500D01*
X144800000Y-54350500D02*
X144700000Y-54250500D01*
%TO.N,Board_0-/QSPI_SS*%
X153350000Y-55550500D02*
X150337500Y-55550500D01*
X150337500Y-55550500D02*
X150237500Y-55650500D01*
X153940000Y-54960500D02*
X153350000Y-55550500D01*
X153940000Y-54750500D02*
X153940000Y-54960500D01*
%TO.N,Board_0-/RESET_GPS*%
X144450000Y-44750500D02*
X144450000Y-45250500D01*
X144450000Y-45250500D02*
X146000000Y-46800500D01*
X146000000Y-46800500D02*
X146000000Y-55013000D01*
%TO.N,Board_0-/RUN*%
X142075000Y-65275500D02*
X141750000Y-64950500D01*
X142925000Y-59650500D02*
X143362500Y-59650500D01*
X143050000Y-65275500D02*
X142075000Y-65275500D01*
X143000000Y-59650500D02*
X143362500Y-59650500D01*
X141750000Y-60825500D02*
X142925000Y-59650500D01*
X141750000Y-64950500D02*
X141750000Y-60825500D01*
D57*
%TO.N,Board_0-/SCL0*%
X158750000Y-60740500D02*
X160040000Y-60740500D01*
X163750000Y-60750500D02*
X160050000Y-60750500D01*
D56*
X146400000Y-67950500D02*
X146400000Y-61888000D01*
X147450000Y-69000500D02*
X146400000Y-67950500D01*
D57*
X163900000Y-60000500D02*
X163900000Y-60600500D01*
D56*
X148750000Y-69000500D02*
X147450000Y-69000500D01*
X160040000Y-60740500D02*
X160050000Y-60750500D01*
D57*
X163900000Y-60600500D02*
X163750000Y-60750500D01*
%TO.N,Board_0-/SDA0*%
X159770000Y-62430500D02*
X160250000Y-61950500D01*
X159770000Y-62750500D02*
X159770000Y-64930500D01*
D56*
X159770000Y-64930500D02*
X159750000Y-64950500D01*
D57*
X164400000Y-60800500D02*
X164400000Y-60225200D01*
X163250000Y-61950500D02*
X164400000Y-60800500D01*
D56*
X146000000Y-68175500D02*
X146000000Y-61888000D01*
D57*
X160250000Y-61950500D02*
X163250000Y-61950500D01*
D56*
X148975000Y-71150500D02*
X146000000Y-68175500D01*
D57*
X159770000Y-62750500D02*
X159770000Y-62430500D01*
D56*
%TO.N,Board_0-/STANDBY_GPS*%
X145550000Y-42800500D02*
X145550000Y-42825500D01*
X145550000Y-42825500D02*
X146400000Y-43675500D01*
X146400000Y-55013000D02*
X146400000Y-43675500D01*
%TO.N,Board_0-/SWCLK*%
X137375001Y-64194249D02*
X137375001Y-66450500D01*
X143362500Y-58850500D02*
X142703611Y-58850500D01*
X142703611Y-58850500D02*
X138023999Y-63530113D01*
X138023999Y-63530113D02*
X138023999Y-63545251D01*
X138023999Y-63545251D02*
X137375001Y-64194249D01*
%TO.N,Board_0-/SWD*%
X138374999Y-63675501D02*
X138374999Y-66450500D01*
X142800000Y-59250500D02*
X138374999Y-63675501D01*
X143362500Y-59250500D02*
X142800000Y-59250500D01*
D57*
%TO.N,Board_0-/SX1261_BUSY*%
X143925000Y-66750500D02*
X144399000Y-66276500D01*
X142525000Y-66750500D02*
X143925000Y-66750500D01*
X140750000Y-68525500D02*
X142525000Y-66750500D01*
X144399000Y-66276500D02*
X144399000Y-61987000D01*
X140750000Y-68625500D02*
X140750000Y-68525500D01*
%TO.N,Board_0-/SX1261_DIO1*%
X144800000Y-61888000D02*
X144800000Y-67575500D01*
X143525000Y-68850500D02*
X143000000Y-68850500D01*
X144800000Y-67575500D02*
X143525000Y-68850500D01*
%TO.N,Board_0-/SX1261_DIO2*%
X145200000Y-69200500D02*
X145150000Y-69250500D01*
X145200000Y-61888000D02*
X145200000Y-69200500D01*
D56*
%TO.N,Board_0-/SX1261_NRESET*%
X143362500Y-56050500D02*
X142900000Y-56050500D01*
X142900000Y-56050500D02*
X141100000Y-54250500D01*
X141100000Y-54250500D02*
X141100000Y-48050500D01*
X141100000Y-48050500D02*
X137875000Y-44825500D01*
%TO.N,Board_0-/SX1261_NSS*%
X142650000Y-56450500D02*
X143362500Y-56450500D01*
X135350000Y-44050500D02*
X140450000Y-49150500D01*
X140450000Y-49150500D02*
X140450000Y-54250500D01*
X140450000Y-54250500D02*
X142650000Y-56450500D01*
%TO.N,Board_0-/SX1303_GPIO6*%
X136250000Y-51575500D02*
X137125000Y-51575500D01*
X142400000Y-56850500D02*
X143362500Y-56850500D01*
X137125000Y-51575500D02*
X142400000Y-56850500D01*
%TO.N,Board_0-/SX1303_GPIO8*%
X143700000Y-53700500D02*
X143700000Y-53750500D01*
X143700000Y-53750500D02*
X144400000Y-54450500D01*
X144400000Y-54450500D02*
X144400000Y-55013000D01*
X143750000Y-53650500D02*
X143700000Y-53700500D01*
%TO.N,Board_0-/SX1303_RESET*%
X142450000Y-53950500D02*
X142450000Y-53370500D01*
X144000000Y-55013000D02*
X143512500Y-55013000D01*
X143512500Y-55013000D02*
X142450000Y-53950500D01*
D58*
%TO.N,Board_0-/USB_C+*%
X162937000Y-36800500D02*
X162999500Y-36863000D01*
X162650520Y-39500856D02*
X162016500Y-38866836D01*
X161950000Y-43550500D02*
X162650520Y-42849980D01*
X162016500Y-36914816D02*
X162130816Y-36800500D01*
X162130816Y-36800500D02*
X162937000Y-36800500D01*
X162016500Y-38866836D02*
X162016500Y-36914816D01*
X162999500Y-36863000D02*
X162999500Y-37541050D01*
X161950000Y-45070500D02*
X161950000Y-43550500D01*
X162650520Y-42849980D02*
X162650520Y-39500856D01*
%TO.N,Board_0-/USB_C-*%
X163147500Y-39295000D02*
X163147500Y-39078000D01*
X163147500Y-39078000D02*
X163486500Y-38739000D01*
X163850000Y-45070500D02*
X163850000Y-43550500D01*
X163486500Y-38739000D02*
X163486500Y-37755500D01*
X162512500Y-38660000D02*
X162512500Y-37755500D01*
X163850000Y-43550500D02*
X163147500Y-42848000D01*
X163147500Y-42848000D02*
X163147500Y-39295000D01*
X163147500Y-39295000D02*
X162512500Y-38660000D01*
%TO.N,Board_0-/USB_D+*%
X161950000Y-47580500D02*
X161950000Y-48488001D01*
X162652500Y-49190501D02*
X162652500Y-50198018D01*
X155382500Y-56408000D02*
X155125000Y-56150500D01*
X162652500Y-50198018D02*
X156442518Y-56408000D01*
X156442518Y-56408000D02*
X155382500Y-56408000D01*
X161950000Y-48488001D02*
X162652500Y-49190501D01*
%TO.N,Board_0-/USB_D-*%
X163147500Y-49190501D02*
X163147500Y-50403054D01*
X163147500Y-50403054D02*
X156647554Y-56903000D01*
X163850000Y-48488001D02*
X163147500Y-49190501D01*
X155382500Y-56903000D02*
X155110000Y-57175500D01*
X163850000Y-47580500D02*
X163850000Y-48488001D01*
X156647554Y-56903000D02*
X155382500Y-56903000D01*
D59*
%TO.N,Board_0-/VBUS*%
X146850000Y-40750500D02*
X142868000Y-40750500D01*
X165700000Y-46920500D02*
X165130000Y-46350500D01*
X140850000Y-38732500D02*
X140850000Y-37755500D01*
X145650000Y-37755500D02*
X145650000Y-39550500D01*
X160000000Y-42000500D02*
X158750000Y-40750500D01*
X160700000Y-46350500D02*
X160000000Y-45650500D01*
X165700000Y-55900500D02*
X165700000Y-46920500D01*
X158750000Y-40750500D02*
X146850000Y-40750500D01*
X145650000Y-39550500D02*
X146850000Y-40750500D01*
X142868000Y-40750500D02*
X140850000Y-38732500D01*
X160000000Y-45650500D02*
X160000000Y-42000500D01*
X165130000Y-46350500D02*
X160700000Y-46350500D01*
D57*
%TO.N,Board_0-/VDD*%
X162500000Y-57700500D02*
X162600000Y-57800500D01*
X161640000Y-55600500D02*
X161640000Y-56650500D01*
X163900000Y-58000500D02*
X163900000Y-58285200D01*
X161640000Y-56650500D02*
X161640000Y-56840500D01*
X161640000Y-56840500D02*
X162500000Y-57700500D01*
%TO.N,Board_0-/VPHONE*%
X165000000Y-37605500D02*
X165150000Y-37755500D01*
X162850000Y-35100500D02*
X162400000Y-35100500D01*
X163200000Y-35100500D02*
X165000000Y-36900500D01*
X162400000Y-35100500D02*
X160350000Y-37150500D01*
X162850000Y-35100500D02*
X163200000Y-35100500D01*
X165000000Y-36900500D02*
X165000000Y-37605500D01*
X160350000Y-37150500D02*
X160350000Y-37755500D01*
X162900000Y-45070500D02*
X162900000Y-44000500D01*
%TO.N,Board_0-/VREG_AVDD*%
X151400000Y-61925500D02*
X152340000Y-61925500D01*
X151400000Y-61925500D02*
X150912500Y-61925500D01*
X152340000Y-61925500D02*
X152375000Y-61890500D01*
X150912500Y-61925500D02*
X150237500Y-61250500D01*
D56*
%TO.N,Board_0-/V_EN*%
X130750001Y-64645200D02*
X130750001Y-71650501D01*
X155080000Y-66640500D02*
X155080000Y-68120500D01*
X149950000Y-73250500D02*
X149750000Y-73250500D01*
X149750000Y-73250500D02*
X149850000Y-73250500D01*
X130750001Y-71650501D02*
X132350000Y-73250500D01*
X132350000Y-73250500D02*
X149750000Y-73250500D01*
X155080000Y-68120500D02*
X149950000Y-73250500D01*
D59*
%TO.N,Board_0-/V_LOAD*%
X157060000Y-67330500D02*
X156890000Y-67160500D01*
X167450000Y-66950500D02*
X167070000Y-67330500D01*
D56*
X131325000Y-74300500D02*
X150400000Y-74300500D01*
D59*
X166604700Y-59255200D02*
X167094700Y-59745200D01*
D60*
X165400000Y-59250500D02*
X165404700Y-59255200D01*
D56*
X128749999Y-64645200D02*
X128749999Y-71725499D01*
X128749999Y-71725499D02*
X131325000Y-74300500D01*
D60*
X167094700Y-59745200D02*
X167450000Y-59745200D01*
D59*
X165404700Y-59255200D02*
X166604700Y-59255200D01*
D56*
X150400000Y-74300500D02*
X156950000Y-67750500D01*
X156950000Y-67750500D02*
X156950000Y-67160500D01*
D59*
X167450000Y-59745200D02*
X167450000Y-66950500D01*
X167070000Y-67330500D02*
X157060000Y-67330500D01*
D56*
%TO.N,Board_0-/XIN*%
X138000000Y-57425500D02*
X137819000Y-57606500D01*
X139359999Y-57425500D02*
X138825000Y-57425500D01*
X135345000Y-57606500D02*
X134545000Y-56806500D01*
X137819000Y-57606500D02*
X135345000Y-57606500D01*
X138475000Y-57425500D02*
X138000000Y-57425500D01*
X143362500Y-57650500D02*
X139584999Y-57650500D01*
X139584999Y-57650500D02*
X139359999Y-57425500D01*
X134545000Y-56806500D02*
X134545000Y-56580500D01*
%TO.N,Board_0-/XOUT*%
X141850000Y-58150500D02*
X141950000Y-58050500D01*
X141950000Y-58050500D02*
X143362500Y-58050500D01*
X141300000Y-58150500D02*
X141850000Y-58150500D01*
D57*
%TO.N,Board_0-/~{USB_BOOT}*%
X159750000Y-50500500D02*
X159750000Y-50850500D01*
X154835000Y-54900500D02*
X154850000Y-54900500D01*
X154900000Y-54900500D02*
X154835000Y-54900500D01*
X159300000Y-50500500D02*
X154900000Y-54900500D01*
X159750000Y-50500500D02*
X159300000Y-50500500D01*
X154885000Y-54950500D02*
X154835000Y-54900500D01*
D60*
%TO.N,Board_0-GND*%
X145350000Y-52450500D02*
X145350000Y-52775500D01*
X151850000Y-61075500D02*
X151850000Y-61050500D01*
X140050000Y-37755500D02*
X140050000Y-38750500D01*
X151145000Y-62600500D02*
X150850000Y-62600500D01*
D61*
X151885000Y-61015500D02*
X152350000Y-61015500D01*
D60*
X151875000Y-61100500D02*
X151850000Y-61075500D01*
X151990000Y-56150500D02*
X151970000Y-56170500D01*
X168850000Y-49950500D02*
X168850000Y-52600500D01*
X146450000Y-37755500D02*
X146450000Y-38700500D01*
X151875000Y-61025500D02*
X151885000Y-61015500D01*
X136225000Y-66425500D02*
X136350000Y-66425500D01*
X139575000Y-59300500D02*
X139550000Y-59275500D01*
X149250000Y-36610500D02*
X149250000Y-37250500D01*
X151980000Y-56170500D02*
X152000000Y-56150500D01*
X163700000Y-54390500D02*
X163010000Y-54390500D01*
D57*
X155080000Y-65730500D02*
X155080000Y-66180500D01*
D60*
X137250000Y-37350500D02*
X137250000Y-36610500D01*
X151815000Y-61015500D02*
X151400000Y-61015500D01*
D57*
X155280000Y-66185500D02*
X156875000Y-66185500D01*
D60*
X151450000Y-56170500D02*
X151980000Y-56170500D01*
X138250000Y-69750500D02*
X138850000Y-69750500D01*
X163010000Y-54390500D02*
X163000000Y-54400500D01*
X142750000Y-62450500D02*
X142740000Y-62460500D01*
X148550000Y-65850500D02*
X148550000Y-66340500D01*
X147450000Y-64150500D02*
X147350000Y-64050500D01*
X147114875Y-64030500D02*
X147050000Y-64030500D01*
X147650000Y-64150500D02*
X147450000Y-64150500D01*
D56*
X150237500Y-60850500D02*
X150262500Y-60875500D01*
D60*
X165950000Y-37755500D02*
X165950000Y-38650500D01*
X148850000Y-51150500D02*
X149350000Y-51150500D01*
X149525000Y-64685500D02*
X149525000Y-65075500D01*
X170250000Y-49950500D02*
X170250000Y-52650500D01*
X152380000Y-54900500D02*
X152950000Y-54900500D01*
X142740000Y-62460500D02*
X142740000Y-63075500D01*
X147134875Y-64050500D02*
X147114875Y-64030500D01*
X152000000Y-56150500D02*
X151990000Y-56150500D01*
X139950000Y-66450500D02*
X139375000Y-66450500D01*
X151400000Y-62855500D02*
X151145000Y-62600500D01*
X162900000Y-47580500D02*
X162900000Y-48400500D01*
X136350000Y-66425500D02*
X136375000Y-66450500D01*
X139350000Y-66425500D02*
X139375000Y-66450500D01*
X149525000Y-65075500D02*
X149250000Y-65350500D01*
X135875000Y-66075500D02*
X136225000Y-66425500D01*
D57*
X156875000Y-66185500D02*
X156890000Y-66200500D01*
D60*
X151850000Y-61050500D02*
X151815000Y-61015500D01*
D56*
X155080000Y-66180500D02*
X155100000Y-66200500D01*
D60*
X147350000Y-64050500D02*
X147134875Y-64050500D01*
X140290000Y-59300500D02*
X139575000Y-59300500D01*
X140370000Y-56220500D02*
X140370000Y-56850500D01*
X140350000Y-56200500D02*
X140370000Y-56220500D01*
X164200000Y-41060500D02*
X164200000Y-41550500D01*
X161650000Y-41460500D02*
X161650000Y-42200500D01*
X151875000Y-61100500D02*
X151875000Y-61025500D01*
D56*
X150262500Y-60875500D02*
X151260000Y-60875500D01*
D60*
X159550000Y-37755500D02*
X159550000Y-38675500D01*
D56*
%TO.N,Board_0-Net-(C21-Pad1)*%
X138625000Y-58180500D02*
X140190000Y-58180500D01*
X138575000Y-58180500D02*
X136845000Y-58180500D01*
X136845000Y-58180500D02*
X136245000Y-58780500D01*
%TO.N,Board_0-Net-(D1-A)*%
X137230000Y-68650500D02*
X137230000Y-69730500D01*
X137230000Y-69730500D02*
X137250000Y-69750500D01*
D57*
%TO.N,Board_0-Net-(J5-CC1)*%
X144500000Y-37755500D02*
X144500000Y-36450500D01*
X144500000Y-36450500D02*
X145360000Y-35590500D01*
X145360000Y-35590500D02*
X149250000Y-35590500D01*
%TO.N,Board_0-Net-(J5-CC2)*%
X141500000Y-36400500D02*
X140690000Y-35590500D01*
X140690000Y-35590500D02*
X137250000Y-35590500D01*
X141500000Y-37755500D02*
X141500000Y-36400500D01*
D56*
%TO.N,Board_0-Net-(J6-Pad19)*%
X142850000Y-43940500D02*
X142850000Y-42750500D01*
%TO.N,Board_0-Net-(J6-Pad22)*%
X142550000Y-52350500D02*
X143450000Y-51450500D01*
X142450000Y-52350500D02*
X142550000Y-52350500D01*
%TO.N,Board_0-Net-(J7-CC1)*%
X164050000Y-37650500D02*
X164050000Y-38500500D01*
X164074000Y-37626500D02*
X164050000Y-37650500D01*
X164200000Y-38650500D02*
X164200000Y-40040500D01*
X164050000Y-38500500D02*
X164200000Y-38650500D01*
X164050000Y-38150500D02*
X164050000Y-37650500D01*
%TO.N,Board_0-Net-(J7-CC2)*%
X161000000Y-39050500D02*
X161675000Y-39725500D01*
X161675000Y-39725500D02*
X161675000Y-40590500D01*
X161000000Y-38218000D02*
X161000000Y-39050500D01*
D60*
%TO.N,Board_0-Net-(R1-Pad2)*%
X148460000Y-67450500D02*
X147350000Y-67450500D01*
X148550000Y-67360500D02*
X148460000Y-67450500D01*
D56*
%TO.N,Board_0-Net-(U1-GPIO18)*%
X141450000Y-66250500D02*
X139050000Y-68650500D01*
X142174000Y-61476500D02*
X142174000Y-63874500D01*
X142174000Y-63874500D02*
X142550000Y-64250500D01*
X143675000Y-64250500D02*
X144023000Y-64598500D01*
X142800000Y-60850500D02*
X142174000Y-61476500D01*
X144023000Y-64598500D02*
X144023000Y-65902500D01*
X143362500Y-60850500D02*
X142800000Y-60850500D01*
X144023000Y-65902500D02*
X143675000Y-66250500D01*
X139050000Y-68650500D02*
X138250000Y-68650500D01*
X143675000Y-66250500D02*
X141450000Y-66250500D01*
X142550000Y-64250500D02*
X143675000Y-64250500D01*
%TO.N,Board_0-Net-(U1-USB_DM)*%
X150237500Y-59250500D02*
X150850000Y-59250500D01*
X152925000Y-57175500D02*
X154090000Y-57175500D01*
X150850000Y-59250500D02*
X152925000Y-57175500D01*
%TO.N,Board_0-Net-(U1-USB_DP)*%
X154105000Y-56150500D02*
X153450000Y-56150500D01*
X153450000Y-56150500D02*
X150750000Y-58850500D01*
X150750000Y-58850500D02*
X150237500Y-58850500D01*
%TO.N,Board_0-Net-(U4-NTC)*%
X164850000Y-55900500D02*
X164500000Y-55550500D01*
X164850000Y-58235200D02*
X164850000Y-55900500D01*
D57*
X162660000Y-55600500D02*
X162710000Y-55550500D01*
D56*
X162710000Y-55550500D02*
X163700000Y-55550500D01*
X164500000Y-55550500D02*
X163650000Y-55550500D01*
%TD*%
%TA.AperFunction,Conductor*%
%TO.N,Board_0-/USB_C-*%
G36*
X164012646Y-44173927D02*
G01*
X164015337Y-44178115D01*
X164137578Y-44506175D01*
X164137255Y-44515124D01*
X164137010Y-44515628D01*
X163860396Y-45051365D01*
X163853556Y-45057144D01*
X163844632Y-45056393D01*
X163839604Y-45051365D01*
X163772319Y-44921051D01*
X163562988Y-44515626D01*
X163562238Y-44506704D01*
X163562408Y-44506210D01*
X163684663Y-44178115D01*
X163690763Y-44171559D01*
X163695627Y-44170500D01*
X164004373Y-44170500D01*
X164012646Y-44173927D01*
G37*
%TD.AperFunction*%
%TD*%
%TA.AperFunction,Conductor*%
%TO.N,Board_0-/MCU_RESET*%
G36*
X138278869Y-42569931D02*
G01*
X138279910Y-42571876D01*
X138495184Y-43085412D01*
X138495222Y-43094366D01*
X138492667Y-43098208D01*
X138397708Y-43193167D01*
X138389435Y-43196594D01*
X138384912Y-43195684D01*
X137871376Y-42980410D01*
X137865071Y-42974051D01*
X137865109Y-42965097D01*
X137866147Y-42963156D01*
X138022985Y-42726763D01*
X138026263Y-42723485D01*
X138262653Y-42566649D01*
X138271440Y-42564931D01*
X138278869Y-42569931D01*
G37*
%TD.AperFunction*%
%TD*%
%TA.AperFunction,Conductor*%
%TO.N,Board_0-GND*%
G36*
X140248452Y-38159691D02*
G01*
X140251702Y-38165937D01*
X140342259Y-38680739D01*
X140340317Y-38689481D01*
X140333056Y-38694234D01*
X140052320Y-38751030D01*
X140047680Y-38751030D01*
X139766943Y-38694234D01*
X139759514Y-38689234D01*
X139757740Y-38680739D01*
X139848298Y-38165937D01*
X139853106Y-38158383D01*
X139859821Y-38156264D01*
X140240179Y-38156264D01*
X140248452Y-38159691D01*
G37*
%TD.AperFunction*%
%TD*%
%TA.AperFunction,Conductor*%
%TO.N,Board_0-/SWCLK*%
G36*
X142978376Y-58751369D02*
G01*
X143319479Y-58839169D01*
X143326636Y-58844550D01*
X143327893Y-58853417D01*
X143322512Y-58860574D01*
X143319478Y-58861831D01*
X142977396Y-58949882D01*
X142972557Y-58950092D01*
X142834777Y-58927129D01*
X142827179Y-58922389D01*
X142825000Y-58915588D01*
X142825000Y-58785411D01*
X142828427Y-58777138D01*
X142834775Y-58773870D01*
X142971046Y-58751159D01*
X142972969Y-58751000D01*
X142975459Y-58751000D01*
X142978376Y-58751369D01*
G37*
%TD.AperFunction*%
%TD*%
%TA.AperFunction,Conductor*%
%TO.N,Board_0-/XIN*%
G36*
X138388122Y-57117805D02*
G01*
X138642494Y-57342971D01*
X138646417Y-57351020D01*
X138643725Y-57359224D01*
X138431498Y-57613757D01*
X138423568Y-57617916D01*
X138418889Y-57617389D01*
X138068077Y-57503130D01*
X138061271Y-57497309D01*
X138060000Y-57492005D01*
X138060000Y-57356376D01*
X138063427Y-57348103D01*
X138064713Y-57346991D01*
X138070114Y-57342970D01*
X138373381Y-57117180D01*
X138382062Y-57114989D01*
X138388122Y-57117805D01*
G37*
%TD.AperFunction*%
%TD*%
%TA.AperFunction,Conductor*%
%TO.N,Board_0-GND*%
G36*
X151938577Y-55860455D02*
G01*
X151943788Y-55867737D01*
X151943860Y-55868066D01*
X152000530Y-56148180D01*
X152000530Y-56152820D01*
X151943680Y-56433824D01*
X151938680Y-56441253D01*
X151930465Y-56443073D01*
X151459953Y-56372003D01*
X151452284Y-56367379D01*
X151450000Y-56360434D01*
X151450000Y-55979792D01*
X151453427Y-55971519D01*
X151459050Y-55968396D01*
X151929744Y-55858990D01*
X151938577Y-55860455D01*
G37*
%TD.AperFunction*%
%TD*%
%TA.AperFunction,Conductor*%
%TO.N,Board_0-GND*%
G36*
X155087005Y-65734739D02*
G01*
X155199503Y-65818888D01*
X155204075Y-65826588D01*
X155204092Y-65829803D01*
X155181354Y-66000346D01*
X155176864Y-66008094D01*
X155169757Y-66010500D01*
X154990243Y-66010500D01*
X154981970Y-66007073D01*
X154978646Y-66000346D01*
X154955907Y-65829803D01*
X154958210Y-65821150D01*
X154960491Y-65818892D01*
X155072993Y-65734740D01*
X155081669Y-65732530D01*
X155087005Y-65734739D01*
G37*
%TD.AperFunction*%
%TD*%
%TA.AperFunction,Conductor*%
%TO.N,Board_0-/V_LOAD*%
G36*
X166318472Y-59007871D02*
G01*
X167541746Y-59242965D01*
X167549223Y-59247891D01*
X167551027Y-59256662D01*
X167550999Y-59256801D01*
X167452371Y-59738501D01*
X167447355Y-59745919D01*
X167444491Y-59747292D01*
X166732264Y-59976315D01*
X166723339Y-59975586D01*
X166719933Y-59972946D01*
X166307525Y-59508523D01*
X166304574Y-59500754D01*
X166304574Y-59019362D01*
X166308001Y-59011089D01*
X166316274Y-59007662D01*
X166318472Y-59007871D01*
G37*
%TD.AperFunction*%
%TD*%
%TA.AperFunction,Conductor*%
%TO.N,Board_0-+3V3*%
G36*
X151456212Y-57138085D02*
G01*
X151629316Y-57398804D01*
X151631037Y-57407592D01*
X151627109Y-57414222D01*
X151320936Y-57672275D01*
X151312402Y-57674987D01*
X151305123Y-57671602D01*
X151174175Y-57540654D01*
X151170827Y-57533742D01*
X151140994Y-57278990D01*
X151143436Y-57270375D01*
X151147784Y-57266974D01*
X151441640Y-57133898D01*
X151450588Y-57133608D01*
X151456212Y-57138085D01*
G37*
%TD.AperFunction*%
%TD*%
%TA.AperFunction,Conductor*%
%TO.N,Board_0-/BAT_PWR*%
G36*
X165565677Y-59770185D02*
G01*
X165586319Y-59786819D01*
X165594684Y-59795184D01*
X165604629Y-59806411D01*
X166217328Y-60588781D01*
X166235687Y-60612223D01*
X166256732Y-60652716D01*
X166444671Y-61272914D01*
X166450000Y-61308875D01*
X166450000Y-66376500D01*
X166430315Y-66443539D01*
X166377511Y-66489294D01*
X166326000Y-66500500D01*
X165524000Y-66500500D01*
X165456961Y-66480815D01*
X165411206Y-66428011D01*
X165400000Y-66376500D01*
X165400000Y-61390499D01*
X164767693Y-60722061D01*
X164752625Y-60692547D01*
X164736673Y-60663500D01*
X164736482Y-60660926D01*
X164735924Y-60659832D01*
X164734070Y-60628302D01*
X164734934Y-60615795D01*
X164735240Y-60612148D01*
X164735498Y-60609526D01*
X164735500Y-60609520D01*
X164735500Y-60609513D01*
X164735626Y-60608237D01*
X164735795Y-60603349D01*
X164735814Y-60603068D01*
X164736802Y-60588782D01*
X164736380Y-60582504D01*
X164736379Y-60582499D01*
X164736097Y-60578292D01*
X164736220Y-60578283D01*
X164735500Y-60567640D01*
X164735500Y-59874500D01*
X164755185Y-59807461D01*
X164807989Y-59761706D01*
X164859500Y-59750500D01*
X165498638Y-59750500D01*
X165565677Y-59770185D01*
G37*
%TD.AperFunction*%
%TD*%
%TA.AperFunction,Conductor*%
%TO.N,Board_0-/GPS_TX*%
G36*
X146873361Y-54478927D02*
G01*
X146876629Y-54485276D01*
X146896483Y-54604397D01*
X146896620Y-54607033D01*
X146895100Y-54631949D01*
X146895100Y-54631973D01*
X146895309Y-54636801D01*
X146895311Y-54636821D01*
X146895612Y-54638848D01*
X146895370Y-54643480D01*
X146811331Y-54969978D01*
X146805950Y-54977136D01*
X146797084Y-54978393D01*
X146789926Y-54973012D01*
X146788669Y-54969979D01*
X146704628Y-54643480D01*
X146704626Y-54643475D01*
X146704386Y-54638841D01*
X146704689Y-54636806D01*
X146704899Y-54631967D01*
X146703378Y-54607029D01*
X146703514Y-54604413D01*
X146723370Y-54485274D01*
X146728111Y-54477679D01*
X146734911Y-54475500D01*
X146865088Y-54475500D01*
X146873361Y-54478927D01*
G37*
%TD.AperFunction*%
%TD*%
%TA.AperFunction,Conductor*%
%TO.N,Board_0-GND*%
G36*
X169048452Y-52009691D02*
G01*
X169051702Y-52015937D01*
X169142259Y-52530739D01*
X169140317Y-52539481D01*
X169133056Y-52544234D01*
X168852320Y-52601030D01*
X168847680Y-52601030D01*
X168566943Y-52544234D01*
X168559514Y-52539234D01*
X168557740Y-52530739D01*
X168648298Y-52015937D01*
X168653106Y-52008383D01*
X168659821Y-52006264D01*
X169040179Y-52006264D01*
X169048452Y-52009691D01*
G37*
%TD.AperFunction*%
%TD*%
%TA.AperFunction,Conductor*%
%TO.N,Board_0-+3V3*%
G36*
X156227057Y-62650500D02*
G01*
X156227057Y-62850500D01*
X155816671Y-63099941D01*
X155649000Y-62850500D01*
X155708527Y-62556264D01*
X156227057Y-62650500D01*
G37*
%TD.AperFunction*%
%TD*%
%TA.AperFunction,Conductor*%
%TO.N,Board_0-Net-(U4-NTC)*%
G36*
X164926313Y-57758627D02*
G01*
X164928322Y-57761317D01*
X164996141Y-57886207D01*
X164997214Y-57894609D01*
X164909111Y-58249496D01*
X164903792Y-58256700D01*
X164894937Y-58258032D01*
X164887733Y-58252713D01*
X164886795Y-58250769D01*
X164765861Y-57926261D01*
X164765145Y-57921491D01*
X164774348Y-57766208D01*
X164778259Y-57758152D01*
X164786028Y-57755200D01*
X164918040Y-57755200D01*
X164926313Y-57758627D01*
G37*
%TD.AperFunction*%
%TD*%
%TA.AperFunction,Conductor*%
%TO.N,Board_0-GND*%
G36*
X166148452Y-38059691D02*
G01*
X166151702Y-38065937D01*
X166242259Y-38580739D01*
X166240317Y-38589481D01*
X166233056Y-38594234D01*
X165952320Y-38651030D01*
X165947680Y-38651030D01*
X165666943Y-38594234D01*
X165659514Y-38589234D01*
X165657740Y-38580739D01*
X165748298Y-38065937D01*
X165753106Y-38058383D01*
X165759821Y-38056264D01*
X166140179Y-38056264D01*
X166148452Y-38059691D01*
G37*
%TD.AperFunction*%
%TD*%
%TA.AperFunction,Conductor*%
%TO.N,Board_0-/SDA0*%
G36*
X148615087Y-70680315D02*
G01*
X148797668Y-70756853D01*
X149128623Y-70895589D01*
X149134928Y-70901948D01*
X149134890Y-70910902D01*
X149133849Y-70912847D01*
X148977015Y-71149234D01*
X148973734Y-71152515D01*
X148737347Y-71309349D01*
X148728559Y-71311068D01*
X148721130Y-71306068D01*
X148720089Y-71304123D01*
X148504815Y-70790587D01*
X148504777Y-70781633D01*
X148507330Y-70777793D01*
X148602292Y-70682831D01*
X148610564Y-70679405D01*
X148615087Y-70680315D01*
G37*
%TD.AperFunction*%
%TD*%
%TA.AperFunction,Conductor*%
%TO.N,Board_0-+1V1*%
G36*
X148503152Y-63863927D02*
G01*
X148503465Y-63864252D01*
X148760390Y-64142502D01*
X148763485Y-64150904D01*
X148760931Y-64157745D01*
X148555689Y-64414385D01*
X148547846Y-64418706D01*
X148541708Y-64417728D01*
X148247977Y-64284128D01*
X148241865Y-64277583D01*
X148241239Y-64271825D01*
X148298565Y-63870545D01*
X148303127Y-63862840D01*
X148310147Y-63860500D01*
X148494879Y-63860500D01*
X148503152Y-63863927D01*
G37*
%TD.AperFunction*%
%TD*%
%TA.AperFunction,Conductor*%
%TO.N,Board_0-Net-(J6-Pad22)*%
G36*
X143210402Y-51290609D02*
G01*
X143212347Y-51291650D01*
X143448734Y-51448484D01*
X143452015Y-51451765D01*
X143608849Y-51688152D01*
X143610568Y-51696940D01*
X143605568Y-51704369D01*
X143603623Y-51705410D01*
X143090087Y-51920684D01*
X143081133Y-51920722D01*
X143077291Y-51918167D01*
X142982332Y-51823208D01*
X142978905Y-51814935D01*
X142979815Y-51810412D01*
X143023832Y-51705410D01*
X143195090Y-51296874D01*
X143201448Y-51290571D01*
X143210402Y-51290609D01*
G37*
%TD.AperFunction*%
%TD*%
%TA.AperFunction,Conductor*%
%TO.N,Board_0-GND*%
G36*
X152339948Y-60864070D02*
G01*
X152347656Y-60868627D01*
X152350000Y-60875653D01*
X152350000Y-61158865D01*
X152346573Y-61167138D01*
X152344306Y-61168906D01*
X152051195Y-61344243D01*
X152042336Y-61345549D01*
X152035479Y-61340729D01*
X151876727Y-61104557D01*
X151874956Y-61095779D01*
X151874969Y-61095710D01*
X151931338Y-60817079D01*
X151936338Y-60809652D01*
X151944453Y-60807818D01*
X152339948Y-60864070D01*
G37*
%TD.AperFunction*%
%TD*%
%TA.AperFunction,Conductor*%
%TO.N,Board_0-+1V1*%
G36*
X140413881Y-60031672D02*
G01*
X140414359Y-60032124D01*
X140544042Y-60161807D01*
X140547469Y-60170080D01*
X140544280Y-60178108D01*
X140231205Y-60509999D01*
X140223035Y-60513666D01*
X140216226Y-60511720D01*
X140065824Y-60411934D01*
X139978364Y-60353908D01*
X139973366Y-60346482D01*
X139919056Y-60069440D01*
X139920827Y-60060662D01*
X139928286Y-60055708D01*
X139929868Y-60055509D01*
X140405429Y-60028716D01*
X140413881Y-60031672D01*
G37*
%TD.AperFunction*%
%TD*%
%TA.AperFunction,Conductor*%
%TO.N,Board_0-/SCL0*%
G36*
X148687333Y-68711660D02*
G01*
X148693638Y-68718019D01*
X148694278Y-68720130D01*
X148750530Y-68998180D01*
X148750530Y-69002820D01*
X148694278Y-69280869D01*
X148689278Y-69288298D01*
X148680490Y-69290017D01*
X148678379Y-69289377D01*
X148163033Y-69078474D01*
X148156674Y-69072169D01*
X148155764Y-69067646D01*
X148155764Y-68933353D01*
X148159191Y-68925080D01*
X148163033Y-68922525D01*
X148678380Y-68711622D01*
X148687333Y-68711660D01*
G37*
%TD.AperFunction*%
%TD*%
%TA.AperFunction,Conductor*%
%TO.N,Board_0-/SX1261_NSS*%
G36*
X142977397Y-56351117D02*
G01*
X143319479Y-56439169D01*
X143326636Y-56444550D01*
X143327893Y-56453417D01*
X143322512Y-56460574D01*
X143319478Y-56461831D01*
X142977396Y-56549882D01*
X142972557Y-56550092D01*
X142834777Y-56527129D01*
X142827179Y-56522389D01*
X142825000Y-56515588D01*
X142825000Y-56385411D01*
X142828427Y-56377138D01*
X142834775Y-56373870D01*
X142972557Y-56350907D01*
X142977397Y-56351117D01*
G37*
%TD.AperFunction*%
%TD*%
%TA.AperFunction,Conductor*%
%TO.N,Board_0-/SDA0*%
G36*
X146010074Y-61927987D02*
G01*
X146011331Y-61931021D01*
X146095370Y-62257518D01*
X146095613Y-62262149D01*
X146095309Y-62264196D01*
X146095100Y-62269028D01*
X146095100Y-62269051D01*
X146096620Y-62293965D01*
X146096483Y-62296600D01*
X146076629Y-62415723D01*
X146071888Y-62423321D01*
X146065088Y-62425500D01*
X145934911Y-62425500D01*
X145926638Y-62422073D01*
X145923370Y-62415723D01*
X145903514Y-62296587D01*
X145903378Y-62293969D01*
X145904899Y-62269034D01*
X145904689Y-62264194D01*
X145904386Y-62262157D01*
X145904626Y-62257525D01*
X145988669Y-61931019D01*
X145994050Y-61923863D01*
X146002917Y-61922606D01*
X146010074Y-61927987D01*
G37*
%TD.AperFunction*%
%TD*%
%TA.AperFunction,Conductor*%
%TO.N,Board_0-GND*%
G36*
X137448452Y-36759691D02*
G01*
X137451702Y-36765937D01*
X137542259Y-37280739D01*
X137540317Y-37289481D01*
X137533056Y-37294234D01*
X137252320Y-37351030D01*
X137247680Y-37351030D01*
X136966943Y-37294234D01*
X136959514Y-37289234D01*
X136957740Y-37280739D01*
X137048298Y-36765937D01*
X137053106Y-36758383D01*
X137059821Y-36756264D01*
X137440179Y-36756264D01*
X137448452Y-36759691D01*
G37*
%TD.AperFunction*%
%TD*%
%TA.AperFunction,Conductor*%
%TO.N,Board_0-/SCL0*%
G36*
X163891256Y-60223607D02*
G01*
X163899173Y-60227791D01*
X163901788Y-60233924D01*
X163945643Y-60616521D01*
X163944294Y-60623450D01*
X163863036Y-60772630D01*
X163856069Y-60778256D01*
X163847164Y-60777308D01*
X163844488Y-60775306D01*
X163718138Y-60648956D01*
X163714711Y-60640683D01*
X163714791Y-60639318D01*
X163763667Y-60223129D01*
X163768035Y-60215313D01*
X163776375Y-60212846D01*
X163891256Y-60223607D01*
G37*
%TD.AperFunction*%
%TD*%
%TA.AperFunction,Conductor*%
%TO.N,Board_0-GND*%
G36*
X147694464Y-63856122D02*
G01*
X147702701Y-63859631D01*
X147706044Y-63867939D01*
X147705828Y-63870066D01*
X147651453Y-64148181D01*
X147649680Y-64152463D01*
X147488738Y-64391892D01*
X147481279Y-64396846D01*
X147474416Y-64396118D01*
X147141963Y-64253539D01*
X147135711Y-64247129D01*
X147134875Y-64242786D01*
X147134875Y-63862317D01*
X147138302Y-63854044D01*
X147146573Y-63850617D01*
X147694464Y-63856122D01*
G37*
%TD.AperFunction*%
%TD*%
%TA.AperFunction,Conductor*%
%TO.N,Board_0-/VBUS*%
G36*
X145655404Y-37769451D02*
G01*
X145660376Y-37774423D01*
X145946166Y-38323140D01*
X145947397Y-38327082D01*
X145948548Y-38336216D01*
X145948481Y-38339602D01*
X145901629Y-38620723D01*
X145896889Y-38628321D01*
X145890088Y-38630500D01*
X145409911Y-38630500D01*
X145401638Y-38627073D01*
X145398370Y-38620723D01*
X145350659Y-38334454D01*
X145350500Y-38332531D01*
X145350500Y-38332404D01*
X145351823Y-38326999D01*
X145353833Y-38323140D01*
X145639624Y-37774420D01*
X145646483Y-37768669D01*
X145655404Y-37769451D01*
G37*
%TD.AperFunction*%
%TD*%
%TA.AperFunction,Conductor*%
%TO.N,Board_0-/VREG_AVDD*%
G36*
X151182778Y-61633808D02*
G01*
X151394295Y-61888486D01*
X151396944Y-61897040D01*
X151394052Y-61903719D01*
X151174226Y-62151875D01*
X151166175Y-62155796D01*
X151159518Y-62154191D01*
X150782306Y-61931407D01*
X150776925Y-61924249D01*
X150778182Y-61915383D01*
X150779979Y-61913064D01*
X150909679Y-61783364D01*
X150912016Y-61781556D01*
X151167850Y-61631195D01*
X151176718Y-61629959D01*
X151182778Y-61633808D01*
G37*
%TD.AperFunction*%
%TD*%
%TA.AperFunction,Conductor*%
%TO.N,Board_0-+1V1*%
G36*
X141060172Y-59138698D02*
G01*
X141325389Y-59247609D01*
X141331741Y-59253922D01*
X141332228Y-59255335D01*
X141413333Y-59550856D01*
X141412218Y-59559742D01*
X141406866Y-59564616D01*
X140959079Y-59766881D01*
X140950129Y-59767163D01*
X140945990Y-59764491D01*
X140816176Y-59634677D01*
X140812749Y-59626404D01*
X140813922Y-59621298D01*
X140843408Y-59560500D01*
X141045202Y-59144414D01*
X141051894Y-59138467D01*
X141060172Y-59138698D01*
G37*
%TD.AperFunction*%
%TD*%
%TA.AperFunction,Conductor*%
%TO.N,Board_0-/SCL0*%
G36*
X158994386Y-60484267D02*
G01*
X159333119Y-60637389D01*
X159339246Y-60643919D01*
X159340000Y-60648050D01*
X159340000Y-60832949D01*
X159336573Y-60841222D01*
X159333119Y-60843610D01*
X158994388Y-60996731D01*
X158985438Y-60997016D01*
X158980937Y-60993968D01*
X158840505Y-60840500D01*
X158756226Y-60748397D01*
X158753170Y-60739982D01*
X158756227Y-60732602D01*
X158980939Y-60487029D01*
X158989051Y-60483240D01*
X158994386Y-60484267D01*
G37*
%TD.AperFunction*%
%TD*%
%TA.AperFunction,Conductor*%
%TO.N,Board_0-+3V3*%
G36*
X151203592Y-59826304D02*
G01*
X151390212Y-59976800D01*
X151394500Y-59984661D01*
X151391975Y-59993253D01*
X151390613Y-59994676D01*
X151140971Y-60215224D01*
X151132502Y-60218134D01*
X151127904Y-60216876D01*
X150906379Y-60103757D01*
X150900569Y-60096943D01*
X150900000Y-60093337D01*
X150900000Y-59956285D01*
X150903427Y-59948012D01*
X150904591Y-59946992D01*
X150928929Y-59928402D01*
X150936031Y-59926000D01*
X151029798Y-59926000D01*
X151029800Y-59926000D01*
X151131058Y-59884057D01*
X151187977Y-59827137D01*
X151196247Y-59823712D01*
X151203592Y-59826304D01*
G37*
%TD.AperFunction*%
%TD*%
%TA.AperFunction,Conductor*%
%TO.N,Board_0-GND*%
G36*
X138788981Y-69460182D02*
G01*
X138793734Y-69467443D01*
X138850530Y-69748180D01*
X138850530Y-69752820D01*
X138793734Y-70033556D01*
X138788734Y-70040985D01*
X138780239Y-70042759D01*
X138265437Y-69952201D01*
X138257883Y-69947393D01*
X138255764Y-69940678D01*
X138255764Y-69560321D01*
X138259191Y-69552048D01*
X138265435Y-69548798D01*
X138780239Y-69458240D01*
X138788981Y-69460182D01*
G37*
%TD.AperFunction*%
%TD*%
%TA.AperFunction,Conductor*%
%TO.N,Board_0-GND*%
G36*
X146455405Y-37769451D02*
G01*
X146460377Y-37774423D01*
X146747708Y-38326100D01*
X146748490Y-38335021D01*
X146748431Y-38335205D01*
X146652667Y-38622500D01*
X146646799Y-38629265D01*
X146641567Y-38630500D01*
X146258433Y-38630500D01*
X146250160Y-38627073D01*
X146247333Y-38622500D01*
X146151568Y-38335205D01*
X146152203Y-38326273D01*
X146152263Y-38326154D01*
X146439623Y-37774422D01*
X146446484Y-37768669D01*
X146455405Y-37769451D01*
G37*
%TD.AperFunction*%
%TD*%
%TA.AperFunction,Conductor*%
%TO.N,Board_0-Net-(C21-Pad1)*%
G36*
X140128802Y-58019193D02*
G01*
X140132827Y-58023185D01*
X140310615Y-58316613D01*
X140311971Y-58325465D01*
X140307811Y-58331896D01*
X140057809Y-58527214D01*
X140049180Y-58529607D01*
X140042280Y-58526214D01*
X139778374Y-58258917D01*
X139775000Y-58250697D01*
X139775000Y-58114600D01*
X139778427Y-58106327D01*
X139783818Y-58103260D01*
X140119941Y-58017908D01*
X140128802Y-58019193D01*
G37*
%TD.AperFunction*%
%TD*%
%TA.AperFunction,Conductor*%
%TO.N,Board_0-GND*%
G36*
X163098452Y-47809691D02*
G01*
X163101702Y-47815937D01*
X163192259Y-48330739D01*
X163190317Y-48339481D01*
X163183056Y-48344234D01*
X162902320Y-48401030D01*
X162897680Y-48401030D01*
X162616943Y-48344234D01*
X162609514Y-48339234D01*
X162607740Y-48330739D01*
X162698298Y-47815937D01*
X162703106Y-47808383D01*
X162709821Y-47806264D01*
X163090179Y-47806264D01*
X163098452Y-47809691D01*
G37*
%TD.AperFunction*%
%TD*%
%TA.AperFunction,Conductor*%
%TO.N,Board_0-Net-(J7-CC1)*%
G36*
X164011408Y-37800975D02*
G01*
X164013044Y-37804589D01*
X164149122Y-38327128D01*
X164149500Y-38330077D01*
X164149500Y-38332531D01*
X164149341Y-38334454D01*
X164126630Y-38470723D01*
X164121890Y-38478321D01*
X164115089Y-38480500D01*
X163981790Y-38480500D01*
X163973517Y-38477073D01*
X163971631Y-38474603D01*
X163969415Y-38470723D01*
X163891460Y-38334257D01*
X163890130Y-38326251D01*
X163990232Y-37805329D01*
X163995159Y-37797852D01*
X164003930Y-37796048D01*
X164011408Y-37800975D01*
G37*
%TD.AperFunction*%
%TD*%
%TA.AperFunction,Conductor*%
%TO.N,Board_0-GND*%
G36*
X151682136Y-55906150D02*
G01*
X151857272Y-56008316D01*
X151859648Y-56010148D01*
X152127799Y-56278299D01*
X152131226Y-56286572D01*
X152127799Y-56294845D01*
X152123053Y-56297728D01*
X151681055Y-56437478D01*
X151672134Y-56436704D01*
X151668547Y-56433820D01*
X151455537Y-56178685D01*
X151452865Y-56170138D01*
X151455516Y-56163713D01*
X151667244Y-55908780D01*
X151675164Y-55904607D01*
X151682136Y-55906150D01*
G37*
%TD.AperFunction*%
%TD*%
%TA.AperFunction,Conductor*%
%TO.N,Board_0-Net-(J5-CC2)*%
G36*
X137494386Y-35334267D02*
G01*
X137833119Y-35487389D01*
X137839246Y-35493919D01*
X137840000Y-35498050D01*
X137840000Y-35682949D01*
X137836573Y-35691222D01*
X137833119Y-35693610D01*
X137494388Y-35846731D01*
X137485438Y-35847016D01*
X137480937Y-35843968D01*
X137340505Y-35690500D01*
X137256226Y-35598397D01*
X137253170Y-35589982D01*
X137256227Y-35582602D01*
X137480939Y-35337029D01*
X137489051Y-35333240D01*
X137494386Y-35334267D01*
G37*
%TD.AperFunction*%
%TD*%
%TA.AperFunction,Conductor*%
%TO.N,Board_0-+1V1*%
G36*
X147812694Y-62802165D02*
G01*
X148295864Y-62854882D01*
X148303717Y-62859186D01*
X148306226Y-62867782D01*
X148306076Y-62868764D01*
X148251647Y-63146411D01*
X148246693Y-63153870D01*
X148246634Y-63153909D01*
X148009872Y-63310991D01*
X148001084Y-63312710D01*
X147993960Y-63308148D01*
X147706973Y-62915713D01*
X147704856Y-62907015D01*
X147708143Y-62900538D01*
X147803158Y-62805523D01*
X147811430Y-62802097D01*
X147812694Y-62802165D01*
G37*
%TD.AperFunction*%
%TD*%
%TA.AperFunction,Conductor*%
%TO.N,Board_0-Net-(C21-Pad1)*%
G36*
X138422755Y-57984323D02*
G01*
X138426565Y-57987323D01*
X138638725Y-58241775D01*
X138641391Y-58250324D01*
X138637494Y-58258029D01*
X138383049Y-58483259D01*
X138374583Y-58486176D01*
X138368402Y-58483953D01*
X138059808Y-58259004D01*
X138055141Y-58251361D01*
X138055000Y-58249549D01*
X138055000Y-58113884D01*
X138058427Y-58105611D01*
X138062937Y-58102806D01*
X138413820Y-57983737D01*
X138422755Y-57984323D01*
G37*
%TD.AperFunction*%
%TD*%
%TA.AperFunction,Conductor*%
%TO.N,Board_0-GND*%
G36*
X142971175Y-62494246D02*
G01*
X143032852Y-62506724D01*
X143040281Y-62511724D01*
X143042017Y-62520427D01*
X142941842Y-63035271D01*
X142936898Y-63042737D01*
X142930357Y-63044736D01*
X142550004Y-63044736D01*
X142541731Y-63041309D01*
X142538446Y-63034853D01*
X142535907Y-63018706D01*
X142457503Y-62520089D01*
X142459603Y-62511386D01*
X142466740Y-62506806D01*
X142747682Y-62449969D01*
X142752318Y-62449969D01*
X142971175Y-62494246D01*
G37*
%TD.AperFunction*%
%TD*%
%TA.AperFunction,Conductor*%
%TO.N,Board_0-+3V3*%
G36*
X145358607Y-53834011D02*
G01*
X145652947Y-53967306D01*
X145659069Y-53973841D01*
X145659817Y-53978240D01*
X145653810Y-54233095D01*
X145650386Y-54241092D01*
X145519675Y-54371803D01*
X145511402Y-54375230D01*
X145504103Y-54372674D01*
X145182337Y-54115852D01*
X145178009Y-54108013D01*
X145179720Y-54100498D01*
X145343865Y-53838457D01*
X145351161Y-53833266D01*
X145358607Y-53834011D01*
G37*
%TD.AperFunction*%
%TD*%
%TA.AperFunction,Conductor*%
%TO.N,Board_0-GND*%
G36*
X150666341Y-60770931D02*
G01*
X150766372Y-60798152D01*
X150773455Y-60803630D01*
X150775000Y-60809441D01*
X150775000Y-60938800D01*
X150771573Y-60947073D01*
X150763300Y-60950500D01*
X150280468Y-60950500D01*
X150277439Y-60950101D01*
X150277062Y-60950000D01*
X150246174Y-60950000D01*
X150237901Y-60946573D01*
X150234474Y-60938300D01*
X150234477Y-60938030D01*
X150235277Y-60903376D01*
X150236280Y-60859975D01*
X150239897Y-60851786D01*
X150245815Y-60848749D01*
X150661115Y-60770722D01*
X150666341Y-60770931D01*
G37*
%TD.AperFunction*%
%TD*%
%TA.AperFunction,Conductor*%
%TO.N,Board_0-+1V1*%
G36*
X141532393Y-58954472D02*
G01*
X141759297Y-59039781D01*
X141763453Y-59042460D01*
X141894554Y-59173561D01*
X141897981Y-59181834D01*
X141894554Y-59190107D01*
X141894297Y-59190357D01*
X141608241Y-59459412D01*
X141599867Y-59462584D01*
X141592960Y-59460060D01*
X141337629Y-59257810D01*
X141333272Y-59249987D01*
X141335073Y-59242280D01*
X141518455Y-58959064D01*
X141525828Y-58953983D01*
X141532393Y-58954472D01*
G37*
%TD.AperFunction*%
%TD*%
%TA.AperFunction,Conductor*%
%TO.N,Board_0-GND*%
G36*
X152609737Y-54622209D02*
G01*
X152930999Y-54698366D01*
X152938258Y-54703608D01*
X152940000Y-54709750D01*
X152940000Y-55091249D01*
X152936573Y-55099522D01*
X152930999Y-55102633D01*
X152609741Y-55178789D01*
X152600900Y-55177363D01*
X152597898Y-55174704D01*
X152540363Y-55102633D01*
X152384825Y-54907797D01*
X152382343Y-54899196D01*
X152384825Y-54893203D01*
X152597899Y-54626294D01*
X152605738Y-54621967D01*
X152609737Y-54622209D01*
G37*
%TD.AperFunction*%
%TD*%
%TA.AperFunction,Conductor*%
%TO.N,Board_0-+1V1*%
G36*
X153378326Y-58122174D02*
G01*
X153400000Y-58174500D01*
X153400000Y-58451077D01*
X153385463Y-58495124D01*
X152900002Y-59150497D01*
X152899999Y-59150501D01*
X152825000Y-59300500D01*
X152750000Y-59450500D01*
X152650000Y-59750500D01*
X153181820Y-59412068D01*
X153221549Y-59400500D01*
X154776000Y-59400500D01*
X154828326Y-59422174D01*
X154850000Y-59474500D01*
X154850000Y-60026500D01*
X154828326Y-60078826D01*
X154776000Y-60100500D01*
X153475000Y-60100500D01*
X152117470Y-60100500D01*
X152084376Y-60092688D01*
X151939611Y-60020305D01*
X151902502Y-59977518D01*
X151898735Y-59956230D01*
X151890000Y-59650500D01*
X151739534Y-59571307D01*
X151703325Y-59527756D01*
X151700000Y-59505823D01*
X151700000Y-58981152D01*
X151721674Y-58928826D01*
X151992283Y-58658216D01*
X152009618Y-58645339D01*
X153008612Y-58109294D01*
X153043600Y-58100500D01*
X153326000Y-58100500D01*
X153378326Y-58122174D01*
G37*
%TD.AperFunction*%
%TD*%
%TA.AperFunction,Conductor*%
%TO.N,Board_0-Net-(U4-NTC)*%
G36*
X164003051Y-55209928D02*
G01*
X164285267Y-55472028D01*
X164288997Y-55480169D01*
X164289005Y-55480601D01*
X164289005Y-55615284D01*
X164285578Y-55623557D01*
X164278883Y-55626877D01*
X163892130Y-55679529D01*
X163883470Y-55677250D01*
X163880917Y-55674573D01*
X163705602Y-55420084D01*
X163703731Y-55411327D01*
X163708547Y-55403849D01*
X163988402Y-55208900D01*
X163997149Y-55206984D01*
X164003051Y-55209928D01*
G37*
%TD.AperFunction*%
%TD*%
%TA.AperFunction,Conductor*%
%TO.N,Board_0-GND*%
G36*
X151671074Y-60802134D02*
G01*
X151973473Y-60903087D01*
X151980235Y-60908957D01*
X151980866Y-60917890D01*
X151978041Y-60922458D01*
X151708572Y-61191927D01*
X151672611Y-61240268D01*
X151664924Y-61244861D01*
X151656241Y-61242672D01*
X151655460Y-61242037D01*
X151409629Y-61023962D01*
X151405714Y-61015909D01*
X151408641Y-61007446D01*
X151410035Y-61006113D01*
X151660019Y-60804131D01*
X151668606Y-60801598D01*
X151671074Y-60802134D01*
G37*
%TD.AperFunction*%
%TD*%
%TA.AperFunction,Conductor*%
%TO.N,Board_0-/SX1303_GPIO6*%
G36*
X136321617Y-51286621D02*
G01*
X136836967Y-51497525D01*
X136843326Y-51503830D01*
X136844236Y-51508353D01*
X136844236Y-51642646D01*
X136840809Y-51650919D01*
X136836967Y-51653474D01*
X136321620Y-51864377D01*
X136312666Y-51864339D01*
X136306361Y-51857980D01*
X136305722Y-51855874D01*
X136249469Y-51577818D01*
X136249469Y-51573180D01*
X136305722Y-51295128D01*
X136310721Y-51287701D01*
X136319509Y-51285982D01*
X136321617Y-51286621D01*
G37*
%TD.AperFunction*%
%TD*%
%TA.AperFunction,Conductor*%
%TO.N,Board_0-/HOST_SCK*%
G36*
X153590370Y-45656221D02*
G01*
X153597798Y-45661221D01*
X153599517Y-45670009D01*
X153598877Y-45672120D01*
X153387975Y-46187467D01*
X153381670Y-46193826D01*
X153377147Y-46194736D01*
X153242853Y-46194736D01*
X153234580Y-46191309D01*
X153232025Y-46187467D01*
X153021122Y-45672120D01*
X153021160Y-45663166D01*
X153027519Y-45656861D01*
X153029622Y-45656223D01*
X153307682Y-45599969D01*
X153312318Y-45599969D01*
X153590370Y-45656221D01*
G37*
%TD.AperFunction*%
%TD*%
%TA.AperFunction,Conductor*%
%TO.N,Board_0-GND*%
G36*
X148749375Y-65853927D02*
G01*
X148752377Y-65859075D01*
X148818045Y-66096000D01*
X148816952Y-66104888D01*
X148814515Y-66107895D01*
X148557745Y-66334660D01*
X148549275Y-66337568D01*
X148542255Y-66334660D01*
X148285484Y-66107895D01*
X148281551Y-66099850D01*
X148281953Y-66096003D01*
X148347623Y-65859074D01*
X148353135Y-65852018D01*
X148358898Y-65850500D01*
X148741102Y-65850500D01*
X148749375Y-65853927D01*
G37*
%TD.AperFunction*%
%TD*%
%TA.AperFunction,Conductor*%
%TO.N,Board_0-+3V3*%
G36*
X141614726Y-56732622D02*
G01*
X141614790Y-56732763D01*
X141798301Y-57148242D01*
X141799298Y-57152969D01*
X141799298Y-57333960D01*
X141795871Y-57342233D01*
X141787598Y-57345660D01*
X141783702Y-57344992D01*
X141271040Y-57163939D01*
X141264380Y-57157953D01*
X141263505Y-57150411D01*
X141263979Y-57148242D01*
X141327753Y-56856207D01*
X141332865Y-56848858D01*
X141334304Y-56848072D01*
X141599219Y-56726850D01*
X141608168Y-56726525D01*
X141614726Y-56732622D01*
G37*
%TD.AperFunction*%
%TD*%
%TA.AperFunction,Conductor*%
%TO.N,Board_0-GND*%
G36*
X148832590Y-65906670D02*
G01*
X148840018Y-65911670D01*
X148841737Y-65920458D01*
X148841700Y-65920634D01*
X148752010Y-66331296D01*
X148746896Y-66338648D01*
X148740579Y-66340500D01*
X148359421Y-66340500D01*
X148351148Y-66337073D01*
X148347990Y-66331296D01*
X148258299Y-65920634D01*
X148259882Y-65911821D01*
X148267234Y-65906707D01*
X148267297Y-65906693D01*
X148547682Y-65849969D01*
X148552318Y-65849969D01*
X148832590Y-65906670D01*
G37*
%TD.AperFunction*%
%TD*%
%TA.AperFunction,Conductor*%
%TO.N,Board_0-/HOST_MISO*%
G36*
X149273362Y-54478927D02*
G01*
X149276630Y-54485277D01*
X149299592Y-54623057D01*
X149299382Y-54627897D01*
X149211330Y-54969979D01*
X149205949Y-54977136D01*
X149197082Y-54978393D01*
X149189925Y-54973012D01*
X149188670Y-54969985D01*
X149104626Y-54643475D01*
X149104386Y-54638841D01*
X149104689Y-54636806D01*
X149104899Y-54631967D01*
X149103378Y-54607029D01*
X149103514Y-54604413D01*
X149123370Y-54485274D01*
X149128111Y-54477679D01*
X149134911Y-54475500D01*
X149265089Y-54475500D01*
X149273362Y-54478927D01*
G37*
%TD.AperFunction*%
%TD*%
%TA.AperFunction,Conductor*%
%TO.N,Board_0-GND*%
G36*
X149717008Y-64873600D02*
G01*
X149720435Y-64881873D01*
X149719827Y-64885594D01*
X149547500Y-65399295D01*
X149541620Y-65406049D01*
X149534163Y-65407057D01*
X149254790Y-65352436D01*
X149247328Y-65347485D01*
X149247295Y-65347435D01*
X149088763Y-65109224D01*
X149087032Y-65100438D01*
X149090419Y-65094285D01*
X149308859Y-64885594D01*
X149321609Y-64873413D01*
X149329691Y-64870173D01*
X149708735Y-64870173D01*
X149717008Y-64873600D01*
G37*
%TD.AperFunction*%
%TD*%
%TA.AperFunction,Conductor*%
%TO.N,Board_0-/SDA0*%
G36*
X159777898Y-62756727D02*
G01*
X160023468Y-62981437D01*
X160027259Y-62989551D01*
X160026231Y-62994888D01*
X159873111Y-63333619D01*
X159866581Y-63339746D01*
X159862450Y-63340500D01*
X159677550Y-63340500D01*
X159669277Y-63337073D01*
X159666889Y-63333619D01*
X159513768Y-62994888D01*
X159513483Y-62985938D01*
X159516528Y-62981440D01*
X159762102Y-62756726D01*
X159770518Y-62753670D01*
X159777898Y-62756727D01*
G37*
%TD.AperFunction*%
%TD*%
%TA.AperFunction,Conductor*%
%TO.N,Board_0-+3V3*%
G36*
X150581196Y-59950708D02*
G01*
X150595834Y-59953506D01*
X150597889Y-59953766D01*
X150598734Y-59953873D01*
X150598736Y-59953873D01*
X150598751Y-59953875D01*
X150624541Y-59955500D01*
X150624554Y-59955500D01*
X150627032Y-59955500D01*
X150627704Y-59955472D01*
X150643973Y-59954800D01*
X150645895Y-59954641D01*
X150655195Y-59953483D01*
X150662717Y-59952548D01*
X150662729Y-59952545D01*
X150662737Y-59952545D01*
X150674053Y-59950658D01*
X150675976Y-59950500D01*
X150763300Y-59950500D01*
X150771573Y-59953927D01*
X150775000Y-59962200D01*
X150775000Y-60091557D01*
X150771573Y-60099830D01*
X150766372Y-60102847D01*
X150666342Y-60130066D01*
X150661110Y-60130275D01*
X150245817Y-60052250D01*
X150238318Y-60047354D01*
X150236280Y-60041023D01*
X150234465Y-59962470D01*
X150237700Y-59954120D01*
X150245892Y-59950503D01*
X150246162Y-59950500D01*
X150578999Y-59950500D01*
X150581196Y-59950708D01*
G37*
%TD.AperFunction*%
%TD*%
%TA.AperFunction,Conductor*%
%TO.N,Board_0-/~{USB_BOOT}*%
G36*
X159009425Y-50234359D02*
G01*
X159745038Y-50497763D01*
X159751672Y-50503778D01*
X159752350Y-50505584D01*
X159924607Y-51112637D01*
X159923568Y-51121532D01*
X159916545Y-51127087D01*
X159915023Y-51127411D01*
X158634569Y-51312314D01*
X158625891Y-51310105D01*
X158624624Y-51309007D01*
X158493536Y-51177919D01*
X158490109Y-51169646D01*
X158491535Y-51164047D01*
X158995209Y-50239775D01*
X159002177Y-50234152D01*
X159009425Y-50234359D01*
G37*
%TD.AperFunction*%
%TD*%
%TA.AperFunction,Conductor*%
%TO.N,Board_0-/USB_D-*%
G36*
X163855368Y-47594606D02*
G01*
X163860396Y-47599634D01*
X164137010Y-48135371D01*
X164137761Y-48144295D01*
X164137578Y-48144824D01*
X164015337Y-48472885D01*
X164009237Y-48479441D01*
X164004373Y-48480500D01*
X163695627Y-48480500D01*
X163687354Y-48477073D01*
X163684663Y-48472885D01*
X163628712Y-48322731D01*
X163562421Y-48144822D01*
X163562744Y-48135875D01*
X163562970Y-48135408D01*
X163839604Y-47599633D01*
X163846444Y-47593855D01*
X163855368Y-47594606D01*
G37*
%TD.AperFunction*%
%TD*%
%TA.AperFunction,Conductor*%
%TO.N,Board_0-Net-(R1-Pad2)*%
G36*
X148271979Y-67132941D02*
G01*
X148274669Y-67134591D01*
X148547116Y-67357325D01*
X148551352Y-67365214D01*
X148551378Y-67365500D01*
X148570520Y-67618322D01*
X148567727Y-67626830D01*
X148559736Y-67630872D01*
X148559235Y-67630899D01*
X147972082Y-67650104D01*
X147963702Y-67646949D01*
X147960006Y-67638792D01*
X147960000Y-67638410D01*
X147960000Y-67258506D01*
X147963427Y-67250233D01*
X147967461Y-67247600D01*
X148263027Y-67132743D01*
X148271979Y-67132941D01*
G37*
%TD.AperFunction*%
%TD*%
%TA.AperFunction,Conductor*%
%TO.N,Board_0-/PPS*%
G36*
X142857743Y-44966338D02*
G01*
X143065268Y-45149611D01*
X143112463Y-45191291D01*
X143116396Y-45199336D01*
X143114552Y-45206399D01*
X142928456Y-45495138D01*
X142921094Y-45500236D01*
X142918622Y-45500500D01*
X142781378Y-45500500D01*
X142773105Y-45497073D01*
X142771544Y-45495138D01*
X142585447Y-45206399D01*
X142583845Y-45197589D01*
X142587535Y-45191292D01*
X142842256Y-44966338D01*
X142850725Y-44963431D01*
X142857743Y-44966338D01*
G37*
%TD.AperFunction*%
%TD*%
%TA.AperFunction,Conductor*%
%TO.N,Board_0-Net-(U1-USB_DP)*%
G36*
X153874207Y-55888036D02*
G01*
X154099160Y-56142755D01*
X154102068Y-56151225D01*
X154099160Y-56158245D01*
X153874207Y-56412963D01*
X153866162Y-56416896D01*
X153859099Y-56415052D01*
X153570362Y-56228955D01*
X153565264Y-56221593D01*
X153565000Y-56219121D01*
X153565000Y-56081878D01*
X153568427Y-56073605D01*
X153570362Y-56072044D01*
X153859101Y-55885946D01*
X153867909Y-55884345D01*
X153874207Y-55888036D01*
G37*
%TD.AperFunction*%
%TD*%
%TA.AperFunction,Conductor*%
%TO.N,Board_0-Net-(U4-NTC)*%
G36*
X163411596Y-55208900D02*
G01*
X163691450Y-55403847D01*
X163696279Y-55411387D01*
X163694397Y-55420084D01*
X163519082Y-55674573D01*
X163511567Y-55679442D01*
X163507869Y-55679529D01*
X163121117Y-55626877D01*
X163113381Y-55622366D01*
X163110995Y-55615284D01*
X163110995Y-55480601D01*
X163114422Y-55472328D01*
X163114733Y-55472028D01*
X163396947Y-55209927D01*
X163405341Y-55206809D01*
X163411596Y-55208900D01*
G37*
%TD.AperFunction*%
%TD*%
%TA.AperFunction,Conductor*%
%TO.N,Board_0-/V_LOAD*%
G36*
X155548370Y-66541723D02*
G01*
X155548809Y-66541626D01*
X155549605Y-66541766D01*
X155592668Y-66550332D01*
X155603157Y-66551215D01*
X155606458Y-66551798D01*
X155607732Y-66552037D01*
X155607802Y-66552048D01*
X155647906Y-66556000D01*
X155647913Y-66556000D01*
X156074848Y-66556000D01*
X156127174Y-66577674D01*
X156400000Y-66850500D01*
X157169348Y-66850500D01*
X157221674Y-66872174D01*
X157378326Y-67028826D01*
X157400000Y-67081152D01*
X157400000Y-67409848D01*
X157378326Y-67462174D01*
X157271674Y-67568826D01*
X157219348Y-67590500D01*
X155670652Y-67590500D01*
X155618326Y-67568826D01*
X155377174Y-67327674D01*
X155355500Y-67275348D01*
X155355500Y-66976517D01*
X155358177Y-66956792D01*
X155396464Y-66818356D01*
X155402197Y-66789975D01*
X155402619Y-66786717D01*
X155404120Y-66769403D01*
X155387730Y-66679428D01*
X155384205Y-66671196D01*
X155374021Y-66656339D01*
X155362314Y-66600925D01*
X155393219Y-66553463D01*
X155435058Y-66540500D01*
X155535951Y-66540500D01*
X155548370Y-66541723D01*
G37*
%TD.AperFunction*%
%TD*%
%TA.AperFunction,Conductor*%
%TO.N,Board_0-GND*%
G36*
X160893039Y-47070185D02*
G01*
X160938794Y-47122989D01*
X160950000Y-47174500D01*
X160950000Y-47558133D01*
X160945228Y-47592198D01*
X160535715Y-49025500D01*
X160525696Y-49060565D01*
X160488352Y-49119618D01*
X160425010Y-49149106D01*
X160406467Y-49150500D01*
X159151362Y-49150500D01*
X159121921Y-49141855D01*
X159091935Y-49135332D01*
X159086919Y-49131577D01*
X159084323Y-49130815D01*
X159063681Y-49114181D01*
X159011319Y-49061819D01*
X158977834Y-49000496D01*
X158975000Y-48974138D01*
X158975000Y-47301862D01*
X158994685Y-47234823D01*
X159011319Y-47214181D01*
X159138681Y-47086819D01*
X159200004Y-47053334D01*
X159226362Y-47050500D01*
X160826000Y-47050500D01*
X160893039Y-47070185D01*
G37*
%TD.AperFunction*%
%TD*%
%TA.AperFunction,Conductor*%
%TO.N,Board_0-GND*%
G36*
X165955405Y-37769451D02*
G01*
X165960377Y-37774423D01*
X166247708Y-38326100D01*
X166248490Y-38335021D01*
X166248431Y-38335205D01*
X166152667Y-38622500D01*
X166146799Y-38629265D01*
X166141567Y-38630500D01*
X165758433Y-38630500D01*
X165750160Y-38627073D01*
X165747333Y-38622500D01*
X165651568Y-38335205D01*
X165652203Y-38326273D01*
X165652263Y-38326154D01*
X165939623Y-37774422D01*
X165946484Y-37768669D01*
X165955405Y-37769451D01*
G37*
%TD.AperFunction*%
%TD*%
%TA.AperFunction,Conductor*%
%TO.N,Board_0-GND*%
G36*
X151138547Y-60783637D02*
G01*
X151138751Y-60783814D01*
X151389362Y-61005218D01*
X151393294Y-61013263D01*
X151390384Y-61021732D01*
X151387908Y-61023850D01*
X151142915Y-61180121D01*
X151134097Y-61181681D01*
X151128356Y-61178536D01*
X150903433Y-60953928D01*
X150900000Y-60945657D01*
X150900000Y-60811246D01*
X150903427Y-60802973D01*
X150910706Y-60799588D01*
X151130014Y-60780924D01*
X151138547Y-60783637D01*
G37*
%TD.AperFunction*%
%TD*%
%TA.AperFunction,Conductor*%
%TO.N,Board_0-/SX1303_GPIO8*%
G36*
X144041409Y-53596018D02*
G01*
X144046363Y-53603477D01*
X144046387Y-53603599D01*
X144133177Y-54072680D01*
X144131312Y-54081439D01*
X144129945Y-54083082D01*
X144034886Y-54178141D01*
X144026613Y-54181568D01*
X144020304Y-54179721D01*
X143593343Y-53906352D01*
X143588224Y-53899005D01*
X143589799Y-53890190D01*
X143589838Y-53890129D01*
X143746592Y-53653863D01*
X143754015Y-53648867D01*
X144032633Y-53594247D01*
X144041409Y-53596018D01*
G37*
%TD.AperFunction*%
%TD*%
%TA.AperFunction,Conductor*%
%TO.N,Board_0-+1V1*%
G36*
X147910362Y-51990486D02*
G01*
X147911872Y-51991335D01*
X148148734Y-52148484D01*
X148152015Y-52151765D01*
X148309164Y-52388627D01*
X148310883Y-52397415D01*
X148305883Y-52404844D01*
X148304373Y-52405693D01*
X147807953Y-52637922D01*
X147799007Y-52638323D01*
X147794722Y-52635597D01*
X147664902Y-52505777D01*
X147661475Y-52497504D01*
X147662575Y-52492551D01*
X147894806Y-51996125D01*
X147901416Y-51990085D01*
X147910362Y-51990486D01*
G37*
%TD.AperFunction*%
%TD*%
%TA.AperFunction,Conductor*%
%TO.N,Board_0-Net-(J5-CC2)*%
G36*
X141599840Y-37033927D02*
G01*
X141602667Y-37038500D01*
X141648900Y-37177200D01*
X141649500Y-37180900D01*
X141649500Y-37180922D01*
X141649122Y-37183871D01*
X141511322Y-37713023D01*
X141505921Y-37720165D01*
X141497051Y-37721396D01*
X141489909Y-37715995D01*
X141488678Y-37713023D01*
X141350878Y-37183871D01*
X141350500Y-37180922D01*
X141350500Y-37180900D01*
X141351100Y-37177200D01*
X141397333Y-37038500D01*
X141403201Y-37031735D01*
X141408433Y-37030500D01*
X141591567Y-37030500D01*
X141599840Y-37033927D01*
G37*
%TD.AperFunction*%
%TD*%
%TA.AperFunction,Conductor*%
%TO.N,Board_0-GND*%
G36*
X149532346Y-64692774D02*
G01*
X149744687Y-64948048D01*
X149747343Y-64956600D01*
X149746024Y-64961019D01*
X149553633Y-65323160D01*
X149546726Y-65328859D01*
X149537812Y-65328003D01*
X149535028Y-65325944D01*
X149265810Y-65056726D01*
X149262645Y-65050915D01*
X149241802Y-64954085D01*
X149227356Y-64886969D01*
X149228965Y-64878161D01*
X149232435Y-64874687D01*
X149516994Y-64690434D01*
X149525799Y-64688815D01*
X149532346Y-64692774D01*
G37*
%TD.AperFunction*%
%TD*%
%TA.AperFunction,Conductor*%
%TO.N,Board_0-Net-(C21-Pad1)*%
G36*
X137433788Y-58105032D02*
G01*
X137441910Y-58108800D01*
X137445000Y-58116722D01*
X137445000Y-58251942D01*
X137443020Y-58258455D01*
X136851270Y-59141601D01*
X136843818Y-59146566D01*
X136835411Y-59145048D01*
X136255661Y-58787688D01*
X136250416Y-58780430D01*
X136251840Y-58771589D01*
X136252917Y-58770113D01*
X136841305Y-58084803D01*
X136849293Y-58080760D01*
X136850665Y-58080736D01*
X137433788Y-58105032D01*
G37*
%TD.AperFunction*%
%TD*%
%TA.AperFunction,Conductor*%
%TO.N,Board_0-GND*%
G36*
X164398852Y-41063927D02*
G01*
X164402010Y-41069704D01*
X164491700Y-41480365D01*
X164490117Y-41489178D01*
X164482765Y-41494292D01*
X164482589Y-41494329D01*
X164202320Y-41551030D01*
X164197680Y-41551030D01*
X163917410Y-41494329D01*
X163909981Y-41489329D01*
X163908262Y-41480541D01*
X163908299Y-41480364D01*
X163997990Y-41069703D01*
X164003104Y-41062352D01*
X164009421Y-41060500D01*
X164390579Y-41060500D01*
X164398852Y-41063927D01*
G37*
%TD.AperFunction*%
%TD*%
%TA.AperFunction,Conductor*%
%TO.N,Board_0-/PPS*%
G36*
X144873362Y-54478927D02*
G01*
X144876630Y-54485277D01*
X144899592Y-54623057D01*
X144899382Y-54627897D01*
X144811330Y-54969979D01*
X144805949Y-54977136D01*
X144797082Y-54978393D01*
X144789925Y-54973012D01*
X144788670Y-54969985D01*
X144704626Y-54643475D01*
X144704386Y-54638841D01*
X144704689Y-54636806D01*
X144704899Y-54631967D01*
X144703378Y-54607029D01*
X144703514Y-54604413D01*
X144723370Y-54485274D01*
X144728111Y-54477679D01*
X144734911Y-54475500D01*
X144865089Y-54475500D01*
X144873362Y-54478927D01*
G37*
%TD.AperFunction*%
%TD*%
%TA.AperFunction,Conductor*%
%TO.N,Board_0-+3V3*%
G36*
X158518810Y-62487586D02*
G01*
X158744160Y-62742755D01*
X158747068Y-62751225D01*
X158744160Y-62758245D01*
X158518810Y-63013413D01*
X158510765Y-63017346D01*
X158504309Y-63015868D01*
X158215969Y-62853853D01*
X158210435Y-62846813D01*
X158210000Y-62843653D01*
X158210000Y-62657346D01*
X158213427Y-62649073D01*
X158215969Y-62647146D01*
X158504310Y-62485130D01*
X158513200Y-62484066D01*
X158518810Y-62487586D01*
G37*
%TD.AperFunction*%
%TD*%
%TA.AperFunction,Conductor*%
%TO.N,Board_0-/INT_BAT*%
G36*
X145610073Y-61927987D02*
G01*
X145611330Y-61931020D01*
X145699382Y-62273102D01*
X145699592Y-62277942D01*
X145676630Y-62415723D01*
X145671890Y-62423321D01*
X145665089Y-62425500D01*
X145534911Y-62425500D01*
X145526638Y-62422073D01*
X145523370Y-62415723D01*
X145500659Y-62279454D01*
X145500500Y-62277531D01*
X145500500Y-62275040D01*
X145500869Y-62272124D01*
X145502337Y-62266417D01*
X145588669Y-61931019D01*
X145594049Y-61923863D01*
X145602915Y-61922606D01*
X145610073Y-61927987D01*
G37*
%TD.AperFunction*%
%TD*%
%TA.AperFunction,Conductor*%
%TO.N,Board_0-GND*%
G36*
X169133056Y-50006765D02*
G01*
X169140485Y-50011765D01*
X169142259Y-50020260D01*
X169051702Y-50535063D01*
X169046894Y-50542617D01*
X169040179Y-50544736D01*
X168659821Y-50544736D01*
X168651548Y-50541309D01*
X168648298Y-50535063D01*
X168557740Y-50020260D01*
X168559682Y-50011518D01*
X168566942Y-50006765D01*
X168847682Y-49949969D01*
X168852318Y-49949969D01*
X169133056Y-50006765D01*
G37*
%TD.AperFunction*%
%TD*%
%TA.AperFunction,Conductor*%
%TO.N,Board_0-GND*%
G36*
X163584355Y-54188946D02*
G01*
X163591994Y-54193615D01*
X163594236Y-54200503D01*
X163594236Y-54580856D01*
X163590809Y-54589129D01*
X163584771Y-54592341D01*
X163069927Y-54692517D01*
X163061151Y-54690733D01*
X163056224Y-54683352D01*
X162999469Y-54402820D01*
X162999469Y-54398180D01*
X163056306Y-54117241D01*
X163061306Y-54109812D01*
X163069589Y-54108003D01*
X163584355Y-54188946D01*
G37*
%TD.AperFunction*%
%TD*%
%TA.AperFunction,Conductor*%
%TO.N,Board_0-Net-(J6-Pad22)*%
G36*
X142890469Y-51908981D02*
G01*
X142893455Y-51911145D01*
X142988357Y-52006047D01*
X142991784Y-52014320D01*
X142990450Y-52019746D01*
X142774393Y-52432504D01*
X142767520Y-52438244D01*
X142760876Y-52438346D01*
X142455198Y-52352858D01*
X142448153Y-52347329D01*
X142447292Y-52345416D01*
X142359648Y-52091736D01*
X142360186Y-52082800D01*
X142366886Y-52076859D01*
X142367016Y-52076815D01*
X142881541Y-51908299D01*
X142890469Y-51908981D01*
G37*
%TD.AperFunction*%
%TD*%
%TA.AperFunction,Conductor*%
%TO.N,Board_0-/GPS_RX*%
G36*
X147953869Y-42544931D02*
G01*
X147954910Y-42546876D01*
X148170184Y-43060412D01*
X148170222Y-43069366D01*
X148167667Y-43073208D01*
X148072708Y-43168167D01*
X148064435Y-43171594D01*
X148059912Y-43170684D01*
X147546376Y-42955410D01*
X147540071Y-42949051D01*
X147540109Y-42940097D01*
X147541147Y-42938156D01*
X147697985Y-42701763D01*
X147701263Y-42698485D01*
X147937653Y-42541649D01*
X147946440Y-42539931D01*
X147953869Y-42544931D01*
G37*
%TD.AperFunction*%
%TD*%
%TA.AperFunction,Conductor*%
%TO.N,Board_0-/INT_BAT*%
G36*
X162905690Y-56385131D02*
G01*
X163194031Y-56547146D01*
X163199565Y-56554186D01*
X163200000Y-56557346D01*
X163200000Y-56743653D01*
X163196573Y-56751926D01*
X163194031Y-56753853D01*
X162905690Y-56915868D01*
X162896799Y-56916933D01*
X162891189Y-56913413D01*
X162748573Y-56751926D01*
X162665838Y-56658243D01*
X162662931Y-56649775D01*
X162665838Y-56642756D01*
X162891190Y-56387585D01*
X162899234Y-56383653D01*
X162905690Y-56385131D01*
G37*
%TD.AperFunction*%
%TD*%
%TA.AperFunction,Conductor*%
%TO.N,Board_0-GND*%
G36*
X145631034Y-52506356D02*
G01*
X145638463Y-52511356D01*
X145640182Y-52520144D01*
X145639745Y-52521725D01*
X145552758Y-52767701D01*
X145546768Y-52774358D01*
X145541727Y-52775500D01*
X145158273Y-52775500D01*
X145150000Y-52772073D01*
X145147242Y-52767701D01*
X145139565Y-52745994D01*
X145060254Y-52521723D01*
X145060727Y-52512783D01*
X145067384Y-52506793D01*
X145068960Y-52506357D01*
X145347682Y-52449969D01*
X145352318Y-52449969D01*
X145631034Y-52506356D01*
G37*
%TD.AperFunction*%
%TD*%
%TA.AperFunction,Conductor*%
%TO.N,Board_0-/VBUS*%
G36*
X140855404Y-37769451D02*
G01*
X140860376Y-37774423D01*
X141022264Y-38085247D01*
X141146823Y-38324401D01*
X141148177Y-38326999D01*
X141149500Y-38332404D01*
X141149500Y-38332531D01*
X141149341Y-38334454D01*
X141101630Y-38620723D01*
X141096890Y-38628321D01*
X141090089Y-38630500D01*
X140609911Y-38630500D01*
X140601638Y-38627073D01*
X140598370Y-38620723D01*
X140551284Y-38338208D01*
X140551199Y-38335001D01*
X140551926Y-38328499D01*
X140553172Y-38324408D01*
X140839624Y-37774420D01*
X140846483Y-37768669D01*
X140855404Y-37769451D01*
G37*
%TD.AperFunction*%
%TD*%
%TA.AperFunction,Conductor*%
%TO.N,Board_0-GND*%
G36*
X137257743Y-36616338D02*
G01*
X137454572Y-36790165D01*
X137514774Y-36843332D01*
X137518707Y-36851377D01*
X137518428Y-36854739D01*
X137452097Y-37141437D01*
X137446893Y-37148725D01*
X137440698Y-37150500D01*
X137059302Y-37150500D01*
X137051029Y-37147073D01*
X137047903Y-37141437D01*
X136981571Y-36854739D01*
X136983045Y-36845907D01*
X136985222Y-36843334D01*
X137242256Y-36616338D01*
X137250725Y-36613431D01*
X137257743Y-36616338D01*
G37*
%TD.AperFunction*%
%TD*%
%TA.AperFunction,Conductor*%
%TO.N,Board_0-GND*%
G36*
X162915677Y-58370185D02*
G01*
X162936319Y-58386819D01*
X163550000Y-59000500D01*
X164698638Y-59000500D01*
X164728078Y-59009144D01*
X164758065Y-59015668D01*
X164763080Y-59019422D01*
X164765677Y-59020185D01*
X164786319Y-59036819D01*
X164813681Y-59064181D01*
X164847166Y-59125504D01*
X164850000Y-59151862D01*
X164850000Y-59349138D01*
X164830315Y-59416177D01*
X164813681Y-59436819D01*
X164786319Y-59464181D01*
X164724996Y-59497666D01*
X164698638Y-59500500D01*
X163550000Y-59500500D01*
X162987230Y-60203962D01*
X162929979Y-60244014D01*
X162890402Y-60250500D01*
X161150093Y-60250500D01*
X161083054Y-60230815D01*
X161063963Y-60215706D01*
X159687870Y-58887064D01*
X159653315Y-58826337D01*
X159650000Y-58797858D01*
X159650000Y-58526862D01*
X159658644Y-58497421D01*
X159665168Y-58467435D01*
X159668922Y-58462419D01*
X159669685Y-58459823D01*
X159686319Y-58439181D01*
X159738681Y-58386819D01*
X159800004Y-58353334D01*
X159826362Y-58350500D01*
X162848638Y-58350500D01*
X162915677Y-58370185D01*
G37*
%TD.AperFunction*%
%TD*%
%TA.AperFunction,Conductor*%
%TO.N,Board_0-/SCL0*%
G36*
X146410074Y-61927987D02*
G01*
X146411331Y-61931020D01*
X146499131Y-62272123D01*
X146499500Y-62275040D01*
X146499500Y-62277531D01*
X146499341Y-62279454D01*
X146476630Y-62415723D01*
X146471890Y-62423321D01*
X146465089Y-62425500D01*
X146334911Y-62425500D01*
X146326638Y-62422073D01*
X146323370Y-62415723D01*
X146300407Y-62277942D01*
X146300617Y-62273102D01*
X146388669Y-61931020D01*
X146394050Y-61923863D01*
X146402917Y-61922606D01*
X146410074Y-61927987D01*
G37*
%TD.AperFunction*%
%TD*%
%TA.AperFunction,Conductor*%
%TO.N,Board_0-Net-(U1-USB_DM)*%
G36*
X150765224Y-59173870D02*
G01*
X150772821Y-59178610D01*
X150775000Y-59185411D01*
X150775000Y-59315588D01*
X150771573Y-59323861D01*
X150765223Y-59327129D01*
X150627442Y-59350092D01*
X150622603Y-59349882D01*
X150280521Y-59261831D01*
X150273363Y-59256450D01*
X150272106Y-59247584D01*
X150277487Y-59240426D01*
X150280518Y-59239169D01*
X150622603Y-59151116D01*
X150627442Y-59150907D01*
X150765224Y-59173870D01*
G37*
%TD.AperFunction*%
%TD*%
%TA.AperFunction,Conductor*%
%TO.N,Board_0-/VREG_LX*%
G36*
X152070893Y-60300576D02*
G01*
X152117470Y-60306000D01*
X152117475Y-60306000D01*
X152950736Y-60306000D01*
X152958868Y-60309368D01*
X153450000Y-60800500D01*
X154838500Y-60800500D01*
X154846632Y-60803868D01*
X154850000Y-60812000D01*
X154850000Y-61489000D01*
X154846632Y-61497132D01*
X154838500Y-61500500D01*
X153154764Y-61500500D01*
X153146632Y-61497132D01*
X152853368Y-61203868D01*
X152850000Y-61195736D01*
X152850000Y-60750501D01*
X152850000Y-60750500D01*
X152700000Y-60600500D01*
X152699999Y-60600500D01*
X152159189Y-60600500D01*
X152155309Y-60599826D01*
X152135782Y-60592827D01*
X152112403Y-60584447D01*
X152103512Y-60583377D01*
X152103504Y-60583376D01*
X152023569Y-60589510D01*
X152023559Y-60589512D01*
X151989572Y-60599026D01*
X151986583Y-60599863D01*
X151985829Y-60600074D01*
X151982729Y-60600500D01*
X151944271Y-60600500D01*
X151941295Y-60600108D01*
X151940892Y-60600000D01*
X151809108Y-60600000D01*
X151808705Y-60600108D01*
X151805729Y-60600500D01*
X151711837Y-60600500D01*
X151709690Y-60600298D01*
X151709285Y-60600221D01*
X151701742Y-60598787D01*
X151701740Y-60598787D01*
X151674701Y-60600478D01*
X151673983Y-60600500D01*
X151318295Y-60600500D01*
X151315948Y-60600033D01*
X151315911Y-60600221D01*
X151314800Y-60600000D01*
X151225572Y-60600000D01*
X151219946Y-60598530D01*
X151200813Y-60587797D01*
X151200810Y-60587796D01*
X151192283Y-60585084D01*
X151112588Y-60576164D01*
X150893277Y-60594828D01*
X150879369Y-60598530D01*
X150875298Y-60599613D01*
X150872342Y-60600000D01*
X150822372Y-60600000D01*
X150819356Y-60599597D01*
X150794470Y-60592825D01*
X150789363Y-60589863D01*
X150750000Y-60550500D01*
X150749999Y-60550500D01*
X149961500Y-60550500D01*
X149953368Y-60547132D01*
X149950000Y-60539000D01*
X149950000Y-60362000D01*
X149953368Y-60353868D01*
X149961500Y-60350500D01*
X150749999Y-60350500D01*
X150750000Y-60350500D01*
X150789367Y-60311132D01*
X150794470Y-60308172D01*
X150819352Y-60301402D01*
X150822367Y-60301000D01*
X150838011Y-60301000D01*
X150843240Y-60302257D01*
X151034447Y-60399895D01*
X151034453Y-60399898D01*
X151073662Y-60415087D01*
X151073666Y-60415088D01*
X151073673Y-60415091D01*
X151078271Y-60416349D01*
X151108344Y-60422209D01*
X151199281Y-60412481D01*
X151207750Y-60409571D01*
X151277030Y-60369231D01*
X151346146Y-60308170D01*
X151351000Y-60303882D01*
X151358614Y-60301000D01*
X151414800Y-60301000D01*
X151415911Y-60300779D01*
X151415948Y-60300966D01*
X151418295Y-60300500D01*
X152069564Y-60300500D01*
X152070893Y-60300576D01*
G37*
%TD.AperFunction*%
%TD*%
%TA.AperFunction,Conductor*%
%TO.N,Board_0-GND*%
G36*
X164207743Y-41066338D02*
G01*
X164462624Y-41291433D01*
X164464515Y-41293103D01*
X164468448Y-41301148D01*
X164468045Y-41304998D01*
X164402377Y-41541925D01*
X164396865Y-41548982D01*
X164391102Y-41550500D01*
X164008898Y-41550500D01*
X164000625Y-41547073D01*
X163997623Y-41541925D01*
X163931954Y-41304998D01*
X163933047Y-41296110D01*
X163935481Y-41293106D01*
X164192256Y-41066338D01*
X164200725Y-41063431D01*
X164207743Y-41066338D01*
G37*
%TD.AperFunction*%
%TD*%
%TA.AperFunction,Conductor*%
%TO.N,Board_0-/SDA0*%
G36*
X159869775Y-64359691D02*
G01*
X159872628Y-64364345D01*
X160040175Y-64879488D01*
X160039475Y-64888416D01*
X160032668Y-64894233D01*
X160031369Y-64894575D01*
X159752320Y-64951030D01*
X159747680Y-64951030D01*
X159469518Y-64894755D01*
X159462089Y-64889755D01*
X159460370Y-64880967D01*
X159460971Y-64878951D01*
X159667058Y-64363619D01*
X159673312Y-64357210D01*
X159677922Y-64356264D01*
X159861502Y-64356264D01*
X159869775Y-64359691D01*
G37*
%TD.AperFunction*%
%TD*%
%TA.AperFunction,Conductor*%
%TO.N,Board_0-/INT_BAT*%
G36*
X164104344Y-56494616D02*
G01*
X164105193Y-56496126D01*
X164177080Y-56649793D01*
X164296791Y-56905693D01*
X164337422Y-56992546D01*
X164337823Y-57001492D01*
X164335097Y-57005777D01*
X164205277Y-57135597D01*
X164197004Y-57139024D01*
X164192047Y-57137922D01*
X164041428Y-57067461D01*
X163695626Y-56905693D01*
X163689585Y-56899083D01*
X163689986Y-56890137D01*
X163690835Y-56888627D01*
X163847985Y-56651763D01*
X163851263Y-56648485D01*
X164088127Y-56491334D01*
X164096915Y-56489616D01*
X164104344Y-56494616D01*
G37*
%TD.AperFunction*%
%TD*%
%TA.AperFunction,Conductor*%
%TO.N,Board_0-Net-(J7-CC2)*%
G36*
X161751552Y-39903927D02*
G01*
X161753386Y-39906306D01*
X161925927Y-40202165D01*
X161927134Y-40211038D01*
X161923245Y-40217101D01*
X161657986Y-40434941D01*
X161649418Y-40437543D01*
X161642505Y-40434384D01*
X161407275Y-40211038D01*
X161398418Y-40202628D01*
X161394779Y-40194447D01*
X161396925Y-40187384D01*
X161596503Y-39905440D01*
X161604080Y-39900667D01*
X161606053Y-39900500D01*
X161743279Y-39900500D01*
X161751552Y-39903927D01*
G37*
%TD.AperFunction*%
%TD*%
%TA.AperFunction,Conductor*%
%TO.N,Board_0-/HOST_CSN*%
G36*
X157180370Y-42056221D02*
G01*
X157187798Y-42061221D01*
X157189517Y-42070009D01*
X157188877Y-42072120D01*
X156977975Y-42587467D01*
X156971670Y-42593826D01*
X156967147Y-42594736D01*
X156832853Y-42594736D01*
X156824580Y-42591309D01*
X156822025Y-42587467D01*
X156611122Y-42072120D01*
X156611160Y-42063166D01*
X156617519Y-42056861D01*
X156619622Y-42056223D01*
X156897682Y-41999969D01*
X156902318Y-41999969D01*
X157180370Y-42056221D01*
G37*
%TD.AperFunction*%
%TD*%
%TA.AperFunction,Conductor*%
%TO.N,Board_0-/QSPI_SS*%
G36*
X150720251Y-55479679D02*
G01*
X150724870Y-55487351D01*
X150725000Y-55489091D01*
X150725000Y-55619632D01*
X150721573Y-55627905D01*
X150720297Y-55629009D01*
X150678259Y-55660375D01*
X150670934Y-55662693D01*
X150246776Y-55650788D01*
X150238602Y-55647131D01*
X150235464Y-55640272D01*
X150227494Y-55561590D01*
X150230069Y-55553014D01*
X150237391Y-55548842D01*
X150711561Y-55477521D01*
X150720251Y-55479679D01*
G37*
%TD.AperFunction*%
%TD*%
%TA.AperFunction,Conductor*%
%TO.N,Board_0-GND*%
G36*
X140055405Y-37769451D02*
G01*
X140060377Y-37774423D01*
X140347708Y-38326100D01*
X140348490Y-38335021D01*
X140348431Y-38335205D01*
X140252667Y-38622500D01*
X140246799Y-38629265D01*
X140241567Y-38630500D01*
X139858433Y-38630500D01*
X139850160Y-38627073D01*
X139847333Y-38622500D01*
X139751568Y-38335205D01*
X139752203Y-38326273D01*
X139752263Y-38326154D01*
X140039623Y-37774422D01*
X140046484Y-37768669D01*
X140055405Y-37769451D01*
G37*
%TD.AperFunction*%
%TD*%
%TA.AperFunction,Conductor*%
%TO.N,Board_0-/V_EN*%
G36*
X130760211Y-64681529D02*
G01*
X130761260Y-64684062D01*
X131243606Y-66391801D01*
X131242557Y-66400694D01*
X131241268Y-66402551D01*
X130828506Y-66888970D01*
X130820540Y-66893061D01*
X130819585Y-66893100D01*
X130680417Y-66893100D01*
X130672144Y-66889673D01*
X130671496Y-66888970D01*
X130258733Y-66402551D01*
X130255993Y-66394026D01*
X130256395Y-66391801D01*
X130738742Y-64684062D01*
X130744288Y-64677032D01*
X130753181Y-64675983D01*
X130760211Y-64681529D01*
G37*
%TD.AperFunction*%
%TD*%
%TA.AperFunction,Conductor*%
%TO.N,Board_0-/USB_D-*%
G36*
X155615813Y-56745336D02*
G01*
X155621054Y-56752597D01*
X155621369Y-56755293D01*
X155621369Y-57061052D01*
X155618416Y-57068823D01*
X155386429Y-57329944D01*
X155378372Y-57333853D01*
X155371687Y-57332221D01*
X155115271Y-57179241D01*
X155109922Y-57172059D01*
X155109606Y-57168226D01*
X155134974Y-56863954D01*
X155139076Y-56855997D01*
X155143934Y-56853545D01*
X155606974Y-56743908D01*
X155615813Y-56745336D01*
G37*
%TD.AperFunction*%
%TD*%
%TA.AperFunction,Conductor*%
%TO.N,Board_0-/XIN*%
G36*
X142978376Y-57551369D02*
G01*
X143319479Y-57639169D01*
X143326636Y-57644550D01*
X143327893Y-57653417D01*
X143322512Y-57660574D01*
X143319478Y-57661831D01*
X142992980Y-57745870D01*
X142988348Y-57746112D01*
X142986321Y-57745811D01*
X142986301Y-57745809D01*
X142981473Y-57745600D01*
X142981449Y-57745600D01*
X142956533Y-57747120D01*
X142953898Y-57746983D01*
X142914190Y-57740365D01*
X142834776Y-57727129D01*
X142827179Y-57722388D01*
X142825000Y-57715588D01*
X142825000Y-57585411D01*
X142828427Y-57577138D01*
X142834775Y-57573870D01*
X142971046Y-57551159D01*
X142972969Y-57551000D01*
X142975459Y-57551000D01*
X142978376Y-57551369D01*
G37*
%TD.AperFunction*%
%TD*%
%TA.AperFunction,Conductor*%
%TO.N,Board_0-/RESET_GPS*%
G36*
X144730654Y-44806299D02*
G01*
X144738090Y-44811288D01*
X144739821Y-44820074D01*
X144739274Y-44821960D01*
X144570558Y-45261777D01*
X144567907Y-45265860D01*
X144474355Y-45359412D01*
X144466082Y-45362839D01*
X144457809Y-45359412D01*
X144455964Y-45357014D01*
X144206057Y-44926639D01*
X144204866Y-44917764D01*
X144209641Y-44911059D01*
X144445243Y-44752517D01*
X144454019Y-44750742D01*
X144730654Y-44806299D01*
G37*
%TD.AperFunction*%
%TD*%
%TA.AperFunction,Conductor*%
%TO.N,Board_0-GND*%
G36*
X149340743Y-50948524D02*
G01*
X149348118Y-50953601D01*
X149350000Y-50959965D01*
X149350000Y-51341034D01*
X149346573Y-51349307D01*
X149340742Y-51352476D01*
X148920092Y-51442267D01*
X148911286Y-51440643D01*
X148906208Y-51433267D01*
X148906182Y-51433145D01*
X148849469Y-51152820D01*
X148849469Y-51148180D01*
X148888835Y-50953601D01*
X148906182Y-50867853D01*
X148911182Y-50860425D01*
X148919968Y-50858706D01*
X149340743Y-50948524D01*
G37*
%TD.AperFunction*%
%TD*%
%TA.AperFunction,Conductor*%
%TO.N,Board_0-/VREG_AVDD*%
G36*
X152139085Y-61640963D02*
G01*
X152313005Y-61824149D01*
X152368491Y-61882591D01*
X152371702Y-61890951D01*
X152368638Y-61898545D01*
X152143564Y-62144512D01*
X152135450Y-62148303D01*
X152131038Y-62147647D01*
X151792806Y-62028255D01*
X151786145Y-62022270D01*
X151785000Y-62017222D01*
X151785000Y-61832422D01*
X151788427Y-61824149D01*
X151791063Y-61822169D01*
X152124972Y-61638765D01*
X152133871Y-61637787D01*
X152139085Y-61640963D01*
G37*
%TD.AperFunction*%
%TD*%
%TA.AperFunction,Conductor*%
%TO.N,Board_0-+1V1*%
G36*
X148220708Y-51859771D02*
G01*
X148735773Y-52008063D01*
X148742775Y-52013645D01*
X148744236Y-52019306D01*
X148744236Y-52202886D01*
X148740809Y-52211159D01*
X148737276Y-52213583D01*
X148325645Y-52395964D01*
X148316692Y-52396182D01*
X148311195Y-52391794D01*
X148151727Y-52154557D01*
X148149956Y-52145779D01*
X148149969Y-52145710D01*
X148206012Y-51868694D01*
X148211011Y-51861267D01*
X148219799Y-51859548D01*
X148220708Y-51859771D01*
G37*
%TD.AperFunction*%
%TD*%
%TA.AperFunction,Conductor*%
%TO.N,Board_0-GND*%
G36*
X140126236Y-58994361D02*
G01*
X140129608Y-58996824D01*
X140205115Y-59076174D01*
X140364604Y-59243779D01*
X140367824Y-59252134D01*
X140365912Y-59258259D01*
X140179279Y-59542903D01*
X140171877Y-59547943D01*
X140167953Y-59548086D01*
X139820158Y-59501850D01*
X139812409Y-59497363D01*
X139810000Y-59490252D01*
X139810000Y-59467017D01*
X139810000Y-59100500D01*
X140117298Y-58993837D01*
X140126236Y-58994361D01*
G37*
%TD.AperFunction*%
%TD*%
%TA.AperFunction,Conductor*%
%TO.N,Board_0-/HOST_MISO*%
G36*
X157980370Y-46706221D02*
G01*
X157987798Y-46711221D01*
X157989517Y-46720009D01*
X157988877Y-46722120D01*
X157777975Y-47237467D01*
X157771670Y-47243826D01*
X157767147Y-47244736D01*
X157632853Y-47244736D01*
X157624580Y-47241309D01*
X157622025Y-47237467D01*
X157411122Y-46722120D01*
X157411160Y-46713166D01*
X157417519Y-46706861D01*
X157419622Y-46706223D01*
X157697682Y-46649969D01*
X157702318Y-46649969D01*
X157980370Y-46706221D01*
G37*
%TD.AperFunction*%
%TD*%
%TA.AperFunction,Conductor*%
%TO.N,Board_0-/STANDBY_GPS*%
G36*
X145843330Y-42745642D02*
G01*
X145847740Y-42751196D01*
X146008032Y-43173078D01*
X146007767Y-43182029D01*
X146005368Y-43185507D01*
X145910382Y-43280493D01*
X145902109Y-43283920D01*
X145897279Y-43282877D01*
X145537494Y-43119813D01*
X145395844Y-43055613D01*
X145389724Y-43049077D01*
X145390018Y-43040127D01*
X145390921Y-43038497D01*
X145546592Y-42803863D01*
X145554015Y-42798867D01*
X145834553Y-42743871D01*
X145843330Y-42745642D01*
G37*
%TD.AperFunction*%
%TD*%
%TA.AperFunction,Conductor*%
%TO.N,Board_0-Net-(J6-Pad19)*%
G36*
X143130370Y-42806221D02*
G01*
X143137798Y-42811221D01*
X143139517Y-42820009D01*
X143138877Y-42822120D01*
X142927975Y-43337467D01*
X142921670Y-43343826D01*
X142917147Y-43344736D01*
X142782853Y-43344736D01*
X142774580Y-43341309D01*
X142772025Y-43337467D01*
X142561122Y-42822120D01*
X142561160Y-42813166D01*
X142567519Y-42806861D01*
X142569622Y-42806223D01*
X142847682Y-42749969D01*
X142852318Y-42749969D01*
X143130370Y-42806221D01*
G37*
%TD.AperFunction*%
%TD*%
%TA.AperFunction,Conductor*%
%TO.N,Board_0-/VPHONE*%
G36*
X163001392Y-44173927D02*
G01*
X163003344Y-44176513D01*
X163186337Y-44505545D01*
X163187363Y-44514441D01*
X163186508Y-44516600D01*
X162910396Y-45051365D01*
X162903556Y-45057144D01*
X162894632Y-45056393D01*
X162889604Y-45051365D01*
X162613491Y-44516600D01*
X162612740Y-44507676D01*
X162613659Y-44505551D01*
X162796656Y-44176513D01*
X162803672Y-44170949D01*
X162806881Y-44170500D01*
X162993119Y-44170500D01*
X163001392Y-44173927D01*
G37*
%TD.AperFunction*%
%TD*%
%TA.AperFunction,Conductor*%
%TO.N,Board_0-Net-(R1-Pad2)*%
G36*
X147880409Y-67127580D02*
G01*
X148192500Y-67247615D01*
X148198992Y-67253783D01*
X148200000Y-67258535D01*
X148200000Y-67642464D01*
X148196573Y-67650737D01*
X148192500Y-67653384D01*
X147880414Y-67773417D01*
X147871462Y-67773189D01*
X147870064Y-67772450D01*
X147659686Y-67642464D01*
X147365107Y-67460452D01*
X147359871Y-67453189D01*
X147361305Y-67444350D01*
X147365107Y-67440547D01*
X147870065Y-67128548D01*
X147878903Y-67127115D01*
X147880409Y-67127580D01*
G37*
%TD.AperFunction*%
%TD*%
%TA.AperFunction,Conductor*%
%TO.N,Board_0-/VBUS*%
G36*
X166311296Y-55170185D02*
G01*
X166337001Y-55192192D01*
X166357492Y-55215281D01*
X166387268Y-55278488D01*
X166388748Y-55297589D01*
X166388748Y-57160390D01*
X166369063Y-57227429D01*
X166352429Y-57248071D01*
X165700000Y-57900499D01*
X165700000Y-58599138D01*
X165691355Y-58628578D01*
X165684832Y-58658565D01*
X165681077Y-58663580D01*
X165680315Y-58666177D01*
X165663681Y-58686819D01*
X165586319Y-58764181D01*
X165524996Y-58797666D01*
X165498638Y-58800500D01*
X165359413Y-58800500D01*
X165292374Y-58780815D01*
X165246619Y-58728011D01*
X165237874Y-58675612D01*
X165235500Y-58675612D01*
X165235500Y-57900877D01*
X165221908Y-57832549D01*
X165221907Y-57832548D01*
X165220894Y-57831031D01*
X165219701Y-57827221D01*
X165217235Y-57821267D01*
X165217768Y-57821046D01*
X165200020Y-57764352D01*
X165200000Y-57762146D01*
X165200000Y-55301862D01*
X165208644Y-55272421D01*
X165215168Y-55242435D01*
X165218922Y-55237419D01*
X165219685Y-55234823D01*
X165236319Y-55214181D01*
X165263681Y-55186819D01*
X165325004Y-55153334D01*
X165351362Y-55150500D01*
X166244257Y-55150500D01*
X166311296Y-55170185D01*
G37*
%TD.AperFunction*%
%TD*%
%TA.AperFunction,Conductor*%
%TO.N,Board_0-/VDD*%
G36*
X163165677Y-57370185D02*
G01*
X163186319Y-57386819D01*
X163650000Y-57850500D01*
X163926000Y-57850500D01*
X163993039Y-57870185D01*
X164038794Y-57922989D01*
X164050000Y-57974500D01*
X164050000Y-58626500D01*
X164047449Y-58635185D01*
X164048738Y-58644147D01*
X164037759Y-58668187D01*
X164030315Y-58693539D01*
X164023474Y-58699466D01*
X164019713Y-58707703D01*
X163997478Y-58721992D01*
X163977511Y-58739294D01*
X163966996Y-58741581D01*
X163960935Y-58745477D01*
X163926000Y-58750500D01*
X163751362Y-58750500D01*
X163684323Y-58730815D01*
X163663681Y-58714181D01*
X163022164Y-58072664D01*
X162351362Y-58072664D01*
X162321921Y-58064019D01*
X162291935Y-58057496D01*
X162286919Y-58053741D01*
X162284323Y-58052979D01*
X162263681Y-58036345D01*
X162186319Y-57958983D01*
X162152834Y-57897660D01*
X162150000Y-57871302D01*
X162150000Y-57501862D01*
X162169685Y-57434823D01*
X162186319Y-57414181D01*
X162213681Y-57386819D01*
X162275004Y-57353334D01*
X162301362Y-57350500D01*
X163098638Y-57350500D01*
X163165677Y-57370185D01*
G37*
%TD.AperFunction*%
%TD*%
%TA.AperFunction,Conductor*%
%TO.N,Board_0-GND*%
G36*
X170448452Y-52059691D02*
G01*
X170451702Y-52065937D01*
X170542259Y-52580739D01*
X170540317Y-52589481D01*
X170533056Y-52594234D01*
X170252320Y-52651030D01*
X170247680Y-52651030D01*
X169966943Y-52594234D01*
X169959514Y-52589234D01*
X169957740Y-52580739D01*
X170048298Y-52065937D01*
X170053106Y-52058383D01*
X170059821Y-52056264D01*
X170440179Y-52056264D01*
X170448452Y-52059691D01*
G37*
%TD.AperFunction*%
%TD*%
%TA.AperFunction,Conductor*%
%TO.N,Board_0-/SX1261_BUSY*%
G36*
X141052477Y-68094738D02*
G01*
X141182311Y-68224572D01*
X141185738Y-68232845D01*
X141185198Y-68236359D01*
X141047378Y-68674046D01*
X141041624Y-68680908D01*
X141033967Y-68682013D01*
X140754088Y-68627147D01*
X140746630Y-68622194D01*
X140589988Y-68386095D01*
X140588269Y-68377307D01*
X140593269Y-68369878D01*
X140593517Y-68369718D01*
X141038023Y-68093077D01*
X141046857Y-68091616D01*
X141052477Y-68094738D01*
G37*
%TD.AperFunction*%
%TD*%
%TA.AperFunction,Conductor*%
%TO.N,Board_0-/USB_C+*%
G36*
X162112646Y-44173927D02*
G01*
X162115337Y-44178115D01*
X162237578Y-44506175D01*
X162237255Y-44515124D01*
X162237010Y-44515628D01*
X161960396Y-45051365D01*
X161953556Y-45057144D01*
X161944632Y-45056393D01*
X161939604Y-45051365D01*
X161872319Y-44921051D01*
X161662988Y-44515626D01*
X161662238Y-44506704D01*
X161662408Y-44506210D01*
X161784663Y-44178115D01*
X161790763Y-44171559D01*
X161795627Y-44170500D01*
X162104373Y-44170500D01*
X162112646Y-44173927D01*
G37*
%TD.AperFunction*%
%TD*%
%TA.AperFunction,Conductor*%
%TO.N,Board_0-/RUN*%
G36*
X143352762Y-59648851D02*
G01*
X143360693Y-59653007D01*
X143363409Y-59660278D01*
X143364935Y-59739176D01*
X143361669Y-59747514D01*
X143353843Y-59751086D01*
X142912521Y-59773973D01*
X142904081Y-59770980D01*
X142903642Y-59770562D01*
X142813057Y-59679977D01*
X142809630Y-59671704D01*
X142813057Y-59663431D01*
X142816368Y-59661109D01*
X142922139Y-59611643D01*
X142928142Y-59610589D01*
X143352762Y-59648851D01*
G37*
%TD.AperFunction*%
%TD*%
%TA.AperFunction,Conductor*%
%TO.N,Board_0-+1V1*%
G36*
X147297330Y-61885218D02*
G01*
X147301169Y-61892713D01*
X147348156Y-62337623D01*
X147345617Y-62346210D01*
X147344794Y-62347125D01*
X147254134Y-62437785D01*
X147245861Y-62441212D01*
X147237588Y-62437785D01*
X147235405Y-62434763D01*
X147181896Y-62328210D01*
X147180664Y-62322466D01*
X147198839Y-61897878D01*
X147202616Y-61889761D01*
X147209869Y-61886698D01*
X147288879Y-61882260D01*
X147297330Y-61885218D01*
G37*
%TD.AperFunction*%
%TD*%
%TA.AperFunction,Conductor*%
%TO.N,Board_0-/VDD*%
G36*
X161647898Y-55606727D02*
G01*
X161893468Y-55831437D01*
X161897259Y-55839551D01*
X161896231Y-55844888D01*
X161743111Y-56183619D01*
X161736581Y-56189746D01*
X161732450Y-56190500D01*
X161547550Y-56190500D01*
X161539277Y-56187073D01*
X161536889Y-56183619D01*
X161383768Y-55844888D01*
X161383483Y-55835938D01*
X161386528Y-55831440D01*
X161632102Y-55606726D01*
X161640518Y-55603670D01*
X161647898Y-55606727D01*
G37*
%TD.AperFunction*%
%TD*%
%TA.AperFunction,Conductor*%
%TO.N,Board_0-Net-(J6-Pad19)*%
G36*
X142926895Y-43403927D02*
G01*
X142928456Y-43405862D01*
X143114552Y-43694599D01*
X143116154Y-43703409D01*
X143112463Y-43709707D01*
X142857745Y-43934660D01*
X142849275Y-43937568D01*
X142842255Y-43934660D01*
X142587536Y-43709707D01*
X142583603Y-43701662D01*
X142585446Y-43694601D01*
X142771544Y-43405861D01*
X142778906Y-43400764D01*
X142781378Y-43400500D01*
X142918622Y-43400500D01*
X142926895Y-43403927D01*
G37*
%TD.AperFunction*%
%TD*%
%TA.AperFunction,Conductor*%
%TO.N,Board_0-+3V3*%
G36*
X158757743Y-61766338D02*
G01*
X158965268Y-61949611D01*
X159012463Y-61991291D01*
X159016396Y-61999336D01*
X159014552Y-62006399D01*
X158828456Y-62295138D01*
X158821094Y-62300236D01*
X158818622Y-62300500D01*
X158681378Y-62300500D01*
X158673105Y-62297073D01*
X158671544Y-62295138D01*
X158485447Y-62006399D01*
X158483845Y-61997589D01*
X158487535Y-61991292D01*
X158742256Y-61766338D01*
X158750725Y-61763431D01*
X158757743Y-61766338D01*
G37*
%TD.AperFunction*%
%TD*%
%TA.AperFunction,Conductor*%
%TO.N,Board_0-/SX1261_NSS*%
G36*
X135603869Y-43894931D02*
G01*
X135604910Y-43896876D01*
X135820184Y-44410412D01*
X135820222Y-44419366D01*
X135817667Y-44423208D01*
X135722708Y-44518167D01*
X135714435Y-44521594D01*
X135709912Y-44520684D01*
X135196376Y-44305410D01*
X135190071Y-44299051D01*
X135190109Y-44290097D01*
X135191147Y-44288156D01*
X135347985Y-44051763D01*
X135351263Y-44048485D01*
X135587653Y-43891649D01*
X135596440Y-43889931D01*
X135603869Y-43894931D01*
G37*
%TD.AperFunction*%
%TD*%
%TA.AperFunction,Conductor*%
%TO.N,Board_0-/XIN*%
G36*
X135142013Y-56353127D02*
G01*
X135148191Y-56359609D01*
X135148525Y-56360604D01*
X135483514Y-57529922D01*
X135483966Y-57533144D01*
X135483966Y-57664844D01*
X135480539Y-57673117D01*
X135472266Y-57676544D01*
X135468298Y-57675851D01*
X134381484Y-57284073D01*
X134374863Y-57278043D01*
X134374092Y-57270268D01*
X134542542Y-56586416D01*
X134547847Y-56579205D01*
X134549674Y-56578307D01*
X135133060Y-56352912D01*
X135142013Y-56353127D01*
G37*
%TD.AperFunction*%
%TD*%
%TA.AperFunction,Conductor*%
%TO.N,Board_0-/GPS_TX*%
G36*
X148005370Y-44881221D02*
G01*
X148012798Y-44886221D01*
X148014517Y-44895009D01*
X148013877Y-44897120D01*
X147802975Y-45412467D01*
X147796670Y-45418826D01*
X147792147Y-45419736D01*
X147657853Y-45419736D01*
X147649580Y-45416309D01*
X147647025Y-45412467D01*
X147436122Y-44897120D01*
X147436160Y-44888166D01*
X147442519Y-44881861D01*
X147444622Y-44881223D01*
X147722682Y-44824969D01*
X147727318Y-44824969D01*
X148005370Y-44881221D01*
G37*
%TD.AperFunction*%
%TD*%
%TA.AperFunction,Conductor*%
%TO.N,Board_0-/STANDBY_GPS*%
G36*
X146473362Y-54478927D02*
G01*
X146476630Y-54485277D01*
X146499592Y-54623057D01*
X146499382Y-54627896D01*
X146411331Y-54969978D01*
X146405950Y-54977136D01*
X146397084Y-54978393D01*
X146389926Y-54973012D01*
X146388669Y-54969979D01*
X146300617Y-54627897D01*
X146300407Y-54623057D01*
X146323370Y-54485277D01*
X146328110Y-54477679D01*
X146334911Y-54475500D01*
X146465089Y-54475500D01*
X146473362Y-54478927D01*
G37*
%TD.AperFunction*%
%TD*%
%TA.AperFunction,Conductor*%
%TO.N,Board_0-GND*%
G36*
X158051728Y-63472174D02*
G01*
X158268398Y-63688844D01*
X158290072Y-63741170D01*
X158290072Y-65841115D01*
X158268398Y-65893441D01*
X158263792Y-65897673D01*
X157510744Y-66533058D01*
X157463024Y-66550500D01*
X156677072Y-66550500D01*
X156624746Y-66528826D01*
X156617872Y-66520900D01*
X156490072Y-66350500D01*
X155647913Y-66350500D01*
X155633006Y-66347533D01*
X155632758Y-66348780D01*
X155625604Y-66347357D01*
X155563480Y-66335000D01*
X155396520Y-66335000D01*
X155334396Y-66347357D01*
X155327242Y-66348780D01*
X155326993Y-66347533D01*
X155312087Y-66350500D01*
X155247913Y-66350500D01*
X155233006Y-66347533D01*
X155232758Y-66348780D01*
X155225604Y-66347357D01*
X155163480Y-66335000D01*
X154996520Y-66335000D01*
X154986213Y-66337050D01*
X154934391Y-66347357D01*
X154863935Y-66394434D01*
X154863934Y-66394435D01*
X154816857Y-66464890D01*
X154814069Y-66471623D01*
X154813968Y-66471581D01*
X154808600Y-66485750D01*
X154800000Y-66500500D01*
X154800000Y-66714114D01*
X154799999Y-66717175D01*
X154799999Y-66717180D01*
X154799999Y-66731372D01*
X154799999Y-66731376D01*
X154798577Y-66745813D01*
X154788250Y-66797729D01*
X154785514Y-66807748D01*
X154782652Y-66815921D01*
X154781554Y-66824808D01*
X154787439Y-66904787D01*
X154789075Y-66910701D01*
X154797322Y-66940518D01*
X154800000Y-66960245D01*
X154800000Y-67511707D01*
X154778326Y-67564033D01*
X154768096Y-67572567D01*
X154457563Y-67787360D01*
X154415467Y-67800500D01*
X152379949Y-67800500D01*
X152328482Y-67779671D01*
X152062605Y-67522311D01*
X152040082Y-67470344D01*
X152040072Y-67469140D01*
X152040072Y-66350725D01*
X152046082Y-66321512D01*
X152168758Y-66036000D01*
X152830756Y-64495286D01*
X152871327Y-64455767D01*
X152898746Y-64450500D01*
X153766072Y-64450500D01*
X153818398Y-64472174D01*
X153840072Y-64524500D01*
X153840072Y-65110502D01*
X153999998Y-65600495D01*
X153999998Y-65600497D01*
X153999999Y-65600499D01*
X154000000Y-65600500D01*
X154340072Y-66025500D01*
X154340073Y-66025500D01*
X155336445Y-66025500D01*
X155350880Y-66026921D01*
X155396520Y-66036000D01*
X155396521Y-66036000D01*
X155563479Y-66036000D01*
X155563480Y-66036000D01*
X155609119Y-66026921D01*
X155623555Y-66025500D01*
X155736445Y-66025500D01*
X155750880Y-66026921D01*
X155796520Y-66036000D01*
X155796521Y-66036000D01*
X155963479Y-66036000D01*
X155963480Y-66036000D01*
X156009119Y-66026921D01*
X156023555Y-66025500D01*
X156390071Y-66025500D01*
X156390072Y-66025500D01*
X156440072Y-65870500D01*
X156440072Y-65350500D01*
X156207224Y-65071082D01*
X156190072Y-65023708D01*
X156190072Y-64502004D01*
X156211746Y-64449678D01*
X156238365Y-64432613D01*
X156460072Y-64350500D01*
X157227894Y-63475685D01*
X157278700Y-63450656D01*
X157283510Y-63450500D01*
X157999402Y-63450500D01*
X158051728Y-63472174D01*
G37*
%TD.AperFunction*%
%TD*%
%TA.AperFunction,Conductor*%
%TO.N,Board_0-/SX1261_DIO2*%
G36*
X145299306Y-68659691D02*
G01*
X145302331Y-68664922D01*
X145440994Y-69179935D01*
X145439836Y-69188815D01*
X145432738Y-69194275D01*
X145432016Y-69194445D01*
X145154789Y-69250530D01*
X145146001Y-69248811D01*
X145145942Y-69248772D01*
X144908866Y-69089413D01*
X144903912Y-69081954D01*
X144904789Y-69074759D01*
X145021434Y-68824694D01*
X145096850Y-68663018D01*
X145103453Y-68656969D01*
X145107453Y-68656264D01*
X145291033Y-68656264D01*
X145299306Y-68659691D01*
G37*
%TD.AperFunction*%
%TD*%
%TA.AperFunction,Conductor*%
%TO.N,Board_0-/SX1261_NRESET*%
G36*
X138128869Y-44669931D02*
G01*
X138129910Y-44671876D01*
X138345184Y-45185412D01*
X138345222Y-45194366D01*
X138342667Y-45198208D01*
X138247708Y-45293167D01*
X138239435Y-45296594D01*
X138234912Y-45295684D01*
X137721376Y-45080410D01*
X137715071Y-45074051D01*
X137715109Y-45065097D01*
X137716147Y-45063156D01*
X137872985Y-44826763D01*
X137876263Y-44823485D01*
X138112653Y-44666649D01*
X138121440Y-44664931D01*
X138128869Y-44669931D01*
G37*
%TD.AperFunction*%
%TD*%
%TA.AperFunction,Conductor*%
%TO.N,Board_0-Net-(U1-GPIO18)*%
G36*
X142977397Y-60751117D02*
G01*
X143319479Y-60839169D01*
X143326636Y-60844550D01*
X143327893Y-60853417D01*
X143322512Y-60860574D01*
X143319478Y-60861831D01*
X142977396Y-60949882D01*
X142972557Y-60950092D01*
X142834777Y-60927129D01*
X142827179Y-60922389D01*
X142825000Y-60915588D01*
X142825000Y-60785411D01*
X142828427Y-60777138D01*
X142834775Y-60773870D01*
X142972557Y-60750907D01*
X142977397Y-60751117D01*
G37*
%TD.AperFunction*%
%TD*%
%TA.AperFunction,Conductor*%
%TO.N,Board_0-GND*%
G36*
X159748452Y-38084691D02*
G01*
X159751702Y-38090937D01*
X159842259Y-38605739D01*
X159840317Y-38614481D01*
X159833056Y-38619234D01*
X159552320Y-38676030D01*
X159547680Y-38676030D01*
X159266943Y-38619234D01*
X159259514Y-38614234D01*
X159257740Y-38605739D01*
X159348298Y-38090937D01*
X159353106Y-38083383D01*
X159359821Y-38081264D01*
X159740179Y-38081264D01*
X159748452Y-38084691D01*
G37*
%TD.AperFunction*%
%TD*%
%TA.AperFunction,Conductor*%
%TO.N,Board_0-+3V3*%
G36*
X149624000Y-61275500D02*
G01*
X149624001Y-61275500D01*
X149625498Y-61276997D01*
X149627227Y-61279212D01*
X149774065Y-61523941D01*
X149775407Y-61527265D01*
X149925000Y-62175500D01*
X149925000Y-62175501D01*
X149925001Y-62175502D01*
X150474997Y-62975497D01*
X150474998Y-62975498D01*
X150474999Y-62975498D01*
X150475000Y-62975500D01*
X150674998Y-63125498D01*
X150974999Y-63350500D01*
X150975000Y-63350500D01*
X151849999Y-63350500D01*
X151850000Y-63350500D01*
X152048594Y-62705068D01*
X152054203Y-62698287D01*
X152522486Y-62451822D01*
X152527842Y-62450500D01*
X156421869Y-62450500D01*
X156427699Y-62452087D01*
X156844331Y-62697165D01*
X156849632Y-62704191D01*
X156850000Y-62707077D01*
X156850000Y-63246310D01*
X156847306Y-63253707D01*
X155800000Y-64500500D01*
X155800000Y-65100501D01*
X156048786Y-65598072D01*
X156050000Y-65603215D01*
X156050000Y-65808500D01*
X156046632Y-65816632D01*
X156038500Y-65820000D01*
X156023553Y-65820000D01*
X156003420Y-65820988D01*
X155988998Y-65822408D01*
X155988988Y-65822409D01*
X155981352Y-65823541D01*
X155969012Y-65825371D01*
X155944347Y-65830279D01*
X155942103Y-65830500D01*
X155817895Y-65830500D01*
X155815651Y-65830279D01*
X155790984Y-65825371D01*
X155770999Y-65822408D01*
X155764029Y-65821722D01*
X155756577Y-65820989D01*
X155756561Y-65820988D01*
X155756565Y-65820988D01*
X155736446Y-65820000D01*
X155736445Y-65820000D01*
X155623555Y-65820000D01*
X155623553Y-65820000D01*
X155603420Y-65820988D01*
X155588998Y-65822408D01*
X155588988Y-65822409D01*
X155581352Y-65823541D01*
X155569012Y-65825371D01*
X155544347Y-65830279D01*
X155542103Y-65830500D01*
X155420784Y-65830500D01*
X155412652Y-65827132D01*
X155409296Y-65819531D01*
X155409162Y-65816632D01*
X155408797Y-65808727D01*
X155381052Y-65722535D01*
X155380500Y-65719014D01*
X155380500Y-65690938D01*
X155360021Y-65614512D01*
X155360021Y-65614511D01*
X155351541Y-65599823D01*
X155350000Y-65594073D01*
X155350000Y-65450501D01*
X155350000Y-65450500D01*
X155349999Y-65450500D01*
X155197582Y-65450500D01*
X155194606Y-65450108D01*
X155119562Y-65430000D01*
X155040438Y-65430000D01*
X154965394Y-65450108D01*
X154962418Y-65450500D01*
X154825001Y-65450500D01*
X154825000Y-65450500D01*
X154825000Y-65450501D01*
X154825000Y-65568092D01*
X154823459Y-65573842D01*
X154799978Y-65614512D01*
X154779500Y-65690938D01*
X154779500Y-65727692D01*
X154778176Y-65733049D01*
X154759625Y-65768292D01*
X154759620Y-65768303D01*
X154757319Y-65776949D01*
X154755925Y-65798782D01*
X154755292Y-65808722D01*
X154755259Y-65809233D01*
X154751379Y-65817133D01*
X154743782Y-65820000D01*
X154473930Y-65820000D01*
X154465798Y-65816632D01*
X154464018Y-65814331D01*
X154391434Y-65690938D01*
X154250894Y-65452020D01*
X154249604Y-65448785D01*
X154045865Y-64565915D01*
X154045572Y-64563337D01*
X154045572Y-64524501D01*
X154038911Y-64491013D01*
X154029929Y-64445859D01*
X154008255Y-64393533D01*
X154008251Y-64393526D01*
X154008249Y-64393522D01*
X154005857Y-64389715D01*
X154004389Y-64386183D01*
X153950000Y-64150500D01*
X151325251Y-64150500D01*
X151322778Y-64150231D01*
X150080727Y-63876761D01*
X150073510Y-63871723D01*
X150072657Y-63870124D01*
X149564584Y-62704191D01*
X149400957Y-62328696D01*
X149400000Y-62324102D01*
X149400000Y-61525501D01*
X149400000Y-61525499D01*
X149275000Y-61275500D01*
X149275000Y-60825500D01*
X149624000Y-60825500D01*
X149624000Y-61275500D01*
G37*
%TD.AperFunction*%
%TD*%
%TA.AperFunction,Conductor*%
%TO.N,Board_0-/VPHONE*%
G36*
X160478481Y-36897144D02*
G01*
X160609359Y-37028022D01*
X160612422Y-37033399D01*
X160648890Y-37176157D01*
X160647925Y-37184470D01*
X160362688Y-37730561D01*
X160355820Y-37736307D01*
X160346900Y-37735515D01*
X160341154Y-37728647D01*
X160341096Y-37728459D01*
X160307922Y-37616165D01*
X160181187Y-37187159D01*
X160182130Y-37178256D01*
X160184122Y-37175586D01*
X160461935Y-36897161D01*
X160470204Y-36893726D01*
X160478481Y-36897144D01*
G37*
%TD.AperFunction*%
%TD*%
%TA.AperFunction,Conductor*%
%TO.N,Board_0-Net-(J5-CC1)*%
G36*
X144599840Y-37033927D02*
G01*
X144602667Y-37038500D01*
X144648900Y-37177200D01*
X144649500Y-37180900D01*
X144649500Y-37180922D01*
X144649122Y-37183871D01*
X144511322Y-37713023D01*
X144505921Y-37720165D01*
X144497051Y-37721396D01*
X144489909Y-37715995D01*
X144488678Y-37713023D01*
X144350878Y-37183871D01*
X144350500Y-37180922D01*
X144350500Y-37180900D01*
X144351100Y-37177200D01*
X144397333Y-37038500D01*
X144403201Y-37031735D01*
X144408433Y-37030500D01*
X144591567Y-37030500D01*
X144599840Y-37033927D01*
G37*
%TD.AperFunction*%
%TD*%
%TA.AperFunction,Conductor*%
%TO.N,Board_0-+3V3*%
G36*
X151203543Y-54628101D02*
G01*
X151415173Y-54893201D01*
X151417656Y-54901804D01*
X151415173Y-54907799D01*
X151203543Y-55172898D01*
X151195703Y-55177226D01*
X151188893Y-55175922D01*
X150866194Y-55003803D01*
X150860507Y-54996886D01*
X150860000Y-54993480D01*
X150860000Y-54807519D01*
X150863427Y-54799246D01*
X150866192Y-54797197D01*
X151188893Y-54625076D01*
X151197805Y-54624207D01*
X151203543Y-54628101D01*
G37*
%TD.AperFunction*%
%TD*%
%TA.AperFunction,Conductor*%
%TO.N,Board_0-GND*%
G36*
X147334435Y-63808008D02*
G01*
X147596509Y-63947201D01*
X147602208Y-63954107D01*
X147602721Y-63957533D01*
X147602721Y-64337970D01*
X147599294Y-64346243D01*
X147591021Y-64349670D01*
X147590221Y-64349643D01*
X147031133Y-64311331D01*
X147023114Y-64307346D01*
X147020260Y-64298858D01*
X147020295Y-64298462D01*
X147048486Y-64035296D01*
X147052745Y-64027459D01*
X147321580Y-63809257D01*
X147330160Y-63806705D01*
X147334435Y-63808008D01*
G37*
%TD.AperFunction*%
%TD*%
%TA.AperFunction,Conductor*%
%TO.N,Board_0-/SWD*%
G36*
X142981467Y-59155399D02*
G01*
X142986306Y-59155189D01*
X142988341Y-59154886D01*
X142992975Y-59155126D01*
X143319480Y-59239169D01*
X143326636Y-59244549D01*
X143327893Y-59253416D01*
X143322512Y-59260573D01*
X143319479Y-59261830D01*
X142977397Y-59349882D01*
X142972557Y-59350092D01*
X142834777Y-59327129D01*
X142827179Y-59322389D01*
X142825000Y-59315588D01*
X142825000Y-59185411D01*
X142828427Y-59177138D01*
X142834774Y-59173870D01*
X142953914Y-59154014D01*
X142956528Y-59153878D01*
X142981467Y-59155399D01*
G37*
%TD.AperFunction*%
%TD*%
%TA.AperFunction,Conductor*%
%TO.N,Board_0-/VREG_AVDD*%
G36*
X151632607Y-61631145D02*
G01*
X151841869Y-61744944D01*
X151983890Y-61822177D01*
X151989520Y-61829139D01*
X151990000Y-61832455D01*
X151990000Y-62017431D01*
X151986573Y-62025704D01*
X151982459Y-62028367D01*
X151631376Y-62161876D01*
X151622425Y-62161614D01*
X151618231Y-62158433D01*
X151509783Y-62028367D01*
X151405259Y-61903007D01*
X151402594Y-61894460D01*
X151405275Y-61888006D01*
X151618048Y-61633910D01*
X151625985Y-61629769D01*
X151632607Y-61631145D01*
G37*
%TD.AperFunction*%
%TD*%
%TA.AperFunction,Conductor*%
%TO.N,Board_0-Net-(D1-A)*%
G36*
X137307032Y-69138927D02*
G01*
X137308476Y-69140684D01*
X137526703Y-69466104D01*
X137528465Y-69474883D01*
X137525655Y-69480478D01*
X137287433Y-69743298D01*
X137279338Y-69747126D01*
X137271398Y-69744530D01*
X137002996Y-69527038D01*
X136998726Y-69519167D01*
X136999541Y-69513498D01*
X137152018Y-69142750D01*
X137158334Y-69136402D01*
X137162839Y-69135500D01*
X137298759Y-69135500D01*
X137307032Y-69138927D01*
G37*
%TD.AperFunction*%
%TD*%
%TA.AperFunction,Conductor*%
%TO.N,Board_0-GND*%
G36*
X151815033Y-60809723D02*
G01*
X151818413Y-60815858D01*
X151875030Y-61095710D01*
X151873311Y-61104498D01*
X151873272Y-61104557D01*
X151713771Y-61341843D01*
X151706312Y-61346797D01*
X151699385Y-61346041D01*
X151407024Y-61218562D01*
X151400810Y-61212114D01*
X151400000Y-61207837D01*
X151400000Y-60826943D01*
X151403427Y-60818670D01*
X151411440Y-60815246D01*
X151806686Y-60806481D01*
X151815033Y-60809723D01*
G37*
%TD.AperFunction*%
%TD*%
%TA.AperFunction,Conductor*%
%TO.N,Board_0-Net-(U1-GPIO18)*%
G36*
X138495898Y-68385946D02*
G01*
X138784638Y-68572044D01*
X138789736Y-68579406D01*
X138790000Y-68581878D01*
X138790000Y-68719121D01*
X138786573Y-68727394D01*
X138784638Y-68728955D01*
X138495900Y-68915052D01*
X138487090Y-68916654D01*
X138480792Y-68912963D01*
X138435723Y-68861930D01*
X138255838Y-68658243D01*
X138252931Y-68649775D01*
X138255838Y-68642756D01*
X138480793Y-68388035D01*
X138488837Y-68384103D01*
X138495898Y-68385946D01*
G37*
%TD.AperFunction*%
%TD*%
%TA.AperFunction,Conductor*%
%TO.N,Board_0-/VPHONE*%
G36*
X163025714Y-34858577D02*
G01*
X163026616Y-34859249D01*
X163433463Y-35194298D01*
X163437671Y-35202202D01*
X163435057Y-35210767D01*
X163434298Y-35211602D01*
X163304810Y-35341090D01*
X163298036Y-35344421D01*
X162919348Y-35393338D01*
X162910704Y-35390999D01*
X162906378Y-35384038D01*
X162898319Y-35343911D01*
X162850254Y-35104578D01*
X162851985Y-35095793D01*
X162852018Y-35095743D01*
X163009475Y-34861752D01*
X163016937Y-34856801D01*
X163025714Y-34858577D01*
G37*
%TD.AperFunction*%
%TD*%
%TA.AperFunction,Conductor*%
%TO.N,Board_0-Net-(D1-A)*%
G36*
X137237898Y-68656727D02*
G01*
X137483083Y-68881085D01*
X137486874Y-68889199D01*
X137485554Y-68895138D01*
X137308283Y-69234221D01*
X137301413Y-69239965D01*
X137297914Y-69240500D01*
X137162086Y-69240500D01*
X137153813Y-69237073D01*
X137151717Y-69234221D01*
X136974444Y-68895136D01*
X136973649Y-68886218D01*
X136976914Y-68881087D01*
X137222102Y-68656726D01*
X137230518Y-68653670D01*
X137237898Y-68656727D01*
G37*
%TD.AperFunction*%
%TD*%
%TA.AperFunction,Conductor*%
%TO.N,Board_0-/INT_BAT*%
G36*
X163787655Y-56361292D02*
G01*
X163793696Y-56367902D01*
X163794165Y-56369570D01*
X163850530Y-56648180D01*
X163850530Y-56652820D01*
X163794165Y-56931429D01*
X163789165Y-56938858D01*
X163780377Y-56940577D01*
X163778709Y-56940108D01*
X163263476Y-56753296D01*
X163256866Y-56747255D01*
X163255764Y-56742297D01*
X163255764Y-56558702D01*
X163259191Y-56550429D01*
X163263473Y-56547704D01*
X163778711Y-56360891D01*
X163787655Y-56361292D01*
G37*
%TD.AperFunction*%
%TD*%
%TA.AperFunction,Conductor*%
%TO.N,Board_0-/HOST_SCK*%
G36*
X148473361Y-54478927D02*
G01*
X148476629Y-54485276D01*
X148496483Y-54604397D01*
X148496620Y-54607033D01*
X148495100Y-54631947D01*
X148495100Y-54631970D01*
X148495309Y-54636801D01*
X148495613Y-54638848D01*
X148495370Y-54643480D01*
X148411331Y-54969978D01*
X148405950Y-54977136D01*
X148397084Y-54978393D01*
X148389926Y-54973012D01*
X148388669Y-54969979D01*
X148304628Y-54643480D01*
X148304626Y-54643475D01*
X148304386Y-54638841D01*
X148304689Y-54636806D01*
X148304899Y-54631967D01*
X148303378Y-54607029D01*
X148303514Y-54604413D01*
X148323370Y-54485274D01*
X148328111Y-54477679D01*
X148334911Y-54475500D01*
X148465088Y-54475500D01*
X148473361Y-54478927D01*
G37*
%TD.AperFunction*%
%TD*%
%TA.AperFunction,Conductor*%
%TO.N,Board_0-/SX1303_GPIO6*%
G36*
X142981467Y-56755399D02*
G01*
X142986306Y-56755189D01*
X142988341Y-56754886D01*
X142992975Y-56755126D01*
X143319480Y-56839169D01*
X143326636Y-56844549D01*
X143327893Y-56853416D01*
X143322512Y-56860573D01*
X143319479Y-56861830D01*
X142978376Y-56949631D01*
X142975459Y-56950000D01*
X142972969Y-56950000D01*
X142971046Y-56949841D01*
X142925622Y-56942270D01*
X142834776Y-56927129D01*
X142827179Y-56922388D01*
X142825000Y-56915588D01*
X142825000Y-56785411D01*
X142828427Y-56777138D01*
X142834774Y-56773870D01*
X142953914Y-56754014D01*
X142956528Y-56753878D01*
X142981467Y-56755399D01*
G37*
%TD.AperFunction*%
%TD*%
%TA.AperFunction,Conductor*%
%TO.N,Board_0-GND*%
G36*
X161657743Y-41466338D02*
G01*
X161854572Y-41640165D01*
X161914774Y-41693332D01*
X161918707Y-41701377D01*
X161918428Y-41704739D01*
X161852097Y-41991437D01*
X161846893Y-41998725D01*
X161840698Y-42000500D01*
X161459302Y-42000500D01*
X161451029Y-41997073D01*
X161447903Y-41991437D01*
X161381571Y-41704739D01*
X161383045Y-41695907D01*
X161385222Y-41693334D01*
X161642256Y-41466338D01*
X161650725Y-41463431D01*
X161657743Y-41466338D01*
G37*
%TD.AperFunction*%
%TD*%
%TA.AperFunction,Conductor*%
%TO.N,Board_0-Net-(U1-USB_DP)*%
G36*
X150647418Y-58755492D02*
G01*
X150712193Y-58778904D01*
X150716488Y-58781633D01*
X150807064Y-58872209D01*
X150810491Y-58880482D01*
X150807064Y-58888755D01*
X150802300Y-58891643D01*
X150662055Y-58935735D01*
X150656226Y-58936042D01*
X150288916Y-58861749D01*
X150281487Y-58856750D01*
X150279768Y-58847961D01*
X150284767Y-58840532D01*
X150288523Y-58838901D01*
X150640736Y-58755114D01*
X150647418Y-58755492D01*
G37*
%TD.AperFunction*%
%TD*%
%TA.AperFunction,Conductor*%
%TO.N,Board_0-/XIN*%
G36*
X138926619Y-57117181D02*
G01*
X139235287Y-57346991D01*
X139239877Y-57354681D01*
X139240000Y-57356376D01*
X139240000Y-57492005D01*
X139236573Y-57500278D01*
X139231923Y-57503130D01*
X138881110Y-57617389D01*
X138872183Y-57616693D01*
X138868502Y-57613758D01*
X138656273Y-57359223D01*
X138653608Y-57350675D01*
X138657503Y-57342972D01*
X138911878Y-57117804D01*
X138920343Y-57114888D01*
X138926619Y-57117181D01*
G37*
%TD.AperFunction*%
%TD*%
%TA.AperFunction,Conductor*%
%TO.N,Board_0-GND*%
G36*
X139850000Y-59035010D02*
G01*
X140135079Y-59098461D01*
X140142409Y-59103604D01*
X140144236Y-59109882D01*
X140144236Y-59490215D01*
X140140809Y-59498488D01*
X140134036Y-59501818D01*
X139725617Y-59554601D01*
X139725613Y-59554603D01*
X139608527Y-59569736D01*
X139549000Y-59275500D01*
X139608527Y-58981264D01*
X139850000Y-59035010D01*
G37*
%TD.AperFunction*%
%TD*%
%TA.AperFunction,Conductor*%
%TO.N,Board_0-GND*%
G36*
X138482072Y-69457453D02*
G01*
X138831245Y-69548224D01*
X138838389Y-69553621D01*
X138840000Y-69559547D01*
X138840000Y-69941452D01*
X138836573Y-69949725D01*
X138831244Y-69952776D01*
X138482076Y-70043545D01*
X138473206Y-70042310D01*
X138469838Y-70039328D01*
X138254434Y-69757607D01*
X138252131Y-69748953D01*
X138254434Y-69743393D01*
X138469839Y-69461670D01*
X138477585Y-69457181D01*
X138482072Y-69457453D01*
G37*
%TD.AperFunction*%
%TD*%
%TA.AperFunction,Conductor*%
%TO.N,Board_0-/VDD*%
G36*
X161740723Y-56063927D02*
G01*
X161743111Y-56067381D01*
X161896231Y-56406111D01*
X161896516Y-56415061D01*
X161893468Y-56419562D01*
X161647898Y-56644272D01*
X161639482Y-56647329D01*
X161632102Y-56644272D01*
X161386531Y-56419562D01*
X161382740Y-56411448D01*
X161383767Y-56406114D01*
X161536889Y-56067380D01*
X161543419Y-56061253D01*
X161547550Y-56060500D01*
X161732450Y-56060500D01*
X161740723Y-56063927D01*
G37*
%TD.AperFunction*%
%TD*%
%TA.AperFunction,Conductor*%
%TO.N,Board_0-/SCL0*%
G36*
X160121282Y-60460889D02*
G01*
X160636525Y-60647704D01*
X160643134Y-60653744D01*
X160644236Y-60658702D01*
X160644236Y-60842297D01*
X160640809Y-60850570D01*
X160636524Y-60853296D01*
X160121290Y-61040108D01*
X160112344Y-61039707D01*
X160106303Y-61033097D01*
X160105837Y-61031439D01*
X160049469Y-60752818D01*
X160049469Y-60748180D01*
X160105835Y-60469567D01*
X160110834Y-60462141D01*
X160119622Y-60460422D01*
X160121282Y-60460889D01*
G37*
%TD.AperFunction*%
%TD*%
%TA.AperFunction,Conductor*%
%TO.N,Board_0-/MCU_RESET*%
G36*
X143089514Y-55429687D02*
G01*
X143299092Y-55515087D01*
X143376811Y-55546757D01*
X143383179Y-55553052D01*
X143383807Y-55560174D01*
X143365767Y-55639893D01*
X143360599Y-55647206D01*
X143351872Y-55648744D01*
X142991068Y-55570370D01*
X142989265Y-55569119D01*
X142987108Y-55568703D01*
X142985729Y-55566665D01*
X142983711Y-55565265D01*
X142982091Y-55561289D01*
X142977521Y-55538990D01*
X142979217Y-55530198D01*
X142980705Y-55528374D01*
X143076830Y-55432249D01*
X143085102Y-55428823D01*
X143089514Y-55429687D01*
G37*
%TD.AperFunction*%
%TD*%
%TA.AperFunction,Conductor*%
%TO.N,Board_0-Net-(C21-Pad1)*%
G36*
X138876178Y-57983736D02*
G01*
X139227061Y-58102806D01*
X139233793Y-58108708D01*
X139235000Y-58113884D01*
X139235000Y-58249549D01*
X139231573Y-58257822D01*
X139230192Y-58259004D01*
X138921597Y-58483953D01*
X138912893Y-58486057D01*
X138906950Y-58483259D01*
X138652504Y-58258028D01*
X138648582Y-58249979D01*
X138651273Y-58241776D01*
X138863435Y-57987322D01*
X138871364Y-57983164D01*
X138876178Y-57983736D01*
G37*
%TD.AperFunction*%
%TD*%
%TA.AperFunction,Conductor*%
%TO.N,Board_0-GND*%
G36*
X152888921Y-54610218D02*
G01*
X152893752Y-54617533D01*
X152950530Y-54898180D01*
X152950530Y-54902820D01*
X152893752Y-55183466D01*
X152888752Y-55190895D01*
X152880164Y-55192652D01*
X152389580Y-55102265D01*
X152382065Y-55097396D01*
X152380000Y-55090759D01*
X152380000Y-54710240D01*
X152383427Y-54701967D01*
X152389577Y-54698735D01*
X152880165Y-54608347D01*
X152888921Y-54610218D01*
G37*
%TD.AperFunction*%
%TD*%
%TA.AperFunction,Conductor*%
%TO.N,Board_0-+1V1*%
G36*
X150646087Y-59554014D02*
G01*
X150765224Y-59573870D01*
X150772821Y-59578611D01*
X150775000Y-59585411D01*
X150775000Y-59715588D01*
X150771573Y-59723861D01*
X150765224Y-59727129D01*
X150674378Y-59742270D01*
X150628953Y-59749841D01*
X150627031Y-59750000D01*
X150624541Y-59750000D01*
X150621624Y-59749631D01*
X150280520Y-59661830D01*
X150273363Y-59656449D01*
X150272106Y-59647582D01*
X150277487Y-59640425D01*
X150280512Y-59639171D01*
X150607025Y-59555126D01*
X150611656Y-59554886D01*
X150613693Y-59555189D01*
X150618532Y-59555399D01*
X150643469Y-59553878D01*
X150646087Y-59554014D01*
G37*
%TD.AperFunction*%
%TD*%
%TA.AperFunction,Conductor*%
%TO.N,Board_0-Net-(C21-Pad1)*%
G36*
X137433788Y-58105032D02*
G01*
X137441910Y-58108800D01*
X137445000Y-58116722D01*
X137445000Y-58251942D01*
X137443020Y-58258455D01*
X136851270Y-59141601D01*
X136843818Y-59146566D01*
X136835411Y-59145048D01*
X136255661Y-58787688D01*
X136250416Y-58780430D01*
X136251840Y-58771589D01*
X136252917Y-58770113D01*
X136841305Y-58084803D01*
X136849293Y-58080760D01*
X136850665Y-58080736D01*
X137433788Y-58105032D01*
G37*
%TD.AperFunction*%
%TD*%
%TA.AperFunction,Conductor*%
%TO.N,Board_0-Net-(U4-NTC)*%
G36*
X162883395Y-55313928D02*
G01*
X163193618Y-55472243D01*
X163199430Y-55479056D01*
X163200000Y-55482664D01*
X163200000Y-55619761D01*
X163196573Y-55628034D01*
X163195463Y-55629012D01*
X162920380Y-55841999D01*
X162911740Y-55844354D01*
X162905037Y-55841113D01*
X162666292Y-55607631D01*
X162662773Y-55599396D01*
X162665069Y-55592304D01*
X162868676Y-55317384D01*
X162876352Y-55312777D01*
X162883395Y-55313928D01*
G37*
%TD.AperFunction*%
%TD*%
%TA.AperFunction,Conductor*%
%TO.N,Board_0-+1V1*%
G36*
X148983191Y-56294407D02*
G01*
X149019155Y-56343907D01*
X149024000Y-56374500D01*
X149024000Y-60576500D01*
X149005093Y-60634691D01*
X148955593Y-60670655D01*
X148925000Y-60675500D01*
X144723000Y-60675500D01*
X144664809Y-60656593D01*
X144628845Y-60607093D01*
X144624000Y-60576500D01*
X144624000Y-56878536D01*
X144999500Y-56878536D01*
X144999500Y-60022461D01*
X144999501Y-60022468D01*
X145014208Y-60096410D01*
X145014209Y-60096412D01*
X145020148Y-60105300D01*
X145070237Y-60180263D01*
X145154089Y-60236291D01*
X145210307Y-60247473D01*
X145228024Y-60250998D01*
X145228025Y-60250998D01*
X145228035Y-60251000D01*
X148371964Y-60250999D01*
X148445911Y-60236291D01*
X148529763Y-60180263D01*
X148585791Y-60096411D01*
X148600500Y-60022465D01*
X148600499Y-57316395D01*
X148600500Y-57316392D01*
X148600500Y-57184608D01*
X148600499Y-57184604D01*
X148600499Y-56878536D01*
X148585791Y-56804589D01*
X148585788Y-56804585D01*
X148529764Y-56720739D01*
X148529763Y-56720737D01*
X148445911Y-56664709D01*
X148445907Y-56664708D01*
X148371975Y-56650001D01*
X148371965Y-56650000D01*
X148371964Y-56650000D01*
X146875797Y-56650000D01*
X146866212Y-56647432D01*
X146734428Y-56647432D01*
X146724842Y-56650000D01*
X145615895Y-56650000D01*
X145615892Y-56650000D01*
X145484108Y-56650000D01*
X145484104Y-56650000D01*
X145228038Y-56650000D01*
X145228031Y-56650001D01*
X145154089Y-56664708D01*
X145154087Y-56664709D01*
X145070239Y-56720735D01*
X145070235Y-56720739D01*
X145014211Y-56804585D01*
X145014208Y-56804592D01*
X144999501Y-56878524D01*
X144999500Y-56878536D01*
X144624000Y-56878536D01*
X144624000Y-56374500D01*
X144642907Y-56316309D01*
X144692407Y-56280345D01*
X144723000Y-56275500D01*
X148925000Y-56275500D01*
X148983191Y-56294407D01*
G37*
%TD.AperFunction*%
%TD*%
%TA.AperFunction,Conductor*%
%TO.N,Board_0-/VPHONE*%
G36*
X165063846Y-36824915D02*
G01*
X165064728Y-36825902D01*
X165342958Y-37175495D01*
X165345428Y-37184102D01*
X165344877Y-37186556D01*
X165159513Y-37730369D01*
X165153601Y-37737094D01*
X165144664Y-37737668D01*
X165138069Y-37732012D01*
X164944508Y-37361436D01*
X164852179Y-37184671D01*
X164851318Y-37175979D01*
X164851459Y-37175495D01*
X164914309Y-36959943D01*
X164917265Y-36954950D01*
X165047301Y-36824914D01*
X165055573Y-36821488D01*
X165063846Y-36824915D01*
G37*
%TD.AperFunction*%
%TD*%
%TA.AperFunction,Conductor*%
%TO.N,Board_0-/SX1303_RESET*%
G36*
X143902468Y-54915915D02*
G01*
X143904680Y-54917634D01*
X143992602Y-55004686D01*
X143996070Y-55012942D01*
X143992684Y-55021232D01*
X143992602Y-55021314D01*
X143904680Y-55108365D01*
X143896390Y-55111751D01*
X143893610Y-55111402D01*
X143808862Y-55090215D01*
X143801667Y-55084884D01*
X143800000Y-55078864D01*
X143800000Y-54947135D01*
X143803427Y-54938862D01*
X143808860Y-54935784D01*
X143893611Y-54914597D01*
X143902468Y-54915915D01*
G37*
%TD.AperFunction*%
%TD*%
%TA.AperFunction,Conductor*%
%TO.N,Board_0-GND*%
G36*
X149128155Y-50884255D02*
G01*
X149131129Y-50886800D01*
X149344752Y-51143007D01*
X149347418Y-51151556D01*
X149344752Y-51157993D01*
X149131129Y-51414199D01*
X149123199Y-51418358D01*
X149119296Y-51418054D01*
X148858853Y-51352720D01*
X148851662Y-51347384D01*
X148850000Y-51341372D01*
X148850000Y-50959627D01*
X148853427Y-50951354D01*
X148858852Y-50948279D01*
X149119296Y-50882945D01*
X149128155Y-50884255D01*
G37*
%TD.AperFunction*%
%TD*%
%TA.AperFunction,Conductor*%
%TO.N,Board_0-/XOUT*%
G36*
X142977396Y-57951117D02*
G01*
X143065792Y-57973870D01*
X143319479Y-58039169D01*
X143326636Y-58044549D01*
X143327893Y-58053415D01*
X143322512Y-58060573D01*
X143319479Y-58061830D01*
X142978376Y-58149631D01*
X142975459Y-58150000D01*
X142972969Y-58150000D01*
X142971046Y-58149841D01*
X142925622Y-58142270D01*
X142834776Y-58127129D01*
X142827179Y-58122388D01*
X142825000Y-58115588D01*
X142825000Y-57985411D01*
X142828427Y-57977138D01*
X142834775Y-57973870D01*
X142972557Y-57950907D01*
X142977396Y-57951117D01*
G37*
%TD.AperFunction*%
%TD*%
%TA.AperFunction,Conductor*%
%TO.N,Board_0-+3V3*%
G36*
X143652969Y-62490916D02*
G01*
X143653495Y-62491477D01*
X143910029Y-62784175D01*
X143912905Y-62792656D01*
X143910551Y-62798958D01*
X143706392Y-63068073D01*
X143698662Y-63072593D01*
X143690973Y-63070987D01*
X143426082Y-62909214D01*
X143420807Y-62901978D01*
X143420510Y-62898391D01*
X143427646Y-62798958D01*
X143449220Y-62498349D01*
X143453230Y-62490345D01*
X143460890Y-62487489D01*
X143644696Y-62487489D01*
X143652969Y-62490916D01*
G37*
%TD.AperFunction*%
%TD*%
%TA.AperFunction,Conductor*%
%TO.N,Board_0-/VPHONE*%
G36*
X163180930Y-44056335D02*
G01*
X163188358Y-44061334D01*
X163190077Y-44070122D01*
X163189608Y-44071790D01*
X163002796Y-44587024D01*
X162996755Y-44593634D01*
X162991797Y-44594736D01*
X162808203Y-44594736D01*
X162799930Y-44591309D01*
X162797204Y-44587024D01*
X162749544Y-44455578D01*
X162610391Y-44071788D01*
X162610792Y-44062844D01*
X162617402Y-44056803D01*
X162619056Y-44056337D01*
X162897682Y-43999969D01*
X162902318Y-43999969D01*
X163180930Y-44056335D01*
G37*
%TD.AperFunction*%
%TD*%
%TA.AperFunction,Conductor*%
%TO.N,Board_0-/RUN*%
G36*
X142681514Y-64979525D02*
G01*
X143035685Y-65198357D01*
X143184500Y-65290305D01*
X143189737Y-65297569D01*
X143188303Y-65306408D01*
X143184286Y-65310340D01*
X142681944Y-65606098D01*
X142673076Y-65607343D01*
X142668704Y-65605156D01*
X142354396Y-65354012D01*
X142350072Y-65346171D01*
X142350000Y-65344872D01*
X142350000Y-65206630D01*
X142353427Y-65198357D01*
X142355034Y-65197014D01*
X142668705Y-64979857D01*
X142677457Y-64977967D01*
X142681514Y-64979525D01*
G37*
%TD.AperFunction*%
%TD*%
%TA.AperFunction,Conductor*%
%TO.N,Board_0-/RESET_GPS*%
G36*
X146073361Y-54478927D02*
G01*
X146076629Y-54485276D01*
X146096483Y-54604397D01*
X146096620Y-54607033D01*
X146095100Y-54631947D01*
X146095100Y-54631970D01*
X146095309Y-54636801D01*
X146095613Y-54638848D01*
X146095370Y-54643480D01*
X146011331Y-54969978D01*
X146005950Y-54977136D01*
X145997084Y-54978393D01*
X145989926Y-54973012D01*
X145988669Y-54969979D01*
X145900869Y-54628875D01*
X145900500Y-54625958D01*
X145900500Y-54623469D01*
X145900659Y-54621546D01*
X145923370Y-54485277D01*
X145928110Y-54477679D01*
X145934911Y-54475500D01*
X146065088Y-54475500D01*
X146073361Y-54478927D01*
G37*
%TD.AperFunction*%
%TD*%
%TA.AperFunction,Conductor*%
%TO.N,Board_0-GND*%
G36*
X168015677Y-55170185D02*
G01*
X168036319Y-55186819D01*
X168213681Y-55364181D01*
X168247166Y-55425504D01*
X168250000Y-55451862D01*
X168250000Y-56250500D01*
X169638710Y-57064571D01*
X169686589Y-57115455D01*
X169700000Y-57171545D01*
X169700000Y-58061638D01*
X169680315Y-58128677D01*
X169663681Y-58149319D01*
X169398819Y-58414181D01*
X169337496Y-58447666D01*
X169311138Y-58450500D01*
X168100000Y-58450500D01*
X166916363Y-58450500D01*
X166849324Y-58430815D01*
X166813189Y-58395283D01*
X166670826Y-58181739D01*
X166650018Y-58115040D01*
X166650000Y-58112956D01*
X166650000Y-57497644D01*
X166669685Y-57430605D01*
X166681316Y-57415268D01*
X167050000Y-57000500D01*
X167050000Y-55320623D01*
X167050475Y-55317691D01*
X167050081Y-55316142D01*
X167056363Y-55281412D01*
X167071737Y-55235289D01*
X167111611Y-55177914D01*
X167176174Y-55151205D01*
X167189374Y-55150500D01*
X167948638Y-55150500D01*
X168015677Y-55170185D01*
G37*
%TD.AperFunction*%
%TD*%
%TA.AperFunction,Conductor*%
%TO.N,Board_0-Net-(J7-CC1)*%
G36*
X164276895Y-39503927D02*
G01*
X164278456Y-39505862D01*
X164464552Y-39794599D01*
X164466154Y-39803409D01*
X164462463Y-39809707D01*
X164207745Y-40034660D01*
X164199275Y-40037568D01*
X164192255Y-40034660D01*
X163937536Y-39809707D01*
X163933603Y-39801662D01*
X163935446Y-39794601D01*
X164121544Y-39505861D01*
X164128906Y-39500764D01*
X164131378Y-39500500D01*
X164268622Y-39500500D01*
X164276895Y-39503927D01*
G37*
%TD.AperFunction*%
%TD*%
%TA.AperFunction,Conductor*%
%TO.N,Board_0-GND*%
G36*
X162905368Y-47594606D02*
G01*
X162910396Y-47599634D01*
X163187093Y-48135533D01*
X163187844Y-48144457D01*
X163187764Y-48144698D01*
X163102711Y-48392597D01*
X163096785Y-48399310D01*
X163091644Y-48400500D01*
X162708356Y-48400500D01*
X162700083Y-48397073D01*
X162697289Y-48392597D01*
X162612235Y-48144698D01*
X162612792Y-48135761D01*
X162612906Y-48135533D01*
X162889604Y-47599634D01*
X162896444Y-47593855D01*
X162905368Y-47594606D01*
G37*
%TD.AperFunction*%
%TD*%
%TA.AperFunction,Conductor*%
%TO.N,Board_0-/HOST_CSN*%
G36*
X148873362Y-54478927D02*
G01*
X148876630Y-54485277D01*
X148899592Y-54623057D01*
X148899382Y-54627896D01*
X148811331Y-54969978D01*
X148805950Y-54977136D01*
X148797084Y-54978393D01*
X148789926Y-54973012D01*
X148788669Y-54969979D01*
X148700617Y-54627897D01*
X148700407Y-54623057D01*
X148723370Y-54485277D01*
X148728110Y-54477679D01*
X148734911Y-54475500D01*
X148865089Y-54475500D01*
X148873362Y-54478927D01*
G37*
%TD.AperFunction*%
%TD*%
%TA.AperFunction,Conductor*%
%TO.N,Board_0-/SDA0*%
G36*
X164410555Y-60254302D02*
G01*
X164411033Y-60255456D01*
X164531343Y-60596286D01*
X164531765Y-60602564D01*
X164501939Y-60745884D01*
X164496898Y-60753285D01*
X164490484Y-60755200D01*
X164309516Y-60755200D01*
X164301243Y-60751773D01*
X164298061Y-60745884D01*
X164268234Y-60602562D01*
X164268656Y-60596286D01*
X164388967Y-60255454D01*
X164394952Y-60248795D01*
X164403895Y-60248317D01*
X164410555Y-60254302D01*
G37*
%TD.AperFunction*%
%TD*%
%TA.AperFunction,Conductor*%
%TO.N,Board_0-GND*%
G36*
X170533056Y-50006765D02*
G01*
X170540485Y-50011765D01*
X170542259Y-50020260D01*
X170451702Y-50535063D01*
X170446894Y-50542617D01*
X170440179Y-50544736D01*
X170059821Y-50544736D01*
X170051548Y-50541309D01*
X170048298Y-50535063D01*
X169957740Y-50020260D01*
X169959682Y-50011518D01*
X169966942Y-50006765D01*
X170247682Y-49949969D01*
X170252318Y-49949969D01*
X170533056Y-50006765D01*
G37*
%TD.AperFunction*%
%TD*%
%TA.AperFunction,Conductor*%
%TO.N,Board_0-GND*%
G36*
X165057841Y-61370185D02*
G01*
X165078483Y-61386819D01*
X165105845Y-61414181D01*
X165139330Y-61475504D01*
X165142164Y-61501862D01*
X165142164Y-62225649D01*
X165126051Y-62286775D01*
X164750000Y-62950500D01*
X164750000Y-66384137D01*
X164730315Y-66451176D01*
X164694783Y-66487311D01*
X164481239Y-66629674D01*
X164414540Y-66650482D01*
X164412456Y-66650500D01*
X163401362Y-66650500D01*
X163334323Y-66630815D01*
X163313681Y-66614181D01*
X162686319Y-65986819D01*
X162652834Y-65925496D01*
X162650000Y-65899138D01*
X162650000Y-63401862D01*
X162669685Y-63334823D01*
X162686319Y-63314181D01*
X164613681Y-61386819D01*
X164675004Y-61353334D01*
X164701362Y-61350500D01*
X164990802Y-61350500D01*
X165057841Y-61370185D01*
G37*
%TD.AperFunction*%
%TD*%
%TA.AperFunction,Conductor*%
%TO.N,Board_0-GND*%
G36*
X146648452Y-38109691D02*
G01*
X146651702Y-38115937D01*
X146742259Y-38630739D01*
X146740317Y-38639481D01*
X146733056Y-38644234D01*
X146452320Y-38701030D01*
X146447680Y-38701030D01*
X146166943Y-38644234D01*
X146159514Y-38639234D01*
X146157740Y-38630739D01*
X146248298Y-38115937D01*
X146253106Y-38108383D01*
X146259821Y-38106264D01*
X146640179Y-38106264D01*
X146648452Y-38109691D01*
G37*
%TD.AperFunction*%
%TD*%
%TA.AperFunction,Conductor*%
%TO.N,Board_0-GND*%
G36*
X152087849Y-60788475D02*
G01*
X152089752Y-60789811D01*
X152340575Y-61006058D01*
X152344603Y-61014054D01*
X152341796Y-61022558D01*
X152340699Y-61023670D01*
X152094096Y-61242430D01*
X152085633Y-61245357D01*
X152077580Y-61241442D01*
X152077287Y-61241100D01*
X152016421Y-61166921D01*
X151747726Y-60898226D01*
X151744299Y-60889953D01*
X151747726Y-60881680D01*
X151752843Y-60878686D01*
X152078958Y-60787405D01*
X152087849Y-60788475D01*
G37*
%TD.AperFunction*%
%TD*%
%TA.AperFunction,Conductor*%
%TO.N,Board_0-GND*%
G36*
X149257743Y-36616338D02*
G01*
X149454572Y-36790165D01*
X149514774Y-36843332D01*
X149518707Y-36851377D01*
X149518428Y-36854739D01*
X149452097Y-37141437D01*
X149446893Y-37148725D01*
X149440698Y-37150500D01*
X149059302Y-37150500D01*
X149051029Y-37147073D01*
X149047903Y-37141437D01*
X148981571Y-36854739D01*
X148983045Y-36845907D01*
X148985222Y-36843334D01*
X149242256Y-36616338D01*
X149250725Y-36613431D01*
X149257743Y-36616338D01*
G37*
%TD.AperFunction*%
%TD*%
%TA.AperFunction,Conductor*%
%TO.N,Board_0-/HOST_MOSI*%
G36*
X154887333Y-42411660D02*
G01*
X154893638Y-42418019D01*
X154894278Y-42420130D01*
X154950530Y-42698180D01*
X154950530Y-42702820D01*
X154894278Y-42980869D01*
X154889278Y-42988298D01*
X154880490Y-42990017D01*
X154878379Y-42989377D01*
X154363033Y-42778474D01*
X154356674Y-42772169D01*
X154355764Y-42767646D01*
X154355764Y-42633353D01*
X154359191Y-42625080D01*
X154363033Y-42622525D01*
X154878380Y-42411622D01*
X154887333Y-42411660D01*
G37*
%TD.AperFunction*%
%TD*%
%TA.AperFunction,Conductor*%
%TO.N,Board_0-+1V1*%
G36*
X149132169Y-51848048D02*
G01*
X149251264Y-51990883D01*
X149344752Y-52103007D01*
X149347418Y-52111556D01*
X149344752Y-52117993D01*
X149132171Y-52372950D01*
X149124241Y-52377109D01*
X149118277Y-52376078D01*
X148766792Y-52213638D01*
X148760719Y-52207056D01*
X148760000Y-52203017D01*
X148760000Y-52017982D01*
X148763427Y-52009709D01*
X148766792Y-52007361D01*
X149118279Y-51844920D01*
X149127224Y-51844561D01*
X149132169Y-51848048D01*
G37*
%TD.AperFunction*%
%TD*%
%TA.AperFunction,Conductor*%
%TO.N,Board_0-GND*%
G36*
X161848452Y-41609691D02*
G01*
X161851702Y-41615937D01*
X161942259Y-42130739D01*
X161940317Y-42139481D01*
X161933056Y-42144234D01*
X161652320Y-42201030D01*
X161647680Y-42201030D01*
X161366943Y-42144234D01*
X161359514Y-42139234D01*
X161357740Y-42130739D01*
X161448298Y-41615937D01*
X161453106Y-41608383D01*
X161459821Y-41606264D01*
X161840179Y-41606264D01*
X161848452Y-41609691D01*
G37*
%TD.AperFunction*%
%TD*%
%TA.AperFunction,Conductor*%
%TO.N,Board_0-/SX1261_NRESET*%
G36*
X143350238Y-55950350D02*
G01*
X143358464Y-55953885D01*
X143361782Y-55961863D01*
X143363039Y-56040723D01*
X143359744Y-56049049D01*
X143352802Y-56052517D01*
X142929259Y-56105857D01*
X142923251Y-56105030D01*
X142860928Y-56078750D01*
X142809956Y-56057256D01*
X142803665Y-56050885D01*
X142803722Y-56041930D01*
X142806227Y-56038206D01*
X142896510Y-55947923D01*
X142904782Y-55944497D01*
X142904805Y-55944497D01*
X143350238Y-55950350D01*
G37*
%TD.AperFunction*%
%TD*%
%TA.AperFunction,Conductor*%
%TO.N,Board_0-Net-(U1-USB_DM)*%
G36*
X153859207Y-56913036D02*
G01*
X154084160Y-57167755D01*
X154087068Y-57176225D01*
X154084160Y-57183245D01*
X153859207Y-57437963D01*
X153851162Y-57441896D01*
X153844099Y-57440052D01*
X153555362Y-57253955D01*
X153550264Y-57246593D01*
X153550000Y-57244121D01*
X153550000Y-57106878D01*
X153553427Y-57098605D01*
X153555362Y-57097044D01*
X153844101Y-56910946D01*
X153852909Y-56909345D01*
X153859207Y-56913036D01*
G37*
%TD.AperFunction*%
%TD*%
%TA.AperFunction,Conductor*%
%TO.N,Board_0-+3V3*%
G36*
X149756719Y-63459920D02*
G01*
X150115000Y-63625500D01*
X150115000Y-63825500D01*
X150063569Y-63849268D01*
X149756722Y-63991078D01*
X149747775Y-63991438D01*
X149742829Y-63987951D01*
X149530246Y-63732991D01*
X149527581Y-63724444D01*
X149530246Y-63718008D01*
X149742830Y-63463047D01*
X149750758Y-63458890D01*
X149756719Y-63459920D01*
G37*
%TD.AperFunction*%
%TD*%
%TA.AperFunction,Conductor*%
%TO.N,Board_0-GND*%
G36*
X150885642Y-62404918D02*
G01*
X151454273Y-62572394D01*
X151461239Y-62578018D01*
X151462373Y-62586217D01*
X151402187Y-62850291D01*
X151397008Y-62857596D01*
X151396286Y-62858014D01*
X151102200Y-63014863D01*
X151093288Y-63015733D01*
X151088527Y-63012918D01*
X150874174Y-62803944D01*
X150870642Y-62795715D01*
X150870641Y-62795566D01*
X150870641Y-62416142D01*
X150874068Y-62407869D01*
X150882341Y-62404442D01*
X150885642Y-62404918D01*
G37*
%TD.AperFunction*%
%TD*%
%TA.AperFunction,Conductor*%
%TO.N,Board_0-GND*%
G36*
X163516356Y-54123743D02*
G01*
X163519248Y-54126667D01*
X163696427Y-54383863D01*
X163698298Y-54392620D01*
X163696427Y-54397137D01*
X163519248Y-54654332D01*
X163511733Y-54659201D01*
X163507620Y-54659224D01*
X163119707Y-54592177D01*
X163112139Y-54587391D01*
X163110000Y-54580648D01*
X163110000Y-54200351D01*
X163113427Y-54192078D01*
X163119706Y-54188822D01*
X163507621Y-54121775D01*
X163516356Y-54123743D01*
G37*
%TD.AperFunction*%
%TD*%
%TA.AperFunction,Conductor*%
%TO.N,Board_0-/INT_BAT*%
G36*
X146427299Y-71252279D02*
G01*
X146854123Y-71445382D01*
X146860248Y-71451915D01*
X146859960Y-71460865D01*
X146859040Y-71462524D01*
X146702704Y-71697435D01*
X146695268Y-71702424D01*
X146695209Y-71702436D01*
X146416588Y-71756910D01*
X146407811Y-71755134D01*
X146403013Y-71748345D01*
X146278764Y-71265857D01*
X146280019Y-71256990D01*
X146287176Y-71251609D01*
X146290094Y-71251239D01*
X146422476Y-71251239D01*
X146427299Y-71252279D01*
G37*
%TD.AperFunction*%
%TD*%
%TA.AperFunction,Conductor*%
%TO.N,Board_0-/SCL0*%
G36*
X159987785Y-60461156D02*
G01*
X159993716Y-60467865D01*
X159994120Y-60469350D01*
X160050530Y-60748180D01*
X160050530Y-60752820D01*
X159994210Y-61031206D01*
X159989210Y-61038635D01*
X159980422Y-61040354D01*
X159978574Y-61039818D01*
X159463296Y-60843371D01*
X159456786Y-60837222D01*
X159455764Y-60832439D01*
X159455764Y-60648848D01*
X159459191Y-60640575D01*
X159463656Y-60637785D01*
X159978847Y-60460606D01*
X159987785Y-60461156D01*
G37*
%TD.AperFunction*%
%TD*%
%TA.AperFunction,Conductor*%
%TO.N,Board_0-Net-(J5-CC1)*%
G36*
X149019062Y-35337031D02*
G01*
X149243772Y-35582602D01*
X149246829Y-35591018D01*
X149243772Y-35598398D01*
X149019062Y-35843968D01*
X149010948Y-35847759D01*
X149005611Y-35846731D01*
X148666881Y-35693610D01*
X148660753Y-35687080D01*
X148660000Y-35682949D01*
X148660000Y-35498050D01*
X148663427Y-35489777D01*
X148666878Y-35487390D01*
X149005613Y-35334267D01*
X149014561Y-35333982D01*
X149019062Y-35337031D01*
G37*
%TD.AperFunction*%
%TD*%
%TA.AperFunction,Conductor*%
%TO.N,Board_0-/SX1303_GPIO8*%
G36*
X144473362Y-54478927D02*
G01*
X144476630Y-54485277D01*
X144499592Y-54623057D01*
X144499382Y-54627896D01*
X144411331Y-54969978D01*
X144405950Y-54977136D01*
X144397084Y-54978393D01*
X144389926Y-54973012D01*
X144388669Y-54969979D01*
X144300617Y-54627897D01*
X144300407Y-54623057D01*
X144323370Y-54485277D01*
X144328110Y-54477679D01*
X144334911Y-54475500D01*
X144465089Y-54475500D01*
X144473362Y-54478927D01*
G37*
%TD.AperFunction*%
%TD*%
%TA.AperFunction,Conductor*%
%TO.N,Board_0-/V_LOAD*%
G36*
X128760209Y-64681529D02*
G01*
X128761258Y-64684062D01*
X129243604Y-66391801D01*
X129242555Y-66400694D01*
X129241266Y-66402551D01*
X128828504Y-66888970D01*
X128820538Y-66893061D01*
X128819583Y-66893100D01*
X128680415Y-66893100D01*
X128672142Y-66889673D01*
X128671494Y-66888970D01*
X128258731Y-66402551D01*
X128255991Y-66394026D01*
X128256393Y-66391801D01*
X128738740Y-64684062D01*
X128744286Y-64677032D01*
X128753179Y-64675983D01*
X128760209Y-64681529D01*
G37*
%TD.AperFunction*%
%TD*%
%TA.AperFunction,Conductor*%
%TO.N,Board_0-/VDD*%
G36*
X161907115Y-56577478D02*
G01*
X161912667Y-56584504D01*
X161912800Y-56585017D01*
X162030138Y-57084366D01*
X162028694Y-57093203D01*
X162027021Y-57095315D01*
X161897199Y-57225137D01*
X161888926Y-57228564D01*
X161882149Y-57226402D01*
X161529261Y-56975671D01*
X161524502Y-56968085D01*
X161525050Y-56962114D01*
X161637241Y-56655402D01*
X161643301Y-56648809D01*
X161645030Y-56648167D01*
X161898223Y-56576436D01*
X161907115Y-56577478D01*
G37*
%TD.AperFunction*%
%TD*%
%TA.AperFunction,Conductor*%
%TO.N,Board_0-+1V1*%
G36*
X148254789Y-63150469D02*
G01*
X148533975Y-63206951D01*
X148541404Y-63211951D01*
X148543309Y-63219455D01*
X148500948Y-63696182D01*
X148496802Y-63704119D01*
X148489294Y-63706846D01*
X148305764Y-63706846D01*
X148297491Y-63703419D01*
X148296487Y-63702275D01*
X148008154Y-63327055D01*
X148005830Y-63318407D01*
X148010302Y-63310649D01*
X148010877Y-63310234D01*
X148245943Y-63152226D01*
X148254720Y-63150456D01*
X148254789Y-63150469D01*
G37*
%TD.AperFunction*%
%TD*%
%TA.AperFunction,Conductor*%
%TO.N,Board_0-/INT_BAT*%
G36*
X164498757Y-57758627D02*
G01*
X164501939Y-57764516D01*
X164531765Y-57907835D01*
X164531343Y-57914113D01*
X164411033Y-58254943D01*
X164405048Y-58261604D01*
X164396106Y-58262082D01*
X164389445Y-58256097D01*
X164388967Y-58254944D01*
X164268656Y-57914114D01*
X164268234Y-57907837D01*
X164298061Y-57764515D01*
X164303102Y-57757115D01*
X164309516Y-57755200D01*
X164490484Y-57755200D01*
X164498757Y-57758627D01*
G37*
%TD.AperFunction*%
%TD*%
%TA.AperFunction,Conductor*%
%TO.N,Board_0-GND*%
G36*
X142938592Y-62488927D02*
G01*
X142941812Y-62495011D01*
X143018484Y-62897546D01*
X143016666Y-62906314D01*
X143013089Y-62909720D01*
X142746098Y-63072775D01*
X142737251Y-63074163D01*
X142733902Y-63072775D01*
X142466910Y-62909720D01*
X142461635Y-62902484D01*
X142461515Y-62897546D01*
X142538188Y-62495011D01*
X142543102Y-62487525D01*
X142549681Y-62485500D01*
X142930319Y-62485500D01*
X142938592Y-62488927D01*
G37*
%TD.AperFunction*%
%TD*%
%TA.AperFunction,Conductor*%
%TO.N,Board_0-GND*%
G36*
X159555405Y-37769451D02*
G01*
X159560377Y-37774423D01*
X159847708Y-38326100D01*
X159848490Y-38335021D01*
X159848431Y-38335205D01*
X159752667Y-38622500D01*
X159746799Y-38629265D01*
X159741567Y-38630500D01*
X159358433Y-38630500D01*
X159350160Y-38627073D01*
X159347333Y-38622500D01*
X159251568Y-38335205D01*
X159252203Y-38326273D01*
X159252263Y-38326154D01*
X159539623Y-37774422D01*
X159546484Y-37768669D01*
X159555405Y-37769451D01*
G37*
%TD.AperFunction*%
%TD*%
%TA.AperFunction,Conductor*%
%TO.N,Board_0-/HOST_MOSI*%
G36*
X148073362Y-54478927D02*
G01*
X148076630Y-54485277D01*
X148099592Y-54623057D01*
X148099382Y-54627896D01*
X148011331Y-54969978D01*
X148005950Y-54977136D01*
X147997084Y-54978393D01*
X147989926Y-54973012D01*
X147988669Y-54969979D01*
X147900869Y-54628875D01*
X147900500Y-54625958D01*
X147900500Y-54623469D01*
X147900659Y-54621546D01*
X147923370Y-54485277D01*
X147928110Y-54477679D01*
X147934911Y-54475500D01*
X148065089Y-54475500D01*
X148073362Y-54478927D01*
G37*
%TD.AperFunction*%
%TD*%
%TA.AperFunction,Conductor*%
%TO.N,Board_0-/SX1303_RESET*%
G36*
X142457743Y-53376338D02*
G01*
X142665268Y-53559611D01*
X142712463Y-53601291D01*
X142716396Y-53609336D01*
X142714552Y-53616399D01*
X142528456Y-53905138D01*
X142521094Y-53910236D01*
X142518622Y-53910500D01*
X142381378Y-53910500D01*
X142373105Y-53907073D01*
X142371544Y-53905138D01*
X142185447Y-53616399D01*
X142183845Y-53607589D01*
X142187535Y-53601292D01*
X142442256Y-53376338D01*
X142450725Y-53373431D01*
X142457743Y-53376338D01*
G37*
%TD.AperFunction*%
%TD*%
%TA.AperFunction,Conductor*%
%TO.N,Board_0-GND*%
G36*
X149448452Y-36659691D02*
G01*
X149451702Y-36665937D01*
X149542259Y-37180739D01*
X149540317Y-37189481D01*
X149533056Y-37194234D01*
X149252320Y-37251030D01*
X149247680Y-37251030D01*
X148966943Y-37194234D01*
X148959514Y-37189234D01*
X148957740Y-37180739D01*
X149048298Y-36665937D01*
X149053106Y-36658383D01*
X149059821Y-36656264D01*
X149440179Y-36656264D01*
X149448452Y-36659691D01*
G37*
%TD.AperFunction*%
%TD*%
%TA.AperFunction,Conductor*%
%TO.N,Board_0-/SX1261_DIO1*%
G36*
X143071518Y-68561363D02*
G01*
X143500975Y-68729941D01*
X143504973Y-68732559D01*
X143632954Y-68860540D01*
X143636381Y-68868813D01*
X143632954Y-68877086D01*
X143629713Y-68879376D01*
X143175778Y-69095603D01*
X143166835Y-69096067D01*
X143161039Y-69091572D01*
X143002018Y-68855256D01*
X143000242Y-68846480D01*
X143055778Y-68569949D01*
X143060766Y-68562516D01*
X143069552Y-68560785D01*
X143071518Y-68561363D01*
G37*
%TD.AperFunction*%
%TD*%
%TA.AperFunction,Conductor*%
%TO.N,Board_0-/VPHONE*%
G36*
X162689601Y-34860380D02*
G01*
X162847981Y-35095743D01*
X162849757Y-35104520D01*
X162849745Y-35104579D01*
X162793973Y-35382286D01*
X162788984Y-35389722D01*
X162780198Y-35391453D01*
X162779269Y-35391227D01*
X162371623Y-35274034D01*
X162366583Y-35271062D01*
X162237772Y-35142251D01*
X162234345Y-35133978D01*
X162237772Y-35125705D01*
X162239904Y-35124020D01*
X162673762Y-34856947D01*
X162682602Y-34855530D01*
X162689601Y-34860380D01*
G37*
%TD.AperFunction*%
%TD*%
%TA.AperFunction,Conductor*%
%TO.N,Board_0-+3V3*%
G36*
X149502905Y-63168927D02*
G01*
X149503501Y-63169569D01*
X149745645Y-63450979D01*
X149748443Y-63459485D01*
X149745700Y-63466176D01*
X149531662Y-63718641D01*
X149523699Y-63722736D01*
X149516362Y-63720885D01*
X149232329Y-63536261D01*
X149227260Y-63528879D01*
X149227239Y-63524125D01*
X149242080Y-63450979D01*
X149298098Y-63174873D01*
X149303101Y-63167447D01*
X149309564Y-63165500D01*
X149494632Y-63165500D01*
X149502905Y-63168927D01*
G37*
%TD.AperFunction*%
%TD*%
%TA.AperFunction,Conductor*%
%TO.N,Board_0-+3V3*%
G36*
X149602326Y-55672174D02*
G01*
X149624000Y-55724500D01*
X149624000Y-60825500D01*
X149275000Y-60825500D01*
X149275000Y-61275500D01*
X144049000Y-61275500D01*
X143996674Y-61253826D01*
X143975000Y-61201500D01*
X143975000Y-59409605D01*
X144199500Y-59409605D01*
X144199500Y-59541394D01*
X144233606Y-59668681D01*
X144233610Y-59668690D01*
X144299500Y-59782814D01*
X144396116Y-59879430D01*
X144394079Y-59881466D01*
X144417860Y-59922589D01*
X144418500Y-59932300D01*
X144418500Y-60576500D01*
X144421029Y-60608640D01*
X144425879Y-60639262D01*
X144426646Y-60643779D01*
X144426650Y-60643792D01*
X144462591Y-60727882D01*
X144466575Y-60733366D01*
X144498556Y-60777383D01*
X144512441Y-60793275D01*
X144521264Y-60803374D01*
X144522797Y-60805128D01*
X144601307Y-60852036D01*
X144659498Y-60870943D01*
X144714673Y-60879681D01*
X144722999Y-60881000D01*
X144723000Y-60881000D01*
X146792034Y-60881000D01*
X146844360Y-60902674D01*
X146892686Y-60951000D01*
X147006814Y-61016892D01*
X147134105Y-61050999D01*
X147134106Y-61051000D01*
X147134108Y-61051000D01*
X147265894Y-61051000D01*
X147265894Y-61050999D01*
X147393186Y-61016892D01*
X147507314Y-60951000D01*
X147555640Y-60902674D01*
X147607966Y-60881000D01*
X148925000Y-60881000D01*
X148957144Y-60878470D01*
X148987737Y-60873625D01*
X148992287Y-60872852D01*
X149076383Y-60836908D01*
X149125883Y-60800944D01*
X149153628Y-60776703D01*
X149200536Y-60698193D01*
X149219443Y-60640002D01*
X149229500Y-60576500D01*
X149229500Y-59209466D01*
X149251174Y-59157140D01*
X149266536Y-59141778D01*
X149300500Y-59107814D01*
X149366392Y-58993686D01*
X149400499Y-58866394D01*
X149400500Y-58866394D01*
X149400500Y-58734606D01*
X149400499Y-58734605D01*
X149380169Y-58658733D01*
X149366392Y-58607314D01*
X149300500Y-58493186D01*
X149251174Y-58443860D01*
X149229500Y-58391534D01*
X149229500Y-56374499D01*
X149226970Y-56342359D01*
X149226878Y-56341778D01*
X149222125Y-56311763D01*
X149221352Y-56307213D01*
X149185408Y-56223117D01*
X149149444Y-56173617D01*
X149125203Y-56145872D01*
X149046693Y-56098964D01*
X148988507Y-56080058D01*
X148988503Y-56080057D01*
X148988502Y-56080057D01*
X148940969Y-56072529D01*
X148925001Y-56070000D01*
X148925000Y-56070000D01*
X148407568Y-56070000D01*
X148355242Y-56048326D01*
X148352406Y-56045092D01*
X148257314Y-55950000D01*
X148143190Y-55884110D01*
X148143181Y-55884106D01*
X148015894Y-55850000D01*
X148015892Y-55850000D01*
X147884108Y-55850000D01*
X147884106Y-55850000D01*
X147756818Y-55884106D01*
X147756809Y-55884110D01*
X147642685Y-55950000D01*
X147546070Y-56046616D01*
X147544395Y-56044941D01*
X147502094Y-56069366D01*
X147492432Y-56070000D01*
X144723000Y-56070000D01*
X144690859Y-56072529D01*
X144660237Y-56077379D01*
X144655720Y-56078146D01*
X144655707Y-56078150D01*
X144571617Y-56114091D01*
X144522121Y-56150052D01*
X144494372Y-56174296D01*
X144447464Y-56252806D01*
X144428558Y-56310992D01*
X144418500Y-56374499D01*
X144418500Y-59018700D01*
X144396826Y-59071026D01*
X144395483Y-59072203D01*
X144299500Y-59168185D01*
X144233610Y-59282309D01*
X144233606Y-59282318D01*
X144199500Y-59409605D01*
X143975000Y-59409605D01*
X143975000Y-55724500D01*
X143996674Y-55672174D01*
X144049000Y-55650500D01*
X149550000Y-55650500D01*
X149602326Y-55672174D01*
G37*
%TD.AperFunction*%
%TD*%
%TA.AperFunction,Conductor*%
%TO.N,Board_0-/XOUT*%
G36*
X141811294Y-58079058D02*
G01*
X141817069Y-58082214D01*
X141912602Y-58177747D01*
X141916029Y-58186020D01*
X141912767Y-58194125D01*
X141610930Y-58508389D01*
X141602728Y-58511982D01*
X141595767Y-58509858D01*
X141468933Y-58420774D01*
X141343224Y-58332480D01*
X141338425Y-58324922D01*
X141339932Y-58316863D01*
X141517334Y-58022946D01*
X141524541Y-58017636D01*
X141529845Y-58017564D01*
X141811294Y-58079058D01*
G37*
%TD.AperFunction*%
%TD*%
%TA.AperFunction,Conductor*%
%TO.N,Board_0-+3V3*%
G36*
X149852397Y-59951117D02*
G01*
X150194479Y-60039169D01*
X150201636Y-60044550D01*
X150202893Y-60053417D01*
X150197512Y-60060574D01*
X150194478Y-60061831D01*
X149852396Y-60149882D01*
X149847557Y-60150092D01*
X149709777Y-60127129D01*
X149702179Y-60122389D01*
X149700000Y-60115588D01*
X149700000Y-59985411D01*
X149703427Y-59977138D01*
X149709775Y-59973870D01*
X149847557Y-59950907D01*
X149852397Y-59951117D01*
G37*
%TD.AperFunction*%
%TD*%
%TA.AperFunction,Conductor*%
%TO.N,Board_0-/V_EN*%
G36*
X155088173Y-66647481D02*
G01*
X155195296Y-66752088D01*
X155198821Y-66760320D01*
X155198399Y-66763578D01*
X155157373Y-66911919D01*
X155151865Y-66918979D01*
X155146096Y-66920500D01*
X155013904Y-66920500D01*
X155005631Y-66917073D01*
X155002627Y-66911919D01*
X154985503Y-66850006D01*
X154986601Y-66841119D01*
X154987039Y-66840406D01*
X154990240Y-66835617D01*
X155005500Y-66758901D01*
X155005499Y-66717175D01*
X155008925Y-66708905D01*
X155071828Y-66647479D01*
X155080138Y-66644153D01*
X155088173Y-66647481D01*
G37*
%TD.AperFunction*%
%TD*%
%TA.AperFunction,Conductor*%
%TO.N,Board_0-/~{USB_BOOT}*%
G36*
X155352477Y-54311784D02*
G01*
X155355085Y-54313748D01*
X155485125Y-54443788D01*
X155488552Y-54452061D01*
X155486845Y-54458147D01*
X155235487Y-54870887D01*
X155228257Y-54876170D01*
X155220471Y-54875368D01*
X154965253Y-54754040D01*
X154959252Y-54747393D01*
X154958634Y-54744641D01*
X154928080Y-54440215D01*
X154930664Y-54431641D01*
X154936490Y-54427802D01*
X155343580Y-54310776D01*
X155352477Y-54311784D01*
G37*
%TD.AperFunction*%
%TD*%
%TA.AperFunction,Conductor*%
%TO.N,Board_0-GND*%
G36*
X140633457Y-56256846D02*
G01*
X140640886Y-56261846D01*
X140642726Y-56269920D01*
X140571399Y-56784642D01*
X140566869Y-56792366D01*
X140559810Y-56794736D01*
X140179468Y-56794736D01*
X140171195Y-56791309D01*
X140168025Y-56785476D01*
X140058229Y-56270588D01*
X140059855Y-56261784D01*
X140067232Y-56256707D01*
X140067247Y-56256703D01*
X140347682Y-56199969D01*
X140352318Y-56199969D01*
X140633457Y-56256846D01*
G37*
%TD.AperFunction*%
%TD*%
%TA.AperFunction,Conductor*%
%TO.N,Board_0-Net-(J7-CC2)*%
G36*
X161010091Y-37795004D02*
G01*
X161011322Y-37797976D01*
X161148892Y-38326247D01*
X161148035Y-38334428D01*
X161078234Y-38474032D01*
X161071469Y-38479900D01*
X161067769Y-38480500D01*
X160932231Y-38480500D01*
X160923958Y-38477073D01*
X160921766Y-38474032D01*
X160851964Y-38334428D01*
X160851107Y-38326248D01*
X160988678Y-37797975D01*
X160994079Y-37790834D01*
X161002949Y-37789603D01*
X161010091Y-37795004D01*
G37*
%TD.AperFunction*%
%TD*%
%TA.AperFunction,Conductor*%
%TO.N,Board_0-/USB_D+*%
G36*
X155401535Y-55990523D02*
G01*
X155639384Y-56242117D01*
X155642582Y-56250155D01*
X155642582Y-56556119D01*
X155639155Y-56564392D01*
X155630882Y-56567819D01*
X155628502Y-56567574D01*
X155169614Y-56472216D01*
X155162211Y-56467178D01*
X155160373Y-56462117D01*
X155135632Y-56250155D01*
X155124864Y-56157905D01*
X155127308Y-56149293D01*
X155130348Y-56146590D01*
X155386899Y-55988598D01*
X155395739Y-55987178D01*
X155401535Y-55990523D01*
G37*
%TD.AperFunction*%
%TD*%
%TA.AperFunction,Conductor*%
%TO.N,Board_0-/USB_D+*%
G36*
X161955368Y-47594606D02*
G01*
X161960396Y-47599634D01*
X162237010Y-48135371D01*
X162237761Y-48144295D01*
X162237578Y-48144824D01*
X162115337Y-48472885D01*
X162109237Y-48479441D01*
X162104373Y-48480500D01*
X161795627Y-48480500D01*
X161787354Y-48477073D01*
X161784663Y-48472885D01*
X161728712Y-48322731D01*
X161662421Y-48144822D01*
X161662744Y-48135875D01*
X161662970Y-48135408D01*
X161939604Y-47599633D01*
X161946444Y-47593855D01*
X161955368Y-47594606D01*
G37*
%TD.AperFunction*%
%TD*%
%TA.AperFunction,Conductor*%
%TO.N,Board_0-/V_LOAD*%
G36*
X167458239Y-59752373D02*
G01*
X167944013Y-60234287D01*
X167947473Y-60242546D01*
X167946258Y-60247784D01*
X167703222Y-60738691D01*
X167696481Y-60744585D01*
X167692737Y-60745200D01*
X167207263Y-60745200D01*
X167198990Y-60741773D01*
X167196778Y-60738691D01*
X166953741Y-60247784D01*
X166953141Y-60238849D01*
X166955983Y-60234291D01*
X167441760Y-59752373D01*
X167450047Y-59748980D01*
X167458239Y-59752373D01*
G37*
%TD.AperFunction*%
%TD*%
%TA.AperFunction,Conductor*%
%TO.N,Board_0-+3V3*%
G36*
X158826187Y-62163927D02*
G01*
X158828283Y-62166779D01*
X159005554Y-62505861D01*
X159006350Y-62514781D01*
X159003083Y-62519914D01*
X158757898Y-62744272D01*
X158749482Y-62747329D01*
X158742102Y-62744272D01*
X158496916Y-62519914D01*
X158493125Y-62511800D01*
X158494444Y-62505865D01*
X158671717Y-62166778D01*
X158678587Y-62161035D01*
X158682086Y-62160500D01*
X158817914Y-62160500D01*
X158826187Y-62163927D01*
G37*
%TD.AperFunction*%
%TD*%
%TA.AperFunction,Conductor*%
%TO.N,Board_0-/SDA0*%
G36*
X159898149Y-62176812D02*
G01*
X160028359Y-62307022D01*
X160031780Y-62314911D01*
X160039789Y-62559093D01*
X160036635Y-62567474D01*
X160034714Y-62569125D01*
X159779979Y-62743876D01*
X159771218Y-62745730D01*
X159763712Y-62740847D01*
X159763088Y-62739830D01*
X159602737Y-62445803D01*
X159601785Y-62436899D01*
X159605080Y-62431598D01*
X159881949Y-62176480D01*
X159890354Y-62173395D01*
X159898149Y-62176812D01*
G37*
%TD.AperFunction*%
%TD*%
%TA.AperFunction,Conductor*%
%TO.N,Board_0-/QSPI_SS*%
G36*
X153682552Y-54680688D02*
G01*
X153934969Y-54748257D01*
X153942075Y-54753707D01*
X153942853Y-54755329D01*
X154061639Y-55061665D01*
X154061435Y-55070618D01*
X154057135Y-55075686D01*
X153700070Y-55309246D01*
X153691270Y-55310907D01*
X153685392Y-55307728D01*
X153590262Y-55212598D01*
X153586835Y-55204325D01*
X153586978Y-55202505D01*
X153667971Y-54690162D01*
X153672647Y-54682527D01*
X153681354Y-54680434D01*
X153682552Y-54680688D01*
G37*
%TD.AperFunction*%
%TD*%
%TA.AperFunction,Conductor*%
%TO.N,Board_0-GND*%
G36*
X139256711Y-54550462D02*
G01*
X139288851Y-54575438D01*
X139807642Y-55107091D01*
X139845384Y-55174352D01*
X139850000Y-55211151D01*
X139850000Y-57024746D01*
X139830038Y-57099246D01*
X139775500Y-57153784D01*
X139701000Y-57173746D01*
X139632694Y-57157167D01*
X139612058Y-57146522D01*
X139590562Y-57125026D01*
X139590561Y-57125025D01*
X139504937Y-57075590D01*
X139457185Y-57062795D01*
X139441696Y-57058644D01*
X139441693Y-57058643D01*
X139409435Y-57050000D01*
X139409434Y-57050000D01*
X139397328Y-57050000D01*
X139322828Y-57030038D01*
X139308353Y-57020517D01*
X139109059Y-56872138D01*
X139096984Y-56865617D01*
X139079309Y-56854400D01*
X139028159Y-56816649D01*
X139028157Y-56816648D01*
X138902819Y-56772790D01*
X138902816Y-56772789D01*
X138902814Y-56772789D01*
X138873074Y-56770000D01*
X138873066Y-56770000D01*
X138426934Y-56770000D01*
X138426925Y-56770000D01*
X138397185Y-56772789D01*
X138397182Y-56772789D01*
X138397181Y-56772790D01*
X138271843Y-56816648D01*
X138271839Y-56816650D01*
X138218762Y-56855821D01*
X138195808Y-56869754D01*
X138190944Y-56872135D01*
X137975754Y-57032349D01*
X137925340Y-57056757D01*
X137855064Y-57075588D01*
X137769436Y-57125025D01*
X137707103Y-57187359D01*
X137640308Y-57225923D01*
X137601744Y-57231000D01*
X135827976Y-57231000D01*
X135753476Y-57211038D01*
X135698938Y-57156500D01*
X135684738Y-57123035D01*
X135451261Y-56308058D01*
X135445499Y-56267023D01*
X135445499Y-55835633D01*
X135442585Y-55810510D01*
X135442584Y-55810508D01*
X135397206Y-55707735D01*
X135317765Y-55628294D01*
X135317764Y-55628293D01*
X135214994Y-55582916D01*
X135214991Y-55582915D01*
X135214982Y-55582914D01*
X135189865Y-55580000D01*
X135189859Y-55580000D01*
X133900133Y-55580000D01*
X133875010Y-55582914D01*
X133875007Y-55582915D01*
X133772235Y-55628293D01*
X133692793Y-55707735D01*
X133647416Y-55810505D01*
X133647415Y-55810508D01*
X133647415Y-55810509D01*
X133644500Y-55835635D01*
X133644500Y-55835636D01*
X133644500Y-55835640D01*
X133644500Y-57325366D01*
X133647414Y-57350489D01*
X133647415Y-57350492D01*
X133692793Y-57453264D01*
X133692794Y-57453265D01*
X133772235Y-57532706D01*
X133875009Y-57578085D01*
X133900135Y-57581000D01*
X134278280Y-57580999D01*
X134328809Y-57589828D01*
X135030061Y-57842617D01*
X135070150Y-57864511D01*
X135077948Y-57870485D01*
X135114437Y-57906975D01*
X135151218Y-57928210D01*
X135200062Y-57956410D01*
X135225582Y-57963248D01*
X135234066Y-57965521D01*
X135267984Y-57985103D01*
X135300847Y-58004072D01*
X135300851Y-58004079D01*
X135300859Y-58004084D01*
X135319822Y-58036930D01*
X135339419Y-58070863D01*
X135339420Y-58070874D01*
X135339423Y-58070879D01*
X135339423Y-58070893D01*
X135344500Y-58109443D01*
X135344500Y-59525366D01*
X135347414Y-59550489D01*
X135347415Y-59550492D01*
X135392793Y-59653264D01*
X135392794Y-59653265D01*
X135472235Y-59732706D01*
X135575009Y-59778085D01*
X135600135Y-59781000D01*
X136889864Y-59780999D01*
X136889866Y-59780999D01*
X136902427Y-59779542D01*
X136914991Y-59778085D01*
X137017765Y-59732706D01*
X137097206Y-59653265D01*
X137142585Y-59550491D01*
X137145500Y-59525365D01*
X137145499Y-59296612D01*
X137165461Y-59222113D01*
X137170708Y-59213686D01*
X137567128Y-58622058D01*
X137592535Y-58599835D01*
X137616409Y-58575962D01*
X137621339Y-58574640D01*
X137625181Y-58571281D01*
X137690909Y-58556000D01*
X137900070Y-58556000D01*
X137974570Y-58575962D01*
X137987839Y-58584594D01*
X138009407Y-58600316D01*
X138188445Y-58730825D01*
X138188448Y-58730826D01*
X138188450Y-58730828D01*
X138199522Y-58736699D01*
X138218197Y-58748449D01*
X138266843Y-58784352D01*
X138392181Y-58828210D01*
X138421934Y-58831000D01*
X138421942Y-58831000D01*
X138868058Y-58831000D01*
X138868066Y-58831000D01*
X138897819Y-58828210D01*
X139023157Y-58784352D01*
X139073539Y-58747166D01*
X139075625Y-58745657D01*
X139086157Y-58738167D01*
X139101553Y-58730825D01*
X139302849Y-58584090D01*
X139303585Y-58583568D01*
X139338892Y-58570426D01*
X139374120Y-58556841D01*
X139375608Y-58556761D01*
X139375869Y-58556665D01*
X139376242Y-58556728D01*
X139389928Y-58556000D01*
X139580102Y-58556000D01*
X139654602Y-58575962D01*
X139686131Y-58600316D01*
X139763640Y-58678821D01*
X139789341Y-58713876D01*
X139790616Y-58716288D01*
X139790617Y-58716290D01*
X139790619Y-58716294D01*
X139820886Y-58757304D01*
X139849063Y-58829098D01*
X139850000Y-58845781D01*
X139850000Y-59365400D01*
X139830038Y-59439900D01*
X139808301Y-59468780D01*
X138730899Y-60587049D01*
X138471778Y-60856000D01*
X138443953Y-60884880D01*
X138377888Y-60924680D01*
X138336652Y-60930500D01*
X133094000Y-60930500D01*
X133019500Y-60910538D01*
X132964962Y-60856000D01*
X132945000Y-60781500D01*
X132945000Y-54679500D01*
X132964962Y-54605000D01*
X133019500Y-54550462D01*
X133094000Y-54530500D01*
X139182211Y-54530500D01*
X139256711Y-54550462D01*
G37*
%TD.AperFunction*%
%TD*%
%TA.AperFunction,Conductor*%
%TO.N,Board_0-+3V3*%
G36*
X146903158Y-62541250D02*
G01*
X146916297Y-62551392D01*
X147219720Y-62785592D01*
X147224175Y-62793360D01*
X147222435Y-62801146D01*
X147053469Y-63066061D01*
X147046131Y-63071193D01*
X147043549Y-63071469D01*
X146750800Y-63070066D01*
X146742543Y-63066599D01*
X146739189Y-63059245D01*
X146700947Y-62551392D01*
X146703743Y-62542884D01*
X146711735Y-62538846D01*
X146712614Y-62538813D01*
X146896010Y-62538813D01*
X146903158Y-62541250D01*
G37*
%TD.AperFunction*%
%TD*%
%TA.AperFunction,Conductor*%
%TO.N,Board_0-GND*%
G36*
X145550389Y-52453927D02*
G01*
X145552960Y-52457807D01*
X145626722Y-52639884D01*
X145626652Y-52648838D01*
X145623177Y-52653421D01*
X145357299Y-52865673D01*
X145348696Y-52868156D01*
X145342701Y-52865673D01*
X145076822Y-52653421D01*
X145072494Y-52645581D01*
X145073276Y-52639886D01*
X145147040Y-52457807D01*
X145153323Y-52451426D01*
X145157884Y-52450500D01*
X145542116Y-52450500D01*
X145550389Y-52453927D01*
G37*
%TD.AperFunction*%
%TD*%
%TA.AperFunction,Conductor*%
%TO.N,Board_0-GND*%
G36*
X140568592Y-56263927D02*
G01*
X140571812Y-56270011D01*
X140648484Y-56672546D01*
X140646666Y-56681314D01*
X140643089Y-56684720D01*
X140376098Y-56847775D01*
X140367251Y-56849163D01*
X140363902Y-56847775D01*
X140096910Y-56684720D01*
X140091635Y-56677484D01*
X140091515Y-56672546D01*
X140168188Y-56270011D01*
X140173102Y-56262525D01*
X140179681Y-56260500D01*
X140560319Y-56260500D01*
X140568592Y-56263927D01*
G37*
%TD.AperFunction*%
%TD*%
%TA.AperFunction,Conductor*%
%TO.N,Board_0-/GPS_RX*%
G36*
X147273362Y-54478927D02*
G01*
X147276630Y-54485277D01*
X147299341Y-54621546D01*
X147299500Y-54623469D01*
X147299500Y-54625958D01*
X147299131Y-54628875D01*
X147211330Y-54969979D01*
X147205949Y-54977136D01*
X147197082Y-54978393D01*
X147189925Y-54973012D01*
X147188669Y-54969982D01*
X147100617Y-54627896D01*
X147100407Y-54623057D01*
X147123370Y-54485277D01*
X147128110Y-54477679D01*
X147134911Y-54475500D01*
X147265089Y-54475500D01*
X147273362Y-54478927D01*
G37*
%TD.AperFunction*%
%TD*%
%TA.AperFunction,Conductor*%
%TO.N,Board_0-/SWCLK*%
G36*
X137450001Y-65345600D02*
G01*
X137300001Y-65345600D01*
X137044801Y-65675800D01*
X137375001Y-66451500D01*
X137705201Y-65675800D01*
X137450001Y-65345600D01*
G37*
%TD.AperFunction*%
%TD*%
%TA.AperFunction,Conductor*%
%TO.N,Board_0-/SWD*%
G36*
X138449999Y-65345600D02*
G01*
X138299999Y-65345600D01*
X138044799Y-65675800D01*
X138374999Y-66451500D01*
X138705199Y-65675800D01*
X138449999Y-65345600D01*
G37*
%TD.AperFunction*%
%TD*%
%TA.AperFunction,Conductor*%
%TO.N,Board_0-GND*%
G36*
X139950000Y-66650500D02*
G01*
X139950000Y-66250500D01*
X139705200Y-66120300D01*
X139374000Y-66450500D01*
X139705200Y-66780700D01*
X139950000Y-66650500D01*
G37*
%TD.AperFunction*%
%TD*%
%TA.AperFunction,Conductor*%
%TO.N,Board_0-GND*%
G36*
X136016422Y-65934079D02*
G01*
X135733579Y-66216922D01*
X136044800Y-66615729D01*
X136375707Y-66451207D01*
X136073181Y-65811386D01*
X136016422Y-65934079D01*
G37*
%TD.AperFunction*%
%TD*%
M02*
