%TF.GenerationSoftware,KiCad,Pcbnew,9.0.4-9.0.4-0~ubuntu22.04.1*%
%TF.CreationDate,2025-09-03T15:31:39-04:00*%
%TF.ProjectId,receiver_panel_dualUSB,72656365-6976-4657-925f-70616e656c5f,rev?*%
%TF.SameCoordinates,Original*%
%TF.FileFunction,Profile,NP*%
%FSLAX46Y46*%
G04 Gerber Fmt 4.6, Leading zero omitted, Abs format (unit mm)*
G04 Created by KiCad (PCBNEW 9.0.4-9.0.4-0~ubuntu22.04.1) date 2025-09-03 15:31:39*
%MOMM*%
%LPD*%
G01*
G04 APERTURE LIST*
%TA.AperFunction,Profile*%
%ADD10C,0.100000*%
%TD*%
G04 APERTURE END LIST*
D10*
X171750000Y-73750500D02*
X171750000Y-35000500D01*
X148750000Y-31000500D02*
X129250000Y-31000000D01*
X160665856Y-108745077D02*
X160835072Y-108633553D01*
X162550000Y-79750500D02*
X171750000Y-73750500D01*
X159939221Y-109101508D02*
X160127423Y-109026331D01*
X171729477Y-34595826D02*
X171703873Y-34394788D01*
X128644288Y-109304373D02*
X128845326Y-109329977D01*
X125574168Y-106927923D02*
X125658781Y-107112076D01*
X171744866Y-34797903D02*
X171729477Y-34595826D01*
X170505867Y-32101328D02*
X170355489Y-31965467D01*
X151000000Y-109350500D02*
X158550000Y-109350500D01*
X168947452Y-31183942D02*
X168752610Y-31128191D01*
X158954673Y-109329977D02*
X159155711Y-109304373D01*
X126214967Y-107955989D02*
X126350828Y-108106367D01*
X127860778Y-109101508D02*
X128052547Y-109167057D01*
X168355711Y-31046626D02*
X168154673Y-31021022D01*
X125255133Y-34797903D02*
X125250000Y-35000500D01*
X170198423Y-31837397D02*
X170035072Y-31717446D01*
X158752596Y-109345366D02*
X158954673Y-109329977D01*
X125433442Y-106547952D02*
X125498991Y-106739721D01*
X125966946Y-32715427D02*
X125855422Y-32884643D01*
X125377691Y-106353110D02*
X125433442Y-106547952D01*
X125270522Y-105755173D02*
X125296126Y-105956211D01*
X162550000Y-105350500D02*
X162550000Y-79750500D01*
X125250000Y-28000000D02*
X148750000Y-28000000D01*
X126086897Y-32552076D02*
X125966946Y-32715427D01*
X126350828Y-32244632D02*
X126214967Y-32395010D01*
X171144577Y-32884643D02*
X171033053Y-32715427D01*
X128644288Y-31046626D02*
X128444805Y-31082380D01*
X125250000Y-35000500D02*
X125250000Y-74350500D01*
X125377691Y-33997889D02*
X125331880Y-34195305D01*
X125255133Y-105553096D02*
X125270522Y-105755173D01*
X159552610Y-109222808D02*
X159747452Y-109167057D01*
X171750000Y-28000000D02*
X171750000Y-20000000D01*
X161713102Y-107798923D02*
X161833053Y-107635572D01*
X146000000Y-109350500D02*
X146000000Y-112351500D01*
X125331880Y-34195305D02*
X125296126Y-34394788D01*
X161944577Y-107466356D02*
X162047386Y-107291707D01*
X162422308Y-106353110D02*
X162468119Y-106155694D01*
X162503873Y-105956211D02*
X162529477Y-105755173D01*
X167750000Y-31000500D02*
X152750000Y-31000500D01*
X171750000Y-20000000D02*
X125250000Y-20000000D01*
X171703873Y-34394788D02*
X171668119Y-34195305D01*
X127488423Y-108941718D02*
X127672576Y-109026331D01*
X160835072Y-108633553D02*
X160998423Y-108513602D01*
X161833053Y-107635572D02*
X161944577Y-107466356D01*
X148750000Y-28000000D02*
X148750000Y-31000500D01*
X129047403Y-109345366D02*
X129250000Y-109350500D01*
X151000000Y-112351500D02*
X151000000Y-109350500D01*
X125270522Y-34595826D02*
X125255133Y-34797903D01*
X128550000Y-78150500D02*
X128550000Y-82950500D01*
X128550000Y-82950500D02*
X125250000Y-87752628D01*
X126494132Y-32101328D02*
X126350828Y-32244632D01*
X128845326Y-31021022D02*
X128644288Y-31046626D01*
X162047386Y-107291707D02*
X162141218Y-107112076D01*
X171341218Y-33238923D02*
X171247386Y-33059292D01*
X125658781Y-33238923D02*
X125574168Y-33423076D01*
X171247386Y-33059292D02*
X171144577Y-32884643D01*
X125855422Y-107466356D02*
X125966946Y-107635572D01*
X127308792Y-31503113D02*
X127134143Y-31605922D01*
X152750000Y-31000250D02*
X152750000Y-27999750D01*
X126801576Y-108513602D02*
X126964927Y-108633553D01*
X125658781Y-107112076D02*
X125752613Y-107291707D01*
X171622308Y-33997889D02*
X171566557Y-33803047D01*
X127860778Y-31249491D02*
X127672576Y-31324668D01*
X128444805Y-109268619D02*
X128644288Y-109304373D01*
X125296126Y-105956211D02*
X125331880Y-106155694D01*
X125966946Y-107635572D02*
X126086897Y-107798923D01*
X170355489Y-31965467D02*
X170198423Y-31837397D01*
X125250000Y-87752628D02*
X125250000Y-105350500D01*
X127488423Y-31409281D02*
X127308792Y-31503113D01*
X125433442Y-33803047D02*
X125377691Y-33997889D01*
X125250000Y-74350500D02*
X128550000Y-78150500D01*
X146000000Y-112351500D02*
X125250000Y-112351500D01*
X162468119Y-106155694D02*
X162503873Y-105956211D01*
X127308792Y-108847886D02*
X127488423Y-108941718D01*
X169691207Y-31503113D02*
X169511576Y-31409281D01*
X171750000Y-120351500D02*
X171750000Y-112351500D01*
X168752610Y-31128191D02*
X168555194Y-31082380D01*
X160311576Y-108941718D02*
X160491207Y-108847886D01*
X161155489Y-108385532D02*
X161305867Y-108249671D01*
X171425831Y-33423076D02*
X171341218Y-33238923D01*
X170649171Y-32244632D02*
X170505867Y-32101328D01*
X125752613Y-33059292D02*
X125658781Y-33238923D01*
X169327423Y-31324668D02*
X169139221Y-31249491D01*
X171750000Y-112351500D02*
X151000000Y-112351500D01*
X126214967Y-32395010D02*
X126086897Y-32552076D01*
X162301008Y-106739721D02*
X162366557Y-106547952D01*
X171501008Y-33611278D02*
X171425831Y-33423076D01*
X159355194Y-109268619D02*
X159552610Y-109222808D01*
X160998423Y-108513602D02*
X161155489Y-108385532D01*
X128052547Y-109167057D02*
X128247389Y-109222808D01*
X161449171Y-108106367D02*
X161585032Y-107955989D01*
X126644510Y-108385532D02*
X126801576Y-108513602D01*
X125498991Y-106739721D02*
X125574168Y-106927923D01*
X126086897Y-107798923D02*
X126214967Y-107955989D01*
X125250000Y-105350500D02*
X125255133Y-105553096D01*
X169511576Y-31409281D02*
X169327423Y-31324668D01*
X125752613Y-107291707D02*
X125855422Y-107466356D01*
X159155711Y-109304373D02*
X159355194Y-109268619D01*
X128052547Y-31183942D02*
X127860778Y-31249491D01*
X162544866Y-105553096D02*
X162550000Y-105350500D01*
X125855422Y-32884643D02*
X125752613Y-33059292D01*
X158550000Y-109350500D02*
X158752596Y-109345366D01*
X169139221Y-31249491D02*
X168947452Y-31183942D01*
X161305867Y-108249671D02*
X161449171Y-108106367D01*
X126494132Y-108249671D02*
X126644510Y-108385532D01*
X126801576Y-31837397D02*
X126644510Y-31965467D01*
X171566557Y-33803047D02*
X171501008Y-33611278D01*
X126964927Y-31717446D02*
X126801576Y-31837397D01*
X129250000Y-109350500D02*
X146000000Y-109350500D01*
X160127423Y-109026331D02*
X160311576Y-108941718D01*
X171033053Y-32715427D02*
X170913102Y-32552076D01*
X170035072Y-31717446D02*
X169865856Y-31605922D01*
X168555194Y-31082380D02*
X168355711Y-31046626D01*
X128247389Y-31128191D02*
X128052547Y-31183942D01*
X162366557Y-106547952D02*
X162422308Y-106353110D01*
X162529477Y-105755173D02*
X162544866Y-105553096D01*
X171668119Y-34195305D02*
X171622308Y-33997889D01*
X171750000Y-35000500D02*
X171744866Y-34797903D01*
X162225831Y-106927923D02*
X162301008Y-106739721D01*
X127672576Y-31324668D02*
X127488423Y-31409281D01*
X126964927Y-108633553D02*
X127134143Y-108745077D01*
X127672576Y-109026331D02*
X127860778Y-109101508D01*
X125498991Y-33611278D02*
X125433442Y-33803047D01*
X128247389Y-109222808D02*
X128444805Y-109268619D01*
X170913102Y-32552076D02*
X170785032Y-32395010D01*
X127134143Y-31605922D02*
X126964927Y-31717446D01*
X125250000Y-112351500D02*
X125250000Y-120351500D01*
X128444805Y-31082380D02*
X128247389Y-31128191D01*
X152750000Y-28000000D02*
X171750000Y-28000000D01*
X126644510Y-31965467D02*
X126494132Y-32101328D01*
X169865856Y-31605922D02*
X169691207Y-31503113D01*
X125574168Y-33423076D02*
X125498991Y-33611278D01*
X125331880Y-106155694D02*
X125377691Y-106353110D01*
X126350828Y-108106367D02*
X126494132Y-108249671D01*
X125250000Y-20000000D02*
X125250000Y-28000000D01*
X161585032Y-107955989D02*
X161713102Y-107798923D01*
X168154673Y-31021022D02*
X167952596Y-31005633D01*
X128845326Y-109329977D02*
X129047403Y-109345366D01*
X170785032Y-32395010D02*
X170649171Y-32244632D01*
X129250000Y-31000500D02*
X129047403Y-31005633D01*
X129047403Y-31005633D02*
X128845326Y-31021022D01*
X160491207Y-108847886D02*
X160665856Y-108745077D01*
X127134143Y-108745077D02*
X127308792Y-108847886D01*
X159747452Y-109167057D02*
X159939221Y-109101508D01*
X125250000Y-120351500D02*
X171750000Y-120351500D01*
X125296126Y-34394788D02*
X125270522Y-34595826D01*
X167952596Y-31005633D02*
X167750000Y-31000500D01*
X162141218Y-107112076D02*
X162225831Y-106927923D01*
M02*
