G04 #@! TF.GenerationSoftware,KiCad,Pcbnew,9.0.4-9.0.4-0~ubuntu22.04.1*
G04 #@! TF.CreationDate,2025-09-17T13:23:39-04:00*
G04 #@! TF.ProjectId,receiver7RP2350V2,72656365-6976-4657-9237-525032333530,rev?*
G04 #@! TF.SameCoordinates,Original*
G04 #@! TF.FileFunction,Copper,L2,Inr*
G04 #@! TF.FilePolarity,Positive*
%FSLAX46Y46*%
G04 Gerber Fmt 4.6, Leading zero omitted, Abs format (unit mm)*
G04 Created by KiCad (PCBNEW 9.0.4-9.0.4-0~ubuntu22.04.1) date 2025-09-17 13:23:39*
%MOMM*%
%LPD*%
G01*
G04 APERTURE LIST*
G04 #@! TA.AperFunction,ComponentPad*
%ADD10O,1.000000X2.100000*%
G04 #@! TD*
G04 #@! TA.AperFunction,ComponentPad*
%ADD11O,1.000000X1.800000*%
G04 #@! TD*
G04 #@! TA.AperFunction,ComponentPad*
%ADD12C,0.800000*%
G04 #@! TD*
G04 #@! TA.AperFunction,ComponentPad*
%ADD13C,5.400000*%
G04 #@! TD*
G04 #@! TA.AperFunction,ComponentPad*
%ADD14C,4.080000*%
G04 #@! TD*
G04 #@! TA.AperFunction,ViaPad*
%ADD15C,0.600000*%
G04 #@! TD*
G04 APERTURE END LIST*
D10*
X129320000Y-87830000D03*
X120680000Y-87830000D03*
D11*
X129320000Y-83650000D03*
X120680000Y-83650000D03*
D12*
X92375000Y-153600000D03*
X92968109Y-152168109D03*
X92968109Y-155031891D03*
X94400000Y-151575000D03*
D13*
X94400000Y-153600000D03*
D12*
X94400000Y-155625000D03*
X95831891Y-152168109D03*
X95831891Y-155031891D03*
X96425000Y-153600000D03*
D10*
X109820000Y-87830000D03*
X101180000Y-87830000D03*
D11*
X109820000Y-83650000D03*
X101180000Y-83650000D03*
D12*
X92375000Y-85600000D03*
X92968109Y-84168109D03*
X92968109Y-87031891D03*
X94400000Y-83575000D03*
D13*
X94400000Y-85600000D03*
D12*
X94400000Y-87625000D03*
X95831891Y-84168109D03*
X95831891Y-87031891D03*
X96425000Y-85600000D03*
X114675000Y-85600000D03*
X115268109Y-84168109D03*
X115268109Y-87031891D03*
X116700000Y-83575000D03*
D13*
X116700000Y-85600000D03*
D12*
X116700000Y-87625000D03*
X118131891Y-84168109D03*
X118131891Y-87031891D03*
X118725000Y-85600000D03*
X116575000Y-153600000D03*
X117168109Y-152168109D03*
X117168109Y-155031891D03*
X118600000Y-151575000D03*
D13*
X118600000Y-153600000D03*
D12*
X118600000Y-155625000D03*
X120031891Y-152168109D03*
X120031891Y-155031891D03*
X120625000Y-153600000D03*
D14*
X94400000Y-144200000D03*
X118600000Y-144200000D03*
D15*
X107675000Y-98200000D03*
X112300000Y-89850000D03*
X119000000Y-116200000D03*
X95800000Y-105700000D03*
X123000000Y-145100000D03*
X109050000Y-109100000D03*
X92500000Y-134700000D03*
X126450000Y-92200000D03*
X116350000Y-117550000D03*
X107600000Y-103100000D03*
X110975000Y-95950000D03*
X125100000Y-110200000D03*
X117200000Y-94500000D03*
X123400000Y-115500000D03*
X95500000Y-109400000D03*
X132500000Y-87000000D03*
X88800000Y-98800000D03*
X108000000Y-95000000D03*
X114750000Y-89900000D03*
X102300000Y-89400000D03*
X103000000Y-158000000D03*
X113500000Y-98350000D03*
X97800000Y-96400000D03*
X95500000Y-107200000D03*
X101700000Y-105800000D03*
X121150000Y-93950000D03*
X119600000Y-94400000D03*
X106500000Y-134750000D03*
X123000000Y-150300000D03*
X95955000Y-101100000D03*
X105900000Y-90000000D03*
X116550000Y-96750000D03*
X100200000Y-105800000D03*
X114125000Y-111750000D03*
X125300000Y-114100000D03*
X125900000Y-102600000D03*
X131300000Y-108800000D03*
X112150000Y-120550000D03*
X98800000Y-105700000D03*
X114250000Y-106800000D03*
X98125000Y-116725000D03*
X88800000Y-108800000D03*
X102600000Y-106850000D03*
X99500000Y-88000000D03*
X111500000Y-116000000D03*
X88800000Y-113800000D03*
X110350000Y-107900000D03*
X124650000Y-86700000D03*
X107500000Y-129000000D03*
X123000000Y-139900000D03*
X89000000Y-145100000D03*
X128475000Y-96250000D03*
X128500000Y-92000000D03*
X106500000Y-122000000D03*
X114730000Y-92800000D03*
X100300000Y-110700000D03*
X88800000Y-118800000D03*
X125100000Y-84350000D03*
X116350000Y-116850000D03*
X88800000Y-93600000D03*
X126750000Y-109900000D03*
X111500000Y-87900000D03*
X99600000Y-122600000D03*
X125300000Y-114900000D03*
X102000000Y-94000000D03*
X109100000Y-90000000D03*
X97200000Y-110900000D03*
X131100000Y-100600000D03*
X110300000Y-110300000D03*
X114250000Y-138250000D03*
X112300000Y-92750000D03*
X102200000Y-117100000D03*
X110100000Y-109100000D03*
X118825000Y-105225000D03*
X106225000Y-120275000D03*
X125300000Y-115700000D03*
X125150000Y-99050000D03*
X104075000Y-119900000D03*
X90750000Y-97000000D03*
X123000000Y-129500000D03*
X109350000Y-117025000D03*
X111100000Y-101800000D03*
X121550000Y-110600000D03*
X113500000Y-129500000D03*
X132500000Y-123400000D03*
X129600000Y-107650000D03*
X107000000Y-151250000D03*
X101800000Y-109925000D03*
X124000000Y-109300000D03*
X121800000Y-89325000D03*
X130350000Y-107650000D03*
X113500000Y-150300000D03*
X104700000Y-101000000D03*
X123500000Y-110600000D03*
X125300000Y-116500000D03*
X106000000Y-92800000D03*
X99500000Y-155500000D03*
X104100000Y-93400000D03*
X100250000Y-129500000D03*
X126800000Y-92850000D03*
X123000000Y-134700000D03*
X88800000Y-123800000D03*
X99000000Y-139250000D03*
X97400000Y-105700000D03*
X109550000Y-121150000D03*
X132500000Y-113000000D03*
X99525000Y-151375000D03*
X125500000Y-86700000D03*
X123450000Y-94200000D03*
X128200000Y-89300000D03*
X119500000Y-124500000D03*
X132500000Y-100600000D03*
X115200000Y-117800000D03*
X131100000Y-103250000D03*
X92500000Y-129000000D03*
X113500000Y-101000000D03*
X132500000Y-91425000D03*
X111100000Y-98350000D03*
X117525000Y-101300000D03*
X116475000Y-108725000D03*
X111500000Y-92750000D03*
X100000000Y-83321140D03*
X119900000Y-114500000D03*
X100800000Y-91500000D03*
X107800000Y-107800000D03*
X99000000Y-147100000D03*
X113500000Y-155500000D03*
X115200000Y-105550000D03*
X127500000Y-121000000D03*
X95250000Y-119000000D03*
X110600000Y-158300000D03*
X121525000Y-98025000D03*
X109900000Y-114800000D03*
X112250000Y-83321140D03*
X132500000Y-103300000D03*
X132500000Y-97400000D03*
X105200000Y-83321140D03*
X113100000Y-113250000D03*
X108925000Y-92875000D03*
X122400000Y-109300000D03*
X101600000Y-114700000D03*
X124300000Y-110200000D03*
X123200000Y-109300000D03*
X88800000Y-88400000D03*
X110800000Y-116500000D03*
X96100000Y-112200000D03*
X115700000Y-115950000D03*
X115200000Y-116850000D03*
X123900000Y-92850000D03*
X89000000Y-150300000D03*
X95700000Y-110900000D03*
X107675000Y-101067582D03*
X125250000Y-105050000D03*
X99500000Y-134700000D03*
X122175000Y-98025000D03*
X119600000Y-116200000D03*
X108300000Y-110300000D03*
X115000000Y-104125000D03*
X127500000Y-126500000D03*
X131300000Y-107700000D03*
X109050320Y-107797432D03*
X109000000Y-144875912D03*
X113500000Y-133500000D03*
X118750000Y-111250000D03*
X118750000Y-110500000D03*
X113500000Y-145100000D03*
X132500000Y-118200000D03*
X98800000Y-110900000D03*
X93350000Y-92050000D03*
X88800000Y-103800000D03*
X106500000Y-139900000D03*
X108700000Y-89350000D03*
X101100000Y-120400000D03*
X89000000Y-139900000D03*
X126200000Y-113200000D03*
X105000000Y-113100000D03*
X126900000Y-113200000D03*
X119300000Y-115600000D03*
X107800000Y-109100000D03*
X97900000Y-92750000D03*
X103000000Y-119275000D03*
X97600000Y-94700000D03*
X107400000Y-119900000D03*
X105250000Y-119500000D03*
X117200000Y-93350000D03*
X106700000Y-95400000D03*
X98500000Y-102225000D03*
X106000000Y-104300000D03*
X115560000Y-96250000D03*
X119950000Y-97300000D03*
X107800000Y-93450000D03*
X109950000Y-93350000D03*
X109975000Y-95475000D03*
X119150000Y-92650000D03*
X100125000Y-95475000D03*
X105100000Y-93400000D03*
X105700000Y-102100000D03*
X117500000Y-114100000D03*
X117900000Y-113500000D03*
X117100000Y-113500000D03*
X102225000Y-111000000D03*
X115350000Y-109050000D03*
X110200000Y-107000000D03*
X109450000Y-111200000D03*
X114875000Y-109450000D03*
X111150000Y-109450000D03*
X110500000Y-113800000D03*
X110400000Y-102800000D03*
X106950000Y-110125000D03*
X100275000Y-93375000D03*
X122300000Y-111400000D03*
X111000000Y-119650000D03*
X122000000Y-115600000D03*
X111225000Y-121800000D03*
X108950000Y-122350000D03*
X126100000Y-107300000D03*
X125150000Y-94650000D03*
X125100000Y-85750000D03*
G04 #@! TA.AperFunction,Conductor*
G36*
X130003032Y-81900648D02*
G01*
X130361433Y-81918256D01*
X130373541Y-81919448D01*
X130725475Y-81971653D01*
X130737389Y-81974023D01*
X131082520Y-82060473D01*
X131094147Y-82064000D01*
X131429151Y-82183867D01*
X131440363Y-82188511D01*
X131762012Y-82340639D01*
X131772720Y-82346363D01*
X132077881Y-82529270D01*
X132087996Y-82536028D01*
X132226117Y-82638465D01*
X132373769Y-82747971D01*
X132383175Y-82755691D01*
X132646790Y-82994618D01*
X132655381Y-83003209D01*
X132842635Y-83209812D01*
X132894308Y-83266824D01*
X132902028Y-83276230D01*
X133113969Y-83562000D01*
X133120729Y-83572118D01*
X133303629Y-83877267D01*
X133309366Y-83887999D01*
X133461485Y-84209629D01*
X133466136Y-84220858D01*
X133585994Y-84555837D01*
X133589526Y-84567481D01*
X133675973Y-84912597D01*
X133678347Y-84924532D01*
X133730550Y-85276457D01*
X133731743Y-85288567D01*
X133749351Y-85646966D01*
X133749500Y-85653051D01*
X133749500Y-124197133D01*
X133729815Y-124264172D01*
X133693237Y-124300997D01*
X124692287Y-130171181D01*
X124682641Y-130177471D01*
X124658103Y-130187636D01*
X124641314Y-130204423D01*
X124630499Y-130211477D01*
X124630497Y-130211477D01*
X124621427Y-130217393D01*
X124621422Y-130217398D01*
X124612920Y-130229820D01*
X124598284Y-130247452D01*
X124587638Y-130258098D01*
X124587635Y-130258103D01*
X124583486Y-130268120D01*
X124583485Y-130268119D01*
X124578545Y-130280043D01*
X124565138Y-130299635D01*
X124559666Y-130325623D01*
X124555261Y-130336259D01*
X124555260Y-130336264D01*
X124549500Y-130350172D01*
X124549500Y-130361006D01*
X124546840Y-130386550D01*
X124544608Y-130397152D01*
X124547379Y-130411943D01*
X124549500Y-130434778D01*
X124549500Y-155996948D01*
X124549351Y-156003033D01*
X124531743Y-156361432D01*
X124530550Y-156373542D01*
X124478347Y-156725467D01*
X124475973Y-156737402D01*
X124389526Y-157082518D01*
X124385994Y-157094162D01*
X124266142Y-157429127D01*
X124261485Y-157440370D01*
X124109366Y-157762000D01*
X124103629Y-157772732D01*
X123920729Y-158077881D01*
X123913969Y-158087999D01*
X123702028Y-158373769D01*
X123694308Y-158383175D01*
X123455388Y-158646783D01*
X123446783Y-158655388D01*
X123183175Y-158894308D01*
X123173769Y-158902028D01*
X122887999Y-159113969D01*
X122877881Y-159120729D01*
X122572732Y-159303629D01*
X122562000Y-159309366D01*
X122240370Y-159461485D01*
X122229134Y-159466139D01*
X122105442Y-159510397D01*
X121894162Y-159585994D01*
X121882518Y-159589526D01*
X121537402Y-159675973D01*
X121525467Y-159678347D01*
X121173542Y-159730550D01*
X121161432Y-159731743D01*
X120823927Y-159748324D01*
X120803031Y-159749351D01*
X120796949Y-159749500D01*
X91503051Y-159749500D01*
X91496968Y-159749351D01*
X91474856Y-159748264D01*
X91138567Y-159731743D01*
X91126457Y-159730550D01*
X90774532Y-159678347D01*
X90762597Y-159675973D01*
X90417481Y-159589526D01*
X90405837Y-159585994D01*
X90070858Y-159466136D01*
X90059629Y-159461485D01*
X89737999Y-159309366D01*
X89727272Y-159303631D01*
X89422118Y-159120729D01*
X89412000Y-159113969D01*
X89126230Y-158902028D01*
X89116824Y-158894308D01*
X88922650Y-158718319D01*
X88853209Y-158655381D01*
X88844618Y-158646790D01*
X88605691Y-158383175D01*
X88597971Y-158373769D01*
X88386030Y-158087999D01*
X88379270Y-158077881D01*
X88374859Y-158070522D01*
X88196363Y-157772720D01*
X88190639Y-157762012D01*
X88038511Y-157440363D01*
X88033867Y-157429151D01*
X87914000Y-157094147D01*
X87910473Y-157082518D01*
X87824023Y-156737389D01*
X87821652Y-156725467D01*
X87814946Y-156680262D01*
X87769448Y-156373541D01*
X87768256Y-156361431D01*
X87750649Y-156003032D01*
X87750500Y-155996948D01*
X87750500Y-153420259D01*
X91199500Y-153420259D01*
X91199500Y-153779740D01*
X91239746Y-154136935D01*
X91239748Y-154136951D01*
X91319737Y-154487407D01*
X91319741Y-154487419D01*
X91438465Y-154826711D01*
X91594432Y-155150579D01*
X91594434Y-155150582D01*
X91785685Y-155454956D01*
X92009812Y-155736003D01*
X92263997Y-155990188D01*
X92545044Y-156214315D01*
X92849418Y-156405566D01*
X93173292Y-156561536D01*
X93428119Y-156650703D01*
X93512580Y-156680258D01*
X93512592Y-156680262D01*
X93863052Y-156760252D01*
X94220260Y-156800499D01*
X94220261Y-156800500D01*
X94220264Y-156800500D01*
X94579739Y-156800500D01*
X94579739Y-156800499D01*
X94936948Y-156760252D01*
X95287408Y-156680262D01*
X95626708Y-156561536D01*
X95950582Y-156405566D01*
X96254956Y-156214315D01*
X96536003Y-155990188D01*
X96790188Y-155736003D01*
X97014315Y-155454956D01*
X97205566Y-155150582D01*
X97361536Y-154826708D01*
X97480262Y-154487408D01*
X97560252Y-154136948D01*
X97600500Y-153779736D01*
X97600500Y-153420264D01*
X97600499Y-153420259D01*
X115399500Y-153420259D01*
X115399500Y-153779740D01*
X115439746Y-154136935D01*
X115439748Y-154136951D01*
X115519737Y-154487407D01*
X115519741Y-154487419D01*
X115638465Y-154826711D01*
X115794432Y-155150579D01*
X115794434Y-155150582D01*
X115985685Y-155454956D01*
X116209812Y-155736003D01*
X116463997Y-155990188D01*
X116745044Y-156214315D01*
X117049418Y-156405566D01*
X117373292Y-156561536D01*
X117628119Y-156650703D01*
X117712580Y-156680258D01*
X117712592Y-156680262D01*
X118063052Y-156760252D01*
X118420260Y-156800499D01*
X118420261Y-156800500D01*
X118420264Y-156800500D01*
X118779739Y-156800500D01*
X118779739Y-156800499D01*
X119136948Y-156760252D01*
X119487408Y-156680262D01*
X119826708Y-156561536D01*
X120150582Y-156405566D01*
X120454956Y-156214315D01*
X120736003Y-155990188D01*
X120990188Y-155736003D01*
X121214315Y-155454956D01*
X121405566Y-155150582D01*
X121561536Y-154826708D01*
X121680262Y-154487408D01*
X121760252Y-154136948D01*
X121800500Y-153779736D01*
X121800500Y-153420264D01*
X121760252Y-153063052D01*
X121680262Y-152712592D01*
X121561536Y-152373292D01*
X121405566Y-152049418D01*
X121214315Y-151745044D01*
X120990188Y-151463997D01*
X120736003Y-151209812D01*
X120454956Y-150985685D01*
X120150582Y-150794434D01*
X120150579Y-150794432D01*
X119826711Y-150638465D01*
X119487419Y-150519741D01*
X119487407Y-150519737D01*
X119136951Y-150439748D01*
X119136935Y-150439746D01*
X118779740Y-150399500D01*
X118779736Y-150399500D01*
X118420264Y-150399500D01*
X118420259Y-150399500D01*
X118063064Y-150439746D01*
X118063048Y-150439748D01*
X117712592Y-150519737D01*
X117712580Y-150519741D01*
X117373288Y-150638465D01*
X117049420Y-150794432D01*
X116745045Y-150985684D01*
X116463997Y-151209811D01*
X116209811Y-151463997D01*
X115985684Y-151745045D01*
X115794432Y-152049420D01*
X115638465Y-152373288D01*
X115519741Y-152712580D01*
X115519737Y-152712592D01*
X115439748Y-153063048D01*
X115439746Y-153063064D01*
X115399500Y-153420259D01*
X97600499Y-153420259D01*
X97560252Y-153063052D01*
X97480262Y-152712592D01*
X97361536Y-152373292D01*
X97205566Y-152049418D01*
X97014315Y-151745044D01*
X96790188Y-151463997D01*
X96536003Y-151209812D01*
X96254956Y-150985685D01*
X95950582Y-150794434D01*
X95950579Y-150794432D01*
X95626711Y-150638465D01*
X95287419Y-150519741D01*
X95287407Y-150519737D01*
X94936951Y-150439748D01*
X94936935Y-150439746D01*
X94579740Y-150399500D01*
X94579736Y-150399500D01*
X94220264Y-150399500D01*
X94220259Y-150399500D01*
X93863064Y-150439746D01*
X93863048Y-150439748D01*
X93512592Y-150519737D01*
X93512580Y-150519741D01*
X93173288Y-150638465D01*
X92849420Y-150794432D01*
X92545045Y-150985684D01*
X92263997Y-151209811D01*
X92009811Y-151463997D01*
X91785684Y-151745045D01*
X91594432Y-152049420D01*
X91438465Y-152373288D01*
X91319741Y-152712580D01*
X91319737Y-152712592D01*
X91239748Y-153063048D01*
X91239746Y-153063064D01*
X91199500Y-153420259D01*
X87750500Y-153420259D01*
X87750500Y-138518400D01*
X87770185Y-138451361D01*
X87772304Y-138448172D01*
X87838187Y-138352300D01*
X90993410Y-133760850D01*
X91012364Y-133741897D01*
X91021360Y-133720178D01*
X91034672Y-133700807D01*
X91037873Y-133685737D01*
X91044602Y-133664065D01*
X91050500Y-133649828D01*
X91050500Y-133626321D01*
X91055386Y-133603328D01*
X91050500Y-133576973D01*
X91050500Y-128813181D01*
X91050806Y-128804470D01*
X91053382Y-128767893D01*
X91050500Y-128759265D01*
X91050500Y-128750172D01*
X91034802Y-128712275D01*
X91021807Y-128673372D01*
X91021802Y-128673366D01*
X91017345Y-128665559D01*
X91012365Y-128658104D01*
X91012364Y-128658103D01*
X90986426Y-128632165D01*
X90980496Y-128625802D01*
X87780876Y-124941390D01*
X87751782Y-124877866D01*
X87750500Y-124860085D01*
X87750500Y-122271153D01*
X108149500Y-122271153D01*
X108149500Y-122428846D01*
X108180261Y-122583489D01*
X108180264Y-122583501D01*
X108240602Y-122729172D01*
X108240609Y-122729185D01*
X108328210Y-122860288D01*
X108328213Y-122860292D01*
X108439707Y-122971786D01*
X108439711Y-122971789D01*
X108570814Y-123059390D01*
X108570827Y-123059397D01*
X108716498Y-123119735D01*
X108716503Y-123119737D01*
X108871153Y-123150499D01*
X108871156Y-123150500D01*
X108871158Y-123150500D01*
X109028844Y-123150500D01*
X109028845Y-123150499D01*
X109183497Y-123119737D01*
X109329179Y-123059394D01*
X109460289Y-122971789D01*
X109571789Y-122860289D01*
X109659394Y-122729179D01*
X109719737Y-122583497D01*
X109750500Y-122428842D01*
X109750500Y-122271158D01*
X109750500Y-122271155D01*
X109750499Y-122271153D01*
X109732204Y-122179179D01*
X109719737Y-122116503D01*
X109685352Y-122033489D01*
X109659397Y-121970827D01*
X109659390Y-121970814D01*
X109571789Y-121839711D01*
X109571786Y-121839707D01*
X109460292Y-121728213D01*
X109460288Y-121728210D01*
X109449727Y-121721153D01*
X110424500Y-121721153D01*
X110424500Y-121878846D01*
X110455261Y-122033489D01*
X110455264Y-122033501D01*
X110515602Y-122179172D01*
X110515609Y-122179185D01*
X110603210Y-122310288D01*
X110603213Y-122310292D01*
X110714707Y-122421786D01*
X110714711Y-122421789D01*
X110845814Y-122509390D01*
X110845827Y-122509397D01*
X110991498Y-122569735D01*
X110991503Y-122569737D01*
X111146153Y-122600499D01*
X111146156Y-122600500D01*
X111146158Y-122600500D01*
X111303844Y-122600500D01*
X111303845Y-122600499D01*
X111458497Y-122569737D01*
X111604179Y-122509394D01*
X111735289Y-122421789D01*
X111846789Y-122310289D01*
X111934394Y-122179179D01*
X111994737Y-122033497D01*
X112025500Y-121878842D01*
X112025500Y-121721158D01*
X112025500Y-121721155D01*
X112025499Y-121721153D01*
X111994737Y-121566503D01*
X111987694Y-121549500D01*
X111934397Y-121420827D01*
X111934390Y-121420814D01*
X111846789Y-121289711D01*
X111846786Y-121289707D01*
X111735292Y-121178213D01*
X111735288Y-121178210D01*
X111604185Y-121090609D01*
X111604172Y-121090602D01*
X111458501Y-121030264D01*
X111458489Y-121030261D01*
X111303845Y-120999500D01*
X111303842Y-120999500D01*
X111146158Y-120999500D01*
X111146155Y-120999500D01*
X110991510Y-121030261D01*
X110991498Y-121030264D01*
X110845827Y-121090602D01*
X110845814Y-121090609D01*
X110714711Y-121178210D01*
X110714707Y-121178213D01*
X110603213Y-121289707D01*
X110603210Y-121289711D01*
X110515609Y-121420814D01*
X110515602Y-121420827D01*
X110455264Y-121566498D01*
X110455261Y-121566510D01*
X110424500Y-121721153D01*
X109449727Y-121721153D01*
X109329185Y-121640609D01*
X109329172Y-121640602D01*
X109183501Y-121580264D01*
X109183489Y-121580261D01*
X109028845Y-121549500D01*
X109028842Y-121549500D01*
X108871158Y-121549500D01*
X108871155Y-121549500D01*
X108716510Y-121580261D01*
X108716498Y-121580264D01*
X108570827Y-121640602D01*
X108570814Y-121640609D01*
X108439711Y-121728210D01*
X108439707Y-121728213D01*
X108328213Y-121839707D01*
X108328210Y-121839711D01*
X108240609Y-121970814D01*
X108240602Y-121970827D01*
X108180264Y-122116498D01*
X108180261Y-122116510D01*
X108149500Y-122271153D01*
X87750500Y-122271153D01*
X87750500Y-119196153D01*
X102199500Y-119196153D01*
X102199500Y-119353846D01*
X102230261Y-119508489D01*
X102230264Y-119508501D01*
X102290602Y-119654172D01*
X102290609Y-119654185D01*
X102378210Y-119785288D01*
X102378213Y-119785292D01*
X102489707Y-119896786D01*
X102489711Y-119896789D01*
X102620814Y-119984390D01*
X102620827Y-119984397D01*
X102766498Y-120044735D01*
X102766503Y-120044737D01*
X102921153Y-120075499D01*
X102921156Y-120075500D01*
X102921158Y-120075500D01*
X103078844Y-120075500D01*
X103078845Y-120075499D01*
X103233497Y-120044737D01*
X103379179Y-119984394D01*
X103510289Y-119896789D01*
X103621789Y-119785289D01*
X103709394Y-119654179D01*
X103769737Y-119508497D01*
X103787111Y-119421153D01*
X104449500Y-119421153D01*
X104449500Y-119578846D01*
X104480261Y-119733489D01*
X104480264Y-119733501D01*
X104540602Y-119879172D01*
X104540609Y-119879185D01*
X104628210Y-120010288D01*
X104628213Y-120010292D01*
X104739707Y-120121786D01*
X104739711Y-120121789D01*
X104870814Y-120209390D01*
X104870827Y-120209397D01*
X105016498Y-120269735D01*
X105016503Y-120269737D01*
X105171153Y-120300499D01*
X105171156Y-120300500D01*
X105171158Y-120300500D01*
X105328844Y-120300500D01*
X105328845Y-120300499D01*
X105483497Y-120269737D01*
X105629179Y-120209394D01*
X105760289Y-120121789D01*
X105871789Y-120010289D01*
X105959394Y-119879179D01*
X105983429Y-119821153D01*
X106599500Y-119821153D01*
X106599500Y-119978846D01*
X106630261Y-120133489D01*
X106630264Y-120133501D01*
X106690602Y-120279172D01*
X106690609Y-120279185D01*
X106778210Y-120410288D01*
X106778213Y-120410292D01*
X106889707Y-120521786D01*
X106889711Y-120521789D01*
X107020814Y-120609390D01*
X107020827Y-120609397D01*
X107166498Y-120669735D01*
X107166503Y-120669737D01*
X107321153Y-120700499D01*
X107321156Y-120700500D01*
X107321158Y-120700500D01*
X107478844Y-120700500D01*
X107478845Y-120700499D01*
X107633497Y-120669737D01*
X107779179Y-120609394D01*
X107910289Y-120521789D01*
X108021789Y-120410289D01*
X108109394Y-120279179D01*
X108169737Y-120133497D01*
X108200500Y-119978842D01*
X108200500Y-119821158D01*
X108200500Y-119821155D01*
X108200499Y-119821153D01*
X108169738Y-119666510D01*
X108169737Y-119666503D01*
X108130242Y-119571153D01*
X110199500Y-119571153D01*
X110199500Y-119728846D01*
X110230261Y-119883489D01*
X110230264Y-119883501D01*
X110290602Y-120029172D01*
X110290609Y-120029185D01*
X110378210Y-120160288D01*
X110378213Y-120160292D01*
X110489707Y-120271786D01*
X110489711Y-120271789D01*
X110620814Y-120359390D01*
X110620827Y-120359397D01*
X110766498Y-120419735D01*
X110766503Y-120419737D01*
X110921153Y-120450499D01*
X110921156Y-120450500D01*
X110921158Y-120450500D01*
X111078844Y-120450500D01*
X111078845Y-120450499D01*
X111233497Y-120419737D01*
X111379179Y-120359394D01*
X111510289Y-120271789D01*
X111621789Y-120160289D01*
X111709394Y-120029179D01*
X111769737Y-119883497D01*
X111800500Y-119728842D01*
X111800500Y-119571158D01*
X111800500Y-119571155D01*
X111800499Y-119571153D01*
X111769738Y-119416510D01*
X111769737Y-119416503D01*
X111759121Y-119390874D01*
X111709397Y-119270827D01*
X111709390Y-119270814D01*
X111621789Y-119139711D01*
X111621786Y-119139707D01*
X111510292Y-119028213D01*
X111510288Y-119028210D01*
X111379185Y-118940609D01*
X111379172Y-118940602D01*
X111233501Y-118880264D01*
X111233489Y-118880261D01*
X111078845Y-118849500D01*
X111078842Y-118849500D01*
X110921158Y-118849500D01*
X110921155Y-118849500D01*
X110766510Y-118880261D01*
X110766498Y-118880264D01*
X110620827Y-118940602D01*
X110620814Y-118940609D01*
X110489711Y-119028210D01*
X110489707Y-119028213D01*
X110378213Y-119139707D01*
X110378210Y-119139711D01*
X110290609Y-119270814D01*
X110290602Y-119270827D01*
X110230264Y-119416498D01*
X110230261Y-119416510D01*
X110199500Y-119571153D01*
X108130242Y-119571153D01*
X108129933Y-119570408D01*
X108109397Y-119520827D01*
X108109390Y-119520814D01*
X108021789Y-119389711D01*
X108021786Y-119389707D01*
X107910292Y-119278213D01*
X107910288Y-119278210D01*
X107779185Y-119190609D01*
X107779172Y-119190602D01*
X107633501Y-119130264D01*
X107633489Y-119130261D01*
X107478845Y-119099500D01*
X107478842Y-119099500D01*
X107321158Y-119099500D01*
X107321155Y-119099500D01*
X107166510Y-119130261D01*
X107166498Y-119130264D01*
X107020827Y-119190602D01*
X107020814Y-119190609D01*
X106889711Y-119278210D01*
X106889707Y-119278213D01*
X106778213Y-119389707D01*
X106778210Y-119389711D01*
X106690609Y-119520814D01*
X106690602Y-119520827D01*
X106630264Y-119666498D01*
X106630261Y-119666510D01*
X106599500Y-119821153D01*
X105983429Y-119821153D01*
X105998283Y-119785292D01*
X106005603Y-119767621D01*
X106005605Y-119767614D01*
X106019737Y-119733497D01*
X106050500Y-119578842D01*
X106050500Y-119421158D01*
X106050500Y-119421155D01*
X106050499Y-119421153D01*
X106022066Y-119278211D01*
X106019737Y-119266503D01*
X106019735Y-119266498D01*
X105959397Y-119120827D01*
X105959390Y-119120814D01*
X105871789Y-118989711D01*
X105871786Y-118989707D01*
X105760292Y-118878213D01*
X105760288Y-118878210D01*
X105629185Y-118790609D01*
X105629172Y-118790602D01*
X105483501Y-118730264D01*
X105483489Y-118730261D01*
X105328845Y-118699500D01*
X105328842Y-118699500D01*
X105171158Y-118699500D01*
X105171155Y-118699500D01*
X105016510Y-118730261D01*
X105016498Y-118730264D01*
X104870827Y-118790602D01*
X104870814Y-118790609D01*
X104739711Y-118878210D01*
X104739707Y-118878213D01*
X104628213Y-118989707D01*
X104628210Y-118989711D01*
X104540609Y-119120814D01*
X104540602Y-119120827D01*
X104480264Y-119266498D01*
X104480261Y-119266510D01*
X104449500Y-119421153D01*
X103787111Y-119421153D01*
X103793134Y-119390875D01*
X103793134Y-119390874D01*
X103800500Y-119353844D01*
X103800500Y-119196155D01*
X103800499Y-119196153D01*
X103787393Y-119130264D01*
X103769737Y-119041503D01*
X103727946Y-118940609D01*
X103709397Y-118895827D01*
X103709390Y-118895814D01*
X103621789Y-118764711D01*
X103621786Y-118764707D01*
X103510292Y-118653213D01*
X103510288Y-118653210D01*
X103379185Y-118565609D01*
X103379172Y-118565602D01*
X103233501Y-118505264D01*
X103233489Y-118505261D01*
X103078845Y-118474500D01*
X103078842Y-118474500D01*
X102921158Y-118474500D01*
X102921155Y-118474500D01*
X102766510Y-118505261D01*
X102766498Y-118505264D01*
X102620827Y-118565602D01*
X102620814Y-118565609D01*
X102489711Y-118653210D01*
X102489707Y-118653213D01*
X102378213Y-118764707D01*
X102378210Y-118764711D01*
X102290609Y-118895814D01*
X102290602Y-118895827D01*
X102230264Y-119041498D01*
X102230261Y-119041510D01*
X102199500Y-119196153D01*
X87750500Y-119196153D01*
X87750500Y-115521153D01*
X121199500Y-115521153D01*
X121199500Y-115678846D01*
X121230261Y-115833489D01*
X121230264Y-115833501D01*
X121290602Y-115979172D01*
X121290609Y-115979185D01*
X121378210Y-116110288D01*
X121378213Y-116110292D01*
X121489707Y-116221786D01*
X121489711Y-116221789D01*
X121620814Y-116309390D01*
X121620827Y-116309397D01*
X121766498Y-116369735D01*
X121766503Y-116369737D01*
X121921153Y-116400499D01*
X121921156Y-116400500D01*
X121921158Y-116400500D01*
X122078844Y-116400500D01*
X122078845Y-116400499D01*
X122233497Y-116369737D01*
X122379179Y-116309394D01*
X122510289Y-116221789D01*
X122621789Y-116110289D01*
X122709394Y-115979179D01*
X122769737Y-115833497D01*
X122800500Y-115678842D01*
X122800500Y-115521158D01*
X122800500Y-115521155D01*
X122800499Y-115521153D01*
X122769738Y-115366510D01*
X122769737Y-115366503D01*
X122769735Y-115366498D01*
X122709397Y-115220827D01*
X122709390Y-115220814D01*
X122621789Y-115089711D01*
X122621786Y-115089707D01*
X122510292Y-114978213D01*
X122510288Y-114978210D01*
X122379185Y-114890609D01*
X122379172Y-114890602D01*
X122233501Y-114830264D01*
X122233489Y-114830261D01*
X122078845Y-114799500D01*
X122078842Y-114799500D01*
X121921158Y-114799500D01*
X121921155Y-114799500D01*
X121766510Y-114830261D01*
X121766498Y-114830264D01*
X121620827Y-114890602D01*
X121620814Y-114890609D01*
X121489711Y-114978210D01*
X121489707Y-114978213D01*
X121378213Y-115089707D01*
X121378210Y-115089711D01*
X121290609Y-115220814D01*
X121290602Y-115220827D01*
X121230264Y-115366498D01*
X121230261Y-115366510D01*
X121199500Y-115521153D01*
X87750500Y-115521153D01*
X87750500Y-113721153D01*
X109699500Y-113721153D01*
X109699500Y-113878846D01*
X109730261Y-114033489D01*
X109730264Y-114033501D01*
X109790602Y-114179172D01*
X109790609Y-114179185D01*
X109878210Y-114310288D01*
X109878213Y-114310292D01*
X109989707Y-114421786D01*
X109989711Y-114421789D01*
X110120814Y-114509390D01*
X110120827Y-114509397D01*
X110266498Y-114569735D01*
X110266503Y-114569737D01*
X110421153Y-114600499D01*
X110421156Y-114600500D01*
X110421158Y-114600500D01*
X110578844Y-114600500D01*
X110578845Y-114600499D01*
X110733497Y-114569737D01*
X110879179Y-114509394D01*
X111010289Y-114421789D01*
X111121789Y-114310289D01*
X111209394Y-114179179D01*
X111269737Y-114033497D01*
X111300500Y-113878842D01*
X111300500Y-113721158D01*
X111300500Y-113721155D01*
X111300499Y-113721153D01*
X111272192Y-113578846D01*
X111269737Y-113566503D01*
X111269735Y-113566498D01*
X111226666Y-113462518D01*
X111209532Y-113421153D01*
X116299500Y-113421153D01*
X116299500Y-113578846D01*
X116330261Y-113733489D01*
X116330264Y-113733501D01*
X116390602Y-113879172D01*
X116390609Y-113879185D01*
X116478210Y-114010288D01*
X116478213Y-114010292D01*
X116589707Y-114121786D01*
X116589711Y-114121789D01*
X116660534Y-114169112D01*
X116705339Y-114222724D01*
X116713260Y-114248022D01*
X116730261Y-114333491D01*
X116730264Y-114333501D01*
X116790602Y-114479172D01*
X116790609Y-114479185D01*
X116878210Y-114610288D01*
X116878213Y-114610292D01*
X116989707Y-114721786D01*
X116989711Y-114721789D01*
X117120814Y-114809390D01*
X117120827Y-114809397D01*
X117266498Y-114869735D01*
X117266503Y-114869737D01*
X117421153Y-114900499D01*
X117421156Y-114900500D01*
X117421158Y-114900500D01*
X117578844Y-114900500D01*
X117578845Y-114900499D01*
X117733497Y-114869737D01*
X117879179Y-114809394D01*
X118010289Y-114721789D01*
X118121789Y-114610289D01*
X118209394Y-114479179D01*
X118269737Y-114333497D01*
X118286739Y-114248021D01*
X118319121Y-114186113D01*
X118339459Y-114169115D01*
X118410289Y-114121789D01*
X118521789Y-114010289D01*
X118609394Y-113879179D01*
X118669737Y-113733497D01*
X118700500Y-113578842D01*
X118700500Y-113421158D01*
X118700500Y-113421155D01*
X118700499Y-113421153D01*
X118674353Y-113289711D01*
X118669737Y-113266503D01*
X118669735Y-113266498D01*
X118609397Y-113120827D01*
X118609390Y-113120814D01*
X118521789Y-112989711D01*
X118521786Y-112989707D01*
X118410292Y-112878213D01*
X118410288Y-112878210D01*
X118279185Y-112790609D01*
X118279172Y-112790602D01*
X118133501Y-112730264D01*
X118133489Y-112730261D01*
X117978845Y-112699500D01*
X117978842Y-112699500D01*
X117821158Y-112699500D01*
X117821155Y-112699500D01*
X117666510Y-112730261D01*
X117666498Y-112730264D01*
X117547452Y-112779574D01*
X117477982Y-112787043D01*
X117452548Y-112779574D01*
X117333501Y-112730264D01*
X117333489Y-112730261D01*
X117178845Y-112699500D01*
X117178842Y-112699500D01*
X117021158Y-112699500D01*
X117021155Y-112699500D01*
X116866510Y-112730261D01*
X116866498Y-112730264D01*
X116720827Y-112790602D01*
X116720814Y-112790609D01*
X116589711Y-112878210D01*
X116589707Y-112878213D01*
X116478213Y-112989707D01*
X116478210Y-112989711D01*
X116390609Y-113120814D01*
X116390602Y-113120827D01*
X116330264Y-113266498D01*
X116330261Y-113266510D01*
X116299500Y-113421153D01*
X111209532Y-113421153D01*
X111209395Y-113420823D01*
X111209390Y-113420814D01*
X111121789Y-113289711D01*
X111121786Y-113289707D01*
X111010292Y-113178213D01*
X111010288Y-113178210D01*
X110879185Y-113090609D01*
X110879172Y-113090602D01*
X110733501Y-113030264D01*
X110733489Y-113030261D01*
X110578845Y-112999500D01*
X110578842Y-112999500D01*
X110421158Y-112999500D01*
X110421155Y-112999500D01*
X110266510Y-113030261D01*
X110266498Y-113030264D01*
X110120827Y-113090602D01*
X110120814Y-113090609D01*
X109989711Y-113178210D01*
X109989707Y-113178213D01*
X109878213Y-113289707D01*
X109878210Y-113289711D01*
X109790609Y-113420814D01*
X109790602Y-113420827D01*
X109730264Y-113566498D01*
X109730261Y-113566510D01*
X109699500Y-113721153D01*
X87750500Y-113721153D01*
X87750500Y-110921153D01*
X101424500Y-110921153D01*
X101424500Y-111078846D01*
X101455261Y-111233489D01*
X101455264Y-111233501D01*
X101515602Y-111379172D01*
X101515609Y-111379185D01*
X101603210Y-111510288D01*
X101603213Y-111510292D01*
X101714707Y-111621786D01*
X101714711Y-111621789D01*
X101845814Y-111709390D01*
X101845827Y-111709397D01*
X101991498Y-111769735D01*
X101991503Y-111769737D01*
X102146153Y-111800499D01*
X102146156Y-111800500D01*
X102146158Y-111800500D01*
X102303844Y-111800500D01*
X102303845Y-111800499D01*
X102458497Y-111769737D01*
X102604179Y-111709394D01*
X102735289Y-111621789D01*
X102846789Y-111510289D01*
X102934394Y-111379179D01*
X102994737Y-111233497D01*
X103017083Y-111121158D01*
X103017084Y-111121153D01*
X108649500Y-111121153D01*
X108649500Y-111278846D01*
X108680261Y-111433489D01*
X108680264Y-111433501D01*
X108740602Y-111579172D01*
X108740609Y-111579185D01*
X108828210Y-111710288D01*
X108828213Y-111710292D01*
X108939707Y-111821786D01*
X108939711Y-111821789D01*
X109070814Y-111909390D01*
X109070827Y-111909397D01*
X109216498Y-111969735D01*
X109216503Y-111969737D01*
X109371153Y-112000499D01*
X109371156Y-112000500D01*
X109371158Y-112000500D01*
X109528844Y-112000500D01*
X109528845Y-112000499D01*
X109683497Y-111969737D01*
X109829179Y-111909394D01*
X109960289Y-111821789D01*
X110071789Y-111710289D01*
X110159394Y-111579179D01*
X110219737Y-111433497D01*
X110242083Y-111321158D01*
X110242084Y-111321153D01*
X121499500Y-111321153D01*
X121499500Y-111478846D01*
X121530261Y-111633489D01*
X121530264Y-111633501D01*
X121590602Y-111779172D01*
X121590609Y-111779185D01*
X121678210Y-111910288D01*
X121678213Y-111910292D01*
X121789707Y-112021786D01*
X121789711Y-112021789D01*
X121920814Y-112109390D01*
X121920827Y-112109397D01*
X122066498Y-112169735D01*
X122066503Y-112169737D01*
X122221153Y-112200499D01*
X122221156Y-112200500D01*
X122221158Y-112200500D01*
X122378844Y-112200500D01*
X122378845Y-112200499D01*
X122533497Y-112169737D01*
X122679179Y-112109394D01*
X122810289Y-112021789D01*
X122921789Y-111910289D01*
X123009394Y-111779179D01*
X123069737Y-111633497D01*
X123100500Y-111478842D01*
X123100500Y-111321158D01*
X123100500Y-111321155D01*
X123100499Y-111321153D01*
X123094476Y-111290874D01*
X123069737Y-111166503D01*
X123050955Y-111121158D01*
X123009397Y-111020827D01*
X123009390Y-111020814D01*
X122921789Y-110889711D01*
X122921786Y-110889707D01*
X122810292Y-110778213D01*
X122810288Y-110778210D01*
X122679185Y-110690609D01*
X122679172Y-110690602D01*
X122533501Y-110630264D01*
X122533489Y-110630261D01*
X122378845Y-110599500D01*
X122378842Y-110599500D01*
X122221158Y-110599500D01*
X122221155Y-110599500D01*
X122066510Y-110630261D01*
X122066498Y-110630264D01*
X121920827Y-110690602D01*
X121920814Y-110690609D01*
X121789711Y-110778210D01*
X121789707Y-110778213D01*
X121678213Y-110889707D01*
X121678210Y-110889711D01*
X121590609Y-111020814D01*
X121590602Y-111020827D01*
X121530264Y-111166498D01*
X121530261Y-111166510D01*
X121499500Y-111321153D01*
X110242084Y-111321153D01*
X110248107Y-111290875D01*
X110248107Y-111290874D01*
X110250500Y-111278844D01*
X110250500Y-111121155D01*
X110250499Y-111121153D01*
X110244476Y-111090874D01*
X110219737Y-110966503D01*
X110200955Y-110921158D01*
X110159397Y-110820827D01*
X110159390Y-110820814D01*
X110071789Y-110689711D01*
X110071786Y-110689707D01*
X109960292Y-110578213D01*
X109960288Y-110578210D01*
X109829185Y-110490609D01*
X109829172Y-110490602D01*
X109683501Y-110430264D01*
X109683489Y-110430261D01*
X109528845Y-110399500D01*
X109528842Y-110399500D01*
X109371158Y-110399500D01*
X109371155Y-110399500D01*
X109216510Y-110430261D01*
X109216498Y-110430264D01*
X109070827Y-110490602D01*
X109070814Y-110490609D01*
X108939711Y-110578210D01*
X108939707Y-110578213D01*
X108828213Y-110689707D01*
X108828210Y-110689711D01*
X108740609Y-110820814D01*
X108740602Y-110820827D01*
X108680264Y-110966498D01*
X108680261Y-110966510D01*
X108649500Y-111121153D01*
X103017084Y-111121153D01*
X103023107Y-111090875D01*
X103023107Y-111090874D01*
X103025500Y-111078844D01*
X103025500Y-110921155D01*
X103025499Y-110921153D01*
X103020245Y-110894738D01*
X102994737Y-110766503D01*
X102962929Y-110689711D01*
X102934397Y-110620827D01*
X102934390Y-110620814D01*
X102846789Y-110489711D01*
X102846786Y-110489707D01*
X102735292Y-110378213D01*
X102735288Y-110378210D01*
X102604185Y-110290609D01*
X102604172Y-110290602D01*
X102458501Y-110230264D01*
X102458489Y-110230261D01*
X102303845Y-110199500D01*
X102303842Y-110199500D01*
X102146158Y-110199500D01*
X102146155Y-110199500D01*
X101991510Y-110230261D01*
X101991498Y-110230264D01*
X101845827Y-110290602D01*
X101845814Y-110290609D01*
X101714711Y-110378210D01*
X101714707Y-110378213D01*
X101603213Y-110489707D01*
X101603210Y-110489711D01*
X101515609Y-110620814D01*
X101515602Y-110620827D01*
X101455264Y-110766498D01*
X101455261Y-110766510D01*
X101424500Y-110921153D01*
X87750500Y-110921153D01*
X87750500Y-110046153D01*
X106149500Y-110046153D01*
X106149500Y-110203846D01*
X106180261Y-110358489D01*
X106180264Y-110358501D01*
X106240602Y-110504172D01*
X106240609Y-110504185D01*
X106328210Y-110635288D01*
X106328213Y-110635292D01*
X106439707Y-110746786D01*
X106439711Y-110746789D01*
X106570814Y-110834390D01*
X106570827Y-110834397D01*
X106704359Y-110889707D01*
X106716503Y-110894737D01*
X106871153Y-110925499D01*
X106871156Y-110925500D01*
X106871158Y-110925500D01*
X107028844Y-110925500D01*
X107028845Y-110925499D01*
X107183497Y-110894737D01*
X107329179Y-110834394D01*
X107460289Y-110746789D01*
X107571789Y-110635289D01*
X107659394Y-110504179D01*
X107665389Y-110489707D01*
X107690011Y-110430263D01*
X107719737Y-110358497D01*
X107750500Y-110203842D01*
X107750500Y-110046158D01*
X107750500Y-110046155D01*
X107750499Y-110046153D01*
X107719738Y-109891510D01*
X107719737Y-109891503D01*
X107682338Y-109801213D01*
X107659397Y-109745827D01*
X107659390Y-109745814D01*
X107571789Y-109614711D01*
X107571786Y-109614707D01*
X107460292Y-109503213D01*
X107460288Y-109503210D01*
X107407844Y-109468168D01*
X107329185Y-109415609D01*
X107329172Y-109415602D01*
X107221861Y-109371153D01*
X110349500Y-109371153D01*
X110349500Y-109528846D01*
X110380261Y-109683489D01*
X110380264Y-109683501D01*
X110440602Y-109829172D01*
X110440609Y-109829185D01*
X110528210Y-109960288D01*
X110528213Y-109960292D01*
X110639707Y-110071786D01*
X110639711Y-110071789D01*
X110770814Y-110159390D01*
X110770827Y-110159397D01*
X110878138Y-110203846D01*
X110916503Y-110219737D01*
X111071153Y-110250499D01*
X111071156Y-110250500D01*
X111071158Y-110250500D01*
X111228844Y-110250500D01*
X111228845Y-110250499D01*
X111383497Y-110219737D01*
X111529179Y-110159394D01*
X111660289Y-110071789D01*
X111771789Y-109960289D01*
X111859394Y-109829179D01*
X111919737Y-109683497D01*
X111950500Y-109528842D01*
X111950500Y-109371158D01*
X111950500Y-109371155D01*
X111950499Y-109371153D01*
X114074500Y-109371153D01*
X114074500Y-109528846D01*
X114105261Y-109683489D01*
X114105264Y-109683501D01*
X114165602Y-109829172D01*
X114165609Y-109829185D01*
X114253210Y-109960288D01*
X114253213Y-109960292D01*
X114364707Y-110071786D01*
X114364711Y-110071789D01*
X114495814Y-110159390D01*
X114495827Y-110159397D01*
X114603138Y-110203846D01*
X114641503Y-110219737D01*
X114796153Y-110250499D01*
X114796156Y-110250500D01*
X114796158Y-110250500D01*
X114953844Y-110250500D01*
X114953845Y-110250499D01*
X115108497Y-110219737D01*
X115254179Y-110159394D01*
X115385289Y-110071789D01*
X115496789Y-109960289D01*
X115572564Y-109846882D01*
X115626174Y-109802079D01*
X115628067Y-109801275D01*
X115729179Y-109759394D01*
X115860289Y-109671789D01*
X115971789Y-109560289D01*
X116059394Y-109429179D01*
X116119737Y-109283497D01*
X116150500Y-109128842D01*
X116150500Y-108971158D01*
X116150500Y-108971155D01*
X116150499Y-108971153D01*
X116122066Y-108828211D01*
X116119737Y-108816503D01*
X116088298Y-108740602D01*
X116059397Y-108670827D01*
X116059390Y-108670814D01*
X115971789Y-108539711D01*
X115971786Y-108539707D01*
X115860292Y-108428213D01*
X115860288Y-108428210D01*
X115729185Y-108340609D01*
X115729172Y-108340602D01*
X115583501Y-108280264D01*
X115583489Y-108280261D01*
X115428845Y-108249500D01*
X115428842Y-108249500D01*
X115271158Y-108249500D01*
X115271155Y-108249500D01*
X115116510Y-108280261D01*
X115116498Y-108280264D01*
X114970827Y-108340602D01*
X114970814Y-108340609D01*
X114839711Y-108428210D01*
X114839707Y-108428213D01*
X114728213Y-108539707D01*
X114728210Y-108539711D01*
X114652437Y-108653113D01*
X114598824Y-108697918D01*
X114596789Y-108698783D01*
X114495820Y-108740606D01*
X114495814Y-108740609D01*
X114364711Y-108828210D01*
X114364707Y-108828213D01*
X114253213Y-108939707D01*
X114253210Y-108939711D01*
X114165609Y-109070814D01*
X114165602Y-109070827D01*
X114105264Y-109216498D01*
X114105261Y-109216510D01*
X114074500Y-109371153D01*
X111950499Y-109371153D01*
X111919738Y-109216510D01*
X111919737Y-109216503D01*
X111883427Y-109128842D01*
X111859397Y-109070827D01*
X111859390Y-109070814D01*
X111771789Y-108939711D01*
X111771786Y-108939707D01*
X111660292Y-108828213D01*
X111660288Y-108828210D01*
X111529185Y-108740609D01*
X111529172Y-108740602D01*
X111383501Y-108680264D01*
X111383489Y-108680261D01*
X111228845Y-108649500D01*
X111228842Y-108649500D01*
X111071158Y-108649500D01*
X111071155Y-108649500D01*
X110916510Y-108680261D01*
X110916498Y-108680264D01*
X110770827Y-108740602D01*
X110770814Y-108740609D01*
X110639711Y-108828210D01*
X110639707Y-108828213D01*
X110528213Y-108939707D01*
X110528210Y-108939711D01*
X110440609Y-109070814D01*
X110440602Y-109070827D01*
X110380264Y-109216498D01*
X110380261Y-109216510D01*
X110349500Y-109371153D01*
X107221861Y-109371153D01*
X107183501Y-109355264D01*
X107183489Y-109355261D01*
X107028845Y-109324500D01*
X107028842Y-109324500D01*
X106871158Y-109324500D01*
X106871155Y-109324500D01*
X106716510Y-109355261D01*
X106716498Y-109355264D01*
X106570827Y-109415602D01*
X106570814Y-109415609D01*
X106439711Y-109503210D01*
X106439707Y-109503213D01*
X106328213Y-109614707D01*
X106328210Y-109614711D01*
X106240609Y-109745814D01*
X106240602Y-109745827D01*
X106180264Y-109891498D01*
X106180261Y-109891510D01*
X106149500Y-110046153D01*
X87750500Y-110046153D01*
X87750500Y-106921153D01*
X109399500Y-106921153D01*
X109399500Y-107078846D01*
X109430261Y-107233489D01*
X109430264Y-107233501D01*
X109490602Y-107379172D01*
X109490609Y-107379185D01*
X109578210Y-107510288D01*
X109578213Y-107510292D01*
X109689707Y-107621786D01*
X109689711Y-107621789D01*
X109820814Y-107709390D01*
X109820827Y-107709397D01*
X109966498Y-107769735D01*
X109966503Y-107769737D01*
X110121153Y-107800499D01*
X110121156Y-107800500D01*
X110121158Y-107800500D01*
X110278844Y-107800500D01*
X110278845Y-107800499D01*
X110433497Y-107769737D01*
X110579179Y-107709394D01*
X110710289Y-107621789D01*
X110821789Y-107510289D01*
X110909394Y-107379179D01*
X110969737Y-107233497D01*
X110972192Y-107221153D01*
X125299500Y-107221153D01*
X125299500Y-107378846D01*
X125330261Y-107533489D01*
X125330264Y-107533501D01*
X125390602Y-107679172D01*
X125390609Y-107679185D01*
X125478210Y-107810288D01*
X125478213Y-107810292D01*
X125589707Y-107921786D01*
X125589711Y-107921789D01*
X125720814Y-108009390D01*
X125720827Y-108009397D01*
X125866498Y-108069735D01*
X125866503Y-108069737D01*
X126021153Y-108100499D01*
X126021156Y-108100500D01*
X126021158Y-108100500D01*
X126178844Y-108100500D01*
X126178845Y-108100499D01*
X126333497Y-108069737D01*
X126479179Y-108009394D01*
X126610289Y-107921789D01*
X126721789Y-107810289D01*
X126809394Y-107679179D01*
X126869737Y-107533497D01*
X126900500Y-107378842D01*
X126900500Y-107221158D01*
X126900500Y-107221155D01*
X126900499Y-107221153D01*
X126872192Y-107078846D01*
X126869737Y-107066503D01*
X126809534Y-106921158D01*
X126809397Y-106920827D01*
X126809390Y-106920814D01*
X126721789Y-106789711D01*
X126721786Y-106789707D01*
X126610292Y-106678213D01*
X126610288Y-106678210D01*
X126479185Y-106590609D01*
X126479172Y-106590602D01*
X126333501Y-106530264D01*
X126333489Y-106530261D01*
X126178845Y-106499500D01*
X126178842Y-106499500D01*
X126021158Y-106499500D01*
X126021155Y-106499500D01*
X125866510Y-106530261D01*
X125866498Y-106530264D01*
X125720827Y-106590602D01*
X125720814Y-106590609D01*
X125589711Y-106678210D01*
X125589707Y-106678213D01*
X125478213Y-106789707D01*
X125478210Y-106789711D01*
X125390609Y-106920814D01*
X125390602Y-106920827D01*
X125330264Y-107066498D01*
X125330261Y-107066510D01*
X125299500Y-107221153D01*
X110972192Y-107221153D01*
X110978216Y-107190874D01*
X110978216Y-107190873D01*
X111000499Y-107078846D01*
X111000500Y-107078844D01*
X111000500Y-106921155D01*
X111000499Y-106921153D01*
X110974353Y-106789711D01*
X110969737Y-106766503D01*
X110969735Y-106766498D01*
X110909397Y-106620827D01*
X110909390Y-106620814D01*
X110821789Y-106489711D01*
X110821786Y-106489707D01*
X110710292Y-106378213D01*
X110710288Y-106378210D01*
X110579185Y-106290609D01*
X110579172Y-106290602D01*
X110433501Y-106230264D01*
X110433489Y-106230261D01*
X110278845Y-106199500D01*
X110278842Y-106199500D01*
X110121158Y-106199500D01*
X110121155Y-106199500D01*
X109966510Y-106230261D01*
X109966498Y-106230264D01*
X109820827Y-106290602D01*
X109820814Y-106290609D01*
X109689711Y-106378210D01*
X109689707Y-106378213D01*
X109578213Y-106489707D01*
X109578210Y-106489711D01*
X109490609Y-106620814D01*
X109490602Y-106620827D01*
X109430264Y-106766498D01*
X109430261Y-106766510D01*
X109399500Y-106921153D01*
X87750500Y-106921153D01*
X87750500Y-104221153D01*
X105199500Y-104221153D01*
X105199500Y-104378846D01*
X105230261Y-104533489D01*
X105230264Y-104533501D01*
X105290602Y-104679172D01*
X105290609Y-104679185D01*
X105378210Y-104810288D01*
X105378213Y-104810292D01*
X105489707Y-104921786D01*
X105489711Y-104921789D01*
X105620814Y-105009390D01*
X105620827Y-105009397D01*
X105766498Y-105069735D01*
X105766503Y-105069737D01*
X105921153Y-105100499D01*
X105921156Y-105100500D01*
X105921158Y-105100500D01*
X106078844Y-105100500D01*
X106078845Y-105100499D01*
X106233497Y-105069737D01*
X106379179Y-105009394D01*
X106510289Y-104921789D01*
X106621789Y-104810289D01*
X106709394Y-104679179D01*
X106769737Y-104533497D01*
X106800500Y-104378842D01*
X106800500Y-104221158D01*
X106800500Y-104221155D01*
X106800499Y-104221153D01*
X106769738Y-104066510D01*
X106769737Y-104066503D01*
X106769735Y-104066498D01*
X106709397Y-103920827D01*
X106709390Y-103920814D01*
X106621789Y-103789711D01*
X106621786Y-103789707D01*
X106510292Y-103678213D01*
X106510288Y-103678210D01*
X106379185Y-103590609D01*
X106379172Y-103590602D01*
X106233501Y-103530264D01*
X106233489Y-103530261D01*
X106078845Y-103499500D01*
X106078842Y-103499500D01*
X105921158Y-103499500D01*
X105921155Y-103499500D01*
X105766510Y-103530261D01*
X105766498Y-103530264D01*
X105620827Y-103590602D01*
X105620814Y-103590609D01*
X105489711Y-103678210D01*
X105489707Y-103678213D01*
X105378213Y-103789707D01*
X105378210Y-103789711D01*
X105290609Y-103920814D01*
X105290602Y-103920827D01*
X105230264Y-104066498D01*
X105230261Y-104066510D01*
X105199500Y-104221153D01*
X87750500Y-104221153D01*
X87750500Y-102146153D01*
X97699500Y-102146153D01*
X97699500Y-102303846D01*
X97730261Y-102458489D01*
X97730264Y-102458501D01*
X97790602Y-102604172D01*
X97790609Y-102604185D01*
X97878210Y-102735288D01*
X97878213Y-102735292D01*
X97989707Y-102846786D01*
X97989711Y-102846789D01*
X98120814Y-102934390D01*
X98120827Y-102934397D01*
X98266498Y-102994735D01*
X98266503Y-102994737D01*
X98421153Y-103025499D01*
X98421156Y-103025500D01*
X98421158Y-103025500D01*
X98578844Y-103025500D01*
X98578845Y-103025499D01*
X98733497Y-102994737D01*
X98879179Y-102934394D01*
X99010289Y-102846789D01*
X99121789Y-102735289D01*
X99209394Y-102604179D01*
X99269737Y-102458497D01*
X99300500Y-102303842D01*
X99300500Y-102146158D01*
X99300500Y-102146155D01*
X99279236Y-102039258D01*
X99275635Y-102021153D01*
X104899500Y-102021153D01*
X104899500Y-102178846D01*
X104930261Y-102333489D01*
X104930264Y-102333501D01*
X104990602Y-102479172D01*
X104990609Y-102479185D01*
X105078210Y-102610288D01*
X105078213Y-102610292D01*
X105189707Y-102721786D01*
X105189711Y-102721789D01*
X105320814Y-102809390D01*
X105320827Y-102809397D01*
X105411101Y-102846789D01*
X105466503Y-102869737D01*
X105621153Y-102900499D01*
X105621156Y-102900500D01*
X105621158Y-102900500D01*
X105778844Y-102900500D01*
X105778845Y-102900499D01*
X105933497Y-102869737D01*
X106079179Y-102809394D01*
X106210289Y-102721789D01*
X106210925Y-102721153D01*
X109599500Y-102721153D01*
X109599500Y-102878846D01*
X109630261Y-103033489D01*
X109630264Y-103033501D01*
X109690602Y-103179172D01*
X109690609Y-103179185D01*
X109778210Y-103310288D01*
X109778213Y-103310292D01*
X109889707Y-103421786D01*
X109889711Y-103421789D01*
X110020814Y-103509390D01*
X110020827Y-103509397D01*
X110166498Y-103569735D01*
X110166503Y-103569737D01*
X110321153Y-103600499D01*
X110321156Y-103600500D01*
X110321158Y-103600500D01*
X110478844Y-103600500D01*
X110478845Y-103600499D01*
X110633497Y-103569737D01*
X110779179Y-103509394D01*
X110910289Y-103421789D01*
X111021789Y-103310289D01*
X111109394Y-103179179D01*
X111169737Y-103033497D01*
X111200500Y-102878842D01*
X111200500Y-102721158D01*
X111200500Y-102721155D01*
X111200499Y-102721153D01*
X111178447Y-102610292D01*
X111169737Y-102566503D01*
X111133569Y-102479185D01*
X111109397Y-102420827D01*
X111109390Y-102420814D01*
X111021789Y-102289711D01*
X111021786Y-102289707D01*
X110910292Y-102178213D01*
X110910288Y-102178210D01*
X110779185Y-102090609D01*
X110779172Y-102090602D01*
X110633501Y-102030264D01*
X110633489Y-102030261D01*
X110478845Y-101999500D01*
X110478842Y-101999500D01*
X110321158Y-101999500D01*
X110321155Y-101999500D01*
X110166510Y-102030261D01*
X110166498Y-102030264D01*
X110020827Y-102090602D01*
X110020814Y-102090609D01*
X109889711Y-102178210D01*
X109889707Y-102178213D01*
X109778213Y-102289707D01*
X109778210Y-102289711D01*
X109690609Y-102420814D01*
X109690602Y-102420827D01*
X109630264Y-102566498D01*
X109630261Y-102566510D01*
X109599500Y-102721153D01*
X106210925Y-102721153D01*
X106304694Y-102627385D01*
X106321786Y-102610292D01*
X106321789Y-102610289D01*
X106409394Y-102479179D01*
X106469737Y-102333497D01*
X106500500Y-102178842D01*
X106500500Y-102021158D01*
X106500500Y-102021155D01*
X106500499Y-102021153D01*
X106469738Y-101866510D01*
X106469737Y-101866503D01*
X106461170Y-101845821D01*
X106409397Y-101720827D01*
X106409390Y-101720814D01*
X106321789Y-101589711D01*
X106321786Y-101589707D01*
X106210292Y-101478213D01*
X106210288Y-101478210D01*
X106079185Y-101390609D01*
X106079172Y-101390602D01*
X105933501Y-101330264D01*
X105933489Y-101330261D01*
X105778845Y-101299500D01*
X105778842Y-101299500D01*
X105621158Y-101299500D01*
X105621155Y-101299500D01*
X105466510Y-101330261D01*
X105466498Y-101330264D01*
X105320827Y-101390602D01*
X105320814Y-101390609D01*
X105189711Y-101478210D01*
X105189707Y-101478213D01*
X105078213Y-101589707D01*
X105078210Y-101589711D01*
X104990609Y-101720814D01*
X104990602Y-101720827D01*
X104930264Y-101866498D01*
X104930261Y-101866510D01*
X104899500Y-102021153D01*
X99275635Y-102021153D01*
X99269737Y-101991503D01*
X99217959Y-101866498D01*
X99209397Y-101845827D01*
X99209390Y-101845814D01*
X99121789Y-101714711D01*
X99121786Y-101714707D01*
X99010292Y-101603213D01*
X99010288Y-101603210D01*
X98879185Y-101515609D01*
X98879172Y-101515602D01*
X98733501Y-101455264D01*
X98733489Y-101455261D01*
X98578845Y-101424500D01*
X98578842Y-101424500D01*
X98421158Y-101424500D01*
X98421155Y-101424500D01*
X98266510Y-101455261D01*
X98266498Y-101455264D01*
X98120827Y-101515602D01*
X98120814Y-101515609D01*
X97989711Y-101603210D01*
X97989707Y-101603213D01*
X97878213Y-101714707D01*
X97878210Y-101714711D01*
X97790609Y-101845814D01*
X97790602Y-101845827D01*
X97730264Y-101991498D01*
X97730261Y-101991510D01*
X97699500Y-102146153D01*
X87750500Y-102146153D01*
X87750500Y-97221153D01*
X119149500Y-97221153D01*
X119149500Y-97378846D01*
X119180261Y-97533489D01*
X119180264Y-97533501D01*
X119240602Y-97679172D01*
X119240609Y-97679185D01*
X119328210Y-97810288D01*
X119328213Y-97810292D01*
X119439707Y-97921786D01*
X119439711Y-97921789D01*
X119570814Y-98009390D01*
X119570827Y-98009397D01*
X119716498Y-98069735D01*
X119716503Y-98069737D01*
X119871153Y-98100499D01*
X119871156Y-98100500D01*
X119871158Y-98100500D01*
X120028844Y-98100500D01*
X120028845Y-98100499D01*
X120183497Y-98069737D01*
X120329179Y-98009394D01*
X120460289Y-97921789D01*
X120571789Y-97810289D01*
X120659394Y-97679179D01*
X120719737Y-97533497D01*
X120750500Y-97378842D01*
X120750500Y-97221158D01*
X120750500Y-97221155D01*
X120750499Y-97221153D01*
X120719738Y-97066510D01*
X120719737Y-97066503D01*
X120719735Y-97066498D01*
X120659397Y-96920827D01*
X120659390Y-96920814D01*
X120571789Y-96789711D01*
X120571786Y-96789707D01*
X120460292Y-96678213D01*
X120460288Y-96678210D01*
X120329185Y-96590609D01*
X120329172Y-96590602D01*
X120183501Y-96530264D01*
X120183489Y-96530261D01*
X120028845Y-96499500D01*
X120028842Y-96499500D01*
X119871158Y-96499500D01*
X119871155Y-96499500D01*
X119716510Y-96530261D01*
X119716498Y-96530264D01*
X119570827Y-96590602D01*
X119570814Y-96590609D01*
X119439711Y-96678210D01*
X119439707Y-96678213D01*
X119328213Y-96789707D01*
X119328210Y-96789711D01*
X119240609Y-96920814D01*
X119240602Y-96920827D01*
X119180264Y-97066498D01*
X119180261Y-97066510D01*
X119149500Y-97221153D01*
X87750500Y-97221153D01*
X87750500Y-95458644D01*
X93072500Y-95458644D01*
X93072500Y-95641355D01*
X93108141Y-95820534D01*
X93108143Y-95820542D01*
X93178058Y-95989333D01*
X93178063Y-95989342D01*
X93279563Y-96141246D01*
X93279566Y-96141250D01*
X93408749Y-96270433D01*
X93408753Y-96270436D01*
X93560657Y-96371936D01*
X93560663Y-96371939D01*
X93560664Y-96371940D01*
X93729458Y-96441857D01*
X93908644Y-96477499D01*
X93908648Y-96477500D01*
X93908649Y-96477500D01*
X94091352Y-96477500D01*
X94091353Y-96477499D01*
X94270542Y-96441857D01*
X94439336Y-96371940D01*
X94591247Y-96270436D01*
X94720436Y-96141247D01*
X94821940Y-95989336D01*
X94891857Y-95820542D01*
X94927500Y-95641351D01*
X94927500Y-95458649D01*
X94891857Y-95279458D01*
X94828168Y-95125699D01*
X94821941Y-95110666D01*
X94821936Y-95110657D01*
X94720436Y-94958753D01*
X94720433Y-94958749D01*
X94591250Y-94829566D01*
X94591246Y-94829563D01*
X94439342Y-94728063D01*
X94439331Y-94728057D01*
X94270542Y-94658143D01*
X94270534Y-94658141D01*
X94091355Y-94622500D01*
X94091351Y-94622500D01*
X93908649Y-94622500D01*
X93908644Y-94622500D01*
X93729465Y-94658141D01*
X93729457Y-94658143D01*
X93560666Y-94728058D01*
X93560657Y-94728063D01*
X93408753Y-94829563D01*
X93408749Y-94829566D01*
X93279566Y-94958749D01*
X93279563Y-94958753D01*
X93178063Y-95110657D01*
X93178058Y-95110666D01*
X93108143Y-95279457D01*
X93108141Y-95279465D01*
X93072500Y-95458644D01*
X87750500Y-95458644D01*
X87750500Y-94621153D01*
X96799500Y-94621153D01*
X96799500Y-94778846D01*
X96830261Y-94933489D01*
X96830264Y-94933501D01*
X96890602Y-95079172D01*
X96890609Y-95079185D01*
X96978210Y-95210288D01*
X96978213Y-95210292D01*
X97089707Y-95321786D01*
X97089711Y-95321789D01*
X97220814Y-95409390D01*
X97220827Y-95409397D01*
X97339734Y-95458649D01*
X97366503Y-95469737D01*
X97521153Y-95500499D01*
X97521156Y-95500500D01*
X97521158Y-95500500D01*
X97678844Y-95500500D01*
X97678845Y-95500499D01*
X97833497Y-95469737D01*
X97956997Y-95418582D01*
X97979172Y-95409397D01*
X97979172Y-95409396D01*
X97979179Y-95409394D01*
X97998996Y-95396153D01*
X99324500Y-95396153D01*
X99324500Y-95553846D01*
X99355261Y-95708489D01*
X99355264Y-95708501D01*
X99415602Y-95854172D01*
X99415609Y-95854185D01*
X99503210Y-95985288D01*
X99503213Y-95985292D01*
X99614707Y-96096786D01*
X99614711Y-96096789D01*
X99745814Y-96184390D01*
X99745827Y-96184397D01*
X99891498Y-96244735D01*
X99891503Y-96244737D01*
X100020685Y-96270433D01*
X100046153Y-96275499D01*
X100046156Y-96275500D01*
X100046158Y-96275500D01*
X100203844Y-96275500D01*
X100203845Y-96275499D01*
X100358497Y-96244737D01*
X100504179Y-96184394D01*
X100635289Y-96096789D01*
X100746789Y-95985289D01*
X100834394Y-95854179D01*
X100894737Y-95708497D01*
X100925500Y-95553842D01*
X100925500Y-95396158D01*
X100925500Y-95396155D01*
X100914182Y-95339258D01*
X100914182Y-95339257D01*
X100910581Y-95321153D01*
X105899500Y-95321153D01*
X105899500Y-95478846D01*
X105930261Y-95633489D01*
X105930264Y-95633501D01*
X105990602Y-95779172D01*
X105990609Y-95779185D01*
X106078210Y-95910288D01*
X106078213Y-95910292D01*
X106189707Y-96021786D01*
X106189711Y-96021789D01*
X106320814Y-96109390D01*
X106320827Y-96109397D01*
X106419802Y-96150393D01*
X106466503Y-96169737D01*
X106621153Y-96200499D01*
X106621156Y-96200500D01*
X106621158Y-96200500D01*
X106778844Y-96200500D01*
X106778845Y-96200499D01*
X106933497Y-96169737D01*
X107079179Y-96109394D01*
X107210289Y-96021789D01*
X107321789Y-95910289D01*
X107409394Y-95779179D01*
X107469737Y-95633497D01*
X107500500Y-95478842D01*
X107500500Y-95396153D01*
X109174500Y-95396153D01*
X109174500Y-95553846D01*
X109205261Y-95708489D01*
X109205264Y-95708501D01*
X109265602Y-95854172D01*
X109265609Y-95854185D01*
X109353210Y-95985288D01*
X109353213Y-95985292D01*
X109464707Y-96096786D01*
X109464711Y-96096789D01*
X109595814Y-96184390D01*
X109595827Y-96184397D01*
X109741498Y-96244735D01*
X109741503Y-96244737D01*
X109870685Y-96270433D01*
X109896153Y-96275499D01*
X109896156Y-96275500D01*
X109896158Y-96275500D01*
X110053844Y-96275500D01*
X110053845Y-96275499D01*
X110208497Y-96244737D01*
X110354179Y-96184394D01*
X110373996Y-96171153D01*
X114759500Y-96171153D01*
X114759500Y-96328846D01*
X114790261Y-96483489D01*
X114790264Y-96483501D01*
X114850602Y-96629172D01*
X114850609Y-96629185D01*
X114938210Y-96760288D01*
X114938213Y-96760292D01*
X115049707Y-96871786D01*
X115049711Y-96871789D01*
X115180814Y-96959390D01*
X115180827Y-96959397D01*
X115326498Y-97019735D01*
X115326503Y-97019737D01*
X115481153Y-97050499D01*
X115481156Y-97050500D01*
X115481158Y-97050500D01*
X115638844Y-97050500D01*
X115638845Y-97050499D01*
X115793497Y-97019737D01*
X115939179Y-96959394D01*
X116070289Y-96871789D01*
X116181789Y-96760289D01*
X116269394Y-96629179D01*
X116329737Y-96483497D01*
X116360500Y-96328842D01*
X116360500Y-96171158D01*
X116360500Y-96171155D01*
X116360499Y-96171153D01*
X116360217Y-96169735D01*
X116329737Y-96016503D01*
X116316808Y-95985289D01*
X116269397Y-95870827D01*
X116269390Y-95870814D01*
X116181789Y-95739711D01*
X116181786Y-95739707D01*
X116070292Y-95628213D01*
X116070288Y-95628210D01*
X115998559Y-95580282D01*
X115939185Y-95540609D01*
X115939172Y-95540602D01*
X115800751Y-95483267D01*
X118322500Y-95483267D01*
X118322500Y-95616732D01*
X118348533Y-95747610D01*
X118348536Y-95747620D01*
X118399607Y-95870917D01*
X118399608Y-95870920D01*
X118473750Y-95981880D01*
X118473753Y-95981884D01*
X118568115Y-96076246D01*
X118568119Y-96076249D01*
X118679079Y-96150391D01*
X118679081Y-96150391D01*
X118679083Y-96150393D01*
X118802381Y-96201464D01*
X118802384Y-96201464D01*
X118802389Y-96201466D01*
X118933267Y-96227499D01*
X118933270Y-96227500D01*
X118933272Y-96227500D01*
X119066730Y-96227500D01*
X119066731Y-96227499D01*
X119131312Y-96214653D01*
X119197610Y-96201466D01*
X119197612Y-96201465D01*
X119197619Y-96201464D01*
X119320917Y-96150393D01*
X119431881Y-96076249D01*
X119526249Y-95981881D01*
X119600393Y-95870917D01*
X119651464Y-95747619D01*
X119659248Y-95708489D01*
X119672602Y-95641351D01*
X119677500Y-95616728D01*
X119677500Y-95483272D01*
X119677500Y-95483269D01*
X119677499Y-95483267D01*
X119651466Y-95352389D01*
X119651463Y-95352379D01*
X119600393Y-95229083D01*
X119600391Y-95229081D01*
X119600391Y-95229079D01*
X119526249Y-95118119D01*
X119526246Y-95118115D01*
X119431884Y-95023753D01*
X119431880Y-95023750D01*
X119320920Y-94949608D01*
X119320917Y-94949607D01*
X119197620Y-94898536D01*
X119197610Y-94898533D01*
X119066731Y-94872500D01*
X119066728Y-94872500D01*
X118933272Y-94872500D01*
X118933269Y-94872500D01*
X118802389Y-94898533D01*
X118802379Y-94898536D01*
X118679082Y-94949607D01*
X118679079Y-94949608D01*
X118568119Y-95023750D01*
X118568115Y-95023753D01*
X118473753Y-95118115D01*
X118473750Y-95118119D01*
X118399608Y-95229079D01*
X118399607Y-95229082D01*
X118348536Y-95352379D01*
X118348533Y-95352389D01*
X118322500Y-95483267D01*
X115800751Y-95483267D01*
X115793501Y-95480264D01*
X115793489Y-95480261D01*
X115638845Y-95449500D01*
X115638842Y-95449500D01*
X115481158Y-95449500D01*
X115481155Y-95449500D01*
X115326510Y-95480261D01*
X115326498Y-95480264D01*
X115180827Y-95540602D01*
X115180814Y-95540609D01*
X115049711Y-95628210D01*
X115049707Y-95628213D01*
X114938213Y-95739707D01*
X114938210Y-95739711D01*
X114850609Y-95870814D01*
X114850602Y-95870827D01*
X114790264Y-96016498D01*
X114790261Y-96016510D01*
X114759500Y-96171153D01*
X110373996Y-96171153D01*
X110485289Y-96096789D01*
X110485292Y-96096786D01*
X110504694Y-96077385D01*
X110596786Y-95985292D01*
X110596789Y-95985289D01*
X110684394Y-95854179D01*
X110744737Y-95708497D01*
X110775500Y-95553842D01*
X110775500Y-95396158D01*
X110775500Y-95396155D01*
X110775499Y-95396153D01*
X110764182Y-95339258D01*
X110744737Y-95241503D01*
X110731808Y-95210289D01*
X110684397Y-95095827D01*
X110684390Y-95095814D01*
X110596789Y-94964711D01*
X110596786Y-94964707D01*
X110485292Y-94853213D01*
X110485288Y-94853210D01*
X110354185Y-94765609D01*
X110354172Y-94765602D01*
X110208501Y-94705264D01*
X110208491Y-94705261D01*
X110115092Y-94686683D01*
X110115091Y-94686682D01*
X110053845Y-94674500D01*
X110053842Y-94674500D01*
X109896158Y-94674500D01*
X109896155Y-94674500D01*
X109741510Y-94705261D01*
X109741498Y-94705264D01*
X109595827Y-94765602D01*
X109595814Y-94765609D01*
X109464711Y-94853210D01*
X109464707Y-94853213D01*
X109353213Y-94964707D01*
X109353210Y-94964711D01*
X109265609Y-95095814D01*
X109265602Y-95095827D01*
X109205264Y-95241498D01*
X109205261Y-95241510D01*
X109174500Y-95396153D01*
X107500500Y-95396153D01*
X107500500Y-95321158D01*
X107500500Y-95321155D01*
X107500499Y-95321153D01*
X107484657Y-95241510D01*
X107469737Y-95166503D01*
X107452836Y-95125699D01*
X107409397Y-95020827D01*
X107409390Y-95020814D01*
X107321789Y-94889711D01*
X107321786Y-94889707D01*
X107210292Y-94778213D01*
X107210288Y-94778210D01*
X107079185Y-94690609D01*
X107079172Y-94690602D01*
X106933501Y-94630264D01*
X106933489Y-94630261D01*
X106778845Y-94599500D01*
X106778842Y-94599500D01*
X106621158Y-94599500D01*
X106621155Y-94599500D01*
X106466510Y-94630261D01*
X106466498Y-94630264D01*
X106320827Y-94690602D01*
X106320814Y-94690609D01*
X106189711Y-94778210D01*
X106189707Y-94778213D01*
X106078213Y-94889707D01*
X106078210Y-94889711D01*
X105990609Y-95020814D01*
X105990602Y-95020827D01*
X105930264Y-95166498D01*
X105930261Y-95166510D01*
X105899500Y-95321153D01*
X100910581Y-95321153D01*
X100902287Y-95279458D01*
X100894737Y-95241503D01*
X100881808Y-95210289D01*
X100834397Y-95095827D01*
X100834390Y-95095814D01*
X100746789Y-94964711D01*
X100746786Y-94964707D01*
X100635292Y-94853213D01*
X100635288Y-94853210D01*
X100504185Y-94765609D01*
X100504172Y-94765602D01*
X100358501Y-94705264D01*
X100358489Y-94705261D01*
X100203845Y-94674500D01*
X100203842Y-94674500D01*
X100046158Y-94674500D01*
X100046155Y-94674500D01*
X99891510Y-94705261D01*
X99891498Y-94705264D01*
X99745827Y-94765602D01*
X99745814Y-94765609D01*
X99614711Y-94853210D01*
X99614707Y-94853213D01*
X99503213Y-94964707D01*
X99503210Y-94964711D01*
X99415609Y-95095814D01*
X99415602Y-95095827D01*
X99355264Y-95241498D01*
X99355261Y-95241510D01*
X99324500Y-95396153D01*
X97998996Y-95396153D01*
X98110289Y-95321789D01*
X98110925Y-95321153D01*
X98129694Y-95302385D01*
X98221786Y-95210292D01*
X98221789Y-95210289D01*
X98309394Y-95079179D01*
X98369737Y-94933497D01*
X98400500Y-94778842D01*
X98400500Y-94621158D01*
X98400500Y-94621155D01*
X98400499Y-94621153D01*
X98390553Y-94571153D01*
X124349500Y-94571153D01*
X124349500Y-94728846D01*
X124380261Y-94883489D01*
X124380264Y-94883501D01*
X124440602Y-95029172D01*
X124440609Y-95029185D01*
X124528210Y-95160288D01*
X124528213Y-95160292D01*
X124639707Y-95271786D01*
X124639711Y-95271789D01*
X124770814Y-95359390D01*
X124770827Y-95359397D01*
X124916498Y-95419735D01*
X124916503Y-95419737D01*
X125066131Y-95449500D01*
X125071153Y-95450499D01*
X125071156Y-95450500D01*
X125071158Y-95450500D01*
X125228844Y-95450500D01*
X125228845Y-95450499D01*
X125383497Y-95419737D01*
X125529179Y-95359394D01*
X125660289Y-95271789D01*
X125771789Y-95160289D01*
X125859394Y-95029179D01*
X125862854Y-95020827D01*
X125892353Y-94949608D01*
X125919737Y-94883497D01*
X125950500Y-94728842D01*
X125950500Y-94571158D01*
X125950500Y-94571155D01*
X125950499Y-94571153D01*
X125929684Y-94466510D01*
X125919737Y-94416503D01*
X125880102Y-94320814D01*
X125859397Y-94270827D01*
X125859390Y-94270814D01*
X125771789Y-94139711D01*
X125771786Y-94139707D01*
X125660292Y-94028213D01*
X125660288Y-94028210D01*
X125568056Y-93966582D01*
X129397500Y-93966582D01*
X129397500Y-94183417D01*
X129431418Y-94397566D01*
X129498418Y-94603774D01*
X129561747Y-94728063D01*
X129596856Y-94796968D01*
X129724301Y-94972381D01*
X129877619Y-95125699D01*
X130053032Y-95253144D01*
X130104690Y-95279465D01*
X130246225Y-95351581D01*
X130270281Y-95359397D01*
X130452435Y-95418582D01*
X130551619Y-95434291D01*
X130666583Y-95452500D01*
X130666588Y-95452500D01*
X130883417Y-95452500D01*
X130987233Y-95436056D01*
X131097565Y-95418582D01*
X131303777Y-95351580D01*
X131496968Y-95253144D01*
X131672381Y-95125699D01*
X131825699Y-94972381D01*
X131953144Y-94796968D01*
X132051580Y-94603777D01*
X132118582Y-94397565D01*
X132138657Y-94270814D01*
X132152500Y-94183417D01*
X132152500Y-93966582D01*
X132130736Y-93829172D01*
X132118582Y-93752435D01*
X132071811Y-93608489D01*
X132051581Y-93546225D01*
X132042724Y-93528842D01*
X131953144Y-93353032D01*
X131825699Y-93177619D01*
X131672381Y-93024301D01*
X131496968Y-92896856D01*
X131482937Y-92889707D01*
X131303774Y-92798418D01*
X131097566Y-92731418D01*
X130883417Y-92697500D01*
X130883412Y-92697500D01*
X130666588Y-92697500D01*
X130666583Y-92697500D01*
X130452433Y-92731418D01*
X130246225Y-92798418D01*
X130053031Y-92896856D01*
X129994047Y-92939711D01*
X129877619Y-93024301D01*
X129877617Y-93024303D01*
X129877616Y-93024303D01*
X129724303Y-93177616D01*
X129724303Y-93177617D01*
X129724301Y-93177619D01*
X129696054Y-93216498D01*
X129596856Y-93353031D01*
X129498418Y-93546225D01*
X129431418Y-93752433D01*
X129397500Y-93966582D01*
X125568056Y-93966582D01*
X125529185Y-93940609D01*
X125529172Y-93940602D01*
X125383501Y-93880264D01*
X125383489Y-93880261D01*
X125228845Y-93849500D01*
X125228842Y-93849500D01*
X125071158Y-93849500D01*
X125071155Y-93849500D01*
X124916510Y-93880261D01*
X124916498Y-93880264D01*
X124770827Y-93940602D01*
X124770814Y-93940609D01*
X124639711Y-94028210D01*
X124639707Y-94028213D01*
X124528213Y-94139707D01*
X124528210Y-94139711D01*
X124440609Y-94270814D01*
X124440602Y-94270827D01*
X124380264Y-94416498D01*
X124380261Y-94416510D01*
X124349500Y-94571153D01*
X98390553Y-94571153D01*
X98369738Y-94466510D01*
X98369737Y-94466503D01*
X98369735Y-94466498D01*
X98309397Y-94320827D01*
X98309390Y-94320814D01*
X98221789Y-94189711D01*
X98221786Y-94189707D01*
X98110292Y-94078213D01*
X98110288Y-94078210D01*
X97979185Y-93990609D01*
X97979172Y-93990602D01*
X97833501Y-93930264D01*
X97833489Y-93930261D01*
X97678845Y-93899500D01*
X97678842Y-93899500D01*
X97521158Y-93899500D01*
X97521155Y-93899500D01*
X97366510Y-93930261D01*
X97366498Y-93930264D01*
X97220827Y-93990602D01*
X97220814Y-93990609D01*
X97089711Y-94078210D01*
X97089707Y-94078213D01*
X96978213Y-94189707D01*
X96978210Y-94189711D01*
X96890609Y-94320814D01*
X96890602Y-94320827D01*
X96830264Y-94466498D01*
X96830261Y-94466510D01*
X96799500Y-94621153D01*
X87750500Y-94621153D01*
X87750500Y-93296153D01*
X99474500Y-93296153D01*
X99474500Y-93453846D01*
X99505261Y-93608489D01*
X99505264Y-93608501D01*
X99565602Y-93754172D01*
X99565609Y-93754185D01*
X99653210Y-93885288D01*
X99653213Y-93885292D01*
X99764707Y-93996786D01*
X99764711Y-93996789D01*
X99895814Y-94084390D01*
X99895827Y-94084397D01*
X100029359Y-94139707D01*
X100041503Y-94144737D01*
X100167176Y-94169735D01*
X100196153Y-94175499D01*
X100196156Y-94175500D01*
X100196158Y-94175500D01*
X100353844Y-94175500D01*
X100353845Y-94175499D01*
X100508497Y-94144737D01*
X100654179Y-94084394D01*
X100785289Y-93996789D01*
X100896789Y-93885289D01*
X100984394Y-93754179D01*
X101044737Y-93608497D01*
X101075500Y-93453842D01*
X101075500Y-93321153D01*
X104299500Y-93321153D01*
X104299500Y-93478846D01*
X104330261Y-93633489D01*
X104330264Y-93633501D01*
X104390602Y-93779172D01*
X104390609Y-93779185D01*
X104478210Y-93910288D01*
X104478213Y-93910292D01*
X104589707Y-94021786D01*
X104589711Y-94021789D01*
X104720814Y-94109390D01*
X104720827Y-94109397D01*
X104866498Y-94169735D01*
X104866503Y-94169737D01*
X105021153Y-94200499D01*
X105021156Y-94200500D01*
X105021158Y-94200500D01*
X105178844Y-94200500D01*
X105178845Y-94200499D01*
X105333497Y-94169737D01*
X105479179Y-94109394D01*
X105610289Y-94021789D01*
X105721789Y-93910289D01*
X105809394Y-93779179D01*
X105869737Y-93633497D01*
X105900500Y-93478842D01*
X105900500Y-93371153D01*
X106999500Y-93371153D01*
X106999500Y-93528846D01*
X107030261Y-93683489D01*
X107030264Y-93683501D01*
X107090602Y-93829172D01*
X107090609Y-93829185D01*
X107178210Y-93960288D01*
X107178213Y-93960292D01*
X107289707Y-94071786D01*
X107289711Y-94071789D01*
X107420814Y-94159390D01*
X107420827Y-94159397D01*
X107520060Y-94200500D01*
X107566503Y-94219737D01*
X107721153Y-94250499D01*
X107721156Y-94250500D01*
X107721158Y-94250500D01*
X107878844Y-94250500D01*
X107878845Y-94250499D01*
X108033497Y-94219737D01*
X108179179Y-94159394D01*
X108310289Y-94071789D01*
X108421789Y-93960289D01*
X108509394Y-93829179D01*
X108569737Y-93683497D01*
X108600500Y-93528842D01*
X108600500Y-93371158D01*
X108600500Y-93371155D01*
X108584209Y-93289258D01*
X108584209Y-93289257D01*
X108580608Y-93271153D01*
X109149500Y-93271153D01*
X109149500Y-93428846D01*
X109180261Y-93583489D01*
X109180264Y-93583501D01*
X109240602Y-93729172D01*
X109240609Y-93729185D01*
X109328210Y-93860288D01*
X109328213Y-93860292D01*
X109439707Y-93971786D01*
X109439711Y-93971789D01*
X109570814Y-94059390D01*
X109570827Y-94059397D01*
X109716498Y-94119735D01*
X109716503Y-94119737D01*
X109842176Y-94144735D01*
X109871153Y-94150499D01*
X109871156Y-94150500D01*
X109871158Y-94150500D01*
X110028844Y-94150500D01*
X110028845Y-94150499D01*
X110183497Y-94119737D01*
X110329179Y-94059394D01*
X110460289Y-93971789D01*
X110571789Y-93860289D01*
X110659394Y-93729179D01*
X110719737Y-93583497D01*
X110750500Y-93428842D01*
X110750500Y-93271158D01*
X110750500Y-93271155D01*
X110750499Y-93271153D01*
X116399500Y-93271153D01*
X116399500Y-93428846D01*
X116430261Y-93583489D01*
X116430264Y-93583501D01*
X116490602Y-93729172D01*
X116490609Y-93729185D01*
X116578210Y-93860288D01*
X116578213Y-93860292D01*
X116689707Y-93971786D01*
X116689711Y-93971789D01*
X116820814Y-94059390D01*
X116820827Y-94059397D01*
X116966498Y-94119735D01*
X116966503Y-94119737D01*
X117092176Y-94144735D01*
X117121153Y-94150499D01*
X117121156Y-94150500D01*
X117121158Y-94150500D01*
X117278844Y-94150500D01*
X117278845Y-94150499D01*
X117433497Y-94119737D01*
X117579179Y-94059394D01*
X117710289Y-93971789D01*
X117821789Y-93860289D01*
X117909394Y-93729179D01*
X117969737Y-93583497D01*
X118000500Y-93428842D01*
X118000500Y-93271158D01*
X118000500Y-93271155D01*
X118000499Y-93271153D01*
X117979684Y-93166510D01*
X117969737Y-93116503D01*
X117933569Y-93029185D01*
X117909397Y-92970827D01*
X117909390Y-92970814D01*
X117821789Y-92839711D01*
X117821786Y-92839707D01*
X117710292Y-92728213D01*
X117710288Y-92728210D01*
X117620429Y-92668168D01*
X117579185Y-92640609D01*
X117579172Y-92640602D01*
X117433501Y-92580264D01*
X117433489Y-92580261D01*
X117387701Y-92571153D01*
X118349500Y-92571153D01*
X118349500Y-92728846D01*
X118380261Y-92883489D01*
X118380264Y-92883501D01*
X118440602Y-93029172D01*
X118440609Y-93029185D01*
X118528210Y-93160288D01*
X118528213Y-93160292D01*
X118639707Y-93271786D01*
X118639711Y-93271789D01*
X118770814Y-93359390D01*
X118770827Y-93359397D01*
X118916498Y-93419735D01*
X118916503Y-93419737D01*
X119071153Y-93450499D01*
X119071156Y-93450500D01*
X119071158Y-93450500D01*
X119228844Y-93450500D01*
X119228845Y-93450499D01*
X119383497Y-93419737D01*
X119529179Y-93359394D01*
X119660289Y-93271789D01*
X119771789Y-93160289D01*
X119859394Y-93029179D01*
X119862854Y-93020827D01*
X119883569Y-92970814D01*
X119919737Y-92883497D01*
X119950500Y-92728842D01*
X119950500Y-92571158D01*
X119950500Y-92571155D01*
X119950499Y-92571153D01*
X119919738Y-92416510D01*
X119919737Y-92416503D01*
X119919735Y-92416498D01*
X119859397Y-92270827D01*
X119859390Y-92270814D01*
X119771789Y-92139711D01*
X119771786Y-92139707D01*
X119660292Y-92028213D01*
X119660288Y-92028210D01*
X119529185Y-91940609D01*
X119529172Y-91940602D01*
X119383501Y-91880264D01*
X119383489Y-91880261D01*
X119228845Y-91849500D01*
X119228842Y-91849500D01*
X119071158Y-91849500D01*
X119071155Y-91849500D01*
X118916510Y-91880261D01*
X118916498Y-91880264D01*
X118770827Y-91940602D01*
X118770814Y-91940609D01*
X118639711Y-92028210D01*
X118639707Y-92028213D01*
X118528213Y-92139707D01*
X118528210Y-92139711D01*
X118440609Y-92270814D01*
X118440602Y-92270827D01*
X118380264Y-92416498D01*
X118380261Y-92416510D01*
X118349500Y-92571153D01*
X117387701Y-92571153D01*
X117278845Y-92549500D01*
X117278842Y-92549500D01*
X117121158Y-92549500D01*
X117121155Y-92549500D01*
X116966510Y-92580261D01*
X116966498Y-92580264D01*
X116820827Y-92640602D01*
X116820814Y-92640609D01*
X116689711Y-92728210D01*
X116689707Y-92728213D01*
X116578213Y-92839707D01*
X116578210Y-92839711D01*
X116490609Y-92970814D01*
X116490602Y-92970827D01*
X116430264Y-93116498D01*
X116430261Y-93116510D01*
X116399500Y-93271153D01*
X110750499Y-93271153D01*
X110729684Y-93166510D01*
X110719737Y-93116503D01*
X110683569Y-93029185D01*
X110659397Y-92970827D01*
X110659390Y-92970814D01*
X110571789Y-92839711D01*
X110571786Y-92839707D01*
X110460292Y-92728213D01*
X110460288Y-92728210D01*
X110329185Y-92640609D01*
X110329172Y-92640602D01*
X110183501Y-92580264D01*
X110183489Y-92580261D01*
X110028845Y-92549500D01*
X110028842Y-92549500D01*
X109871158Y-92549500D01*
X109871155Y-92549500D01*
X109716510Y-92580261D01*
X109716498Y-92580264D01*
X109570827Y-92640602D01*
X109570814Y-92640609D01*
X109439711Y-92728210D01*
X109439707Y-92728213D01*
X109328213Y-92839707D01*
X109328210Y-92839711D01*
X109240609Y-92970814D01*
X109240602Y-92970827D01*
X109180264Y-93116498D01*
X109180261Y-93116510D01*
X109149500Y-93271153D01*
X108580608Y-93271153D01*
X108569738Y-93216510D01*
X108569737Y-93216503D01*
X108553630Y-93177616D01*
X108509397Y-93070827D01*
X108509390Y-93070814D01*
X108421789Y-92939711D01*
X108421786Y-92939707D01*
X108310292Y-92828213D01*
X108310288Y-92828210D01*
X108179185Y-92740609D01*
X108179172Y-92740602D01*
X108033501Y-92680264D01*
X108033489Y-92680261D01*
X107878845Y-92649500D01*
X107878842Y-92649500D01*
X107721158Y-92649500D01*
X107721155Y-92649500D01*
X107566510Y-92680261D01*
X107566498Y-92680264D01*
X107420827Y-92740602D01*
X107420814Y-92740609D01*
X107289711Y-92828210D01*
X107289707Y-92828213D01*
X107178213Y-92939707D01*
X107178210Y-92939711D01*
X107090609Y-93070814D01*
X107090602Y-93070827D01*
X107030264Y-93216498D01*
X107030261Y-93216510D01*
X106999500Y-93371153D01*
X105900500Y-93371153D01*
X105900500Y-93321158D01*
X105900500Y-93321155D01*
X105900499Y-93321153D01*
X105895527Y-93296158D01*
X105869737Y-93166503D01*
X105859380Y-93141498D01*
X105809397Y-93020827D01*
X105809390Y-93020814D01*
X105721789Y-92889711D01*
X105721786Y-92889707D01*
X105610292Y-92778213D01*
X105610288Y-92778210D01*
X105479185Y-92690609D01*
X105479172Y-92690602D01*
X105333501Y-92630264D01*
X105333489Y-92630261D01*
X105178845Y-92599500D01*
X105178842Y-92599500D01*
X105021158Y-92599500D01*
X105021155Y-92599500D01*
X104866510Y-92630261D01*
X104866498Y-92630264D01*
X104720827Y-92690602D01*
X104720814Y-92690609D01*
X104589711Y-92778210D01*
X104589707Y-92778213D01*
X104478213Y-92889707D01*
X104478210Y-92889711D01*
X104390609Y-93020814D01*
X104390602Y-93020827D01*
X104330264Y-93166498D01*
X104330261Y-93166510D01*
X104299500Y-93321153D01*
X101075500Y-93321153D01*
X101075500Y-93296158D01*
X101075500Y-93296155D01*
X101075499Y-93296153D01*
X101070527Y-93271158D01*
X101044737Y-93141503D01*
X101034380Y-93116498D01*
X100984397Y-92995827D01*
X100984390Y-92995814D01*
X100896789Y-92864711D01*
X100896786Y-92864707D01*
X100785292Y-92753213D01*
X100785288Y-92753210D01*
X100654185Y-92665609D01*
X100654172Y-92665602D01*
X100508501Y-92605264D01*
X100508489Y-92605261D01*
X100353845Y-92574500D01*
X100353842Y-92574500D01*
X100196158Y-92574500D01*
X100196155Y-92574500D01*
X100041510Y-92605261D01*
X100041498Y-92605264D01*
X99895827Y-92665602D01*
X99895814Y-92665609D01*
X99764711Y-92753210D01*
X99764707Y-92753213D01*
X99653213Y-92864707D01*
X99653210Y-92864711D01*
X99565609Y-92995814D01*
X99565602Y-92995827D01*
X99505264Y-93141498D01*
X99505261Y-93141510D01*
X99474500Y-93296153D01*
X87750500Y-93296153D01*
X87750500Y-85653051D01*
X87750649Y-85646967D01*
X87761786Y-85420261D01*
X87761786Y-85420259D01*
X91199500Y-85420259D01*
X91199500Y-85779740D01*
X91239746Y-86136935D01*
X91239748Y-86136951D01*
X91319737Y-86487407D01*
X91319741Y-86487419D01*
X91438465Y-86826711D01*
X91594432Y-87150579D01*
X91594434Y-87150582D01*
X91785685Y-87454956D01*
X92009812Y-87736003D01*
X92263997Y-87990188D01*
X92545044Y-88214315D01*
X92849418Y-88405566D01*
X93173292Y-88561536D01*
X93428119Y-88650703D01*
X93512580Y-88680258D01*
X93512592Y-88680262D01*
X93863052Y-88760252D01*
X94220260Y-88800499D01*
X94220261Y-88800500D01*
X94220264Y-88800500D01*
X94579739Y-88800500D01*
X94579739Y-88800499D01*
X94936948Y-88760252D01*
X95287408Y-88680262D01*
X95626708Y-88561536D01*
X95950582Y-88405566D01*
X96254956Y-88214315D01*
X96536003Y-87990188D01*
X96790188Y-87736003D01*
X97014315Y-87454956D01*
X97130262Y-87270427D01*
X102157500Y-87270427D01*
X102157500Y-87389572D01*
X102188337Y-87504660D01*
X102218123Y-87556250D01*
X102247910Y-87607842D01*
X102332158Y-87692090D01*
X102435341Y-87751663D01*
X102550427Y-87782500D01*
X102550429Y-87782500D01*
X102669571Y-87782500D01*
X102669573Y-87782500D01*
X102784659Y-87751663D01*
X102887842Y-87692090D01*
X102972090Y-87607842D01*
X103031663Y-87504659D01*
X103062500Y-87389573D01*
X103062500Y-87270427D01*
X107937500Y-87270427D01*
X107937500Y-87389572D01*
X107968337Y-87504660D01*
X107998123Y-87556250D01*
X108027910Y-87607842D01*
X108112158Y-87692090D01*
X108215341Y-87751663D01*
X108330427Y-87782500D01*
X108330429Y-87782500D01*
X108449571Y-87782500D01*
X108449573Y-87782500D01*
X108564659Y-87751663D01*
X108667842Y-87692090D01*
X108752090Y-87607842D01*
X108811663Y-87504659D01*
X108842500Y-87389573D01*
X108842500Y-87270427D01*
X108811663Y-87155341D01*
X108752090Y-87052158D01*
X108667842Y-86967910D01*
X108616250Y-86938123D01*
X108564660Y-86908337D01*
X108507116Y-86892918D01*
X108449573Y-86877500D01*
X108330427Y-86877500D01*
X108215339Y-86908337D01*
X108112158Y-86967910D01*
X108112155Y-86967912D01*
X108027912Y-87052155D01*
X108027910Y-87052158D01*
X107968337Y-87155339D01*
X107937500Y-87270427D01*
X103062500Y-87270427D01*
X103031663Y-87155341D01*
X102972090Y-87052158D01*
X102887842Y-86967910D01*
X102836250Y-86938123D01*
X102784660Y-86908337D01*
X102727116Y-86892918D01*
X102669573Y-86877500D01*
X102550427Y-86877500D01*
X102435339Y-86908337D01*
X102332158Y-86967910D01*
X102332155Y-86967912D01*
X102247912Y-87052155D01*
X102247910Y-87052158D01*
X102188337Y-87155339D01*
X102157500Y-87270427D01*
X97130262Y-87270427D01*
X97205566Y-87150582D01*
X97361536Y-86826708D01*
X97480262Y-86487408D01*
X97560252Y-86136948D01*
X97600500Y-85779736D01*
X97600500Y-85420264D01*
X97600499Y-85420259D01*
X113499500Y-85420259D01*
X113499500Y-85779740D01*
X113539746Y-86136935D01*
X113539748Y-86136951D01*
X113619737Y-86487407D01*
X113619741Y-86487419D01*
X113738465Y-86826711D01*
X113894432Y-87150579D01*
X113894434Y-87150582D01*
X114085685Y-87454956D01*
X114309812Y-87736003D01*
X114563997Y-87990188D01*
X114845044Y-88214315D01*
X115149418Y-88405566D01*
X115473292Y-88561536D01*
X115728119Y-88650703D01*
X115812580Y-88680258D01*
X115812592Y-88680262D01*
X116163052Y-88760252D01*
X116520260Y-88800499D01*
X116520261Y-88800500D01*
X116520264Y-88800500D01*
X116879739Y-88800500D01*
X116879739Y-88800499D01*
X117236948Y-88760252D01*
X117587408Y-88680262D01*
X117926708Y-88561536D01*
X118250582Y-88405566D01*
X118554956Y-88214315D01*
X118836003Y-87990188D01*
X119090188Y-87736003D01*
X119314315Y-87454956D01*
X119430262Y-87270427D01*
X121657500Y-87270427D01*
X121657500Y-87389572D01*
X121688337Y-87504660D01*
X121718123Y-87556250D01*
X121747910Y-87607842D01*
X121832158Y-87692090D01*
X121935341Y-87751663D01*
X122050427Y-87782500D01*
X122050429Y-87782500D01*
X122169571Y-87782500D01*
X122169573Y-87782500D01*
X122284659Y-87751663D01*
X122387842Y-87692090D01*
X122472090Y-87607842D01*
X122531663Y-87504659D01*
X122562500Y-87389573D01*
X122562500Y-87270427D01*
X127437500Y-87270427D01*
X127437500Y-87389572D01*
X127468337Y-87504660D01*
X127498123Y-87556250D01*
X127527910Y-87607842D01*
X127612158Y-87692090D01*
X127715341Y-87751663D01*
X127830427Y-87782500D01*
X127830429Y-87782500D01*
X127949571Y-87782500D01*
X127949573Y-87782500D01*
X128064659Y-87751663D01*
X128167842Y-87692090D01*
X128252090Y-87607842D01*
X128311663Y-87504659D01*
X128342500Y-87389573D01*
X128342500Y-87270427D01*
X128311663Y-87155341D01*
X128252090Y-87052158D01*
X128167842Y-86967910D01*
X128116250Y-86938123D01*
X128064660Y-86908337D01*
X128007116Y-86892918D01*
X127949573Y-86877500D01*
X127830427Y-86877500D01*
X127715339Y-86908337D01*
X127612158Y-86967910D01*
X127612155Y-86967912D01*
X127527912Y-87052155D01*
X127527910Y-87052158D01*
X127468337Y-87155339D01*
X127437500Y-87270427D01*
X122562500Y-87270427D01*
X122531663Y-87155341D01*
X122472090Y-87052158D01*
X122387842Y-86967910D01*
X122336250Y-86938123D01*
X122284660Y-86908337D01*
X122227116Y-86892918D01*
X122169573Y-86877500D01*
X122050427Y-86877500D01*
X121935339Y-86908337D01*
X121832158Y-86967910D01*
X121832155Y-86967912D01*
X121747912Y-87052155D01*
X121747910Y-87052158D01*
X121688337Y-87155339D01*
X121657500Y-87270427D01*
X119430262Y-87270427D01*
X119505566Y-87150582D01*
X119661536Y-86826708D01*
X119780262Y-86487408D01*
X119860252Y-86136948D01*
X119900500Y-85779736D01*
X119900500Y-85671153D01*
X124299500Y-85671153D01*
X124299500Y-85828846D01*
X124330261Y-85983489D01*
X124330264Y-85983501D01*
X124390602Y-86129172D01*
X124390609Y-86129185D01*
X124478210Y-86260288D01*
X124478213Y-86260292D01*
X124589707Y-86371786D01*
X124589711Y-86371789D01*
X124720814Y-86459390D01*
X124720827Y-86459397D01*
X124866498Y-86519735D01*
X124866503Y-86519737D01*
X125021153Y-86550499D01*
X125021156Y-86550500D01*
X125021158Y-86550500D01*
X125178844Y-86550500D01*
X125178845Y-86550499D01*
X125333497Y-86519737D01*
X125479179Y-86459394D01*
X125610289Y-86371789D01*
X125721789Y-86260289D01*
X125809394Y-86129179D01*
X125869737Y-85983497D01*
X125900500Y-85828842D01*
X125900500Y-85671158D01*
X125900500Y-85671155D01*
X125900499Y-85671153D01*
X125869738Y-85516510D01*
X125869737Y-85516503D01*
X125825913Y-85410701D01*
X125809397Y-85370827D01*
X125809390Y-85370814D01*
X125721789Y-85239711D01*
X125721786Y-85239707D01*
X125610292Y-85128213D01*
X125610288Y-85128210D01*
X125479185Y-85040609D01*
X125479172Y-85040602D01*
X125333501Y-84980264D01*
X125333489Y-84980261D01*
X125178845Y-84949500D01*
X125178842Y-84949500D01*
X125021158Y-84949500D01*
X125021155Y-84949500D01*
X124866510Y-84980261D01*
X124866498Y-84980264D01*
X124720827Y-85040602D01*
X124720814Y-85040609D01*
X124589711Y-85128210D01*
X124589707Y-85128213D01*
X124478213Y-85239707D01*
X124478210Y-85239711D01*
X124390609Y-85370814D01*
X124390602Y-85370827D01*
X124330264Y-85516498D01*
X124330261Y-85516510D01*
X124299500Y-85671153D01*
X119900500Y-85671153D01*
X119900500Y-85420264D01*
X119860252Y-85063052D01*
X119780262Y-84712592D01*
X119661536Y-84373292D01*
X119505566Y-84049418D01*
X119314315Y-83745044D01*
X119090188Y-83463997D01*
X118836003Y-83209812D01*
X118554956Y-82985685D01*
X118250582Y-82794434D01*
X118250579Y-82794432D01*
X117926711Y-82638465D01*
X117587419Y-82519741D01*
X117587407Y-82519737D01*
X117236951Y-82439748D01*
X117236935Y-82439746D01*
X116879740Y-82399500D01*
X116879736Y-82399500D01*
X116520264Y-82399500D01*
X116520259Y-82399500D01*
X116163064Y-82439746D01*
X116163048Y-82439748D01*
X115812592Y-82519737D01*
X115812580Y-82519741D01*
X115473288Y-82638465D01*
X115149420Y-82794432D01*
X114845045Y-82985684D01*
X114563997Y-83209811D01*
X114309811Y-83463997D01*
X114085684Y-83745045D01*
X113894432Y-84049420D01*
X113738465Y-84373288D01*
X113619741Y-84712580D01*
X113619737Y-84712592D01*
X113539748Y-85063048D01*
X113539746Y-85063064D01*
X113499500Y-85420259D01*
X97600499Y-85420259D01*
X97560252Y-85063052D01*
X97480262Y-84712592D01*
X97361536Y-84373292D01*
X97205566Y-84049418D01*
X97014315Y-83745044D01*
X96790188Y-83463997D01*
X96536003Y-83209812D01*
X96254956Y-82985685D01*
X95950582Y-82794434D01*
X95950579Y-82794432D01*
X95626711Y-82638465D01*
X95287419Y-82519741D01*
X95287407Y-82519737D01*
X94936951Y-82439748D01*
X94936935Y-82439746D01*
X94579740Y-82399500D01*
X94579736Y-82399500D01*
X94220264Y-82399500D01*
X94220259Y-82399500D01*
X93863064Y-82439746D01*
X93863048Y-82439748D01*
X93512592Y-82519737D01*
X93512580Y-82519741D01*
X93173288Y-82638465D01*
X92849420Y-82794432D01*
X92545045Y-82985684D01*
X92263997Y-83209811D01*
X92009811Y-83463997D01*
X91785684Y-83745045D01*
X91594432Y-84049420D01*
X91438465Y-84373288D01*
X91319741Y-84712580D01*
X91319737Y-84712592D01*
X91239748Y-85063048D01*
X91239746Y-85063064D01*
X91199500Y-85420259D01*
X87761786Y-85420259D01*
X87768256Y-85288564D01*
X87769449Y-85276457D01*
X87774900Y-85239711D01*
X87821654Y-84924520D01*
X87824022Y-84912613D01*
X87910475Y-84567473D01*
X87913998Y-84555858D01*
X88033869Y-84220840D01*
X88038508Y-84209643D01*
X88190643Y-83887979D01*
X88196358Y-83877287D01*
X88379278Y-83572105D01*
X88386021Y-83562012D01*
X88597979Y-83276219D01*
X88605682Y-83266834D01*
X88844628Y-83003198D01*
X88853198Y-82994628D01*
X89116834Y-82755682D01*
X89126219Y-82747979D01*
X89412012Y-82536021D01*
X89422105Y-82529278D01*
X89727287Y-82346358D01*
X89737979Y-82340643D01*
X90059643Y-82188508D01*
X90070840Y-82183869D01*
X90405858Y-82063998D01*
X90417473Y-82060475D01*
X90762613Y-81974022D01*
X90774520Y-81971654D01*
X91126460Y-81919448D01*
X91138564Y-81918256D01*
X91496967Y-81900648D01*
X91503051Y-81900500D01*
X91544170Y-81900500D01*
X129955830Y-81900500D01*
X129996949Y-81900500D01*
X130003032Y-81900648D01*
G37*
G04 #@! TD.AperFunction*
M02*
