%TF.GenerationSoftware,KiCad,Pcbnew,9.0.4-9.0.4-0~ubuntu22.04.1*%
%TF.CreationDate,2025-09-03T15:31:37-04:00*%
%TF.ProjectId,receiver_panel_dualUSB,72656365-6976-4657-925f-70616e656c5f,rev?*%
%TF.SameCoordinates,Original*%
%TF.FileFunction,Paste,Top*%
%TF.FilePolarity,Positive*%
%FSLAX46Y46*%
G04 Gerber Fmt 4.6, Leading zero omitted, Abs format (unit mm)*
G04 Created by KiCad (PCBNEW 9.0.4-9.0.4-0~ubuntu22.04.1) date 2025-09-03 15:31:37*
%MOMM*%
%LPD*%
G01*
G04 APERTURE LIST*
G04 Aperture macros list*
%AMRoundRect*
0 Rectangle with rounded corners*
0 $1 Rounding radius*
0 $2 $3 $4 $5 $6 $7 $8 $9 X,Y pos of 4 corners*
0 Add a 4 corners polygon primitive as box body*
4,1,4,$2,$3,$4,$5,$6,$7,$8,$9,$2,$3,0*
0 Add four circle primitives for the rounded corners*
1,1,$1+$1,$2,$3*
1,1,$1+$1,$4,$5*
1,1,$1+$1,$6,$7*
1,1,$1+$1,$8,$9*
0 Add four rect primitives between the rounded corners*
20,1,$1+$1,$2,$3,$4,$5,0*
20,1,$1+$1,$4,$5,$6,$7,0*
20,1,$1+$1,$6,$7,$8,$9,0*
20,1,$1+$1,$8,$9,$2,$3,0*%
%AMFreePoly0*
4,1,18,-0.437500,0.050000,-0.433694,0.069134,-0.422855,0.085355,-0.406634,0.096194,-0.387500,0.100000,0.387500,0.100000,0.437500,0.050000,0.437500,-0.050000,0.433694,-0.069134,0.422855,-0.085355,0.406634,-0.096194,0.387500,-0.100000,-0.387500,-0.100000,-0.406634,-0.096194,-0.422855,-0.085355,-0.433694,-0.069134,-0.437500,-0.050000,-0.437500,0.050000,-0.437500,0.050000,$1*%
%AMFreePoly1*
4,1,18,-0.437500,0.050000,-0.433694,0.069134,-0.422855,0.085355,-0.406634,0.096194,-0.387500,0.100000,0.387500,0.100000,0.406634,0.096194,0.422855,0.085355,0.433694,0.069134,0.437500,0.050000,0.437500,-0.050000,0.387500,-0.100000,-0.387500,-0.100000,-0.406634,-0.096194,-0.422855,-0.085355,-0.433694,-0.069134,-0.437500,-0.050000,-0.437500,0.050000,-0.437500,0.050000,$1*%
%AMFreePoly2*
4,1,18,-0.100000,0.387500,-0.050000,0.437500,0.050000,0.437500,0.069134,0.433694,0.085355,0.422855,0.096194,0.406634,0.100000,0.387500,0.100000,-0.387500,0.096194,-0.406634,0.085355,-0.422855,0.069134,-0.433694,0.050000,-0.437500,-0.050000,-0.437500,-0.069134,-0.433694,-0.085355,-0.422855,-0.096194,-0.406634,-0.100000,-0.387500,-0.100000,0.387500,-0.100000,0.387500,$1*%
%AMFreePoly3*
4,1,18,-0.100000,0.387500,-0.096194,0.406634,-0.085355,0.422855,-0.069134,0.433694,-0.050000,0.437500,0.050000,0.437500,0.100000,0.387500,0.100000,-0.387500,0.096194,-0.406634,0.085355,-0.422855,0.069134,-0.433694,0.050000,-0.437500,-0.050000,-0.437500,-0.069134,-0.433694,-0.085355,-0.422855,-0.096194,-0.406634,-0.100000,-0.387500,-0.100000,0.387500,-0.100000,0.387500,$1*%
%AMFreePoly4*
4,1,18,-0.437500,0.050000,-0.433694,0.069134,-0.422855,0.085355,-0.406634,0.096194,-0.387500,0.100000,0.387500,0.100000,0.406634,0.096194,0.422855,0.085355,0.433694,0.069134,0.437500,0.050000,0.437500,-0.050000,0.433694,-0.069134,0.422855,-0.085355,0.406634,-0.096194,0.387500,-0.100000,-0.387500,-0.100000,-0.437500,-0.050000,-0.437500,0.050000,-0.437500,0.050000,$1*%
%AMFreePoly5*
4,1,18,-0.437500,0.050000,-0.387500,0.100000,0.387500,0.100000,0.406634,0.096194,0.422855,0.085355,0.433694,0.069134,0.437500,0.050000,0.437500,-0.050000,0.433694,-0.069134,0.422855,-0.085355,0.406634,-0.096194,0.387500,-0.100000,-0.387500,-0.100000,-0.406634,-0.096194,-0.422855,-0.085355,-0.433694,-0.069134,-0.437500,-0.050000,-0.437500,0.050000,-0.437500,0.050000,$1*%
%AMFreePoly6*
4,1,18,-0.100000,0.387500,-0.096194,0.406634,-0.085355,0.422855,-0.069134,0.433694,-0.050000,0.437500,0.050000,0.437500,0.069134,0.433694,0.085355,0.422855,0.096194,0.406634,0.100000,0.387500,0.100000,-0.387500,0.050000,-0.437500,-0.050000,-0.437500,-0.069134,-0.433694,-0.085355,-0.422855,-0.096194,-0.406634,-0.100000,-0.387500,-0.100000,0.387500,-0.100000,0.387500,$1*%
%AMFreePoly7*
4,1,18,-0.100000,0.387500,-0.096194,0.406634,-0.085355,0.422855,-0.069134,0.433694,-0.050000,0.437500,0.050000,0.437500,0.069134,0.433694,0.085355,0.422855,0.096194,0.406634,0.100000,0.387500,0.100000,-0.387500,0.096194,-0.406634,0.085355,-0.422855,0.069134,-0.433694,0.050000,-0.437500,-0.050000,-0.437500,-0.100000,-0.387500,-0.100000,0.387500,-0.100000,0.387500,$1*%
G04 Aperture macros list end*
%ADD10C,0.010000*%
%ADD11RoundRect,0.140000X0.170000X-0.140000X0.170000X0.140000X-0.170000X0.140000X-0.170000X-0.140000X0*%
%ADD12RoundRect,0.073750X0.221250X-0.531250X0.221250X0.531250X-0.221250X0.531250X-0.221250X-0.531250X0*%
%ADD13RoundRect,0.135000X-0.135000X-0.185000X0.135000X-0.185000X0.135000X0.185000X-0.135000X0.185000X0*%
%ADD14RoundRect,0.135000X-0.185000X0.135000X-0.185000X-0.135000X0.185000X-0.135000X0.185000X0.135000X0*%
%ADD15RoundRect,0.140000X0.140000X0.170000X-0.140000X0.170000X-0.140000X-0.170000X0.140000X-0.170000X0*%
%ADD16RoundRect,0.140000X-0.170000X0.140000X-0.170000X-0.140000X0.170000X-0.140000X0.170000X0.140000X0*%
%ADD17RoundRect,0.140000X-0.140000X-0.170000X0.140000X-0.170000X0.140000X0.170000X-0.140000X0.170000X0*%
%ADD18RoundRect,0.135000X0.135000X0.185000X-0.135000X0.185000X-0.135000X-0.185000X0.135000X-0.185000X0*%
%ADD19RoundRect,0.250000X-0.250000X-0.475000X0.250000X-0.475000X0.250000X0.475000X-0.250000X0.475000X0*%
%ADD20RoundRect,0.312500X0.437500X0.312500X-0.437500X0.312500X-0.437500X-0.312500X0.437500X-0.312500X0*%
%ADD21R,0.660400X1.549400*%
%ADD22R,1.295400X1.905000*%
%ADD23R,0.600000X1.150000*%
%ADD24R,0.300000X1.150000*%
%ADD25R,0.990600X3.505200*%
%ADD26R,1.498600X3.200000*%
%ADD27RoundRect,0.135000X0.185000X-0.135000X0.185000X0.135000X-0.185000X0.135000X-0.185000X-0.135000X0*%
%ADD28R,1.200000X1.400000*%
%ADD29RoundRect,0.147500X0.147500X0.172500X-0.147500X0.172500X-0.147500X-0.172500X0.147500X-0.172500X0*%
%ADD30R,0.530000X0.470000*%
%ADD31RoundRect,0.250000X0.475000X-0.250000X0.475000X0.250000X-0.475000X0.250000X-0.475000X-0.250000X0*%
%ADD32RoundRect,0.033750X-0.101250X0.361250X-0.101250X-0.361250X0.101250X-0.361250X0.101250X0.361250X0*%
%ADD33RoundRect,0.033750X-0.361250X0.101250X-0.361250X-0.101250X0.361250X-0.101250X0.361250X0.101250X0*%
%ADD34RoundRect,0.250000X1.000000X0.650000X-1.000000X0.650000X-1.000000X-0.650000X1.000000X-0.650000X0*%
%ADD35R,1.050000X0.650000*%
%ADD36RoundRect,0.062500X-0.062500X0.092500X-0.062500X-0.092500X0.062500X-0.092500X0.062500X0.092500X0*%
%ADD37RoundRect,0.250000X-0.350000X0.350000X-0.350000X-0.350000X0.350000X-0.350000X0.350000X0.350000X0*%
%ADD38FreePoly0,270.000000*%
%ADD39RoundRect,0.050000X-0.050000X0.387500X-0.050000X-0.387500X0.050000X-0.387500X0.050000X0.387500X0*%
%ADD40FreePoly1,270.000000*%
%ADD41FreePoly2,270.000000*%
%ADD42RoundRect,0.050000X-0.387500X0.050000X-0.387500X-0.050000X0.387500X-0.050000X0.387500X0.050000X0*%
%ADD43FreePoly3,270.000000*%
%ADD44FreePoly4,270.000000*%
%ADD45FreePoly5,270.000000*%
%ADD46FreePoly6,270.000000*%
%ADD47FreePoly7,270.000000*%
%ADD48R,1.700000X0.700000*%
G04 APERTURE END LIST*
D10*
%TO.C,U5*%
X155260000Y-66270500D02*
X154680000Y-66270500D01*
X154680000Y-66100500D01*
X155260000Y-66100500D01*
X155260000Y-66270500D01*
G36*
X155260000Y-66270500D02*
G01*
X154680000Y-66270500D01*
X154680000Y-66100500D01*
X155260000Y-66100500D01*
X155260000Y-66270500D01*
G37*
X155880000Y-66270500D02*
X155300000Y-66270500D01*
X155300000Y-66100500D01*
X155880000Y-66100500D01*
X155880000Y-66270500D01*
G36*
X155880000Y-66270500D02*
G01*
X155300000Y-66270500D01*
X155300000Y-66100500D01*
X155880000Y-66100500D01*
X155880000Y-66270500D01*
G37*
%TD*%
D11*
%TO.C,C20*%
X138650000Y-57350500D03*
X138650000Y-56390500D03*
%TD*%
D12*
%TO.C,U2*%
X161950000Y-47580500D03*
X162900000Y-47580500D03*
X163850000Y-47580500D03*
X163850000Y-45070500D03*
X162900000Y-45070500D03*
X161950000Y-45070500D03*
%TD*%
D13*
%TO.C,R6*%
X140315000Y-58325500D03*
X141335000Y-58325500D03*
%TD*%
D14*
%TO.C,R1*%
X148550000Y-66340500D03*
X148550000Y-67360500D03*
%TD*%
D15*
%TO.C,C27*%
X165730000Y-61750500D03*
X164770000Y-61750500D03*
%TD*%
D14*
%TO.C,R13*%
X163700000Y-54390500D03*
X163700000Y-55410500D03*
%TD*%
D16*
%TO.C,C14*%
X147050000Y-63070500D03*
X147050000Y-64030500D03*
%TD*%
D11*
%TO.C,C15*%
X145350000Y-53830500D03*
X145350000Y-52870500D03*
%TD*%
D17*
%TO.C,C22*%
X155470000Y-64750500D03*
X156430000Y-64750500D03*
%TD*%
D18*
%TO.C,R11*%
X138250000Y-68650500D03*
X137230000Y-68650500D03*
%TD*%
D19*
%TO.C,C26*%
X165700000Y-55900500D03*
X167600000Y-55900500D03*
%TD*%
D18*
%TO.C,R2*%
X154960000Y-54750500D03*
X153940000Y-54750500D03*
%TD*%
D20*
%TO.C,J4*%
X159750000Y-48500500D03*
X159750000Y-50500500D03*
%TD*%
D16*
%TO.C,C21*%
X138645000Y-58250500D03*
X138645000Y-59210500D03*
%TD*%
D21*
%TO.C,J1*%
X136375000Y-66450500D03*
X137375001Y-66450500D03*
X138374999Y-66450500D03*
X139375000Y-66450500D03*
D22*
X135075001Y-63870500D03*
X140674999Y-63870500D03*
%TD*%
D15*
%TO.C,C13*%
X143700000Y-63075500D03*
X142740000Y-63075500D03*
%TD*%
D16*
%TO.C,C16*%
X149525000Y-63725500D03*
X149525000Y-64685500D03*
%TD*%
D23*
%TO.C,J5*%
X146450000Y-37755500D03*
X145650000Y-37755500D03*
D24*
X144500000Y-37755500D03*
X143500000Y-37755500D03*
X143000000Y-37755500D03*
X142000000Y-37755500D03*
D23*
X140050000Y-37755500D03*
X140850000Y-37755500D03*
D24*
X141500000Y-37755500D03*
X142500000Y-37755500D03*
X144000000Y-37755500D03*
X145000000Y-37755500D03*
%TD*%
D25*
%TO.C,J8*%
X163949999Y-64695200D03*
X165950001Y-64695200D03*
D26*
X161599999Y-70595200D03*
X168300001Y-70595200D03*
%TD*%
D27*
%TO.C,R15*%
X149250000Y-36610500D03*
X149250000Y-35590500D03*
%TD*%
D11*
%TO.C,C23*%
X157000000Y-67180500D03*
X157000000Y-66220500D03*
%TD*%
D28*
%TO.C,Y1*%
X134545000Y-56580500D03*
X134545000Y-58780500D03*
X136245000Y-58780500D03*
X136245000Y-56580500D03*
%TD*%
D29*
%TO.C,D1*%
X138250000Y-69750500D03*
X137280000Y-69750500D03*
%TD*%
D27*
%TO.C,R8*%
X164200000Y-41060500D03*
X164200000Y-40040500D03*
%TD*%
D30*
%TO.C,C7*%
X152350000Y-59985500D03*
X152350000Y-61015500D03*
%TD*%
D13*
%TO.C,R3*%
X154105000Y-56150500D03*
X155125000Y-56150500D03*
%TD*%
%TO.C,R4*%
X154090000Y-57175500D03*
X155110000Y-57175500D03*
%TD*%
D14*
%TO.C,R16*%
X137250000Y-35590500D03*
X137250000Y-36610500D03*
%TD*%
D18*
%TO.C,R12*%
X162660000Y-55600500D03*
X161640000Y-55600500D03*
%TD*%
D16*
%TO.C,C9*%
X151400000Y-61895500D03*
X151400000Y-62855500D03*
%TD*%
D15*
%TO.C,C28*%
X154410000Y-64750500D03*
X153450000Y-64750500D03*
%TD*%
D18*
%TO.C,R20*%
X162660000Y-56650500D03*
X161640000Y-56650500D03*
%TD*%
D17*
%TO.C,C17*%
X151420000Y-54900500D03*
X152380000Y-54900500D03*
%TD*%
D23*
%TO.C,J7*%
X165950000Y-37755500D03*
X165150000Y-37755500D03*
D24*
X164000000Y-37755500D03*
X163000000Y-37755500D03*
X162500000Y-37755500D03*
X161500000Y-37755500D03*
D23*
X159550000Y-37755500D03*
X160350000Y-37755500D03*
D24*
X161000000Y-37755500D03*
X162000000Y-37755500D03*
X163500000Y-37755500D03*
X164500000Y-37755500D03*
%TD*%
D31*
%TO.C,C30*%
X167450000Y-59745200D03*
X167450000Y-57845200D03*
%TD*%
D11*
%TO.C,C12*%
X151450000Y-57130500D03*
X151450000Y-56170500D03*
%TD*%
D27*
%TO.C,R9*%
X142850000Y-44960500D03*
X142850000Y-43940500D03*
%TD*%
D18*
%TO.C,R19*%
X159770000Y-62750500D03*
X158750000Y-62750500D03*
%TD*%
D32*
%TO.C,U4*%
X165400000Y-58285200D03*
X164900000Y-58285200D03*
X164400000Y-58285200D03*
X163900000Y-58285200D03*
D33*
X163680000Y-59255200D03*
D32*
X163900000Y-60225200D03*
X164400000Y-60225200D03*
X164900000Y-60225200D03*
X165400000Y-60225200D03*
D33*
X165620000Y-59255200D03*
%TD*%
D14*
%TO.C,R5*%
X142450000Y-52350500D03*
X142450000Y-53370500D03*
%TD*%
D15*
%TO.C,C18*%
X141330000Y-56850500D03*
X140370000Y-56850500D03*
%TD*%
D34*
%TO.C,D2*%
X169600000Y-51300500D03*
X165600000Y-51300500D03*
%TD*%
D14*
%TO.C,R14*%
X158750000Y-60740500D03*
X158750000Y-61760500D03*
%TD*%
D35*
%TO.C,S1*%
X143200000Y-65300500D03*
X147350000Y-65300500D03*
X143200000Y-67450500D03*
X147350000Y-67450500D03*
%TD*%
D16*
%TO.C,C8*%
X148550000Y-64420500D03*
X148550000Y-65380500D03*
%TD*%
D36*
%TO.C,U5*%
X155880000Y-65730500D03*
X155480000Y-65730500D03*
X155080000Y-65730500D03*
X154680000Y-65730500D03*
X154680000Y-66640500D03*
X155080000Y-66640500D03*
X155480000Y-66640500D03*
X155880000Y-66640500D03*
%TD*%
D14*
%TO.C,R10*%
X161650000Y-40440500D03*
X161650000Y-41460500D03*
%TD*%
D11*
%TO.C,C11*%
X149350000Y-52110500D03*
X149350000Y-51150500D03*
%TD*%
D27*
%TO.C,R7*%
X152375000Y-62910500D03*
X152375000Y-61890500D03*
%TD*%
D37*
%TO.C,U1*%
X147500000Y-57750500D03*
X146100000Y-57750500D03*
X147500000Y-59150500D03*
X146100000Y-59150500D03*
D38*
X149600000Y-55013000D03*
D39*
X149200000Y-55013000D03*
X148800000Y-55013000D03*
X148400000Y-55013000D03*
X148000000Y-55013000D03*
X147600000Y-55013000D03*
X147200000Y-55013000D03*
X146800000Y-55013000D03*
X146400000Y-55013000D03*
X146000000Y-55013000D03*
X145600000Y-55013000D03*
X145200000Y-55013000D03*
X144800000Y-55013000D03*
X144400000Y-55013000D03*
D40*
X144000000Y-55013000D03*
D41*
X143362500Y-55650500D03*
D42*
X143362500Y-56050500D03*
X143362500Y-56450500D03*
X143362500Y-56850500D03*
X143362500Y-57250500D03*
X143362500Y-57650500D03*
X143362500Y-58050500D03*
X143362500Y-58450500D03*
X143362500Y-58850500D03*
X143362500Y-59250500D03*
X143362500Y-59650500D03*
X143362500Y-60050500D03*
X143362500Y-60450500D03*
X143362500Y-60850500D03*
D43*
X143362500Y-61250500D03*
D44*
X144000000Y-61888000D03*
D39*
X144400000Y-61888000D03*
X144800000Y-61888000D03*
X145200000Y-61888000D03*
X145600000Y-61888000D03*
X146000000Y-61888000D03*
X146400000Y-61888000D03*
X146800000Y-61888000D03*
X147200000Y-61888000D03*
X147600000Y-61888000D03*
X148000000Y-61888000D03*
X148400000Y-61888000D03*
X148800000Y-61888000D03*
X149200000Y-61888000D03*
D45*
X149600000Y-61888000D03*
D46*
X150237500Y-61250500D03*
D42*
X150237500Y-60850500D03*
X150237500Y-60450500D03*
X150237500Y-60050500D03*
X150237500Y-59650500D03*
X150237500Y-59250500D03*
X150237500Y-58850500D03*
X150237500Y-58450500D03*
X150237500Y-58050500D03*
X150237500Y-57650500D03*
X150237500Y-57250500D03*
X150237500Y-56850500D03*
X150237500Y-56450500D03*
X150237500Y-56050500D03*
D47*
X150237500Y-55650500D03*
%TD*%
D48*
%TO.C,L1*%
X153950000Y-59750500D03*
X153950000Y-61150500D03*
%TD*%
D16*
%TO.C,C25*%
X162500000Y-57700500D03*
X162500000Y-58660500D03*
%TD*%
D30*
%TO.C,C6*%
X151400000Y-59985500D03*
X151400000Y-61015500D03*
%TD*%
D15*
%TO.C,C10*%
X141330000Y-59250500D03*
X140370000Y-59250500D03*
%TD*%
D25*
%TO.C,J10*%
X128749999Y-64645200D03*
X130750001Y-64645200D03*
D26*
X126399999Y-70545200D03*
X133100001Y-70545200D03*
%TD*%
M02*
