G04 #@! TF.GenerationSoftware,KiCad,Pcbnew,9.0.4-9.0.4-0~ubuntu22.04.1*
G04 #@! TF.CreationDate,2025-09-17T13:23:39-04:00*
G04 #@! TF.ProjectId,receiver7RP2350V2,72656365-6976-4657-9237-525032333530,rev?*
G04 #@! TF.SameCoordinates,Original*
G04 #@! TF.FileFunction,Copper,L1,Top*
G04 #@! TF.FilePolarity,Positive*
%FSLAX46Y46*%
G04 Gerber Fmt 4.6, Leading zero omitted, Abs format (unit mm)*
G04 Created by KiCad (PCBNEW 9.0.4-9.0.4-0~ubuntu22.04.1) date 2025-09-17 13:23:39*
%MOMM*%
%LPD*%
G01*
G04 APERTURE LIST*
G04 Aperture macros list*
%AMRoundRect*
0 Rectangle with rounded corners*
0 $1 Rounding radius*
0 $2 $3 $4 $5 $6 $7 $8 $9 X,Y pos of 4 corners*
0 Add a 4 corners polygon primitive as box body*
4,1,4,$2,$3,$4,$5,$6,$7,$8,$9,$2,$3,0*
0 Add four circle primitives for the rounded corners*
1,1,$1+$1,$2,$3*
1,1,$1+$1,$4,$5*
1,1,$1+$1,$6,$7*
1,1,$1+$1,$8,$9*
0 Add four rect primitives between the rounded corners*
20,1,$1+$1,$2,$3,$4,$5,0*
20,1,$1+$1,$4,$5,$6,$7,0*
20,1,$1+$1,$6,$7,$8,$9,0*
20,1,$1+$1,$8,$9,$2,$3,0*%
%AMFreePoly0*
4,1,18,-0.437500,0.050000,-0.433694,0.069134,-0.422855,0.085355,-0.406634,0.096194,-0.387500,0.100000,0.387500,0.100000,0.437500,0.050000,0.437500,-0.050000,0.433694,-0.069134,0.422855,-0.085355,0.406634,-0.096194,0.387500,-0.100000,-0.387500,-0.100000,-0.406634,-0.096194,-0.422855,-0.085355,-0.433694,-0.069134,-0.437500,-0.050000,-0.437500,0.050000,-0.437500,0.050000,$1*%
%AMFreePoly1*
4,1,18,-0.437500,0.050000,-0.433694,0.069134,-0.422855,0.085355,-0.406634,0.096194,-0.387500,0.100000,0.387500,0.100000,0.406634,0.096194,0.422855,0.085355,0.433694,0.069134,0.437500,0.050000,0.437500,-0.050000,0.387500,-0.100000,-0.387500,-0.100000,-0.406634,-0.096194,-0.422855,-0.085355,-0.433694,-0.069134,-0.437500,-0.050000,-0.437500,0.050000,-0.437500,0.050000,$1*%
%AMFreePoly2*
4,1,18,-0.100000,0.387500,-0.050000,0.437500,0.050000,0.437500,0.069134,0.433694,0.085355,0.422855,0.096194,0.406634,0.100000,0.387500,0.100000,-0.387500,0.096194,-0.406634,0.085355,-0.422855,0.069134,-0.433694,0.050000,-0.437500,-0.050000,-0.437500,-0.069134,-0.433694,-0.085355,-0.422855,-0.096194,-0.406634,-0.100000,-0.387500,-0.100000,0.387500,-0.100000,0.387500,$1*%
%AMFreePoly3*
4,1,18,-0.100000,0.387500,-0.096194,0.406634,-0.085355,0.422855,-0.069134,0.433694,-0.050000,0.437500,0.050000,0.437500,0.100000,0.387500,0.100000,-0.387500,0.096194,-0.406634,0.085355,-0.422855,0.069134,-0.433694,0.050000,-0.437500,-0.050000,-0.437500,-0.069134,-0.433694,-0.085355,-0.422855,-0.096194,-0.406634,-0.100000,-0.387500,-0.100000,0.387500,-0.100000,0.387500,$1*%
%AMFreePoly4*
4,1,18,-0.437500,0.050000,-0.433694,0.069134,-0.422855,0.085355,-0.406634,0.096194,-0.387500,0.100000,0.387500,0.100000,0.406634,0.096194,0.422855,0.085355,0.433694,0.069134,0.437500,0.050000,0.437500,-0.050000,0.433694,-0.069134,0.422855,-0.085355,0.406634,-0.096194,0.387500,-0.100000,-0.387500,-0.100000,-0.437500,-0.050000,-0.437500,0.050000,-0.437500,0.050000,$1*%
%AMFreePoly5*
4,1,18,-0.437500,0.050000,-0.387500,0.100000,0.387500,0.100000,0.406634,0.096194,0.422855,0.085355,0.433694,0.069134,0.437500,0.050000,0.437500,-0.050000,0.433694,-0.069134,0.422855,-0.085355,0.406634,-0.096194,0.387500,-0.100000,-0.387500,-0.100000,-0.406634,-0.096194,-0.422855,-0.085355,-0.433694,-0.069134,-0.437500,-0.050000,-0.437500,0.050000,-0.437500,0.050000,$1*%
%AMFreePoly6*
4,1,18,-0.100000,0.387500,-0.096194,0.406634,-0.085355,0.422855,-0.069134,0.433694,-0.050000,0.437500,0.050000,0.437500,0.069134,0.433694,0.085355,0.422855,0.096194,0.406634,0.100000,0.387500,0.100000,-0.387500,0.050000,-0.437500,-0.050000,-0.437500,-0.069134,-0.433694,-0.085355,-0.422855,-0.096194,-0.406634,-0.100000,-0.387500,-0.100000,0.387500,-0.100000,0.387500,$1*%
%AMFreePoly7*
4,1,18,-0.100000,0.387500,-0.096194,0.406634,-0.085355,0.422855,-0.069134,0.433694,-0.050000,0.437500,0.050000,0.437500,0.069134,0.433694,0.085355,0.422855,0.096194,0.406634,0.100000,0.387500,0.100000,-0.387500,0.096194,-0.406634,0.085355,-0.422855,0.069134,-0.433694,0.050000,-0.437500,-0.050000,-0.437500,-0.100000,-0.387500,-0.100000,0.387500,-0.100000,0.387500,$1*%
G04 Aperture macros list end*
G04 #@! TA.AperFunction,SMDPad,CuDef*
%ADD10R,0.600000X1.150000*%
G04 #@! TD*
G04 #@! TA.AperFunction,SMDPad,CuDef*
%ADD11R,0.300000X1.150000*%
G04 #@! TD*
G04 #@! TA.AperFunction,ComponentPad*
%ADD12O,1.000000X2.100000*%
G04 #@! TD*
G04 #@! TA.AperFunction,ComponentPad*
%ADD13O,1.000000X1.800000*%
G04 #@! TD*
G04 #@! TA.AperFunction,SMDPad,CuDef*
%ADD14R,0.990600X3.505200*%
G04 #@! TD*
G04 #@! TA.AperFunction,SMDPad,CuDef*
%ADD15R,1.498600X3.200000*%
G04 #@! TD*
G04 #@! TA.AperFunction,SMDPad,CuDef*
%ADD16RoundRect,0.140000X0.170000X-0.140000X0.170000X0.140000X-0.170000X0.140000X-0.170000X-0.140000X0*%
G04 #@! TD*
G04 #@! TA.AperFunction,ComponentPad*
%ADD17C,0.800000*%
G04 #@! TD*
G04 #@! TA.AperFunction,ComponentPad*
%ADD18C,5.400000*%
G04 #@! TD*
G04 #@! TA.AperFunction,SMDPad,CuDef*
%ADD19RoundRect,0.135000X0.135000X0.185000X-0.135000X0.185000X-0.135000X-0.185000X0.135000X-0.185000X0*%
G04 #@! TD*
G04 #@! TA.AperFunction,SMDPad,CuDef*
%ADD20RoundRect,0.140000X-0.170000X0.140000X-0.170000X-0.140000X0.170000X-0.140000X0.170000X0.140000X0*%
G04 #@! TD*
G04 #@! TA.AperFunction,SMDPad,CuDef*
%ADD21RoundRect,0.250000X0.475000X-0.250000X0.475000X0.250000X-0.475000X0.250000X-0.475000X-0.250000X0*%
G04 #@! TD*
G04 #@! TA.AperFunction,SMDPad,CuDef*
%ADD22R,0.530000X0.470000*%
G04 #@! TD*
G04 #@! TA.AperFunction,SMDPad,CuDef*
%ADD23RoundRect,0.135000X-0.185000X0.135000X-0.185000X-0.135000X0.185000X-0.135000X0.185000X0.135000X0*%
G04 #@! TD*
G04 #@! TA.AperFunction,SMDPad,CuDef*
%ADD24RoundRect,0.140000X0.140000X0.170000X-0.140000X0.170000X-0.140000X-0.170000X0.140000X-0.170000X0*%
G04 #@! TD*
G04 #@! TA.AperFunction,SMDPad,CuDef*
%ADD25RoundRect,0.140000X-0.140000X-0.170000X0.140000X-0.170000X0.140000X0.170000X-0.140000X0.170000X0*%
G04 #@! TD*
G04 #@! TA.AperFunction,SMDPad,CuDef*
%ADD26RoundRect,0.135000X-0.135000X-0.185000X0.135000X-0.185000X0.135000X0.185000X-0.135000X0.185000X0*%
G04 #@! TD*
G04 #@! TA.AperFunction,SMDPad,CuDef*
%ADD27RoundRect,0.135000X0.185000X-0.135000X0.185000X0.135000X-0.185000X0.135000X-0.185000X-0.135000X0*%
G04 #@! TD*
G04 #@! TA.AperFunction,SMDPad,CuDef*
%ADD28R,0.660400X1.549400*%
G04 #@! TD*
G04 #@! TA.AperFunction,SMDPad,CuDef*
%ADD29R,1.295400X1.905000*%
G04 #@! TD*
G04 #@! TA.AperFunction,SMDPad,CuDef*
%ADD30RoundRect,0.312500X0.437500X0.312500X-0.437500X0.312500X-0.437500X-0.312500X0.437500X-0.312500X0*%
G04 #@! TD*
G04 #@! TA.AperFunction,SMDPad,CuDef*
%ADD31FreePoly0,270.000000*%
G04 #@! TD*
G04 #@! TA.AperFunction,SMDPad,CuDef*
%ADD32RoundRect,0.050000X-0.050000X0.387500X-0.050000X-0.387500X0.050000X-0.387500X0.050000X0.387500X0*%
G04 #@! TD*
G04 #@! TA.AperFunction,SMDPad,CuDef*
%ADD33FreePoly1,270.000000*%
G04 #@! TD*
G04 #@! TA.AperFunction,SMDPad,CuDef*
%ADD34FreePoly2,270.000000*%
G04 #@! TD*
G04 #@! TA.AperFunction,SMDPad,CuDef*
%ADD35RoundRect,0.050000X-0.387500X0.050000X-0.387500X-0.050000X0.387500X-0.050000X0.387500X0.050000X0*%
G04 #@! TD*
G04 #@! TA.AperFunction,SMDPad,CuDef*
%ADD36FreePoly3,270.000000*%
G04 #@! TD*
G04 #@! TA.AperFunction,SMDPad,CuDef*
%ADD37FreePoly4,270.000000*%
G04 #@! TD*
G04 #@! TA.AperFunction,SMDPad,CuDef*
%ADD38FreePoly5,270.000000*%
G04 #@! TD*
G04 #@! TA.AperFunction,SMDPad,CuDef*
%ADD39FreePoly6,270.000000*%
G04 #@! TD*
G04 #@! TA.AperFunction,SMDPad,CuDef*
%ADD40FreePoly7,270.000000*%
G04 #@! TD*
G04 #@! TA.AperFunction,SMDPad,CuDef*
%ADD41RoundRect,0.153000X-1.547000X-1.547000X1.547000X-1.547000X1.547000X1.547000X-1.547000X1.547000X0*%
G04 #@! TD*
G04 #@! TA.AperFunction,SMDPad,CuDef*
%ADD42R,1.050000X0.650000*%
G04 #@! TD*
G04 #@! TA.AperFunction,SMDPad,CuDef*
%ADD43RoundRect,0.033750X-0.101250X0.361250X-0.101250X-0.361250X0.101250X-0.361250X0.101250X0.361250X0*%
G04 #@! TD*
G04 #@! TA.AperFunction,SMDPad,CuDef*
%ADD44RoundRect,0.033750X-0.361250X0.101250X-0.361250X-0.101250X0.361250X-0.101250X0.361250X0.101250X0*%
G04 #@! TD*
G04 #@! TA.AperFunction,SMDPad,CuDef*
%ADD45RoundRect,0.250000X-0.250000X-0.475000X0.250000X-0.475000X0.250000X0.475000X-0.250000X0.475000X0*%
G04 #@! TD*
G04 #@! TA.AperFunction,SMDPad,CuDef*
%ADD46RoundRect,0.073750X0.221250X-0.531250X0.221250X0.531250X-0.221250X0.531250X-0.221250X-0.531250X0*%
G04 #@! TD*
G04 #@! TA.AperFunction,SMDPad,CuDef*
%ADD47RoundRect,0.250000X1.000000X0.650000X-1.000000X0.650000X-1.000000X-0.650000X1.000000X-0.650000X0*%
G04 #@! TD*
G04 #@! TA.AperFunction,SMDPad,CuDef*
%ADD48R,1.700000X0.700000*%
G04 #@! TD*
G04 #@! TA.AperFunction,SMDPad,CuDef*
%ADD49R,1.200000X1.400000*%
G04 #@! TD*
G04 #@! TA.AperFunction,SMDPad,CuDef*
%ADD50RoundRect,0.147500X0.147500X0.172500X-0.147500X0.172500X-0.147500X-0.172500X0.147500X-0.172500X0*%
G04 #@! TD*
G04 #@! TA.AperFunction,SMDPad,CuDef*
%ADD51RoundRect,0.062500X-0.062500X0.092500X-0.062500X-0.092500X0.062500X-0.092500X0.062500X0.092500X0*%
G04 #@! TD*
G04 #@! TA.AperFunction,SMDPad,CuDef*
%ADD52R,1.300000X0.300000*%
G04 #@! TD*
G04 #@! TA.AperFunction,ComponentPad*
%ADD53C,4.080000*%
G04 #@! TD*
G04 #@! TA.AperFunction,ViaPad*
%ADD54C,0.600000*%
G04 #@! TD*
G04 #@! TA.AperFunction,Conductor*
%ADD55C,0.400000*%
G04 #@! TD*
G04 #@! TA.AperFunction,Conductor*
%ADD56C,0.150000*%
G04 #@! TD*
G04 #@! TA.AperFunction,Conductor*
%ADD57C,0.200000*%
G04 #@! TD*
G04 #@! TA.AperFunction,Conductor*
%ADD58C,0.300000*%
G04 #@! TD*
G04 #@! TA.AperFunction,Conductor*
%ADD59C,0.500000*%
G04 #@! TD*
G04 #@! TA.AperFunction,Conductor*
%ADD60C,0.325000*%
G04 #@! TD*
G04 APERTURE END LIST*
D10*
X128200000Y-88405000D03*
X127400000Y-88405000D03*
D11*
X126250000Y-88405000D03*
X125250000Y-88405000D03*
X124750000Y-88405000D03*
X123750000Y-88405000D03*
D10*
X121800000Y-88405000D03*
X122600000Y-88405000D03*
D11*
X123250000Y-88405000D03*
X124250000Y-88405000D03*
X125750000Y-88405000D03*
X126750000Y-88405000D03*
D12*
X129320000Y-87830000D03*
X120680000Y-87830000D03*
D13*
X129320000Y-83650000D03*
X120680000Y-83650000D03*
D14*
X90999999Y-115294700D03*
X93000001Y-115294700D03*
D15*
X88649999Y-121194700D03*
X95350001Y-121194700D03*
D16*
X107600000Y-104480000D03*
X107600000Y-103520000D03*
D17*
X92375000Y-153600000D03*
X92968109Y-152168109D03*
X92968109Y-155031891D03*
X94400000Y-151575000D03*
D18*
X94400000Y-153600000D03*
D17*
X94400000Y-155625000D03*
X95831891Y-152168109D03*
X95831891Y-155031891D03*
X96425000Y-153600000D03*
D19*
X124910000Y-106250000D03*
X123890000Y-106250000D03*
D16*
X119250000Y-117830000D03*
X119250000Y-116870000D03*
D20*
X109300000Y-113720000D03*
X109300000Y-114680000D03*
D21*
X129700000Y-110394700D03*
X129700000Y-108494700D03*
D22*
X113650000Y-110635000D03*
X113650000Y-111665000D03*
D19*
X122020000Y-113400000D03*
X121000000Y-113400000D03*
D10*
X108700000Y-88405000D03*
X107900000Y-88405000D03*
D11*
X106750000Y-88405000D03*
X105750000Y-88405000D03*
X105250000Y-88405000D03*
X104250000Y-88405000D03*
D10*
X102300000Y-88405000D03*
X103100000Y-88405000D03*
D11*
X103750000Y-88405000D03*
X104750000Y-88405000D03*
X106250000Y-88405000D03*
X107250000Y-88405000D03*
D12*
X109820000Y-87830000D03*
X101180000Y-87830000D03*
D13*
X109820000Y-83650000D03*
X101180000Y-83650000D03*
D23*
X123900000Y-91090000D03*
X123900000Y-92110000D03*
D24*
X103580000Y-107500000D03*
X102620000Y-107500000D03*
D17*
X92375000Y-85600000D03*
X92968109Y-84168109D03*
X92968109Y-87031891D03*
X94400000Y-83575000D03*
D18*
X94400000Y-85600000D03*
D17*
X94400000Y-87625000D03*
X95831891Y-84168109D03*
X95831891Y-87031891D03*
X96425000Y-85600000D03*
D23*
X104700000Y-103000000D03*
X104700000Y-104020000D03*
D25*
X117720000Y-115400000D03*
X118680000Y-115400000D03*
D26*
X102565000Y-108975000D03*
X103585000Y-108975000D03*
D24*
X116660000Y-115400000D03*
X115700000Y-115400000D03*
D20*
X100895000Y-108900000D03*
X100895000Y-109860000D03*
D26*
X116340000Y-107825000D03*
X117360000Y-107825000D03*
D27*
X114625000Y-113560000D03*
X114625000Y-112540000D03*
D28*
X98625000Y-117100000D03*
X99625001Y-117100000D03*
X100624999Y-117100000D03*
X101625000Y-117100000D03*
D29*
X97325001Y-114520000D03*
X102924999Y-114520000D03*
D20*
X124750000Y-108350000D03*
X124750000Y-109310000D03*
D30*
X122000000Y-99150000D03*
X122000000Y-101150000D03*
D20*
X113650000Y-112545000D03*
X113650000Y-113505000D03*
D31*
X111850000Y-105662500D03*
D32*
X111450000Y-105662500D03*
X111050000Y-105662500D03*
X110650000Y-105662500D03*
X110250000Y-105662500D03*
X109850000Y-105662500D03*
X109450000Y-105662500D03*
X109050000Y-105662500D03*
X108650000Y-105662500D03*
X108250000Y-105662500D03*
X107850000Y-105662500D03*
X107450000Y-105662500D03*
X107050000Y-105662500D03*
X106650000Y-105662500D03*
D33*
X106250000Y-105662500D03*
D34*
X105612500Y-106300000D03*
D35*
X105612500Y-106700000D03*
X105612500Y-107100000D03*
X105612500Y-107500000D03*
X105612500Y-107900000D03*
X105612500Y-108300000D03*
X105612500Y-108700000D03*
X105612500Y-109100000D03*
X105612500Y-109500000D03*
X105612500Y-109900000D03*
X105612500Y-110300000D03*
X105612500Y-110700000D03*
X105612500Y-111100000D03*
X105612500Y-111500000D03*
D36*
X105612500Y-111900000D03*
D37*
X106250000Y-112537500D03*
D32*
X106650000Y-112537500D03*
X107050000Y-112537500D03*
X107450000Y-112537500D03*
X107850000Y-112537500D03*
X108250000Y-112537500D03*
X108650000Y-112537500D03*
X109050000Y-112537500D03*
X109450000Y-112537500D03*
X109850000Y-112537500D03*
X110250000Y-112537500D03*
X110650000Y-112537500D03*
X111050000Y-112537500D03*
X111450000Y-112537500D03*
D38*
X111850000Y-112537500D03*
D39*
X112487500Y-111900000D03*
D35*
X112487500Y-111500000D03*
X112487500Y-111100000D03*
X112487500Y-110700000D03*
X112487500Y-110300000D03*
X112487500Y-109900000D03*
X112487500Y-109500000D03*
X112487500Y-109100000D03*
X112487500Y-108700000D03*
X112487500Y-108300000D03*
X112487500Y-107900000D03*
X112487500Y-107500000D03*
X112487500Y-107100000D03*
X112487500Y-106700000D03*
D40*
X112487500Y-106300000D03*
D41*
X109050000Y-109100000D03*
D19*
X117210000Y-105400000D03*
X116190000Y-105400000D03*
X124910000Y-107300000D03*
X123890000Y-107300000D03*
X100500000Y-119300000D03*
X99480000Y-119300000D03*
D42*
X105450000Y-115950000D03*
X109600000Y-115950000D03*
X105450000Y-118100000D03*
X109600000Y-118100000D03*
D43*
X127650000Y-108934700D03*
X127150000Y-108934700D03*
X126650000Y-108934700D03*
X126150000Y-108934700D03*
D44*
X125930000Y-109904700D03*
D43*
X126150000Y-110874700D03*
X126650000Y-110874700D03*
X127150000Y-110874700D03*
X127650000Y-110874700D03*
D44*
X127870000Y-109904700D03*
D25*
X113670000Y-105550000D03*
X114630000Y-105550000D03*
D27*
X111500000Y-87260000D03*
X111500000Y-86240000D03*
D23*
X110800000Y-116990000D03*
X110800000Y-118010000D03*
X99500000Y-86240000D03*
X99500000Y-87260000D03*
D22*
X114600000Y-110635000D03*
X114600000Y-111665000D03*
D16*
X111600000Y-102760000D03*
X111600000Y-101800000D03*
D27*
X126450000Y-91710000D03*
X126450000Y-90690000D03*
D45*
X127950000Y-106550000D03*
X129850000Y-106550000D03*
D27*
X105100000Y-95610000D03*
X105100000Y-94590000D03*
D46*
X124200000Y-98230000D03*
X125150000Y-98230000D03*
X126100000Y-98230000D03*
X126100000Y-95720000D03*
X125150000Y-95720000D03*
X124200000Y-95720000D03*
D47*
X131850000Y-101950000D03*
X127850000Y-101950000D03*
D16*
X100900000Y-108000000D03*
X100900000Y-107040000D03*
D23*
X125950000Y-105040000D03*
X125950000Y-106060000D03*
D48*
X116200000Y-110400000D03*
X116200000Y-111800000D03*
D24*
X103580000Y-109900000D03*
X102620000Y-109900000D03*
D20*
X110800000Y-115070000D03*
X110800000Y-116030000D03*
D23*
X121000000Y-111390000D03*
X121000000Y-112410000D03*
D49*
X96795000Y-107230000D03*
X96795000Y-109430000D03*
X98495000Y-109430000D03*
X98495000Y-107230000D03*
D26*
X116355000Y-106800000D03*
X117375000Y-106800000D03*
D24*
X127980000Y-112400000D03*
X127020000Y-112400000D03*
D17*
X114675000Y-85600000D03*
X115268109Y-84168109D03*
X115268109Y-87031891D03*
X116700000Y-83575000D03*
D18*
X116700000Y-85600000D03*
D17*
X116700000Y-87625000D03*
X118131891Y-84168109D03*
X118131891Y-87031891D03*
X118725000Y-85600000D03*
D16*
X113700000Y-107780000D03*
X113700000Y-106820000D03*
D14*
X126199999Y-115344700D03*
X128200001Y-115344700D03*
D15*
X123849999Y-121244700D03*
X130550001Y-121244700D03*
D24*
X105950000Y-113725000D03*
X104990000Y-113725000D03*
D17*
X116575000Y-153600000D03*
X117168109Y-152168109D03*
X117168109Y-155031891D03*
X118600000Y-151575000D03*
D18*
X118600000Y-153600000D03*
D17*
X118600000Y-155625000D03*
X120031891Y-152168109D03*
X120031891Y-155031891D03*
X120625000Y-153600000D03*
D50*
X100500000Y-120400000D03*
X99530000Y-120400000D03*
D51*
X118130000Y-116380000D03*
X117730000Y-116380000D03*
X117330000Y-116380000D03*
X116930000Y-116380000D03*
X116930000Y-117290000D03*
X117330000Y-117290000D03*
X117730000Y-117290000D03*
X118130000Y-117290000D03*
D52*
X117530000Y-116835000D03*
D20*
X111775000Y-114375000D03*
X111775000Y-115335000D03*
D53*
X94400000Y-144200000D03*
X118600000Y-144200000D03*
D54*
X107675000Y-98200000D03*
X112300000Y-89850000D03*
X119000000Y-116200000D03*
X95800000Y-105700000D03*
X123000000Y-145100000D03*
X109050000Y-109100000D03*
X92500000Y-134700000D03*
X126450000Y-92200000D03*
X116350000Y-117550000D03*
X107600000Y-103100000D03*
X110975000Y-95950000D03*
X125100000Y-110200000D03*
X117200000Y-94500000D03*
X123400000Y-115500000D03*
X95500000Y-109400000D03*
X132500000Y-87000000D03*
X88800000Y-98800000D03*
X108000000Y-95000000D03*
X114750000Y-89900000D03*
X102300000Y-89400000D03*
X103000000Y-158000000D03*
X113500000Y-98350000D03*
X97800000Y-96400000D03*
X95500000Y-107200000D03*
X101700000Y-105800000D03*
X121150000Y-93950000D03*
X119600000Y-94400000D03*
X106500000Y-134750000D03*
X123000000Y-150300000D03*
X95955000Y-101100000D03*
X105900000Y-90000000D03*
X116550000Y-96750000D03*
X100200000Y-105800000D03*
X114125000Y-111750000D03*
X125300000Y-114100000D03*
X125900000Y-102600000D03*
X131300000Y-108800000D03*
X112150000Y-120550000D03*
X98800000Y-105700000D03*
X114250000Y-106800000D03*
X98125000Y-116725000D03*
X88800000Y-108800000D03*
X102600000Y-106850000D03*
X99500000Y-88000000D03*
X111500000Y-116000000D03*
X88800000Y-113800000D03*
X110350000Y-107900000D03*
X124650000Y-86700000D03*
X107500000Y-129000000D03*
X123000000Y-139900000D03*
X89000000Y-145100000D03*
X128475000Y-96250000D03*
X128500000Y-92000000D03*
X106500000Y-122000000D03*
X114730000Y-92800000D03*
X100300000Y-110700000D03*
X88800000Y-118800000D03*
X125100000Y-84350000D03*
X116350000Y-116850000D03*
X88800000Y-93600000D03*
X126750000Y-109900000D03*
X111500000Y-87900000D03*
X99600000Y-122600000D03*
X125300000Y-114900000D03*
X102000000Y-94000000D03*
X109100000Y-90000000D03*
X97200000Y-110900000D03*
X131100000Y-100600000D03*
X110300000Y-110300000D03*
X114250000Y-138250000D03*
X112300000Y-92750000D03*
X102200000Y-117100000D03*
X110100000Y-109100000D03*
X118825000Y-105225000D03*
X106225000Y-120275000D03*
X125300000Y-115700000D03*
X125150000Y-99050000D03*
X104075000Y-119900000D03*
X90750000Y-97000000D03*
X123000000Y-129500000D03*
X109350000Y-117025000D03*
X111100000Y-101800000D03*
X121550000Y-110600000D03*
X113500000Y-129500000D03*
X132500000Y-123400000D03*
X129600000Y-107650000D03*
X107000000Y-151250000D03*
X101800000Y-109925000D03*
X124000000Y-109300000D03*
X121800000Y-89325000D03*
X130350000Y-107650000D03*
X113500000Y-150300000D03*
X104700000Y-101000000D03*
X123500000Y-110600000D03*
X125300000Y-116500000D03*
X106000000Y-92800000D03*
X99500000Y-155500000D03*
X104100000Y-93400000D03*
X100250000Y-129500000D03*
X126800000Y-92850000D03*
X123000000Y-134700000D03*
X88800000Y-123800000D03*
X99000000Y-139250000D03*
X97400000Y-105700000D03*
X109550000Y-121150000D03*
X132500000Y-113000000D03*
X99525000Y-151375000D03*
X125500000Y-86700000D03*
X123450000Y-94200000D03*
X128200000Y-89300000D03*
X119500000Y-124500000D03*
X132500000Y-100600000D03*
X115200000Y-117800000D03*
X131100000Y-103250000D03*
X92500000Y-129000000D03*
X113500000Y-101000000D03*
X132500000Y-91425000D03*
X111100000Y-98350000D03*
X117525000Y-101300000D03*
X116475000Y-108725000D03*
X111500000Y-92750000D03*
X100000000Y-83321140D03*
X119900000Y-114500000D03*
X100800000Y-91500000D03*
X107800000Y-107800000D03*
X99000000Y-147100000D03*
X113500000Y-155500000D03*
X115200000Y-105550000D03*
X127500000Y-121000000D03*
X95250000Y-119000000D03*
X110600000Y-158300000D03*
X121525000Y-98025000D03*
X109900000Y-114800000D03*
X112250000Y-83321140D03*
X132500000Y-103300000D03*
X132500000Y-97400000D03*
X105200000Y-83321140D03*
X113100000Y-113250000D03*
X108925000Y-92875000D03*
X122400000Y-109300000D03*
X101600000Y-114700000D03*
X124300000Y-110200000D03*
X123200000Y-109300000D03*
X88800000Y-88400000D03*
X110800000Y-116500000D03*
X96100000Y-112200000D03*
X115700000Y-115950000D03*
X115200000Y-116850000D03*
X123900000Y-92850000D03*
X89000000Y-150300000D03*
X95700000Y-110900000D03*
X107675000Y-101067582D03*
X125250000Y-105050000D03*
X99500000Y-134700000D03*
X122175000Y-98025000D03*
X119600000Y-116200000D03*
X108300000Y-110300000D03*
X115000000Y-104125000D03*
X127500000Y-126500000D03*
X131300000Y-107700000D03*
X109050320Y-107797432D03*
X109000000Y-144875912D03*
X113500000Y-133500000D03*
X118750000Y-111250000D03*
X118750000Y-110500000D03*
X113500000Y-145100000D03*
X132500000Y-118200000D03*
X98800000Y-110900000D03*
X93350000Y-92050000D03*
X88800000Y-103800000D03*
X106500000Y-139900000D03*
X108700000Y-89350000D03*
X101100000Y-120400000D03*
X89000000Y-139900000D03*
X126200000Y-113200000D03*
X105000000Y-113100000D03*
X126900000Y-113200000D03*
X119300000Y-115600000D03*
X107800000Y-109100000D03*
X97900000Y-92750000D03*
X103000000Y-119275000D03*
X97600000Y-94700000D03*
X107400000Y-119900000D03*
X105250000Y-119500000D03*
X117200000Y-93350000D03*
X106700000Y-95400000D03*
X98500000Y-102225000D03*
X106000000Y-104300000D03*
X115560000Y-96250000D03*
X119950000Y-97300000D03*
X107800000Y-93450000D03*
X109950000Y-93350000D03*
X109975000Y-95475000D03*
X119150000Y-92650000D03*
X100125000Y-95475000D03*
X105100000Y-93400000D03*
X105700000Y-102100000D03*
X117500000Y-114100000D03*
X117900000Y-113500000D03*
X117100000Y-113500000D03*
X102225000Y-111000000D03*
X115350000Y-109050000D03*
X110200000Y-107000000D03*
X109450000Y-111200000D03*
X114875000Y-109450000D03*
X111150000Y-109450000D03*
X110500000Y-113800000D03*
X110400000Y-102800000D03*
X106950000Y-110125000D03*
X100275000Y-93375000D03*
X122300000Y-111400000D03*
X111000000Y-119650000D03*
X122000000Y-115600000D03*
X111225000Y-121800000D03*
X108950000Y-122350000D03*
X126100000Y-107300000D03*
X125150000Y-94650000D03*
X125100000Y-85750000D03*
D55*
X128200000Y-88405000D02*
X128200000Y-89300000D01*
X107600000Y-103100000D02*
X107600000Y-103425000D01*
X113700000Y-106820000D02*
X114230000Y-106820000D01*
X109900000Y-114800000D02*
X109700000Y-114800000D01*
X114630000Y-105550000D02*
X115200000Y-105550000D01*
X110800000Y-116500000D02*
X110800000Y-116990000D01*
X100500000Y-120400000D02*
X101100000Y-120400000D01*
X109700000Y-114800000D02*
X109600000Y-114700000D01*
D56*
X117330000Y-116830000D02*
X117350000Y-116850000D01*
D55*
X109384875Y-114700000D02*
X109364875Y-114680000D01*
X109364875Y-114680000D02*
X109300000Y-114680000D01*
X101600000Y-117075000D02*
X101625000Y-117100000D01*
D56*
X112512500Y-111525000D02*
X113510000Y-111525000D01*
D55*
X98125000Y-116725000D02*
X98475000Y-117075000D01*
D57*
X117530000Y-116835000D02*
X119125000Y-116835000D01*
D55*
X104990000Y-113110000D02*
X104990000Y-113725000D01*
X102620000Y-106870000D02*
X102620000Y-107500000D01*
X113395000Y-113250000D02*
X113100000Y-113250000D01*
X125260000Y-105040000D02*
X125250000Y-105050000D01*
X102600000Y-106850000D02*
X102620000Y-106870000D01*
X98600000Y-117075000D02*
X98625000Y-117100000D01*
X114125000Y-111675000D02*
X114135000Y-111665000D01*
X99500000Y-88000000D02*
X99500000Y-87260000D01*
X111100000Y-101800000D02*
X111600000Y-101800000D01*
X108700000Y-88405000D02*
X108700000Y-89350000D01*
X101825000Y-109950000D02*
X101800000Y-109925000D01*
X131100000Y-100600000D02*
X131100000Y-103250000D01*
X114230000Y-106820000D02*
X114250000Y-106800000D01*
X105000000Y-113100000D02*
X104990000Y-113110000D01*
D57*
X117330000Y-116380000D02*
X117330000Y-116830000D01*
D55*
X114250000Y-106800000D02*
X114240000Y-106800000D01*
X111500000Y-87260000D02*
X111500000Y-87900000D01*
X125150000Y-98230000D02*
X125150000Y-99050000D01*
X111775000Y-115725000D02*
X111500000Y-116000000D01*
X126450000Y-91710000D02*
X126450000Y-92200000D01*
X132500000Y-100600000D02*
X132500000Y-103300000D01*
D56*
X112487500Y-111500000D02*
X112512500Y-111525000D01*
D55*
X111775000Y-115335000D02*
X111775000Y-115725000D01*
X114125000Y-111750000D02*
X114100000Y-111725000D01*
X121800000Y-88405000D02*
X121800000Y-89325000D01*
D57*
X119125000Y-116835000D02*
X119140000Y-116850000D01*
D58*
X114135000Y-111665000D02*
X114600000Y-111665000D01*
D55*
X98475000Y-117075000D02*
X98600000Y-117075000D01*
X114065000Y-111665000D02*
X113650000Y-111665000D01*
X114100000Y-111700000D02*
X114065000Y-111665000D01*
X109600000Y-114700000D02*
X109384875Y-114700000D01*
X102200000Y-117100000D02*
X101625000Y-117100000D01*
X102540000Y-109950000D02*
X101825000Y-109950000D01*
X114100000Y-111725000D02*
X114100000Y-111700000D01*
X113650000Y-113505000D02*
X113395000Y-113250000D01*
X125950000Y-105040000D02*
X125260000Y-105040000D01*
X114240000Y-106800000D02*
X114220000Y-106820000D01*
X102300000Y-88405000D02*
X102300000Y-89400000D01*
X114125000Y-111750000D02*
X114125000Y-111675000D01*
X123900000Y-92110000D02*
X123900000Y-92850000D01*
D59*
X107900000Y-88405000D02*
X107900000Y-90200000D01*
X122250000Y-96300000D02*
X122250000Y-92650000D01*
X127380000Y-97000000D02*
X122950000Y-97000000D01*
X127950000Y-97570000D02*
X127380000Y-97000000D01*
X122950000Y-97000000D02*
X122250000Y-96300000D01*
X109100000Y-91400000D02*
X105118000Y-91400000D01*
X122250000Y-92650000D02*
X121000000Y-91400000D01*
X127950000Y-106550000D02*
X127950000Y-97570000D01*
X121000000Y-91400000D02*
X109100000Y-91400000D01*
X107900000Y-90200000D02*
X109100000Y-91400000D01*
X103100000Y-89382000D02*
X103100000Y-88405000D01*
X105118000Y-91400000D02*
X103100000Y-89382000D01*
D57*
X106175000Y-117400000D02*
X106649000Y-116926000D01*
X103000000Y-119175000D02*
X104775000Y-117400000D01*
X106649000Y-116926000D02*
X106649000Y-112636500D01*
X103000000Y-119275000D02*
X103000000Y-119175000D01*
X104775000Y-117400000D02*
X106175000Y-117400000D01*
D56*
X104900000Y-107100000D02*
X105612500Y-107100000D01*
X97600000Y-94700000D02*
X102700000Y-99800000D01*
X102700000Y-104900000D02*
X104900000Y-107100000D01*
X102700000Y-99800000D02*
X102700000Y-104900000D01*
D57*
X107450000Y-112537500D02*
X107450000Y-119850000D01*
X107450000Y-119850000D02*
X107400000Y-119900000D01*
X105775000Y-119500000D02*
X105250000Y-119500000D01*
X107050000Y-112537500D02*
X107050000Y-118225000D01*
X107050000Y-118225000D02*
X105775000Y-119500000D01*
D56*
X110250000Y-104228208D02*
X110778208Y-103700000D01*
X114300000Y-101300000D02*
X114300000Y-95200000D01*
X111900000Y-103700000D02*
X114300000Y-101300000D01*
X110778208Y-103700000D02*
X111900000Y-103700000D01*
X116150000Y-93350000D02*
X117200000Y-93350000D01*
X110250000Y-105662500D02*
X110250000Y-104228208D01*
X114300000Y-95200000D02*
X116150000Y-93350000D01*
X106700000Y-95900000D02*
X108250000Y-97450000D01*
X108250000Y-97450000D02*
X108250000Y-105662500D01*
X106700000Y-95400000D02*
X106700000Y-95900000D01*
X98500000Y-102225000D02*
X99375000Y-102225000D01*
X104650000Y-107500000D02*
X105612500Y-107500000D01*
X99375000Y-102225000D02*
X104650000Y-107500000D01*
X106000000Y-104300000D02*
X105950000Y-104350000D01*
X105950000Y-104400000D02*
X106650000Y-105100000D01*
X105950000Y-104350000D02*
X105950000Y-104400000D01*
X106650000Y-105100000D02*
X106650000Y-105662500D01*
X110650000Y-104500000D02*
X111000000Y-104150000D01*
X112550000Y-104150000D02*
X115157932Y-101542068D01*
X115157932Y-101542068D02*
X115560000Y-101140000D01*
X111000000Y-104150000D02*
X112550000Y-104150000D01*
X115560000Y-101140000D02*
X115560000Y-96250000D01*
X110650000Y-105662500D02*
X110650000Y-104500000D01*
X115450000Y-104950000D02*
X111550000Y-104950000D01*
X111450000Y-105050000D02*
X111450000Y-105662500D01*
X111550000Y-104950000D02*
X111450000Y-105050000D01*
X119950000Y-100450000D02*
X119950000Y-97300000D01*
X119950000Y-100450000D02*
X115450000Y-104950000D01*
X107800000Y-93475000D02*
X108650000Y-94325000D01*
X107800000Y-93450000D02*
X107800000Y-93475000D01*
X108650000Y-105662500D02*
X108650000Y-94325000D01*
X111760000Y-99840000D02*
X111760000Y-95160000D01*
X109450000Y-105662500D02*
X109450000Y-102150000D01*
X109450000Y-102150000D02*
X111760000Y-99840000D01*
X111760000Y-95160000D02*
X109950000Y-93350000D01*
X109975000Y-100425000D02*
X109975000Y-95475000D01*
X109975000Y-100425000D02*
X109050000Y-101350000D01*
X109050000Y-101350000D02*
X109050000Y-105662500D01*
X117350000Y-100650000D02*
X117350000Y-95350000D01*
X113450000Y-104550000D02*
X117350000Y-100650000D01*
X111300000Y-104550000D02*
X113450000Y-104550000D01*
X111050000Y-104800000D02*
X111300000Y-104550000D01*
X111050000Y-105662500D02*
X111050000Y-104800000D01*
X119150000Y-93550000D02*
X119150000Y-92650000D01*
X117350000Y-95350000D02*
X119150000Y-93550000D01*
X105150000Y-106700000D02*
X103350000Y-104900000D01*
X103350000Y-104900000D02*
X103350000Y-98700000D01*
X103350000Y-98700000D02*
X100125000Y-95475000D01*
X105612500Y-106700000D02*
X105150000Y-106700000D01*
X105100000Y-94590000D02*
X105100000Y-93400000D01*
X104800000Y-103000000D02*
X105700000Y-102100000D01*
X104700000Y-103000000D02*
X104800000Y-103000000D01*
D57*
X111775000Y-114375000D02*
X112750000Y-114375000D01*
X111650000Y-114125000D02*
X111795000Y-114270000D01*
X111450000Y-113475000D02*
X111650000Y-113675000D01*
X111950000Y-109100000D02*
X111675000Y-108825000D01*
X111675000Y-108825000D02*
X111675000Y-108700000D01*
X113050000Y-108700000D02*
X113700000Y-108050000D01*
X105950000Y-113725000D02*
X105800000Y-113575000D01*
X113050000Y-108700000D02*
X112650000Y-109100000D01*
X112487500Y-109100000D02*
X111950000Y-109100000D01*
X103980000Y-107900000D02*
X103780000Y-107700000D01*
X109050000Y-112537500D02*
X109050000Y-112075000D01*
D56*
X112487500Y-110700000D02*
X111700000Y-110700000D01*
D57*
X109050000Y-113470000D02*
X109300000Y-113720000D01*
X107850000Y-105662500D02*
X107850000Y-104975000D01*
D56*
X112512500Y-110675000D02*
X113610000Y-110675000D01*
D57*
X111650000Y-113675000D02*
X111650000Y-114125000D01*
X113700000Y-108050000D02*
X113700000Y-107675000D01*
X112650000Y-109100000D02*
X112487500Y-109100000D01*
X106350000Y-111900000D02*
X106600000Y-111650000D01*
X105800000Y-113575000D02*
X105800000Y-111900000D01*
X109050000Y-112075000D02*
X108725000Y-111750000D01*
X105612500Y-111900000D02*
X106350000Y-111900000D01*
X111850000Y-105662500D02*
X111962500Y-105550000D01*
X112487500Y-108700000D02*
X113050000Y-108700000D01*
X109050000Y-112537500D02*
X109050000Y-113470000D01*
X111962500Y-105550000D02*
X113670000Y-105550000D01*
D56*
X121000000Y-113400000D02*
X121000000Y-112410000D01*
D57*
X111850000Y-106150000D02*
X111500000Y-106500000D01*
X107850000Y-105662500D02*
X107850000Y-106500000D01*
X111450000Y-112537500D02*
X111450000Y-113475000D01*
X121000000Y-113400000D02*
X118000000Y-113400000D01*
X111795000Y-114270000D02*
X111800000Y-114270000D01*
X112487500Y-108700000D02*
X111675000Y-108700000D01*
X105800000Y-111900000D02*
X105612500Y-111900000D01*
D56*
X112487500Y-110700000D02*
X112512500Y-110675000D01*
D57*
X105612500Y-107900000D02*
X106400000Y-107900000D01*
X111850000Y-105662500D02*
X111850000Y-106150000D01*
X105612500Y-107900000D02*
X103980000Y-107900000D01*
X107600000Y-104725000D02*
X107600000Y-104385000D01*
X107850000Y-104975000D02*
X107600000Y-104725000D01*
D56*
X118000000Y-113400000D02*
X117900000Y-113500000D01*
D57*
X105612500Y-109100000D02*
X104743256Y-109100000D01*
D56*
X113225000Y-110300000D02*
X113400000Y-110125000D01*
D57*
X103943256Y-109900000D02*
X103580000Y-109900000D01*
X110650000Y-115070000D02*
X110650000Y-113950000D01*
X110400000Y-102800000D02*
X109850000Y-103350000D01*
X102480000Y-111000000D02*
X102225000Y-111000000D01*
D56*
X109450000Y-112537500D02*
X109450000Y-112950000D01*
D57*
X109850000Y-103350000D02*
X109850000Y-105662500D01*
X110650000Y-113950000D02*
X110500000Y-113800000D01*
X110440000Y-102760000D02*
X110400000Y-102800000D01*
D56*
X113400000Y-110125000D02*
X113425000Y-110100000D01*
X113425000Y-110100000D02*
X114300000Y-110100000D01*
D57*
X104743256Y-109100000D02*
X103943256Y-109900000D01*
X111600000Y-102760000D02*
X110440000Y-102760000D01*
D56*
X112487500Y-110300000D02*
X113225000Y-110300000D01*
X110300000Y-113800000D02*
X110500000Y-113800000D01*
D57*
X103535000Y-109945000D02*
X102480000Y-111000000D01*
D56*
X109450000Y-112950000D02*
X110300000Y-113800000D01*
D57*
X113650000Y-112575000D02*
X113162500Y-112575000D01*
X113162500Y-112575000D02*
X112487500Y-111900000D01*
X114590000Y-112575000D02*
X114625000Y-112540000D01*
X113650000Y-112575000D02*
X114590000Y-112575000D01*
D56*
X100725000Y-108075000D02*
X100250000Y-108075000D01*
X96795000Y-107456000D02*
X96795000Y-107230000D01*
X100069000Y-108256000D02*
X97595000Y-108256000D01*
X101834999Y-108300000D02*
X101609999Y-108075000D01*
X97595000Y-108256000D02*
X96795000Y-107456000D01*
X101609999Y-108075000D02*
X101075000Y-108075000D01*
X100250000Y-108075000D02*
X100069000Y-108256000D01*
X105612500Y-108300000D02*
X101834999Y-108300000D01*
X99095000Y-108830000D02*
X98495000Y-109430000D01*
X100875000Y-108830000D02*
X102440000Y-108830000D01*
X100825000Y-108830000D02*
X99095000Y-108830000D01*
D55*
X110800000Y-118010000D02*
X110710000Y-118100000D01*
X110710000Y-118100000D02*
X109600000Y-118100000D01*
D56*
X116190000Y-105610000D02*
X115600000Y-106200000D01*
X115600000Y-106200000D02*
X112587500Y-106200000D01*
X112587500Y-106200000D02*
X112487500Y-106300000D01*
X116190000Y-105400000D02*
X116190000Y-105610000D01*
D57*
X117085000Y-105550000D02*
X117100000Y-105550000D01*
X122000000Y-101150000D02*
X122000000Y-101500000D01*
X117135000Y-105600000D02*
X117085000Y-105550000D01*
X117150000Y-105550000D02*
X117085000Y-105550000D01*
X121550000Y-101150000D02*
X117150000Y-105550000D01*
X122000000Y-101150000D02*
X121550000Y-101150000D01*
D56*
X116355000Y-106800000D02*
X115700000Y-106800000D01*
X115700000Y-106800000D02*
X113000000Y-109500000D01*
X113000000Y-109500000D02*
X112487500Y-109500000D01*
D60*
X118692518Y-107057500D02*
X117632500Y-107057500D01*
X124200000Y-99137501D02*
X124902500Y-99840001D01*
X124902500Y-99840001D02*
X124902500Y-100847518D01*
X124902500Y-100847518D02*
X118692518Y-107057500D01*
X117632500Y-107057500D02*
X117375000Y-106800000D01*
X124200000Y-98230000D02*
X124200000Y-99137501D01*
D56*
X113100000Y-109900000D02*
X115175000Y-107825000D01*
X115175000Y-107825000D02*
X116340000Y-107825000D01*
X112487500Y-109900000D02*
X113100000Y-109900000D01*
D60*
X126100000Y-98230000D02*
X126100000Y-99137501D01*
X125397500Y-101052554D02*
X118897554Y-107552500D01*
X126100000Y-99137501D02*
X125397500Y-99840001D01*
X125397500Y-99840001D02*
X125397500Y-101052554D01*
X117632500Y-107552500D02*
X117360000Y-107825000D01*
X118897554Y-107552500D02*
X117632500Y-107552500D01*
D56*
X106250000Y-105662500D02*
X105762500Y-105662500D01*
X104700000Y-104600000D02*
X104700000Y-104020000D01*
X105762500Y-105662500D02*
X104700000Y-104600000D01*
X104200000Y-108700000D02*
X105612500Y-108700000D01*
X103550000Y-108800000D02*
X104100000Y-108800000D01*
X104100000Y-108800000D02*
X104200000Y-108700000D01*
X107050000Y-105662500D02*
X107050000Y-105000000D01*
X106950000Y-98550000D02*
X105100000Y-96700000D01*
X107050000Y-105000000D02*
X106950000Y-104900000D01*
X105100000Y-96700000D02*
X105100000Y-95610000D01*
X106950000Y-104900000D02*
X106950000Y-98550000D01*
X105250000Y-110300000D02*
X105612500Y-110300000D01*
X105175000Y-110300000D02*
X105612500Y-110300000D01*
X105300000Y-115925000D02*
X104325000Y-115925000D01*
X104000000Y-111475000D02*
X105175000Y-110300000D01*
X104325000Y-115925000D02*
X104000000Y-115600000D01*
X104000000Y-115600000D02*
X104000000Y-111475000D01*
X103974000Y-104824000D02*
X105450000Y-106300000D01*
X100275000Y-93375000D02*
X103974000Y-97074000D01*
X105450000Y-106300000D02*
X105612500Y-106300000D01*
X103974000Y-97074000D02*
X103974000Y-104824000D01*
X104953611Y-109500000D02*
X100273999Y-114179613D01*
X99625001Y-114843749D02*
X99625001Y-117100000D01*
X105612500Y-109500000D02*
X104953611Y-109500000D01*
X100273999Y-114194751D02*
X99625001Y-114843749D01*
X100273999Y-114179613D02*
X100273999Y-114194751D01*
X100624999Y-114325001D02*
X100624999Y-117100000D01*
X105612500Y-109900000D02*
X105050000Y-109900000D01*
X105050000Y-109900000D02*
X100624999Y-114325001D01*
D60*
X124266500Y-89516336D02*
X124266500Y-87564316D01*
X124200000Y-95720000D02*
X124200000Y-94200000D01*
X124380816Y-87450000D02*
X125187000Y-87450000D01*
X124200000Y-94200000D02*
X124900520Y-93499480D01*
X124266500Y-87564316D02*
X124380816Y-87450000D01*
X125187000Y-87450000D02*
X125249500Y-87512500D01*
X124900520Y-93499480D02*
X124900520Y-90150356D01*
X125249500Y-87512500D02*
X125249500Y-88190550D01*
X124900520Y-90150356D02*
X124266500Y-89516336D01*
X124762500Y-89309500D02*
X124762500Y-88405000D01*
X125397500Y-89944500D02*
X125397500Y-89727500D01*
X125397500Y-89944500D02*
X124762500Y-89309500D01*
X126100000Y-95720000D02*
X126100000Y-94200000D01*
X125397500Y-89727500D02*
X125736500Y-89388500D01*
X125397500Y-93497500D02*
X125397500Y-89944500D01*
X126100000Y-94200000D02*
X125397500Y-93497500D01*
X125736500Y-89388500D02*
X125736500Y-88405000D01*
D56*
X123250000Y-88867500D02*
X123250000Y-89700000D01*
X123925000Y-90375000D02*
X123925000Y-91240000D01*
X123250000Y-89700000D02*
X123925000Y-90375000D01*
X126324000Y-88276000D02*
X126300000Y-88300000D01*
X126300000Y-88300000D02*
X126300000Y-89150000D01*
X126300000Y-88800000D02*
X126300000Y-88300000D01*
X126300000Y-89150000D02*
X126450000Y-89300000D01*
X126450000Y-89300000D02*
X126450000Y-90690000D01*
X99480000Y-120380000D02*
X99500000Y-120400000D01*
X99480000Y-119300000D02*
X99480000Y-120380000D01*
X101300000Y-119300000D02*
X100500000Y-119300000D01*
X105925000Y-116900000D02*
X103700000Y-116900000D01*
X105612500Y-111500000D02*
X105050000Y-111500000D01*
X104424000Y-114524000D02*
X104800000Y-114900000D01*
X105925000Y-114900000D02*
X106273000Y-115248000D01*
X104424000Y-112126000D02*
X104424000Y-114524000D01*
X106273000Y-116552000D02*
X105925000Y-116900000D01*
X106273000Y-115248000D02*
X106273000Y-116552000D01*
X105050000Y-111500000D02*
X104424000Y-112126000D01*
X104800000Y-114900000D02*
X105925000Y-114900000D01*
X103700000Y-116900000D02*
X101300000Y-119300000D01*
X124960000Y-106200000D02*
X125950000Y-106200000D01*
X127100000Y-106550000D02*
X126750000Y-106200000D01*
X126750000Y-106200000D02*
X125900000Y-106200000D01*
D57*
X124910000Y-106250000D02*
X124960000Y-106200000D01*
D56*
X127100000Y-108884700D02*
X127100000Y-106550000D01*
D57*
X123890000Y-107490000D02*
X124750000Y-108350000D01*
X123890000Y-106250000D02*
X123890000Y-107300000D01*
X123890000Y-107300000D02*
X123890000Y-107490000D01*
X124750000Y-108350000D02*
X124850000Y-108450000D01*
X126150000Y-108650000D02*
X126150000Y-108934700D01*
X126000000Y-111400000D02*
X122300000Y-111400000D01*
X121000000Y-111390000D02*
X122290000Y-111390000D01*
X126150000Y-111250000D02*
X126000000Y-111400000D01*
D56*
X108650000Y-118600000D02*
X108650000Y-112537500D01*
D57*
X126150000Y-110650000D02*
X126150000Y-111250000D01*
D56*
X122290000Y-111390000D02*
X122300000Y-111400000D01*
X109700000Y-119650000D02*
X108650000Y-118600000D01*
X111000000Y-119650000D02*
X109700000Y-119650000D01*
D57*
X122020000Y-113080000D02*
X122500000Y-112600000D01*
X122020000Y-113400000D02*
X122020000Y-115580000D01*
X122500000Y-112600000D02*
X125500000Y-112600000D01*
X125500000Y-112600000D02*
X126650000Y-111450000D01*
D56*
X111225000Y-121800000D02*
X108250000Y-118825000D01*
D57*
X126650000Y-111450000D02*
X126650000Y-110874700D01*
D56*
X108250000Y-118825000D02*
X108250000Y-112537500D01*
D57*
X122020000Y-113400000D02*
X122020000Y-113080000D01*
D56*
X122020000Y-115580000D02*
X122000000Y-115600000D01*
X112650000Y-124950000D02*
X119200000Y-118400000D01*
D59*
X119310000Y-117980000D02*
X119140000Y-117810000D01*
X127654700Y-109904700D02*
X128854700Y-109904700D01*
D56*
X93575000Y-124950000D02*
X112650000Y-124950000D01*
D59*
X128854700Y-109904700D02*
X129344700Y-110394700D01*
X129700000Y-117600000D02*
X129320000Y-117980000D01*
X129320000Y-117980000D02*
X119310000Y-117980000D01*
D56*
X90999999Y-115294700D02*
X90999999Y-122374999D01*
D55*
X127650000Y-109900000D02*
X127654700Y-109904700D01*
D59*
X129700000Y-110394700D02*
X129700000Y-117600000D01*
D56*
X119200000Y-118400000D02*
X119200000Y-117810000D01*
D55*
X129344700Y-110394700D02*
X129700000Y-110394700D01*
D56*
X90999999Y-122374999D02*
X93575000Y-124950000D01*
X117330000Y-117290000D02*
X117330000Y-118770000D01*
X112200000Y-123900000D02*
X112000000Y-123900000D01*
X93000001Y-115294700D02*
X93000001Y-122300001D01*
X112000000Y-123900000D02*
X112100000Y-123900000D01*
X93000001Y-122300001D02*
X94600000Y-123900000D01*
X117330000Y-118770000D02*
X112200000Y-123900000D01*
X94600000Y-123900000D02*
X112000000Y-123900000D01*
X107850000Y-119075000D02*
X107850000Y-112537500D01*
D57*
X126650000Y-108934700D02*
X126650000Y-107850000D01*
D56*
X108600000Y-122000000D02*
X108600000Y-119825000D01*
D57*
X126650000Y-107850000D02*
X126100000Y-107300000D01*
D56*
X108950000Y-122350000D02*
X108600000Y-122000000D01*
D57*
X126100000Y-107300000D02*
X124910000Y-107300000D01*
D56*
X108600000Y-119825000D02*
X107850000Y-119075000D01*
D57*
X125450000Y-85750000D02*
X127250000Y-87550000D01*
X125100000Y-85750000D02*
X125450000Y-85750000D01*
X125150000Y-95720000D02*
X125150000Y-94650000D01*
X127250000Y-87550000D02*
X127250000Y-88255000D01*
X125100000Y-85750000D02*
X124650000Y-85750000D01*
X124650000Y-85750000D02*
X122600000Y-87800000D01*
X122600000Y-87800000D02*
X122600000Y-88405000D01*
X127250000Y-88255000D02*
X127400000Y-88405000D01*
X102940000Y-86240000D02*
X99500000Y-86240000D01*
X103750000Y-87050000D02*
X102940000Y-86240000D01*
X103750000Y-88405000D02*
X103750000Y-87050000D01*
X106750000Y-87100000D02*
X107610000Y-86240000D01*
X106750000Y-88405000D02*
X106750000Y-87100000D01*
X107610000Y-86240000D02*
X111500000Y-86240000D01*
G04 #@! TA.AperFunction,Conductor*
G36*
X128561296Y-105819685D02*
G01*
X128587001Y-105841692D01*
X128607492Y-105864781D01*
X128637268Y-105927988D01*
X128638748Y-105947089D01*
X128638748Y-107809890D01*
X128619063Y-107876929D01*
X128602429Y-107897571D01*
X127950000Y-108549999D01*
X127950000Y-109248638D01*
X127941355Y-109278078D01*
X127934832Y-109308065D01*
X127931077Y-109313080D01*
X127930315Y-109315677D01*
X127913681Y-109336319D01*
X127836319Y-109413681D01*
X127774996Y-109447166D01*
X127748638Y-109450000D01*
X127609413Y-109450000D01*
X127542374Y-109430315D01*
X127496619Y-109377511D01*
X127487874Y-109325112D01*
X127485500Y-109325112D01*
X127485500Y-108550377D01*
X127471908Y-108482049D01*
X127471907Y-108482048D01*
X127470894Y-108480531D01*
X127469701Y-108476721D01*
X127467235Y-108470767D01*
X127467768Y-108470546D01*
X127450020Y-108413852D01*
X127450000Y-108411646D01*
X127450000Y-105951362D01*
X127458644Y-105921921D01*
X127465168Y-105891935D01*
X127468922Y-105886919D01*
X127469685Y-105884323D01*
X127486319Y-105863681D01*
X127513681Y-105836319D01*
X127575004Y-105802834D01*
X127601362Y-105800000D01*
X128494257Y-105800000D01*
X128561296Y-105819685D01*
G37*
G04 #@! TD.AperFunction*
G04 #@! TA.AperFunction,Conductor*
G36*
X115840370Y-96305721D02*
G01*
X115847798Y-96310721D01*
X115849517Y-96319509D01*
X115848877Y-96321620D01*
X115637975Y-96836967D01*
X115631670Y-96843326D01*
X115627147Y-96844236D01*
X115492853Y-96844236D01*
X115484580Y-96840809D01*
X115482025Y-96836967D01*
X115271122Y-96321620D01*
X115271160Y-96312666D01*
X115277519Y-96306361D01*
X115279622Y-96305723D01*
X115557682Y-96249469D01*
X115562318Y-96249469D01*
X115840370Y-96305721D01*
G37*
G04 #@! TD.AperFunction*
G04 #@! TA.AperFunction,Conductor*
G36*
X105227397Y-111400617D02*
G01*
X105569479Y-111488669D01*
X105576636Y-111494050D01*
X105577893Y-111502917D01*
X105572512Y-111510074D01*
X105569478Y-111511331D01*
X105227396Y-111599382D01*
X105222557Y-111599592D01*
X105084777Y-111576629D01*
X105077179Y-111571889D01*
X105075000Y-111565088D01*
X105075000Y-111434911D01*
X105078427Y-111426638D01*
X105084775Y-111423370D01*
X105222557Y-111400407D01*
X105227397Y-111400617D01*
G37*
G04 #@! TD.AperFunction*
G04 #@! TA.AperFunction,Conductor*
G36*
X122148149Y-112826312D02*
G01*
X122278359Y-112956522D01*
X122281780Y-112964411D01*
X122289789Y-113208593D01*
X122286635Y-113216974D01*
X122284714Y-113218625D01*
X122029979Y-113393376D01*
X122021218Y-113395230D01*
X122013712Y-113390347D01*
X122013088Y-113389330D01*
X121852737Y-113095303D01*
X121851785Y-113086399D01*
X121855080Y-113081098D01*
X122131949Y-112825980D01*
X122140354Y-112822895D01*
X122148149Y-112826312D01*
G37*
G04 #@! TD.AperFunction*
G04 #@! TA.AperFunction,Conductor*
G36*
X124205368Y-98244106D02*
G01*
X124210396Y-98249134D01*
X124487010Y-98784871D01*
X124487761Y-98793795D01*
X124487578Y-98794324D01*
X124365337Y-99122385D01*
X124359237Y-99128941D01*
X124354373Y-99130000D01*
X124045627Y-99130000D01*
X124037354Y-99126573D01*
X124034663Y-99122385D01*
X123978712Y-98972231D01*
X123912421Y-98794322D01*
X123912744Y-98785375D01*
X123912970Y-98784908D01*
X124189604Y-98249133D01*
X124196444Y-98243355D01*
X124205368Y-98244106D01*
G37*
G04 #@! TD.AperFunction*
G04 #@! TA.AperFunction,Conductor*
G36*
X109584435Y-114457508D02*
G01*
X109846509Y-114596701D01*
X109852208Y-114603607D01*
X109852721Y-114607033D01*
X109852721Y-114987470D01*
X109849294Y-114995743D01*
X109841021Y-114999170D01*
X109840221Y-114999143D01*
X109281133Y-114960831D01*
X109273114Y-114956846D01*
X109270260Y-114948358D01*
X109270295Y-114947962D01*
X109298486Y-114684796D01*
X109302745Y-114676959D01*
X109571580Y-114458757D01*
X109580160Y-114456205D01*
X109584435Y-114457508D01*
G37*
G04 #@! TD.AperFunction*
G04 #@! TA.AperFunction,Conductor*
G36*
X98571617Y-101936121D02*
G01*
X99086967Y-102147025D01*
X99093326Y-102153330D01*
X99094236Y-102157853D01*
X99094236Y-102292146D01*
X99090809Y-102300419D01*
X99086967Y-102302974D01*
X98571620Y-102513877D01*
X98562666Y-102513839D01*
X98556361Y-102507480D01*
X98555722Y-102505374D01*
X98499469Y-102227318D01*
X98499469Y-102222680D01*
X98555722Y-101944628D01*
X98560721Y-101937201D01*
X98569509Y-101935482D01*
X98571617Y-101936121D01*
G37*
G04 #@! TD.AperFunction*
G04 #@! TA.AperFunction,Conductor*
G36*
X131298452Y-102659191D02*
G01*
X131301702Y-102665437D01*
X131392259Y-103180239D01*
X131390317Y-103188981D01*
X131383056Y-103193734D01*
X131102320Y-103250530D01*
X131097680Y-103250530D01*
X130816943Y-103193734D01*
X130809514Y-103188734D01*
X130807740Y-103180239D01*
X130898298Y-102665437D01*
X130903106Y-102657883D01*
X130909821Y-102655764D01*
X131290179Y-102655764D01*
X131298452Y-102659191D01*
G37*
G04 #@! TD.AperFunction*
G04 #@! TA.AperFunction,Conductor*
G36*
X105221175Y-113143746D02*
G01*
X105282852Y-113156224D01*
X105290281Y-113161224D01*
X105292017Y-113169927D01*
X105191842Y-113684771D01*
X105186898Y-113692237D01*
X105180357Y-113694236D01*
X104800004Y-113694236D01*
X104791731Y-113690809D01*
X104788446Y-113684353D01*
X104785907Y-113668206D01*
X104707503Y-113169589D01*
X104709603Y-113160886D01*
X104716740Y-113156306D01*
X104997682Y-113099469D01*
X105002318Y-113099469D01*
X105221175Y-113143746D01*
G37*
G04 #@! TD.AperFunction*
G04 #@! TA.AperFunction,Conductor*
G36*
X130265677Y-105819685D02*
G01*
X130286319Y-105836319D01*
X130463681Y-106013681D01*
X130497166Y-106075004D01*
X130500000Y-106101362D01*
X130500000Y-106900000D01*
X131888710Y-107714071D01*
X131936589Y-107764955D01*
X131950000Y-107821045D01*
X131950000Y-108711138D01*
X131930315Y-108778177D01*
X131913681Y-108798819D01*
X131648819Y-109063681D01*
X131587496Y-109097166D01*
X131561138Y-109100000D01*
X130350000Y-109100000D01*
X129166363Y-109100000D01*
X129099324Y-109080315D01*
X129063189Y-109044783D01*
X128920826Y-108831239D01*
X128900018Y-108764540D01*
X128900000Y-108762456D01*
X128900000Y-108147144D01*
X128919685Y-108080105D01*
X128931316Y-108064768D01*
X129300000Y-107650000D01*
X129300000Y-105970123D01*
X129300475Y-105967191D01*
X129300081Y-105965642D01*
X129306363Y-105930912D01*
X129321737Y-105884789D01*
X129361611Y-105827414D01*
X129426174Y-105800705D01*
X129439374Y-105800000D01*
X130198638Y-105800000D01*
X130265677Y-105819685D01*
G37*
G04 #@! TD.AperFunction*
G04 #@! TA.AperFunction,Conductor*
G36*
X106152468Y-105565415D02*
G01*
X106154680Y-105567134D01*
X106242602Y-105654186D01*
X106246070Y-105662442D01*
X106242684Y-105670732D01*
X106242602Y-105670814D01*
X106154680Y-105757865D01*
X106146390Y-105761251D01*
X106143610Y-105760902D01*
X106058862Y-105739715D01*
X106051667Y-105734384D01*
X106050000Y-105728364D01*
X106050000Y-105596635D01*
X106053427Y-105588362D01*
X106058860Y-105585284D01*
X106143611Y-105564097D01*
X106152468Y-105565415D01*
G37*
G04 #@! TD.AperFunction*
G04 #@! TA.AperFunction,Conductor*
G36*
X99683788Y-108754532D02*
G01*
X99691910Y-108758300D01*
X99695000Y-108766222D01*
X99695000Y-108901442D01*
X99693020Y-108907955D01*
X99101270Y-109791101D01*
X99093818Y-109796066D01*
X99085411Y-109794548D01*
X98505661Y-109437188D01*
X98500416Y-109429930D01*
X98501840Y-109421089D01*
X98502917Y-109419613D01*
X99091305Y-108734303D01*
X99099293Y-108730260D01*
X99100665Y-108730236D01*
X99683788Y-108754532D01*
G37*
G04 #@! TD.AperFunction*
G04 #@! TA.AperFunction,Conductor*
G36*
X108898452Y-88759191D02*
G01*
X108901702Y-88765437D01*
X108992259Y-89280239D01*
X108990317Y-89288981D01*
X108983056Y-89293734D01*
X108702320Y-89350530D01*
X108697680Y-89350530D01*
X108416943Y-89293734D01*
X108409514Y-89288734D01*
X108407740Y-89280239D01*
X108498298Y-88765437D01*
X108503106Y-88757883D01*
X108509821Y-88755764D01*
X108890179Y-88755764D01*
X108898452Y-88759191D01*
G37*
G04 #@! TD.AperFunction*
G04 #@! TA.AperFunction,Conductor*
G36*
X132783056Y-100656265D02*
G01*
X132790485Y-100661265D01*
X132792259Y-100669760D01*
X132701702Y-101184563D01*
X132696894Y-101192117D01*
X132690179Y-101194236D01*
X132309821Y-101194236D01*
X132301548Y-101190809D01*
X132298298Y-101184563D01*
X132207740Y-100669760D01*
X132209682Y-100661018D01*
X132216942Y-100656265D01*
X132497682Y-100599469D01*
X132502318Y-100599469D01*
X132783056Y-100656265D01*
G37*
G04 #@! TD.AperFunction*
G04 #@! TA.AperFunction,Conductor*
G36*
X108323361Y-105128427D02*
G01*
X108326629Y-105134776D01*
X108346483Y-105253897D01*
X108346620Y-105256533D01*
X108345100Y-105281447D01*
X108345100Y-105281470D01*
X108345309Y-105286301D01*
X108345613Y-105288348D01*
X108345370Y-105292980D01*
X108261331Y-105619478D01*
X108255950Y-105626636D01*
X108247084Y-105627893D01*
X108239926Y-105622512D01*
X108238669Y-105619479D01*
X108150869Y-105278375D01*
X108150500Y-105275458D01*
X108150500Y-105272969D01*
X108150659Y-105271046D01*
X108173370Y-105134777D01*
X108178110Y-105127179D01*
X108184911Y-105125000D01*
X108315088Y-105125000D01*
X108323361Y-105128427D01*
G37*
G04 #@! TD.AperFunction*
G04 #@! TA.AperFunction,Conductor*
G36*
X126660555Y-110903802D02*
G01*
X126661033Y-110904956D01*
X126781343Y-111245786D01*
X126781765Y-111252064D01*
X126751939Y-111395384D01*
X126746898Y-111402785D01*
X126740484Y-111404700D01*
X126559516Y-111404700D01*
X126551243Y-111401273D01*
X126548061Y-111395384D01*
X126518234Y-111252062D01*
X126518656Y-111245786D01*
X126638967Y-110904954D01*
X126644952Y-110898295D01*
X126653895Y-110897817D01*
X126660555Y-110903802D01*
G37*
G04 #@! TD.AperFunction*
G04 #@! TA.AperFunction,Conductor*
G36*
X125165677Y-109019685D02*
G01*
X125186319Y-109036319D01*
X125800000Y-109650000D01*
X126948638Y-109650000D01*
X126978078Y-109658644D01*
X127008065Y-109665168D01*
X127013080Y-109668922D01*
X127015677Y-109669685D01*
X127036319Y-109686319D01*
X127063681Y-109713681D01*
X127097166Y-109775004D01*
X127100000Y-109801362D01*
X127100000Y-109998638D01*
X127080315Y-110065677D01*
X127063681Y-110086319D01*
X127036319Y-110113681D01*
X126974996Y-110147166D01*
X126948638Y-110150000D01*
X125800000Y-110150000D01*
X125237230Y-110853462D01*
X125179979Y-110893514D01*
X125140402Y-110900000D01*
X123400093Y-110900000D01*
X123333054Y-110880315D01*
X123313963Y-110865206D01*
X121937870Y-109536564D01*
X121903315Y-109475837D01*
X121900000Y-109447358D01*
X121900000Y-109176362D01*
X121908644Y-109146921D01*
X121915168Y-109116935D01*
X121918922Y-109111919D01*
X121919685Y-109109323D01*
X121936319Y-109088681D01*
X121988681Y-109036319D01*
X122050004Y-109002834D01*
X122076362Y-109000000D01*
X125098638Y-109000000D01*
X125165677Y-109019685D01*
G37*
G04 #@! TD.AperFunction*
G04 #@! TA.AperFunction,Conductor*
G36*
X110255370Y-95530721D02*
G01*
X110262798Y-95535721D01*
X110264517Y-95544509D01*
X110263877Y-95546620D01*
X110052975Y-96061967D01*
X110046670Y-96068326D01*
X110042147Y-96069236D01*
X109907853Y-96069236D01*
X109899580Y-96065809D01*
X109897025Y-96061967D01*
X109686122Y-95546620D01*
X109686160Y-95537666D01*
X109692519Y-95531361D01*
X109694622Y-95530723D01*
X109972682Y-95474469D01*
X109977318Y-95474469D01*
X110255370Y-95530721D01*
G37*
G04 #@! TD.AperFunction*
G04 #@! TA.AperFunction,Conductor*
G36*
X125430930Y-94705835D02*
G01*
X125438358Y-94710834D01*
X125440077Y-94719622D01*
X125439608Y-94721290D01*
X125252796Y-95236524D01*
X125246755Y-95243134D01*
X125241797Y-95244236D01*
X125058203Y-95244236D01*
X125049930Y-95240809D01*
X125047204Y-95236524D01*
X124999544Y-95105078D01*
X124860391Y-94721288D01*
X124860792Y-94712344D01*
X124867402Y-94706303D01*
X124869056Y-94705837D01*
X125147682Y-94649469D01*
X125152318Y-94649469D01*
X125430930Y-94705835D01*
G37*
G04 #@! TD.AperFunction*
G04 #@! TA.AperFunction,Conductor*
G36*
X132698452Y-102709191D02*
G01*
X132701702Y-102715437D01*
X132792259Y-103230239D01*
X132790317Y-103238981D01*
X132783056Y-103243734D01*
X132502320Y-103300530D01*
X132497680Y-103300530D01*
X132216943Y-103243734D01*
X132209514Y-103238734D01*
X132207740Y-103230239D01*
X132298298Y-102715437D01*
X132303106Y-102707883D01*
X132309821Y-102705764D01*
X132690179Y-102705764D01*
X132698452Y-102709191D01*
G37*
G04 #@! TD.AperFunction*
G04 #@! TA.AperFunction,Conductor*
G36*
X111874000Y-111925000D02*
G01*
X111874001Y-111925000D01*
X111875498Y-111926497D01*
X111877227Y-111928712D01*
X112024065Y-112173441D01*
X112025407Y-112176765D01*
X112175000Y-112825000D01*
X112175000Y-112825001D01*
X112175001Y-112825002D01*
X112724997Y-113624997D01*
X112724998Y-113624998D01*
X112724999Y-113624998D01*
X112725000Y-113625000D01*
X112924998Y-113774998D01*
X113224999Y-114000000D01*
X113225000Y-114000000D01*
X114099999Y-114000000D01*
X114100000Y-114000000D01*
X114298594Y-113354568D01*
X114304203Y-113347787D01*
X114772486Y-113101322D01*
X114777842Y-113100000D01*
X118671869Y-113100000D01*
X118677699Y-113101587D01*
X119094331Y-113346665D01*
X119099632Y-113353691D01*
X119100000Y-113356577D01*
X119100000Y-113895810D01*
X119097306Y-113903207D01*
X118050000Y-115150000D01*
X118050000Y-115750001D01*
X118298786Y-116247572D01*
X118300000Y-116252715D01*
X118300000Y-116458000D01*
X118296632Y-116466132D01*
X118288500Y-116469500D01*
X118273553Y-116469500D01*
X118253420Y-116470488D01*
X118238998Y-116471908D01*
X118238988Y-116471909D01*
X118231352Y-116473041D01*
X118219012Y-116474871D01*
X118194347Y-116479779D01*
X118192103Y-116480000D01*
X118067895Y-116480000D01*
X118065651Y-116479779D01*
X118040984Y-116474871D01*
X118020999Y-116471908D01*
X118014029Y-116471222D01*
X118006577Y-116470489D01*
X118006561Y-116470488D01*
X118006565Y-116470488D01*
X117986446Y-116469500D01*
X117986445Y-116469500D01*
X117873555Y-116469500D01*
X117873553Y-116469500D01*
X117853420Y-116470488D01*
X117838998Y-116471908D01*
X117838988Y-116471909D01*
X117831352Y-116473041D01*
X117819012Y-116474871D01*
X117794347Y-116479779D01*
X117792103Y-116480000D01*
X117670784Y-116480000D01*
X117662652Y-116476632D01*
X117659296Y-116469031D01*
X117659162Y-116466132D01*
X117658797Y-116458227D01*
X117631052Y-116372035D01*
X117630500Y-116368514D01*
X117630500Y-116340438D01*
X117610021Y-116264012D01*
X117610021Y-116264011D01*
X117601541Y-116249323D01*
X117600000Y-116243573D01*
X117600000Y-116100001D01*
X117600000Y-116100000D01*
X117599999Y-116100000D01*
X117447582Y-116100000D01*
X117444606Y-116099608D01*
X117369562Y-116079500D01*
X117290438Y-116079500D01*
X117215394Y-116099608D01*
X117212418Y-116100000D01*
X117075001Y-116100000D01*
X117075000Y-116100000D01*
X117075000Y-116100001D01*
X117075000Y-116217592D01*
X117073459Y-116223342D01*
X117049978Y-116264012D01*
X117029500Y-116340438D01*
X117029500Y-116377192D01*
X117028176Y-116382549D01*
X117009625Y-116417792D01*
X117009620Y-116417803D01*
X117007319Y-116426449D01*
X117005925Y-116448282D01*
X117005292Y-116458222D01*
X117005259Y-116458733D01*
X117001379Y-116466633D01*
X116993782Y-116469500D01*
X116723930Y-116469500D01*
X116715798Y-116466132D01*
X116714018Y-116463831D01*
X116641434Y-116340438D01*
X116500894Y-116101520D01*
X116499604Y-116098285D01*
X116295865Y-115215415D01*
X116295572Y-115212837D01*
X116295572Y-115174001D01*
X116288911Y-115140513D01*
X116279929Y-115095359D01*
X116258255Y-115043033D01*
X116258251Y-115043026D01*
X116258249Y-115043022D01*
X116255857Y-115039215D01*
X116254389Y-115035683D01*
X116200000Y-114800000D01*
X113575251Y-114800000D01*
X113572778Y-114799731D01*
X112330727Y-114526261D01*
X112323510Y-114521223D01*
X112322657Y-114519624D01*
X111814584Y-113353691D01*
X111650957Y-112978196D01*
X111650000Y-112973602D01*
X111650000Y-112175001D01*
X111650000Y-112174999D01*
X111525000Y-111925000D01*
X111525000Y-111475000D01*
X111874000Y-111475000D01*
X111874000Y-111925000D01*
G37*
G04 #@! TD.AperFunction*
G04 #@! TA.AperFunction,Conductor*
G36*
X112896087Y-110203514D02*
G01*
X113015224Y-110223370D01*
X113022821Y-110228111D01*
X113025000Y-110234911D01*
X113025000Y-110365088D01*
X113021573Y-110373361D01*
X113015224Y-110376629D01*
X112924378Y-110391770D01*
X112878953Y-110399341D01*
X112877031Y-110399500D01*
X112874541Y-110399500D01*
X112871624Y-110399131D01*
X112530520Y-110311330D01*
X112523363Y-110305949D01*
X112522106Y-110297082D01*
X112527487Y-110289925D01*
X112530512Y-110288671D01*
X112857025Y-110204626D01*
X112861656Y-110204386D01*
X112863693Y-110204689D01*
X112868532Y-110204899D01*
X112893469Y-110203378D01*
X112896087Y-110203514D01*
G37*
G04 #@! TD.AperFunction*
G04 #@! TA.AperFunction,Conductor*
G36*
X99702530Y-115998527D02*
G01*
X99703514Y-115999645D01*
X99951006Y-116319872D01*
X99953354Y-116328514D01*
X99952514Y-116331610D01*
X99635766Y-117075711D01*
X99629373Y-117081981D01*
X99620418Y-117081893D01*
X99614236Y-117075711D01*
X99297487Y-116331610D01*
X99297399Y-116322655D01*
X99298991Y-116319877D01*
X99546488Y-115999644D01*
X99554258Y-115995195D01*
X99555745Y-115995100D01*
X99694257Y-115995100D01*
X99702530Y-115998527D01*
G37*
G04 #@! TD.AperFunction*
G04 #@! TA.AperFunction,Conductor*
G36*
X113706212Y-107787585D02*
G01*
X113879316Y-108048304D01*
X113881037Y-108057092D01*
X113877109Y-108063722D01*
X113570936Y-108321775D01*
X113562402Y-108324487D01*
X113555123Y-108321102D01*
X113424175Y-108190154D01*
X113420827Y-108183242D01*
X113390994Y-107928490D01*
X113393436Y-107919875D01*
X113397784Y-107916474D01*
X113691640Y-107783398D01*
X113700588Y-107783108D01*
X113706212Y-107787585D01*
G37*
G04 #@! TD.AperFunction*
G04 #@! TA.AperFunction,Conductor*
G36*
X98328208Y-116477882D02*
G01*
X98333873Y-116483500D01*
X98620803Y-117090335D01*
X98621242Y-117099279D01*
X98615435Y-117105813D01*
X98303354Y-117260975D01*
X98294420Y-117261589D01*
X98288921Y-117257696D01*
X97989943Y-116874577D01*
X97987555Y-116865947D01*
X97990893Y-116859107D01*
X98266422Y-116583579D01*
X98312679Y-116483586D01*
X98319261Y-116477519D01*
X98328208Y-116477882D01*
G37*
G04 #@! TD.AperFunction*
G04 #@! TA.AperFunction,Conductor*
G36*
X103782393Y-109603972D02*
G01*
X104009297Y-109689281D01*
X104013453Y-109691960D01*
X104144554Y-109823061D01*
X104147981Y-109831334D01*
X104144554Y-109839607D01*
X104144297Y-109839857D01*
X103858241Y-110108912D01*
X103849867Y-110112084D01*
X103842960Y-110109560D01*
X103587629Y-109907310D01*
X103583272Y-109899487D01*
X103585073Y-109891780D01*
X103768455Y-109608564D01*
X103775828Y-109603483D01*
X103782393Y-109603972D01*
G37*
G04 #@! TD.AperFunction*
G04 #@! TA.AperFunction,Conductor*
G36*
X121007743Y-112415838D02*
G01*
X121215268Y-112599111D01*
X121262463Y-112640791D01*
X121266396Y-112648836D01*
X121264552Y-112655899D01*
X121078456Y-112944638D01*
X121071094Y-112949736D01*
X121068622Y-112950000D01*
X120931378Y-112950000D01*
X120923105Y-112946573D01*
X120921544Y-112944638D01*
X120735447Y-112655899D01*
X120733845Y-112647089D01*
X120737535Y-112640792D01*
X120992256Y-112415838D01*
X121000725Y-112412931D01*
X121007743Y-112415838D01*
G37*
G04 #@! TD.AperFunction*
G04 #@! TA.AperFunction,Conductor*
G36*
X100528869Y-93219431D02*
G01*
X100529910Y-93221376D01*
X100745184Y-93734912D01*
X100745222Y-93743866D01*
X100742667Y-93747708D01*
X100647708Y-93842667D01*
X100639435Y-93846094D01*
X100634912Y-93845184D01*
X100121376Y-93629910D01*
X100115071Y-93623551D01*
X100115109Y-93614597D01*
X100116147Y-93612656D01*
X100272985Y-93376263D01*
X100276263Y-93372985D01*
X100512653Y-93216149D01*
X100521440Y-93214431D01*
X100528869Y-93219431D01*
G37*
G04 #@! TD.AperFunction*
G04 #@! TA.AperFunction,Conductor*
G36*
X111698452Y-87309191D02*
G01*
X111701702Y-87315437D01*
X111792259Y-87830239D01*
X111790317Y-87838981D01*
X111783056Y-87843734D01*
X111502320Y-87900530D01*
X111497680Y-87900530D01*
X111216943Y-87843734D01*
X111209514Y-87838734D01*
X111207740Y-87830239D01*
X111298298Y-87315437D01*
X111303106Y-87307883D01*
X111309821Y-87305764D01*
X111690179Y-87305764D01*
X111698452Y-87309191D01*
G37*
G04 #@! TD.AperFunction*
G04 #@! TA.AperFunction,Conductor*
G36*
X112916341Y-111420431D02*
G01*
X113016372Y-111447652D01*
X113023455Y-111453130D01*
X113025000Y-111458941D01*
X113025000Y-111588300D01*
X113021573Y-111596573D01*
X113013300Y-111600000D01*
X112530468Y-111600000D01*
X112527439Y-111599601D01*
X112527062Y-111599500D01*
X112496174Y-111599500D01*
X112487901Y-111596073D01*
X112484474Y-111587800D01*
X112484477Y-111587530D01*
X112485277Y-111552876D01*
X112486280Y-111509475D01*
X112489897Y-111501286D01*
X112495815Y-111498249D01*
X112911115Y-111420222D01*
X112916341Y-111420431D01*
G37*
G04 #@! TD.AperFunction*
G04 #@! TA.AperFunction,Conductor*
G36*
X108260074Y-112577487D02*
G01*
X108261331Y-112580521D01*
X108345370Y-112907018D01*
X108345613Y-112911649D01*
X108345309Y-112913696D01*
X108345100Y-112918528D01*
X108345100Y-112918551D01*
X108346620Y-112943465D01*
X108346483Y-112946100D01*
X108326629Y-113065223D01*
X108321888Y-113072821D01*
X108315088Y-113075000D01*
X108184911Y-113075000D01*
X108176638Y-113071573D01*
X108173370Y-113065223D01*
X108153514Y-112946087D01*
X108153378Y-112943469D01*
X108154899Y-112918534D01*
X108154689Y-112913694D01*
X108154386Y-112911657D01*
X108154626Y-112907025D01*
X108238669Y-112580519D01*
X108244050Y-112573363D01*
X108252917Y-112572106D01*
X108260074Y-112577487D01*
G37*
G04 #@! TD.AperFunction*
G04 #@! TA.AperFunction,Conductor*
G36*
X102137667Y-116810767D02*
G01*
X102143683Y-116817400D01*
X102144139Y-116819041D01*
X102200243Y-117098397D01*
X102200241Y-117103015D01*
X102143891Y-117382253D01*
X102138895Y-117389685D01*
X102130108Y-117391408D01*
X102129608Y-117391295D01*
X101490082Y-117232801D01*
X101482876Y-117227485D01*
X101481540Y-117218631D01*
X101484621Y-117213174D01*
X101750964Y-116946831D01*
X101755286Y-116944093D01*
X102128725Y-116810330D01*
X102137667Y-116810767D01*
G37*
G04 #@! TD.AperFunction*
G04 #@! TA.AperFunction,Conductor*
G36*
X115628326Y-108771674D02*
G01*
X115650000Y-108824000D01*
X115650000Y-109100577D01*
X115635463Y-109144624D01*
X115150002Y-109799997D01*
X115149999Y-109800001D01*
X115075000Y-109950000D01*
X115000000Y-110100000D01*
X114900000Y-110400000D01*
X115431820Y-110061568D01*
X115471549Y-110050000D01*
X117026000Y-110050000D01*
X117078326Y-110071674D01*
X117100000Y-110124000D01*
X117100000Y-110676000D01*
X117078326Y-110728326D01*
X117026000Y-110750000D01*
X115725000Y-110750000D01*
X114367470Y-110750000D01*
X114334376Y-110742188D01*
X114189611Y-110669805D01*
X114152502Y-110627018D01*
X114148735Y-110605730D01*
X114140000Y-110300000D01*
X113989534Y-110220807D01*
X113953325Y-110177256D01*
X113950000Y-110155323D01*
X113950000Y-109630652D01*
X113971674Y-109578326D01*
X114242283Y-109307716D01*
X114259618Y-109294839D01*
X115258612Y-108758794D01*
X115293600Y-108750000D01*
X115576000Y-108750000D01*
X115628326Y-108771674D01*
G37*
G04 #@! TD.AperFunction*
G04 #@! TA.AperFunction,Conductor*
G36*
X111378155Y-101533755D02*
G01*
X111381129Y-101536300D01*
X111594752Y-101792507D01*
X111597418Y-101801056D01*
X111594752Y-101807493D01*
X111381129Y-102063699D01*
X111373199Y-102067858D01*
X111369296Y-102067554D01*
X111108853Y-102002220D01*
X111101662Y-101996884D01*
X111100000Y-101990872D01*
X111100000Y-101609127D01*
X111103427Y-101600854D01*
X111108852Y-101597779D01*
X111369296Y-101532445D01*
X111378155Y-101533755D01*
G37*
G04 #@! TD.AperFunction*
G04 #@! TA.AperFunction,Conductor*
G36*
X125133395Y-105963428D02*
G01*
X125443618Y-106121743D01*
X125449430Y-106128556D01*
X125450000Y-106132164D01*
X125450000Y-106269261D01*
X125446573Y-106277534D01*
X125445463Y-106278512D01*
X125170380Y-106491499D01*
X125161740Y-106493854D01*
X125155037Y-106490613D01*
X124916292Y-106257131D01*
X124912773Y-106248896D01*
X124915069Y-106241804D01*
X125118676Y-105966884D01*
X125126352Y-105962277D01*
X125133395Y-105963428D01*
G37*
G04 #@! TD.AperFunction*
G04 #@! TA.AperFunction,Conductor*
G36*
X126526895Y-90153427D02*
G01*
X126528456Y-90155362D01*
X126714552Y-90444099D01*
X126716154Y-90452909D01*
X126712463Y-90459207D01*
X126457745Y-90684160D01*
X126449275Y-90687068D01*
X126442255Y-90684160D01*
X126187536Y-90459207D01*
X126183603Y-90451162D01*
X126185446Y-90444101D01*
X126371544Y-90155361D01*
X126378906Y-90150264D01*
X126381378Y-90150000D01*
X126518622Y-90150000D01*
X126526895Y-90153427D01*
G37*
G04 #@! TD.AperFunction*
G04 #@! TA.AperFunction,Conductor*
G36*
X108705405Y-88418951D02*
G01*
X108710377Y-88423923D01*
X108997708Y-88975600D01*
X108998490Y-88984521D01*
X108998431Y-88984705D01*
X108902667Y-89272000D01*
X108896799Y-89278765D01*
X108891567Y-89280000D01*
X108508433Y-89280000D01*
X108500160Y-89276573D01*
X108497333Y-89272000D01*
X108401568Y-88984705D01*
X108402203Y-88975773D01*
X108402263Y-88975654D01*
X108689623Y-88423922D01*
X108696484Y-88418169D01*
X108705405Y-88418951D01*
G37*
G04 #@! TD.AperFunction*
G04 #@! TA.AperFunction,Conductor*
G36*
X105380370Y-93455721D02*
G01*
X105387798Y-93460721D01*
X105389517Y-93469509D01*
X105388877Y-93471620D01*
X105177975Y-93986967D01*
X105171670Y-93993326D01*
X105167147Y-93994236D01*
X105032853Y-93994236D01*
X105024580Y-93990809D01*
X105022025Y-93986967D01*
X104811122Y-93471620D01*
X104811160Y-93462666D01*
X104817519Y-93456361D01*
X104819622Y-93455723D01*
X105097682Y-93399469D01*
X105102318Y-93399469D01*
X105380370Y-93455721D01*
G37*
G04 #@! TD.AperFunction*
G04 #@! TA.AperFunction,Conductor*
G36*
X112006719Y-114109420D02*
G01*
X112365000Y-114275000D01*
X112365000Y-114475000D01*
X112313569Y-114498768D01*
X112006722Y-114640578D01*
X111997775Y-114640938D01*
X111992829Y-114637451D01*
X111780246Y-114382491D01*
X111777581Y-114373944D01*
X111780246Y-114367508D01*
X111992830Y-114112547D01*
X112000758Y-114108390D01*
X112006719Y-114109420D01*
G37*
G04 #@! TD.AperFunction*
G04 #@! TA.AperFunction,Conductor*
G36*
X116124207Y-106537536D02*
G01*
X116349160Y-106792255D01*
X116352068Y-106800725D01*
X116349160Y-106807745D01*
X116124207Y-107062463D01*
X116116162Y-107066396D01*
X116109099Y-107064552D01*
X115820362Y-106878455D01*
X115815264Y-106871093D01*
X115815000Y-106868621D01*
X115815000Y-106731378D01*
X115818427Y-106723105D01*
X115820362Y-106721544D01*
X116109101Y-106535446D01*
X116117909Y-106533845D01*
X116124207Y-106537536D01*
G37*
G04 #@! TD.AperFunction*
G04 #@! TA.AperFunction,Conductor*
G36*
X111123362Y-105128427D02*
G01*
X111126630Y-105134777D01*
X111149592Y-105272557D01*
X111149382Y-105277396D01*
X111061331Y-105619478D01*
X111055950Y-105626636D01*
X111047084Y-105627893D01*
X111039926Y-105622512D01*
X111038669Y-105619479D01*
X110950617Y-105277397D01*
X110950407Y-105272557D01*
X110973370Y-105134777D01*
X110978110Y-105127179D01*
X110984911Y-105125000D01*
X111115089Y-105125000D01*
X111123362Y-105128427D01*
G37*
G04 #@! TD.AperFunction*
G04 #@! TA.AperFunction,Conductor*
G36*
X105107743Y-95615838D02*
G01*
X105315268Y-95799111D01*
X105362463Y-95840791D01*
X105366396Y-95848836D01*
X105364552Y-95855899D01*
X105178456Y-96144638D01*
X105171094Y-96149736D01*
X105168622Y-96150000D01*
X105031378Y-96150000D01*
X105023105Y-96146573D01*
X105021544Y-96144638D01*
X104835447Y-95855899D01*
X104833845Y-95847089D01*
X104837535Y-95840792D01*
X105092256Y-95615838D01*
X105100725Y-95612931D01*
X105107743Y-95615838D01*
G37*
G04 #@! TD.AperFunction*
G04 #@! TA.AperFunction,Conductor*
G36*
X124157115Y-107226978D02*
G01*
X124162667Y-107234004D01*
X124162800Y-107234517D01*
X124280138Y-107733866D01*
X124278694Y-107742703D01*
X124277021Y-107744815D01*
X124147199Y-107874637D01*
X124138926Y-107878064D01*
X124132149Y-107875902D01*
X123779261Y-107625171D01*
X123774502Y-107617585D01*
X123775050Y-107611614D01*
X123887241Y-107304902D01*
X123893301Y-107298309D01*
X123895030Y-107297667D01*
X124148223Y-107225936D01*
X124157115Y-107226978D01*
G37*
G04 #@! TD.AperFunction*
G04 #@! TA.AperFunction,Conductor*
G36*
X113453592Y-110475804D02*
G01*
X113640212Y-110626300D01*
X113644500Y-110634161D01*
X113641975Y-110642753D01*
X113640613Y-110644176D01*
X113390971Y-110864724D01*
X113382502Y-110867634D01*
X113377904Y-110866376D01*
X113156379Y-110753257D01*
X113150569Y-110746443D01*
X113150000Y-110742837D01*
X113150000Y-110605785D01*
X113153427Y-110597512D01*
X113154591Y-110596492D01*
X113178929Y-110577902D01*
X113186031Y-110575500D01*
X113279798Y-110575500D01*
X113279800Y-110575500D01*
X113381058Y-110533557D01*
X113437977Y-110476637D01*
X113446247Y-110473212D01*
X113453592Y-110475804D01*
G37*
G04 #@! TD.AperFunction*
G04 #@! TA.AperFunction,Conductor*
G36*
X93010211Y-115331029D02*
G01*
X93011260Y-115333562D01*
X93493606Y-117041301D01*
X93492557Y-117050194D01*
X93491268Y-117052051D01*
X93078506Y-117538470D01*
X93070540Y-117542561D01*
X93069585Y-117542600D01*
X92930417Y-117542600D01*
X92922144Y-117539173D01*
X92921496Y-117538470D01*
X92508733Y-117052051D01*
X92505993Y-117043526D01*
X92506395Y-117041301D01*
X92988742Y-115333562D01*
X92994288Y-115326532D01*
X93003181Y-115325483D01*
X93010211Y-115331029D01*
G37*
G04 #@! TD.AperFunction*
G04 #@! TA.AperFunction,Conductor*
G36*
X131383056Y-100656265D02*
G01*
X131390485Y-100661265D01*
X131392259Y-100669760D01*
X131301702Y-101184563D01*
X131296894Y-101192117D01*
X131290179Y-101194236D01*
X130909821Y-101194236D01*
X130901548Y-101190809D01*
X130898298Y-101184563D01*
X130807740Y-100669760D01*
X130809682Y-100661018D01*
X130816942Y-100656265D01*
X131097682Y-100599469D01*
X131102318Y-100599469D01*
X131383056Y-100656265D01*
G37*
G04 #@! TD.AperFunction*
G04 #@! TA.AperFunction,Conductor*
G36*
X111523362Y-105128427D02*
G01*
X111526630Y-105134777D01*
X111549592Y-105272557D01*
X111549382Y-105277397D01*
X111461330Y-105619479D01*
X111455949Y-105626636D01*
X111447082Y-105627893D01*
X111439925Y-105622512D01*
X111438670Y-105619485D01*
X111354626Y-105292975D01*
X111354386Y-105288341D01*
X111354689Y-105286306D01*
X111354899Y-105281467D01*
X111353378Y-105256529D01*
X111353514Y-105253913D01*
X111373370Y-105134774D01*
X111378111Y-105127179D01*
X111384911Y-105125000D01*
X111515089Y-105125000D01*
X111523362Y-105128427D01*
G37*
G04 #@! TD.AperFunction*
G04 #@! TA.AperFunction,Conductor*
G36*
X117137333Y-93061160D02*
G01*
X117143638Y-93067519D01*
X117144278Y-93069630D01*
X117200530Y-93347680D01*
X117200530Y-93352320D01*
X117144278Y-93630369D01*
X117139278Y-93637798D01*
X117130490Y-93639517D01*
X117128379Y-93638877D01*
X116613033Y-93427974D01*
X116606674Y-93421669D01*
X116605764Y-93417146D01*
X116605764Y-93282853D01*
X116609191Y-93274580D01*
X116613033Y-93272025D01*
X117128380Y-93061122D01*
X117137333Y-93061160D01*
G37*
G04 #@! TD.AperFunction*
G04 #@! TA.AperFunction,Conductor*
G36*
X111507743Y-87265838D02*
G01*
X111704572Y-87439665D01*
X111764774Y-87492832D01*
X111768707Y-87500877D01*
X111768428Y-87504239D01*
X111702097Y-87790937D01*
X111696893Y-87798225D01*
X111690698Y-87800000D01*
X111309302Y-87800000D01*
X111301029Y-87796573D01*
X111297903Y-87790937D01*
X111231571Y-87504239D01*
X111233045Y-87495407D01*
X111235222Y-87492834D01*
X111492256Y-87265838D01*
X111500725Y-87262931D01*
X111507743Y-87265838D01*
G37*
G04 #@! TD.AperFunction*
G04 #@! TA.AperFunction,Conductor*
G36*
X113015224Y-109823370D02*
G01*
X113022821Y-109828110D01*
X113025000Y-109834911D01*
X113025000Y-109965088D01*
X113021573Y-109973361D01*
X113015223Y-109976629D01*
X112877442Y-109999592D01*
X112872603Y-109999382D01*
X112530521Y-109911331D01*
X112523363Y-109905950D01*
X112522106Y-109897084D01*
X112527487Y-109889926D01*
X112530518Y-109888669D01*
X112872603Y-109800616D01*
X112877442Y-109800407D01*
X113015224Y-109823370D01*
G37*
G04 #@! TD.AperFunction*
G04 #@! TA.AperFunction,Conductor*
G36*
X100702528Y-115998527D02*
G01*
X100703512Y-115999645D01*
X100951004Y-116319872D01*
X100953352Y-116328514D01*
X100952512Y-116331610D01*
X100635764Y-117075711D01*
X100629371Y-117081981D01*
X100620416Y-117081893D01*
X100614234Y-117075711D01*
X100297485Y-116331610D01*
X100297397Y-116322655D01*
X100298989Y-116319877D01*
X100546486Y-115999644D01*
X100554256Y-115995195D01*
X100555743Y-115995100D01*
X100694255Y-115995100D01*
X100702528Y-115998527D01*
G37*
G04 #@! TD.AperFunction*
G04 #@! TA.AperFunction,Conductor*
G36*
X109944464Y-114505622D02*
G01*
X109952701Y-114509131D01*
X109956044Y-114517439D01*
X109955828Y-114519566D01*
X109901453Y-114797681D01*
X109899680Y-114801963D01*
X109738738Y-115041392D01*
X109731279Y-115046346D01*
X109724416Y-115045618D01*
X109391963Y-114903039D01*
X109385711Y-114896629D01*
X109384875Y-114892286D01*
X109384875Y-114511817D01*
X109388302Y-114503544D01*
X109396573Y-114500117D01*
X109944464Y-114505622D01*
G37*
G04 #@! TD.AperFunction*
G04 #@! TA.AperFunction,Conductor*
G36*
X105188592Y-113138427D02*
G01*
X105191812Y-113144511D01*
X105268484Y-113547046D01*
X105266666Y-113555814D01*
X105263089Y-113559220D01*
X104996098Y-113722275D01*
X104987251Y-113723663D01*
X104983902Y-113722275D01*
X104716910Y-113559220D01*
X104711635Y-113551984D01*
X104711515Y-113547046D01*
X104788188Y-113144511D01*
X104793102Y-113137025D01*
X104799681Y-113135000D01*
X105180319Y-113135000D01*
X105188592Y-113138427D01*
G37*
G04 #@! TD.AperFunction*
G04 #@! TA.AperFunction,Conductor*
G36*
X127815677Y-110419685D02*
G01*
X127836319Y-110436319D01*
X127844684Y-110444684D01*
X127854629Y-110455911D01*
X128467328Y-111238281D01*
X128485687Y-111261723D01*
X128506732Y-111302216D01*
X128694671Y-111922414D01*
X128700000Y-111958375D01*
X128700000Y-117026000D01*
X128680315Y-117093039D01*
X128627511Y-117138794D01*
X128576000Y-117150000D01*
X127774000Y-117150000D01*
X127706961Y-117130315D01*
X127661206Y-117077511D01*
X127650000Y-117026000D01*
X127650000Y-112039999D01*
X127017693Y-111371561D01*
X127002625Y-111342047D01*
X126986673Y-111313000D01*
X126986482Y-111310426D01*
X126985924Y-111309332D01*
X126984070Y-111277802D01*
X126984934Y-111265295D01*
X126985240Y-111261648D01*
X126985498Y-111259026D01*
X126985500Y-111259020D01*
X126985500Y-111259013D01*
X126985626Y-111257737D01*
X126985795Y-111252849D01*
X126985814Y-111252568D01*
X126986802Y-111238282D01*
X126986380Y-111232004D01*
X126986379Y-111231999D01*
X126986097Y-111227792D01*
X126986220Y-111227783D01*
X126985500Y-111217140D01*
X126985500Y-110524000D01*
X127005185Y-110456961D01*
X127057989Y-110411206D01*
X127109500Y-110400000D01*
X127748638Y-110400000D01*
X127815677Y-110419685D01*
G37*
G04 #@! TD.AperFunction*
G04 #@! TA.AperFunction,Conductor*
G36*
X106980654Y-95455799D02*
G01*
X106988090Y-95460788D01*
X106989821Y-95469574D01*
X106989274Y-95471460D01*
X106820558Y-95911277D01*
X106817907Y-95915360D01*
X106724355Y-96008912D01*
X106716082Y-96012339D01*
X106707809Y-96008912D01*
X106705964Y-96006514D01*
X106456057Y-95576139D01*
X106454866Y-95567264D01*
X106459641Y-95560559D01*
X106695243Y-95402017D01*
X106704019Y-95400242D01*
X106980654Y-95455799D01*
G37*
G04 #@! TD.AperFunction*
G04 #@! TA.AperFunction,Conductor*
G36*
X107800389Y-103103427D02*
G01*
X107802960Y-103107307D01*
X107876722Y-103289384D01*
X107876652Y-103298338D01*
X107873177Y-103302921D01*
X107607299Y-103515173D01*
X107598696Y-103517656D01*
X107592701Y-103515173D01*
X107326822Y-103302921D01*
X107322494Y-103295081D01*
X107323276Y-103289386D01*
X107397040Y-103107307D01*
X107403323Y-103100926D01*
X107407884Y-103100000D01*
X107792116Y-103100000D01*
X107800389Y-103103427D01*
G37*
G04 #@! TD.AperFunction*
G04 #@! TA.AperFunction,Conductor*
G36*
X110130409Y-117777080D02*
G01*
X110442500Y-117897115D01*
X110448992Y-117903283D01*
X110450000Y-117908035D01*
X110450000Y-118291964D01*
X110446573Y-118300237D01*
X110442500Y-118302884D01*
X110130414Y-118422917D01*
X110121462Y-118422689D01*
X110120064Y-118421950D01*
X109909686Y-118291964D01*
X109615107Y-118109952D01*
X109609871Y-118102689D01*
X109611305Y-118093850D01*
X109615107Y-118090047D01*
X110120065Y-117778048D01*
X110128903Y-117776615D01*
X110130409Y-117777080D01*
G37*
G04 #@! TD.AperFunction*
G04 #@! TA.AperFunction,Conductor*
G36*
X114188577Y-106509955D02*
G01*
X114193788Y-106517237D01*
X114193860Y-106517566D01*
X114250530Y-106797680D01*
X114250530Y-106802320D01*
X114193680Y-107083324D01*
X114188680Y-107090753D01*
X114180465Y-107092573D01*
X113709953Y-107021503D01*
X113702284Y-107016879D01*
X113700000Y-107009934D01*
X113700000Y-106629292D01*
X113703427Y-106621019D01*
X113709050Y-106617896D01*
X114179744Y-106508490D01*
X114188577Y-106509955D01*
G37*
G04 #@! TD.AperFunction*
G04 #@! TA.AperFunction,Conductor*
G36*
X124001552Y-90553427D02*
G01*
X124003386Y-90555806D01*
X124175927Y-90851665D01*
X124177134Y-90860538D01*
X124173245Y-90866601D01*
X123907986Y-91084441D01*
X123899418Y-91087043D01*
X123892505Y-91083884D01*
X123657275Y-90860538D01*
X123648418Y-90852128D01*
X123644779Y-90843947D01*
X123646925Y-90836884D01*
X123846503Y-90554940D01*
X123854080Y-90550167D01*
X123856053Y-90550000D01*
X123993279Y-90550000D01*
X124001552Y-90553427D01*
G37*
G04 #@! TD.AperFunction*
G04 #@! TA.AperFunction,Conductor*
G36*
X111082590Y-116556170D02*
G01*
X111090018Y-116561170D01*
X111091737Y-116569958D01*
X111091700Y-116570134D01*
X111002010Y-116980796D01*
X110996896Y-116988148D01*
X110990579Y-116990000D01*
X110609421Y-116990000D01*
X110601148Y-116986573D01*
X110597990Y-116980796D01*
X110508299Y-116570134D01*
X110509882Y-116561321D01*
X110517234Y-116556207D01*
X110517297Y-116556193D01*
X110797682Y-116499469D01*
X110802318Y-116499469D01*
X111082590Y-116556170D01*
G37*
G04 #@! TD.AperFunction*
G04 #@! TA.AperFunction,Conductor*
G36*
X106723362Y-105128427D02*
G01*
X106726630Y-105134777D01*
X106749592Y-105272557D01*
X106749382Y-105277396D01*
X106661331Y-105619478D01*
X106655950Y-105626636D01*
X106647084Y-105627893D01*
X106639926Y-105622512D01*
X106638669Y-105619479D01*
X106550617Y-105277397D01*
X106550407Y-105272557D01*
X106573370Y-105134777D01*
X106578110Y-105127179D01*
X106584911Y-105125000D01*
X106715089Y-105125000D01*
X106723362Y-105128427D01*
G37*
G04 #@! TD.AperFunction*
G04 #@! TA.AperFunction,Conductor*
G36*
X113882607Y-112280645D02*
G01*
X114091869Y-112394444D01*
X114233890Y-112471677D01*
X114239520Y-112478639D01*
X114240000Y-112481955D01*
X114240000Y-112666931D01*
X114236573Y-112675204D01*
X114232459Y-112677867D01*
X113881376Y-112811376D01*
X113872425Y-112811114D01*
X113868231Y-112807933D01*
X113759783Y-112677867D01*
X113655259Y-112552507D01*
X113652594Y-112543960D01*
X113655275Y-112537506D01*
X113868048Y-112283410D01*
X113875985Y-112279269D01*
X113882607Y-112280645D01*
G37*
G04 #@! TD.AperFunction*
G04 #@! TA.AperFunction,Conductor*
G36*
X117865813Y-107394836D02*
G01*
X117871054Y-107402097D01*
X117871369Y-107404793D01*
X117871369Y-107710552D01*
X117868416Y-107718323D01*
X117636429Y-107979444D01*
X117628372Y-107983353D01*
X117621687Y-107981721D01*
X117365271Y-107828741D01*
X117359922Y-107821559D01*
X117359606Y-107817726D01*
X117384974Y-107513454D01*
X117389076Y-107505497D01*
X117393934Y-107503045D01*
X117856974Y-107393408D01*
X117865813Y-107394836D01*
G37*
G04 #@! TD.AperFunction*
G04 #@! TA.AperFunction,Conductor*
G36*
X118477057Y-113300000D02*
G01*
X118477057Y-113500000D01*
X118066671Y-113749441D01*
X117899000Y-113500000D01*
X117958527Y-113205764D01*
X118477057Y-113300000D01*
G37*
G04 #@! TD.AperFunction*
G04 #@! TA.AperFunction,Conductor*
G36*
X112897418Y-109404992D02*
G01*
X112962193Y-109428404D01*
X112966488Y-109431133D01*
X113057064Y-109521709D01*
X113060491Y-109529982D01*
X113057064Y-109538255D01*
X113052300Y-109541143D01*
X112912055Y-109585235D01*
X112906226Y-109585542D01*
X112538916Y-109511249D01*
X112531487Y-109506250D01*
X112529768Y-109497461D01*
X112534767Y-109490032D01*
X112538523Y-109488401D01*
X112890736Y-109404614D01*
X112897418Y-109404992D01*
G37*
G04 #@! TD.AperFunction*
G04 #@! TA.AperFunction,Conductor*
G36*
X110203869Y-93194431D02*
G01*
X110204910Y-93196376D01*
X110420184Y-93709912D01*
X110420222Y-93718866D01*
X110417667Y-93722708D01*
X110322708Y-93817667D01*
X110314435Y-93821094D01*
X110309912Y-93820184D01*
X109796376Y-93604910D01*
X109790071Y-93598551D01*
X109790109Y-93589597D01*
X109791147Y-93587656D01*
X109947985Y-93351263D01*
X109951263Y-93347985D01*
X110187653Y-93191149D01*
X110196440Y-93189431D01*
X110203869Y-93194431D01*
G37*
G04 #@! TD.AperFunction*
G04 #@! TA.AperFunction,Conductor*
G36*
X112102397Y-110600617D02*
G01*
X112444479Y-110688669D01*
X112451636Y-110694050D01*
X112452893Y-110702917D01*
X112447512Y-110710074D01*
X112444478Y-110711331D01*
X112102396Y-110799382D01*
X112097557Y-110799592D01*
X111959777Y-110776629D01*
X111952179Y-110771889D01*
X111950000Y-110765088D01*
X111950000Y-110634911D01*
X111953427Y-110626638D01*
X111959775Y-110623370D01*
X112097557Y-110600407D01*
X112102397Y-110600617D01*
G37*
G04 #@! TD.AperFunction*
G04 #@! TA.AperFunction,Conductor*
G36*
X104061294Y-108728558D02*
G01*
X104067069Y-108731714D01*
X104162602Y-108827247D01*
X104166029Y-108835520D01*
X104162767Y-108843625D01*
X103860930Y-109157889D01*
X103852728Y-109161482D01*
X103845767Y-109159358D01*
X103718933Y-109070274D01*
X103593224Y-108981980D01*
X103588425Y-108974422D01*
X103589932Y-108966363D01*
X103767334Y-108672446D01*
X103774541Y-108667136D01*
X103779845Y-108667064D01*
X104061294Y-108728558D01*
G37*
G04 #@! TD.AperFunction*
G04 #@! TA.AperFunction,Conductor*
G36*
X115932552Y-105330188D02*
G01*
X116184969Y-105397757D01*
X116192075Y-105403207D01*
X116192853Y-105404829D01*
X116311639Y-105711165D01*
X116311435Y-105720118D01*
X116307135Y-105725186D01*
X115950070Y-105958746D01*
X115941270Y-105960407D01*
X115935392Y-105957228D01*
X115840262Y-105862098D01*
X115836835Y-105853825D01*
X115836978Y-105852005D01*
X115917971Y-105339662D01*
X115922647Y-105332027D01*
X115931354Y-105329934D01*
X115932552Y-105330188D01*
G37*
G04 #@! TD.AperFunction*
G04 #@! TA.AperFunction,Conductor*
G36*
X108093330Y-93395142D02*
G01*
X108097740Y-93400696D01*
X108258032Y-93822578D01*
X108257767Y-93831529D01*
X108255368Y-93835007D01*
X108160382Y-93929993D01*
X108152109Y-93933420D01*
X108147279Y-93932377D01*
X107787494Y-93769313D01*
X107645844Y-93705113D01*
X107639724Y-93698577D01*
X107640018Y-93689627D01*
X107640921Y-93687997D01*
X107796592Y-93453363D01*
X107804015Y-93448367D01*
X108084553Y-93393371D01*
X108093330Y-93395142D01*
G37*
G04 #@! TD.AperFunction*
G04 #@! TA.AperFunction,Conductor*
G36*
X114859737Y-105271709D02*
G01*
X115180999Y-105347866D01*
X115188258Y-105353108D01*
X115190000Y-105359250D01*
X115190000Y-105740749D01*
X115186573Y-105749022D01*
X115180999Y-105752133D01*
X114859741Y-105828289D01*
X114850900Y-105826863D01*
X114847898Y-105824204D01*
X114790363Y-105752133D01*
X114634825Y-105557297D01*
X114632343Y-105548696D01*
X114634825Y-105542703D01*
X114847899Y-105275794D01*
X114855738Y-105271467D01*
X114859737Y-105271709D01*
G37*
G04 #@! TD.AperFunction*
G04 #@! TA.AperFunction,Conductor*
G36*
X106849840Y-87683427D02*
G01*
X106852667Y-87688000D01*
X106898900Y-87826700D01*
X106899500Y-87830400D01*
X106899500Y-87830422D01*
X106899122Y-87833371D01*
X106761322Y-88362523D01*
X106755921Y-88369665D01*
X106747051Y-88370896D01*
X106739909Y-88365495D01*
X106738678Y-88362523D01*
X106600878Y-87833371D01*
X106600500Y-87830422D01*
X106600500Y-87830400D01*
X106601100Y-87826700D01*
X106647333Y-87688000D01*
X106653201Y-87681235D01*
X106658433Y-87680000D01*
X106841567Y-87680000D01*
X106849840Y-87683427D01*
G37*
G04 #@! TD.AperFunction*
G04 #@! TA.AperFunction,Conductor*
G36*
X122728481Y-87546644D02*
G01*
X122859359Y-87677522D01*
X122862422Y-87682899D01*
X122898890Y-87825657D01*
X122897925Y-87833970D01*
X122612688Y-88380061D01*
X122605820Y-88385807D01*
X122596900Y-88385015D01*
X122591154Y-88378147D01*
X122591096Y-88377959D01*
X122557922Y-88265665D01*
X122431187Y-87836659D01*
X122432130Y-87827756D01*
X122434122Y-87825086D01*
X122711935Y-87546661D01*
X122720204Y-87543226D01*
X122728481Y-87546644D01*
G37*
G04 #@! TD.AperFunction*
G04 #@! TA.AperFunction,Conductor*
G36*
X114320893Y-110950076D02*
G01*
X114367470Y-110955500D01*
X114367475Y-110955500D01*
X115200736Y-110955500D01*
X115208868Y-110958868D01*
X115700000Y-111450000D01*
X117088500Y-111450000D01*
X117096632Y-111453368D01*
X117100000Y-111461500D01*
X117100000Y-112138500D01*
X117096632Y-112146632D01*
X117088500Y-112150000D01*
X115404764Y-112150000D01*
X115396632Y-112146632D01*
X115103368Y-111853368D01*
X115100000Y-111845236D01*
X115100000Y-111400001D01*
X115100000Y-111400000D01*
X114950000Y-111250000D01*
X114949999Y-111250000D01*
X114409189Y-111250000D01*
X114405309Y-111249326D01*
X114385782Y-111242327D01*
X114362403Y-111233947D01*
X114353512Y-111232877D01*
X114353504Y-111232876D01*
X114273569Y-111239010D01*
X114273559Y-111239012D01*
X114239572Y-111248526D01*
X114236583Y-111249363D01*
X114235829Y-111249574D01*
X114232729Y-111250000D01*
X114194271Y-111250000D01*
X114191295Y-111249608D01*
X114190892Y-111249500D01*
X114059108Y-111249500D01*
X114058705Y-111249608D01*
X114055729Y-111250000D01*
X113961837Y-111250000D01*
X113959690Y-111249798D01*
X113959285Y-111249721D01*
X113951742Y-111248287D01*
X113951740Y-111248287D01*
X113924701Y-111249978D01*
X113923983Y-111250000D01*
X113568295Y-111250000D01*
X113565948Y-111249533D01*
X113565911Y-111249721D01*
X113564800Y-111249500D01*
X113475572Y-111249500D01*
X113469946Y-111248030D01*
X113450813Y-111237297D01*
X113450810Y-111237296D01*
X113442283Y-111234584D01*
X113362588Y-111225664D01*
X113143277Y-111244328D01*
X113129369Y-111248030D01*
X113125298Y-111249113D01*
X113122342Y-111249500D01*
X113072372Y-111249500D01*
X113069356Y-111249097D01*
X113044470Y-111242325D01*
X113039363Y-111239363D01*
X113000000Y-111200000D01*
X112999999Y-111200000D01*
X112211500Y-111200000D01*
X112203368Y-111196632D01*
X112200000Y-111188500D01*
X112200000Y-111011500D01*
X112203368Y-111003368D01*
X112211500Y-111000000D01*
X112999999Y-111000000D01*
X113000000Y-111000000D01*
X113039367Y-110960632D01*
X113044470Y-110957672D01*
X113069352Y-110950902D01*
X113072367Y-110950500D01*
X113088011Y-110950500D01*
X113093240Y-110951757D01*
X113284447Y-111049395D01*
X113284453Y-111049398D01*
X113323662Y-111064587D01*
X113323666Y-111064588D01*
X113323673Y-111064591D01*
X113328271Y-111065849D01*
X113358344Y-111071709D01*
X113449281Y-111061981D01*
X113457750Y-111059071D01*
X113527030Y-111018731D01*
X113596146Y-110957670D01*
X113601000Y-110953382D01*
X113608614Y-110950500D01*
X113664800Y-110950500D01*
X113665911Y-110950279D01*
X113665948Y-110950466D01*
X113668295Y-110950000D01*
X114319564Y-110950000D01*
X114320893Y-110950076D01*
G37*
G04 #@! TD.AperFunction*
G04 #@! TA.AperFunction,Conductor*
G36*
X100732072Y-120106953D02*
G01*
X101081245Y-120197724D01*
X101088389Y-120203121D01*
X101090000Y-120209047D01*
X101090000Y-120590952D01*
X101086573Y-120599225D01*
X101081244Y-120602276D01*
X100732076Y-120693045D01*
X100723206Y-120691810D01*
X100719838Y-120688828D01*
X100504434Y-120407107D01*
X100502131Y-120398453D01*
X100504434Y-120392893D01*
X100719839Y-120111170D01*
X100727585Y-120106681D01*
X100732072Y-120106953D01*
G37*
G04 #@! TD.AperFunction*
G04 #@! TA.AperFunction,Conductor*
G36*
X102378802Y-108668693D02*
G01*
X102382827Y-108672685D01*
X102560615Y-108966113D01*
X102561971Y-108974965D01*
X102557811Y-108981396D01*
X102307809Y-109176714D01*
X102299180Y-109179107D01*
X102292280Y-109175714D01*
X102028374Y-108908417D01*
X102025000Y-108900197D01*
X102025000Y-108764100D01*
X102028427Y-108755827D01*
X102033818Y-108752760D01*
X102369941Y-108667408D01*
X102378802Y-108668693D01*
G37*
G04 #@! TD.AperFunction*
G04 #@! TA.AperFunction,Conductor*
G36*
X124098452Y-92259191D02*
G01*
X124101702Y-92265437D01*
X124192259Y-92780239D01*
X124190317Y-92788981D01*
X124183056Y-92793734D01*
X123902320Y-92850530D01*
X123897680Y-92850530D01*
X123616943Y-92793734D01*
X123609514Y-92788734D01*
X123607740Y-92780239D01*
X123698298Y-92265437D01*
X123703106Y-92257883D01*
X123709821Y-92255764D01*
X124090179Y-92255764D01*
X124098452Y-92259191D01*
G37*
G04 #@! TD.AperFunction*
G04 #@! TA.AperFunction,Conductor*
G36*
X103105404Y-88418951D02*
G01*
X103110376Y-88423923D01*
X103272264Y-88734747D01*
X103396823Y-88973901D01*
X103398177Y-88976499D01*
X103399500Y-88981904D01*
X103399500Y-88982031D01*
X103399341Y-88983954D01*
X103351630Y-89270223D01*
X103346890Y-89277821D01*
X103340089Y-89280000D01*
X102859911Y-89280000D01*
X102851638Y-89276573D01*
X102848370Y-89270223D01*
X102801284Y-88987708D01*
X102801199Y-88984501D01*
X102801926Y-88977999D01*
X102803172Y-88973908D01*
X103089624Y-88423920D01*
X103096483Y-88418169D01*
X103105404Y-88418951D01*
G37*
G04 #@! TD.AperFunction*
G04 #@! TA.AperFunction,Conductor*
G36*
X110470708Y-102509271D02*
G01*
X110985773Y-102657563D01*
X110992775Y-102663145D01*
X110994236Y-102668806D01*
X110994236Y-102852386D01*
X110990809Y-102860659D01*
X110987276Y-102863083D01*
X110575645Y-103045464D01*
X110566692Y-103045682D01*
X110561195Y-103041294D01*
X110401727Y-102804057D01*
X110399956Y-102795279D01*
X110399969Y-102795210D01*
X110456012Y-102518194D01*
X110461011Y-102510767D01*
X110469799Y-102509048D01*
X110470708Y-102509271D01*
G37*
G04 #@! TD.AperFunction*
G04 #@! TA.AperFunction,Conductor*
G36*
X102498452Y-88809191D02*
G01*
X102501702Y-88815437D01*
X102592259Y-89330239D01*
X102590317Y-89338981D01*
X102583056Y-89343734D01*
X102302320Y-89400530D01*
X102297680Y-89400530D01*
X102016943Y-89343734D01*
X102009514Y-89338734D01*
X102007740Y-89330239D01*
X102098298Y-88815437D01*
X102103106Y-88807883D01*
X102109821Y-88805764D01*
X102490179Y-88805764D01*
X102498452Y-88809191D01*
G37*
G04 #@! TD.AperFunction*
G04 #@! TA.AperFunction,Conductor*
G36*
X100638122Y-107767305D02*
G01*
X100892494Y-107992471D01*
X100896417Y-108000520D01*
X100893725Y-108008724D01*
X100681498Y-108263257D01*
X100673568Y-108267416D01*
X100668889Y-108266889D01*
X100318077Y-108152630D01*
X100311271Y-108146809D01*
X100310000Y-108141505D01*
X100310000Y-108005876D01*
X100313427Y-107997603D01*
X100314713Y-107996491D01*
X100320114Y-107992470D01*
X100623381Y-107766680D01*
X100632062Y-107764489D01*
X100638122Y-107767305D01*
G37*
G04 #@! TD.AperFunction*
G04 #@! TA.AperFunction,Conductor*
G36*
X113453543Y-105277601D02*
G01*
X113665173Y-105542701D01*
X113667656Y-105551304D01*
X113665173Y-105557299D01*
X113453543Y-105822398D01*
X113445703Y-105826726D01*
X113438893Y-105825422D01*
X113116194Y-105653303D01*
X113110507Y-105646386D01*
X113110000Y-105642980D01*
X113110000Y-105457019D01*
X113113427Y-105448746D01*
X113116192Y-105446697D01*
X113438893Y-105274576D01*
X113447805Y-105273707D01*
X113453543Y-105277601D01*
G37*
G04 #@! TD.AperFunction*
G04 #@! TA.AperFunction,Conductor*
G36*
X98380682Y-116568228D02*
G01*
X98380837Y-116568466D01*
X98572456Y-116872139D01*
X98574261Y-116878383D01*
X98574261Y-117256271D01*
X98570834Y-117264544D01*
X98562561Y-117267971D01*
X98557430Y-117266786D01*
X97970335Y-116980299D01*
X97964403Y-116973591D01*
X97964951Y-116964653D01*
X97965712Y-116963324D01*
X98122698Y-116726959D01*
X98125958Y-116723696D01*
X98364463Y-116564969D01*
X98373246Y-116563239D01*
X98380682Y-116568228D01*
G37*
G04 #@! TD.AperFunction*
G04 #@! TA.AperFunction,Conductor*
G36*
X105228376Y-108200869D02*
G01*
X105569479Y-108288669D01*
X105576636Y-108294050D01*
X105577893Y-108302917D01*
X105572512Y-108310074D01*
X105569478Y-108311331D01*
X105242980Y-108395370D01*
X105238348Y-108395612D01*
X105236321Y-108395311D01*
X105236301Y-108395309D01*
X105231473Y-108395100D01*
X105231449Y-108395100D01*
X105206533Y-108396620D01*
X105203898Y-108396483D01*
X105164190Y-108389865D01*
X105084776Y-108376629D01*
X105077179Y-108371888D01*
X105075000Y-108365088D01*
X105075000Y-108234911D01*
X105078427Y-108226638D01*
X105084775Y-108223370D01*
X105221046Y-108200659D01*
X105222969Y-108200500D01*
X105225459Y-108200500D01*
X105228376Y-108200869D01*
G37*
G04 #@! TD.AperFunction*
G04 #@! TA.AperFunction,Conductor*
G36*
X102100000Y-109684510D02*
G01*
X102385079Y-109747961D01*
X102392409Y-109753104D01*
X102394236Y-109759382D01*
X102394236Y-110139715D01*
X102390809Y-110147988D01*
X102384036Y-110151318D01*
X101975617Y-110204101D01*
X101975613Y-110204103D01*
X101858527Y-110219236D01*
X101799000Y-109925000D01*
X101858527Y-109630764D01*
X102100000Y-109684510D01*
G37*
G04 #@! TD.AperFunction*
G04 #@! TA.AperFunction,Conductor*
G36*
X123897898Y-106256227D02*
G01*
X124143468Y-106480937D01*
X124147259Y-106489051D01*
X124146231Y-106494388D01*
X123993111Y-106833119D01*
X123986581Y-106839246D01*
X123982450Y-106840000D01*
X123797550Y-106840000D01*
X123789277Y-106836573D01*
X123786889Y-106833119D01*
X123633768Y-106494388D01*
X123633483Y-106485438D01*
X123636528Y-106480940D01*
X123882102Y-106256226D01*
X123890518Y-106253170D01*
X123897898Y-106256227D01*
G37*
G04 #@! TD.AperFunction*
G04 #@! TA.AperFunction,Conductor*
G36*
X105176895Y-94053427D02*
G01*
X105178456Y-94055362D01*
X105364552Y-94344099D01*
X105366154Y-94352909D01*
X105362463Y-94359207D01*
X105107745Y-94584160D01*
X105099275Y-94587068D01*
X105092255Y-94584160D01*
X104837536Y-94359207D01*
X104833603Y-94351162D01*
X104835446Y-94344101D01*
X105021544Y-94055361D01*
X105028906Y-94050264D01*
X105031378Y-94050000D01*
X105168622Y-94050000D01*
X105176895Y-94053427D01*
G37*
G04 #@! TD.AperFunction*
G04 #@! TA.AperFunction,Conductor*
G36*
X123990723Y-106713427D02*
G01*
X123993111Y-106716881D01*
X124146231Y-107055611D01*
X124146516Y-107064561D01*
X124143468Y-107069062D01*
X123897898Y-107293772D01*
X123889482Y-107296829D01*
X123882102Y-107293772D01*
X123636531Y-107069062D01*
X123632740Y-107060948D01*
X123633767Y-107055614D01*
X123786889Y-106716880D01*
X123793419Y-106710753D01*
X123797550Y-106710000D01*
X123982450Y-106710000D01*
X123990723Y-106713427D01*
G37*
G04 #@! TD.AperFunction*
G04 #@! TA.AperFunction,Conductor*
G36*
X125348452Y-98459191D02*
G01*
X125351702Y-98465437D01*
X125442259Y-98980239D01*
X125440317Y-98988981D01*
X125433056Y-98993734D01*
X125152320Y-99050530D01*
X125147680Y-99050530D01*
X124866943Y-98993734D01*
X124859514Y-98988734D01*
X124857740Y-98980239D01*
X124948298Y-98465437D01*
X124953106Y-98457883D01*
X124959821Y-98455764D01*
X125340179Y-98455764D01*
X125348452Y-98459191D01*
G37*
G04 #@! TD.AperFunction*
G04 #@! TA.AperFunction,Conductor*
G36*
X107881034Y-103155856D02*
G01*
X107888463Y-103160856D01*
X107890182Y-103169644D01*
X107889745Y-103171225D01*
X107802758Y-103417201D01*
X107796768Y-103423858D01*
X107791727Y-103425000D01*
X107408273Y-103425000D01*
X107400000Y-103421573D01*
X107397242Y-103417201D01*
X107389565Y-103395494D01*
X107310254Y-103171223D01*
X107310727Y-103162283D01*
X107317384Y-103156293D01*
X107318960Y-103155857D01*
X107597682Y-103099469D01*
X107602318Y-103099469D01*
X107881034Y-103155856D01*
G37*
G04 #@! TD.AperFunction*
G04 #@! TA.AperFunction,Conductor*
G36*
X102663881Y-110681172D02*
G01*
X102664359Y-110681624D01*
X102794042Y-110811307D01*
X102797469Y-110819580D01*
X102794280Y-110827608D01*
X102481205Y-111159499D01*
X102473035Y-111163166D01*
X102466226Y-111161220D01*
X102315824Y-111061434D01*
X102228364Y-111003408D01*
X102223366Y-110995982D01*
X102169056Y-110718940D01*
X102170827Y-110710162D01*
X102178286Y-110705208D01*
X102179868Y-110705009D01*
X102655429Y-110678216D01*
X102663881Y-110681172D01*
G37*
G04 #@! TD.AperFunction*
G04 #@! TA.AperFunction,Conductor*
G36*
X128568472Y-109657371D02*
G01*
X129791746Y-109892465D01*
X129799223Y-109897391D01*
X129801027Y-109906162D01*
X129800999Y-109906301D01*
X129702371Y-110388001D01*
X129697355Y-110395419D01*
X129694491Y-110396792D01*
X128982264Y-110625815D01*
X128973339Y-110625086D01*
X128969933Y-110622446D01*
X128557525Y-110158023D01*
X128554574Y-110150254D01*
X128554574Y-109668862D01*
X128558001Y-109660589D01*
X128566274Y-109657162D01*
X128568472Y-109657371D01*
G37*
G04 #@! TD.AperFunction*
G04 #@! TA.AperFunction,Conductor*
G36*
X111590743Y-101598024D02*
G01*
X111598118Y-101603101D01*
X111600000Y-101609465D01*
X111600000Y-101990534D01*
X111596573Y-101998807D01*
X111590742Y-102001976D01*
X111170092Y-102091767D01*
X111161286Y-102090143D01*
X111156208Y-102082767D01*
X111156182Y-102082645D01*
X111099469Y-101802320D01*
X111099469Y-101797680D01*
X111138835Y-101603101D01*
X111156182Y-101517353D01*
X111161182Y-101509925D01*
X111169968Y-101508206D01*
X111590743Y-101598024D01*
G37*
G04 #@! TD.AperFunction*
G04 #@! TA.AperFunction,Conductor*
G36*
X125766356Y-104773243D02*
G01*
X125769248Y-104776167D01*
X125946427Y-105033363D01*
X125948298Y-105042120D01*
X125946427Y-105046637D01*
X125769248Y-105303832D01*
X125761733Y-105308701D01*
X125757620Y-105308724D01*
X125369707Y-105241677D01*
X125362139Y-105236891D01*
X125360000Y-105230148D01*
X125360000Y-104849851D01*
X125363427Y-104841578D01*
X125369706Y-104838322D01*
X125757621Y-104771275D01*
X125766356Y-104773243D01*
G37*
G04 #@! TD.AperFunction*
G04 #@! TA.AperFunction,Conductor*
G36*
X123260091Y-88444504D02*
G01*
X123261322Y-88447476D01*
X123398892Y-88975747D01*
X123398035Y-88983928D01*
X123328234Y-89123532D01*
X123321469Y-89129400D01*
X123317769Y-89130000D01*
X123182231Y-89130000D01*
X123173958Y-89126573D01*
X123171766Y-89123532D01*
X123101964Y-88983928D01*
X123101107Y-88975748D01*
X123238678Y-88447475D01*
X123244079Y-88440334D01*
X123252949Y-88439103D01*
X123260091Y-88444504D01*
G37*
G04 #@! TD.AperFunction*
G04 #@! TA.AperFunction,Conductor*
G36*
X114389085Y-112290463D02*
G01*
X114563005Y-112473649D01*
X114618491Y-112532091D01*
X114621702Y-112540451D01*
X114618638Y-112548045D01*
X114393564Y-112794012D01*
X114385450Y-112797803D01*
X114381038Y-112797147D01*
X114042806Y-112677755D01*
X114036145Y-112671770D01*
X114035000Y-112666722D01*
X114035000Y-112481922D01*
X114038427Y-112473649D01*
X114041063Y-112471669D01*
X114374972Y-112288265D01*
X114383871Y-112287287D01*
X114389085Y-112290463D01*
G37*
G04 #@! TD.AperFunction*
G04 #@! TA.AperFunction,Conductor*
G36*
X120768810Y-113137086D02*
G01*
X120994160Y-113392255D01*
X120997068Y-113400725D01*
X120994160Y-113407745D01*
X120768810Y-113662913D01*
X120760765Y-113666846D01*
X120754309Y-113665368D01*
X120465969Y-113503353D01*
X120460435Y-113496313D01*
X120460000Y-113493153D01*
X120460000Y-113306846D01*
X120463427Y-113298573D01*
X120465969Y-113296646D01*
X120754310Y-113134630D01*
X120763200Y-113133566D01*
X120768810Y-113137086D01*
G37*
G04 #@! TD.AperFunction*
G04 #@! TA.AperFunction,Conductor*
G36*
X102305405Y-88418951D02*
G01*
X102310377Y-88423923D01*
X102597708Y-88975600D01*
X102598490Y-88984521D01*
X102598431Y-88984705D01*
X102502667Y-89272000D01*
X102496799Y-89278765D01*
X102491567Y-89280000D01*
X102108433Y-89280000D01*
X102100160Y-89276573D01*
X102097333Y-89272000D01*
X102001568Y-88984705D01*
X102002203Y-88975773D01*
X102002263Y-88975654D01*
X102289623Y-88423922D01*
X102296484Y-88418169D01*
X102305405Y-88418951D01*
G37*
G04 #@! TD.AperFunction*
G04 #@! TA.AperFunction,Conductor*
G36*
X126648852Y-91713427D02*
G01*
X126652010Y-91719204D01*
X126741700Y-92129865D01*
X126740117Y-92138678D01*
X126732765Y-92143792D01*
X126732589Y-92143829D01*
X126452320Y-92200530D01*
X126447680Y-92200530D01*
X126167410Y-92143829D01*
X126159981Y-92138829D01*
X126158262Y-92130041D01*
X126158299Y-92129864D01*
X126247990Y-91719203D01*
X126253104Y-91711852D01*
X126259421Y-91710000D01*
X126640579Y-91710000D01*
X126648852Y-91713427D01*
G37*
G04 #@! TD.AperFunction*
G04 #@! TA.AperFunction,Conductor*
G36*
X104931514Y-115629025D02*
G01*
X105285685Y-115847857D01*
X105434500Y-115939805D01*
X105439737Y-115947069D01*
X105438303Y-115955908D01*
X105434286Y-115959840D01*
X104931944Y-116255598D01*
X104923076Y-116256843D01*
X104918704Y-116254656D01*
X104604396Y-116003512D01*
X104600072Y-115995671D01*
X104600000Y-115994372D01*
X104600000Y-115856130D01*
X104603427Y-115847857D01*
X104605034Y-115846514D01*
X104918705Y-115629357D01*
X104927457Y-115627467D01*
X104931514Y-115629025D01*
G37*
G04 #@! TD.AperFunction*
G04 #@! TA.AperFunction,Conductor*
G36*
X102883457Y-106906346D02*
G01*
X102890886Y-106911346D01*
X102892726Y-106919420D01*
X102821399Y-107434142D01*
X102816869Y-107441866D01*
X102809810Y-107444236D01*
X102429468Y-107444236D01*
X102421195Y-107440809D01*
X102418025Y-107434976D01*
X102308229Y-106920088D01*
X102309855Y-106911284D01*
X102317232Y-106906207D01*
X102317247Y-106906203D01*
X102597682Y-106849469D01*
X102602318Y-106849469D01*
X102883457Y-106906346D01*
G37*
G04 #@! TD.AperFunction*
G04 #@! TA.AperFunction,Conductor*
G36*
X126262646Y-94823427D02*
G01*
X126265337Y-94827615D01*
X126387578Y-95155675D01*
X126387255Y-95164624D01*
X126387010Y-95165128D01*
X126110396Y-95700865D01*
X126103556Y-95706644D01*
X126094632Y-95705893D01*
X126089604Y-95700865D01*
X126022319Y-95570551D01*
X125812988Y-95165126D01*
X125812238Y-95156204D01*
X125812408Y-95155710D01*
X125934663Y-94827615D01*
X125940763Y-94821059D01*
X125945627Y-94820000D01*
X126254373Y-94820000D01*
X126262646Y-94823427D01*
G37*
G04 #@! TD.AperFunction*
G04 #@! TA.AperFunction,Conductor*
G36*
X111852326Y-106321674D02*
G01*
X111874000Y-106374000D01*
X111874000Y-111475000D01*
X111525000Y-111475000D01*
X111525000Y-111925000D01*
X106299000Y-111925000D01*
X106246674Y-111903326D01*
X106225000Y-111851000D01*
X106225000Y-110059105D01*
X106449500Y-110059105D01*
X106449500Y-110190894D01*
X106483606Y-110318181D01*
X106483610Y-110318190D01*
X106549500Y-110432314D01*
X106646116Y-110528930D01*
X106644079Y-110530966D01*
X106667860Y-110572089D01*
X106668500Y-110581800D01*
X106668500Y-111226000D01*
X106671029Y-111258140D01*
X106675879Y-111288762D01*
X106676646Y-111293279D01*
X106676650Y-111293292D01*
X106712591Y-111377382D01*
X106716575Y-111382866D01*
X106748556Y-111426883D01*
X106762441Y-111442775D01*
X106771264Y-111452874D01*
X106772797Y-111454628D01*
X106851307Y-111501536D01*
X106909498Y-111520443D01*
X106964673Y-111529181D01*
X106972999Y-111530500D01*
X106973000Y-111530500D01*
X109042034Y-111530500D01*
X109094360Y-111552174D01*
X109142686Y-111600500D01*
X109256814Y-111666392D01*
X109384105Y-111700499D01*
X109384106Y-111700500D01*
X109384108Y-111700500D01*
X109515894Y-111700500D01*
X109515894Y-111700499D01*
X109643186Y-111666392D01*
X109757314Y-111600500D01*
X109805640Y-111552174D01*
X109857966Y-111530500D01*
X111175000Y-111530500D01*
X111207144Y-111527970D01*
X111237737Y-111523125D01*
X111242287Y-111522352D01*
X111326383Y-111486408D01*
X111375883Y-111450444D01*
X111403628Y-111426203D01*
X111450536Y-111347693D01*
X111469443Y-111289502D01*
X111479500Y-111226000D01*
X111479500Y-109858966D01*
X111501174Y-109806640D01*
X111516536Y-109791278D01*
X111550500Y-109757314D01*
X111616392Y-109643186D01*
X111650499Y-109515894D01*
X111650500Y-109515894D01*
X111650500Y-109384106D01*
X111650499Y-109384105D01*
X111630169Y-109308233D01*
X111616392Y-109256814D01*
X111550500Y-109142686D01*
X111501174Y-109093360D01*
X111479500Y-109041034D01*
X111479500Y-107023999D01*
X111476970Y-106991859D01*
X111476878Y-106991278D01*
X111472125Y-106961263D01*
X111471352Y-106956713D01*
X111435408Y-106872617D01*
X111399444Y-106823117D01*
X111375203Y-106795372D01*
X111296693Y-106748464D01*
X111238507Y-106729558D01*
X111238503Y-106729557D01*
X111238502Y-106729557D01*
X111190969Y-106722029D01*
X111175001Y-106719500D01*
X111175000Y-106719500D01*
X110657568Y-106719500D01*
X110605242Y-106697826D01*
X110602406Y-106694592D01*
X110507314Y-106599500D01*
X110393190Y-106533610D01*
X110393181Y-106533606D01*
X110265894Y-106499500D01*
X110265892Y-106499500D01*
X110134108Y-106499500D01*
X110134106Y-106499500D01*
X110006818Y-106533606D01*
X110006809Y-106533610D01*
X109892685Y-106599500D01*
X109796070Y-106696116D01*
X109794395Y-106694441D01*
X109752094Y-106718866D01*
X109742432Y-106719500D01*
X106973000Y-106719500D01*
X106940859Y-106722029D01*
X106910237Y-106726879D01*
X106905720Y-106727646D01*
X106905707Y-106727650D01*
X106821617Y-106763591D01*
X106772121Y-106799552D01*
X106744372Y-106823796D01*
X106697464Y-106902306D01*
X106678558Y-106960492D01*
X106668500Y-107023999D01*
X106668500Y-109668200D01*
X106646826Y-109720526D01*
X106645483Y-109721703D01*
X106549500Y-109817685D01*
X106483610Y-109931809D01*
X106483606Y-109931818D01*
X106449500Y-110059105D01*
X106225000Y-110059105D01*
X106225000Y-106374000D01*
X106246674Y-106321674D01*
X106299000Y-106300000D01*
X111800000Y-106300000D01*
X111852326Y-106321674D01*
G37*
G04 #@! TD.AperFunction*
G04 #@! TA.AperFunction,Conductor*
G36*
X110723361Y-105128427D02*
G01*
X110726629Y-105134776D01*
X110746483Y-105253897D01*
X110746620Y-105256533D01*
X110745100Y-105281447D01*
X110745100Y-105281470D01*
X110745309Y-105286301D01*
X110745613Y-105288348D01*
X110745370Y-105292980D01*
X110661331Y-105619478D01*
X110655950Y-105626636D01*
X110647084Y-105627893D01*
X110639926Y-105622512D01*
X110638669Y-105619479D01*
X110554628Y-105292980D01*
X110554626Y-105292975D01*
X110554386Y-105288341D01*
X110554689Y-105286306D01*
X110554899Y-105281467D01*
X110553378Y-105256529D01*
X110553514Y-105253913D01*
X110573370Y-105134774D01*
X110578111Y-105127179D01*
X110584911Y-105125000D01*
X110715088Y-105125000D01*
X110723361Y-105128427D01*
G37*
G04 #@! TD.AperFunction*
G04 #@! TA.AperFunction,Conductor*
G36*
X125251392Y-94823427D02*
G01*
X125253344Y-94826013D01*
X125436337Y-95155045D01*
X125437363Y-95163941D01*
X125436508Y-95166100D01*
X125160396Y-95700865D01*
X125153556Y-95706644D01*
X125144632Y-95705893D01*
X125139604Y-95700865D01*
X124863491Y-95166100D01*
X124862740Y-95157176D01*
X124863659Y-95155051D01*
X125046656Y-94826013D01*
X125053672Y-94820449D01*
X125056881Y-94820000D01*
X125243119Y-94820000D01*
X125251392Y-94823427D01*
G37*
G04 #@! TD.AperFunction*
G04 #@! TA.AperFunction,Conductor*
G36*
X110160362Y-102639986D02*
G01*
X110161872Y-102640835D01*
X110398734Y-102797984D01*
X110402015Y-102801265D01*
X110559164Y-103038127D01*
X110560883Y-103046915D01*
X110555883Y-103054344D01*
X110554373Y-103055193D01*
X110057953Y-103287422D01*
X110049007Y-103287823D01*
X110044722Y-103285097D01*
X109914902Y-103155277D01*
X109911475Y-103147004D01*
X109912575Y-103142051D01*
X110144806Y-102645625D01*
X110151416Y-102639585D01*
X110160362Y-102639986D01*
G37*
G04 #@! TD.AperFunction*
G04 #@! TA.AperFunction,Conductor*
G36*
X123143039Y-97719685D02*
G01*
X123188794Y-97772489D01*
X123200000Y-97824000D01*
X123200000Y-98207633D01*
X123195228Y-98241698D01*
X122785715Y-99675000D01*
X122775696Y-99710065D01*
X122738352Y-99769118D01*
X122675010Y-99798606D01*
X122656467Y-99800000D01*
X121401362Y-99800000D01*
X121371921Y-99791355D01*
X121341935Y-99784832D01*
X121336919Y-99781077D01*
X121334323Y-99780315D01*
X121313681Y-99763681D01*
X121261319Y-99711319D01*
X121227834Y-99649996D01*
X121225000Y-99623638D01*
X121225000Y-97951362D01*
X121244685Y-97884323D01*
X121261319Y-97863681D01*
X121388681Y-97736319D01*
X121450004Y-97702834D01*
X121476362Y-97700000D01*
X123076000Y-97700000D01*
X123143039Y-97719685D01*
G37*
G04 #@! TD.AperFunction*
G04 #@! TA.AperFunction,Conductor*
G36*
X105602762Y-110298351D02*
G01*
X105610693Y-110302507D01*
X105613409Y-110309778D01*
X105614935Y-110388676D01*
X105611669Y-110397014D01*
X105603843Y-110400586D01*
X105162521Y-110423473D01*
X105154081Y-110420480D01*
X105153642Y-110420062D01*
X105063057Y-110329477D01*
X105059630Y-110321204D01*
X105063057Y-110312931D01*
X105066368Y-110310609D01*
X105172139Y-110261143D01*
X105178142Y-110260089D01*
X105602762Y-110298351D01*
G37*
G04 #@! TD.AperFunction*
G04 #@! TA.AperFunction,Conductor*
G36*
X119430370Y-92705721D02*
G01*
X119437798Y-92710721D01*
X119439517Y-92719509D01*
X119438877Y-92721620D01*
X119227975Y-93236967D01*
X119221670Y-93243326D01*
X119217147Y-93244236D01*
X119082853Y-93244236D01*
X119074580Y-93240809D01*
X119072025Y-93236967D01*
X118861122Y-92721620D01*
X118861160Y-92712666D01*
X118867519Y-92706361D01*
X118869622Y-92705723D01*
X119147682Y-92649469D01*
X119152318Y-92649469D01*
X119430370Y-92705721D01*
G37*
G04 #@! TD.AperFunction*
G04 #@! TA.AperFunction,Conductor*
G36*
X114065033Y-111459223D02*
G01*
X114068413Y-111465358D01*
X114125030Y-111745210D01*
X114123311Y-111753998D01*
X114123272Y-111754057D01*
X113963771Y-111991343D01*
X113956312Y-111996297D01*
X113949385Y-111995541D01*
X113657024Y-111868062D01*
X113650810Y-111861614D01*
X113650000Y-111857337D01*
X113650000Y-111476443D01*
X113653427Y-111468170D01*
X113661440Y-111464746D01*
X114056686Y-111455981D01*
X114065033Y-111459223D01*
G37*
G04 #@! TD.AperFunction*
G04 #@! TA.AperFunction,Conductor*
G36*
X126141256Y-110873107D02*
G01*
X126149173Y-110877291D01*
X126151788Y-110883424D01*
X126195643Y-111266021D01*
X126194294Y-111272950D01*
X126113036Y-111422130D01*
X126106069Y-111427756D01*
X126097164Y-111426808D01*
X126094488Y-111424806D01*
X125968138Y-111298456D01*
X125964711Y-111290183D01*
X125964791Y-111288818D01*
X126013667Y-110872629D01*
X126018035Y-110864813D01*
X126026375Y-110862346D01*
X126141256Y-110873107D01*
G37*
G04 #@! TD.AperFunction*
G04 #@! TA.AperFunction,Conductor*
G36*
X109153158Y-113190750D02*
G01*
X109166297Y-113200892D01*
X109469720Y-113435092D01*
X109474175Y-113442860D01*
X109472435Y-113450646D01*
X109303469Y-113715561D01*
X109296131Y-113720693D01*
X109293549Y-113720969D01*
X109000800Y-113719566D01*
X108992543Y-113716099D01*
X108989189Y-113708745D01*
X108950947Y-113200892D01*
X108953743Y-113192384D01*
X108961735Y-113188346D01*
X108962614Y-113188313D01*
X109146010Y-113188313D01*
X109153158Y-113190750D01*
G37*
G04 #@! TD.AperFunction*
G04 #@! TA.AperFunction,Conductor*
G36*
X117338173Y-117296981D02*
G01*
X117445296Y-117401588D01*
X117448821Y-117409820D01*
X117448399Y-117413078D01*
X117407373Y-117561419D01*
X117401865Y-117568479D01*
X117396096Y-117570000D01*
X117263904Y-117570000D01*
X117255631Y-117566573D01*
X117252627Y-117561419D01*
X117235503Y-117499506D01*
X117236601Y-117490619D01*
X117237039Y-117489906D01*
X117240240Y-117485117D01*
X117255500Y-117408401D01*
X117255499Y-117366675D01*
X117258925Y-117358405D01*
X117321828Y-117296979D01*
X117330138Y-117293653D01*
X117338173Y-117296981D01*
G37*
G04 #@! TD.AperFunction*
G04 #@! TA.AperFunction,Conductor*
G36*
X103302477Y-118744238D02*
G01*
X103432311Y-118874072D01*
X103435738Y-118882345D01*
X103435198Y-118885859D01*
X103297378Y-119323546D01*
X103291624Y-119330408D01*
X103283967Y-119331513D01*
X103004088Y-119276647D01*
X102996630Y-119271694D01*
X102839988Y-119035595D01*
X102838269Y-119026807D01*
X102843269Y-119019378D01*
X102843517Y-119019218D01*
X103288023Y-118742577D01*
X103296857Y-118741116D01*
X103302477Y-118744238D01*
G37*
G04 #@! TD.AperFunction*
G04 #@! TA.AperFunction,Conductor*
G36*
X99487898Y-119306227D02*
G01*
X99733083Y-119530585D01*
X99736874Y-119538699D01*
X99735554Y-119544638D01*
X99558283Y-119883721D01*
X99551413Y-119889465D01*
X99547914Y-119890000D01*
X99412086Y-119890000D01*
X99403813Y-119886573D01*
X99401717Y-119883721D01*
X99224444Y-119544636D01*
X99223649Y-119535718D01*
X99226914Y-119530587D01*
X99472102Y-119306226D01*
X99480518Y-119303170D01*
X99487898Y-119306227D01*
G37*
G04 #@! TD.AperFunction*
G04 #@! TA.AperFunction,Conductor*
G36*
X105339514Y-106079187D02*
G01*
X105549092Y-106164587D01*
X105626811Y-106196257D01*
X105633179Y-106202552D01*
X105633807Y-106209674D01*
X105615767Y-106289393D01*
X105610599Y-106296706D01*
X105601872Y-106298244D01*
X105241068Y-106219870D01*
X105239265Y-106218619D01*
X105237108Y-106218203D01*
X105235729Y-106216165D01*
X105233711Y-106214765D01*
X105232091Y-106210789D01*
X105227521Y-106188490D01*
X105229217Y-106179698D01*
X105230705Y-106177874D01*
X105326830Y-106081749D01*
X105335102Y-106078323D01*
X105339514Y-106079187D01*
G37*
G04 #@! TD.AperFunction*
G04 #@! TA.AperFunction,Conductor*
G36*
X105140469Y-102558481D02*
G01*
X105143455Y-102560645D01*
X105238357Y-102655547D01*
X105241784Y-102663820D01*
X105240450Y-102669246D01*
X105024393Y-103082004D01*
X105017520Y-103087744D01*
X105010876Y-103087846D01*
X104705198Y-103002358D01*
X104698153Y-102996829D01*
X104697292Y-102994916D01*
X104609648Y-102741236D01*
X104610186Y-102732300D01*
X104616886Y-102726359D01*
X104617016Y-102726315D01*
X105131541Y-102557799D01*
X105140469Y-102558481D01*
G37*
G04 #@! TD.AperFunction*
G04 #@! TA.AperFunction,Conductor*
G36*
X128205405Y-88418951D02*
G01*
X128210377Y-88423923D01*
X128497708Y-88975600D01*
X128498490Y-88984521D01*
X128498431Y-88984705D01*
X128402667Y-89272000D01*
X128396799Y-89278765D01*
X128391567Y-89280000D01*
X128008433Y-89280000D01*
X128000160Y-89276573D01*
X127997333Y-89272000D01*
X127901568Y-88984705D01*
X127902203Y-88975773D01*
X127902263Y-88975654D01*
X128189623Y-88423922D01*
X128196484Y-88418169D01*
X128205405Y-88418951D01*
G37*
G04 #@! TD.AperFunction*
G04 #@! TA.AperFunction,Conductor*
G36*
X117602477Y-104961284D02*
G01*
X117605085Y-104963248D01*
X117735125Y-105093288D01*
X117738552Y-105101561D01*
X117736845Y-105107647D01*
X117485487Y-105520387D01*
X117478257Y-105525670D01*
X117470471Y-105524868D01*
X117215253Y-105403540D01*
X117209252Y-105396893D01*
X117208634Y-105394141D01*
X117178080Y-105089715D01*
X117180664Y-105081141D01*
X117186490Y-105077302D01*
X117593580Y-104960276D01*
X117602477Y-104961284D01*
G37*
G04 #@! TD.AperFunction*
G04 #@! TA.AperFunction,Conductor*
G36*
X124939601Y-85509880D02*
G01*
X125097981Y-85745243D01*
X125099757Y-85754020D01*
X125099745Y-85754079D01*
X125043973Y-86031786D01*
X125038984Y-86039222D01*
X125030198Y-86040953D01*
X125029269Y-86040727D01*
X124621623Y-85923534D01*
X124616583Y-85920562D01*
X124487772Y-85791751D01*
X124484345Y-85783478D01*
X124487772Y-85775205D01*
X124489904Y-85773520D01*
X124923762Y-85506447D01*
X124932602Y-85505030D01*
X124939601Y-85509880D01*
G37*
G04 #@! TD.AperFunction*
G04 #@! TA.AperFunction,Conductor*
G36*
X105228376Y-109400869D02*
G01*
X105569479Y-109488669D01*
X105576636Y-109494050D01*
X105577893Y-109502917D01*
X105572512Y-109510074D01*
X105569478Y-109511331D01*
X105227396Y-109599382D01*
X105222557Y-109599592D01*
X105084777Y-109576629D01*
X105077179Y-109571889D01*
X105075000Y-109565088D01*
X105075000Y-109434911D01*
X105078427Y-109426638D01*
X105084775Y-109423370D01*
X105221046Y-109400659D01*
X105222969Y-109400500D01*
X105225459Y-109400500D01*
X105228376Y-109400869D01*
G37*
G04 #@! TD.AperFunction*
G04 #@! TA.AperFunction,Conductor*
G36*
X105227396Y-108600617D02*
G01*
X105315792Y-108623370D01*
X105569479Y-108688669D01*
X105576636Y-108694049D01*
X105577893Y-108702915D01*
X105572512Y-108710073D01*
X105569479Y-108711330D01*
X105228376Y-108799131D01*
X105225459Y-108799500D01*
X105222969Y-108799500D01*
X105221046Y-108799341D01*
X105175622Y-108791770D01*
X105084776Y-108776629D01*
X105077179Y-108771888D01*
X105075000Y-108765088D01*
X105075000Y-108634911D01*
X105078427Y-108626638D01*
X105084775Y-108623370D01*
X105222557Y-108600407D01*
X105227396Y-108600617D01*
G37*
G04 #@! TD.AperFunction*
G04 #@! TA.AperFunction,Conductor*
G36*
X114589948Y-111513570D02*
G01*
X114597656Y-111518127D01*
X114600000Y-111525153D01*
X114600000Y-111808365D01*
X114596573Y-111816638D01*
X114594306Y-111818406D01*
X114301195Y-111993743D01*
X114292336Y-111995049D01*
X114285479Y-111990229D01*
X114126727Y-111754057D01*
X114124956Y-111745279D01*
X114124969Y-111745210D01*
X114181338Y-111466579D01*
X114186338Y-111459152D01*
X114194453Y-111457318D01*
X114589948Y-111513570D01*
G37*
G04 #@! TD.AperFunction*
G04 #@! TA.AperFunction,Conductor*
G36*
X117798370Y-117191223D02*
G01*
X117798809Y-117191126D01*
X117799605Y-117191266D01*
X117842668Y-117199832D01*
X117853157Y-117200715D01*
X117856458Y-117201298D01*
X117857732Y-117201537D01*
X117857802Y-117201548D01*
X117897906Y-117205500D01*
X117897913Y-117205500D01*
X118324848Y-117205500D01*
X118377174Y-117227174D01*
X118650000Y-117500000D01*
X119419348Y-117500000D01*
X119471674Y-117521674D01*
X119628326Y-117678326D01*
X119650000Y-117730652D01*
X119650000Y-118059348D01*
X119628326Y-118111674D01*
X119521674Y-118218326D01*
X119469348Y-118240000D01*
X117920652Y-118240000D01*
X117868326Y-118218326D01*
X117627174Y-117977174D01*
X117605500Y-117924848D01*
X117605500Y-117626017D01*
X117608177Y-117606292D01*
X117646464Y-117467856D01*
X117652197Y-117439475D01*
X117652619Y-117436217D01*
X117654120Y-117418903D01*
X117637730Y-117328928D01*
X117634205Y-117320696D01*
X117624021Y-117305839D01*
X117612314Y-117250425D01*
X117643219Y-117202963D01*
X117685058Y-117190000D01*
X117785951Y-117190000D01*
X117798370Y-117191223D01*
G37*
G04 #@! TD.AperFunction*
G04 #@! TA.AperFunction,Conductor*
G36*
X126037655Y-107010792D02*
G01*
X126043696Y-107017402D01*
X126044165Y-107019070D01*
X126100530Y-107297680D01*
X126100530Y-107302320D01*
X126044165Y-107580929D01*
X126039165Y-107588358D01*
X126030377Y-107590077D01*
X126028709Y-107589608D01*
X125513476Y-107402796D01*
X125506866Y-107396755D01*
X125505764Y-107391797D01*
X125505764Y-107208202D01*
X125509191Y-107199929D01*
X125513473Y-107197204D01*
X126028711Y-107010391D01*
X126037655Y-107010792D01*
G37*
G04 #@! TD.AperFunction*
G04 #@! TA.AperFunction,Conductor*
G36*
X107549306Y-119309191D02*
G01*
X107552331Y-119314422D01*
X107690994Y-119829435D01*
X107689836Y-119838315D01*
X107682738Y-119843775D01*
X107682016Y-119843945D01*
X107404789Y-119900030D01*
X107396001Y-119898311D01*
X107395942Y-119898272D01*
X107158866Y-119738913D01*
X107153912Y-119731454D01*
X107154789Y-119724259D01*
X107271434Y-119474194D01*
X107346850Y-119312518D01*
X107353453Y-119306469D01*
X107357453Y-119305764D01*
X107541033Y-119305764D01*
X107549306Y-119309191D01*
G37*
G04 #@! TD.AperFunction*
G04 #@! TA.AperFunction,Conductor*
G36*
X125155690Y-107034631D02*
G01*
X125444031Y-107196646D01*
X125449565Y-107203686D01*
X125450000Y-107206846D01*
X125450000Y-107393153D01*
X125446573Y-107401426D01*
X125444031Y-107403353D01*
X125155690Y-107565368D01*
X125146799Y-107566433D01*
X125141189Y-107562913D01*
X124998573Y-107401426D01*
X124915838Y-107307743D01*
X124912931Y-107299275D01*
X124915838Y-107292256D01*
X125141190Y-107037085D01*
X125149234Y-107033153D01*
X125155690Y-107034631D01*
G37*
G04 #@! TD.AperFunction*
G04 #@! TA.AperFunction,Conductor*
G36*
X120301728Y-114121674D02*
G01*
X120518398Y-114338344D01*
X120540072Y-114390670D01*
X120540072Y-116490615D01*
X120518398Y-116542941D01*
X120513792Y-116547173D01*
X119760744Y-117182558D01*
X119713024Y-117200000D01*
X118927072Y-117200000D01*
X118874746Y-117178326D01*
X118867872Y-117170400D01*
X118740072Y-117000000D01*
X117897913Y-117000000D01*
X117883006Y-116997033D01*
X117882758Y-116998280D01*
X117875604Y-116996857D01*
X117813480Y-116984500D01*
X117646520Y-116984500D01*
X117584396Y-116996857D01*
X117577242Y-116998280D01*
X117576993Y-116997033D01*
X117562087Y-117000000D01*
X117497913Y-117000000D01*
X117483006Y-116997033D01*
X117482758Y-116998280D01*
X117475604Y-116996857D01*
X117413480Y-116984500D01*
X117246520Y-116984500D01*
X117236213Y-116986550D01*
X117184391Y-116996857D01*
X117113935Y-117043934D01*
X117113934Y-117043935D01*
X117066857Y-117114390D01*
X117064069Y-117121123D01*
X117063968Y-117121081D01*
X117058600Y-117135250D01*
X117050000Y-117150000D01*
X117050000Y-117363614D01*
X117049999Y-117366675D01*
X117049999Y-117366680D01*
X117049999Y-117380872D01*
X117049999Y-117380876D01*
X117048577Y-117395313D01*
X117038250Y-117447229D01*
X117035514Y-117457248D01*
X117032652Y-117465421D01*
X117031554Y-117474308D01*
X117037439Y-117554287D01*
X117039075Y-117560201D01*
X117047322Y-117590018D01*
X117050000Y-117609745D01*
X117050000Y-118161207D01*
X117028326Y-118213533D01*
X117018096Y-118222067D01*
X116707563Y-118436860D01*
X116665467Y-118450000D01*
X114629949Y-118450000D01*
X114578482Y-118429171D01*
X114312605Y-118171811D01*
X114290082Y-118119844D01*
X114290072Y-118118640D01*
X114290072Y-117000225D01*
X114296082Y-116971012D01*
X114418758Y-116685500D01*
X115080756Y-115144786D01*
X115121327Y-115105267D01*
X115148746Y-115100000D01*
X116016072Y-115100000D01*
X116068398Y-115121674D01*
X116090072Y-115174000D01*
X116090072Y-115760002D01*
X116249998Y-116249995D01*
X116249998Y-116249997D01*
X116249999Y-116249999D01*
X116250000Y-116250000D01*
X116590072Y-116675000D01*
X116590073Y-116675000D01*
X117586445Y-116675000D01*
X117600880Y-116676421D01*
X117646520Y-116685500D01*
X117646521Y-116685500D01*
X117813479Y-116685500D01*
X117813480Y-116685500D01*
X117859119Y-116676421D01*
X117873555Y-116675000D01*
X117986445Y-116675000D01*
X118000880Y-116676421D01*
X118046520Y-116685500D01*
X118046521Y-116685500D01*
X118213479Y-116685500D01*
X118213480Y-116685500D01*
X118259119Y-116676421D01*
X118273555Y-116675000D01*
X118640071Y-116675000D01*
X118640072Y-116675000D01*
X118690072Y-116520000D01*
X118690072Y-116000000D01*
X118457224Y-115720582D01*
X118440072Y-115673208D01*
X118440072Y-115151504D01*
X118461746Y-115099178D01*
X118488365Y-115082113D01*
X118710072Y-115000000D01*
X119477894Y-114125185D01*
X119528700Y-114100156D01*
X119533510Y-114100000D01*
X120249402Y-114100000D01*
X120301728Y-114121674D01*
G37*
G04 #@! TD.AperFunction*
G04 #@! TA.AperFunction,Conductor*
G36*
X101506711Y-105199962D02*
G01*
X101538851Y-105224938D01*
X102057642Y-105756591D01*
X102095384Y-105823852D01*
X102100000Y-105860651D01*
X102100000Y-107674246D01*
X102080038Y-107748746D01*
X102025500Y-107803284D01*
X101951000Y-107823246D01*
X101882694Y-107806667D01*
X101862058Y-107796022D01*
X101840562Y-107774526D01*
X101840561Y-107774525D01*
X101754937Y-107725090D01*
X101707185Y-107712295D01*
X101691696Y-107708144D01*
X101691693Y-107708143D01*
X101659435Y-107699500D01*
X101659434Y-107699500D01*
X101647328Y-107699500D01*
X101572828Y-107679538D01*
X101558353Y-107670017D01*
X101359059Y-107521638D01*
X101346984Y-107515117D01*
X101329309Y-107503900D01*
X101278159Y-107466149D01*
X101278157Y-107466148D01*
X101152819Y-107422290D01*
X101152816Y-107422289D01*
X101152814Y-107422289D01*
X101123074Y-107419500D01*
X101123066Y-107419500D01*
X100676934Y-107419500D01*
X100676925Y-107419500D01*
X100647185Y-107422289D01*
X100647182Y-107422289D01*
X100647181Y-107422290D01*
X100521843Y-107466148D01*
X100521839Y-107466150D01*
X100468762Y-107505321D01*
X100445808Y-107519254D01*
X100440944Y-107521635D01*
X100225754Y-107681849D01*
X100175340Y-107706257D01*
X100105064Y-107725088D01*
X100019436Y-107774525D01*
X99957103Y-107836859D01*
X99890308Y-107875423D01*
X99851744Y-107880500D01*
X98077976Y-107880500D01*
X98003476Y-107860538D01*
X97948938Y-107806000D01*
X97934738Y-107772535D01*
X97701261Y-106957558D01*
X97695499Y-106916523D01*
X97695499Y-106485133D01*
X97692585Y-106460010D01*
X97692584Y-106460008D01*
X97647206Y-106357235D01*
X97567765Y-106277794D01*
X97567764Y-106277793D01*
X97464994Y-106232416D01*
X97464991Y-106232415D01*
X97464982Y-106232414D01*
X97439865Y-106229500D01*
X97439859Y-106229500D01*
X96150133Y-106229500D01*
X96125010Y-106232414D01*
X96125007Y-106232415D01*
X96022235Y-106277793D01*
X95942793Y-106357235D01*
X95897416Y-106460005D01*
X95897415Y-106460008D01*
X95897415Y-106460009D01*
X95894500Y-106485135D01*
X95894500Y-106485136D01*
X95894500Y-106485140D01*
X95894500Y-107974866D01*
X95897414Y-107999989D01*
X95897415Y-107999992D01*
X95942793Y-108102764D01*
X95942794Y-108102765D01*
X96022235Y-108182206D01*
X96125009Y-108227585D01*
X96150135Y-108230500D01*
X96528280Y-108230499D01*
X96578809Y-108239328D01*
X97280061Y-108492117D01*
X97320150Y-108514011D01*
X97327948Y-108519985D01*
X97364437Y-108556475D01*
X97401218Y-108577710D01*
X97450062Y-108605910D01*
X97475582Y-108612748D01*
X97484066Y-108615021D01*
X97517984Y-108634603D01*
X97550847Y-108653572D01*
X97550851Y-108653579D01*
X97550859Y-108653584D01*
X97569822Y-108686430D01*
X97589419Y-108720363D01*
X97589420Y-108720374D01*
X97589423Y-108720379D01*
X97589423Y-108720393D01*
X97594500Y-108758943D01*
X97594500Y-110174866D01*
X97597414Y-110199989D01*
X97597415Y-110199992D01*
X97642793Y-110302764D01*
X97642794Y-110302765D01*
X97722235Y-110382206D01*
X97825009Y-110427585D01*
X97850135Y-110430500D01*
X99139864Y-110430499D01*
X99139866Y-110430499D01*
X99152427Y-110429042D01*
X99164991Y-110427585D01*
X99267765Y-110382206D01*
X99347206Y-110302765D01*
X99392585Y-110199991D01*
X99395500Y-110174865D01*
X99395499Y-109946112D01*
X99415461Y-109871613D01*
X99420708Y-109863186D01*
X99817128Y-109271558D01*
X99842535Y-109249335D01*
X99866409Y-109225462D01*
X99871339Y-109224140D01*
X99875181Y-109220781D01*
X99940909Y-109205500D01*
X100150070Y-109205500D01*
X100224570Y-109225462D01*
X100237839Y-109234094D01*
X100259407Y-109249816D01*
X100438445Y-109380325D01*
X100438448Y-109380326D01*
X100438450Y-109380328D01*
X100449522Y-109386199D01*
X100468197Y-109397949D01*
X100516843Y-109433852D01*
X100642181Y-109477710D01*
X100671934Y-109480500D01*
X100671942Y-109480500D01*
X101118058Y-109480500D01*
X101118066Y-109480500D01*
X101147819Y-109477710D01*
X101273157Y-109433852D01*
X101323539Y-109396666D01*
X101325625Y-109395157D01*
X101336157Y-109387667D01*
X101351553Y-109380325D01*
X101552849Y-109233590D01*
X101553585Y-109233068D01*
X101588892Y-109219926D01*
X101624120Y-109206341D01*
X101625608Y-109206261D01*
X101625869Y-109206165D01*
X101626242Y-109206228D01*
X101639928Y-109205500D01*
X101830102Y-109205500D01*
X101904602Y-109225462D01*
X101936131Y-109249816D01*
X102013640Y-109328321D01*
X102039341Y-109363376D01*
X102040616Y-109365788D01*
X102040617Y-109365790D01*
X102040619Y-109365794D01*
X102070886Y-109406804D01*
X102099063Y-109478598D01*
X102100000Y-109495281D01*
X102100000Y-110014900D01*
X102080038Y-110089400D01*
X102058301Y-110118280D01*
X100980899Y-111236549D01*
X100721778Y-111505500D01*
X100693953Y-111534380D01*
X100627888Y-111574180D01*
X100586652Y-111580000D01*
X95344000Y-111580000D01*
X95269500Y-111560038D01*
X95214962Y-111505500D01*
X95195000Y-111431000D01*
X95195000Y-105329000D01*
X95214962Y-105254500D01*
X95269500Y-105199962D01*
X95344000Y-105180000D01*
X101432211Y-105180000D01*
X101506711Y-105199962D01*
G37*
G04 #@! TD.AperFunction*
G04 #@! TA.AperFunction,Conductor*
G36*
X125415677Y-108019685D02*
G01*
X125436319Y-108036319D01*
X125900000Y-108500000D01*
X126176000Y-108500000D01*
X126243039Y-108519685D01*
X126288794Y-108572489D01*
X126300000Y-108624000D01*
X126300000Y-109276000D01*
X126297449Y-109284685D01*
X126298738Y-109293647D01*
X126287759Y-109317687D01*
X126280315Y-109343039D01*
X126273474Y-109348966D01*
X126269713Y-109357203D01*
X126247478Y-109371492D01*
X126227511Y-109388794D01*
X126216996Y-109391081D01*
X126210935Y-109394977D01*
X126176000Y-109400000D01*
X126001362Y-109400000D01*
X125934323Y-109380315D01*
X125913681Y-109363681D01*
X125272164Y-108722164D01*
X124601362Y-108722164D01*
X124571921Y-108713519D01*
X124541935Y-108706996D01*
X124536919Y-108703241D01*
X124534323Y-108702479D01*
X124513681Y-108685845D01*
X124436319Y-108608483D01*
X124402834Y-108547160D01*
X124400000Y-108520802D01*
X124400000Y-108151362D01*
X124419685Y-108084323D01*
X124436319Y-108063681D01*
X124463681Y-108036319D01*
X124525004Y-108002834D01*
X124551362Y-108000000D01*
X125348638Y-108000000D01*
X125415677Y-108019685D01*
G37*
G04 #@! TD.AperFunction*
G04 #@! TA.AperFunction,Conductor*
G36*
X99744386Y-85983767D02*
G01*
X100083119Y-86136889D01*
X100089246Y-86143419D01*
X100090000Y-86147550D01*
X100090000Y-86332449D01*
X100086573Y-86340722D01*
X100083119Y-86343110D01*
X99744388Y-86496231D01*
X99735438Y-86496516D01*
X99730937Y-86493468D01*
X99590505Y-86340000D01*
X99506226Y-86247897D01*
X99503170Y-86239482D01*
X99506227Y-86232102D01*
X99730939Y-85986529D01*
X99739051Y-85982740D01*
X99744386Y-85983767D01*
G37*
G04 #@! TD.AperFunction*
G04 #@! TA.AperFunction,Conductor*
G36*
X104707743Y-104025838D02*
G01*
X104915268Y-104209111D01*
X104962463Y-104250791D01*
X104966396Y-104258836D01*
X104964552Y-104265899D01*
X104778456Y-104554638D01*
X104771094Y-104559736D01*
X104768622Y-104560000D01*
X104631378Y-104560000D01*
X104623105Y-104556573D01*
X104621544Y-104554638D01*
X104435447Y-104265899D01*
X104433845Y-104257089D01*
X104437535Y-104250792D01*
X104692256Y-104025838D01*
X104700725Y-104022931D01*
X104707743Y-104025838D01*
G37*
G04 #@! TD.AperFunction*
G04 #@! TA.AperFunction,Conductor*
G36*
X121805405Y-88418951D02*
G01*
X121810377Y-88423923D01*
X122097708Y-88975600D01*
X122098490Y-88984521D01*
X122098431Y-88984705D01*
X122002667Y-89272000D01*
X121996799Y-89278765D01*
X121991567Y-89280000D01*
X121608433Y-89280000D01*
X121600160Y-89276573D01*
X121597333Y-89272000D01*
X121501568Y-88984705D01*
X121502203Y-88975773D01*
X121502263Y-88975654D01*
X121789623Y-88423922D01*
X121796484Y-88418169D01*
X121805405Y-88418951D01*
G37*
G04 #@! TD.AperFunction*
G04 #@! TA.AperFunction,Conductor*
G36*
X107123362Y-105128427D02*
G01*
X107126630Y-105134777D01*
X107149592Y-105272557D01*
X107149382Y-105277397D01*
X107061330Y-105619479D01*
X107055949Y-105626636D01*
X107047082Y-105627893D01*
X107039925Y-105622512D01*
X107038670Y-105619485D01*
X106954626Y-105292975D01*
X106954386Y-105288341D01*
X106954689Y-105286306D01*
X106954899Y-105281467D01*
X106953378Y-105256529D01*
X106953514Y-105253913D01*
X106973370Y-105134774D01*
X106978111Y-105127179D01*
X106984911Y-105125000D01*
X107115089Y-105125000D01*
X107123362Y-105128427D01*
G37*
G04 #@! TD.AperFunction*
G04 #@! TA.AperFunction,Conductor*
G36*
X129708239Y-110401873D02*
G01*
X130194013Y-110883787D01*
X130197473Y-110892046D01*
X130196258Y-110897284D01*
X129953222Y-111388191D01*
X129946481Y-111394085D01*
X129942737Y-111394700D01*
X129457263Y-111394700D01*
X129448990Y-111391273D01*
X129446778Y-111388191D01*
X129203741Y-110897284D01*
X129203141Y-110888349D01*
X129205983Y-110883791D01*
X129691760Y-110401873D01*
X129700047Y-110398480D01*
X129708239Y-110401873D01*
G37*
G04 #@! TD.AperFunction*
G04 #@! TA.AperFunction,Conductor*
G36*
X113432778Y-112283308D02*
G01*
X113644295Y-112537986D01*
X113646944Y-112546540D01*
X113644052Y-112553219D01*
X113424226Y-112801375D01*
X113416175Y-112805296D01*
X113409518Y-112803691D01*
X113032306Y-112580907D01*
X113026925Y-112573749D01*
X113028182Y-112564883D01*
X113029979Y-112562564D01*
X113159679Y-112432864D01*
X113162016Y-112431056D01*
X113417850Y-112280695D01*
X113426718Y-112279459D01*
X113432778Y-112283308D01*
G37*
G04 #@! TD.AperFunction*
G04 #@! TA.AperFunction,Conductor*
G36*
X99683788Y-108754532D02*
G01*
X99691910Y-108758300D01*
X99695000Y-108766222D01*
X99695000Y-108901442D01*
X99693020Y-108907955D01*
X99101270Y-109791101D01*
X99093818Y-109796066D01*
X99085411Y-109794548D01*
X98505661Y-109437188D01*
X98500416Y-109429930D01*
X98501840Y-109421089D01*
X98502917Y-109419613D01*
X99091305Y-108734303D01*
X99099293Y-108730260D01*
X99100665Y-108730236D01*
X99683788Y-108754532D01*
G37*
G04 #@! TD.AperFunction*
G04 #@! TA.AperFunction,Conductor*
G36*
X100745898Y-119035446D02*
G01*
X101034638Y-119221544D01*
X101039736Y-119228906D01*
X101040000Y-119231378D01*
X101040000Y-119368621D01*
X101036573Y-119376894D01*
X101034638Y-119378455D01*
X100745900Y-119564552D01*
X100737090Y-119566154D01*
X100730792Y-119562463D01*
X100685723Y-119511430D01*
X100505838Y-119307743D01*
X100502931Y-119299275D01*
X100505838Y-119292256D01*
X100730793Y-119037535D01*
X100738837Y-119033603D01*
X100745898Y-119035446D01*
G37*
G04 #@! TD.AperFunction*
G04 #@! TA.AperFunction,Conductor*
G36*
X103849840Y-87683427D02*
G01*
X103852667Y-87688000D01*
X103898900Y-87826700D01*
X103899500Y-87830400D01*
X103899500Y-87830422D01*
X103899122Y-87833371D01*
X103761322Y-88362523D01*
X103755921Y-88369665D01*
X103747051Y-88370896D01*
X103739909Y-88365495D01*
X103738678Y-88362523D01*
X103600878Y-87833371D01*
X103600500Y-87830422D01*
X103600500Y-87830400D01*
X103601100Y-87826700D01*
X103647333Y-87688000D01*
X103653201Y-87681235D01*
X103658433Y-87680000D01*
X103841567Y-87680000D01*
X103849840Y-87683427D01*
G37*
G04 #@! TD.AperFunction*
G04 #@! TA.AperFunction,Conductor*
G36*
X113932136Y-106555650D02*
G01*
X114107272Y-106657816D01*
X114109648Y-106659648D01*
X114377799Y-106927799D01*
X114381226Y-106936072D01*
X114377799Y-106944345D01*
X114373053Y-106947228D01*
X113931055Y-107086978D01*
X113922134Y-107086204D01*
X113918547Y-107083320D01*
X113705537Y-106828185D01*
X113702865Y-106819638D01*
X113705516Y-106813213D01*
X113917244Y-106558280D01*
X113925164Y-106554107D01*
X113932136Y-106555650D01*
G37*
G04 #@! TD.AperFunction*
G04 #@! TA.AperFunction,Conductor*
G36*
X126457743Y-91715838D02*
G01*
X126712624Y-91940933D01*
X126714515Y-91942603D01*
X126718448Y-91950648D01*
X126718045Y-91954498D01*
X126652377Y-92191425D01*
X126646865Y-92198482D01*
X126641102Y-92200000D01*
X126258898Y-92200000D01*
X126250625Y-92196573D01*
X126247623Y-92191425D01*
X126181954Y-91954498D01*
X126183047Y-91945610D01*
X126185481Y-91942606D01*
X126442256Y-91715838D01*
X126450725Y-91712931D01*
X126457743Y-91715838D01*
G37*
G04 #@! TD.AperFunction*
G04 #@! TA.AperFunction,Conductor*
G36*
X101038981Y-120109682D02*
G01*
X101043734Y-120116943D01*
X101100530Y-120397680D01*
X101100530Y-120402320D01*
X101043734Y-120683056D01*
X101038734Y-120690485D01*
X101030239Y-120692259D01*
X100515437Y-120601701D01*
X100507883Y-120596893D01*
X100505764Y-120590178D01*
X100505764Y-120209821D01*
X100509191Y-120201548D01*
X100515435Y-120198298D01*
X101030239Y-120107740D01*
X101038981Y-120109682D01*
G37*
G04 #@! TD.AperFunction*
G04 #@! TA.AperFunction,Conductor*
G36*
X126253051Y-105859428D02*
G01*
X126535267Y-106121528D01*
X126538997Y-106129669D01*
X126539005Y-106130101D01*
X126539005Y-106264784D01*
X126535578Y-106273057D01*
X126528883Y-106276377D01*
X126142130Y-106329029D01*
X126133470Y-106326750D01*
X126130917Y-106324073D01*
X125955602Y-106069584D01*
X125953731Y-106060827D01*
X125958547Y-106053349D01*
X126238402Y-105858400D01*
X126247149Y-105856484D01*
X126253051Y-105859428D01*
G37*
G04 #@! TD.AperFunction*
G04 #@! TA.AperFunction,Conductor*
G36*
X103864726Y-107382122D02*
G01*
X103864790Y-107382263D01*
X104048301Y-107797742D01*
X104049298Y-107802469D01*
X104049298Y-107983460D01*
X104045871Y-107991733D01*
X104037598Y-107995160D01*
X104033702Y-107994492D01*
X103521040Y-107813439D01*
X103514380Y-107807453D01*
X103513505Y-107799911D01*
X103513979Y-107797742D01*
X103577753Y-107505707D01*
X103582865Y-107498358D01*
X103584304Y-107497572D01*
X103849219Y-107376350D01*
X103858168Y-107376025D01*
X103864726Y-107382122D01*
G37*
G04 #@! TD.AperFunction*
G04 #@! TA.AperFunction,Conductor*
G36*
X114337849Y-111437975D02*
G01*
X114339752Y-111439311D01*
X114590575Y-111655558D01*
X114594603Y-111663554D01*
X114591796Y-111672058D01*
X114590699Y-111673170D01*
X114344096Y-111891930D01*
X114335633Y-111894857D01*
X114327580Y-111890942D01*
X114327287Y-111890600D01*
X114266421Y-111816421D01*
X113997726Y-111547726D01*
X113994299Y-111539453D01*
X113997726Y-111531180D01*
X114002843Y-111528186D01*
X114328958Y-111436905D01*
X114337849Y-111437975D01*
G37*
G04 #@! TD.AperFunction*
G04 #@! TA.AperFunction,Conductor*
G36*
X109123361Y-105128427D02*
G01*
X109126629Y-105134776D01*
X109146483Y-105253897D01*
X109146620Y-105256533D01*
X109145100Y-105281449D01*
X109145100Y-105281473D01*
X109145309Y-105286301D01*
X109145311Y-105286321D01*
X109145612Y-105288348D01*
X109145370Y-105292980D01*
X109061331Y-105619478D01*
X109055950Y-105626636D01*
X109047084Y-105627893D01*
X109039926Y-105622512D01*
X109038669Y-105619479D01*
X108954628Y-105292980D01*
X108954626Y-105292975D01*
X108954386Y-105288341D01*
X108954689Y-105286306D01*
X108954899Y-105281467D01*
X108953378Y-105256529D01*
X108953514Y-105253913D01*
X108973370Y-105134774D01*
X108978111Y-105127179D01*
X108984911Y-105125000D01*
X109115088Y-105125000D01*
X109123361Y-105128427D01*
G37*
G04 #@! TD.AperFunction*
G04 #@! TA.AperFunction,Conductor*
G36*
X115138921Y-105259718D02*
G01*
X115143752Y-105267033D01*
X115200530Y-105547680D01*
X115200530Y-105552320D01*
X115143752Y-105832966D01*
X115138752Y-105840395D01*
X115130164Y-105842152D01*
X114639580Y-105751765D01*
X114632065Y-105746896D01*
X114630000Y-105740259D01*
X114630000Y-105359740D01*
X114633427Y-105351467D01*
X114639577Y-105348235D01*
X115130165Y-105257847D01*
X115138921Y-105259718D01*
G37*
G04 #@! TD.AperFunction*
G04 #@! TA.AperFunction,Conductor*
G36*
X106291409Y-104245518D02*
G01*
X106296363Y-104252977D01*
X106296387Y-104253099D01*
X106383177Y-104722180D01*
X106381312Y-104730939D01*
X106379945Y-104732582D01*
X106284886Y-104827641D01*
X106276613Y-104831068D01*
X106270304Y-104829221D01*
X105843343Y-104555852D01*
X105838224Y-104548505D01*
X105839799Y-104539690D01*
X105839838Y-104539629D01*
X105996592Y-104303363D01*
X106004015Y-104298367D01*
X106282633Y-104243747D01*
X106291409Y-104245518D01*
G37*
G04 #@! TD.AperFunction*
G04 #@! TA.AperFunction,Conductor*
G36*
X110504789Y-113799969D02*
G01*
X110783975Y-113856451D01*
X110791404Y-113861451D01*
X110793309Y-113868955D01*
X110750948Y-114345682D01*
X110746802Y-114353619D01*
X110739294Y-114356346D01*
X110555764Y-114356346D01*
X110547491Y-114352919D01*
X110546487Y-114351775D01*
X110258154Y-113976555D01*
X110255830Y-113967907D01*
X110260302Y-113960149D01*
X110260877Y-113959734D01*
X110495943Y-113801726D01*
X110504720Y-113799956D01*
X110504789Y-113799969D01*
G37*
G04 #@! TD.AperFunction*
G04 #@! TA.AperFunction,Conductor*
G36*
X126261408Y-88450475D02*
G01*
X126263044Y-88454089D01*
X126399122Y-88976628D01*
X126399500Y-88979577D01*
X126399500Y-88982031D01*
X126399341Y-88983954D01*
X126376630Y-89120223D01*
X126371890Y-89127821D01*
X126365089Y-89130000D01*
X126231790Y-89130000D01*
X126223517Y-89126573D01*
X126221631Y-89124103D01*
X126219415Y-89120223D01*
X126141460Y-88983757D01*
X126140130Y-88975751D01*
X126240232Y-88454829D01*
X126245159Y-88447352D01*
X126253930Y-88445548D01*
X126261408Y-88450475D01*
G37*
G04 #@! TD.AperFunction*
G04 #@! TA.AperFunction,Conductor*
G36*
X101126178Y-108633236D02*
G01*
X101477061Y-108752306D01*
X101483793Y-108758208D01*
X101485000Y-108763384D01*
X101485000Y-108899049D01*
X101481573Y-108907322D01*
X101480192Y-108908504D01*
X101171597Y-109133453D01*
X101162893Y-109135557D01*
X101156950Y-109132759D01*
X100902504Y-108907528D01*
X100898582Y-108899479D01*
X100901273Y-108891276D01*
X101113435Y-108636822D01*
X101121364Y-108632664D01*
X101126178Y-108633236D01*
G37*
G04 #@! TD.AperFunction*
G04 #@! TA.AperFunction,Conductor*
G36*
X122119775Y-115009191D02*
G01*
X122122628Y-115013845D01*
X122290175Y-115528988D01*
X122289475Y-115537916D01*
X122282668Y-115543733D01*
X122281369Y-115544075D01*
X122002320Y-115600530D01*
X121997680Y-115600530D01*
X121719518Y-115544255D01*
X121712089Y-115539255D01*
X121710370Y-115530467D01*
X121710971Y-115528451D01*
X121917058Y-115013119D01*
X121923312Y-115006710D01*
X121927922Y-115005764D01*
X122111502Y-115005764D01*
X122119775Y-115009191D01*
G37*
G04 #@! TD.AperFunction*
G04 #@! TA.AperFunction,Conductor*
G36*
X91010209Y-115331029D02*
G01*
X91011258Y-115333562D01*
X91493604Y-117041301D01*
X91492555Y-117050194D01*
X91491266Y-117052051D01*
X91078504Y-117538470D01*
X91070538Y-117542561D01*
X91069583Y-117542600D01*
X90930415Y-117542600D01*
X90922142Y-117539173D01*
X90921494Y-117538470D01*
X90508731Y-117052051D01*
X90505991Y-117043526D01*
X90506393Y-117041301D01*
X90988740Y-115333562D01*
X90994286Y-115326532D01*
X91003179Y-115325483D01*
X91010209Y-115331029D01*
G37*
G04 #@! TD.AperFunction*
G04 #@! TA.AperFunction,Conductor*
G36*
X109523362Y-105128427D02*
G01*
X109526630Y-105134777D01*
X109549341Y-105271046D01*
X109549500Y-105272969D01*
X109549500Y-105275458D01*
X109549131Y-105278375D01*
X109461330Y-105619479D01*
X109455949Y-105626636D01*
X109447082Y-105627893D01*
X109439925Y-105622512D01*
X109438669Y-105619482D01*
X109350617Y-105277396D01*
X109350407Y-105272557D01*
X109373370Y-105134777D01*
X109378110Y-105127179D01*
X109384911Y-105125000D01*
X109515089Y-105125000D01*
X109523362Y-105128427D01*
G37*
G04 #@! TD.AperFunction*
G04 #@! TA.AperFunction,Conductor*
G36*
X111967008Y-115523100D02*
G01*
X111970435Y-115531373D01*
X111969827Y-115535094D01*
X111797500Y-116048795D01*
X111791620Y-116055549D01*
X111784163Y-116056557D01*
X111504790Y-116001936D01*
X111497328Y-115996985D01*
X111497295Y-115996935D01*
X111338763Y-115758724D01*
X111337032Y-115749938D01*
X111340419Y-115743785D01*
X111558859Y-115535094D01*
X111571609Y-115522913D01*
X111579691Y-115519673D01*
X111958735Y-115519673D01*
X111967008Y-115523100D01*
G37*
G04 #@! TD.AperFunction*
G04 #@! TA.AperFunction,Conductor*
G36*
X125661596Y-105858400D02*
G01*
X125941450Y-106053347D01*
X125946279Y-106060887D01*
X125944397Y-106069584D01*
X125769082Y-106324073D01*
X125761567Y-106328942D01*
X125757869Y-106329029D01*
X125371117Y-106276377D01*
X125363381Y-106271866D01*
X125360995Y-106264784D01*
X125360995Y-106130101D01*
X125364422Y-106121828D01*
X125364733Y-106121528D01*
X125646947Y-105859427D01*
X125655341Y-105856309D01*
X125661596Y-105858400D01*
G37*
G04 #@! TD.AperFunction*
G04 #@! TA.AperFunction,Conductor*
G36*
X125834355Y-104838446D02*
G01*
X125841994Y-104843115D01*
X125844236Y-104850003D01*
X125844236Y-105230356D01*
X125840809Y-105238629D01*
X125834771Y-105241841D01*
X125319927Y-105342017D01*
X125311151Y-105340233D01*
X125306224Y-105332852D01*
X125249469Y-105052320D01*
X125249469Y-105047680D01*
X125306306Y-104766741D01*
X125311306Y-104759312D01*
X125319589Y-104757503D01*
X125834355Y-104838446D01*
G37*
G04 #@! TD.AperFunction*
G04 #@! TA.AperFunction,Conductor*
G36*
X121244386Y-111133767D02*
G01*
X121583119Y-111286889D01*
X121589246Y-111293419D01*
X121590000Y-111297550D01*
X121590000Y-111482449D01*
X121586573Y-111490722D01*
X121583119Y-111493110D01*
X121244388Y-111646231D01*
X121235438Y-111646516D01*
X121230937Y-111643468D01*
X121090505Y-111490000D01*
X121006226Y-111397897D01*
X121003170Y-111389482D01*
X121006227Y-111382102D01*
X121230939Y-111136529D01*
X121239051Y-111132740D01*
X121244386Y-111133767D01*
G37*
G04 #@! TD.AperFunction*
G04 #@! TA.AperFunction,Conductor*
G36*
X126105368Y-98244106D02*
G01*
X126110396Y-98249134D01*
X126387010Y-98784871D01*
X126387761Y-98793795D01*
X126387578Y-98794324D01*
X126265337Y-99122385D01*
X126259237Y-99128941D01*
X126254373Y-99130000D01*
X125945627Y-99130000D01*
X125937354Y-99126573D01*
X125934663Y-99122385D01*
X125878712Y-98972231D01*
X125812421Y-98794322D01*
X125812744Y-98785375D01*
X125812970Y-98784908D01*
X126089604Y-98249133D01*
X126096444Y-98243355D01*
X126105368Y-98244106D01*
G37*
G04 #@! TD.AperFunction*
G04 #@! TA.AperFunction,Conductor*
G36*
X108723362Y-105128427D02*
G01*
X108726630Y-105134777D01*
X108749592Y-105272557D01*
X108749382Y-105277396D01*
X108661331Y-105619478D01*
X108655950Y-105626636D01*
X108647084Y-105627893D01*
X108639926Y-105622512D01*
X108638669Y-105619479D01*
X108550617Y-105277397D01*
X108550407Y-105272557D01*
X108573370Y-105134777D01*
X108578110Y-105127179D01*
X108584911Y-105125000D01*
X108715089Y-105125000D01*
X108723362Y-105128427D01*
G37*
G04 #@! TD.AperFunction*
G04 #@! TA.AperFunction,Conductor*
G36*
X128398452Y-88709191D02*
G01*
X128401702Y-88715437D01*
X128492259Y-89230239D01*
X128490317Y-89238981D01*
X128483056Y-89243734D01*
X128202320Y-89300530D01*
X128197680Y-89300530D01*
X127916943Y-89243734D01*
X127909514Y-89238734D01*
X127907740Y-89230239D01*
X127998298Y-88715437D01*
X128003106Y-88707883D01*
X128009821Y-88705764D01*
X128390179Y-88705764D01*
X128398452Y-88709191D01*
G37*
G04 #@! TD.AperFunction*
G04 #@! TA.AperFunction,Conductor*
G36*
X105600238Y-106599850D02*
G01*
X105608464Y-106603385D01*
X105611782Y-106611363D01*
X105613039Y-106690223D01*
X105609744Y-106698549D01*
X105602802Y-106702017D01*
X105179259Y-106755357D01*
X105173251Y-106754530D01*
X105110928Y-106728250D01*
X105059956Y-106706756D01*
X105053665Y-106700385D01*
X105053722Y-106691430D01*
X105056227Y-106687706D01*
X105146510Y-106597423D01*
X105154782Y-106593997D01*
X105154805Y-106593997D01*
X105600238Y-106599850D01*
G37*
G04 #@! TD.AperFunction*
G04 #@! TA.AperFunction,Conductor*
G36*
X100378869Y-95319431D02*
G01*
X100379910Y-95321376D01*
X100595184Y-95834912D01*
X100595222Y-95843866D01*
X100592667Y-95847708D01*
X100497708Y-95942667D01*
X100489435Y-95946094D01*
X100484912Y-95945184D01*
X99971376Y-95729910D01*
X99965071Y-95723551D01*
X99965109Y-95714597D01*
X99966147Y-95712656D01*
X100122985Y-95476263D01*
X100126263Y-95472985D01*
X100362653Y-95316149D01*
X100371440Y-95314431D01*
X100378869Y-95319431D01*
G37*
G04 #@! TD.AperFunction*
G04 #@! TA.AperFunction,Conductor*
G36*
X125275714Y-85508077D02*
G01*
X125276616Y-85508749D01*
X125683463Y-85843798D01*
X125687671Y-85851702D01*
X125685057Y-85860267D01*
X125684298Y-85861102D01*
X125554810Y-85990590D01*
X125548036Y-85993921D01*
X125169348Y-86042838D01*
X125160704Y-86040499D01*
X125156378Y-86033538D01*
X125148319Y-85993411D01*
X125100254Y-85754078D01*
X125101985Y-85745293D01*
X125102018Y-85745243D01*
X125259475Y-85511252D01*
X125266937Y-85506301D01*
X125275714Y-85508077D01*
G37*
G04 #@! TD.AperFunction*
G04 #@! TA.AperFunction,Conductor*
G36*
X105321518Y-119210863D02*
G01*
X105750975Y-119379441D01*
X105754973Y-119382059D01*
X105882954Y-119510040D01*
X105886381Y-119518313D01*
X105882954Y-119526586D01*
X105879713Y-119528876D01*
X105425778Y-119745103D01*
X105416835Y-119745567D01*
X105411039Y-119741072D01*
X105252018Y-119504756D01*
X105250242Y-119495980D01*
X105305778Y-119219449D01*
X105310766Y-119212016D01*
X105319552Y-119210285D01*
X105321518Y-119210863D01*
G37*
G04 #@! TD.AperFunction*
G04 #@! TA.AperFunction,Conductor*
G36*
X126748757Y-108408127D02*
G01*
X126751939Y-108414016D01*
X126781765Y-108557335D01*
X126781343Y-108563613D01*
X126661033Y-108904443D01*
X126655048Y-108911104D01*
X126646106Y-108911582D01*
X126639445Y-108905597D01*
X126638967Y-108904444D01*
X126518656Y-108563614D01*
X126518234Y-108557337D01*
X126548061Y-108414015D01*
X126553102Y-108406615D01*
X126559516Y-108404700D01*
X126740484Y-108404700D01*
X126748757Y-108408127D01*
G37*
G04 #@! TD.AperFunction*
G04 #@! TA.AperFunction,Conductor*
G36*
X99698452Y-87409191D02*
G01*
X99701702Y-87415437D01*
X99792259Y-87930239D01*
X99790317Y-87938981D01*
X99783056Y-87943734D01*
X99502320Y-88000530D01*
X99497680Y-88000530D01*
X99216943Y-87943734D01*
X99209514Y-87938734D01*
X99207740Y-87930239D01*
X99298298Y-87415437D01*
X99303106Y-87407883D01*
X99309821Y-87405764D01*
X99690179Y-87405764D01*
X99698452Y-87409191D01*
G37*
G04 #@! TD.AperFunction*
G04 #@! TA.AperFunction,Conductor*
G36*
X105902969Y-113140416D02*
G01*
X105903495Y-113140977D01*
X106160029Y-113433675D01*
X106162905Y-113442156D01*
X106160551Y-113448458D01*
X105956392Y-113717573D01*
X105948662Y-113722093D01*
X105940973Y-113720487D01*
X105676082Y-113558714D01*
X105670807Y-113551478D01*
X105670510Y-113547891D01*
X105677646Y-113448458D01*
X105699220Y-113147849D01*
X105703230Y-113139845D01*
X105710890Y-113136989D01*
X105894696Y-113136989D01*
X105902969Y-113140416D01*
G37*
G04 #@! TD.AperFunction*
G04 #@! TA.AperFunction,Conductor*
G36*
X110062694Y-113451665D02*
G01*
X110545864Y-113504382D01*
X110553717Y-113508686D01*
X110556226Y-113517282D01*
X110556076Y-113518264D01*
X110501647Y-113795911D01*
X110496693Y-113803370D01*
X110496634Y-113803409D01*
X110259872Y-113960491D01*
X110251084Y-113962210D01*
X110243960Y-113957648D01*
X109956973Y-113565213D01*
X109954856Y-113556515D01*
X109958143Y-113550038D01*
X110053158Y-113455023D01*
X110061430Y-113451597D01*
X110062694Y-113451665D01*
G37*
G04 #@! TD.AperFunction*
G04 #@! TA.AperFunction,Conductor*
G36*
X108660074Y-112577487D02*
G01*
X108661331Y-112580520D01*
X108749131Y-112921623D01*
X108749500Y-112924540D01*
X108749500Y-112927031D01*
X108749341Y-112928954D01*
X108726630Y-113065223D01*
X108721890Y-113072821D01*
X108715089Y-113075000D01*
X108584911Y-113075000D01*
X108576638Y-113071573D01*
X108573370Y-113065223D01*
X108550407Y-112927442D01*
X108550617Y-112922602D01*
X108638669Y-112580520D01*
X108644050Y-112573363D01*
X108652917Y-112572106D01*
X108660074Y-112577487D01*
G37*
G04 #@! TD.AperFunction*
G04 #@! TA.AperFunction,Conductor*
G36*
X117337005Y-116384239D02*
G01*
X117449503Y-116468388D01*
X117454075Y-116476088D01*
X117454092Y-116479303D01*
X117431354Y-116649846D01*
X117426864Y-116657594D01*
X117419757Y-116660000D01*
X117240243Y-116660000D01*
X117231970Y-116656573D01*
X117228646Y-116649846D01*
X117205907Y-116479303D01*
X117208210Y-116470650D01*
X117210491Y-116468392D01*
X117322993Y-116384240D01*
X117331669Y-116382030D01*
X117337005Y-116384239D01*
G37*
G04 #@! TD.AperFunction*
G04 #@! TA.AperFunction,Conductor*
G36*
X127307841Y-112019685D02*
G01*
X127328483Y-112036319D01*
X127355845Y-112063681D01*
X127389330Y-112125004D01*
X127392164Y-112151362D01*
X127392164Y-112875149D01*
X127376051Y-112936275D01*
X127000000Y-113600000D01*
X127000000Y-117033637D01*
X126980315Y-117100676D01*
X126944783Y-117136811D01*
X126731239Y-117279174D01*
X126664540Y-117299982D01*
X126662456Y-117300000D01*
X125651362Y-117300000D01*
X125584323Y-117280315D01*
X125563681Y-117263681D01*
X124936319Y-116636319D01*
X124902834Y-116574996D01*
X124900000Y-116548638D01*
X124900000Y-114051362D01*
X124919685Y-113984323D01*
X124936319Y-113963681D01*
X126863681Y-112036319D01*
X126925004Y-112002834D01*
X126951362Y-112000000D01*
X127240802Y-112000000D01*
X127307841Y-112019685D01*
G37*
G04 #@! TD.AperFunction*
G04 #@! TA.AperFunction,Conductor*
G36*
X124362646Y-94823427D02*
G01*
X124365337Y-94827615D01*
X124487578Y-95155675D01*
X124487255Y-95164624D01*
X124487010Y-95165128D01*
X124210396Y-95700865D01*
X124203556Y-95706644D01*
X124194632Y-95705893D01*
X124189604Y-95700865D01*
X124122319Y-95570551D01*
X123912988Y-95165126D01*
X123912238Y-95156204D01*
X123912408Y-95155710D01*
X124034663Y-94827615D01*
X124040763Y-94821059D01*
X124045627Y-94820000D01*
X124354373Y-94820000D01*
X124362646Y-94823427D01*
G37*
G04 #@! TD.AperFunction*
G04 #@! TA.AperFunction,Conductor*
G36*
X117651535Y-106640023D02*
G01*
X117889384Y-106891617D01*
X117892582Y-106899655D01*
X117892582Y-107205619D01*
X117889155Y-107213892D01*
X117880882Y-107217319D01*
X117878502Y-107217074D01*
X117419614Y-107121716D01*
X117412211Y-107116678D01*
X117410373Y-107111617D01*
X117385632Y-106899655D01*
X117374864Y-106807405D01*
X117377308Y-106798793D01*
X117380348Y-106796090D01*
X117636899Y-106638098D01*
X117645739Y-106636678D01*
X117651535Y-106640023D01*
G37*
G04 #@! TD.AperFunction*
G04 #@! TA.AperFunction,Conductor*
G36*
X109547330Y-112534718D02*
G01*
X109551169Y-112542213D01*
X109598156Y-112987123D01*
X109595617Y-112995710D01*
X109594794Y-112996625D01*
X109504134Y-113087285D01*
X109495861Y-113090712D01*
X109487588Y-113087285D01*
X109485405Y-113084263D01*
X109431896Y-112977710D01*
X109430664Y-112971966D01*
X109448839Y-112547378D01*
X109452616Y-112539261D01*
X109459869Y-112536198D01*
X109538879Y-112531760D01*
X109547330Y-112534718D01*
G37*
G04 #@! TD.AperFunction*
G04 #@! TA.AperFunction,Conductor*
G36*
X111269062Y-85986531D02*
G01*
X111493772Y-86232102D01*
X111496829Y-86240518D01*
X111493772Y-86247898D01*
X111269062Y-86493468D01*
X111260948Y-86497259D01*
X111255611Y-86496231D01*
X110916881Y-86343110D01*
X110910753Y-86336580D01*
X110910000Y-86332449D01*
X110910000Y-86147550D01*
X110913427Y-86139277D01*
X110916878Y-86136890D01*
X111255613Y-85983767D01*
X111264561Y-85983482D01*
X111269062Y-85986531D01*
G37*
G04 #@! TD.AperFunction*
G04 #@! TA.AperFunction,Conductor*
G36*
X112831196Y-110600208D02*
G01*
X112845834Y-110603006D01*
X112847889Y-110603266D01*
X112848734Y-110603373D01*
X112848736Y-110603373D01*
X112848751Y-110603375D01*
X112874541Y-110605000D01*
X112874554Y-110605000D01*
X112877032Y-110605000D01*
X112877704Y-110604972D01*
X112893973Y-110604300D01*
X112895895Y-110604141D01*
X112905195Y-110602983D01*
X112912717Y-110602048D01*
X112912729Y-110602045D01*
X112912737Y-110602045D01*
X112924053Y-110600158D01*
X112925976Y-110600000D01*
X113013300Y-110600000D01*
X113021573Y-110603427D01*
X113025000Y-110611700D01*
X113025000Y-110741057D01*
X113021573Y-110749330D01*
X113016372Y-110752347D01*
X112916342Y-110779566D01*
X112911110Y-110779775D01*
X112495817Y-110701750D01*
X112488318Y-110696854D01*
X112486280Y-110690523D01*
X112484465Y-110611970D01*
X112487700Y-110603620D01*
X112495892Y-110600003D01*
X112496162Y-110600000D01*
X112828999Y-110600000D01*
X112831196Y-110600208D01*
G37*
G04 #@! TD.AperFunction*
G04 #@! TA.AperFunction,Conductor*
G36*
X111233191Y-106943907D02*
G01*
X111269155Y-106993407D01*
X111274000Y-107024000D01*
X111274000Y-111226000D01*
X111255093Y-111284191D01*
X111205593Y-111320155D01*
X111175000Y-111325000D01*
X106973000Y-111325000D01*
X106914809Y-111306093D01*
X106878845Y-111256593D01*
X106874000Y-111226000D01*
X106874000Y-107528036D01*
X107249500Y-107528036D01*
X107249500Y-110671961D01*
X107249501Y-110671968D01*
X107264208Y-110745910D01*
X107264209Y-110745912D01*
X107270148Y-110754800D01*
X107320237Y-110829763D01*
X107404089Y-110885791D01*
X107460307Y-110896973D01*
X107478024Y-110900498D01*
X107478025Y-110900498D01*
X107478035Y-110900500D01*
X110621964Y-110900499D01*
X110695911Y-110885791D01*
X110779763Y-110829763D01*
X110835791Y-110745911D01*
X110850500Y-110671965D01*
X110850499Y-107965895D01*
X110850500Y-107965892D01*
X110850500Y-107834108D01*
X110850499Y-107834104D01*
X110850499Y-107528036D01*
X110835791Y-107454089D01*
X110835788Y-107454085D01*
X110779764Y-107370239D01*
X110779763Y-107370237D01*
X110695911Y-107314209D01*
X110695907Y-107314208D01*
X110621975Y-107299501D01*
X110621965Y-107299500D01*
X110621964Y-107299500D01*
X109125797Y-107299500D01*
X109116212Y-107296932D01*
X108984428Y-107296932D01*
X108974842Y-107299500D01*
X107865895Y-107299500D01*
X107865892Y-107299500D01*
X107734108Y-107299500D01*
X107734104Y-107299500D01*
X107478038Y-107299500D01*
X107478031Y-107299501D01*
X107404089Y-107314208D01*
X107404087Y-107314209D01*
X107320239Y-107370235D01*
X107320235Y-107370239D01*
X107264211Y-107454085D01*
X107264208Y-107454092D01*
X107249501Y-107528024D01*
X107249500Y-107528036D01*
X106874000Y-107528036D01*
X106874000Y-107024000D01*
X106892907Y-106965809D01*
X106942407Y-106929845D01*
X106973000Y-106925000D01*
X111175000Y-106925000D01*
X111233191Y-106943907D01*
G37*
G04 #@! TD.AperFunction*
G04 #@! TA.AperFunction,Conductor*
G36*
X105231467Y-109804899D02*
G01*
X105236306Y-109804689D01*
X105238341Y-109804386D01*
X105242975Y-109804626D01*
X105569480Y-109888669D01*
X105576636Y-109894049D01*
X105577893Y-109902916D01*
X105572512Y-109910073D01*
X105569479Y-109911330D01*
X105227397Y-109999382D01*
X105222557Y-109999592D01*
X105084777Y-109976629D01*
X105077179Y-109971889D01*
X105075000Y-109965088D01*
X105075000Y-109834911D01*
X105078427Y-109826638D01*
X105084774Y-109823370D01*
X105203914Y-109803514D01*
X105206528Y-109803378D01*
X105231467Y-109804899D01*
G37*
G04 #@! TD.AperFunction*
G04 #@! TA.AperFunction,Conductor*
G36*
X99507743Y-87265838D02*
G01*
X99704572Y-87439665D01*
X99764774Y-87492832D01*
X99768707Y-87500877D01*
X99768428Y-87504239D01*
X99702097Y-87790937D01*
X99696893Y-87798225D01*
X99690698Y-87800000D01*
X99309302Y-87800000D01*
X99301029Y-87796573D01*
X99297903Y-87790937D01*
X99231571Y-87504239D01*
X99233045Y-87495407D01*
X99235222Y-87492834D01*
X99492256Y-87265838D01*
X99500725Y-87262931D01*
X99507743Y-87265838D01*
G37*
G04 #@! TD.AperFunction*
G04 #@! TA.AperFunction,Conductor*
G36*
X111782346Y-115342274D02*
G01*
X111994687Y-115597548D01*
X111997343Y-115606100D01*
X111996024Y-115610519D01*
X111803633Y-115972660D01*
X111796726Y-115978359D01*
X111787812Y-115977503D01*
X111785028Y-115975444D01*
X111515810Y-115706226D01*
X111512645Y-115700415D01*
X111491802Y-115603585D01*
X111477356Y-115536469D01*
X111478965Y-115527661D01*
X111482435Y-115524187D01*
X111766994Y-115339934D01*
X111775799Y-115338315D01*
X111782346Y-115342274D01*
G37*
G04 #@! TD.AperFunction*
G04 #@! TA.AperFunction,Conductor*
G36*
X100672755Y-108633823D02*
G01*
X100676565Y-108636823D01*
X100888725Y-108891275D01*
X100891391Y-108899824D01*
X100887494Y-108907529D01*
X100633049Y-109132759D01*
X100624583Y-109135676D01*
X100618402Y-109133453D01*
X100309808Y-108908504D01*
X100305141Y-108900861D01*
X100305000Y-108899049D01*
X100305000Y-108763384D01*
X100308427Y-108755111D01*
X100312937Y-108752306D01*
X100663820Y-108633237D01*
X100672755Y-108633823D01*
G37*
G04 #@! TD.AperFunction*
G04 #@! TA.AperFunction,Conductor*
G36*
X113388547Y-111433137D02*
G01*
X113388751Y-111433314D01*
X113639362Y-111654718D01*
X113643294Y-111662763D01*
X113640384Y-111671232D01*
X113637908Y-111673350D01*
X113392915Y-111829621D01*
X113384097Y-111831181D01*
X113378356Y-111828036D01*
X113153433Y-111603428D01*
X113150000Y-111595157D01*
X113150000Y-111460746D01*
X113153427Y-111452473D01*
X113160706Y-111449088D01*
X113380014Y-111430424D01*
X113388547Y-111433137D01*
G37*
G04 #@! TD.AperFunction*
G04 #@! TA.AperFunction,Conductor*
G36*
X127313846Y-87474415D02*
G01*
X127314728Y-87475402D01*
X127592958Y-87824995D01*
X127595428Y-87833602D01*
X127594877Y-87836056D01*
X127409513Y-88379869D01*
X127403601Y-88386594D01*
X127394664Y-88387168D01*
X127388069Y-88381512D01*
X127194508Y-88010936D01*
X127102179Y-87834171D01*
X127101318Y-87825479D01*
X127101459Y-87824995D01*
X127164309Y-87609443D01*
X127167265Y-87604450D01*
X127297301Y-87474414D01*
X127305573Y-87470988D01*
X127313846Y-87474415D01*
G37*
G04 #@! TD.AperFunction*
G04 #@! TA.AperFunction,Conductor*
G36*
X107905404Y-88418951D02*
G01*
X107910376Y-88423923D01*
X108196166Y-88972640D01*
X108197397Y-88976582D01*
X108198548Y-88985716D01*
X108198481Y-88989102D01*
X108151629Y-89270223D01*
X108146889Y-89277821D01*
X108140088Y-89280000D01*
X107659911Y-89280000D01*
X107651638Y-89276573D01*
X107648370Y-89270223D01*
X107600659Y-88983954D01*
X107600500Y-88982031D01*
X107600500Y-88981904D01*
X107601823Y-88976499D01*
X107603833Y-88972640D01*
X107889624Y-88423920D01*
X107896483Y-88418169D01*
X107905404Y-88418951D01*
G37*
G04 #@! TD.AperFunction*
G04 #@! TA.AperFunction,Conductor*
G36*
X110865087Y-121329815D02*
G01*
X111047668Y-121406353D01*
X111378623Y-121545089D01*
X111384928Y-121551448D01*
X111384890Y-121560402D01*
X111383849Y-121562347D01*
X111227015Y-121798734D01*
X111223734Y-121802015D01*
X110987347Y-121958849D01*
X110978559Y-121960568D01*
X110971130Y-121955568D01*
X110970089Y-121953623D01*
X110754815Y-121440087D01*
X110754777Y-121431133D01*
X110757330Y-121427293D01*
X110852292Y-121332331D01*
X110860564Y-121328905D01*
X110865087Y-121329815D01*
G37*
G04 #@! TD.AperFunction*
G04 #@! TA.AperFunction,Conductor*
G36*
X105231467Y-107404899D02*
G01*
X105236306Y-107404689D01*
X105238341Y-107404386D01*
X105242975Y-107404626D01*
X105569480Y-107488669D01*
X105576636Y-107494049D01*
X105577893Y-107502916D01*
X105572512Y-107510073D01*
X105569479Y-107511330D01*
X105228376Y-107599131D01*
X105225459Y-107599500D01*
X105222969Y-107599500D01*
X105221046Y-107599341D01*
X105175622Y-107591770D01*
X105084776Y-107576629D01*
X105077179Y-107571888D01*
X105075000Y-107565088D01*
X105075000Y-107434911D01*
X105078427Y-107426638D01*
X105084774Y-107423370D01*
X105203914Y-107403514D01*
X105206528Y-107403378D01*
X105231467Y-107404899D01*
G37*
G04 #@! TD.AperFunction*
G04 #@! TA.AperFunction,Conductor*
G36*
X97853869Y-94544431D02*
G01*
X97854910Y-94546376D01*
X98070184Y-95059912D01*
X98070222Y-95068866D01*
X98067667Y-95072708D01*
X97972708Y-95167667D01*
X97964435Y-95171094D01*
X97959912Y-95170184D01*
X97446376Y-94954910D01*
X97440071Y-94948551D01*
X97440109Y-94939597D01*
X97441147Y-94937656D01*
X97597985Y-94701263D01*
X97601263Y-94697985D01*
X97837653Y-94541149D01*
X97846440Y-94539431D01*
X97853869Y-94544431D01*
G37*
G04 #@! TD.AperFunction*
G04 #@! TA.AperFunction,Conductor*
G36*
X108677299Y-121901779D02*
G01*
X109104123Y-122094882D01*
X109110248Y-122101415D01*
X109109960Y-122110365D01*
X109109040Y-122112024D01*
X108952704Y-122346935D01*
X108945268Y-122351924D01*
X108945209Y-122351936D01*
X108666588Y-122406410D01*
X108657811Y-122404634D01*
X108653013Y-122397845D01*
X108528764Y-121915357D01*
X108530019Y-121906490D01*
X108537176Y-121901109D01*
X108540094Y-121900739D01*
X108672476Y-121900739D01*
X108677299Y-121901779D01*
G37*
G04 #@! TD.AperFunction*
G04 #@! TA.AperFunction,Conductor*
G36*
X126354344Y-107144116D02*
G01*
X126355193Y-107145626D01*
X126427080Y-107299293D01*
X126546791Y-107555193D01*
X126587422Y-107642046D01*
X126587823Y-107650992D01*
X126585097Y-107655277D01*
X126455277Y-107785097D01*
X126447004Y-107788524D01*
X126442047Y-107787422D01*
X126291428Y-107716961D01*
X125945626Y-107555193D01*
X125939585Y-107548583D01*
X125939986Y-107539637D01*
X125940835Y-107538127D01*
X126097985Y-107301263D01*
X126101263Y-107297985D01*
X126338127Y-107140834D01*
X126346915Y-107139116D01*
X126354344Y-107144116D01*
G37*
G04 #@! TD.AperFunction*
G04 #@! TA.AperFunction,Conductor*
G36*
X102818592Y-106913427D02*
G01*
X102821812Y-106919511D01*
X102898484Y-107322046D01*
X102896666Y-107330814D01*
X102893089Y-107334220D01*
X102626098Y-107497275D01*
X102617251Y-107498663D01*
X102613902Y-107497275D01*
X102346910Y-107334220D01*
X102341635Y-107326984D01*
X102341515Y-107322046D01*
X102418188Y-106919511D01*
X102423102Y-106912025D01*
X102429681Y-106910000D01*
X102810319Y-106910000D01*
X102818592Y-106913427D01*
G37*
G04 #@! TD.AperFunction*
G04 #@! TA.AperFunction,Conductor*
G36*
X112970251Y-106129179D02*
G01*
X112974870Y-106136851D01*
X112975000Y-106138591D01*
X112975000Y-106269132D01*
X112971573Y-106277405D01*
X112970297Y-106278509D01*
X112928259Y-106309875D01*
X112920934Y-106312193D01*
X112496776Y-106300288D01*
X112488602Y-106296631D01*
X112485464Y-106289772D01*
X112477494Y-106211090D01*
X112480069Y-106202514D01*
X112487391Y-106198342D01*
X112961561Y-106127021D01*
X112970251Y-106129179D01*
G37*
G04 #@! TD.AperFunction*
G04 #@! TA.AperFunction,Conductor*
G36*
X122371282Y-111110389D02*
G01*
X122886525Y-111297204D01*
X122893134Y-111303244D01*
X122894236Y-111308202D01*
X122894236Y-111491797D01*
X122890809Y-111500070D01*
X122886524Y-111502796D01*
X122371290Y-111689608D01*
X122362344Y-111689207D01*
X122356303Y-111682597D01*
X122355837Y-111680939D01*
X122299469Y-111402318D01*
X122299469Y-111397680D01*
X122355835Y-111119067D01*
X122360834Y-111111641D01*
X122369622Y-111109922D01*
X122371282Y-111110389D01*
G37*
G04 #@! TD.AperFunction*
G04 #@! TA.AperFunction,Conductor*
G36*
X127176313Y-108408127D02*
G01*
X127178322Y-108410817D01*
X127246141Y-108535707D01*
X127247214Y-108544109D01*
X127159111Y-108898996D01*
X127153792Y-108906200D01*
X127144937Y-108907532D01*
X127137733Y-108902213D01*
X127136795Y-108900269D01*
X127015861Y-108575761D01*
X127015145Y-108570991D01*
X127024348Y-108415708D01*
X127028259Y-108407652D01*
X127036028Y-108404700D01*
X127168040Y-108404700D01*
X127176313Y-108408127D01*
G37*
G04 #@! TD.AperFunction*
G04 #@! TA.AperFunction,Conductor*
G36*
X110521979Y-117782441D02*
G01*
X110524669Y-117784091D01*
X110797116Y-118006825D01*
X110801352Y-118014714D01*
X110801378Y-118015000D01*
X110820520Y-118267822D01*
X110817727Y-118276330D01*
X110809736Y-118280372D01*
X110809235Y-118280399D01*
X110222082Y-118299604D01*
X110213702Y-118296449D01*
X110210006Y-118288292D01*
X110210000Y-118287910D01*
X110210000Y-117908006D01*
X110213427Y-117899733D01*
X110217461Y-117897100D01*
X110513027Y-117782243D01*
X110521979Y-117782441D01*
G37*
G04 #@! TD.AperFunction*
G04 #@! TA.AperFunction,Conductor*
G36*
X105227397Y-107000617D02*
G01*
X105569479Y-107088669D01*
X105576636Y-107094050D01*
X105577893Y-107102917D01*
X105572512Y-107110074D01*
X105569478Y-107111331D01*
X105227396Y-107199382D01*
X105222557Y-107199592D01*
X105084777Y-107176629D01*
X105077179Y-107171889D01*
X105075000Y-107165088D01*
X105075000Y-107034911D01*
X105078427Y-107026638D01*
X105084775Y-107023370D01*
X105222557Y-107000407D01*
X105227397Y-107000617D01*
G37*
G04 #@! TD.AperFunction*
G04 #@! TA.AperFunction,Conductor*
G36*
X110937333Y-119361160D02*
G01*
X110943638Y-119367519D01*
X110944278Y-119369630D01*
X111000530Y-119647680D01*
X111000530Y-119652320D01*
X110944278Y-119930369D01*
X110939278Y-119937798D01*
X110930490Y-119939517D01*
X110928379Y-119938877D01*
X110413033Y-119727974D01*
X110406674Y-119721669D01*
X110405764Y-119717146D01*
X110405764Y-119582853D01*
X110409191Y-119574580D01*
X110413033Y-119572025D01*
X110928380Y-119361122D01*
X110937333Y-119361160D01*
G37*
G04 #@! TD.AperFunction*
G04 #@! TA.AperFunction,Conductor*
G36*
X110323362Y-105128427D02*
G01*
X110326630Y-105134777D01*
X110349592Y-105272557D01*
X110349382Y-105277396D01*
X110261331Y-105619478D01*
X110255950Y-105626636D01*
X110247084Y-105627893D01*
X110239926Y-105622512D01*
X110238669Y-105619479D01*
X110150869Y-105278375D01*
X110150500Y-105275458D01*
X110150500Y-105272969D01*
X110150659Y-105271046D01*
X110173370Y-105134777D01*
X110178110Y-105127179D01*
X110184911Y-105125000D01*
X110315089Y-105125000D01*
X110323362Y-105128427D01*
G37*
G04 #@! TD.AperFunction*
G04 #@! TA.AperFunction,Conductor*
G36*
X103310172Y-109788198D02*
G01*
X103575389Y-109897109D01*
X103581741Y-109903422D01*
X103582228Y-109904835D01*
X103663333Y-110200356D01*
X103662218Y-110209242D01*
X103656866Y-110214116D01*
X103209079Y-110416381D01*
X103200129Y-110416663D01*
X103195990Y-110413991D01*
X103066176Y-110284177D01*
X103062749Y-110275904D01*
X103063922Y-110270798D01*
X103093408Y-110210000D01*
X103295202Y-109793914D01*
X103301894Y-109787967D01*
X103310172Y-109788198D01*
G37*
G04 #@! TD.AperFunction*
G04 #@! TA.AperFunction,Conductor*
G36*
X121998452Y-88734191D02*
G01*
X122001702Y-88740437D01*
X122092259Y-89255239D01*
X122090317Y-89263981D01*
X122083056Y-89268734D01*
X121802320Y-89325530D01*
X121797680Y-89325530D01*
X121516943Y-89268734D01*
X121509514Y-89263734D01*
X121507740Y-89255239D01*
X121598298Y-88740437D01*
X121603106Y-88732883D01*
X121609821Y-88730764D01*
X121990179Y-88730764D01*
X121998452Y-88734191D01*
G37*
G04 #@! TD.AperFunction*
G04 #@! TA.AperFunction,Conductor*
G36*
X101176619Y-107766681D02*
G01*
X101485287Y-107996491D01*
X101489877Y-108004181D01*
X101490000Y-108005876D01*
X101490000Y-108141505D01*
X101486573Y-108149778D01*
X101481923Y-108152630D01*
X101131110Y-108266889D01*
X101122183Y-108266193D01*
X101118502Y-108263258D01*
X100906273Y-108008723D01*
X100903608Y-108000175D01*
X100907503Y-107992472D01*
X101161878Y-107767304D01*
X101170343Y-107764388D01*
X101176619Y-107766681D01*
G37*
G04 #@! TD.AperFunction*
G04 #@! TA.AperFunction,Conductor*
G36*
X97392013Y-107002627D02*
G01*
X97398191Y-107009109D01*
X97398525Y-107010104D01*
X97733514Y-108179422D01*
X97733966Y-108182644D01*
X97733966Y-108314344D01*
X97730539Y-108322617D01*
X97722266Y-108326044D01*
X97718298Y-108325351D01*
X96631484Y-107933573D01*
X96624863Y-107927543D01*
X96624092Y-107919768D01*
X96792542Y-107235916D01*
X96797847Y-107228705D01*
X96799674Y-107227807D01*
X97383060Y-107002412D01*
X97392013Y-107002627D01*
G37*
G04 #@! TD.AperFunction*
G04 #@! TA.AperFunction,Conductor*
G36*
X113135642Y-113054418D02*
G01*
X113704273Y-113221894D01*
X113711239Y-113227518D01*
X113712373Y-113235717D01*
X113652187Y-113499791D01*
X113647008Y-113507096D01*
X113646286Y-113507514D01*
X113352200Y-113664363D01*
X113343288Y-113665233D01*
X113338527Y-113662418D01*
X113124174Y-113453444D01*
X113120642Y-113445215D01*
X113120641Y-113445066D01*
X113120641Y-113065642D01*
X113124068Y-113057369D01*
X113132341Y-113053942D01*
X113135642Y-113054418D01*
G37*
G04 #@! TD.AperFunction*
G04 #@! TA.AperFunction,Conductor*
G36*
X123907743Y-92115838D02*
G01*
X124104572Y-92289665D01*
X124164774Y-92342832D01*
X124168707Y-92350877D01*
X124168428Y-92354239D01*
X124102097Y-92640937D01*
X124096893Y-92648225D01*
X124090698Y-92650000D01*
X123709302Y-92650000D01*
X123701029Y-92646573D01*
X123697903Y-92640937D01*
X123631571Y-92354239D01*
X123633045Y-92345407D01*
X123635222Y-92342834D01*
X123892256Y-92115838D01*
X123900725Y-92112931D01*
X123907743Y-92115838D01*
G37*
G04 #@! TD.AperFunction*
G04 #@! TA.AperFunction,Conductor*
G36*
X120230370Y-97355721D02*
G01*
X120237798Y-97360721D01*
X120239517Y-97369509D01*
X120238877Y-97371620D01*
X120027975Y-97886967D01*
X120021670Y-97893326D01*
X120017147Y-97894236D01*
X119882853Y-97894236D01*
X119874580Y-97890809D01*
X119872025Y-97886967D01*
X119661122Y-97371620D01*
X119661160Y-97362666D01*
X119667519Y-97356361D01*
X119669622Y-97355723D01*
X119947682Y-97299469D01*
X119952318Y-97299469D01*
X120230370Y-97355721D01*
G37*
G04 #@! TD.AperFunction*
G04 #@! TA.AperFunction,Conductor*
G36*
X121076187Y-112813427D02*
G01*
X121078283Y-112816279D01*
X121255554Y-113155361D01*
X121256350Y-113164281D01*
X121253083Y-113169414D01*
X121007898Y-113393772D01*
X120999482Y-113396829D01*
X120992102Y-113393772D01*
X120746916Y-113169414D01*
X120743125Y-113161300D01*
X120744444Y-113155365D01*
X120921717Y-112816278D01*
X120928587Y-112810535D01*
X120932086Y-112810000D01*
X121067914Y-112810000D01*
X121076187Y-112813427D01*
G37*
G04 #@! TD.AperFunction*
G04 #@! TA.AperFunction,Conductor*
G36*
X111752905Y-113818427D02*
G01*
X111753501Y-113819069D01*
X111995645Y-114100479D01*
X111998443Y-114108985D01*
X111995700Y-114115676D01*
X111781662Y-114368141D01*
X111773699Y-114372236D01*
X111766362Y-114370385D01*
X111482329Y-114185761D01*
X111477260Y-114178379D01*
X111477239Y-114173625D01*
X111492080Y-114100479D01*
X111548098Y-113824373D01*
X111553101Y-113816947D01*
X111559564Y-113815000D01*
X111744632Y-113815000D01*
X111752905Y-113818427D01*
G37*
G04 #@! TD.AperFunction*
G04 #@! TA.AperFunction,Conductor*
G36*
X101962832Y-116773859D02*
G01*
X102193794Y-116896699D01*
X102199489Y-116903610D01*
X102200000Y-116907029D01*
X102200000Y-117292970D01*
X102196573Y-117301243D01*
X102193794Y-117303300D01*
X101962832Y-117426140D01*
X101953919Y-117426999D01*
X101949078Y-117424096D01*
X101632310Y-117108285D01*
X101628872Y-117100018D01*
X101632286Y-117091739D01*
X101632311Y-117091714D01*
X101949079Y-116775901D01*
X101957356Y-116772489D01*
X101962832Y-116773859D01*
G37*
G04 #@! TD.AperFunction*
G04 #@! TA.AperFunction,Conductor*
G36*
X122237785Y-111110656D02*
G01*
X122243716Y-111117365D01*
X122244120Y-111118850D01*
X122300530Y-111397680D01*
X122300530Y-111402320D01*
X122244210Y-111680706D01*
X122239210Y-111688135D01*
X122230422Y-111689854D01*
X122228574Y-111689318D01*
X121713296Y-111492871D01*
X121706786Y-111486722D01*
X121705764Y-111481939D01*
X121705764Y-111298348D01*
X121709191Y-111290075D01*
X121713656Y-111287285D01*
X122228847Y-111110106D01*
X122237785Y-111110656D01*
G37*
G04 #@! TD.AperFunction*
G04 #@! TA.AperFunction,Conductor*
G36*
X107860073Y-112577487D02*
G01*
X107861330Y-112580520D01*
X107949382Y-112922602D01*
X107949592Y-112927442D01*
X107926630Y-113065223D01*
X107921890Y-113072821D01*
X107915089Y-113075000D01*
X107784911Y-113075000D01*
X107776638Y-113071573D01*
X107773370Y-113065223D01*
X107750659Y-112928954D01*
X107750500Y-112927031D01*
X107750500Y-112924540D01*
X107750869Y-112921624D01*
X107752337Y-112915917D01*
X107838669Y-112580519D01*
X107844049Y-112573363D01*
X107852915Y-112572106D01*
X107860073Y-112577487D01*
G37*
G04 #@! TD.AperFunction*
G04 #@! TA.AperFunction,Conductor*
G36*
X116109207Y-107562536D02*
G01*
X116334160Y-107817255D01*
X116337068Y-107825725D01*
X116334160Y-107832745D01*
X116109207Y-108087463D01*
X116101162Y-108091396D01*
X116094099Y-108089552D01*
X115805362Y-107903455D01*
X115800264Y-107896093D01*
X115800000Y-107893621D01*
X115800000Y-107756378D01*
X115803427Y-107748105D01*
X115805362Y-107746544D01*
X116094101Y-107560446D01*
X116102909Y-107558845D01*
X116109207Y-107562536D01*
G37*
G04 #@! TD.AperFunction*
G04 #@! TA.AperFunction,Conductor*
G36*
X113921074Y-111451634D02*
G01*
X114223473Y-111552587D01*
X114230235Y-111558457D01*
X114230866Y-111567390D01*
X114228041Y-111571958D01*
X113958572Y-111841427D01*
X113922611Y-111889768D01*
X113914924Y-111894361D01*
X113906241Y-111892172D01*
X113905460Y-111891537D01*
X113659629Y-111673462D01*
X113655714Y-111665409D01*
X113658641Y-111656946D01*
X113660035Y-111655613D01*
X113910019Y-111453631D01*
X113918606Y-111451098D01*
X113921074Y-111451634D01*
G37*
G04 #@! TD.AperFunction*
G04 #@! TA.AperFunction,Conductor*
G36*
X105460402Y-101940109D02*
G01*
X105462347Y-101941150D01*
X105698734Y-102097984D01*
X105702015Y-102101265D01*
X105858849Y-102337652D01*
X105860568Y-102346440D01*
X105855568Y-102353869D01*
X105853623Y-102354910D01*
X105340087Y-102570184D01*
X105331133Y-102570222D01*
X105327291Y-102567667D01*
X105232332Y-102472708D01*
X105228905Y-102464435D01*
X105229815Y-102459912D01*
X105273832Y-102354910D01*
X105445090Y-101946374D01*
X105451448Y-101940071D01*
X105460402Y-101940109D01*
G37*
G04 #@! TD.AperFunction*
G04 #@! TA.AperFunction,Conductor*
G36*
X99557032Y-119788427D02*
G01*
X99558476Y-119790184D01*
X99776703Y-120115604D01*
X99778465Y-120124383D01*
X99775655Y-120129978D01*
X99537433Y-120392798D01*
X99529338Y-120396626D01*
X99521398Y-120394030D01*
X99252996Y-120176538D01*
X99248726Y-120168667D01*
X99249541Y-120162998D01*
X99402018Y-119792250D01*
X99408334Y-119785902D01*
X99412839Y-119785000D01*
X99548759Y-119785000D01*
X99557032Y-119788427D01*
G37*
G04 #@! TD.AperFunction*
G04 #@! TA.AperFunction,Conductor*
G36*
X102376236Y-109643861D02*
G01*
X102379608Y-109646324D01*
X102455115Y-109725674D01*
X102614604Y-109893279D01*
X102617824Y-109901634D01*
X102615912Y-109907759D01*
X102429279Y-110192403D01*
X102421877Y-110197443D01*
X102417953Y-110197586D01*
X102070158Y-110151350D01*
X102062409Y-110146863D01*
X102060000Y-110139752D01*
X102060000Y-110116517D01*
X102060000Y-109750000D01*
X102367298Y-109643337D01*
X102376236Y-109643861D01*
G37*
G04 #@! TD.AperFunction*
G04 #@! TA.AperFunction,Conductor*
G36*
X107608607Y-104483511D02*
G01*
X107902947Y-104616806D01*
X107909069Y-104623341D01*
X107909817Y-104627740D01*
X107903810Y-104882595D01*
X107900386Y-104890592D01*
X107769675Y-105021303D01*
X107761402Y-105024730D01*
X107754103Y-105022174D01*
X107432337Y-104765352D01*
X107428009Y-104757513D01*
X107429720Y-104749998D01*
X107593865Y-104487957D01*
X107601161Y-104482766D01*
X107608607Y-104483511D01*
G37*
G04 #@! TD.AperFunction*
G04 #@! TA.AperFunction,Conductor*
G36*
X111382169Y-102497548D02*
G01*
X111501264Y-102640383D01*
X111594752Y-102752507D01*
X111597418Y-102761056D01*
X111594752Y-102767493D01*
X111382171Y-103022450D01*
X111374241Y-103026609D01*
X111368277Y-103025578D01*
X111016792Y-102863138D01*
X111010719Y-102856556D01*
X111010000Y-102852517D01*
X111010000Y-102667482D01*
X111013427Y-102659209D01*
X111016792Y-102656861D01*
X111368279Y-102494420D01*
X111377224Y-102494061D01*
X111382169Y-102497548D01*
G37*
G04 #@! TD.AperFunction*
G04 #@! TA.AperFunction,Conductor*
G36*
X125155368Y-98244106D02*
G01*
X125160396Y-98249134D01*
X125437093Y-98785033D01*
X125437844Y-98793957D01*
X125437764Y-98794198D01*
X125352711Y-99042097D01*
X125346785Y-99048810D01*
X125341644Y-99050000D01*
X124958356Y-99050000D01*
X124950083Y-99046573D01*
X124947289Y-99042097D01*
X124862235Y-98794198D01*
X124862792Y-98785261D01*
X124862906Y-98785033D01*
X125139604Y-98249134D01*
X125146444Y-98243355D01*
X125155368Y-98244106D01*
G37*
G04 #@! TD.AperFunction*
G04 #@! TA.AperFunction,Conductor*
G36*
X110753152Y-114513427D02*
G01*
X110753465Y-114513752D01*
X111010390Y-114792002D01*
X111013485Y-114800404D01*
X111010931Y-114807245D01*
X110805689Y-115063885D01*
X110797846Y-115068206D01*
X110791708Y-115067228D01*
X110497977Y-114933628D01*
X110491865Y-114927083D01*
X110491239Y-114921325D01*
X110548565Y-114520045D01*
X110553127Y-114512340D01*
X110560147Y-114510000D01*
X110744879Y-114510000D01*
X110753152Y-114513427D01*
G37*
G04 #@! TD.AperFunction*
G04 #@! TA.AperFunction,Conductor*
G36*
X121259425Y-100883859D02*
G01*
X121995038Y-101147263D01*
X122001672Y-101153278D01*
X122002350Y-101155084D01*
X122174607Y-101762137D01*
X122173568Y-101771032D01*
X122166545Y-101776587D01*
X122165023Y-101776911D01*
X120884569Y-101961814D01*
X120875891Y-101959605D01*
X120874624Y-101958507D01*
X120743536Y-101827419D01*
X120740109Y-101819146D01*
X120741535Y-101813547D01*
X121245209Y-100889275D01*
X121252177Y-100883652D01*
X121259425Y-100883859D01*
G37*
G04 #@! TD.AperFunction*
G04 #@! TA.AperFunction,Conductor*
G36*
X110999375Y-116503427D02*
G01*
X111002377Y-116508575D01*
X111068045Y-116745500D01*
X111066952Y-116754388D01*
X111064515Y-116757395D01*
X110807745Y-116984160D01*
X110799275Y-116987068D01*
X110792255Y-116984160D01*
X110535484Y-116757395D01*
X110531551Y-116749350D01*
X110531953Y-116745503D01*
X110597623Y-116508574D01*
X110603135Y-116501518D01*
X110608898Y-116500000D01*
X110991102Y-116500000D01*
X110999375Y-116503427D01*
G37*
G04 #@! TD.AperFunction*
G04 #@! TA.AperFunction,Conductor*
G36*
X122027898Y-113406227D02*
G01*
X122273468Y-113630937D01*
X122277259Y-113639051D01*
X122276231Y-113644388D01*
X122123111Y-113983119D01*
X122116581Y-113989246D01*
X122112450Y-113990000D01*
X121927550Y-113990000D01*
X121919277Y-113986573D01*
X121916889Y-113983119D01*
X121763768Y-113644388D01*
X121763483Y-113635438D01*
X121766528Y-113630940D01*
X122012102Y-113406226D01*
X122020518Y-113403170D01*
X122027898Y-113406227D01*
G37*
G04 #@! TD.AperFunction*
M02*
