G04 #@! TF.GenerationSoftware,KiCad,Pcbnew,9.0.4-9.0.4-0~ubuntu22.04.1*
G04 #@! TF.CreationDate,2025-09-17T13:23:39-04:00*
G04 #@! TF.ProjectId,receiver7RP2350V2,72656365-6976-4657-9237-525032333530,rev?*
G04 #@! TF.SameCoordinates,Original*
G04 #@! TF.FileFunction,Soldermask,Top*
G04 #@! TF.FilePolarity,Negative*
%FSLAX46Y46*%
G04 Gerber Fmt 4.6, Leading zero omitted, Abs format (unit mm)*
G04 Created by KiCad (PCBNEW 9.0.4-9.0.4-0~ubuntu22.04.1) date 2025-09-17 13:23:39*
%MOMM*%
%LPD*%
G01*
G04 APERTURE LIST*
G04 Aperture macros list*
%AMRoundRect*
0 Rectangle with rounded corners*
0 $1 Rounding radius*
0 $2 $3 $4 $5 $6 $7 $8 $9 X,Y pos of 4 corners*
0 Add a 4 corners polygon primitive as box body*
4,1,4,$2,$3,$4,$5,$6,$7,$8,$9,$2,$3,0*
0 Add four circle primitives for the rounded corners*
1,1,$1+$1,$2,$3*
1,1,$1+$1,$4,$5*
1,1,$1+$1,$6,$7*
1,1,$1+$1,$8,$9*
0 Add four rect primitives between the rounded corners*
20,1,$1+$1,$2,$3,$4,$5,0*
20,1,$1+$1,$4,$5,$6,$7,0*
20,1,$1+$1,$6,$7,$8,$9,0*
20,1,$1+$1,$8,$9,$2,$3,0*%
%AMFreePoly0*
4,1,18,-0.437500,0.050000,-0.433694,0.069134,-0.422855,0.085355,-0.406634,0.096194,-0.387500,0.100000,0.387500,0.100000,0.437500,0.050000,0.437500,-0.050000,0.433694,-0.069134,0.422855,-0.085355,0.406634,-0.096194,0.387500,-0.100000,-0.387500,-0.100000,-0.406634,-0.096194,-0.422855,-0.085355,-0.433694,-0.069134,-0.437500,-0.050000,-0.437500,0.050000,-0.437500,0.050000,$1*%
%AMFreePoly1*
4,1,18,-0.437500,0.050000,-0.433694,0.069134,-0.422855,0.085355,-0.406634,0.096194,-0.387500,0.100000,0.387500,0.100000,0.406634,0.096194,0.422855,0.085355,0.433694,0.069134,0.437500,0.050000,0.437500,-0.050000,0.387500,-0.100000,-0.387500,-0.100000,-0.406634,-0.096194,-0.422855,-0.085355,-0.433694,-0.069134,-0.437500,-0.050000,-0.437500,0.050000,-0.437500,0.050000,$1*%
%AMFreePoly2*
4,1,18,-0.100000,0.387500,-0.050000,0.437500,0.050000,0.437500,0.069134,0.433694,0.085355,0.422855,0.096194,0.406634,0.100000,0.387500,0.100000,-0.387500,0.096194,-0.406634,0.085355,-0.422855,0.069134,-0.433694,0.050000,-0.437500,-0.050000,-0.437500,-0.069134,-0.433694,-0.085355,-0.422855,-0.096194,-0.406634,-0.100000,-0.387500,-0.100000,0.387500,-0.100000,0.387500,$1*%
%AMFreePoly3*
4,1,18,-0.100000,0.387500,-0.096194,0.406634,-0.085355,0.422855,-0.069134,0.433694,-0.050000,0.437500,0.050000,0.437500,0.100000,0.387500,0.100000,-0.387500,0.096194,-0.406634,0.085355,-0.422855,0.069134,-0.433694,0.050000,-0.437500,-0.050000,-0.437500,-0.069134,-0.433694,-0.085355,-0.422855,-0.096194,-0.406634,-0.100000,-0.387500,-0.100000,0.387500,-0.100000,0.387500,$1*%
%AMFreePoly4*
4,1,18,-0.437500,0.050000,-0.433694,0.069134,-0.422855,0.085355,-0.406634,0.096194,-0.387500,0.100000,0.387500,0.100000,0.406634,0.096194,0.422855,0.085355,0.433694,0.069134,0.437500,0.050000,0.437500,-0.050000,0.433694,-0.069134,0.422855,-0.085355,0.406634,-0.096194,0.387500,-0.100000,-0.387500,-0.100000,-0.437500,-0.050000,-0.437500,0.050000,-0.437500,0.050000,$1*%
%AMFreePoly5*
4,1,18,-0.437500,0.050000,-0.387500,0.100000,0.387500,0.100000,0.406634,0.096194,0.422855,0.085355,0.433694,0.069134,0.437500,0.050000,0.437500,-0.050000,0.433694,-0.069134,0.422855,-0.085355,0.406634,-0.096194,0.387500,-0.100000,-0.387500,-0.100000,-0.406634,-0.096194,-0.422855,-0.085355,-0.433694,-0.069134,-0.437500,-0.050000,-0.437500,0.050000,-0.437500,0.050000,$1*%
%AMFreePoly6*
4,1,18,-0.100000,0.387500,-0.096194,0.406634,-0.085355,0.422855,-0.069134,0.433694,-0.050000,0.437500,0.050000,0.437500,0.069134,0.433694,0.085355,0.422855,0.096194,0.406634,0.100000,0.387500,0.100000,-0.387500,0.050000,-0.437500,-0.050000,-0.437500,-0.069134,-0.433694,-0.085355,-0.422855,-0.096194,-0.406634,-0.100000,-0.387500,-0.100000,0.387500,-0.100000,0.387500,$1*%
%AMFreePoly7*
4,1,18,-0.100000,0.387500,-0.096194,0.406634,-0.085355,0.422855,-0.069134,0.433694,-0.050000,0.437500,0.050000,0.437500,0.069134,0.433694,0.085355,0.422855,0.096194,0.406634,0.100000,0.387500,0.100000,-0.387500,0.096194,-0.406634,0.085355,-0.422855,0.069134,-0.433694,0.050000,-0.437500,-0.050000,-0.437500,-0.100000,-0.387500,-0.100000,0.387500,-0.100000,0.387500,$1*%
G04 Aperture macros list end*
%ADD10C,0.010000*%
%ADD11C,2.500000*%
%ADD12C,0.650000*%
%ADD13O,1.204000X2.304000*%
%ADD14O,1.204000X2.004000*%
%ADD15R,0.990600X3.505200*%
%ADD16R,1.498600X3.200000*%
%ADD17RoundRect,0.140000X0.170000X-0.140000X0.170000X0.140000X-0.170000X0.140000X-0.170000X-0.140000X0*%
%ADD18C,0.800000*%
%ADD19C,5.400000*%
%ADD20RoundRect,0.135000X0.135000X0.185000X-0.135000X0.185000X-0.135000X-0.185000X0.135000X-0.185000X0*%
%ADD21RoundRect,0.140000X-0.170000X0.140000X-0.170000X-0.140000X0.170000X-0.140000X0.170000X0.140000X0*%
%ADD22RoundRect,0.250000X0.475000X-0.250000X0.475000X0.250000X-0.475000X0.250000X-0.475000X-0.250000X0*%
%ADD23R,0.530000X0.470000*%
%ADD24RoundRect,0.135000X-0.185000X0.135000X-0.185000X-0.135000X0.185000X-0.135000X0.185000X0.135000X0*%
%ADD25RoundRect,0.140000X0.140000X0.170000X-0.140000X0.170000X-0.140000X-0.170000X0.140000X-0.170000X0*%
%ADD26RoundRect,0.140000X-0.140000X-0.170000X0.140000X-0.170000X0.140000X0.170000X-0.140000X0.170000X0*%
%ADD27RoundRect,0.135000X-0.135000X-0.185000X0.135000X-0.185000X0.135000X0.185000X-0.135000X0.185000X0*%
%ADD28RoundRect,0.135000X0.185000X-0.135000X0.185000X0.135000X-0.185000X0.135000X-0.185000X-0.135000X0*%
%ADD29R,0.660400X1.549400*%
%ADD30R,1.295400X1.905000*%
%ADD31RoundRect,0.312500X0.437500X0.312500X-0.437500X0.312500X-0.437500X-0.312500X0.437500X-0.312500X0*%
%ADD32FreePoly0,270.000000*%
%ADD33RoundRect,0.050000X-0.050000X0.387500X-0.050000X-0.387500X0.050000X-0.387500X0.050000X0.387500X0*%
%ADD34FreePoly1,270.000000*%
%ADD35FreePoly2,270.000000*%
%ADD36RoundRect,0.050000X-0.387500X0.050000X-0.387500X-0.050000X0.387500X-0.050000X0.387500X0.050000X0*%
%ADD37FreePoly3,270.000000*%
%ADD38FreePoly4,270.000000*%
%ADD39FreePoly5,270.000000*%
%ADD40FreePoly6,270.000000*%
%ADD41FreePoly7,270.000000*%
%ADD42RoundRect,0.153000X-1.547000X-1.547000X1.547000X-1.547000X1.547000X1.547000X-1.547000X1.547000X0*%
%ADD43RoundRect,0.102000X-0.525000X-0.325000X0.525000X-0.325000X0.525000X0.325000X-0.525000X0.325000X0*%
%ADD44RoundRect,0.059250X-0.177750X0.437750X-0.177750X-0.437750X0.177750X-0.437750X0.177750X0.437750X0*%
%ADD45RoundRect,0.059250X-0.437750X0.177750X-0.437750X-0.177750X0.437750X-0.177750X0.437750X0.177750X0*%
%ADD46RoundRect,0.250000X-0.250000X-0.475000X0.250000X-0.475000X0.250000X0.475000X-0.250000X0.475000X0*%
%ADD47RoundRect,0.099250X0.297750X-0.607750X0.297750X0.607750X-0.297750X0.607750X-0.297750X-0.607750X0*%
%ADD48RoundRect,0.250000X1.000000X0.650000X-1.000000X0.650000X-1.000000X-0.650000X1.000000X-0.650000X0*%
%ADD49R,1.700000X0.700000*%
%ADD50R,1.200000X1.400000*%
%ADD51RoundRect,0.100000X-0.600000X0.700000X-0.600000X-0.700000X0.600000X-0.700000X0.600000X0.700000X0*%
%ADD52RoundRect,0.147500X0.147500X0.172500X-0.147500X0.172500X-0.147500X-0.172500X0.147500X-0.172500X0*%
%ADD53RoundRect,0.088000X-0.088000X0.118000X-0.088000X-0.118000X0.088000X-0.118000X0.088000X0.118000X0*%
%ADD54RoundRect,0.062500X-0.062500X0.092500X-0.062500X-0.092500X0.062500X-0.092500X0.062500X0.092500X0*%
%ADD55RoundRect,0.087500X-0.087500X0.117500X-0.087500X-0.117500X0.087500X-0.117500X0.087500X0.117500X0*%
%ADD56R,1.300000X0.300000*%
%ADD57C,1.600000*%
%ADD58C,1.100000*%
G04 APERTURE END LIST*
D10*
X122150000Y-89030000D02*
X121450000Y-89030000D01*
X121450000Y-87780000D01*
X122150000Y-87780000D01*
X122150000Y-89030000D01*
G36*
X122150000Y-89030000D02*
G01*
X121450000Y-89030000D01*
X121450000Y-87780000D01*
X122150000Y-87780000D01*
X122150000Y-89030000D01*
G37*
X122950000Y-89030000D02*
X122250000Y-89030000D01*
X122250000Y-87780000D01*
X122950000Y-87780000D01*
X122950000Y-89030000D01*
G36*
X122950000Y-89030000D02*
G01*
X122250000Y-89030000D01*
X122250000Y-87780000D01*
X122950000Y-87780000D01*
X122950000Y-89030000D01*
G37*
X123450000Y-89030000D02*
X123050000Y-89030000D01*
X123050000Y-87780000D01*
X123450000Y-87780000D01*
X123450000Y-89030000D01*
G36*
X123450000Y-89030000D02*
G01*
X123050000Y-89030000D01*
X123050000Y-87780000D01*
X123450000Y-87780000D01*
X123450000Y-89030000D01*
G37*
X123950000Y-89030000D02*
X123550000Y-89030000D01*
X123550000Y-87780000D01*
X123950000Y-87780000D01*
X123950000Y-89030000D01*
G36*
X123950000Y-89030000D02*
G01*
X123550000Y-89030000D01*
X123550000Y-87780000D01*
X123950000Y-87780000D01*
X123950000Y-89030000D01*
G37*
X124450000Y-89030000D02*
X124050000Y-89030000D01*
X124050000Y-87780000D01*
X124450000Y-87780000D01*
X124450000Y-89030000D01*
G36*
X124450000Y-89030000D02*
G01*
X124050000Y-89030000D01*
X124050000Y-87780000D01*
X124450000Y-87780000D01*
X124450000Y-89030000D01*
G37*
X124950000Y-89030000D02*
X124550000Y-89030000D01*
X124550000Y-87780000D01*
X124950000Y-87780000D01*
X124950000Y-89030000D01*
G36*
X124950000Y-89030000D02*
G01*
X124550000Y-89030000D01*
X124550000Y-87780000D01*
X124950000Y-87780000D01*
X124950000Y-89030000D01*
G37*
X125450000Y-89030000D02*
X125050000Y-89030000D01*
X125050000Y-87780000D01*
X125450000Y-87780000D01*
X125450000Y-89030000D01*
G36*
X125450000Y-89030000D02*
G01*
X125050000Y-89030000D01*
X125050000Y-87780000D01*
X125450000Y-87780000D01*
X125450000Y-89030000D01*
G37*
X125950000Y-89030000D02*
X125550000Y-89030000D01*
X125550000Y-87780000D01*
X125950000Y-87780000D01*
X125950000Y-89030000D01*
G36*
X125950000Y-89030000D02*
G01*
X125550000Y-89030000D01*
X125550000Y-87780000D01*
X125950000Y-87780000D01*
X125950000Y-89030000D01*
G37*
X126450000Y-89030000D02*
X126050000Y-89030000D01*
X126050000Y-87780000D01*
X126450000Y-87780000D01*
X126450000Y-89030000D01*
G36*
X126450000Y-89030000D02*
G01*
X126050000Y-89030000D01*
X126050000Y-87780000D01*
X126450000Y-87780000D01*
X126450000Y-89030000D01*
G37*
X126950000Y-89030000D02*
X126550000Y-89030000D01*
X126550000Y-87780000D01*
X126950000Y-87780000D01*
X126950000Y-89030000D01*
G36*
X126950000Y-89030000D02*
G01*
X126550000Y-89030000D01*
X126550000Y-87780000D01*
X126950000Y-87780000D01*
X126950000Y-89030000D01*
G37*
X127750000Y-89030000D02*
X127050000Y-89030000D01*
X127050000Y-87780000D01*
X127750000Y-87780000D01*
X127750000Y-89030000D01*
G36*
X127750000Y-89030000D02*
G01*
X127050000Y-89030000D01*
X127050000Y-87780000D01*
X127750000Y-87780000D01*
X127750000Y-89030000D01*
G37*
X128550000Y-89030000D02*
X127850000Y-89030000D01*
X127850000Y-87780000D01*
X128550000Y-87780000D01*
X128550000Y-89030000D01*
G36*
X128550000Y-89030000D02*
G01*
X127850000Y-89030000D01*
X127850000Y-87780000D01*
X128550000Y-87780000D01*
X128550000Y-89030000D01*
G37*
X102650000Y-89030000D02*
X101950000Y-89030000D01*
X101950000Y-87780000D01*
X102650000Y-87780000D01*
X102650000Y-89030000D01*
G36*
X102650000Y-89030000D02*
G01*
X101950000Y-89030000D01*
X101950000Y-87780000D01*
X102650000Y-87780000D01*
X102650000Y-89030000D01*
G37*
X103450000Y-89030000D02*
X102750000Y-89030000D01*
X102750000Y-87780000D01*
X103450000Y-87780000D01*
X103450000Y-89030000D01*
G36*
X103450000Y-89030000D02*
G01*
X102750000Y-89030000D01*
X102750000Y-87780000D01*
X103450000Y-87780000D01*
X103450000Y-89030000D01*
G37*
X103950000Y-89030000D02*
X103550000Y-89030000D01*
X103550000Y-87780000D01*
X103950000Y-87780000D01*
X103950000Y-89030000D01*
G36*
X103950000Y-89030000D02*
G01*
X103550000Y-89030000D01*
X103550000Y-87780000D01*
X103950000Y-87780000D01*
X103950000Y-89030000D01*
G37*
X104450000Y-89030000D02*
X104050000Y-89030000D01*
X104050000Y-87780000D01*
X104450000Y-87780000D01*
X104450000Y-89030000D01*
G36*
X104450000Y-89030000D02*
G01*
X104050000Y-89030000D01*
X104050000Y-87780000D01*
X104450000Y-87780000D01*
X104450000Y-89030000D01*
G37*
X104950000Y-89030000D02*
X104550000Y-89030000D01*
X104550000Y-87780000D01*
X104950000Y-87780000D01*
X104950000Y-89030000D01*
G36*
X104950000Y-89030000D02*
G01*
X104550000Y-89030000D01*
X104550000Y-87780000D01*
X104950000Y-87780000D01*
X104950000Y-89030000D01*
G37*
X105450000Y-89030000D02*
X105050000Y-89030000D01*
X105050000Y-87780000D01*
X105450000Y-87780000D01*
X105450000Y-89030000D01*
G36*
X105450000Y-89030000D02*
G01*
X105050000Y-89030000D01*
X105050000Y-87780000D01*
X105450000Y-87780000D01*
X105450000Y-89030000D01*
G37*
X105950000Y-89030000D02*
X105550000Y-89030000D01*
X105550000Y-87780000D01*
X105950000Y-87780000D01*
X105950000Y-89030000D01*
G36*
X105950000Y-89030000D02*
G01*
X105550000Y-89030000D01*
X105550000Y-87780000D01*
X105950000Y-87780000D01*
X105950000Y-89030000D01*
G37*
X106450000Y-89030000D02*
X106050000Y-89030000D01*
X106050000Y-87780000D01*
X106450000Y-87780000D01*
X106450000Y-89030000D01*
G36*
X106450000Y-89030000D02*
G01*
X106050000Y-89030000D01*
X106050000Y-87780000D01*
X106450000Y-87780000D01*
X106450000Y-89030000D01*
G37*
X106950000Y-89030000D02*
X106550000Y-89030000D01*
X106550000Y-87780000D01*
X106950000Y-87780000D01*
X106950000Y-89030000D01*
G36*
X106950000Y-89030000D02*
G01*
X106550000Y-89030000D01*
X106550000Y-87780000D01*
X106950000Y-87780000D01*
X106950000Y-89030000D01*
G37*
X107450000Y-89030000D02*
X107050000Y-89030000D01*
X107050000Y-87780000D01*
X107450000Y-87780000D01*
X107450000Y-89030000D01*
G36*
X107450000Y-89030000D02*
G01*
X107050000Y-89030000D01*
X107050000Y-87780000D01*
X107450000Y-87780000D01*
X107450000Y-89030000D01*
G37*
X108250000Y-89030000D02*
X107550000Y-89030000D01*
X107550000Y-87780000D01*
X108250000Y-87780000D01*
X108250000Y-89030000D01*
G36*
X108250000Y-89030000D02*
G01*
X107550000Y-89030000D01*
X107550000Y-87780000D01*
X108250000Y-87780000D01*
X108250000Y-89030000D01*
G37*
X109050000Y-89030000D02*
X108350000Y-89030000D01*
X108350000Y-87780000D01*
X109050000Y-87780000D01*
X109050000Y-89030000D01*
G36*
X109050000Y-89030000D02*
G01*
X108350000Y-89030000D01*
X108350000Y-87780000D01*
X109050000Y-87780000D01*
X109050000Y-89030000D01*
G37*
D11*
X130775000Y-94075000D03*
D12*
X127890000Y-87330000D03*
X122110000Y-87330000D03*
D13*
X129320000Y-87830000D03*
X120680000Y-87830000D03*
D14*
X129320000Y-83650000D03*
X120680000Y-83650000D03*
D15*
X90999999Y-115294700D03*
X93000001Y-115294700D03*
D16*
X88649999Y-121194700D03*
X95350001Y-121194700D03*
D17*
X107600000Y-104480000D03*
X107600000Y-103520000D03*
D18*
X92375000Y-153600000D03*
X92968109Y-152168109D03*
X92968109Y-155031891D03*
X94400000Y-151575000D03*
D19*
X94400000Y-153600000D03*
D18*
X94400000Y-155625000D03*
X95831891Y-152168109D03*
X95831891Y-155031891D03*
X96425000Y-153600000D03*
D20*
X124910000Y-106250000D03*
X123890000Y-106250000D03*
D17*
X119250000Y-117830000D03*
X119250000Y-116870000D03*
D21*
X109300000Y-113720000D03*
X109300000Y-114680000D03*
D22*
X129700000Y-110394700D03*
X129700000Y-108494700D03*
D23*
X113650000Y-110635000D03*
X113650000Y-111665000D03*
D20*
X122020000Y-113400000D03*
X121000000Y-113400000D03*
D12*
X108390000Y-87330000D03*
X102610000Y-87330000D03*
D13*
X109820000Y-87830000D03*
X101180000Y-87830000D03*
D14*
X109820000Y-83650000D03*
X101180000Y-83650000D03*
D24*
X123900000Y-91090000D03*
X123900000Y-92110000D03*
D25*
X103580000Y-107500000D03*
X102620000Y-107500000D03*
D18*
X92375000Y-85600000D03*
X92968109Y-84168109D03*
X92968109Y-87031891D03*
X94400000Y-83575000D03*
D19*
X94400000Y-85600000D03*
D18*
X94400000Y-87625000D03*
X95831891Y-84168109D03*
X95831891Y-87031891D03*
X96425000Y-85600000D03*
D24*
X104700000Y-103000000D03*
X104700000Y-104020000D03*
D26*
X117720000Y-115400000D03*
X118680000Y-115400000D03*
D27*
X102565000Y-108975000D03*
X103585000Y-108975000D03*
D25*
X116660000Y-115400000D03*
X115700000Y-115400000D03*
D21*
X100895000Y-108900000D03*
X100895000Y-109860000D03*
D27*
X116340000Y-107825000D03*
X117360000Y-107825000D03*
D28*
X114625000Y-113560000D03*
X114625000Y-112540000D03*
D29*
X98625000Y-117100000D03*
X99625001Y-117100000D03*
X100624999Y-117100000D03*
X101625000Y-117100000D03*
D30*
X97325001Y-114520000D03*
X102924999Y-114520000D03*
D21*
X124750000Y-108350000D03*
X124750000Y-109310000D03*
D31*
X122000000Y-99150000D03*
X122000000Y-101150000D03*
D21*
X113650000Y-112545000D03*
X113650000Y-113505000D03*
D32*
X111850000Y-105662500D03*
D33*
X111450000Y-105662500D03*
X111050000Y-105662500D03*
X110650000Y-105662500D03*
X110250000Y-105662500D03*
X109850000Y-105662500D03*
X109450000Y-105662500D03*
X109050000Y-105662500D03*
X108650000Y-105662500D03*
X108250000Y-105662500D03*
X107850000Y-105662500D03*
X107450000Y-105662500D03*
X107050000Y-105662500D03*
X106650000Y-105662500D03*
D34*
X106250000Y-105662500D03*
D35*
X105612500Y-106300000D03*
D36*
X105612500Y-106700000D03*
X105612500Y-107100000D03*
X105612500Y-107500000D03*
X105612500Y-107900000D03*
X105612500Y-108300000D03*
X105612500Y-108700000D03*
X105612500Y-109100000D03*
X105612500Y-109500000D03*
X105612500Y-109900000D03*
X105612500Y-110300000D03*
X105612500Y-110700000D03*
X105612500Y-111100000D03*
X105612500Y-111500000D03*
D37*
X105612500Y-111900000D03*
D38*
X106250000Y-112537500D03*
D33*
X106650000Y-112537500D03*
X107050000Y-112537500D03*
X107450000Y-112537500D03*
X107850000Y-112537500D03*
X108250000Y-112537500D03*
X108650000Y-112537500D03*
X109050000Y-112537500D03*
X109450000Y-112537500D03*
X109850000Y-112537500D03*
X110250000Y-112537500D03*
X110650000Y-112537500D03*
X111050000Y-112537500D03*
X111450000Y-112537500D03*
D39*
X111850000Y-112537500D03*
D40*
X112487500Y-111900000D03*
D36*
X112487500Y-111500000D03*
X112487500Y-111100000D03*
X112487500Y-110700000D03*
X112487500Y-110300000D03*
X112487500Y-109900000D03*
X112487500Y-109500000D03*
X112487500Y-109100000D03*
X112487500Y-108700000D03*
X112487500Y-108300000D03*
X112487500Y-107900000D03*
X112487500Y-107500000D03*
X112487500Y-107100000D03*
X112487500Y-106700000D03*
D41*
X112487500Y-106300000D03*
D42*
X109050000Y-109100000D03*
D20*
X117210000Y-105400000D03*
X116190000Y-105400000D03*
X124910000Y-107300000D03*
X123890000Y-107300000D03*
X100500000Y-119300000D03*
X99480000Y-119300000D03*
D43*
X105450000Y-115950000D03*
X109600000Y-115950000D03*
X105450000Y-118100000D03*
X109600000Y-118100000D03*
D44*
X127650000Y-108934700D03*
X127150000Y-108934700D03*
X126650000Y-108934700D03*
X126150000Y-108934700D03*
D45*
X125930000Y-109904700D03*
D44*
X126150000Y-110874700D03*
X126650000Y-110874700D03*
X127150000Y-110874700D03*
X127650000Y-110874700D03*
D45*
X127870000Y-109904700D03*
D26*
X113670000Y-105550000D03*
X114630000Y-105550000D03*
D28*
X111500000Y-87260000D03*
X111500000Y-86240000D03*
D24*
X110800000Y-116990000D03*
X110800000Y-118010000D03*
X99500000Y-86240000D03*
X99500000Y-87260000D03*
D23*
X114600000Y-110635000D03*
X114600000Y-111665000D03*
D17*
X111600000Y-102760000D03*
X111600000Y-101800000D03*
D28*
X126450000Y-91710000D03*
X126450000Y-90690000D03*
D46*
X127950000Y-106550000D03*
X129850000Y-106550000D03*
D28*
X105100000Y-95610000D03*
X105100000Y-94590000D03*
D47*
X124200000Y-98230000D03*
X125150000Y-98230000D03*
X126100000Y-98230000D03*
X126100000Y-95720000D03*
X125150000Y-95720000D03*
X124200000Y-95720000D03*
D48*
X131850000Y-101950000D03*
X127850000Y-101950000D03*
D17*
X100900000Y-108000000D03*
X100900000Y-107040000D03*
D24*
X125950000Y-105040000D03*
X125950000Y-106060000D03*
D49*
X116200000Y-110400000D03*
X116200000Y-111800000D03*
D25*
X103580000Y-109900000D03*
X102620000Y-109900000D03*
D21*
X110800000Y-115070000D03*
X110800000Y-116030000D03*
D24*
X121000000Y-111390000D03*
X121000000Y-112410000D03*
D50*
X96795000Y-107230000D03*
X96795000Y-109430000D03*
X98495000Y-109430000D03*
D51*
X98495000Y-107230000D03*
D27*
X116355000Y-106800000D03*
X117375000Y-106800000D03*
D25*
X127980000Y-112400000D03*
X127020000Y-112400000D03*
D18*
X114675000Y-85600000D03*
X115268109Y-84168109D03*
X115268109Y-87031891D03*
X116700000Y-83575000D03*
D19*
X116700000Y-85600000D03*
D18*
X116700000Y-87625000D03*
X118131891Y-84168109D03*
X118131891Y-87031891D03*
X118725000Y-85600000D03*
D17*
X113700000Y-107780000D03*
X113700000Y-106820000D03*
D15*
X126199999Y-115344700D03*
X128200001Y-115344700D03*
D16*
X123849999Y-121244700D03*
X130550001Y-121244700D03*
D25*
X105950000Y-113725000D03*
X104990000Y-113725000D03*
D18*
X116575000Y-153600000D03*
X117168109Y-152168109D03*
X117168109Y-155031891D03*
X118600000Y-151575000D03*
D19*
X118600000Y-153600000D03*
D18*
X118600000Y-155625000D03*
X120031891Y-152168109D03*
X120031891Y-155031891D03*
X120625000Y-153600000D03*
D52*
X100500000Y-120400000D03*
X99530000Y-120400000D03*
D53*
X118130000Y-116380000D03*
X117730000Y-116380000D03*
D54*
X117330000Y-116380000D03*
D53*
X116930000Y-116380000D03*
D54*
X116930000Y-117290000D03*
X117330000Y-117290000D03*
D55*
X117730000Y-117290000D03*
X118130000Y-117290000D03*
D56*
X117530000Y-116835000D03*
D21*
X111775000Y-114375000D03*
X111775000Y-115335000D03*
D57*
X94000000Y-95550000D03*
D58*
X119000000Y-95550000D03*
M02*
