G04 #@! TF.GenerationSoftware,KiCad,Pcbnew,9.0.4-9.0.4-0~ubuntu22.04.1*
G04 #@! TF.CreationDate,2025-09-17T13:23:39-04:00*
G04 #@! TF.ProjectId,receiver7RP2350V2,72656365-6976-4657-9237-525032333530,rev?*
G04 #@! TF.SameCoordinates,Original*
G04 #@! TF.FileFunction,Paste,Top*
G04 #@! TF.FilePolarity,Positive*
%FSLAX46Y46*%
G04 Gerber Fmt 4.6, Leading zero omitted, Abs format (unit mm)*
G04 Created by KiCad (PCBNEW 9.0.4-9.0.4-0~ubuntu22.04.1) date 2025-09-17 13:23:39*
%MOMM*%
%LPD*%
G01*
G04 APERTURE LIST*
G04 Aperture macros list*
%AMRoundRect*
0 Rectangle with rounded corners*
0 $1 Rounding radius*
0 $2 $3 $4 $5 $6 $7 $8 $9 X,Y pos of 4 corners*
0 Add a 4 corners polygon primitive as box body*
4,1,4,$2,$3,$4,$5,$6,$7,$8,$9,$2,$3,0*
0 Add four circle primitives for the rounded corners*
1,1,$1+$1,$2,$3*
1,1,$1+$1,$4,$5*
1,1,$1+$1,$6,$7*
1,1,$1+$1,$8,$9*
0 Add four rect primitives between the rounded corners*
20,1,$1+$1,$2,$3,$4,$5,0*
20,1,$1+$1,$4,$5,$6,$7,0*
20,1,$1+$1,$6,$7,$8,$9,0*
20,1,$1+$1,$8,$9,$2,$3,0*%
%AMFreePoly0*
4,1,18,-0.437500,0.050000,-0.433694,0.069134,-0.422855,0.085355,-0.406634,0.096194,-0.387500,0.100000,0.387500,0.100000,0.437500,0.050000,0.437500,-0.050000,0.433694,-0.069134,0.422855,-0.085355,0.406634,-0.096194,0.387500,-0.100000,-0.387500,-0.100000,-0.406634,-0.096194,-0.422855,-0.085355,-0.433694,-0.069134,-0.437500,-0.050000,-0.437500,0.050000,-0.437500,0.050000,$1*%
%AMFreePoly1*
4,1,18,-0.437500,0.050000,-0.433694,0.069134,-0.422855,0.085355,-0.406634,0.096194,-0.387500,0.100000,0.387500,0.100000,0.406634,0.096194,0.422855,0.085355,0.433694,0.069134,0.437500,0.050000,0.437500,-0.050000,0.387500,-0.100000,-0.387500,-0.100000,-0.406634,-0.096194,-0.422855,-0.085355,-0.433694,-0.069134,-0.437500,-0.050000,-0.437500,0.050000,-0.437500,0.050000,$1*%
%AMFreePoly2*
4,1,18,-0.100000,0.387500,-0.050000,0.437500,0.050000,0.437500,0.069134,0.433694,0.085355,0.422855,0.096194,0.406634,0.100000,0.387500,0.100000,-0.387500,0.096194,-0.406634,0.085355,-0.422855,0.069134,-0.433694,0.050000,-0.437500,-0.050000,-0.437500,-0.069134,-0.433694,-0.085355,-0.422855,-0.096194,-0.406634,-0.100000,-0.387500,-0.100000,0.387500,-0.100000,0.387500,$1*%
%AMFreePoly3*
4,1,18,-0.100000,0.387500,-0.096194,0.406634,-0.085355,0.422855,-0.069134,0.433694,-0.050000,0.437500,0.050000,0.437500,0.100000,0.387500,0.100000,-0.387500,0.096194,-0.406634,0.085355,-0.422855,0.069134,-0.433694,0.050000,-0.437500,-0.050000,-0.437500,-0.069134,-0.433694,-0.085355,-0.422855,-0.096194,-0.406634,-0.100000,-0.387500,-0.100000,0.387500,-0.100000,0.387500,$1*%
%AMFreePoly4*
4,1,18,-0.437500,0.050000,-0.433694,0.069134,-0.422855,0.085355,-0.406634,0.096194,-0.387500,0.100000,0.387500,0.100000,0.406634,0.096194,0.422855,0.085355,0.433694,0.069134,0.437500,0.050000,0.437500,-0.050000,0.433694,-0.069134,0.422855,-0.085355,0.406634,-0.096194,0.387500,-0.100000,-0.387500,-0.100000,-0.437500,-0.050000,-0.437500,0.050000,-0.437500,0.050000,$1*%
%AMFreePoly5*
4,1,18,-0.437500,0.050000,-0.387500,0.100000,0.387500,0.100000,0.406634,0.096194,0.422855,0.085355,0.433694,0.069134,0.437500,0.050000,0.437500,-0.050000,0.433694,-0.069134,0.422855,-0.085355,0.406634,-0.096194,0.387500,-0.100000,-0.387500,-0.100000,-0.406634,-0.096194,-0.422855,-0.085355,-0.433694,-0.069134,-0.437500,-0.050000,-0.437500,0.050000,-0.437500,0.050000,$1*%
%AMFreePoly6*
4,1,18,-0.100000,0.387500,-0.096194,0.406634,-0.085355,0.422855,-0.069134,0.433694,-0.050000,0.437500,0.050000,0.437500,0.069134,0.433694,0.085355,0.422855,0.096194,0.406634,0.100000,0.387500,0.100000,-0.387500,0.050000,-0.437500,-0.050000,-0.437500,-0.069134,-0.433694,-0.085355,-0.422855,-0.096194,-0.406634,-0.100000,-0.387500,-0.100000,0.387500,-0.100000,0.387500,$1*%
%AMFreePoly7*
4,1,18,-0.100000,0.387500,-0.096194,0.406634,-0.085355,0.422855,-0.069134,0.433694,-0.050000,0.437500,0.050000,0.437500,0.069134,0.433694,0.085355,0.422855,0.096194,0.406634,0.100000,0.387500,0.100000,-0.387500,0.096194,-0.406634,0.085355,-0.422855,0.069134,-0.433694,0.050000,-0.437500,-0.050000,-0.437500,-0.100000,-0.387500,-0.100000,0.387500,-0.100000,0.387500,$1*%
G04 Aperture macros list end*
%ADD10C,0.010000*%
%ADD11R,0.600000X1.150000*%
%ADD12R,0.300000X1.150000*%
%ADD13R,0.990600X3.505200*%
%ADD14R,1.498600X3.200000*%
%ADD15RoundRect,0.140000X0.170000X-0.140000X0.170000X0.140000X-0.170000X0.140000X-0.170000X-0.140000X0*%
%ADD16RoundRect,0.135000X0.135000X0.185000X-0.135000X0.185000X-0.135000X-0.185000X0.135000X-0.185000X0*%
%ADD17RoundRect,0.140000X-0.170000X0.140000X-0.170000X-0.140000X0.170000X-0.140000X0.170000X0.140000X0*%
%ADD18RoundRect,0.250000X0.475000X-0.250000X0.475000X0.250000X-0.475000X0.250000X-0.475000X-0.250000X0*%
%ADD19R,0.530000X0.470000*%
%ADD20RoundRect,0.135000X-0.185000X0.135000X-0.185000X-0.135000X0.185000X-0.135000X0.185000X0.135000X0*%
%ADD21RoundRect,0.140000X0.140000X0.170000X-0.140000X0.170000X-0.140000X-0.170000X0.140000X-0.170000X0*%
%ADD22RoundRect,0.140000X-0.140000X-0.170000X0.140000X-0.170000X0.140000X0.170000X-0.140000X0.170000X0*%
%ADD23RoundRect,0.135000X-0.135000X-0.185000X0.135000X-0.185000X0.135000X0.185000X-0.135000X0.185000X0*%
%ADD24RoundRect,0.135000X0.185000X-0.135000X0.185000X0.135000X-0.185000X0.135000X-0.185000X-0.135000X0*%
%ADD25R,0.660400X1.549400*%
%ADD26R,1.295400X1.905000*%
%ADD27RoundRect,0.312500X0.437500X0.312500X-0.437500X0.312500X-0.437500X-0.312500X0.437500X-0.312500X0*%
%ADD28RoundRect,0.250000X-0.350000X0.350000X-0.350000X-0.350000X0.350000X-0.350000X0.350000X0.350000X0*%
%ADD29FreePoly0,270.000000*%
%ADD30RoundRect,0.050000X-0.050000X0.387500X-0.050000X-0.387500X0.050000X-0.387500X0.050000X0.387500X0*%
%ADD31FreePoly1,270.000000*%
%ADD32FreePoly2,270.000000*%
%ADD33RoundRect,0.050000X-0.387500X0.050000X-0.387500X-0.050000X0.387500X-0.050000X0.387500X0.050000X0*%
%ADD34FreePoly3,270.000000*%
%ADD35FreePoly4,270.000000*%
%ADD36FreePoly5,270.000000*%
%ADD37FreePoly6,270.000000*%
%ADD38FreePoly7,270.000000*%
%ADD39R,1.050000X0.650000*%
%ADD40RoundRect,0.033750X-0.101250X0.361250X-0.101250X-0.361250X0.101250X-0.361250X0.101250X0.361250X0*%
%ADD41RoundRect,0.033750X-0.361250X0.101250X-0.361250X-0.101250X0.361250X-0.101250X0.361250X0.101250X0*%
%ADD42RoundRect,0.250000X-0.250000X-0.475000X0.250000X-0.475000X0.250000X0.475000X-0.250000X0.475000X0*%
%ADD43RoundRect,0.073750X0.221250X-0.531250X0.221250X0.531250X-0.221250X0.531250X-0.221250X-0.531250X0*%
%ADD44RoundRect,0.250000X1.000000X0.650000X-1.000000X0.650000X-1.000000X-0.650000X1.000000X-0.650000X0*%
%ADD45R,1.700000X0.700000*%
%ADD46R,1.200000X1.400000*%
%ADD47RoundRect,0.147500X0.147500X0.172500X-0.147500X0.172500X-0.147500X-0.172500X0.147500X-0.172500X0*%
%ADD48RoundRect,0.062500X-0.062500X0.092500X-0.062500X-0.092500X0.062500X-0.092500X0.062500X0.092500X0*%
G04 APERTURE END LIST*
D10*
X117510000Y-116920000D02*
X116930000Y-116920000D01*
X116930000Y-116750000D01*
X117510000Y-116750000D01*
X117510000Y-116920000D01*
G36*
X117510000Y-116920000D02*
G01*
X116930000Y-116920000D01*
X116930000Y-116750000D01*
X117510000Y-116750000D01*
X117510000Y-116920000D01*
G37*
X118130000Y-116920000D02*
X117550000Y-116920000D01*
X117550000Y-116750000D01*
X118130000Y-116750000D01*
X118130000Y-116920000D01*
G36*
X118130000Y-116920000D02*
G01*
X117550000Y-116920000D01*
X117550000Y-116750000D01*
X118130000Y-116750000D01*
X118130000Y-116920000D01*
G37*
D11*
X128200000Y-88405000D03*
X127400000Y-88405000D03*
D12*
X126250000Y-88405000D03*
X125250000Y-88405000D03*
X124750000Y-88405000D03*
X123750000Y-88405000D03*
D11*
X121800000Y-88405000D03*
X122600000Y-88405000D03*
D12*
X123250000Y-88405000D03*
X124250000Y-88405000D03*
X125750000Y-88405000D03*
X126750000Y-88405000D03*
D13*
X90999999Y-115294700D03*
X93000001Y-115294700D03*
D14*
X88649999Y-121194700D03*
X95350001Y-121194700D03*
D15*
X107600000Y-104480000D03*
X107600000Y-103520000D03*
D16*
X124910000Y-106250000D03*
X123890000Y-106250000D03*
D15*
X119250000Y-117830000D03*
X119250000Y-116870000D03*
D17*
X109300000Y-113720000D03*
X109300000Y-114680000D03*
D18*
X129700000Y-110394700D03*
X129700000Y-108494700D03*
D19*
X113650000Y-110635000D03*
X113650000Y-111665000D03*
D16*
X122020000Y-113400000D03*
X121000000Y-113400000D03*
D11*
X108700000Y-88405000D03*
X107900000Y-88405000D03*
D12*
X106750000Y-88405000D03*
X105750000Y-88405000D03*
X105250000Y-88405000D03*
X104250000Y-88405000D03*
D11*
X102300000Y-88405000D03*
X103100000Y-88405000D03*
D12*
X103750000Y-88405000D03*
X104750000Y-88405000D03*
X106250000Y-88405000D03*
X107250000Y-88405000D03*
D20*
X123900000Y-91090000D03*
X123900000Y-92110000D03*
D21*
X103580000Y-107500000D03*
X102620000Y-107500000D03*
D20*
X104700000Y-103000000D03*
X104700000Y-104020000D03*
D22*
X117720000Y-115400000D03*
X118680000Y-115400000D03*
D23*
X102565000Y-108975000D03*
X103585000Y-108975000D03*
D21*
X116660000Y-115400000D03*
X115700000Y-115400000D03*
D17*
X100895000Y-108900000D03*
X100895000Y-109860000D03*
D23*
X116340000Y-107825000D03*
X117360000Y-107825000D03*
D24*
X114625000Y-113560000D03*
X114625000Y-112540000D03*
D25*
X98625000Y-117100000D03*
X99625001Y-117100000D03*
X100624999Y-117100000D03*
X101625000Y-117100000D03*
D26*
X97325001Y-114520000D03*
X102924999Y-114520000D03*
D17*
X124750000Y-108350000D03*
X124750000Y-109310000D03*
D27*
X122000000Y-99150000D03*
X122000000Y-101150000D03*
D17*
X113650000Y-112545000D03*
X113650000Y-113505000D03*
D28*
X109750000Y-108400000D03*
X108350000Y-108400000D03*
X109750000Y-109800000D03*
X108350000Y-109800000D03*
D29*
X111850000Y-105662500D03*
D30*
X111450000Y-105662500D03*
X111050000Y-105662500D03*
X110650000Y-105662500D03*
X110250000Y-105662500D03*
X109850000Y-105662500D03*
X109450000Y-105662500D03*
X109050000Y-105662500D03*
X108650000Y-105662500D03*
X108250000Y-105662500D03*
X107850000Y-105662500D03*
X107450000Y-105662500D03*
X107050000Y-105662500D03*
X106650000Y-105662500D03*
D31*
X106250000Y-105662500D03*
D32*
X105612500Y-106300000D03*
D33*
X105612500Y-106700000D03*
X105612500Y-107100000D03*
X105612500Y-107500000D03*
X105612500Y-107900000D03*
X105612500Y-108300000D03*
X105612500Y-108700000D03*
X105612500Y-109100000D03*
X105612500Y-109500000D03*
X105612500Y-109900000D03*
X105612500Y-110300000D03*
X105612500Y-110700000D03*
X105612500Y-111100000D03*
X105612500Y-111500000D03*
D34*
X105612500Y-111900000D03*
D35*
X106250000Y-112537500D03*
D30*
X106650000Y-112537500D03*
X107050000Y-112537500D03*
X107450000Y-112537500D03*
X107850000Y-112537500D03*
X108250000Y-112537500D03*
X108650000Y-112537500D03*
X109050000Y-112537500D03*
X109450000Y-112537500D03*
X109850000Y-112537500D03*
X110250000Y-112537500D03*
X110650000Y-112537500D03*
X111050000Y-112537500D03*
X111450000Y-112537500D03*
D36*
X111850000Y-112537500D03*
D37*
X112487500Y-111900000D03*
D33*
X112487500Y-111500000D03*
X112487500Y-111100000D03*
X112487500Y-110700000D03*
X112487500Y-110300000D03*
X112487500Y-109900000D03*
X112487500Y-109500000D03*
X112487500Y-109100000D03*
X112487500Y-108700000D03*
X112487500Y-108300000D03*
X112487500Y-107900000D03*
X112487500Y-107500000D03*
X112487500Y-107100000D03*
X112487500Y-106700000D03*
D38*
X112487500Y-106300000D03*
D16*
X117210000Y-105400000D03*
X116190000Y-105400000D03*
X124910000Y-107300000D03*
X123890000Y-107300000D03*
X100500000Y-119300000D03*
X99480000Y-119300000D03*
D39*
X105450000Y-115950000D03*
X109600000Y-115950000D03*
X105450000Y-118100000D03*
X109600000Y-118100000D03*
D40*
X127650000Y-108934700D03*
X127150000Y-108934700D03*
X126650000Y-108934700D03*
X126150000Y-108934700D03*
D41*
X125930000Y-109904700D03*
D40*
X126150000Y-110874700D03*
X126650000Y-110874700D03*
X127150000Y-110874700D03*
X127650000Y-110874700D03*
D41*
X127870000Y-109904700D03*
D22*
X113670000Y-105550000D03*
X114630000Y-105550000D03*
D24*
X111500000Y-87260000D03*
X111500000Y-86240000D03*
D20*
X110800000Y-116990000D03*
X110800000Y-118010000D03*
X99500000Y-86240000D03*
X99500000Y-87260000D03*
D19*
X114600000Y-110635000D03*
X114600000Y-111665000D03*
D15*
X111600000Y-102760000D03*
X111600000Y-101800000D03*
D24*
X126450000Y-91710000D03*
X126450000Y-90690000D03*
D42*
X127950000Y-106550000D03*
X129850000Y-106550000D03*
D24*
X105100000Y-95610000D03*
X105100000Y-94590000D03*
D43*
X124200000Y-98230000D03*
X125150000Y-98230000D03*
X126100000Y-98230000D03*
X126100000Y-95720000D03*
X125150000Y-95720000D03*
X124200000Y-95720000D03*
D44*
X131850000Y-101950000D03*
X127850000Y-101950000D03*
D15*
X100900000Y-108000000D03*
X100900000Y-107040000D03*
D20*
X125950000Y-105040000D03*
X125950000Y-106060000D03*
D45*
X116200000Y-110400000D03*
X116200000Y-111800000D03*
D21*
X103580000Y-109900000D03*
X102620000Y-109900000D03*
D17*
X110800000Y-115070000D03*
X110800000Y-116030000D03*
D20*
X121000000Y-111390000D03*
X121000000Y-112410000D03*
D46*
X96795000Y-107230000D03*
X96795000Y-109430000D03*
X98495000Y-109430000D03*
X98495000Y-107230000D03*
D23*
X116355000Y-106800000D03*
X117375000Y-106800000D03*
D21*
X127980000Y-112400000D03*
X127020000Y-112400000D03*
D15*
X113700000Y-107780000D03*
X113700000Y-106820000D03*
D13*
X126199999Y-115344700D03*
X128200001Y-115344700D03*
D14*
X123849999Y-121244700D03*
X130550001Y-121244700D03*
D21*
X105950000Y-113725000D03*
X104990000Y-113725000D03*
D47*
X100500000Y-120400000D03*
X99530000Y-120400000D03*
D48*
X118130000Y-116380000D03*
X117730000Y-116380000D03*
X117330000Y-116380000D03*
X116930000Y-116380000D03*
X116930000Y-117290000D03*
X117330000Y-117290000D03*
X117730000Y-117290000D03*
X118130000Y-117290000D03*
D17*
X111775000Y-114375000D03*
X111775000Y-115335000D03*
M02*
