%TF.GenerationSoftware,KiCad,Pcbnew,9.0.4-9.0.4-0~ubuntu22.04.1*%
%TF.CreationDate,2025-09-03T15:31:38-04:00*%
%TF.ProjectId,receiver_panel_dualUSB,72656365-6976-4657-925f-70616e656c5f,rev?*%
%TF.SameCoordinates,Original*%
%TF.FileFunction,Legend,Bot*%
%TF.FilePolarity,Positive*%
%FSLAX46Y46*%
G04 Gerber Fmt 4.6, Leading zero omitted, Abs format (unit mm)*
G04 Created by KiCad (PCBNEW 9.0.4-9.0.4-0~ubuntu22.04.1) date 2025-09-03 15:31:38*
%MOMM*%
%LPD*%
G01*
G04 APERTURE LIST*
%ADD10C,0.120000*%
%ADD11C,0.200000*%
%ADD12C,0.100000*%
%ADD13C,0.150000*%
G04 APERTURE END LIST*
D10*
%TO.C,C3*%
X133142164Y-50990500D02*
X133357836Y-50990500D01*
X133142164Y-51710500D02*
X133357836Y-51710500D01*
%TO.C,C5*%
X150527836Y-37880500D02*
X150312164Y-37880500D01*
X150527836Y-38600500D02*
X150312164Y-38600500D01*
%TO.C,C1*%
X152152164Y-37870500D02*
X152367836Y-37870500D01*
X152152164Y-38590500D02*
X152367836Y-38590500D01*
D11*
%TO.C,J6*%
X130050000Y-43300500D02*
X130050000Y-49900500D01*
X130050000Y-49900500D02*
X132050000Y-49900500D01*
X131050000Y-39900500D02*
X131850000Y-39900500D01*
D12*
X132450000Y-39200500D02*
X132450000Y-39200500D01*
X132450000Y-39300500D02*
X132450000Y-39300500D01*
D11*
X138650000Y-39900500D02*
X141450000Y-39900500D01*
X139050000Y-49900500D02*
X141850000Y-49900500D01*
X156250000Y-39900500D02*
X157450000Y-39900500D01*
X158450000Y-43300500D02*
X158450000Y-49900500D01*
X158450000Y-49900500D02*
X156650000Y-49900500D01*
D12*
X132450000Y-39200500D02*
G75*
G02*
X132450000Y-39300500I0J-50000D01*
G01*
X132450000Y-39300500D02*
G75*
G02*
X132450000Y-39200500I0J50000D01*
G01*
D10*
%TO.C,C2*%
X145067164Y-50840500D02*
X145282836Y-50840500D01*
X145067164Y-51560500D02*
X145282836Y-51560500D01*
%TO.C,C4*%
X155882836Y-50840500D02*
X155667164Y-50840500D01*
X155882836Y-51560500D02*
X155667164Y-51560500D01*
D13*
%TO.C,J3*%
X158750000Y-93550500D02*
G75*
G02*
X153950000Y-93550500I-2400000J0D01*
G01*
X153950000Y-93550500D02*
G75*
G02*
X158750000Y-93550500I2400000J0D01*
G01*
%TO.C,J2*%
X134550000Y-93550500D02*
G75*
G02*
X129750000Y-93550500I-2400000J0D01*
G01*
X129750000Y-93550500D02*
G75*
G02*
X134550000Y-93550500I2400000J0D01*
G01*
D10*
%TO.C,C24*%
X164190000Y-43258336D02*
X164190000Y-43042664D01*
X164910000Y-43258336D02*
X164910000Y-43042664D01*
%TD*%
M02*
